<svg xmlns="http://www.w3.org/2000/svg" version="1.1" x="0px" y="0px" viewBox="0 0 100 125" enable-background="new 0 0 100 100" xml:space="preserve">
    <g display="none">
        <path display="inline" d="M50.002,32.008c9.916,0,17.989,8.07,17.989,17.992c0,9.92-8.073,17.99-17.989,17.99   c-9.921,0-17.995-8.07-17.995-17.99C32.007,40.078,40.081,32.008,50.002,32.008 M50.002,14.018   C30.13,14.018,14.018,30.127,14.018,50S30.13,85.982,50.002,85.982c19.873,0,35.98-16.109,35.98-35.982   S69.875,14.018,50.002,14.018L50.002,14.018z"/>
    </g>
    <g display="none">
        <path display="inline" d="M50.463,22.014c-19.869,0-35.984,11.045-35.984,24.674c0,6.475,3.667,12.341,9.612,16.748l-4.027,14.551   l20.54-7.58c3.132,0.613,6.438,0.968,9.859,0.968c19.873,0,35.98-11.05,35.98-24.684C86.443,33.059,70.336,22.014,50.463,22.014z"/>
    </g>
    <g display="none">
        <rect x="15.209" y="32.137" transform="matrix(-0.7071 -0.7071 0.7071 -0.7071 47.1318 113.7829)" display="inline" width="63.843" height="29.986"/>
        <polygon display="inline" points="64.752,85.957 64.842,86.045 85.982,85.98 86.045,64.842 85.957,64.756  "/>
    </g>
    <g>
        <path d="M27.405,99.077C28.202,99.655,29.176,100,30.23,100c2.613,0,4.74-2.121,4.742-4.74l-0.004-7.112h58.52   c2.616,0,4.738-2.124,4.738-4.74V66.804c0-2.615-2.122-4.742-4.738-4.742H34.971l0.002-7.111c0-2.619-2.126-4.741-4.742-4.741   c-1.053,0-2.028,0.346-2.818,0.927L3.521,70.895c-2.329,2.325-2.329,6.092,0,8.416L27.405,99.077z"/>
        <path d="M72.595,48.864c-0.794,0.585-1.769,0.925-2.82,0.925c-2.621,0-4.743-2.123-4.743-4.743l-0.002-7.11H6.518   c-2.62,0-4.745-2.125-4.745-4.744V16.593c0-2.616,2.123-4.738,4.745-4.738h58.511l0.002-7.113C65.031,2.121,67.153,0,69.772,0   c1.054,0,2.028,0.345,2.819,0.925l23.891,19.763c2.325,2.325,2.325,6.092,0,8.416L72.595,48.864z"/>
    </g>
</svg>