<?xml version="1.0" encoding="utf-8"?>
<!-- Generator: Adobe Illustrator 22.1.0, SVG Export Plug-In . SVG Version: 6.00 Build 0)  -->
<svg version="1.1" id="Layer_1" xmlns="http://www.w3.org/2000/svg" xmlns:xlink="http://www.w3.org/1999/xlink" x="0px" y="0px"
	 width="9px" height="7px" viewBox="0 0 9 7" style="enable-background:new 0 0 9 7;" xml:space="preserve">
<style type="text/css">
	.st0{fill:#BFC0C0;}
</style>
<path class="st0" d="M2.7,7C2.6,7,2.5,7,2.5,6.9L0.1,4.7C0,4.7,0,4.6,0,4.4s0-0.2,0.1-0.3L2.5,2c0.1-0.1,0.3-0.1,0.4-0.1
	C3,2,3.1,2.1,3.1,2.3v0.8l3.1,0c0.1,0,0.2,0,0.3,0.1c0.1,0.1,0.1,0.2,0.1,0.3v0.4L8,2.6L6.6,1.3v0.4C6.6,1.9,6.4,2,6.2,2H3.9
	C3.7,2,3.5,1.9,3.5,1.7s0.2-0.4,0.4-0.4h2V0.4c0-0.2,0.1-0.3,0.2-0.4C6.2,0,6.4,0,6.5,0.1l2.3,2.2C8.9,2.3,9,2.5,9,2.6
	s0,0.2-0.1,0.3L6.5,5C6.4,5.1,6.2,5.2,6.1,5.1C5.9,5,5.9,4.9,5.9,4.7V3.9l-3.1,0c-0.1,0-0.2,0-0.3-0.1C2.4,3.7,2.3,3.6,2.3,3.5V3.1
	L0.9,4.4l1.4,1.3l0-0.4c0-0.1,0-0.2,0.1-0.3C2.5,5,2.6,5,2.7,5h2.3c0.2,0,0.4,0.2,0.4,0.4c0,0.2-0.2,0.4-0.4,0.4h-2l0,0.8
	C3.1,6.8,3,6.9,2.9,7C2.8,7,2.8,7,2.7,7z"/>
</svg>
