<svg xmlns="http://www.w3.org/2000/svg" width="26.844" height="20.938" viewBox="0 0 26.844 20.938">
  <metadata><?xpacket begin="﻿" id="W5M0MpCehiHzreSzNTczkc9d"?>
<x:xmpmeta xmlns:x="adobe:ns:meta/" x:xmptk="Adobe XMP Core 5.6-c142 79.160924, 2017/07/13-01:06:39        ">
   <rdf:RDF xmlns:rdf="http://www.w3.org/1999/02/22-rdf-syntax-ns#">
      <rdf:Description rdf:about=""/>
   </rdf:RDF>
</x:xmpmeta>
                                                                                                    
                                                                                                    
                                                                                                    
                                                                                                    
                                                                                                    
                                                                                                    
                                                                                                    
                                                                                                    
                                                                                                    
                                                                                                    
                                                                                                    
                                                                                                    
                                                                                                    
                                                                                                    
                                                                                                    
                                                                                                    
                                                                                                    
                                                                                                    
                                                                                                    
                                                                                                    
                           
<?xpacket end="w"?></metadata>
<defs>
    <style>
      .cls-1 {
        fill: #209dd8;
        fill-rule: evenodd;
      }
    </style>
  </defs>
  <path class="cls-1" d="M766.828,45.334a0.962,0.962,0,0,0-1.355,0,0.947,0.947,0,0,0-.281.673v2.856h-6.709a0.952,0.952,0,1,0,0,1.9h7.668a0.955,0.955,0,0,0,.958-0.952v-1.51l4.395,4.366-4.395,4.366v-1.51a0.955,0.955,0,0,0-.958-0.952H755.607V51.719a0.96,0.96,0,0,0-1.636-.673l-6.709,6.664a0.948,0.948,0,0,0,0,1.346l6.709,6.664a0.963,0.963,0,0,0,.678.279,0.956,0.956,0,0,0,.958-0.952V62.191h6.71a0.952,0.952,0,1,0,0-1.9h-7.668a0.956,0.956,0,0,0-.959.952v1.51l-4.4-4.366,4.4-4.366v1.51a0.956,0.956,0,0,0,.959.952h10.543v2.856a0.96,0.96,0,0,0,1.636.673l6.709-6.664a0.946,0.946,0,0,0,0-1.346Z" transform="translate(-746.969 -45.063)"/>
</svg>
