<?xml version="1.0" encoding="utf-8"?>
<!-- Generator: Adobe Illustrator 22.1.0, SVG Export Plug-In . SVG Version: 6.00 Build 0)  -->
<svg version="1.1" id="Слой_1" xmlns="http://www.w3.org/2000/svg" xmlns:xlink="http://www.w3.org/1999/xlink" x="0px" y="0px"
	 width="32px" height="32px" viewBox="0 0 32 32" style="enable-background:new 0 0 32 32;" xml:space="preserve">
<g>
	<path style="fill:#FE0000;" d="M0,9.6c0.2,0,0.3,0,0.5,0c1.3,0,2.6,0,4,0c0.1,0,0.1,0,0.2,0c0.1,0.5,0.2,1.1,0.3,1.6
		c-0.5,0-0.9,0-1.4,0c0.6,3.4,1.2,6.9,1.8,10.3c0,0.3,0.1,0.6,0.1,0.8c-0.6,0-1.2,0-1.9,0c-0.3-1.3-0.5-2.7-0.7-4
		c-0.4-2.4-0.8-4.7-1.3-7.1c-0.5,0-0.9,0-1.4,0C0.2,10.7,0.1,10.2,0,9.6z"/>
	<g>
		<path style="fill:#FE0000;" d="M5.5,9.7c0.1-0.1,0.2-0.1,0.3-0.1c0.9,0,1.8,0,2.7,0c0.1,0,0.3,0,0.4,0.1C9,9.8,9.1,9.8,9.1,10
			c0.9,3.8,1.7,7.5,2.6,11.3c0.1,0.4,0.2,0.8,0.3,1.1c-0.6,0-1.2,0-1.8,0c0-0.1-0.1-0.3-0.1-0.4c-0.3-1.3-0.6-2.6-0.9-3.9
			c-0.3,0-0.7,0-1,0c0.1,1.1,0.5,4,0.6,4.3c-0.6,0-1.2,0-1.8,0c-0.1-0.1,0-0.1-0.1-0.2c-0.3-2.3-0.6-4.6-0.8-6.9
			c-0.2-1.8-0.4-3.5-0.6-5.3C5.4,10,5.4,9.8,5.5,9.7z M7.3,11.2c0,0.2,0.4,3.6,0.6,5.2c0.3,0,0.6,0,0.9,0c0-0.1,0-0.2-0.1-0.3
			c-0.3-1.5-0.7-3.1-1-4.6c0-0.1,0-0.2-0.1-0.3C7.5,11.2,7.4,11.2,7.3,11.2z"/>
	</g>
	<path style="fill:#FE0000;" d="M11.1,9.6c0.5,0,1,0,1.6,0c0.9,0,1.7,0,2.6,0c0.2,0,0.3,0,0.5,0c0,0.5,0,1.1,0,1.6
		c-0.5,0-0.9,0-1.4,0v0.1c0,3.7,0,7.3,0,11c-0.6,0-1.3,0-1.9,0c0-3.7,0-7.4,0-11.1c-0.5,0-0.9,0-1.4,0C11.1,10.7,11.1,10.2,11.1,9.6
		z"/>
	<g>
		<path style="fill:#FE0000;" d="M16.7,9.7c0.1,0,0.3,0,0.4,0c0.9,0,1.8,0,2.7,0c0.2,0,0.3,0.1,0.4,0.3c0.2,2.8,0.3,5.6,0.5,8.3
			c0.1,1.4,0.2,2.7,0.2,4.1c-0.5,0-1,0-1.5,0c-0.1,0-0.2,0-0.3,0c0-0.4,0-0.7,0-1.1c0-0.3,0-0.6,0-0.8c0-0.3,0-0.6,0-0.9
			c0-0.5,0-1-0.1-1.5c-0.3,0-0.7,0-1,0c0,0.2,0,0.4,0,0.5c0,0.2,0,0.4,0,0.7c0,0.2,0,0.5,0,0.7c0,0.3,0,0.5,0,0.8c0,0.5,0,1,0,1.5
			c0,0,0,0.1-0.1,0.1c-0.6,0-1.2,0-1.8,0c0-0.6,0.7-12.4,0.7-12.4C16.5,9.8,16.6,9.7,16.7,9.7z M18.1,11.2c-0.1,1.7-0.2,3.5-0.3,5.2
			c0.3,0,0.6,0,0.9,0c0-1.4-0.2-4.9-0.3-5.2C18.4,11.2,18.3,11.2,18.1,11.2z"/>
	</g>
	<path style="fill:#FE0000;" d="M22.2,9.6c0,0,1,0,1.4,0c0.9,0,1.8,0,2.7,0c0.2,0,0.3,0,0.5,0c-0.1,0.5-0.2,1.1-0.3,1.6
		c-0.5,0-0.9,0-1.4,0c-0.6,3.6-1.3,7.2-1.9,10.7c0,0.1,0,0.3-0.1,0.4c-0.6,0-1.2,0-1.9,0c0-0.3,0.1-0.5,0.1-0.8
		c0.6-3.3,1.2-6.7,1.8-10c0-0.1,0-0.2,0-0.3c-0.5,0-0.9,0-1.4,0L22.2,9.6z"/>
	<path style="fill:#FE0000;" d="M27.4,9.6c0.4,0,0.7,0,1.1,0c0.2,0,0.5,0,0.7,0c0,0.4-0.1,0.8-0.2,1.2c-0.5,3.1-1.1,6.3-1.7,9.4
		c0,0.1-0.1,0.3,0,0.4c0,0.1,0.1,0.1,0.2,0.1c0.2,0,0.4,0,0.6,0c0.1,0,0.2-0.2,0.2-0.3c0.6-3.6,1.3-7.2,1.9-10.8c0.3,0,0.6,0,0.9,0
		s0.6,0,0.9,0c-0.6,3.5-1.2,6.9-1.8,10.4c0,0.3-0.1,0.5-0.1,0.8c-0.2,0.6-0.7,1.2-1.3,1.4c-0.4,0.2-0.9,0.1-1.3,0.1s-0.8,0-1.1-0.1
		c-0.6-0.2-0.9-0.8-0.8-1.4c0.1-0.3,0.1-0.7,0.2-1C26.2,16.4,26.8,13,27.4,9.6z"/>
</g>
</svg>
