<?xml version="1.0" encoding="utf-8"?>
<!-- Generator: Adobe Illustrator 22.1.0, SVG Export Plug-In . SVG Version: 6.00 Build 0)  -->
<svg version="1.1" id="Слой_1" xmlns="http://www.w3.org/2000/svg" xmlns:xlink="http://www.w3.org/1999/xlink" x="0px" y="0px"
	 viewBox="0 0 32 32" style="enable-background:new 0 0 32 32;" xml:space="preserve">
<style type="text/css">
	.st0{fill:url(#SVGID_1_);}
	.st1{fill:#FFFFFF;}
</style>
<linearGradient id="SVGID_1_" gradientUnits="userSpaceOnUse" x1="16" y1="32" x2="16" y2="-1.818989e-12">
	<stop  offset="0" style="stop-color:#7F46DD"/>
	<stop  offset="1" style="stop-color:#CEA0FB"/>
</linearGradient>
<circle class="st0" cx="16" cy="16" r="16"/>
<g>
	<circle class="st1" cx="16" cy="16" r="0"/>
	<g>
		<path class="st1" d="M16,16L16,16L16,16L16,16L16,16L16,16L16,16L16,16L16,16L16,16L16,16C16,16,16,16,16,16C16,16,16,16,16,16
			L16,16L16,16L16,16L16,16L16,16L16,16L16,16L16,16L16,16L16,16L16,16L16,16L16,16z M16,16L16,16C16,16,16,16,16,16
			C16,16,16,16,16,16L16,16L16,16z M16,16L16,16L16,16L16,16L16,16z M16,16L16,16L16,16L16,16L16,16z"/>
		<path class="st1" d="M16,16C16,16,16,16,16,16C16,16,16,16,16,16C16,16,16,16,16,16C16,16,16,16,16,16 M16,16C16,16,16,16,16,16
			C16,16,16,16,16,16C16,16,16,16,16,16C16,16,16,16,16,16C16,16,16,16,16,16C16,16,16,16,16,16C16,16,16,16,16,16
			C16,16,16,16,16,16L16,16z"/>
	</g>
</g>
<path class="st1" d="M22.5,9.5c0,0-9.9,0-10.2,0C10.1,10.2,9.8,12,9.8,12v7c0,0-1.6,0.2-1.6,1.7s1.2,1.8,1.2,1.8s9.7,0.1,9.9,0
	c2.5-0.3,2.8-2.7,2.8-2.7V13c0,0,1.7-0.2,1.7-1.7S22.5,9.5,22.5,9.5z M20.1,12.5c0,0.5,0,7,0,7s-0.4,1.1-1,1.1s-7.6,0-7.6,0
	s0.4-0.4,0.4-1c0-0.6,0-6.8,0-6.8s0-0.8,0.9-1h7.7C20.5,11.6,20.1,11.9,20.1,12.5z"/>
<path class="st1" d="M16,3.7c6.8,0,12.3,5.5,12.3,12.3c0,6.8-5.5,12.3-12.3,12.3C9.2,28.3,3.7,22.8,3.7,16C3.7,9.2,9.2,3.7,16,3.7
	 M16,2C8.3,2,2,8.3,2,16s6.3,14,14,14s14-6.3,14-14S23.7,2,16,2L16,2z"/>
</svg>
