<?xml version="1.0" encoding="utf-8"?>
<!-- Generator: Adobe Illustrator 21.1.0, SVG Export Plug-In . SVG Version: 6.00 Build 0)  -->
<svg version="1.1" id="Слой_1" xmlns="http://www.w3.org/2000/svg" xmlns:xlink="http://www.w3.org/1999/xlink" x="0px" y="0px"
	 viewBox="0 0 32 32" style="enable-background:new 0 0 32 32;" xml:space="preserve">
<style type="text/css">
	.st0{fill:#6A390A;}
	.st1{fill:#FFFFFF;}
</style>
<g>
	<circle class="st0" cx="16" cy="16" r="16"/>
	<g>
		<path class="st1" d="M16.7,14.5H6.1c-0.1,0-0.1-0.1-0.1-0.1l1.4-3.6c0-0.1,0.1-0.1,0.1-0.1h10.7c0.1,0,0.1,0.1,0.1,0.1l-1.4,3.6
			C16.9,14.5,16.8,14.5,16.7,14.5z"/>
		<path class="st1" d="M12.8,15.4l-4,10.1c0,0.1-0.1,0.1-0.1,0.1H5.3c-0.1,0-0.1-0.1-0.1-0.1l4-10.1c0-0.1,0.1-0.1,0.1-0.1h3.4
			C12.7,15.2,12.8,15.3,12.8,15.4z"/>
		<path class="st1" d="M26,7.6c-1.3-1.4-4.4-1.3-4.4-1.3h-8.8c-0.1,0-0.1,0.1-0.1,0.1l-1.3,3.2c0,0.1,0.1,0.1,0.1,0.1h8.5
			c0.2,0,2.6,0,2.6,1.4c0,1.4-0.7,3.7-4.5,4.1H14c-0.1,0-0.1,0.1-0.1,0.1l-1.3,3c0,0.1,0.1,0.1,0.1,0.1c0,0,5.8,0.1,5.8,0
			c1.5-0.2,4-0.9,5.5-2.8C26.3,13.1,28,9.8,26,7.6z"/>
	</g>
</g>
</svg>
