<?xml version="1.0" encoding="utf-8"?>
<!-- Generator: Adobe Illustrator 21.1.0, SVG Export Plug-In . SVG Version: 6.00 Build 0)  -->
<svg version="1.1" id="Слой_1" xmlns="http://www.w3.org/2000/svg" xmlns:xlink="http://www.w3.org/1999/xlink" x="0px" y="0px"
	 viewBox="0 0 32 32" style="enable-background:new 0 0 32 32;" xml:space="preserve">
<style type="text/css">
	.st0{fill:#231F20;}
	.st1{fill:#CB9A34;}
</style>
<title>color/xrp</title>
<desc>Created with Sketch.</desc>
<g>
	<path class="st0" d="M13.2,22.4c-0.5-0.6-1.1-1.2-1.5-1.9c-0.6-0.9-1.1-1.8-1.3-2.9c-0.3-1.2-0.1-2.2,0.6-3.2
		c0.3-0.5,0.8-1,1.2-1.4c0.4-0.4,0.7-0.7,1.1-1.1c0,0,0.1,0.1,0.1,0.1c0.9,0.9,1.7,1.7,2.6,2.6c0,0,0.1,0.1,0.1,0.1
		c-0.3,0.3-0.7,0.7-1,1c-0.2,0.3-0.4,0.6-0.5,1c-0.2,0.7,0,1.4,0.4,2c0.3,0.5,0.7,0.9,1.1,1.4c0,0,0,0,0,0c0.6,0.6,1.2,1.2,1.8,1.7
		c0.3,0.3,0.6,0.5,1,0.7c0.5,0.2,1.1,0.3,1.7,0.2c0.4-0.1,0.7-0.3,1-0.5c0.4-0.3,0.7-0.7,1.1-1c2.2-2.2,4.4-4.4,6.6-6.6
		c0.1-0.1,0.1-0.1,0.2,0c0.8,0.8,1.7,1.7,2.5,2.5c0.1,0.1,0.1,0.1,0,0.2c-2.6,2.6-5.3,5.2-7.9,7.9c-0.3,0.3-0.7,0.7-1.1,0.9
		c-1.2,0.9-2.5,1-3.9,0.6c-1.1-0.3-2-0.9-2.9-1.5C16.1,25.1,16,25,16,25c0,0,0,0,0,0c-0.6-0.5-1.1-1-1.7-1.5
		C13.9,23.1,13.5,22.8,13.2,22.4z"/>
	<path class="st1" d="M18.8,22.4c-0.4-0.1-0.7-0.4-1-0.7c-0.6-0.5-1.2-1.1-1.8-1.7c0,0,0,0,0,0c0.1-0.1,0.2-0.2,0.2-0.3
		c0.3-0.3,0.6-0.7,0.8-1c0.4-0.6,0.6-1.3,0.4-2c0-0.2-0.2-0.5-0.3-0.7c-0.3-0.5-0.8-1-1.2-1.4c0,0,0-0.1-0.1-0.1
		c-0.9-0.9-1.7-1.7-2.6-2.6c0,0-0.1-0.1-0.1-0.1c0-0.1-0.1-0.1-0.1-0.2c-1.2-1.2-2.5-2.5-3.7-3.7c-0.1-0.1-0.1-0.2,0-0.3
		C10.2,6.9,11,6,11.9,5.2c0.1-0.1,0.2-0.1,0.3,0c1.2,1.2,2.5,2.5,3.7,3.7C15.9,9,16,9,16,9.1c0.3,0.3,0.6,0.6,0.9,0.9
		c0.6,0.6,1.2,1.2,1.8,1.8c0.4,0.4,0.8,0.8,1.2,1.2c0.4,0.4,0.8,0.8,1.1,1.3c0.8,1.1,0.9,2.3,0.5,3.6c-0.4,1.3-1.1,2.4-1.9,3.4
		C19.4,21.7,19.1,22.1,18.8,22.4z"/>
	<path class="st1" d="M13.2,22.4c0.3,0.3,0.7,0.7,1,1c0.5,0.5,1.1,1.1,1.7,1.5c0,0,0,0,0,0c-1.1,0.8-2.2,1.5-3.5,1.8
		c-1.1,0.2-2.1,0-3.1-0.6c-0.5-0.3-0.9-0.7-1.3-1.1c-2-1.9-3.9-3.9-5.8-5.8c-0.7-0.7-1.4-1.4-2.1-2.1C0,17.1,0,17.1,0.1,17
		c0.8-0.8,1.5-1.5,2.3-2.3c0.1-0.1,0.2-0.1,0.3,0c2.5,2.5,5,5,7.5,7.5c0.7,0.7,1.9,0.9,2.6,0.5C12.9,22.6,13.1,22.5,13.2,22.4z"/>
	<path class="st0" d="M18.7,11.8c-0.6-0.6-1.2-1.2-1.8-1.8c-0.3-0.3-0.6-0.6-0.9-0.9c0.9-0.9,1.7-1.7,2.6-2.6
		c0.4-0.4,0.9-0.9,1.3-1.3c0.1-0.1,0.1-0.1,0.2,0C21,6,21.8,6.9,22.7,7.7c0.1,0.1,0.1,0.1,0,0.2C21.4,9.2,20.1,10.5,18.7,11.8
		C18.8,11.8,18.8,11.8,18.7,11.8z"/>
</g>
</svg>
