<?xml version="1.0" encoding="utf-8"?>
<!-- Generator: Adobe Illustrator 22.1.0, SVG Export Plug-In . SVG Version: 6.00 Build 0)  -->
<svg version="1.1" id="Слой_1" xmlns="http://www.w3.org/2000/svg" xmlns:xlink="http://www.w3.org/1999/xlink" x="0px" y="0px"
	 viewBox="0 0 32 32" style="enable-background:new 0 0 32 32;" xml:space="preserve">
<style type="text/css">
	.st0{fill:url(#SVGID_1_);}
	.st1{fill:none;}
	.st2{fill:#FFFFFF;}
	.st3{fill:#00CCFD;}
</style>
<g>
	<g>
		<linearGradient id="SVGID_1_" gradientUnits="userSpaceOnUse" x1="6.150609e-02" y1="15.9983" x2="31.9385" y2="15.9983">
			<stop  offset="0" style="stop-color:#02C8FD"/>
			<stop  offset="1" style="stop-color:#940EFE"/>
		</linearGradient>
		<path class="st0" d="M31.9,18.5c0,0-1.8,13.5-16.3,13.5C8.3,31.8,0.1,26,0.1,16.5S7.3,0,16,0c6.9,0,14.6,4.2,15.8,13.4h-7.7
			c0,0-1.1-6.2-8.5-6.2c-2.7-0.1-8,2.5-8,8.4s3,8.8,8.3,9.3c3.1,0.1,7.5-1.9,8.4-6.4L31.9,18.5z"/>
		<g>
			<path class="st1" d="M29,6.2C29,6.2,29,6.2,29,6.2C29,6.2,29,6.2,29,6.2C29,6.2,29,6.2,29,6.2z"/>
			<path class="st2" d="M29.3,25.1c0,0.1-0.1,0.1-0.1,0.2C29.3,25.2,29.3,25.2,29.3,25.1z"/>
			<path class="st2" d="M14.3,32c0.1,0,0.2,0,0.3-0.1c-0.2,0-0.4,0-0.7-0.1C14.1,31.9,14.2,32,14.3,32z"/>
			<path class="st2" d="M9.7,1.3l1.8,7.2c0,0,0.1-0.1,0.1-0.1L9.8,1.2C9.8,1.3,9.7,1.3,9.7,1.3z"/>
			<path class="st2" d="M31.7,19.7c0-0.1,0-0.1,0.1-0.2l-0.7-1l-0.2,0L31.7,19.7z"/>
			<path class="st2" d="M4.1,7.2C4.1,7.1,4.1,7,4,7l3.2-4.3C7.1,2.7,7,2.8,6.8,2.9L3.9,6.9c0,0,0,0-0.1,0l0.1-1.3
				C3.9,5.7,3.8,5.7,3.7,5.8l-0.1,1C3.6,6.9,3.5,6.9,3.4,7L3.1,6.7c0,0-0.1,0.1-0.1,0.1l0.4,0.3c0,0,0,0.1,0,0.1c0,0.1,0,0.1,0,0.1
				L2.3,7.9c0,0.1-0.1,0.2-0.1,0.2l1.3-0.7c0,0,0.1,0.1,0.1,0.1l-0.4,4.2c-0.1,0-0.3,0-0.4,0.1l-1.6-1.5c0,0.1,0,0.1-0.1,0.2L2.6,12
				c-0.1,0.1-0.1,0.2-0.1,0.4c0,0.2,0.1,0.4,0.3,0.5l-2.2,5.3c0,0-0.1,0-0.1,0l-0.3-4c0,0.3-0.1,0.6-0.1,1l0.2,3.1
				c-0.1,0-0.1,0-0.1,0.1c0,0.4,0.1,0.8,0.2,1.2c0,0,0.1,0,0.1,0c0.2,0,0.4-0.1,0.5-0.2l5.2,3.3c-0.1,0.1-0.1,0.2-0.1,0.3
				c0,0.1,0,0.3,0.1,0.4l-3.1,2.4c0,0,0.1,0.1,0.1,0.1l3.1-2.5c0.1,0.1,0.1,0.1,0.2,0.1L5.4,28c0,0,0.1,0.1,0.1,0.1l1.1-4.7
				c0,0,0,0,0.1,0c0.1,0,0.2,0,0.3-0.1l6.8,7.6c0,0.1-0.1,0.1-0.1,0.2l-4.5-0.7c0.2,0.1,0.4,0.2,0.6,0.3l3.9,0.6
				c0,0.2,0.1,0.4,0.2,0.5c0.2,0,0.4,0.1,0.7,0.1c0.1-0.1,0.2-0.2,0.3-0.3l0.8,0.3c0.1,0,0.3,0,0.4,0L15,31.5c0,0,0-0.1,0-0.1
				c0-0.1-0.1-0.3-0.1-0.4l4.8-5.2c0.1,0.1,0.2,0.1,0.3,0.1c0.1,0,0.2,0,0.2,0l2.7,4.8c0,0,0.1,0,0.1-0.1l-2.7-4.8
				c0.1-0.1,0.2-0.3,0.3-0.5l7.5-0.3c0,0.2,0.2,0.4,0.4,0.4l-0.3,1.1c0.1-0.1,0.2-0.2,0.2-0.3l0.2-0.8c0,0,0.1,0,0.1,0
				c0.2,0,0.3-0.1,0.4-0.2c0-0.1,0.1-0.1,0.1-0.2c0-0.1,0-0.2,0-0.2c0-0.3-0.2-0.5-0.4-0.6l0.9-5.8l-0.2,0l-0.9,5.7c0,0,0,0,0,0
				c-0.1,0-0.3,0-0.4,0.1L24.2,19c0,0.1,0,0.1-0.1,0.2l4.2,5.3c-0.1,0.1-0.1,0.2-0.2,0.4l-7.5,0.3c0-0.2-0.2-0.4-0.4-0.5l0.4-1.1
				c-0.1,0-0.1,0.1-0.2,0.1l-0.4,0.9c0,0,0,0-0.1,0c-0.1,0-0.1,0-0.2,0l-0.2-0.5c0,0-0.1,0-0.1,0.1l0.2,0.5
				c-0.1,0.1-0.2,0.2-0.3,0.4l-1.7-0.3c-0.2,0-0.3,0.1-0.5,0.1l2.2,0.4c0,0,0,0,0,0c0,0.2,0.1,0.3,0.2,0.4l-4.8,5.2
				c-0.1-0.1-0.2-0.1-0.4-0.1c-0.1,0-0.3,0.1-0.4,0.1l-6.8-7.6c0-0.1,0.1-0.1,0.1-0.2l4.7,0.8c-0.2-0.1-0.3-0.2-0.5-0.2l-4.2-0.7
				c0,0,0-0.1,0-0.1c0,0,0-0.1,0-0.1l2.1-0.9c0,0-0.1-0.1-0.1-0.1l-2,0.8c-0.1-0.1-0.2-0.3-0.4-0.3l0.9-4.2c0-0.1,0-0.3-0.1-0.4
				l-1,4.6c0,0,0,0,0,0c-0.2,0-0.3,0.1-0.5,0.2L1,19.1c0-0.1,0.1-0.2,0.1-0.3c0-0.1,0-0.2-0.1-0.3l6.7-4.2c0-0.1,0-0.1,0-0.2
				l-6.8,4.3c-0.1-0.1-0.1-0.1-0.2-0.2L2.9,13c0.1,0,0.1,0,0.2,0c0.3,0,0.5-0.2,0.6-0.4l4.1,1.2c0-0.1,0-0.1,0-0.2l-4.1-1.2
				c0,0,0-0.1,0-0.1c0-0.3-0.2-0.5-0.5-0.6l0.4-4.1c0,0,0,0,0,0c0,0,0.1,0,0.1,0l4,5.8c0-0.1,0-0.1,0.1-0.2L4,7.5
				c0,0,0.1-0.1,0.1-0.1l6.6,1.8c0.1,0,0.1-0.1,0.2-0.1L4.1,7.2z"/>
			<path class="st2" d="M31.5,13.1c-0.2,0.1-0.3,0.2-0.4,0.3h0.3c0.1-0.1,0.3-0.2,0.5-0.3c0-0.1,0-0.1,0-0.2
				C31.7,13,31.6,13.1,31.5,13.1z"/>
			<path class="st2" d="M23.1,10.8l6.1,2.6h0.4l-6.7-2.8C23,10.7,23,10.7,23.1,10.8z"/>
			<path class="st2" d="M30.5,13.2l0.6-2.9c0-0.1-0.1-0.2-0.1-0.3l-0.6,3.1l-0.7-5.8c-0.2-0.4-0.5-0.7-0.7-1c0,0,0,0.1-0.1,0.1
				l-5.2-2.2c0-0.1,0.1-0.2,0.1-0.3c0-0.1,0-0.2-0.1-0.3L24.6,3c0.1,0.1,0.2,0.1,0.4,0.1c0.1,0,0.2,0,0.3-0.1
				c0.3,0.3,1.1,0.9,1.9,1.6c0.5,0.4,1,0.9,1.4,1.2C28.8,6,28.9,6.1,29,6.2c-0.2-0.2-0.3-0.4-0.5-0.6c-0.8-0.7-2.2-1.9-3.1-2.7
				c0,0,0-0.1,0.1-0.1c-0.3-0.2-0.6-0.4-0.9-0.6c-0.1,0.1-0.1,0.2-0.1,0.3c0,0.1,0,0.2,0.1,0.3l-0.8,0.6c-0.1-0.1-0.3-0.2-0.5-0.2
				c-0.1,0-0.2,0-0.3,0.1L21.8,1c-0.1,0-0.1,0-0.2-0.1l1.2,2.5c-0.1,0.1-0.2,0.2-0.2,0.4c-4.5-1.1-6-1.5-6.5-1.6c0,0,0,0,0,0
				c0-0.3-0.2-0.5-0.4-0.6L16.3,0c-0.1,0-0.1,0-0.2,0l-0.6,1.6c0,0-0.1,0-0.1,0c-0.1,0-0.2,0-0.2,0l-0.8-1.5c-0.1,0-0.1,0-0.2,0
				l0.9,1.6c-0.1,0.1-0.1,0.1-0.2,0.2l-3.1-1.3c-0.1,0-0.2,0-0.2,0.1L14.8,2c0,0,0,0.1,0,0.1c0,0.2,0.1,0.4,0.2,0.5l-2.8,5.5
				c0.1,0,0.2-0.1,0.2-0.1l2.7-5.3c0.1,0,0.2,0.1,0.3,0.1c0.1,0,0.1,0,0.2,0l2.1,4.6c0.1,0,0.1,0,0.2,0l-2.2-4.7
				c0.1-0.1,0.2-0.2,0.3-0.4c1,0.2,4.5,1.1,6.5,1.6c0,0.1,0.1,0.2,0.2,0.3l-3.5,3.5c0.1,0,0.1,0,0.2,0.1l3.5-3.5
				c0.1,0.1,0.2,0.1,0.3,0.1c0.2,0,0.4-0.1,0.5-0.2l5.2,2.2c0,0,0,0,0,0.1l-8.6,1.8c0.1,0,0.1,0.1,0.2,0.1l8.4-1.7
				c0,0.3,0.3,0.5,0.6,0.5c0,0,0,0,0,0l0.7,5.9c-0.2,0-0.3,0.1-0.4,0.2h1C30.7,13.3,30.6,13.3,30.5,13.2z"/>
		</g>
	</g>
	<g>
		<path class="st3" d="M11.6,14.9c0.4,0,0.5,0.3,0.5,0.5H13c-0.1-1-0.9-1.2-1.4-1.2c-1.1,0-1.5,0.7-1.5,1.7c0,0.7,0.3,1.5,1.4,1.5
			c1.1,0,1.4-0.9,1.4-1.2h-0.8c0,0.1-0.1,0.5-0.6,0.5c-0.6,0-0.6-0.7-0.6-1C11,15.4,11.1,14.9,11.6,14.9z"/>
		<path class="st3" d="M14.3,14.9L14.3,14.9l0-0.5h-0.8v3.1h0.8v-1.6c0-0.3,0.1-0.7,0.8-0.7c0.1,0,0.2,0,0.2,0v-0.8c0,0-0.1,0-0.2,0
			C14.6,14.2,14.4,14.5,14.3,14.9z"/>
		<path class="st3" d="M17.1,16.6L17.1,16.6l-0.7-2.3h-0.9l1.1,3.2C16.5,18,16.4,18,16.1,18c-0.1,0-0.1,0-0.2,0v0.7
			c0.1,0,0.3,0,0.4,0c0.7,0,0.8-0.3,1.2-1.3l1.1-3.1h-0.9L17.1,16.6z"/>
		<path class="st3" d="M20.6,14.2c-0.5,0-0.8,0.3-0.9,0.5h0v-0.5h-0.8v4.4h0.8V17l0,0c0.1,0.2,0.3,0.5,0.9,0.5
			c0.9,0,1.3-0.8,1.3-1.7C21.9,14.8,21.3,14.2,20.6,14.2z M20.3,16.8c-0.5,0-0.7-0.6-0.7-0.9c0-0.5,0.2-1,0.7-1c0.6,0,0.7,0.5,0.7,1
			C21.1,16.4,20.9,16.8,20.3,16.8z"/>
		<path class="st3" d="M23.3,13.5l-0.8,0.4v0.4h-0.4v0.6h0.4v1.9c0,0.4,0.1,0.7,0.9,0.7c0.1,0,0.3,0,0.4,0v-0.6c0,0-0.1,0-0.2,0
			c-0.3,0-0.3-0.1-0.3-0.2v-1.7h0.5v-0.6h-0.5V13.5z"/>
		<path class="st3" d="M26.6,16.9v-1.7c0-0.8-0.9-0.9-1.1-0.9c-0.8,0-1.3,0.3-1.3,1h0.5c0-0.2,0.1-0.6,0.7-0.6
			c0.5,0,0.7,0.2,0.7,0.5c0,0.3-0.1,0.4-0.9,0.4c-1.1,0.1-1.2,0.6-1.2,1c0,0.5,0.4,0.9,1,0.9c0.6,0,0.9-0.3,1.1-0.5
			c0,0.2,0.1,0.5,0.5,0.5c0.1,0,0.2,0,0.3-0.1v-0.4c-0.1,0-0.1,0-0.2,0C26.7,17.1,26.6,17,26.6,16.9z M26.1,16.4
			c0,0.4-0.5,0.7-0.9,0.7c-0.4,0-0.6-0.2-0.6-0.5c0-0.4,0.4-0.5,0.7-0.5c0.6-0.1,0.8-0.1,0.8-0.2V16.4z"/>
		<path class="st3" d="M29.3,16.1c0,0.4-0.2,1-0.8,1c-0.3,0-0.6-0.2-0.6-0.7v-2h-0.5v2.2c0,0.7,0.5,0.9,1,0.9c0.5,0,0.8-0.2,1-0.5
			l0,0v0.4h0.5v-3.1h-0.5V16.1z"/>
		<path class="st3" d="M31.7,14.3c-0.4,0-0.7,0.2-0.9,0.6h0v-0.5h-0.5v3.1h0.5v-1.8c0-0.4,0.3-0.8,0.8-0.8h0.2v-0.5
			C31.8,14.3,31.8,14.3,31.7,14.3z"/>
	</g>
</g>
</svg>
