<?xml version="1.0" encoding="utf-8"?>
<!-- Generator: Adobe Illustrator 22.1.0, SVG Export Plug-In . SVG Version: 6.00 Build 0)  -->
<svg version="1.1" id="Слой_1" xmlns="http://www.w3.org/2000/svg" xmlns:xlink="http://www.w3.org/1999/xlink" x="0px" y="0px"
	 viewBox="0 0 32 32" style="enable-background:new 0 0 32 32;" xml:space="preserve">
<style type="text/css">
	.st0{fill:#0097E8;}
</style>
<g>
	<path class="st0" d="M25.9,19.5l-6,6L10.4,16l9.6-9.5l6,6c1.1,1.1,2.8,1.1,3.8,0c1.1-1.1,1.1-2.8,0-3.8l-7.9-7.9
		c-1.1-1.1-2.8-1.1-3.8,0c0,0-0.2,0.2-0.3,0.2l-11,10.9V5.4c0-1.5-1.2-2.7-2.7-2.7S1.3,3.9,1.3,5.4v21.1c0,1.5,1.2,2.7,2.7,2.7
		s2.7-1.2,2.7-2.7V20l11,10.9c0,0,0.2,0.2,0.3,0.3c1.1,1.1,2.8,1.1,3.8,0l7.9-7.9c1.1-1.1,1.1-2.8,0-3.8
		C28.7,18.4,27,18.4,25.9,19.5L25.9,19.5z"/>
	<circle class="st0" cx="20" cy="16" r="2.7"/>
</g>
</svg>
