<?xml version="1.0" encoding="utf-8"?>
<!-- Generator: Adobe Illustrator 22.1.0, SVG Export Plug-In . SVG Version: 6.00 Build 0)  -->
<svg version="1.1" id="Слой_1" xmlns="http://www.w3.org/2000/svg" xmlns:xlink="http://www.w3.org/1999/xlink" x="0px" y="0px"
	 width="32px" height="32px" viewBox="0 0 32 32" style="enable-background:new 0 0 32 32;" xml:space="preserve">
<g>
	<path style="fill:#2F2C2D;" d="M16,32L1.4,24V8L16,0l14.6,8v16L16,32z M1.6,23.9L16,31.8l14.4-7.9V8.1L16,0.2L1.6,8.1V23.9z"/>
	
		<rect x="6.3" y="5.1" transform="matrix(0.481 -0.8767 0.8767 0.481 -6.0461 11.1711)" style="fill:#2F2C2D;" width="0.2" height="11.1"/>
	<polyline style="fill:#2F2C2D;" points="30.3,23.9 15.9,16.1 16,15.9 30.6,23.9 	"/>
	<rect x="15.9" y="0.1" style="fill:#2F2C2D;" width="0.2" height="15.9"/>
	
		<rect x="0.5" y="19.9" transform="matrix(0.877 -0.4805 0.4805 0.877 -8.5319 6.6709)" style="fill:#2F2C2D;" width="16.5" height="0.2"/>
	<g>
		<g>
			<polygon style="fill:#EF5455;" points="20.8,13.4 20.8,18.6 16,20.9 16,20.9 11.2,18.6 6.4,21.3 16,26.3 25.6,21.3 25.6,10.7 			
				"/>
			<path style="fill:#2F2C2D;" d="M16,26.4L16,26.4l-9.6-5.1c0,0,0,0,0-0.1v-0.1l4.8-2.6h0.1l4.8,2.2l4.7-2.2v-5.2v-0.1l4.8-2.6h0.1
				c0,0,0,0,0,0.1v10.5v0.1L16,26.4L16,26.4z M6.6,21.3l9.4,5l9.5-5V11l-4.6,2.5v5.2c0,0,0,0.1-0.1,0.1L16,21h-0.1l-4.8-2.2
				L6.6,21.3z"/>
		</g>
		<g>
			<polygon style="fill:#EF5455;" points="11.2,18.6 11.2,13.4 6.4,10.7 6.4,21.3 6.4,21.3 			"/>
			<path style="fill:#2F2C2D;" d="M6.4,21.4L6.4,21.4C6.3,21.3,6.3,21.3,6.4,21.4L6.3,10.7v-0.1h0.1l4.8,2.6c0,0,0,0,0,0.1v5.3v0.1
				L6.4,21.4L6.4,21.4z M6.5,10.9v10.2l4.6-2.5v-5.2L6.5,10.9z"/>
		</g>
	</g>
</g>
</svg>
