<?xml version="1.0" encoding="utf-8"?>
<!-- Generator: Adobe Illustrator 22.1.0, SVG Export Plug-In . SVG Version: 6.00 Build 0)  -->
<svg version="1.1" id="Слой_1" xmlns="http://www.w3.org/2000/svg" xmlns:xlink="http://www.w3.org/1999/xlink" x="0px" y="0px"
	 viewBox="0 0 32 32" style="enable-background:new 0 0 32 32;" xml:space="preserve">
<style type="text/css">
	.st0{fill:none;}
	.st1{fill:#D51C5B;}
	.st2{fill:#1E90C9;}
	.st3{fill:#203463;}
</style>
<g>
	<circle class="st0" cx="9.3" cy="16" r="4"/>
	<circle class="st0" cx="22.7" cy="16" r="4"/>
	<path class="st1" d="M16,9.5c-1.7-1.7-4.1-2.8-6.7-2.8C4.2,6.7,0,10.9,0,16s4.2,9.3,9.3,9.3c2.6,0,5-1.1,6.7-2.8
		c-1.6-1.7-2.6-4-2.6-6.5S14.4,11.2,16,9.5z M9.3,20c-2.2,0-4-1.8-4-4s1.8-4,4-4c2.2,0,4,1.8,4,4S11.5,20,9.3,20z"/>
	<path class="st2" d="M22.7,6.7c-2.6,0-5,1.1-6.7,2.8c1.6,1.7,2.6,4,2.6,6.5s-1,4.8-2.6,6.5c1.7,1.7,4.1,2.8,6.7,2.8
		c5.1,0,9.3-4.2,9.3-9.3S27.8,6.7,22.7,6.7z M22.7,20c-2.2,0-4-1.8-4-4s1.8-4,4-4c2.2,0,4,1.8,4,4S24.9,20,22.7,20z"/>
	<ellipse class="st3" cx="16" cy="16" rx="2.6" ry="6.5"/>
</g>
</svg>
