<?xml version="1.0" encoding="utf-8"?>
<!-- Generator: Adobe Illustrator 22.1.0, SVG Export Plug-In . SVG Version: 6.00 Build 0)  -->
<svg version="1.1" id="Слой_1" xmlns="http://www.w3.org/2000/svg" xmlns:xlink="http://www.w3.org/1999/xlink" x="0px" y="0px"
	 width="32px" height="32px" viewBox="0 0 32 32" style="enable-background:new 0 0 32 32;" xml:space="preserve">
<title>color/xrp</title>
<desc>Created with Sketch.</desc>
<g>
	
		<linearGradient id="SVGID_1_" gradientUnits="userSpaceOnUse" x1="28.8" y1="737.3402" x2="28.8" y2="762.6315" gradientTransform="matrix(1 0 0 1 0 -734)">
		<stop  offset="0" style="stop-color:#20C1F1"/>
		<stop  offset="1" style="stop-color:#3868E6"/>
	</linearGradient>
	<path style="fill:url(#SVGID_1_);" d="M32,28.4c-0.2,0.3-0.4,0.3-0.7,0.2c-1.6-0.7-3.3-1.3-4.9-2c-0.1,0-0.2-0.1-0.4-0.2
		c-0.2-0.2-0.4-0.4-0.4-0.7c0-1.1,0-2.2,0-3.3c0-0.7,0-1.4,0-2c0-2.6,0-5.3,0-7.9c0-2,0-4.1,0-6.1c0-0.4,0.2-0.7,0.6-0.9
		c1.3-0.5,2.6-1.1,3.9-1.6c0.4-0.2,0.8-0.3,1.2-0.5c0.3-0.1,0.5-0.1,0.7,0.2C32,11.9,32,20.1,32,28.4z"/>
	
		<linearGradient id="SVGID_2_" gradientUnits="userSpaceOnUse" x1="3.1" y1="737.3402" x2="3.1" y2="762.6287" gradientTransform="matrix(1 0 0 1 0 -734)">
		<stop  offset="0" style="stop-color:#20C1F1"/>
		<stop  offset="1" style="stop-color:#3868E6"/>
	</linearGradient>
	<path style="fill:url(#SVGID_2_);" d="M0,3.6c0.2-0.3,0.4-0.3,0.7-0.2c0.9,0.4,1.9,0.8,2.8,1.2C4.3,4.9,5,5.2,5.7,5.5
		c0.4,0.2,0.6,0.4,0.6,0.9c0,4.4,0,8.9,0,13.3c0,1,0,2,0,3s0,1.9,0,2.9c0,0.5-0.2,0.7-0.6,0.9c-1.4,0.6-2.8,1.1-4.2,1.7
		c-0.3,0.1-0.6,0.2-0.9,0.4c-0.3,0.1-0.5,0.1-0.7-0.2C0,20.1,0,11.9,0,3.6z"/>
	
		<linearGradient id="SVGID_3_" gradientUnits="userSpaceOnUse" x1="15.95" y1="742.7744" x2="15.95" y2="757.5359" gradientTransform="matrix(1 0 0 1 0 -734)">
		<stop  offset="0" style="stop-color:#20C1F1"/>
		<stop  offset="1" style="stop-color:#3868E6"/>
	</linearGradient>
	<path style="fill:url(#SVGID_3_);" d="M22.4,16.2c0,1.2,0,2.3,0,3.5c0,0.2-0.1,0.3-0.2,0.4c-1.3,0.7-2.5,1.5-3.8,2.2
		c-0.7,0.4-1.5,0.8-2.2,1.3c-0.2,0.1-0.3,0.1-0.5,0c-1.2-0.7-2.4-1.4-3.6-2.1c-0.8-0.5-1.6-0.9-2.4-1.4c-0.1-0.1-0.2-0.2-0.2-0.3
		c0-0.6,0-1.2,0-1.8c0-1.2,0-2.4,0-3.5c0-0.6,0-1.1,0-1.7c0-0.2,0.1-0.3,0.2-0.4c0.7-0.4,1.3-0.8,2-1.2c1-0.6,2.1-1.2,3.1-1.8
		c0.3-0.2,0.7-0.4,1-0.6c0.1-0.1,0.2,0,0.3,0c0.4,0.3,0.9,0.5,1.3,0.8c0.9,0.5,1.8,1,2.7,1.6c0.7,0.4,1.4,0.8,2.1,1.2
		c0.1,0.1,0.2,0.2,0.2,0.3C22.4,13.8,22.4,15,22.4,16.2L22.4,16.2z"/>
</g>
</svg>
