<?xml version="1.0" encoding="utf-8"?>
<!-- Generator: Adobe Illustrator 22.1.0, SVG Export Plug-In . SVG Version: 6.00 Build 0)  -->
<svg version="1.1" id="Layer_1" xmlns="http://www.w3.org/2000/svg" xmlns:xlink="http://www.w3.org/1999/xlink" x="0px" y="0px"
	 width="32px" height="32px" viewBox="0 0 32 32" style="enable-background:new 0 0 32 32;" xml:space="preserve">
<style type="text/css">
	.st0{fill:#36A9CF;}
	.st1{fill:#FFFFFF;}
</style>
<g>
	<circle class="st0" cx="16" cy="16" r="16"/>
	<path class="st1" d="M26.3,18.5c0.2,0.1,0.2,0.3,0.1,0.5c-0.1,0.2-0.2,0.3-0.3,0.3l-2.2,4.1c0,0.2,0,0.4-0.2,0.5
		c-0.1,0.1-0.3,0.2-0.4,0.2L19,26.7c-0.1,0.2-0.2,0.3-0.4,0.3c-0.2,0-0.4,0-0.5-0.2l-5.1-0.4c-0.1,0.1-0.3,0.1-0.5,0.1
		c-0.3-0.1-0.4-0.3-0.4-0.5l-3.9-2.8c-0.1,0-0.3,0-0.5-0.1c-0.2-0.2-0.2-0.4-0.2-0.6l-1.6-3.8c-0.2,0-0.3-0.2-0.4-0.4
		c0-0.2,0-0.4,0.2-0.5l0.2-5.7c-0.1-0.1-0.1-0.3-0.1-0.5c0.1-0.2,0.3-0.4,0.5-0.4l4.3-4.5c0-0.2,0.1-0.4,0.4-0.5
		c0.2-0.1,0.3,0,0.5,0.1l6.1-1.1C17.6,5.1,17.8,5,18.1,5c0.2,0,0.4,0.2,0.4,0.4L21.3,7c0.1,0,0.3,0,0.5,0.1c0.2,0.1,0.3,0.3,0.3,0.4
		l1.2,0.8c0.1,0,0.3,0,0.5,0.1C24,8.5,24.1,8.8,23.9,9c0,0,0,0,0,0l1.8,3.5c0.2,0,0.3,0.1,0.4,0.3c0.1,0.2,0,0.5-0.2,0.5
		c-0.2,0.1-0.4-0.1-0.5-0.3c0,0,0,0,0,0l-3.7-2c-0.1,0.1-0.1,0.1-0.2,0.2V21c0.2,0.1,0.3,0.3,0.3,0.5c0,0,0,0.1,0,0.1l1.5,1.5
		c0.1,0,0.2,0,0.2,0l2.3-4c-0.1-0.1-0.1-0.3,0-0.4C25.9,18.5,26.1,18.4,26.3,18.5z M26.3,19c0-0.1,0-0.2-0.1-0.2
		c-0.1,0-0.2,0-0.2,0.1c0,0.1,0,0.2,0.1,0.2C26.2,19.1,26.3,19,26.3,19z M23.6,23.7c0.1-0.1,0.1-0.2,0-0.3s-0.2-0.1-0.3,0
		c-0.1,0.1-0.1,0.2,0,0.3C23.5,23.8,23.6,23.8,23.6,23.7z M23,23.5C23,23.5,23,23.5,23,23.5L21.6,22c-0.1,0.1-0.2,0.1-0.3,0.1
		c-0.2,0-0.4-0.1-0.5-0.3h-1.9c-0.1,0.1-0.1,0.2-0.2,0.2l0.2,2.7c0.1,0,0.1,0.1,0.2,0.1L23,23.5z M18.9,26.3l3.5-2.1l-3.2,1.1
		c0,0.2-0.2,0.3-0.3,0.4l-0.1,0.6C18.8,26.2,18.8,26.3,18.9,26.3z M18.5,26.8c0.1,0,0.2-0.1,0.2-0.2c0-0.1-0.1-0.1-0.2-0.1
		c-0.1,0-0.2,0.1-0.2,0.2C18.3,26.8,18.4,26.8,18.5,26.8z M18,26.4c0.1-0.1,0.2-0.2,0.3-0.2l0.1-0.5c-0.1,0-0.2-0.1-0.2-0.1l-4,0.6
		L18,26.4z M14.3,22.1L13,25.9l5-0.8L14.5,22C14.4,22,14.4,22.1,14.3,22.1z M12.6,25.6l1.2-3.6c-0.1-0.1-0.1-0.1-0.2-0.2h-2.3
		c0,0,0,0.1,0,0.1L12.6,25.6z M12.5,26.4c0.1,0,0.2,0,0.2-0.1c0-0.1-0.1-0.2-0.2-0.2c-0.1,0-0.2,0-0.2,0.1
		C12.3,26.3,12.4,26.3,12.5,26.4z M8.4,23l3.8,2.7L11,22.1c0,0,0,0-0.1,0c-0.2,0-0.3-0.1-0.4-0.2l-2.1,0.9C8.4,22.9,8.4,22.9,8.4,23
		z M8,22.4c0.1,0,0.1,0.1,0.1,0.1l2.2-1c0-0.1,0-0.2,0.1-0.3l-3.4-3.5L8,22.4z M8,23c0.1-0.1,0-0.2,0-0.3s-0.2-0.1-0.3,0
		c-0.1,0.1,0,0.2,0,0.3C7.8,23,8,23,8,23z M6.2,18.6l1.2,2.7l-0.8-3.8l-0.3,0.7c0,0,0,0,0,0.1C6.3,18.4,6.3,18.5,6.2,18.6z
		 M6.2,14.3l-0.1,3.4l0.3-0.6c0-0.1-0.1-0.2-0.1-0.3c0-0.1,0-0.2,0.1-0.3L6.2,14.3z M6,11.6c0,0.1,0,0.2,0.1,0.3
		c0.1,0,0.2,0,0.2-0.1c0-0.1,0-0.2-0.1-0.3C6.1,11.5,6,11.5,6,11.6z M6.8,16.8c0-0.1-0.1-0.2-0.2-0.2c-0.1,0-0.2,0.1-0.2,0.2
		c0,0.1,0.1,0.2,0.2,0.2C6.8,17,6.8,16.9,6.8,16.8z M6.6,11.9c0,0.1-0.1,0.2-0.1,0.2l0.3,4l1.8-5.6l-1.9,1.3
		C6.6,11.8,6.6,11.9,6.6,11.9z M9.6,8.3l-2.4,2.6L8.5,10c0-0.1,0.1-0.2,0.1-0.3c0.1-0.1,0.2-0.2,0.3-0.2L9.6,8.3z M10.9,7.1L9.3,9.7
		c0,0.1,0.1,0.1,0,0.2l1.2,0.4c0.1-0.1,0.2-0.2,0.4-0.2c0.2,0,0.4,0.1,0.5,0.3h2c0.1-0.2,0.2-0.3,0.4-0.3l1.1-2.3
		c-0.1-0.1-0.1-0.2-0.1-0.3l-3.3-0.7c-0.1,0.1-0.2,0.2-0.3,0.2C11.1,7.1,11,7.1,10.9,7.1z M11,6.5c-0.1,0-0.2,0.1-0.1,0.2
		c0,0.1,0.1,0.1,0.2,0.1c0.1,0,0.2-0.1,0.1-0.2C11.2,6.5,11.1,6.4,11,6.5z M17.2,5.7l-4.9,0.9l2.6,0.6c0.1-0.1,0.3-0.2,0.4-0.2
		c0.1,0,0.1,0,0.2,0L17.2,5.7z M17.8,5.8L16,7.2l5,0.1c0,0,0,0,0,0l-2.7-1.5c-0.1,0.1-0.3,0.1-0.4,0.1C17.9,5.8,17.8,5.8,17.8,5.8z
		 M18,5.2c-0.1,0-0.2,0-0.2,0.1c0,0.1,0.1,0.2,0.2,0.2c0.1,0,0.2,0,0.2-0.1C18.2,5.3,18.2,5.2,18,5.2z M21.3,7.9
		c-0.1,0-0.1-0.1-0.2-0.2l-5.3-0.1c0,0,0,0.1,0,0.1l2.1,2.4c0,0,0.1,0,0.1,0c0.2,0,0.4,0.1,0.5,0.3h2.3c0.1-0.1,0.1-0.2,0.3-0.3
		L21.3,7.9z M21.3,10.5c-0.1,0-0.2,0.1-0.2,0.2s0.1,0.2,0.2,0.2c0.1,0,0.2-0.1,0.2-0.2S21.4,10.5,21.3,10.5z M21.4,7.3
		c-0.1,0.1,0,0.2,0.1,0.3c0.1,0.1,0.2,0,0.3-0.1c0.1-0.1,0-0.2-0.1-0.3C21.6,7.1,21.5,7.2,21.4,7.3z M25.3,12.6L21.7,8l-0.2,2.2
		c0.2,0.1,0.3,0.3,0.3,0.5L25.3,12.6z M23,8.6L22.2,8l2.6,3.4l-1.3-2.3c-0.1,0-0.2,0-0.3-0.1C23.1,8.9,23,8.8,23,8.6z M23.4,8.5
		c-0.1,0.1,0,0.2,0.1,0.3c0.1,0.1,0.2,0.1,0.3,0c0.1-0.1,0-0.2-0.1-0.3C23.6,8.4,23.5,8.5,23.4,8.5z M17.8,10.7
		c0,0.1,0.1,0.2,0.2,0.2c0.1,0,0.2-0.1,0.2-0.2c0-0.1-0.1-0.2-0.2-0.2C17.9,10.5,17.8,10.6,17.8,10.7z M18,15.5
		c-0.1,0-0.2,0.1-0.2,0.2c0,0.1,0.1,0.2,0.2,0.2c0.1,0,0.2-0.1,0.2-0.2C18.2,15.6,18.1,15.5,18,15.5z M15.1,7.4
		c0,0.1,0.1,0.2,0.2,0.2s0.2-0.1,0.2-0.2c0-0.1-0.1-0.2-0.2-0.2C15.2,7.2,15.1,7.3,15.1,7.4z M15.2,8.1l-1,2.2
		c0.1,0.1,0.2,0.3,0.2,0.5c0,0.1,0,0.2-0.1,0.3l3.4,4.2c0,0,0.1,0,0.1,0v-3.9c-0.2-0.1-0.3-0.3-0.3-0.5c0-0.1,0-0.2,0.1-0.3L15.5,8
		C15.5,8.1,15.4,8.1,15.2,8.1C15.3,8.1,15.3,8.1,15.2,8.1z M13.7,10.7c0,0.1,0.1,0.2,0.2,0.2c0.1,0,0.2-0.1,0.2-0.2
		s-0.1-0.2-0.2-0.2C13.8,10.5,13.7,10.6,13.7,10.7z M10.7,10.7c0,0.1,0.1,0.2,0.2,0.2s0.2-0.1,0.2-0.2c0-0.1-0.1-0.2-0.2-0.2
		S10.7,10.6,10.7,10.7z M10.9,21.3c-0.1,0-0.2,0.1-0.2,0.2s0.1,0.2,0.2,0.2c0.1,0,0.2-0.1,0.2-0.2S11.1,21.3,10.9,21.3z M8.7,9.8
		c-0.1,0.1-0.1,0.2,0,0.3c0.1,0.1,0.2,0,0.3,0C9.1,10,9.1,9.9,9,9.8C8.9,9.7,8.8,9.8,8.7,9.8z M7.1,16.5c0.1,0.1,0.1,0.2,0.1,0.3
		c0,0.1,0,0.2-0.1,0.3l3.6,3.7v-9.6c-0.2-0.1-0.3-0.3-0.3-0.5l-1.2-0.4c0,0-0.1,0.1-0.1,0.1L7.1,16.5z M18.4,21
		c0.2,0,0.4,0.2,0.5,0.4h1.9c0.1-0.1,0.2-0.3,0.3-0.3v-9.8c-0.1-0.1-0.2-0.2-0.3-0.3h-2.2c-0.1,0.1-0.2,0.3-0.3,0.3v4
		c0.1,0.1,0.2,0.3,0.2,0.5c0,0.3-0.2,0.6-0.6,0.6c-0.3,0-0.6-0.3-0.6-0.6c0-0.1,0-0.1,0-0.2L14,11.2c0,0-0.1,0-0.1,0
		c-0.2,0-0.4-0.2-0.5-0.4h-1.9c-0.1,0.1-0.2,0.3-0.3,0.3V21c0.1,0.1,0.2,0.2,0.3,0.3h2.2c0.1-0.1,0.2-0.3,0.3-0.3v-4.1
		c-0.2-0.1-0.3-0.3-0.3-0.5c0-0.3,0.2-0.6,0.6-0.6c0.3,0,0.6,0.3,0.6,0.6c0,0.1,0,0.1,0,0.2l3.5,4.3C18.3,21,18.4,21,18.4,21z
		 M18.6,25c-0.1,0-0.2,0.1-0.2,0.2s0.1,0.2,0.2,0.2c0.1,0,0.2-0.1,0.2-0.2S18.8,25,18.6,25z M18.2,21.5c0,0.1,0.1,0.2,0.2,0.2
		c0.1,0,0.2-0.1,0.2-0.2s-0.1-0.2-0.2-0.2C18.3,21.3,18.2,21.4,18.2,21.5z M14,16.5c0,0.1,0.1,0.2,0.2,0.2c0.1,0,0.2-0.1,0.2-0.2
		c0-0.1-0.1-0.2-0.2-0.2C14.1,16.2,14,16.3,14,16.5z M14.2,21.3c-0.1,0-0.2,0.1-0.2,0.2s0.1,0.2,0.2,0.2c0.1,0,0.2-0.1,0.2-0.2
		S14.3,21.3,14.2,21.3z M14.4,21c0.2,0.1,0.3,0.3,0.3,0.5c0,0,0,0.1,0,0.1l3.6,3.1c0,0,0.1,0,0.1,0l-0.2-2.6
		c-0.2-0.1-0.4-0.3-0.4-0.5c0-0.1,0-0.2,0.1-0.3L14.5,17c0,0,0,0-0.1,0L14.4,21z M21.5,21.5c0-0.1-0.1-0.2-0.2-0.2
		c-0.1,0-0.2,0.1-0.2,0.2s0.1,0.2,0.2,0.2C21.4,21.8,21.5,21.7,21.5,21.5z M5.8,18.5c0.1,0,0.1-0.1,0.1-0.2c0-0.1-0.1-0.2-0.2-0.2
		c-0.1,0-0.1,0.1-0.1,0.2C5.7,18.4,5.7,18.5,5.8,18.5z M25.8,12.8c-0.1,0-0.1,0.1-0.1,0.2c0,0.1,0.1,0.1,0.2,0.1S26,13,26,12.9
		C26,12.8,25.9,12.8,25.8,12.8z"/>
</g>
</svg>
