<?xml version="1.0" encoding="utf-8"?>
<!-- Generator: Adobe Illustrator 22.1.0, SVG Export Plug-In . SVG Version: 6.00 Build 0)  -->
<svg version="1.1" id="Слой_1" xmlns="http://www.w3.org/2000/svg" xmlns:xlink="http://www.w3.org/1999/xlink" x="0px" y="0px"
	 width="32px" height="32px" viewBox="0 0 32 32" style="enable-background:new 0 0 32 32;" xml:space="preserve">
<g>
	<circle style="fill:#8CC53E;" cx="16" cy="16" r="16"/>
	<path style="fill:#FFFFFF;" d="M16.2,17.3H24v5.4c0,0-2.8,2.9-8,2.9S6.7,22,6.7,15.4c0-4.3,3.8-8.7,8.5-9.1s8.1,2.5,8.1,2.5l-2,2.3
		c0,0-2.7-2.2-5.3-1.9s-5.9,1.8-5.9,6.5s2.9,6,2.9,6s3.8,2.3,7.8-0.5v-2.4h-4.6C16.2,18.8,16.2,17.3,16.2,17.3z"/>
	<rect x="16.2" y="15.2" style="fill:#FFFFFF;" width="7.8" height="1.5"/>
</g>
</svg>
