<?xml version="1.0" encoding="utf-8"?>
<!-- Generator: Adobe Illustrator 22.1.0, SVG Export Plug-In . SVG Version: 6.00 Build 0)  -->
<svg version="1.1" id="Слой_1" xmlns="http://www.w3.org/2000/svg" xmlns:xlink="http://www.w3.org/1999/xlink" x="0px" y="0px"
	 viewBox="0 0 32 32" style="enable-background:new 0 0 32 32;" xml:space="preserve">
<style type="text/css">
	.st0{fill:#3E3E3E;}
</style>
<g>
	<path class="st0" d="M11.5,4.2c0.3,0.4,0.7,0.8,1,1.2c1.1,1.3,2.1,2.6,3.2,4c0.1,0.2,0.2,0.3,0.1,0.5c-0.3,1-0.6,2-0.9,3
		c-0.1,0.2-0.1,0.3-0.3,0.1c-0.9-0.6-1.8-1.2-2.7-1.9c-0.1-0.1-0.2-0.2-0.2-0.3c-0.1-2.2-0.1-4.3-0.2-6.5
		C11.5,4.4,11.5,4.3,11.5,4.2z"/>
	<path class="st0" d="M17,19c1,0.7,2,1.3,3,2c0.1,0.1,0.1,0.2,0.1,0.3c0.1,1.4,0.1,2.9,0.2,4.3c0,0.7,0.1,1.5,0.1,2.2
		c-0.1,0-0.2-0.1-0.2-0.1c-1.4-1.6-2.8-3.3-4.1-4.9c-0.1-0.1-0.2-0.2-0.1-0.3C16.4,21.3,16.7,20.2,17,19z"/>
	<path class="st0" d="M4.4,21c0.5-0.5,1-0.9,1.4-1.3c1.2-1.1,2.3-2.1,3.5-3.2c0.1-0.1,0.3-0.2,0.4-0.1c1,0.3,2.1,0.5,3.1,0.7
		c0.2,0,0.3,0.1,0.1,0.3c-0.6,0.9-1.2,1.9-1.7,2.8c-0.1,0.1-0.2,0.2-0.3,0.2c-2.1,0.2-4.2,0.3-6.3,0.5C4.6,21,4.5,21,4.4,21z"/>
	<path class="st0" d="M21.2,4.2C21.2,5,21.1,5.8,21,6.6c-0.1,1.4-0.3,2.8-0.4,4.3c0,0.2-0.1,0.3-0.2,0.4c-0.9,0.5-1.9,1-2.8,1.6
		c-0.2,0.1-0.3,0.1-0.3-0.2c-0.2-1.1-0.4-2.2-0.6-3.2c0-0.1,0-0.2,0.1-0.3c1.5-1.6,2.9-3.2,4.4-4.7C21.1,4.3,21.2,4.3,21.2,4.2z"/>
	<path class="st0" d="M27.6,21c-1.5-0.1-2.9-0.2-4.2-0.3c-0.8-0.1-1.6-0.1-2.4-0.2c-0.2,0-0.3-0.1-0.4-0.3c-0.5-0.9-1.1-1.8-1.6-2.7
		c-0.1-0.2-0.1-0.3,0.1-0.3c1.1-0.2,2.1-0.5,3.2-0.7c0.2,0,0.3,0,0.4,0.1c1.6,1.4,3.2,2.9,4.8,4.3C27.5,20.9,27.6,20.9,27.6,21z"/>
	<path class="st0" d="M27.8,11.2c-0.6,0.6-1.2,1.1-1.9,1.6c-1,0.9-2.1,1.8-3.1,2.7c-0.2,0.1-0.3,0.2-0.5,0.1c-1-0.3-2-0.5-3-0.8
		c-0.2-0.1-0.3-0.1-0.2-0.3c0.6-0.9,1.2-1.8,1.7-2.8c0.1-0.1,0.1-0.2,0.3-0.2c2.2-0.1,4.4-0.3,6.5-0.4
		C27.7,11.2,27.7,11.2,27.8,11.2z"/>
	<path class="st0" d="M20.8,21.6c0.1,0.1,0.2,0.2,0.3,0.2c1.3,1.6,2.6,3.2,3.9,4.8c0.1,0.2,0.2,0.3,0.1,0.5c-0.3,1-0.6,2-0.9,3
		c-0.1,0.2-0.1,0.3-0.3,0.1c-0.9-0.6-1.8-1.2-2.7-1.8c-0.1-0.1-0.2-0.2-0.2-0.3c-0.1-2.2-0.2-4.3-0.2-6.5
		C20.8,21.7,20.8,21.6,20.8,21.6z"/>
	<path class="st0" d="M21.6,11c0.3-0.3,0.5-0.5,0.8-0.7c1.4-1.2,2.8-2.4,4.2-3.7c0.1-0.1,0.3-0.2,0.5-0.1c1,0.3,2.1,0.5,3.1,0.8
		c0.2,0,0.2,0.1,0.1,0.3c-0.6,0.9-1.2,1.9-1.8,2.8c-0.1,0.1-0.1,0.2-0.3,0.2c-2.2,0.1-4.3,0.3-6.5,0.4C21.8,11,21.7,11,21.6,11z"/>
	<path class="st0" d="M4.4,11.3c1.1,0.1,2.1,0.1,3.1,0.2c1.1,0.1,2.3,0.1,3.4,0.2c0.3,0,0.4,0.1,0.6,0.3c0.5,0.9,1.1,1.8,1.6,2.6
		c0.1,0.2,0.1,0.3-0.1,0.3c-1.1,0.3-2.2,0.5-3.2,0.8c-0.1,0-0.2,0-0.3-0.1c-1.6-1.4-3.3-2.8-4.9-4.2C4.5,11.4,4.5,11.3,4.4,11.3z"/>
	<path class="st0" d="M23.4,16.3c0.6,0.1,1.1,0.1,1.7,0.2c1.6,0.2,3.3,0.3,4.9,0.5c0.2,0,0.3,0.1,0.3,0.2c0.5,0.9,1,1.9,1.6,2.8
		c0.1,0.2,0.1,0.3-0.2,0.3c-1.1,0.2-2.2,0.4-3.2,0.6c-0.1,0-0.2,0-0.3-0.1c-1.6-1.5-3.2-2.9-4.8-4.4C23.5,16.4,23.5,16.4,23.4,16.3z
		"/>
	<path class="st0" d="M11.2,10.6c-0.2-0.2-0.3-0.4-0.5-0.6C9.4,8.5,8.2,7,7,5.5C6.9,5.3,6.8,5.2,6.9,5c0.3-1,0.6-2,0.9-3
		c0.1-0.2,0.1-0.3,0.3-0.1C9,2.5,9.9,3.1,10.8,3.7C10.9,3.7,11,3.8,11,4C11.1,6.2,11.2,8.4,11.2,10.6C11.2,10.6,11.2,10.6,11.2,10.6
		z"/>
	<path class="st0" d="M15.4,23.4c-0.1,1-0.1,1.9-0.2,2.8c-0.1,1.2-0.2,2.4-0.3,3.7c0,0.3-0.1,0.4-0.3,0.5c-0.9,0.5-1.8,1-2.7,1.6
		c-0.2,0.1-0.3,0.1-0.3-0.1c-0.2-1.1-0.5-2.2-0.7-3.3c0-0.1,0-0.2,0.1-0.3c1.5-1.6,2.9-3.2,4.4-4.8C15.4,23.4,15.4,23.4,15.4,23.4z"
		/>
	<path class="st0" d="M10.3,21.1c-0.8,0.8-1.7,1.6-2.5,2.3c-0.8,0.7-1.5,1.4-2.3,2.1c-0.2,0.1-0.3,0.2-0.5,0.1
		c-1-0.2-2.1-0.5-3.1-0.7c-0.2-0.1-0.2-0.1-0.1-0.3c0.6-0.9,1.1-1.9,1.7-2.8c0.1-0.2,0.2-0.2,0.4-0.2c1.5-0.1,3.1-0.3,4.6-0.4
		C9,21.1,9.6,21.1,10.3,21.1C10.3,21,10.3,21.1,10.3,21.1z"/>
	<path class="st0" d="M8.8,15.7c-1.5-0.1-2.9-0.2-4.3-0.2c-0.8,0-1.6-0.1-2.3-0.2c-0.2,0-0.3-0.1-0.4-0.2c-0.5-0.9-1.1-1.8-1.6-2.7
		C0,12.3,0,12.2,0.3,12.1c1.1-0.3,2.1-0.5,3.2-0.8c0.1,0,0.2,0,0.4,0.1c1.6,1.4,3.3,2.8,4.9,4.2C8.8,15.6,8.8,15.7,8.8,15.7z"/>
	<path class="st0" d="M10.8,27.7c0.1-1,0.2-1.8,0.2-2.7c0.1-1.3,0.2-2.5,0.3-3.8c0-0.2,0.1-0.3,0.2-0.4c0.9-0.5,1.9-1.1,2.8-1.6
		c0.2-0.1,0.3-0.1,0.3,0.1c0.2,1,0.4,2.1,0.6,3.1c0,0.1,0,0.2-0.1,0.3c-1.5,1.6-2.9,3.2-4.4,4.8C11,27.7,10.9,27.7,10.8,27.7z"/>
	<path class="st0" d="M16.5,8.5c0.1-0.6,0.1-1.1,0.2-1.6c0.2-1.7,0.4-3.3,0.5-5c0-0.2,0.1-0.3,0.2-0.3c0.9-0.5,1.8-1,2.7-1.5
		c0.2-0.1,0.2-0.1,0.3,0.1c0.2,1.1,0.4,2.2,0.6,3.2c0,0.1,0,0.3-0.1,0.4c-1.5,1.6-2.9,3.1-4.4,4.7C16.6,8.5,16.6,8.5,16.5,8.5z"/>
	<path class="st0" d="M16,8.9c-0.4-0.4-0.7-0.8-1-1.2c-1-1.2-2-2.4-3-3.6c-0.2-0.2-0.2-0.3,0.1-0.4c1.5-0.6,3-1.3,4.5-2
		c0.1,0,0.1,0,0.2-0.1C16.6,4.1,16.3,6.5,16,8.9z"/>
	<path class="st0" d="M8.9,16.2c-1.6,1.5-3.2,2.9-4.8,4.4c-0.1-0.4-0.3-0.7-0.4-1c-0.5-1.2-1-2.4-1.5-3.6c-0.1-0.2-0.1-0.3,0.1-0.3
		c2.1,0.2,4.2,0.3,6.4,0.4C8.7,16.2,8.7,16.2,8.9,16.2z"/>
	<path class="st0" d="M23.3,15.8c0-0.1,0.1-0.2,0.1-0.2c1.5-1.3,3-2.5,4.5-3.8c0.2-0.2,0.3-0.2,0.4,0.1c0.5,1.4,1.1,2.9,1.7,4.3
		c0.1,0.1,0.1,0.3-0.2,0.2c-2.1-0.2-4.3-0.4-6.4-0.6C23.4,15.8,23.4,15.8,23.3,15.8z"/>
	<path class="st0" d="M6.6,5.9c1.4,1.7,2.9,3.4,4.3,5.2c-0.4,0-0.6,0-0.9,0c-1.8-0.1-3.5-0.2-5.3-0.4c-0.2,0-0.3,0-0.2-0.2
		C5.2,8.9,5.9,7.5,6.6,5.9C6.5,5.9,6.6,5.9,6.6,5.9z"/>
	<path class="st0" d="M21,21c2,0.2,3.9,0.3,5.8,0.5c0.2,0,0.5-0.1,0.6,0.1c0.1,0.2-0.1,0.4-0.2,0.6c-0.6,1.2-1.2,2.5-1.7,3.7
		c-0.1,0.1-0.1,0.3-0.3,0.1c-1.4-1.6-2.7-3.3-4.1-4.9C21,21.1,21,21.1,21,21z"/>
	<path class="st0" d="M21.1,10.5c0.1-1.2,0.3-2.4,0.4-3.5c0.1-0.9,0.2-1.7,0.3-2.6c0-0.2,0.1-0.3,0.3-0.2c1.3,0.7,2.6,1.4,4,2
		c0.2,0.1,0.2,0.1,0,0.3c-1.6,1.3-3.3,2.6-4.9,3.9C21.2,10.5,21.2,10.5,21.1,10.5z"/>
	<path class="st0" d="M15.9,23.2c0.4,0.5,0.8,0.9,1.2,1.4c1,1.1,1.9,2.2,2.9,3.3c0.2,0.2,0.2,0.2-0.1,0.3c-1.4,0.5-2.8,1-4.1,1.5
		c-0.3,0.1-0.3,0.1-0.3-0.2c0.2-2,0.3-4.1,0.4-6.1C15.9,23.4,15.9,23.4,15.9,23.2z"/>
	<path class="st0" d="M5.9,25.8c1.6-1.5,3.2-2.9,4.9-4.4c0,0.4,0,0.8-0.1,1.2c-0.2,1.7-0.3,3.3-0.5,5c0,0.2,0,0.3-0.2,0.2
		c-1.3-0.6-2.6-1.3-3.9-1.9C6,25.9,6,25.8,5.9,25.8z"/>
</g>
</svg>
