<?xml version="1.0" encoding="utf-8"?>
<!-- Generator: Adobe Illustrator 22.1.0, SVG Export Plug-In . SVG Version: 6.00 Build 0)  -->
<svg version="1.1" id="Слой_1" xmlns="http://www.w3.org/2000/svg" xmlns:xlink="http://www.w3.org/1999/xlink" x="0px" y="0px"
	 width="32px" height="32px" viewBox="0 0 32 32" style="enable-background:new 0 0 32 32;" xml:space="preserve">
<g>
	<rect style="fill:#161F26;" width="32" height="32"/>
	<g>
		<polygon style="fill:#02D4D1;" points="27.8,21.2 23,18.3 23,24 		"/>
		<polygon style="fill:#06B1AA;" points="27.8,15.5 23,12.7 23,18.3 		"/>
		<polygon style="fill:#03C3C2;" points="23,18.3 27.8,15.5 27.8,21.2 		"/>
		<polygon style="fill:#04D4CC;" points="23,12.7 27.8,9.9 27.8,15.5 		"/>
		<polygon style="fill:#05B399;" points="13.4,7.1 18.2,4.3 18.2,9.9 		"/>
		<polygon style="fill:#0A8C84;" points="13.4,18.3 18.2,15.5 18.2,21.2 		"/>
		<polygon style="fill:#0B8F7F;" points="12.7,12.1 17.5,9.3 17.5,14.9 		"/>
		<polygon style="fill:#0F6768;" points="12.4,23.6 17.1,20.8 17.1,26.4 		"/>
		<polygon style="fill:#0C8572;" points="3.8,19.6 8.6,16.8 8.6,22.4 		"/>
		<polygon style="fill:#04CDAB;" points="7.2,14.5 12,11.7 12,17.3 		"/>
		<polygon style="fill:#0A8E77;" points="8,9.4 12.8,6.5 12.8,12.2 		"/>
		<polygon style="fill:#04C4B6;" points="27.8,9.9 23,7.1 23,12.7 		"/>
		<polygon style="fill:#089D9C;" points="23,24.9 18.2,22.1 18.2,27.7 		"/>
		<polygon style="fill:#05C5B0;" points="16.4,22.5 11.6,19.6 11.6,25.3 		"/>
		<polygon style="fill:#0E5751;" points="13.3,18.2 8.6,15.3 8.6,21 		"/>
		<polygon style="fill:#0E685B;" points="10.8,12.4 6,9.6 6,15.2 		"/>
		<polygon style="fill:#114443;" points="16.8,14.5 12,11.7 12,17.3 		"/>
		<polygon style="fill:#06C5A6;" points="17.6,11.7 12.8,8.9 12.8,14.5 		"/>
		<polygon style="fill:#06B1AA;" points="23,18.3 18.2,15.5 18.2,21.1 		"/>
		<polygon style="fill:#069E9C;" points="18.2,21.1 23,18.3 23,24 		"/>
		<polygon style="fill:#02CDC1;" points="18.2,15.5 23,12.7 23,18.3 		"/>
		<polygon style="fill:#05B2A2;" points="23,12.7 18.2,9.9 18.2,15.5 		"/>
		<polygon style="fill:#02D5C1;" points="18.2,9.9 23,7.1 23,12.7 		"/>
		<polygon style="fill:#02D5C1;" points="23,7.1 18.2,4.3 18.2,9.9 		"/>
	</g>
</g>
</svg>
