<?xml version="1.0" encoding="utf-8"?>
<!-- Generator: Adobe Illustrator 22.1.0, SVG Export Plug-In . SVG Version: 6.00 Build 0)  -->
<svg version="1.1" id="Слой_1" xmlns="http://www.w3.org/2000/svg" xmlns:xlink="http://www.w3.org/1999/xlink" x="0px" y="0px"
	 width="32px" height="32px" viewBox="0 0 32 32" style="enable-background:new 0 0 32 32;" xml:space="preserve">
<path style="fill:#D22F2F;" d="M23.5,0h-15H4.4v3.9v16.9c0,1.5,0.3,3,0.9,4.3s1.4,2.5,2.5,3.5s2.3,1.8,3.7,2.4s3,0.9,4.5,0.9
	c1.6,0,3.1-0.3,4.5-0.9s2.6-1.4,3.7-2.4s1.9-2.2,2.5-3.5c0.6-1.4,0.9-2.8,0.9-4.3V3.9V0H23.5z M8.5,20.9V3.4H14v24.8
	C10.8,27.3,8.5,24.4,8.5,20.9z M23.5,20.9c0,3.4-2.3,6.3-5.4,7.2V3.4h5.4V20.9z"/>
</svg>
