<?xml version="1.0" encoding="utf-8"?>
<!-- Generator: Adobe Illustrator 22.1.0, SVG Export Plug-In . SVG Version: 6.00 Build 0)  -->
<svg version="1.1" id="Слой_1" xmlns="http://www.w3.org/2000/svg" xmlns:xlink="http://www.w3.org/1999/xlink" x="0px" y="0px"
	 width="32px" height="32px" viewBox="0 0 32 32" style="enable-background:new 0 0 32 32;" xml:space="preserve">
<g>
	<g>
		<polygon style="fill:#58BDF9;" points="13.5,19.4 12,18.5 7.8,16.1 7.8,12.8 6.3,13.6 6.3,16.1 6.3,16.9 7,17.3 12,20.2 13.5,21 
			15.4,22.1 16.1,22.5 16.8,22.1 18.4,21.1 18.4,19.5 16.1,20.9 		"/>
		<polygon style="fill:#58BDF9;" points="25.1,5.2 16.8,0.4 16.1,0 15.4,0.4 7,5.2 6.3,5.6 6.3,6.5 6.3,11.5 7.8,10.7 7.8,6.5 
			16.1,1.6 24.4,6.5 24.4,11 24.4,12.6 24.4,16.1 20.1,18.6 20.1,20.3 25.1,17.3 25.8,16.9 25.8,16.1 25.8,13.4 25.8,11.8 25.8,6.5 
			25.8,5.6 		"/>
	</g>
	<g>
		<polygon style="fill:#58BDF9;" points="19.3,14.7 17.5,13.7 16.1,14.5 18.6,16 18.5,19.5 18.5,21.1 18.5,25.6 16.2,26.9 
			17.6,27.7 19.3,26.8 20,26.4 20,25.6 20,20.3 20,18.6 20,15.9 20,15.1 		"/>
		<polygon style="fill:#58BDF9;" points="10.2,30.4 1.9,25.5 1.9,15.9 6.3,13.4 7.8,12.5 10.2,11.1 14.4,13.5 15.8,12.7 10.9,9.9 
			10.2,9.5 9.5,9.9 7.8,10.9 6.3,11.7 1.2,14.7 0.5,15.1 0.5,15.9 0.5,25.5 0.5,26.4 1.2,26.8 9.5,31.6 10.2,32 10.9,31.6 
			15.9,28.8 14.5,28 		"/>
	</g>
	<g>
		<polygon style="fill:#58BDF9;" points="13.5,15.9 16,14.5 17.4,13.6 21.8,11.1 24.3,12.5 24.3,10.9 22.5,9.9 21.8,9.5 21.1,9.9 
			16,12.8 14.5,13.6 12.7,14.7 12,15.1 12,15.9 12,18.3 13.5,19.1 		"/>
		<polygon style="fill:#58BDF9;" points="30.8,14.7 26,11.9 26,13.5 30.1,15.9 30.1,25.5 21.8,30.3 17.5,27.8 16,27 13.5,25.5 
			13.5,21.2 12,20.4 12,25.5 12,26.4 12.7,26.8 14.6,27.8 16,28.7 21.1,31.6 21.8,32 22.5,31.6 30.8,26.8 31.5,26.4 31.5,25.5 
			31.5,15.9 31.5,15.1 		"/>
	</g>
</g>
</svg>
