<?xml version="1.0" encoding="utf-8"?>
<!-- Generator: Adobe Illustrator 22.1.0, SVG Export Plug-In . SVG Version: 6.00 Build 0)  -->
<svg version="1.1" id="Слой_1" xmlns="http://www.w3.org/2000/svg" xmlns:xlink="http://www.w3.org/1999/xlink" x="0px" y="0px"
	 viewBox="0 0 32 32" style="enable-background:new 0 0 32 32;" xml:space="preserve">
<style type="text/css">
	.st0{fill:#2A4C89;}
	.st1{fill:#D2D3C5;}
	.st2{fill:#233961;}
</style>
<g>
	<path class="st0" d="M16,3.6c6.9,0,12.4,5.6,12.4,12.4c0,6.9-5.6,12.4-12.4,12.4S3.6,22.9,3.6,16C3.6,9.1,9.1,3.6,16,3.6 M16,0
		C11.7,0,7.7,1.7,4.7,4.7c-3,3-4.7,7-4.7,11.3s1.7,8.3,4.7,11.3c3,3,7,4.7,11.3,4.7s8.3-1.7,11.3-4.7c3-3,4.7-7,4.7-11.3
		s-1.7-8.3-4.7-11.3C24.3,1.7,20.3,0,16,0L16,0z"/>
	<g>
		<circle class="st1" cx="16" cy="16" r="12.4"/>
		<path class="st2" d="M16,3.6c6.9,0,12.4,5.6,12.4,12.4S22.9,28.4,16,28.4S3.6,22.9,3.6,16S9.1,3.6,16,3.6 M16,2.3
			C8.4,2.3,2.3,8.4,2.3,16S8.4,29.7,16,29.7c7.6,0,13.7-6.2,13.7-13.7S23.6,2.3,16,2.3L16,2.3z"/>
	</g>
	<g>
		<path class="st0" d="M17,23.2H9.2V8.6H17c4,0,7.3,3.3,7.3,7.3v0C24.3,19.9,21,23.2,17,23.2z"/>
		<path class="st2" d="M18.3,9.9c2.6,0,4.7,2.1,4.7,4.7v2.6c0,2.6-2.1,4.7-4.7,4.7h-7.8V9.9H18.3 M18.3,8.6H9.2v14.6h9.1
			c3.3,0,6-2.7,6-6v-2.6C24.3,11.3,21.6,8.6,18.3,8.6L18.3,8.6z"/>
	</g>
	<path class="st1" d="M20.1,15.3c-0.1-0.7-1.1-1.6-1.1-1.6l-2.8-2.4L15,12.7L14.2,12l-0.3,0.3L9.5,8.1L9.1,8.4L9,8.3L8.7,8.8
		L8.4,9.1l0.1,0.1L8.2,9.5l4.4,4.2L12.3,14l0.7,0.8L11.7,16l2.6,2.6c0,0,1,0.9,1.7,1c0.7,0.1,2.4-0.1,3.6-0.7l0,0
		C20.2,17.8,20.2,16,20.1,15.3z"/>
</g>
</svg>
