<?xml version="1.0" encoding="utf-8"?>
<!-- Generator: Adobe Illustrator 22.1.0, SVG Export Plug-In . SVG Version: 6.00 Build 0)  -->
<svg version="1.1" id="Слой_1" xmlns="http://www.w3.org/2000/svg" xmlns:xlink="http://www.w3.org/1999/xlink" x="0px" y="0px"
	 viewBox="0 0 32 32" style="enable-background:new 0 0 32 32;" xml:space="preserve">
<style type="text/css">
	.st0{fill:#8DC21F;}
</style>
<g>
	<path class="st0" d="M28.9,11.3c-2.3-4-7.6-6.2-12.5-4.4c-0.9,0.3-1.4,0.8-1.3,1.8c0.1,0.6,0,1.2,0,1.8c0,0,0,1.3,0,1.9
		c0.1,2-1.4,3-3.3,2.3c-1.3-0.5-2.6-1-4-1.5C7.4,12.9,7,13,6.6,13.4c-1.5,1.4-2.9,2.8-4.2,4.3c-0.4,0.5-0.7,0.9-0.2,1.5
		c0.5,0.6,1,0.3,1.5,0c1.6-1.1,3.2-2,5-2.7c0.5-0.2,1.1-0.5,1.6,0c0.5,0.6,0.1,1-0.1,1.5c-0.5,0.8-1,1.6-1.3,2.5
		c-0.5,1.1-0.9,2.2-1.3,3.2c-0.2,0.5-0.2,1,0.4,1.3c0.6,0.3,1,0,1.3-0.4c0.2-0.3,0.5-0.6,0.7-0.9c3.9-4.9,8.9-8.2,15.1-9.7
		c0.5-0.1,1.2-0.6,1.4,0.3c0.2,0.8-0.7,0.7-1.1,0.8c-4,1.3-7.3,3.5-9.6,7c-1.8,2.8-2.1,5.7-1,8.9c0.2,0.5,0.4,0.9,0.9,1
		c0.4,0.1,0.7-0.1,0.9-0.5c1-1.7,2.5-2.5,4.2-3.2c2.3-0.9,4.4-2.1,6.2-3.7C30.5,21.3,31.4,15.7,28.9,11.3z M15.5,30.5
		c-0.7-2.2-0.7-4.2,0.2-6.3c0.6,0.8,1.2,1.4,2,1.9c0.7,0.5,1.5,0.7,2.5,1C18.4,28,16.7,28.8,15.5,30.5z"/>
	<path class="st0" d="M6.2,11.2c2,1,4.2,1.8,6.3,2.5c0.9,0.3,1.3,0,1.4-0.9c0.1-1,0-3.1,0-3.1c0-0.3,0-0.6,0-0.9
		c0.2-2.9-0.5-5.6-2.1-8c-0.6-1-1.2-1-1.9-0.1c-0.6,0.9-1,1.9-1,3c0,1.8-1.4,2.8-3.1,2.2C4.9,5.5,3.8,5.5,2.7,5.7
		C1.7,5.9,1.5,6.6,2,7.4C3.2,8.9,4.5,10.3,6.2,11.2z M10.3,3.3c0.1-0.6,0.2-1.2,0.7-1.7c0.5,0.5,0.8,1.2,1,1.9
		c0.3,0.7-0.4,0.6-0.7,0.6C10.2,4.5,10.1,4.4,10.3,3.3z M4.1,8.2C3.7,7.8,3.3,7.3,3.2,6.7C3.9,6.6,4.6,6.8,5.3,7
		C6,7.2,5.5,7.7,5.4,8C5,9,4.8,9,4.1,8.2z"/>
</g>
</svg>
