<?xml version="1.0" encoding="utf-8"?>
<!-- Generator: Adobe Illustrator 22.1.0, SVG Export Plug-In . SVG Version: 6.00 Build 0)  -->
<svg version="1.1" id="Слой_1" xmlns="http://www.w3.org/2000/svg" xmlns:xlink="http://www.w3.org/1999/xlink" x="0px" y="0px"
	 width="32px" height="32px" viewBox="0 0 32 32" style="enable-background:new 0 0 32 32;" xml:space="preserve">
<g>
	<path style="fill:#6CC54B;" d="M32,16c0,2.1-0.4,4.2-1.2,6.1c-0.8,2-2,3.7-3.5,5.2c-1.5,1.5-3.2,2.7-5.2,3.5S18.1,32,16,32
		s-4.2-0.4-6.1-1.2c-2-0.8-3.7-2-5.2-3.5S2,24.1,1.2,22.1S0,18.1,0,16s0.4-4.2,1.2-6.1c0.8-2,2-3.7,3.5-5.2C6.2,3.2,7.9,2,9.9,1.2
		S13.9,0,16,0s4.2,0.4,6.1,1.2c2,0.8,3.7,2,5.2,3.5c1.5,1.5,2.7,3.2,3.5,5.2C31.6,11.8,32,13.9,32,16z"/>
	<path style="fill:#FFFFFF;" d="M18.7,18.8l-3,0.7l-0.8-3l3-0.7c0.4-0.1,0.8,0,1.2,0.2c0.4,0.2,0.6,0.5,0.7,0.9s0,0.8-0.2,1.2
		C19.4,18.5,19.1,18.7,18.7,18.8z M13.8,12.1l2.2-0.6c0.4-0.1,0.8,0,1.2,0.2c0.4,0.2,0.6,0.5,0.7,0.9s0,0.8-0.2,1.2
		s-0.5,0.6-0.9,0.7l-2.2,0.6L13.8,12.1z M20.6,14c0.3-0.7,0.4-1.4,0.2-2.1c-0.6-2.3-2.3-3.4-4.7-2.8l-0.7-2.8c0-0.1,0-0.1-0.1-0.1
		h-0.1l-1.1,0.3C14,6.4,14,6.5,14,6.6l0.7,2.8l-1.5,0.4L12.5,7c0-0.1,0-0.1-0.1-0.1h-0.1l-1.1,0.3c-0.1,0-0.2,0.1-0.1,0.2l0.7,2.8
		L8.6,11c-0.1,0-0.2,0.1-0.1,0.2l0.3,1.1c0,0.1,0.1,0.2,0.2,0.1h0.2c0.4-0.1,0.8,0,1.2,0.2s0.6,0.5,0.7,0.9l1.5,6
		c0.2,0.9-0.1,1.5-1,1.8c-0.1,0-0.1,0.1-0.1,0.2v1.2c0,0.1,0,0.1,0.1,0.2c0,0,0.1,0.1,0.2,0l3.1-0.8l0.7,2.8c0,0.1,0.1,0.2,0.2,0.1
		l1.1-0.3c0.1,0,0.1,0,0.1-0.1v-0.1l-0.7-2.8l1.5-0.4l0.7,2.8c0,0.1,0.1,0.2,0.2,0.1l1.1-0.3c0.1,0,0.1,0,0.1-0.1v-0.1L19.2,21
		l0.7-0.2c2.3-0.6,3.4-2.3,2.8-4.7C22.5,15.1,21.8,14.3,20.6,14z"/>
</g>
</svg>
