<svg xmlns="http://www.w3.org/2000/svg" width="32" height="32" viewBox="0 0 32 32"><style type="text/css">  
	.st0{fill:#FFFFFF;}
	.st1{fill:#C71820;}
	.st2{fill:#241F5D;}
</style><path fill="#FFFFFF" d="M21.8 17H0c0 0.9 0.1 1.6 0.3 2.5h31.3c0.2-0.7 0.3-1.6 0.3-2.3C31.9 17.1 21.8 17 21.8 17z"/><path fill="#FFFFFF" d="M8.4 30.1h15.3c1.4-0.7 2.7-1.7 3.7-2.9H4.6C5.8 28.4 7 29.3 8.4 30.1z"/><path fill="#FFFFFF" d="M2.6 24.7h26.9c0.5-0.9 1.1-1.8 1.4-2.8H1.2C1.6 22.9 2 23.9 2.6 24.7z"/><path fill="#FFFFFF" d="M22.3 14.5h9.6c-0.1-0.9-0.2-1.6-0.4-2.3h-9.2V14.5z"/><path fill="#FFFFFF" d="M22.3 2.1v2.5h4.9c-1-1-2-1.8-3.3-2.5C23.9 2.1 22.3 2.1 22.3 2.1z"/><path fill="#FFFFFF" d="M22.3 9.6h8.3c-0.4-0.9-0.9-1.7-1.4-2.5h-7v2.5H22.3z"/><path fill="#C71820" d="M23.9 2.1c-0.5-0.3-1.1-0.5-1.6-0.9v0.9H23.9z"/><path fill="#C71820" d="M22.3 7.1h7c-0.6-1-1.3-1.8-2.1-2.6h-4.9V7.1z"/><path fill="#C71820" d="M22.3 12.2h9.2c-0.2-0.9-0.5-1.7-0.9-2.6h-8.3C22.3 9.6 22.3 12.2 22.3 12.2z"/><path fill="#C71820" d="M22.3 17h-0.5v0.1H32V16c0-0.5 0-1-0.1-1.5h-9.6C22.3 14.5 22.3 17 22.3 17z"/><path fill="#C71820" d="M1.2 22h29.7c0.3-0.9 0.6-1.7 0.7-2.6H0.4C0.5 20.3 0.9 21.1 1.2 22z"/><path fill="#C71820" d="M4.6 27.2h22.7c0.7-0.7 1.5-1.6 2-2.6H2.6C3.2 25.6 3.8 26.5 4.6 27.2z"/><path fill="#C71820" d="M16 32c2.8 0 5.3-0.7 7.6-1.9H8.4C10.7 31.3 13.2 32 16 32z"/><path fill="#241F5D" d="M21.8 1.1c-0.4-0.2-1-0.3-1.5-0.4l0.2 0.4h0.7l-0.5 0.5 0.2 0.7 -0.6-0.4 -0.6 0.4 0.2-0.7 -0.6-0.5h0.7l0.2-0.5C18.8 0.2 17.4 0 16 0s-2.8 0.2-4.2 0.5l0.2 0.5h0.7l-0.5 0.5 0.2 0.7 -0.6-0.4 -0.6 0.4 0.2-0.7 -0.6-0.5h0.7l0.1-0.4C10.5 1 9.3 1.4 8.2 2l0.1 0.3L8 2.1C7.3 2.6 6.6 3 5.9 3.5l0.2 0.6L5.7 3.8C5 4.4 4.5 4.9 4.1 5.4l0.1 0.3L3.8 5.7C2.9 6.7 2 8 1.4 9.4l0.2 0.4h0.7l-0.5 0.5L2 11.1l-0.7-0.4 -0.5 0.4c-0.4 1.2-0.6 2.5-0.7 3.8h0.2L0 15.1V16v1h22.3V1.3C22.1 1.2 22 1.2 21.8 1.1zM2 14.6l-0.6-0.4 -0.6 0.4 0.1-0.7 -0.5-0.5h0.7l0.3-0.7 0.3 0.7h0.7l-0.6 0.5C1.8 13.9 2 14.6 2 14.6zM4.1 16.2l-0.6-0.4 -0.6 0.4L3 15.5l-0.6-0.5h0.7l0.3-0.7 0.2 0.7h0.7l-0.5 0.5C3.8 15.5 4.1 16.2 4.1 16.2zM3.8 11.9l0.2 0.9 -0.6-0.4 -0.6 0.4L3 12.1l-0.5-0.5h0.7l0.2-0.9 0.3 0.7h0.7C4.5 11.4 3.8 11.9 3.8 11.9zM3.8 8.5l0.2 0.7L3.4 8.9 2.8 9.3 3 8.5 2.3 8h0.7l0.3-0.7L3.7 8h0.7C4.5 8 3.8 8.5 3.8 8.5zM6.1 14.6l-0.6-0.4 -0.6 0.4L5 13.9l-0.5-0.5h0.7l0.3-0.7 0.3 0.7h0.7l-0.7 0.5L6.1 14.6zM5.9 10.3l0.2 0.7 -0.6-0.4 -0.6 0.4L5 10.3 4.5 9.8h0.7l0.3-0.7 0.3 0.7h0.7L5.9 10.3zM5.9 6.8l0.2 0.7L5.4 7.1 4.8 7.6 5 6.8 4.5 6.3h0.7l0.3-0.7 0.3 0.7h0.7L5.9 6.8zM8.3 16.2l-0.6-0.4L7 16.2l0.2-0.7 -0.6-0.5h0.7l0.3-0.7L8 14.9h0.7l-0.5 0.5C8.2 15.5 8.3 16.2 8.3 16.2zM8.1 11.9l0.2 0.9 -0.6-0.4L7 12.8l0.2-0.7 -0.5-0.5h0.7l0.2-0.9L8 11.4h0.7C8.7 11.4 8.1 11.9 8.1 11.9zM8.1 8.5l0.2 0.7L7.7 8.9 7 9.3l0.2-0.7L6.6 8h0.7l0.3-0.7L8 8h0.7C8.7 8 8.1 8.5 8.1 8.5zM8.1 5l0.2 0.7L7.7 5.3 7 5.8 7.3 5 6.6 4.5h0.7l0.3-0.7L8 4.5h0.7C8.7 4.5 8.1 5 8.1 5zM10.3 14.6l-0.6-0.4 -0.6 0.4 0.2-0.7 -0.5-0.5h0.7l0.3-0.7 0.3 0.7h0.7l-0.7 0.5C10.1 13.9 10.3 14.6 10.3 14.6zM10.1 10.3l0.2 0.7 -0.6-0.4 -0.6 0.4 0.2-0.7L8.7 9.8h0.7l0.3-0.7 0.3 0.7h0.7C10.9 9.8 10.1 10.3 10.1 10.3zM10.1 6.8l0.2 0.7L9.7 7.1 9.1 7.6l0.2-0.7L8.7 6.3h0.7l0.3-0.7 0.3 0.7h0.7C10.9 6.3 10.1 6.8 10.1 6.8zM10.1 3.4l0.2 0.7L9.7 3.7 9.1 4.2l0.2-0.7L8.7 2.9h0.7l0.2-0.7L10 2.9h0.7C10.8 2.9 10.1 3.4 10.1 3.4zM12.5 16.2l-0.6-0.4 -0.6 0.4 0.2-0.7 -0.6-0.5h0.7l0.3-0.7 0.3 0.7h0.6l-0.5 0.5C12.3 15.5 12.5 16.2 12.5 16.2zM12.3 11.9l0.2 0.7 -0.6-0.4 -0.6 0.5 0.2-0.7 -0.5-0.5h0.7l0.1-0.9 0.3 0.7h0.7C12.8 11.4 12.3 11.9 12.3 11.9zM12.3 8.5l0.2 0.7 -0.6-0.4 -0.6 0.4 0.1-0.7L10.8 8h0.7l0.2-0.7L12.1 8h0.7C12.8 8 12.3 8.5 12.3 8.5zM12.3 5l0.2 0.7 -0.6-0.4 -0.6 0.4L11.4 5l-0.5-0.5h0.7l0.1-0.7 0.3 0.7h0.7C12.8 4.5 12.3 5 12.3 5zM14.5 14.6l-0.6-0.4 -0.6 0.4 0.2-0.7 -0.6-0.5h0.7l0.3-0.7 0.3 0.7h0.7l-0.6 0.5C14.3 13.9 14.5 14.6 14.5 14.6zM14.3 10.3l0.2 0.7 -0.6-0.4 -0.6 0.4 0.2-0.7 -0.6-0.5h0.7l0.3-0.7 0.3 0.7h0.7C14.9 9.8 14.3 10.3 14.3 10.3zM14.3 6.8l0.2 0.7 -0.6-0.4 -0.6 0.4 0.2-0.7 -0.6-0.5h0.7l0.3-0.7 0.3 0.7h0.7C14.9 6.3 14.3 6.8 14.3 6.8zM14.3 3.4l0.2 0.7 -0.6-0.4 -0.6 0.4 0.2-0.7 -0.6-0.5h0.7l0.3-0.7 0.3 0.7h0.7C14.9 2.9 14.3 3.4 14.3 3.4zM16.6 16.2L16 15.8l-0.6 0.4 0.2-0.7 -0.6-0.5h0.7l0.3-0.7 0.3 0.7h0.7l-0.5 0.5C16.5 15.5 16.6 16.2 16.6 16.2zM16.4 11.9l0.2 0.7L16 12.3l-0.6 0.5 0.2-0.7 -0.6-0.5h0.7l0.3-0.7 0.3 0.7h0.7C17.1 11.5 16.4 11.9 16.4 11.9zM16.4 8.5l0.2 0.7L16 8.9l-0.6 0.4 0.1-0.7L14.9 8h0.7L16 7.3 16.3 8h0.7C17.1 8 16.4 8.5 16.4 8.5zM16.4 5l0.2 0.7 -0.7-0.4 -0.6 0.4L15.5 5l-0.5-0.5h0.7L16 3.7l0.3 0.7h0.7C17.1 4.5 16.4 5 16.4 5zM16.4 1.6l0.2 0.7L16 1.9l-0.6 0.4 0.2-0.7 -0.6-0.5h0.7L16 0.3l0.2 0.7H17C17 1.1 16.4 1.6 16.4 1.6zM18.7 14.6L18 14.2l-0.6 0.4 0.2-0.7 -0.5-0.5h0.7l0.3-0.7 0.3 0.7h0.7l-0.7 0.5L18.7 14.6zM18.5 10.3l0.2 0.7L18 10.7l-0.6 0.4 0.2-0.7 -0.5-0.5h0.7l0.3-0.7 0.3 0.7h0.7L18.5 10.3zM18.5 6.8l0.2 0.7L18 7.1l-0.6 0.4 0.2-0.7 -0.5-0.5h0.7l0.3-0.7 0.3 0.7h0.7L18.5 6.8zM18.5 3.4l0.2 0.7L18 3.7l-0.6 0.4 0.2-0.7 -0.5-0.5h0.7L18 2.1l0.3 0.7h0.7C19.1 2.9 18.5 3.4 18.5 3.4zM20.8 16.2l-0.6-0.4 -0.6 0.4 0.2-0.7 -0.5-0.5h0.7l0.3-0.7 0.3 0.7h0.7l-0.5 0.5V16.2zM20.7 11.9l0.2 0.7 -0.6-0.4 -0.7 0.5 0.2-0.7 -0.5-0.5h0.7l0.3-0.7 0.3 0.7h0.7L20.7 11.9zM20.7 8.5l0.2 0.7 -0.6-0.4 -0.6 0.4 0.1-0.7L19.2 8h0.7l0.3-0.7L20.6 8h0.7L20.7 8.5zM20.7 5l0.2 0.7 -0.7-0.4 -0.6 0.4L19.7 5l-0.5-0.5h0.7l0.3-0.7 0.3 0.7h0.7L20.7 5z"/><path fill="#FFFFFF" d="M8.2 2c0 0-0.1 0.1-0.2 0.1l0.3 0.2C8.3 2.3 8.2 2 8.2 2z"/><path fill="#FFFFFF" d="M10.8 1.1l0.5 0.5 -0.2 0.7 0.6-0.4 0.6 0.4 -0.2-0.7 0.6-0.5h-0.7l-0.2-0.5c-0.1 0-0.1 0-0.2 0.1l-0.1 0.4H10.8z"/><polygon fill="#FFFFFF" points="15.9 0.3 15.7 1.1 14.9 1.1 15.5 1.6 15.4 2.3 15.9 1.9 16.6 2.3 16.4 1.6 17 1.1 16.2 1.1 "/><path fill="#FFFFFF" d="M19.2 1.1l0.5 0.5 -0.2 0.7 0.6-0.4 0.6 0.4 -0.2-0.7 0.6-0.5h-0.7l-0.2-0.4c-0.1 0-0.1 0-0.2-0.1l-0.1 0.5H19.2z"/><path fill="#FFFFFF" d="M6 3.5L5.7 3.8l0.5 0.3C6.2 4.2 6 3.5 6 3.5z"/><polygon fill="#FFFFFF" points="9.7 2.1 9.5 2.9 8.7 2.9 9.3 3.4 9.1 4.2 9.7 3.7 10.3 4.2 10.1 3.4 10.8 2.9 10 2.9 "/><polygon fill="#FFFFFF" points="13.9 2.1 13.5 2.9 12.8 2.9 13.4 3.4 13.2 4.2 13.9 3.7 14.5 4.2 14.3 3.4 14.8 2.9 14.2 2.9 "/><polygon fill="#FFFFFF" points="18 2.1 17.7 2.9 17 2.9 17.6 3.4 17.4 4.2 18 3.7 18.7 4.2 18.5 3.4 19 2.9 18.2 2.9 "/><path fill="#FFFFFF" d="M3.9 5.4c0 0.1-0.1 0.1-0.1 0.1l0.2 0.1C4.1 5.7 3.9 5.4 3.9 5.4z"/><polygon fill="#FFFFFF" points="7.7 3.7 7.4 4.5 6.6 4.5 7.3 5 7 5.8 7.7 5.3 8.3 5.8 8.1 5 8.6 4.5 8 4.5 "/><polygon fill="#FFFFFF" points="11.7 3.7 11.5 4.5 10.8 4.5 11.3 5 11.2 5.8 11.8 5.3 12.5 5.8 12.3 5 12.8 4.5 12.1 4.5 "/><polygon fill="#FFFFFF" points="15.9 3.7 15.7 4.5 14.9 4.5 15.5 5 15.4 5.8 15.9 5.3 16.6 5.8 16.4 5 17 4.5 16.2 4.5 "/><polygon fill="#FFFFFF" points="20.2 3.7 19.9 4.5 19.2 4.5 19.7 5 19.5 5.8 20.2 5.3 20.8 5.8 20.7 5 21.2 4.5 20.5 4.5 "/><polygon fill="#FFFFFF" points="5.4 5.5 5.2 6.3 4.5 6.3 5 6.8 4.8 7.6 5.4 7.1 6.1 7.6 5.9 6.8 6.5 6.3 5.8 6.3 "/><polygon fill="#FFFFFF" points="9.7 5.5 9.5 6.3 8.7 6.3 9.3 6.8 9.1 7.6 9.7 7.1 10.3 7.6 10.1 6.8 10.8 6.3 10 6.3 "/><polygon fill="#FFFFFF" points="13.9 5.5 13.5 6.3 12.8 6.3 13.4 6.8 13.2 7.6 13.9 7.1 14.5 7.6 14.3 6.8 14.8 6.3 14.2 6.3 "/><polygon fill="#FFFFFF" points="18 5.5 17.7 6.3 17 6.3 17.6 6.8 17.4 7.6 18 7.1 18.7 7.6 18.5 6.8 19 6.3 18.2 6.3 "/><polygon fill="#FFFFFF" points="3.4 7.3 3.1 8 2.3 8 3 8.5 2.8 9.3 3.4 8.9 4.1 9.3 3.8 8.5 4.4 8 3.6 8 "/><polygon fill="#FFFFFF" points="7.7 7.3 7.4 8 6.6 8 7.3 8.5 7 9.3 7.7 8.9 8.3 9.3 8.1 8.5 8.6 8 8 8 "/><polygon fill="#FFFFFF" points="11.7 7.3 11.5 8 10.8 8 11.3 8.5 11.2 9.3 11.8 8.9 12.5 9.3 12.3 8.5 12.8 8 12.1 8 "/><polygon fill="#FFFFFF" points="15.9 7.3 15.7 8 14.9 8 15.5 8.5 15.4 9.3 15.9 8.9 16.6 9.3 16.4 8.5 17 8 16.2 8 "/><polygon fill="#FFFFFF" points="20.2 7.3 19.9 8 19.2 8 19.7 8.5 19.5 9.3 20.2 8.9 20.8 9.3 20.7 8.5 21.2 8 20.5 8 "/><path fill="#FFFFFF" d="M2 11.1l-0.2-0.7 0.5-0.5H1.6L1.4 9.4C1.2 9.9 1 10.5 0.7 11.1l0.5-0.4L2 11.1z"/><polygon fill="#FFFFFF" points="5.4 9.1 5.2 9.8 4.5 9.8 5 10.3 4.8 11.1 5.4 10.7 6.1 11.1 5.9 10.3 6.5 9.8 5.8 9.8 "/><polygon fill="#FFFFFF" points="9.7 9.1 9.5 9.8 8.7 9.8 9.3 10.3 9.1 11.1 9.7 10.7 10.3 11.1 10.1 10.3 10.8 9.8 10 9.8 "/><polygon fill="#FFFFFF" points="13.9 9.1 13.5 9.8 12.8 9.8 13.4 10.3 13.2 11.1 13.9 10.7 14.5 11.1 14.3 10.3 14.8 9.8 14.2 9.8 "/><polygon fill="#FFFFFF" points="18 9.1 17.7 9.8 17 9.8 17.6 10.3 17.4 11.1 18 10.7 18.7 11.1 18.5 10.3 19 9.8 18.2 9.8 "/><polygon fill="#FFFFFF" points="3.4 10.7 3.1 11.5 2.3 11.5 3 11.9 2.8 12.8 3.4 12.4 4.1 12.8 3.8 11.9 4.4 11.5 3.6 11.5 "/><polygon fill="#FFFFFF" points="7.7 10.7 7.4 11.5 6.6 11.5 7.3 11.9 7 12.8 7.7 12.4 8.3 12.8 8.1 11.9 8.6 11.5 8 11.5 "/><polygon fill="#FFFFFF" points="11.7 10.7 11.5 11.5 10.8 11.5 11.3 11.9 11.2 12.8 11.8 12.4 12.5 12.8 12.3 11.9 12.8 11.5 12.1 11.5 "/><polygon fill="#FFFFFF" points="15.9 10.7 15.7 11.5 14.9 11.5 15.5 11.9 15.4 12.8 15.9 12.4 16.6 12.8 16.4 11.9 17 11.5 16.2 11.5 "/><polygon fill="#FFFFFF" points="20.2 10.7 19.9 11.5 19.2 11.5 19.7 11.9 19.5 12.8 20.2 12.4 20.8 12.8 20.7 11.9 21.2 11.5 20.5 11.5 "/><path fill="#FFFFFF" d="M0.1 14.9v0.2l0.2-0.2C0.3 14.9 0.1 14.9 0.1 14.9z"/><polygon fill="#FFFFFF" points="3.6 14.9 3.4 14.2 3.1 14.9 2.3 14.9 3 15.5 2.8 16.2 3.4 15.8 4.1 16.2 3.8 15.5 4.4 14.9 "/><polygon fill="#FFFFFF" points="8 14.9 7.7 14.2 7.4 14.9 6.6 14.9 7.3 15.5 7 16.2 7.7 15.8 8.3 16.2 8.1 15.5 8.6 14.9 "/><polygon fill="#FFFFFF" points="12.1 14.9 11.7 14.2 11.5 14.9 10.8 14.9 11.3 15.5 11.2 16.2 11.8 15.8 12.5 16.2 12.3 15.5 12.8 14.9 "/><polygon fill="#FFFFFF" points="16.2 14.9 15.9 14.2 15.7 14.9 14.9 14.9 15.5 15.5 15.4 16.2 15.9 15.8 16.6 16.2 16.4 15.5 17 14.9 "/><polygon fill="#FFFFFF" points="20.5 14.9 20.2 14.2 19.9 14.9 19.2 14.9 19.7 15.5 19.5 16.2 20.2 15.8 20.8 16.2 20.7 15.5 21.2 14.9 "/><polygon fill="#FFFFFF" points="1.6 13.3 1.3 12.6 1.1 13.3 0.3 13.3 0.9 13.9 0.7 14.6 1.3 14.2 2 14.6 1.8 13.9 2.3 13.3 "/><polygon fill="#FFFFFF" points="5.8 13.3 5.4 12.6 5.2 13.3 4.5 13.3 5 13.9 4.8 14.6 5.4 14.2 6.1 14.6 5.9 13.9 6.5 13.3 "/><polygon fill="#FFFFFF" points="10 13.3 9.7 12.6 9.5 13.3 8.7 13.3 9.3 13.9 9.1 14.6 9.7 14.2 10.3 14.6 10.1 13.9 10.8 13.3 "/><polygon fill="#FFFFFF" points="14.2 13.3 13.9 12.6 13.5 13.3 12.8 13.3 13.4 13.9 13.2 14.6 13.9 14.2 14.5 14.6 14.3 13.9 14.8 13.3 "/><polygon fill="#FFFFFF" points="18.2 13.3 18 12.6 17.7 13.3 17 13.3 17.6 13.9 17.4 14.6 18 14.2 18.7 14.6 18.5 13.9 19 13.3 "/></svg>