<?xml version="1.0" encoding="utf-8"?>
<!-- Generator: Adobe Illustrator 22.1.0, SVG Export Plug-In . SVG Version: 6.00 Build 0)  -->
<svg version="1.1" id="Слой_1" xmlns="http://www.w3.org/2000/svg" xmlns:xlink="http://www.w3.org/1999/xlink" x="0px" y="0px"
	 width="32px" height="32px" viewBox="0 0 32 32" style="enable-background:new 0 0 32 32;" xml:space="preserve">
<g>
	<g>
		<path style="fill:#FE0000;" d="M16,21.3l-0.1-0.1c-3.1-3.1-6.2-6.2-9.3-9.3c-0.1-0.1-0.1-0.1,0-0.2c3.1-3.1,6.2-6.2,9.3-9.3
			c0.1-0.1,0.1-0.1,0.2,0c0.8,0.8,1.6,1.6,2.4,2.4c0.1,0.1,0.1,0.1,0,0.2c-2.3,2.3-4.5,4.5-6.8,6.8c-0.1,0.1-0.1,0.1,0,0.2
			c1.4,1.4,2.8,2.8,4.2,4.2c0.1,0.1,0.1,0.1,0.2,0c1.4-1.4,2.8-2.8,4.2-4.2c0.1-0.1,0.1-0.1,0-0.2c-0.7-0.7-1.3-1.3-2-2
			c-0.1-0.1-0.1-0.1,0-0.2c0.8-0.8,1.6-1.6,2.4-2.4c0.1-0.1,0.1-0.1,0.2,0c1.5,1.5,3,3,4.5,4.5c0.1,0.1,0.1,0.1,0,0.2
			C22.3,15,19.2,18.1,16,21.3C16,21.2,16,21.3,16,21.3z"/>
		<path style="fill:#03B1C5;" d="M25.5,20.2L25.5,20.2C25.5,20.3,25.5,20.3,25.5,20.2c-3.2,3.2-6.3,6.3-9.4,9.4
			c-0.1,0.1-0.1,0.1-0.2,0c-3.1-3.1-6.2-6.2-9.3-9.3c-0.1-0.1-0.1-0.1,0-0.2c0.8-0.8,1.6-1.6,2.3-2.3c0.1-0.1,0.1-0.1,0.2,0
			c2.2,2.2,4.5,4.5,6.7,6.7c0.1,0.1,0.1,0.1,0.2,0c2.3-2.3,4.5-4.5,6.8-6.8c0.1-0.1,0.1-0.1,0.2,0C23.9,18.5,24.7,19.3,25.5,20.2
			L25.5,20.2z"/>
		<path style="fill:#03B1C5;" d="M7.4,16L7.4,16C7.3,16,7.3,16,7.4,16c-1.6,1.7-3.2,3.2-4.8,4.8c-0.1,0.1-0.1,0.1-0.2,0
			C1.6,20,0.8,19.2,0,18.4c0-0.1,0-0.1,0-0.2c1.6-1.6,3.1-3.1,4.7-4.7c0.1-0.1,0.1-0.1,0.2,0C5.7,14.3,6.5,15.1,7.4,16
			C7.3,15.9,7.4,15.9,7.4,16z"/>
		<path style="fill:#03B1C5;" d="M29.5,20.9C29.4,20.9,29.4,20.8,29.5,20.9c-1.2-1.2-2.4-2.3-3.5-3.5c-0.4-0.4-0.9-0.9-1.3-1.3
			c-0.1-0.1-0.1-0.1,0-0.1c0.8-0.8,1.6-1.6,2.4-2.4c0.1-0.1,0.1-0.1,0.1,0c1.6,1.6,3.2,3.2,4.7,4.7c0.1,0.1,0,0.1,0,0.1
			C31.2,19.2,30.3,20,29.5,20.9L29.5,20.9z"/>
	</g>
</g>
</svg>
