<?xml version="1.0" encoding="utf-8"?>
<!-- Generator: Adobe Illustrator 22.1.0, SVG Export Plug-In . SVG Version: 6.00 Build 0)  -->
<svg version="1.1" id="Слой_1" xmlns="http://www.w3.org/2000/svg" xmlns:xlink="http://www.w3.org/1999/xlink" x="0px" y="0px"
	 width="32px" height="32px" viewBox="0 0 32 32" style="enable-background:new 0 0 32 32;" xml:space="preserve">
<style type="text/css">
	.st0{fill:url(#SVGID_1_);}
	.st1{fill:#002459;}
	.st2{fill:#5B3F35;}
	.st3{fill:url(#SVGID_2_);}
	.st4{fill:url(#SVGID_3_);}
	.st5{fill:url(#SVGID_4_);}
	.st6{fill:url(#SVGID_5_);}
	.st7{fill:url(#SVGID_6_);}
	.st8{fill:#B1D6EA;}
	.st9{fill:url(#SVGID_7_);}
	.st10{fill:url(#SVGID_8_);}
	.st11{fill:url(#SVGID_9_);}
	.st12{fill:#1C5292;}
</style>
<g>
	<g>
		
			<linearGradient id="SVGID_1_" gradientUnits="userSpaceOnUse" x1="16" y1="34.1" x2="16" y2="2.173" gradientTransform="matrix(1 0 0 -1 0 34)">
			<stop  offset="0" style="stop-color:#9EC8E3"/>
			<stop  offset="0.3915" style="stop-color:#FFFFFF"/>
		</linearGradient>
		<circle class="st0" cx="16" cy="15.9" r="16"/>
		<path class="st1" d="M16,0.6c2.1,0,4.1,0.4,6,1.2c1.8,0.8,3.5,1.9,4.9,3.3s2.5,3,3.3,4.9s1.2,3.9,1.2,6s-0.4,4.1-1.2,6
			c-0.8,1.8-1.9,3.5-3.3,4.9s-3,2.5-4.9,3.3s-3.9,1.2-6,1.2s-4.1-0.4-6-1.2c-1.8-0.8-3.5-1.9-4.9-3.3s-2.5-3-3.3-4.9
			c-0.8-2-1.2-4-1.2-6.1s0.4-4.1,1.2-6C2.6,8.1,3.7,6.4,5.1,5s3-2.5,4.9-3.3C11.9,1,13.9,0.6,16,0.6 M16-0.1C7.2-0.1,0,7,0,15.9
			s7.1,16,16,16s16-7.1,16-16S24.8-0.1,16-0.1L16-0.1z"/>
	</g>
	<g>
		<path class="st2" d="M30.9,11l-0.2-0.2c-2.6,0.3-4.2,0.1-7.4-2.6c-3.3-2.7-4.4-3.1-8.5-2.9C10.6,5.5,7.5,9.9,5,10.5
			c-1.7,0.4-3,0.2-3.7,0c-0.6,1.7-1,3.6-1,5.5c0,8.7,7.1,15.8,15.8,15.8S31.9,24.7,31.9,16C31.8,14.3,31.5,12.6,30.9,11z"/>
		<path class="st1" d="M16,32.1c-4.3,0-8.3-1.7-11.3-4.7S0,20.4,0,16.1c0-1.9,0.3-3.8,1-5.6l0.1-0.2h0.2c0.7,0.2,2,0.4,3.6,0
			c0.9-0.2,2-1.1,3.2-2c1.9-1.5,4-3.1,6.6-3.2c4.1-0.2,5.3,0.2,8.7,3c3.3,2.7,4.8,2.8,7.3,2.5h0.1l0.3,0.3V11
			c0.6,1.7,0.9,3.4,0.9,5.2c0,4.3-1.7,8.3-4.7,11.3C24.3,30.4,20.3,32.1,16,32.1z M1.4,10.8c-0.6,1.7-0.9,3.5-0.9,5.3
			c0,8.6,7,15.5,15.5,15.5s15.5-7,15.5-15.5c0-1.7-0.3-3.4-0.8-5L30.6,11c-2.7,0.3-4.3,0-7.5-2.6c-3.3-2.7-4.4-3.1-8.4-2.9
			c-2.4,0.1-4.5,1.7-6.3,3.2c-1.3,1-2.3,1.8-3.4,2.1C3.5,11.1,2.2,11,1.4,10.8z"/>
	</g>
	<g>
		
			<linearGradient id="SVGID_2_" gradientUnits="userSpaceOnUse" x1="8.8303" y1="24.975" x2="15.3695" y2="24.975" gradientTransform="matrix(1 0 0 -1 0 34)">
			<stop  offset="0" style="stop-color:#004D44"/>
			<stop  offset="0.1542" style="stop-color:#065951"/>
			<stop  offset="0.4414" style="stop-color:#177A74"/>
			<stop  offset="0.8277" style="stop-color:#33AEAD"/>
			<stop  offset="1" style="stop-color:#40C8C8"/>
		</linearGradient>
		<path class="st3" d="M11.6,3.8L8.8,14c-0.1,0.3,0.2,0.7,0.5,0.7h5.5c0.3,0,0.6-0.3,0.5-0.7L12.6,3.8C12.5,3.2,11.7,3.2,11.6,3.8z"
			/>
		<path class="st1" d="M12.1,3.4c0.2,0,0.4,0.1,0.5,0.4L15.4,14c0.1,0.3-0.2,0.7-0.5,0.7H9.4c-0.3,0-0.6-0.3-0.5-0.7l2.7-10.2
			C11.7,3.5,11.9,3.4,12.1,3.4 M12.1,3c-0.4,0-0.8,0.3-0.9,0.7L8.4,13.8c-0.1,0.3,0,0.6,0.2,0.8C8.8,14.9,9.1,15,9.4,15h5.5
			c0.3,0,0.6-0.1,0.7-0.4c0.2-0.2,0.2-0.5,0.2-0.8L13,3.7C12.9,3.2,12.5,3,12.1,3L12.1,3z"/>
	</g>
	<g>
		
			<linearGradient id="SVGID_3_" gradientUnits="userSpaceOnUse" x1="12.6928" y1="26.0375" x2="19.232" y2="26.0375" gradientTransform="matrix(1 0 0 -1 0 34)">
			<stop  offset="0" style="stop-color:#004D44"/>
			<stop  offset="0.1542" style="stop-color:#065951"/>
			<stop  offset="0.4414" style="stop-color:#177A74"/>
			<stop  offset="0.8277" style="stop-color:#33AEAD"/>
			<stop  offset="1" style="stop-color:#40C8C8"/>
		</linearGradient>
		<path class="st4" d="M15.5,2.7l-2.7,10.2c-0.1,0.3,0.2,0.7,0.5,0.7h5.5c0.3,0,0.6-0.3,0.5-0.7L16.5,2.7
			C16.3,2.2,15.6,2.2,15.5,2.7z"/>
		<path class="st1" d="M16,2.4c0.2,0,0.4,0.1,0.5,0.4L19.2,13c0.1,0.3-0.2,0.7-0.5,0.7h-5.5c-0.3,0-0.6-0.3-0.5-0.7l2.7-10.2
			C15.5,2.5,15.7,2.4,16,2.4 M16,1.9c-0.4,0-0.8,0.3-0.9,0.7l-2.7,10.2c-0.1,0.3,0,0.6,0.2,0.8s0.5,0.4,0.7,0.4h5.5
			c0.3,0,0.6-0.1,0.7-0.4c0.2-0.2,0.2-0.5,0.2-0.8L16.9,2.6C16.8,2.2,16.4,1.9,16,1.9L16,1.9z"/>
	</g>
	<g>
		
			<linearGradient id="SVGID_4_" gradientUnits="userSpaceOnUse" x1="6.4632" y1="25.825" x2="8.617" y2="25.825" gradientTransform="matrix(1 0 0 -1 0 34)">
			<stop  offset="0" style="stop-color:#004D44"/>
			<stop  offset="0.1542" style="stop-color:#065951"/>
			<stop  offset="0.4414" style="stop-color:#177A74"/>
			<stop  offset="0.8277" style="stop-color:#33AEAD"/>
			<stop  offset="1" style="stop-color:#40C8C8"/>
		</linearGradient>
		<path class="st5" d="M7.4,6.3l-1,3.7c0,0.1,0,0.2,0.1,0.2h1.9c0.1,0,0.1-0.1,0.1-0.2L7.4,6.3C7.6,6.1,7.5,6.1,7.4,6.3z"/>
		<path class="st1" d="M7.5,6.2C7.6,6.2,7.6,6.2,7.5,6.2L8.6,10c0,0.1,0,0.2-0.1,0.2H6.6c-0.1,0-0.1-0.1-0.1-0.2l1-3.7
			C7.4,6.2,7.5,6.2,7.5,6.2 M7.5,5.8C7.3,5.8,7.1,5.9,7,6.2L6,9.9c0,0.2,0,0.3,0.1,0.5c0.1,0.1,0.3,0.2,0.4,0.2h1.9
			c0.2,0,0.3-0.1,0.4-0.2C9,10.2,9.1,10,9,9.8L8,6.1C8,5.9,7.8,5.8,7.5,5.8L7.5,5.8z"/>
	</g>
	<g>
		
			<linearGradient id="SVGID_5_" gradientUnits="userSpaceOnUse" x1="24.1928" y1="25.4375" x2="26.6821" y2="25.4375" gradientTransform="matrix(1 0 0 -1 0 34)">
			<stop  offset="0" style="stop-color:#004D44"/>
			<stop  offset="0.1542" style="stop-color:#065951"/>
			<stop  offset="0.4414" style="stop-color:#177A74"/>
			<stop  offset="0.8277" style="stop-color:#33AEAD"/>
			<stop  offset="1" style="stop-color:#40C8C8"/>
		</linearGradient>
		<path class="st6" d="M25.3,6.3l-1.1,4.4c0,0.1,0,0.2,0.1,0.2h2.2c0.1,0,0.1-0.1,0.1-0.2l-1.1-4.4C25.5,6.2,25.3,6.2,25.3,6.3z"/>
		<path class="st1" d="M25.4,6.2c0.1,0,0.1,0,0.1,0.1l1.1,4.4c0,0.1,0,0.2-0.1,0.2h-2.2c-0.1,0-0.1-0.1-0.1-0.2l1.1-4.4
			C25.3,6.3,25.4,6.2,25.4,6.2 M25.4,5.8c-0.3,0-0.5,0.2-0.5,0.4l-1.1,4.4c0,0.2,0,0.3,0.1,0.5c0.1,0.1,0.3,0.2,0.4,0.2h2.2
			c0.2,0,0.3-0.1,0.4-0.2C27,11,27,10.8,27,10.6l-1-4.4C25.9,6,25.7,5.8,25.4,5.8L25.4,5.8z"/>
	</g>
	<g>
		
			<linearGradient id="SVGID_6_" gradientUnits="userSpaceOnUse" x1="25.3851" y1="24.0375" x2="27.8745" y2="24.0375" gradientTransform="matrix(1 0 0 -1 0 34)">
			<stop  offset="0" style="stop-color:#004D44"/>
			<stop  offset="0.1542" style="stop-color:#065951"/>
			<stop  offset="0.4414" style="stop-color:#177A74"/>
			<stop  offset="0.8277" style="stop-color:#33AEAD"/>
			<stop  offset="1" style="stop-color:#40C8C8"/>
		</linearGradient>
		<path class="st7" d="M26.5,7.7l-1.1,4.4c0,0.1,0,0.2,0.1,0.2h2.2c0.1,0,0.1-0.1,0.1-0.2l-1.1-4.4C26.7,7.6,26.5,7.6,26.5,7.7z"/>
		<path class="st1" d="M26.6,7.7c0.1,0,0.1,0,0.1,0.1l1.1,4.4c0,0.1,0,0.2-0.1,0.2h-2.2c-0.1,0-0.1-0.1-0.1-0.2l1.1-4.4
			C26.5,7.7,26.6,7.7,26.6,7.7 M26.6,7.2c-0.3,0-0.5,0.2-0.5,0.4L25,12c0,0.2,0,0.3,0.1,0.5c0.1,0.1,0.3,0.2,0.4,0.2h2.2
			c0.2,0,0.3-0.1,0.4-0.2c0.1-0.1,0.1-0.3,0.1-0.5l-1.1-4.4C27.1,7.4,26.9,7.2,26.6,7.2L26.6,7.2z"/>
	</g>
	<g>
		<ellipse transform="matrix(0.3821 -0.9241 0.9241 0.3821 -7.3081 13.2876)" class="st8" cx="6.3" cy="12.1" rx="0.8" ry="1.4"/>
		<path class="st1" d="M5.8,11.2c0.2,0,0.5,0.1,0.8,0.2c0.7,0.3,1.1,0.8,1,1.2C7.5,12.9,7.2,13,6.8,13c-0.2,0-0.5-0.1-0.8-0.2
			c-0.7-0.3-1.1-0.8-1-1.2C5.1,11.4,5.4,11.2,5.8,11.2 M5.8,10.8L5.8,10.8c-0.6,0-1,0.2-1.1,0.6C4.4,12,5,12.8,5.9,13.2
			c0.3,0.1,0.7,0.2,1,0.2c0.6,0,1-0.2,1.1-0.6c0.1-0.3,0.1-0.7-0.2-1.1c-0.2-0.3-0.6-0.5-1-0.7C6.4,10.9,6.1,10.8,5.8,10.8L5.8,10.8
			z"/>
	</g>
	<g>
		
			<linearGradient id="SVGID_7_" gradientUnits="userSpaceOnUse" x1="16.5399" y1="24.9375" x2="23.0791" y2="24.9375" gradientTransform="matrix(1 0 0 -1 0 34)">
			<stop  offset="0" style="stop-color:#004D44"/>
			<stop  offset="0.1542" style="stop-color:#065951"/>
			<stop  offset="0.4414" style="stop-color:#177A74"/>
			<stop  offset="0.8277" style="stop-color:#33AEAD"/>
			<stop  offset="1" style="stop-color:#40C8C8"/>
		</linearGradient>
		<path class="st9" d="M19.3,3.8L16.6,14c-0.1,0.3,0.2,0.7,0.5,0.7h5.5c0.3,0,0.6-0.3,0.5-0.7L20.3,3.8C20.2,3.3,19.4,3.3,19.3,3.8z
			"/>
		<path class="st1" d="M19.8,3.4c0.2,0,0.4,0.1,0.5,0.4L23.1,14c0.1,0.3-0.2,0.7-0.5,0.7h-5.5c-0.3,0-0.6-0.3-0.5-0.7l2.7-10.2
			C19.4,3.5,19.6,3.4,19.8,3.4 M19.8,3c-0.4,0-0.8,0.3-0.9,0.7l-2.7,10.2c-0.1,0.3,0,0.6,0.2,0.8s0.5,0.4,0.7,0.4h5.5
			c0.3,0,0.6-0.1,0.7-0.4c0.2-0.2,0.2-0.5,0.2-0.8L20.7,3.7C20.6,3.3,20.2,3,19.8,3L19.8,3z"/>
	</g>
	<g>
		
			<linearGradient id="SVGID_8_" gradientUnits="userSpaceOnUse" x1="0.2817" y1="14.15" x2="31.7887" y2="14.15" gradientTransform="matrix(1 0 0 -1 0 34)">
			<stop  offset="0" style="stop-color:#96C5E1"/>
			<stop  offset="1" style="stop-color:#4BD7D8"/>
		</linearGradient>
		<path class="st10" d="M30.3,9.5c-0.2,1.4-0.8,3.4-2.4,5.1c-2.6,2.9-5,0.6-8.1-1.5s-5.3-0.7-7.5,0.4c-5.5,2.7-7.6-0.1-8.5-1.7
			c-0.7-1.3-1.1-3.2-1.3-4C1,10.2,0.2,13,0.2,16.1c0,8.7,7.1,15.8,15.8,15.8s15.8-7.1,15.8-15.8C31.8,13.7,31.3,11.5,30.3,9.5z"/>
		<path class="st1" d="M16,32.1c-4.3,0-8.3-1.7-11.3-4.7S0,20.4,0,16.1c0-3,0.8-5.9,2.4-8.4c0-0.1,0.1-0.1,0.2-0.1
			c0.1,0,0.2,0.1,0.2,0.2c0.1,0.8,0.5,2.7,1.2,3.9c0.4,0.8,1.1,1.9,2.4,2.4c1.5,0.6,3.4,0.4,5.8-0.8c0.2-0.1,0.3-0.2,0.5-0.2
			c2.1-1,4.2-2.1,7.2-0.1c0.4,0.2,0.7,0.5,1.1,0.7c1.6,1.1,3,2.1,4.3,2.1c0.8,0,1.6-0.4,2.4-1.3c1.5-1.7,2.1-3.7,2.3-5
			c0-0.1,0.1-0.2,0.2-0.2s0.2,0,0.2,0.1c1,2.1,1.5,4.4,1.5,6.7c0,4.3-1.7,8.3-4.7,11.3C24.3,30.4,20.3,32.1,16,32.1z M2.5,8.4
			c-1.3,2.3-2,5-2,7.7c0,8.6,7,15.5,15.5,15.5s15.5-7,15.5-15.5c0-2.1-0.4-4-1.2-5.9c-0.3,1.4-0.9,3.1-2.3,4.6
			c-2.4,2.7-4.7,1.1-7.3-0.7c-0.3-0.2-0.7-0.5-1.1-0.7c-2.8-1.8-4.7-0.9-6.8,0.2c-0.2,0.1-0.3,0.2-0.5,0.2c-2.5,1.2-4.5,1.5-6.1,0.8
			C4.8,14,4,12.8,3.6,12C3.1,10.9,2.7,9.4,2.5,8.4z"/>
	</g>
	<g>
		
			<linearGradient id="SVGID_9_" gradientUnits="userSpaceOnUse" x1="0.4329" y1="12.045" x2="31.7887" y2="12.045" gradientTransform="matrix(1 0 0 -1 0 34)">
			<stop  offset="0" style="stop-color:#0D60A8"/>
			<stop  offset="0.1255" style="stop-color:#1E6DAF"/>
			<stop  offset="1" style="stop-color:#94C3E0"/>
		</linearGradient>
		<path class="st11" d="M16,31.9c8.7,0,15.8-7.1,15.8-15.8c0-1.2-0.1-2.3-0.4-3.4c-0.4,1.8-0.8,2.8-1.1,3.4c-0.4,0.7-2,3.5-4.3,3.3
			c-2.4-0.1-3-1.5-3.3-2s-1.5-1.8-3.8-1.8c-2.2,0.1-2.8-0.5-4.3-1.8s-3.2-2.2-4.8-1.6c-1.6,0.5,0.7,2.6,0.7,2.6s2.9,3.9,0.7,6
			S6.5,23.1,4,21.5c-2.6-1.7-3.4-3.3-3.4-3.3H0.5C1.5,26,8.1,31.9,16,31.9z"/>
		<path class="st1" d="M16,32.1c-3.9,0-7.6-1.4-10.5-4c-2.9-2.5-4.8-6-5.3-9.8c0-0.1,0.1-0.2,0.2-0.2h0.1c0.1,0,0.2,0,0.2,0.1
			c0,0,0.8,1.6,3.3,3.2s4.9,1.4,7-0.6c2-2-0.5-5.5-0.7-5.8c-0.2-0.2-1.5-1.4-1.3-2.3c0-0.2,0.2-0.5,0.7-0.7c1.4-0.5,3.1,0.1,5,1.7
			l0.2,0.2c1.4,1.2,1.9,1.7,4,1.6c2.6-0.1,3.8,1.7,3.9,1.9l0.1,0.1c0.4,0.6,1,1.6,3.1,1.8c2.1,0.1,3.6-2.2,4.1-3.2
			c0.4-0.7,0.7-1.7,1.1-3.3c0-0.1,0.1-0.2,0.2-0.2l0,0c0.1,0,0.2,0.1,0.2,0.2c0.2,1.1,0.4,2.3,0.4,3.4c0,4.3-1.7,8.3-4.7,11.3
			C24.3,30.4,20.3,32.1,16,32.1z M0.7,18.9C2.1,26.2,8.5,31.6,16,31.6c8.6,0,15.5-7,15.5-15.5c0-0.8-0.1-1.6-0.2-2.4
			c-0.3,1.1-0.6,1.9-0.9,2.5c-0.6,1.1-2.2,3.6-4.5,3.5s-3.1-1.4-3.4-2l-0.1-0.1c-0.1-0.2-1.2-1.7-3.6-1.7c-2.2,0.1-2.9-0.5-4.3-1.7
			L14.4,14c-1.7-1.5-3.3-2-4.6-1.6c-0.3,0.1-0.4,0.3-0.4,0.3c-0.1,0.5,0.7,1.4,1.2,1.9l0,0c0,0,0.8,1,1.2,2.3
			c0.6,1.7,0.4,3.1-0.5,4.1c-2.3,2.2-4.8,2.4-7.5,0.7C2.2,20.6,1.2,19.5,0.7,18.9z"/>
	</g>
	<g>
		<ellipse transform="matrix(0.3821 -0.9241 0.9241 0.3821 1.7788 26.2066)" class="st8" cx="20.5" cy="11.8" rx="0.5" ry="0.9"/>
		<path class="st1" d="M20.2,11.2c0.2,0,0.3,0,0.5,0.1c0.5,0.2,0.7,0.6,0.6,0.8s-0.3,0.2-0.5,0.2s-0.3,0-0.5-0.1
			c-0.5-0.2-0.7-0.6-0.6-0.8C19.8,11.3,20,11.2,20.2,11.2 M20.2,10.7L20.2,10.7c-0.4,0-0.8,0.2-0.9,0.5c-0.2,0.5,0.2,1.1,0.9,1.4
			c0.2,0.1,0.5,0.1,0.7,0.1c0.4,0,0.8-0.2,0.9-0.5c0.2-0.5-0.2-1.1-0.9-1.4C20.7,10.8,20.4,10.7,20.2,10.7L20.2,10.7z"/>
	</g>
	<g>
		<ellipse transform="matrix(0.3821 -0.9241 0.9241 0.3821 -4.4666 27.1141)" class="st8" cx="18" cy="16.9" rx="0.3" ry="0.5"/>
		<path class="st1" d="M17.8,16.5c0.1,0,0.2,0,0.3,0.1c0.3,0.1,0.4,0.3,0.4,0.5c0,0.1-0.1,0.1-0.3,0.1c-0.1,0-0.2,0-0.3-0.1
			c-0.3-0.1-0.4-0.3-0.4-0.5C17.6,16.6,17.7,16.5,17.8,16.5 M17.8,16.1L17.8,16.1c-0.3,0-0.6,0.1-0.7,0.4c-0.1,0.2,0,0.5,0.1,0.7
			c0.1,0.1,0.3,0.3,0.5,0.3c0.2,0.1,0.3,0.1,0.5,0.1c0.3,0,0.6-0.1,0.7-0.4c0.1-0.2,0-0.5-0.1-0.7c-0.1-0.1-0.3-0.3-0.5-0.3
			C18.1,16.1,18,16.1,17.8,16.1L17.8,16.1z"/>
	</g>
	<g>
		<path class="st12" d="M16,31.9c6.2,0,11.6-3.6,14.1-8.8c-0.8,0.8-2,1.6-3.5,1.5c-2.8-0.3-2.6-1.2-4.1-3c-1.6-1.8-3.5-3.1-4.7-3.1
			c-1.1,0-1.2,1.3-0.2,2c1,0.6,2.1,1.8,2.2,3.9c0.2,2.2-1.7,3.2-2.4,3.5c-0.7,0.3-2,0.9-2.9-0.3c-0.9-1.1-1.3-1.8-2.3-1.8
			s-1.8,0.8-4,1.3c-2.2,0.4-3.6-0.2-3.6-0.2L4.7,27C7.6,30,11.6,31.9,16,31.9z"/>
		<path class="st1" d="M16,32.1c-2.2,0-4.3-0.4-6.3-1.3c-1.9-0.8-3.7-2-5.1-3.6c-0.1-0.1-0.1-0.2,0-0.3l0.1-0.2
			c0.1-0.1,0.2-0.1,0.3-0.1c0,0,1.4,0.6,3.5,0.2c1.1-0.2,1.8-0.5,2.4-0.8c0.6-0.3,1.1-0.5,1.6-0.5c1,0,1.5,0.6,2.2,1.6
			c0.1,0.1,0.2,0.2,0.2,0.3c0.7,0.9,1.7,0.6,2.6,0.2c0.6-0.2,2.4-1.2,2.3-3.3c-0.1-1.7-0.8-2.9-2.1-3.8c-0.6-0.4-0.9-1.1-0.8-1.6
			c0.1-0.4,0.5-0.7,1.1-0.7c1.2,0,3.2,1.3,4.8,3.2c0.4,0.5,0.7,0.9,1,1.2c0.7,1,1.1,1.5,3,1.7c1.4,0.1,2.6-0.7,3.3-1.4
			c0.1-0.1,0.2-0.1,0.3,0c0.1,0.1,0.1,0.2,0.1,0.3c-1.3,2.6-3.3,4.9-5.8,6.4C22,31.2,19.1,32.1,16,32.1z M5.1,27.1
			c2.9,2.9,6.8,4.5,11,4.5c5.6,0,10.6-2.9,13.4-7.7c-0.9,0.6-1.8,0.9-2.8,0.8c-2.2-0.2-2.6-0.8-3.3-1.8c-0.2-0.3-0.5-0.7-0.9-1.2
			c-1.6-1.8-3.5-3-4.5-3.1c-0.3,0-0.6,0.1-0.7,0.4s0.1,0.8,0.6,1.2c1.4,0.9,2.2,2.3,2.3,4.1c0.2,2.3-1.9,3.4-2.5,3.7
			c-0.6,0.3-2.2,1-3.1-0.3c-0.1-0.1-0.2-0.2-0.2-0.3c-0.7-0.9-1-1.4-1.9-1.4c-0.5,0-0.9,0.2-1.4,0.4c-0.6,0.3-1.4,0.6-2.5,0.8
			C6.8,27.5,5.6,27.3,5.1,27.1z"/>
	</g>
	<path class="st1" d="M16,0.6c2.1,0,4.1,0.4,6,1.2c1.8,0.8,3.5,1.9,4.9,3.3s2.5,3.1,3.3,4.9c0.8,1.9,1.2,3.9,1.2,6s-0.4,4.1-1.2,6
		c-0.8,1.8-1.9,3.5-3.3,4.9s-3,2.5-4.9,3.3c-2,0.8-4,1.2-6,1.2s-4.1-0.4-6-1.2c-1.8-0.8-3.5-1.9-4.9-3.3S2.6,23.8,1.8,22
		c-0.8-1.9-1.2-3.9-1.2-6s0.4-4.1,1.2-6c0.8-1.8,1.9-3.5,3.3-4.9s3-2.5,4.9-3.3S13.9,0.6,16,0.6 M16-0.1C7.1-0.1,0,7.1,0,16
		s7.1,16.1,16,16.1S32,24.9,32,16S24.8-0.1,16-0.1L16-0.1z"/>
</g>
</svg>
