<?xml version="1.0" encoding="utf-8"?>
<!-- Generator: Adobe Illustrator 22.1.0, SVG Export Plug-In . SVG Version: 6.00 Build 0)  -->
<svg version="1.1" id="Слой_1" xmlns="http://www.w3.org/2000/svg" xmlns:xlink="http://www.w3.org/1999/xlink" x="0px" y="0px"
	 width="32px" height="32px" viewBox="0 0 32 32" style="enable-background:new 0 0 32 32;" xml:space="preserve">
<title>color/xrp</title>
<desc>Created with Sketch.</desc>
<g>
	
		<radialGradient id="SVGID_1_" cx="16.6894" cy="758.0045" r="11.5752" gradientTransform="matrix(1 0 0 1 0 -734)" gradientUnits="userSpaceOnUse">
		<stop  offset="0" style="stop-color:#EDEDED"/>
		<stop  offset="1" style="stop-color:#ABABAB"/>
	</radialGradient>
	<path style="fill:url(#SVGID_1_);" d="M21.2,27c2.9,0.6,5.8,1.1,8.8,1.7c0.5,0.1,1.1,0.2,1.6,0.3c0.2,0,0.5,0.1,0.4,0.4
		c0,0.3-0.2,0.3-0.5,0.3c-0.1,0-0.3,0-0.4,0c-4.1,0-28.4,0.1-29.4,0c-0.1,0-0.3,0.1-0.4-0.1c-0.1-0.1,0.1-0.3,0.2-0.4
		c1.1-1.3,2.1-2.6,3.2-3.9c1.4-1.7,2.9-3.5,4.3-5.2c0.5-0.6,1-1.2,1.5-1.8c0.2-0.2,0.3-0.3,0.6-0.2c0.3,0.1,0.3,0.4,0.2,0.6
		c-0.4,1.2-0.8,2.5-1.2,3.7c-0.1,0.3-0.2,0.7-0.4,1c-0.2,0.7,0,1,0.7,1.2c1.9,0.4,3.8,0.8,5.7,1.2C16.4,26,20,26.7,21.2,27z"/>
	
		<linearGradient id="SVGID_2_" gradientUnits="userSpaceOnUse" x1="-1.547009e-02" y1="750.2045" x2="20" y2="750.2045" gradientTransform="matrix(1 0 0 1 0 -734)">
		<stop  offset="0" style="stop-color:#55C4DF"/>
		<stop  offset="1" style="stop-color:#2F7BBE"/>
	</linearGradient>
	<path style="fill:url(#SVGID_2_);" d="M20,16.5c0,0.2-0.1,0.4-0.3,0.5c-0.2,0.1-0.4,0-0.5-0.1c-0.4-0.4-0.7-0.8-1.1-1.2
		c-0.8-0.9-1.6-1.8-2.5-2.7c-0.5-0.5-0.7-0.5-1.1,0c-1,1.1-1.9,2.2-2.9,3.4C10,18.3,8.4,20.1,6.8,22C4.9,24.3,3,26.6,1,28.9
		c-0.1,0.1-0.2,0.2-0.3,0.3c-0.2,0.2-0.4,0.3-0.6,0.1c-0.2-0.2-0.1-0.4,0-0.6c0.8-1.4,1.6-2.8,2.4-4.2c1.3-2.2,2.5-4.4,3.8-6.6
		c1.8-3,3.5-6.1,5.3-9.1c1.1-1.8,2.1-3.7,3.2-5.5c0-0.1,0.1-0.3,0.3-0.3s0.2,0.2,0.2,0.4c1.4,3.8,2.7,7.6,4.1,11.4
		C19.6,15.4,19.8,16,20,16.5z"/>
	
		<linearGradient id="SVGID_3_" gradientUnits="userSpaceOnUse" x1="23.8125" y1="762.2375" x2="23.8125" y2="736.1862" gradientTransform="matrix(1 0 0 1 0 -734)">
		<stop  offset="0" style="stop-color:#55C4DF"/>
		<stop  offset="1" style="stop-color:#2F7BBE"/>
	</linearGradient>
	<path style="fill:url(#SVGID_3_);" d="M31.1,28.2c-1.4-0.3-2.8-0.6-4.2-0.8c-3-0.6-6-1.2-8.9-1.8c-0.3-0.1-0.8,0-0.8-0.5
		s0.5-0.5,0.8-0.6c1.4-0.4,2.8-0.8,4.3-1.1c0.7-0.2,0.8-0.4,0.6-1.1c-1.3-3.8-2.7-7.6-4-11.3C18,8.3,17,5.7,16.1,3
		c-0.1-0.2-0.1-0.4,0-0.6c0.2-0.3,0.5-0.3,0.7,0.1c0.8,1.3,1.5,2.7,2.3,4c2,3.4,3.9,6.8,5.9,10.1c2.1,3.7,4.3,7.4,6.4,11
		c0.1,0.1,0.1,0.2,0.2,0.3C31.4,28.2,31.3,28.3,31.1,28.2z"/>
</g>
</svg>
