<?xml version="1.0" encoding="utf-8"?>
<!-- Generator: Adobe Illustrator 22.1.0, SVG Export Plug-In . SVG Version: 6.00 Build 0)  -->
<svg version="1.1" id="Слой_1" xmlns="http://www.w3.org/2000/svg" xmlns:xlink="http://www.w3.org/1999/xlink" x="0px" y="0px"
	 width="32px" height="32px" viewBox="0 0 32 32" style="enable-background:new 0 0 32 32;" xml:space="preserve">
<linearGradient id="SVGID_1_" gradientUnits="userSpaceOnUse" x1="16" y1="2" x2="16" y2="34" gradientTransform="matrix(1 0 0 -1 0 34)">
	<stop  offset="0" style="stop-color:#7F46DD"/>
	<stop  offset="1" style="stop-color:#CEA0FB"/>
</linearGradient>
<circle style="fill:url(#SVGID_1_);" cx="16" cy="16" r="16"/>
<g>
	<polygon style="fill:#FFFFFF;" points="16,16 16,16 16,16 16,16 	"/>
	<g>
		<path style="fill:#FFFFFF;" d="M16,16L16,16L16,16L16,16L16,16L16,16L16,16L16,16L16,16L16,16L16,16L16,16L16,16L16,16L16,16
			L16,16L16,16L16,16L16,16L16,16L16,16L16,16L16,16L16,16L16,16L16,16z M16,16L16,16L16,16L16,16L16,16L16,16z M16,16L16,16L16,16
			L16,16L16,16z M16,16L16,16L16,16L16,16L16,16z"/>
		<path style="fill:#FFFFFF;" d="M16,16L16,16L16,16L16,16L16,16 M16,16L16,16L16,16L16,16L16,16L16,16L16,16L16,16L16,16L16,16z"/>
	</g>
</g>
<path style="fill:#FFFFFF;" d="M22.5,9.5c0,0-9.9,0-10.2,0C10.1,10.2,9.8,12,9.8,12v7c0,0-1.6,0.2-1.6,1.7s1.2,1.8,1.2,1.8
	s9.7,0.1,9.9,0c2.5-0.3,2.8-2.7,2.8-2.7V13c0,0,1.7-0.2,1.7-1.7S22.5,9.5,22.5,9.5z M20.1,12.5c0,0.5,0,7,0,7s-0.4,1.1-1,1.1
	s-7.6,0-7.6,0s0.4-0.4,0.4-1s0-6.8,0-6.8s0-0.8,0.9-1h7.7C20.5,11.6,20.1,11.9,20.1,12.5z"/>
<path style="fill:#FFFFFF;" d="M16,3.7c6.8,0,12.3,5.5,12.3,12.3S22.8,28.3,16,28.3S3.7,22.8,3.7,16S9.2,3.7,16,3.7 M16,2
	C8.3,2,2,8.3,2,16s6.3,14,14,14s14-6.3,14-14S23.7,2,16,2L16,2z"/>
</svg>
