<?xml version="1.0" encoding="utf-8"?>
<!-- Generator: Adobe Illustrator 22.1.0, SVG Export Plug-In . SVG Version: 6.00 Build 0)  -->
<svg version="1.1" id="Слой_1" xmlns="http://www.w3.org/2000/svg" xmlns:xlink="http://www.w3.org/1999/xlink" x="0px" y="0px"
	 width="32px" height="32px" viewBox="0 0 32 32" style="enable-background:new 0 0 32 32;" xml:space="preserve">
<g>
	<g>
		<g>
			<path d="M15.3,9.2c8.9,0,16.1,7.2,16.1,16c0,1-0.1,2.1-0.3,3.1c0.6-1.7,1-3.5,1-5.4c0-8.6-7-15.6-15.6-15.6
				c-5.6,0-10.5,2.9-13.2,7.3C6.2,11.3,10.5,9.2,15.3,9.2z"/>
		</g>
	</g>
	<g>
		
			<radialGradient id="SVGID_1_" cx="15.125" cy="26.8204" r="13.0557" gradientTransform="matrix(1 0 0 -1 0 34)" gradientUnits="userSpaceOnUse">
			<stop  offset="0" style="stop-color:#00729F"/>
			<stop  offset="1" style="stop-color:#003B5A"/>
		</radialGradient>
		<path style="fill:url(#SVGID_1_);" d="M19.4,20.5c0,1.3-0.2,2.6-0.5,3.8c2.1-2.2,3.4-5.2,3.4-8.5C22.3,9,16.8,3.5,10,3.5
			c-4.1,0-7.8,2-10,5.1c1.8-0.9,3.9-1.5,6.1-1.5C13.4,7.2,19.4,13.1,19.4,20.5z"/>
	</g>
	<g>
		
			<radialGradient id="SVGID_2_" cx="24.3284" cy="26.0833" r="12.6144" gradientTransform="matrix(1 0 0 -1 0 34)" gradientUnits="userSpaceOnUse">
			<stop  offset="0" style="stop-color:#00729F"/>
			<stop  offset="1" style="stop-color:#003B5A"/>
		</radialGradient>
		<path style="fill:url(#SVGID_2_);" d="M29.9,16c0-7.9-6.4-14.3-14.3-14.3c-0.8,0-1.6,0.1-2.4,0.2C19.5,3.9,24,9.7,24,16.6
			c0,5.9-3.3,11.1-8.2,13.7C23.6,30.2,29.9,23.8,29.9,16z"/>
	</g>
</g>
</svg>
