<?xml version="1.0" encoding="utf-8"?>
<!-- Generator: Adobe Illustrator 22.1.0, SVG Export Plug-In . SVG Version: 6.00 Build 0)  -->
<svg version="1.1" id="Слой_1" xmlns="http://www.w3.org/2000/svg" xmlns:xlink="http://www.w3.org/1999/xlink" x="0px" y="0px"
	 width="32px" height="32px" viewBox="0 0 32 32" style="enable-background:new 0 0 32 32;" xml:space="preserve">
<g>
	<path d="M20.6,17.3c-0.1,0.4-0.3,0.8-0.4,1.2c-1,2.9-2,5.8-3.1,8.7c-0.3,0.9-0.6,1.8-1,2.7c0,0.1-0.1,0.1-0.2,0.2
		c-0.1-0.1-0.1-0.1-0.2-0.2c-0.6-1.8-1.3-3.5-1.9-5.3c-0.6-1.7-1.2-3.4-1.8-5.1c-0.3-0.7-0.5-1.4-0.8-2.2c-0.1,0-0.1,0.1-0.2,0.1
		c-2.8,1.9-5.6,3.9-8.4,5.8c-0.6,0.4-1.3,0.9-1.9,1.3c-0.3,0.2-0.5,0.2-0.7,0.1c0-0.1,0-0.3,0.1-0.7c0.8-2.5,1.6-4.9,2.4-7.4
		c0.7-2,1.3-4.1,2-6.1c0.1-0.2,0.2-0.3,0.3-0.4c2.7-2.1,5.4-4.2,8.2-6.2c0.9-0.7,1.8-1.4,2.8-2.1c0.3-0.2,0.4-0.2,0.7,0
		c2.5,1.9,4.9,3.7,7.4,5.6c1.2,0.9,2.4,1.8,3.6,2.7c0.1,0.1,0.3,0.3,0.3,0.4c1,3.1,2,6.3,3,9.4c0.4,1.4,0.9,2.7,1.3,4.1
		c0.1,0.3,0.1,0.5-0.1,0.7c-0.2,0.2-0.4,0.1-0.7,0c-2-1.4-4-2.8-6-4.2c-1.5-1-2.9-2-4.4-3C20.7,17.4,20.7,17.3,20.6,17.3z
		 M28.8,20.6c0-0.1-0.1-0.2-0.1-0.3c-0.9-2.7-1.7-5.3-2.6-8c-0.2-0.6-0.4-1.2-1-1.5l0,0c-2.5-1.9-4.9-3.8-7.4-5.7
		C17.7,5,17.6,5,17.5,5c0,0.1,0,0.1,0,0.1c0.9,2.5,1.8,5,2.6,7.5c0.3,0.8,0.6,1.6,0.8,2.4c0.1,0.2,0.1,0.3,0.3,0.4
		c1.7,1.2,3.4,2.4,5.2,3.6C27.2,19.4,28,20,28.8,20.6z M14.5,5c-0.1,0-0.1,0-0.2,0.1c-2.6,2-5.2,4-7.8,5.9c-0.3,0.2-0.4,0.4-0.6,0.7
		C5,14.6,4,17.5,3.1,20.4v0.1c0.1-0.1,0.2-0.1,0.2-0.2c2.4-1.7,4.8-3.4,7.3-5c0.2-0.1,0.3-0.3,0.3-0.5c1-2.9,2-5.7,3-8.6
		C14.2,5.9,14.3,5.4,14.5,5z M19.1,14.9c-1-2.8-2-5.6-3-8.4l0,0c-1,2.8-2,5.6-3,8.4C15,14.9,17,14.9,19.1,14.9z M13,16.8
		c1,2.7,2,5.3,3,8c1-2.7,2-5.4,3-8C17,16.8,15,16.8,13,16.8z"/>
</g>
</svg>
