<?xml version="1.0" encoding="utf-8"?>
<!-- Generator: Adobe Illustrator 21.1.0, SVG Export Plug-In . SVG Version: 6.00 Build 0)  -->
<svg version="1.1" id="Слой_1" xmlns="http://www.w3.org/2000/svg" xmlns:xlink="http://www.w3.org/1999/xlink" x="0px" y="0px"
	 viewBox="0 0 32 32" style="enable-background:new 0 0 32 32;" xml:space="preserve">
<style type="text/css">
	.st0{fill:#9933CC;}
</style>
<g>
	<path class="st0" d="M26.6,5.8c-4.6,0-9,0-13.5,0c0.6,1,1.1,1.9,1.7,2.9c-0.3,0-0.6,0-0.9,0c-0.8,0-1.6,0-2.4,0
		c-0.2,0-0.4-0.1-0.5-0.2C9.8,6.6,8.7,4.7,7.6,2.8c0,0,0-0.1,0-0.1c8.1,0,16.2,0,24.4,0c-0.1,0.1-0.1,0.3-0.2,0.4
		c-1.6,2.7-3.1,5.4-4.7,8.1c-0.2,0.4-0.2,0.6,0.2,0.8c1.4,0.8,2.8,1.6,4.2,2.4c0.2,0.1,0.3,0.2,0.5,0.3c-0.5,0.9-1,1.8-1.6,2.7
		c-0.2-0.1-0.3-0.2-0.4-0.2c-1.5-0.8-2.9-1.7-4.4-2.5c-0.3-0.2-0.5-0.1-0.7,0.2c-0.5,0.9-0.5,0.9,0.3,1.4c1.3,0.8,2.6,1.6,3.9,2.4
		c0.1,0.1,0.2,0.1,0.4,0.2c-0.5,0.9-1,1.8-1.6,2.7c-1-0.6-1.9-1.1-2.8-1.7c-0.6-0.3-1.1-0.7-1.7-1c-0.8-0.4-0.6-0.4-1,0.3
		c-2.1,3.6-4.1,7.1-6.2,10.7c-0.1,0.1-0.2,0.2-0.3,0.4c-0.5-0.8-0.9-1.6-1.4-2.4c-1.7-3-3.5-6-5.2-9c-0.2-0.3-0.4-0.4-0.7-0.2
		c-1.5,0.9-3.1,1.9-4.7,2.8c-0.5-0.9-1-1.8-1.6-2.7c0.7-0.4,1.3-0.8,1.9-1.2c0.9-0.6,1.9-1.2,2.8-1.7c0.3-0.2,0.4-0.4,0.2-0.7
		C7.1,15,7,14.8,6.8,14.4c-1.7,1-3.5,2-5.2,3c-0.5-0.9-1-1.7-1.4-2.5c-0.2-0.3,0.1-0.3,0.2-0.4c1.2-0.7,2.5-1.4,3.7-2.1
		c0.3-0.1,0.5-0.3,0.8-0.4c0.3-0.2,0.3-0.3,0.2-0.6c-1.1-2-2.3-3.9-3.4-5.9C1.1,4.5,0.6,3.6,0,2.6c0.2,0,0.3,0,0.4,0
		c0.9,0,1.8,0,2.7,0c0.3,0,0.5,0.1,0.7,0.4c2.6,4.5,5.2,9,7.8,13.5c1.3,2.3,2.7,4.6,4,6.9c0.1,0.2,0.2,0.3,0.4,0.6
		C19.6,17.9,23,11.9,26.6,5.8z"/>
</g>
</svg>
