<?xml version="1.0" encoding="utf-8"?>
<!-- Generator: Adobe Illustrator 22.1.0, SVG Export Plug-In . SVG Version: 6.00 Build 0)  -->
<svg version="1.1" id="Слой_1" xmlns="http://www.w3.org/2000/svg" xmlns:xlink="http://www.w3.org/1999/xlink" x="0px" y="0px"
	 width="32px" height="32px" viewBox="0 0 32 32" style="enable-background:new 0 0 32 32;" xml:space="preserve">
<g>
	<circle style="fill:#FEFEFE;" cx="16" cy="16" r="16"/>
	<g>
		<g>
			<path style="fill:#A5783D;" d="M19.9,14.5c0-0.1,0-0.2,0-0.3l2.8,0.5l0.8-0.7l-0.8-0.7L20,13.6c0-0.1,0-0.2,0-0.4l2.6-0.4
				l-0.3-0.3l-2.4,0.2c-0.1-0.3-0.2-0.5-0.3-0.8l1.8-1.5V10l-2,1.5c-0.1-0.1-0.2-0.2-0.2-0.3l2.3-1.6V8.5h-1.1l-1.6,2.3
				c-0.1-0.1-0.2-0.2-0.3-0.2l1.5-2h-0.4l-1.5,1.8c-0.2-0.1-0.5-0.2-0.7-0.3l0.2-2.3L17,7.5l-0.4,2.4c-0.1,0-0.2,0-0.4,0l0.5-2.7
				L16,6.5l-0.7,0.8l0.5,2.6c-0.1,0-0.2,0-0.4,0l-0.3-2.3l-0.3,0.3l0.2,2.2c-0.3,0.1-0.5,0.2-0.8,0.3l-1.5-1.8h-0.4l1.5,2
				c-0.1,0.1-0.2,0.1-0.3,0.2l-1.6-2.3h-1.1v1.1l2.3,1.6c-0.1,0.1-0.2,0.2-0.2,0.3l-2-1.5v0.4l1.7,1.5c-0.2,0.3-0.3,0.6-0.4,0.9
				l-2.3-0.2l-0.3,0.3l2.5,0.4c0,0.1,0,0.2,0,0.4l-2.7-0.5l-0.8,0.7l0.8,0.7l2.7-0.5c0,0.1,0,0.2,0,0.3c1.3-0.3,2.7-0.4,4.1-0.4
				C17.5,14.1,18.7,14.2,19.9,14.5z"/>
		</g>
	</g>
	<g>
		<g>
			<path style="fill:#253B7B;" d="M16.1,28.4c4.5,0,8.4-2.4,10.6-6c-2.6-2.3-6.4-3.7-10.6-3.7s-8,1.4-10.6,3.7
				C7.7,26,11.6,28.4,16.1,28.4z"/>
		</g>
	</g>
	<path style="fill:#253B7B;" d="M4,18.4l-0.4-0.6c3.7-2.6,8-4,12.6-4c4.5,0,8.8,1.3,12.4,3.9l-0.4,0.6c-3.5-2.4-7.6-3.7-11.9-3.7
		C11.8,14.5,7.6,15.9,4,18.4z"/>
	<path style="fill:#253B7B;" d="M4.3,19.6L3.8,19c3.6-2.6,7.8-4.1,12.3-4.1c4.4,0,8.7,1.4,12.2,4l-0.5,0.6
		c-3.4-2.5-7.5-3.8-11.7-3.8C11.8,15.7,7.7,17.1,4.3,19.6z"/>
	<path style="fill:#253B7B;" d="M4.6,20.8l-0.5-0.6c3.5-2.6,7.6-4,11.9-4s8.5,1.4,11.9,4l-0.5,0.6c-3.3-2.5-7.3-3.8-11.5-3.8
		C11.9,17,7.9,18.3,4.6,20.8z"/>
	<path style="fill:#253B7B;" d="M5.1,22l-0.5-0.6c3.3-2.5,7.3-3.8,11.5-3.8s8.1,1.3,11.5,3.8L27.1,22c-3.2-2.4-7-3.7-11-3.7
		S8.3,19.5,5.1,22z"/>
	<path style="fill:#253B7B;" d="M16,5.2c5.9,0,10.8,4.8,10.8,10.8S21.9,26.8,16,26.8S5.2,21.9,5.2,16S10.1,5.2,16,5.2 M16,0
		C7.2,0,0,7.2,0,16s7.2,16,16,16s16-7.2,16-16S24.8,0,16,0L16,0z"/>
	<path style="fill:#A5783D;" d="M16,4.3c6.4,0,11.7,5.2,11.7,11.7S22.5,27.7,16,27.7S4.3,22.5,4.3,16S9.6,4.3,16,4.3 M16,1.4
		C8,1.4,1.4,8,1.4,16S8,30.6,16,30.6S30.6,24.1,30.6,16S24.1,1.4,16,1.4L16,1.4z"/>
	<path style="fill:#253B7B;" d="M16.1,3.9c6.7,0,12.1,5.4,12.1,12.1s-5.4,12.1-12.1,12.1S3.9,22.7,3.9,16S9.4,3.9,16.1,3.9
		 M16.1,3.6C9.2,3.6,3.7,9.2,3.7,16s5.5,12.4,12.4,12.4S28.5,22.8,28.5,16S22.9,3.6,16.1,3.6L16.1,3.6z"/>
	<g>
		<polygon style="fill:#FFFFFF;" points="9.9,27.4 10.1,27.8 10.5,27.7 10.2,28 10.4,28.3 10,28.2 9.7,28.4 9.8,28.1 9.5,27.9 
			9.8,27.8 		"/>
		<polygon style="fill:#FFFFFF;" points="8.8,26.7 8.9,27.1 9.3,27.1 9,27.3 9.2,27.7 8.8,27.5 8.5,27.7 8.6,27.4 8.3,27.1 
			8.7,27.1 		"/>
		<polygon style="fill:#FFFFFF;" points="7.7,25.9 7.8,26.3 8.2,26.3 7.9,26.5 8,26.9 7.7,26.7 7.4,26.9 7.5,26.5 7.2,26.3 
			7.6,26.3 		"/>
		<polygon style="fill:#FFFFFF;" points="6.7,25 6.8,25.4 7.2,25.5 6.9,25.7 6.9,26 6.6,25.8 6.3,26 6.4,25.6 6.2,25.3 6.6,25.4 		
			"/>
		<polygon style="fill:#FFFFFF;" points="5.8,24 5.9,24.3 6.2,24.5 5.9,24.6 5.9,25 5.6,24.7 5.3,24.9 5.5,24.5 5.2,24.2 5.6,24.3 
					"/>
		<polygon style="fill:#FFFFFF;" points="5.1,22.9 5.1,23.3 5.4,23.5 5.1,23.6 5,24 4.8,23.7 4.4,23.7 4.7,23.4 4.5,23.1 4.8,23.2 
					"/>
		<polygon style="fill:#FFFFFF;" points="4.4,21.7 4.3,22.1 4.7,22.3 4.3,22.3 4.2,22.7 4,22.4 3.7,22.4 3.9,22.2 3.7,21.8 4.1,22 
					"/>
		<polygon style="fill:#FFFFFF;" points="3.9,20.5 3.8,20.9 4.1,21.1 3.7,21.1 3.6,21.5 3.5,21.1 3.1,21.2 3.4,20.9 3.2,20.5 
			3.6,20.7 		"/>
		<polygon style="fill:#FFFFFF;" points="3.5,19.2 3.4,19.5 3.7,19.8 3.3,19.8 3.1,20.2 3,19.8 2.6,19.8 2.9,19.5 2.8,19.2 
			3.2,19.4 		"/>
		<polygon style="fill:#FFFFFF;" points="3.2,17.8 3,18.2 3.3,18.5 2.9,18.4 2.7,18.8 2.7,18.4 2.3,18.3 2.6,18.1 2.6,17.7 2.9,18 
					"/>
		<polygon style="fill:#FFFFFF;" points="3.1,16.6 2.9,16.9 3.1,17.2 2.8,17.1 2.5,17.4 2.5,17 2.1,16.9 2.5,16.8 2.5,16.4 
			2.7,16.7 		"/>
		<polygon style="fill:#FFFFFF;" points="2.5,15 2.8,15.3 3.1,15.2 2.9,15.5 3.1,15.8 2.7,15.7 2.5,16 2.5,15.6 2.1,15.5 2.5,15.3 
					"/>
		<polygon style="fill:#FFFFFF;" points="2.7,13.5 2.9,13.9 3.3,13.8 3,14.1 3.2,14.5 2.8,14.3 2.5,14.5 2.6,14.2 2.3,14 2.6,13.9 
					"/>
		<polygon style="fill:#FFFFFF;" points="3.1,12.1 3.2,12.5 3.6,12.5 3.3,12.7 3.4,13.1 3.1,12.9 2.8,13.1 2.9,12.7 2.6,12.5 
			2.9,12.5 		"/>
		<polygon style="fill:#FFFFFF;" points="3.5,10.7 3.6,11.1 4,11.1 3.7,11.3 3.8,11.7 3.5,11.5 3.2,11.7 3.3,11.3 3,11.1 3.4,11.1 
					"/>
		<polygon style="fill:#FFFFFF;" points="4.1,9.5 4.2,9.9 4.6,9.9 4.3,10.1 4.3,10.5 4,10.2 3.7,10.4 3.8,10.1 3.6,9.8 4,9.8 		"/>
		<polygon style="fill:#FFFFFF;" points="4.9,8.2 4.9,8.6 5.3,8.8 5,8.9 5,9.3 4.7,9 4.3,9.1 4.5,8.8 4.3,8.5 4.7,8.6 		"/>
		<polygon style="fill:#FFFFFF;" points="5.9,7 5.8,7.4 6.2,7.6 5.8,7.7 5.8,8.1 5.6,7.8 5.2,7.9 5.4,7.5 5.2,7.2 5.6,7.3 		"/>
		<polygon style="fill:#FFFFFF;" points="6.9,5.9 6.8,6.3 7.2,6.5 6.8,6.6 6.7,7 6.5,6.6 6.1,6.7 6.4,6.4 6.2,6 6.6,6.2 		"/>
		<polygon style="fill:#FFFFFF;" points="8,5.1 7.9,5.5 8.2,5.7 7.8,5.8 7.7,6.1 7.6,5.8 7.2,5.8 7.5,5.5 7.3,5.2 7.7,5.4 		"/>
		<polygon style="fill:#FFFFFF;" points="9.2,4.3 9,4.7 9.3,4.9 8.9,4.9 8.8,5.3 8.7,4.9 8.3,4.9 8.6,4.7 8.5,4.3 8.8,4.5 		"/>
		<polygon style="fill:#FFFFFF;" points="9.9,3.5 10.1,3.8 10.5,3.7 10.3,4 10.6,4.3 10.2,4.2 10,4.6 9.9,4.2 9.5,4.1 9.9,3.9 		"/>
		<polygon style="fill:#FFFFFF;" points="11.2,3 11.4,3.3 11.8,3.1 11.6,3.5 11.8,3.8 11.4,3.7 11.2,4 11.2,3.6 10.8,3.5 11.2,3.4 
					"/>
		<polygon style="fill:#FFFFFF;" points="12.6,2.5 12.8,2.8 13.2,2.7 12.9,3.1 13.1,3.4 12.8,3.3 12.5,3.6 12.5,3.2 12.2,3 
			12.5,2.9 		"/>
		<polygon style="fill:#FFFFFF;" points="14,2.2 14.2,2.6 14.6,2.5 14.3,2.8 14.5,3.2 14.1,3 13.8,3.3 13.9,2.9 13.5,2.7 13.9,2.6 
					"/>
		<polygon style="fill:#FFFFFF;" points="15.5,2.1 15.6,2.5 16,2.5 15.7,2.7 15.8,3.1 15.5,2.9 15.2,3.1 15.3,2.8 15,2.5 15.4,2.5 
					"/>
		<polygon style="fill:#FFFFFF;" points="17,2.1 17.1,2.5 17.4,2.5 17.1,2.8 17.2,3.1 16.9,2.9 16.5,3.1 16.7,2.7 16.4,2.4 
			16.8,2.5 		"/>
		<polygon style="fill:#FFFFFF;" points="18.4,2.2 18.5,2.6 18.8,2.7 18.5,2.9 18.5,3.3 18.3,3 17.9,3.2 18.1,2.8 17.8,2.5 
			18.2,2.6 		"/>
		<polygon style="fill:#FFFFFF;" points="19.8,2.6 19.8,3 20.2,3.1 19.8,3.3 19.8,3.6 19.6,3.4 19.2,3.5 19.4,3.1 19.2,2.8 
			19.6,2.9 		"/>
		<polygon style="fill:#FFFFFF;" points="21.1,3 21.1,3.4 21.5,3.5 21.2,3.7 21.1,4 20.9,3.7 20.5,3.9 20.7,3.5 20.5,3.2 20.9,3.3 
					"/>
		<polygon style="fill:#FFFFFF;" points="22.5,3.6 22.5,4 22.8,4.2 22.4,4.3 22.4,4.7 22.2,4.3 21.8,4.4 22.1,4.1 21.9,3.8 
			22.2,3.9 		"/>
		<polygon style="fill:#FFFFFF;" points="23.9,4.5 23.8,4.9 24.1,5.1 23.8,5.1 23.6,5.5 23.5,5.1 23.1,5.2 23.4,4.9 23.3,4.5 
			23.6,4.7 		"/>
		<polygon style="fill:#FFFFFF;" points="25.1,5.4 25,5.8 25.3,6 24.9,6 24.7,6.4 24.6,6 24.2,6 24.6,5.8 24.5,5.4 24.8,5.6 		"/>
		<polygon style="fill:#FFFFFF;" points="26.1,6.4 25.9,6.7 26.2,7 25.8,7 25.6,7.3 25.6,6.9 25.2,6.8 25.5,6.7 25.5,6.3 25.8,6.5 
					"/>
		<polygon style="fill:#FFFFFF;" points="27.1,7.5 26.9,7.8 27.1,8.1 26.7,8 26.5,8.4 26.5,8 26.1,7.8 26.5,7.7 26.5,7.3 26.7,7.6 
					"/>
		<polygon style="fill:#FFFFFF;" points="27.9,8.7 27.7,9 27.9,9.3 27.5,9.2 27.2,9.5 27.2,9.1 26.9,8.9 27.3,8.8 27.3,8.4 
			27.5,8.8 		"/>
		<polygon style="fill:#FFFFFF;" points="28.6,9.9 28.3,10.2 28.5,10.6 28.2,10.4 27.9,10.7 27.9,10.3 27.6,10.1 28,10 28.1,9.6 
			28.2,10 		"/>
		<polygon style="fill:#FFFFFF;" points="28.6,10.9 28.8,11.3 29.2,11.3 28.8,11.5 28.9,11.9 28.6,11.7 28.3,11.9 28.4,11.5 
			28.1,11.3 28.5,11.3 		"/>
		<polygon style="fill:#FFFFFF;" points="29.1,12.3 29.2,12.6 29.6,12.7 29.3,12.9 29.4,13.3 29.1,13 28.7,13.2 28.8,12.9 
			28.6,12.6 28.9,12.6 		"/>
		<polygon style="fill:#FFFFFF;" points="29.4,13.6 29.5,14 29.9,14.1 29.5,14.3 29.5,14.6 29.3,14.4 28.9,14.5 29.1,14.2 
			28.8,13.9 29.2,13.9 		"/>
		<polygon style="fill:#FFFFFF;" points="30,15.5 29.6,15.6 29.6,16 29.4,15.7 29,15.9 29.2,15.5 29,15.2 29.4,15.3 29.6,15 
			29.6,15.4 		"/>
		<polygon style="fill:#FFFFFF;" points="29.6,16.4 29.6,16.8 29.9,17 29.6,17.1 29.5,17.4 29.3,17.1 28.9,17.2 29.2,16.9 29,16.6 
			29.3,16.7 		"/>
		<polygon style="fill:#FFFFFF;" points="29.5,17.8 29.4,18.2 29.8,18.4 29.4,18.4 29.3,18.8 29.1,18.5 28.7,18.5 29,18.2 
			28.8,17.9 29.2,18 		"/>
		<polygon style="fill:#FFFFFF;" points="29.2,19.2 29.1,19.6 29.4,19.8 29.1,19.9 28.9,20.3 28.8,19.9 28.4,19.9 28.7,19.6 
			28.6,19.3 28.9,19.5 		"/>
		<polygon style="fill:#FFFFFF;" points="28.8,20.5 28.7,20.9 29,21.2 28.6,21.1 28.4,21.5 28.3,21.1 27.9,21.1 28.3,20.9 
			28.2,20.5 28.5,20.7 		"/>
		<polygon style="fill:#FFFFFF;" points="28.3,21.8 28.2,22.2 28.4,22.5 28,22.4 27.8,22.7 27.8,22.4 27.4,22.3 27.7,22.1 
			27.7,21.7 28,22 		"/>
		<polygon style="fill:#FFFFFF;" points="27.6,23.1 27.4,23.4 27.6,23.7 27.3,23.7 27,24 27,23.6 26.6,23.5 27,23.3 27,22.9 
			27.2,23.2 		"/>
		<polygon style="fill:#FFFFFF;" points="26.8,24.2 26.6,24.5 26.8,24.9 26.4,24.7 26.2,25 26.2,24.6 25.8,24.5 26.2,24.4 26.2,24 
			26.5,24.3 		"/>
		<polygon style="fill:#FFFFFF;" points="25.4,24.9 25.6,25.2 26,25.2 25.7,25.5 25.9,25.8 25.6,25.7 25.3,25.9 25.3,25.6 25,25.4 
			25.3,25.3 		"/>
		<polygon style="fill:#FFFFFF;" points="24.4,25.9 24.6,26.2 25,26.2 24.7,26.5 24.8,26.9 24.4,26.6 24.1,26.9 24.2,26.5 
			23.9,26.3 24.3,26.2 		"/>
		<polygon style="fill:#FFFFFF;" points="23.3,26.7 23.4,27.1 23.8,27.1 23.5,27.4 23.6,27.7 23.3,27.5 22.9,27.7 23,27.4 
			22.7,27.1 23.1,27.1 		"/>
		<polygon style="fill:#FFFFFF;" points="22.2,27.4 22.2,27.8 22.6,27.9 22.3,28.1 22.3,28.4 22,28.2 21.7,28.3 21.8,28 21.6,27.7 
			22,27.7 		"/>
	</g>
	<path style="fill:#FFFFFF;" d="M10.9,22.1c0,0,0.3,2.5,2,3.6c0.1,0,0.3-0.2,0.4-0.4c0-0.2,0.1-0.7,0.6-0.6s0.5,0.3,0.5,0.3
		s-0.6-0.2-0.6,0.1s-0.2,0.6,0.4,0.8c0.6,0.2,0.7-0.6,0.7-0.8s0.5-0.5,1-0.2c0,0.1-0.5-0.1-0.6,0.2c0,0.3,0.1,0.8,0.6,0.7
		c0.5-0.1,0.6-0.4,0.6-0.7c0-0.3,0.3-0.5,0.6-0.5s0.3,0.1,0.4,0.3c0.1,0.2-0.2-0.2-0.4,0c-0.2,0.2-0.1,0.8,0.3,0.9
		c0.5,0.1,0.6-0.2,0.7-0.3c0-0.2,0-0.7,0.4-0.8c0.4-0.1,0.6,0.2,0.6,0.3c0.1,0.1-0.5-0.2-0.5,0s0,0.6,0.3,0.7s1.3-0.2,2.3-3.4
		c0-0.4-2.4-1.8-4.7-1.8C14.1,20.6,12.2,21,10.9,22.1z"/>
	<g>
		<g>
			<polygon style="fill:#A5783D;" points="13.1,22.1 13.3,22.8 14,22.8 13.5,23.3 13.7,23.9 13.1,23.5 12.5,23.9 12.7,23.3 
				12.1,22.8 12.8,22.8 			"/>
		</g>
		<g>
			<polygon style="fill:#A5783D;" points="16,21.5 16.3,22.2 17,22.2 16.4,22.7 16.6,23.4 16,23 15.4,23.4 15.6,22.7 15,22.2 
				15.8,22.2 			"/>
		</g>
		<g>
			<polygon style="fill:#A5783D;" points="19,22.1 19.2,22.8 19.9,22.8 19.4,23.3 19.6,23.9 19,23.5 18.4,23.9 18.6,23.3 18,22.8 
				18.7,22.8 			"/>
		</g>
	</g>
</g>
</svg>
