<?xml version="1.0" encoding="utf-8"?>
<!-- Generator: Adobe Illustrator 21.1.0, SVG Export Plug-In . SVG Version: 6.00 Build 0)  -->
<svg version="1.1" id="Слой_1" xmlns="http://www.w3.org/2000/svg" xmlns:xlink="http://www.w3.org/1999/xlink" x="0px" y="0px"
	 viewBox="0 0 32 32" style="enable-background:new 0 0 32 32;" xml:space="preserve">
<style type="text/css">
	.st0{fill:url(#SVGID_1_);}
	.st1{opacity:0.15;fill:#1C1C1C;}
	.st2{fill:#00A1E0;}
	.st3{fill:#21B261;}
	.st4{fill:#AFD136;}
</style>
<g>
	<g>
		<linearGradient id="SVGID_1_" gradientUnits="userSpaceOnUse" x1="1.8642" y1="9.4101" x2="30.1212" y2="22.5866">
			<stop  offset="6.486487e-02" style="stop-color:#00A1E0"/>
			<stop  offset="0.5703" style="stop-color:#21B261"/>
			<stop  offset="1" style="stop-color:#AFD136"/>
		</linearGradient>
		<path class="st0" d="M28.9,7.4L16,0C16,0,3.9,6.9,3.1,7.4s-1,1.8-1,1.8s0,12.4,0,13.6c0,1.2,1.2,1.9,1.2,1.9L16,32
			c0,0,11.7-6.8,12.8-7.4c1-0.6,1.1-1.9,1.1-1.9s0-12.2,0-13.4S28.9,7.4,28.9,7.4z M16,2.4l10.6,6.2L22.4,11L11.7,4.9L16,2.4z
			 M26.6,16L16,22.1l-4.3-2.5l10.6-6.1L26.6,16z M4.2,9.2l5.4-3.1l10.6,6.2L9.6,18.4l-5.4-3.1V9.2z M4.2,17.8l3.2,1.8l-3.2,1.9V17.8
			z M5.3,23.4l4.3-2.5l4.3,2.5l-4.3,2.5L5.3,23.4z M16,29.5l-4.3-2.5l4.3-2.5l4.2,2.5L16,29.5z M27.7,22.8l-5.4,3.1l-4.2-2.5
			l9.6-5.6V22.8z M27.7,14.1l-3.2-1.9l3.2-1.9V14.1z"/>
	</g>
	<polygon class="st1" points="9.6,20.9 11.7,19.7 12.6,20.1 10.4,21.4 	"/>
	<polygon class="st1" points="13.8,23.4 16,24.6 15.2,25.1 13.1,23.8 	"/>
	<polygon class="st1" points="20.2,27.1 22.4,28.3 21.6,28.8 19.4,27.5 	"/>
	<polygon class="st1" points="27.7,17.8 29.9,16.6 29.9,17.8 27.7,19 	"/>
	<polygon class="st1" points="22.4,13.5 24.5,12.3 25.3,12.7 23.2,14 	"/>
	<polygon class="st1" points="9.6,6.1 8.8,6.6 6.7,5.3 7.5,4.9 	"/>
</g>
</svg>
