<?xml version="1.0" encoding="utf-8"?>
<!-- Generator: Adobe Illustrator 21.1.0, SVG Export Plug-In . SVG Version: 6.00 Build 0)  -->
<svg version="1.1" id="Слой_1" xmlns="http://www.w3.org/2000/svg" xmlns:xlink="http://www.w3.org/1999/xlink" x="0px" y="0px"
	 viewBox="0 0 32 32" style="enable-background:new 0 0 32 32;" xml:space="preserve">
<style type="text/css">
	.st0{fill:#FFFFFF;}
	.st1{fill:url(#SVGID_1_);}
	.st2{fill:url(#SVGID_2_);}
</style>
<g>
	<rect class="st0" width="32" height="32"/>
	<g>
		<linearGradient id="SVGID_1_" gradientUnits="userSpaceOnUse" x1="17.7502" y1="5.291" x2="4.7279" y2="30.3457">
			<stop  offset="0.4054" style="stop-color:#231816"/>
			<stop  offset="0.5051" style="stop-color:#291E1C"/>
			<stop  offset="0.6447" style="stop-color:#3A302F"/>
			<stop  offset="0.808" style="stop-color:#554E4D"/>
			<stop  offset="0.9878" style="stop-color:#7B7676"/>
			<stop  offset="1" style="stop-color:#7E7979"/>
		</linearGradient>
		<path class="st1" d="M7,3.9c0,0-4.3,21.3-4.6,23.2s0.3,2.6,1.9,1.1s8.7-7.2,19-12.1c1.3-0.6,0.3-1.6-0.2-2.1
			c-0.6-0.4-0.8-1.2-2.2-0.5c-1.4,0.7-9.5,5.2-11.6,7c-2.1,1.8-1.8-0.9-1.8-1.2s1.6-8,1.7-8.7c0.1-0.7,0.7-1.9,1.8-1
			c1.1,0.9,5.1,3.7,5.4,3.9s0.7,0.4,1.6-0.1c0.9-0.5,1.3-0.8,1.5-0.9s0.4-0.8-0.2-1.2c-0.6-0.4-10.5-7.8-10.9-8S7.3,2.6,7,3.9z"/>
		<linearGradient id="SVGID_2_" gradientUnits="userSpaceOnUse" x1="25.5604" y1="19.222" x2="14.0748" y2="27.074">
			<stop  offset="0.4054" style="stop-color:#231816"/>
			<stop  offset="0.5051" style="stop-color:#291E1C"/>
			<stop  offset="0.6447" style="stop-color:#3A302F"/>
			<stop  offset="0.808" style="stop-color:#554E4D"/>
			<stop  offset="0.9878" style="stop-color:#7B7676"/>
			<stop  offset="1" style="stop-color:#7E7979"/>
		</linearGradient>
		<path class="st2" d="M26.8,16.9c0,0,2,1.4,2.5,1.8c0.5,0.4,0.8,1.3-0.9,1.6s-8.5,2-10.3,2.9c-1.9,0.9-2.1-0.8-1.7-1.1
			c0.5-0.3,6.8-4.3,8.7-5.1C25.9,16.7,26.2,16.5,26.8,16.9z"/>
	</g>
</g>
</svg>
