<?xml version="1.0" encoding="utf-8"?>
<!-- Generator: Adobe Illustrator 22.1.0, SVG Export Plug-In . SVG Version: 6.00 Build 0)  -->
<svg version="1.1" id="Слой_1" xmlns="http://www.w3.org/2000/svg" xmlns:xlink="http://www.w3.org/1999/xlink" x="0px" y="0px"
	 width="32px" height="32px" viewBox="0 0 32 32" style="enable-background:new 0 0 32 32;" xml:space="preserve">
<circle style="fill:#2A3550;" cx="16" cy="16" r="16"/>
<g>
	<g>
		<path style="fill:#E0B870;" d="M1,15.2c0.1-0.1,0-0.3,0.1-0.4c0.1-1,0.3-2,0.5-2.9c0-0.1,0.1-0.1,0.2-0.1c1.3,0.4,2.6,0.8,3.9,1.1
			c0.1,0,0.1,0.1,0.1,0.2c-0.2,0.8-0.3,1.5-0.4,2.3c0,0.2,0,0.3,0,0.5C5.3,16,5.2,16,5.1,16c-0.8,0-1.7,0-2.5,0c-0.5,0-1.1,0-1.6,0
			C1,15.7,1,15.4,1,15.2z"/>
		<path style="fill:#E0B870;" d="M15.2,31c-0.2-0.1-0.3,0-0.5-0.1c-0.2,0-0.5-0.1-0.7-0.1c-0.1,0-0.1,0-0.1-0.1
			c0.2-1.1,0.3-2.2,0.5-3.4c0-0.2,0.1-0.4,0.1-0.6c0-0.1,0-0.1,0.2-0.1c0.5,0.1,1,0.1,1.5,0.1c0.5,0,0.9,0,1.4-0.1
			c0.1,0,0.1,0,0.1,0.1c0.1,0.8,0.2,1.6,0.3,2.4c0.1,0.5,0.1,1,0.2,1.5c0,0.2,0,0.2-0.2,0.3c-0.3,0-0.7,0.1-1,0.1c0,0,0,0-0.1,0
			C16.3,31,15.7,31,15.2,31z"/>
		<path style="fill:#E0B870;" d="M31,15.9c-0.3,0-0.6,0-0.9,0c-1,0-2.1,0-3.1,0c-0.1,0-0.2,0-0.2-0.2c0-0.9-0.1-1.8-0.4-2.7
			c-0.1-0.2-0.1-0.2,0.1-0.2c1.3-0.4,2.5-0.7,3.8-1.1c0.1,0,0.2,0,0.2,0.1c0.2,0.9,0.4,1.7,0.5,2.6v0.1C31,15,31,15.5,31,15.9z"/>
		<path style="fill:#E0B870;" d="M9.8,29.6C9.8,29.6,9.7,29.6,9.8,29.6c-1.3-0.6-2.4-1.3-3.5-2.2c-0.1-0.1-0.1-0.1,0-0.2
			c0.9-1,1.7-2,2.6-3L9,24.1c0.1-0.1,0.1-0.1,0.2,0c0.7,0.6,1.5,1.1,2.4,1.5c0.1,0,0.1,0.1,0.1,0.2c-0.6,1.2-1.1,2.4-1.7,3.6
			C9.9,29.5,9.8,29.6,9.8,29.6z"/>
		<path style="fill:#E0B870;" d="M22.3,29.6C22.3,29.6,22.3,29.5,22.3,29.6c-0.4-0.8-0.8-1.6-1.1-2.3c-0.2-0.5-0.4-1-0.7-1.4
			c-0.1-0.1,0-0.2,0.1-0.2c0.8-0.4,1.6-0.9,2.3-1.5c0.1-0.1,0.1-0.1,0.2,0c0.8,1,1.7,1.9,2.5,2.9c0.2,0.3,0.2,0.3,0,0.5
			C24.6,28.3,23.6,29,22.3,29.6C22.4,29.6,22.3,29.6,22.3,29.6z"/>
		<path style="fill:#E0B870;" d="M14.5,5.2c0,0.1-0.1,0.1-0.1,0.1c-0.5,0.1-1,0.2-1.5,0.3c-0.4,0.1-0.8,0.3-1.2,0.4
			c-0.1,0-0.1,0-0.2-0.1c-0.5-1.1-1-2.2-1.5-3.3c-0.1,0-0.1-0.1-0.2-0.2c0-0.1,0-0.1,0.1-0.1c1.1-0.5,2.1-0.8,3.3-1
			c0.2,0,0.4-0.1,0.6-0.1c0.1,0,0.2,0,0.2,0.1c0.1,0.9,0.2,1.7,0.4,2.6C14.3,4.3,14.4,4.8,14.5,5.2z"/>
		<path style="fill:#E0B870;" d="M9,7.8c0,0,0,0.1-0.1,0.1C8.5,8.3,8.1,8.7,7.7,9.2C7.5,9.5,7.3,9.7,7.1,10C7,10.1,7,10.1,6.9,10
			C5.8,9.4,4.6,8.6,3.5,7.9c-0.1-0.1-0.1-0.1,0-0.2c0.6-0.9,1.3-1.8,2.1-2.5C5.7,5,5.9,4.8,6.1,4.7c0.1-0.1,0.1-0.1,0.2,0
			c0.5,0.6,1,1.2,1.6,1.8C8.3,6.9,8.6,7.3,9,7.7C8.9,7.8,9,7.8,9,7.8z"/>
		<path style="fill:#E0B870;" d="M26.4,19c0.2,0.1,0.4,0.1,0.6,0.2c1.1,0.3,2.2,0.6,3.3,1c0.1,0,0.1,0.1,0.1,0.2
			c-0.4,1.3-0.9,2.5-1.7,3.6c-0.1,0.1-0.1,0.1-0.2,0c-1.1-0.7-2.3-1.5-3.4-2.2c-0.1-0.1-0.1-0.1,0-0.2C25.6,20.8,26,20,26.4,19
			C26.3,19,26.3,19,26.4,19z"/>
		<path style="fill:#E0B870;" d="M17.6,5.2c0.1-0.4,0.1-0.8,0.2-1.2c0.1-0.7,0.2-1.5,0.3-2.2c0-0.2,0.1-0.5,0.1-0.7
			C18.2,1,18.3,1,18.4,1c1.3,0.2,2.6,0.6,3.9,1.1c0.1,0,0.1,0.1,0.1,0.2c-0.6,1.2-1.1,2.4-1.7,3.7c-0.1,0.1-0.1,0.1-0.2,0.1
			c-0.8-0.4-1.7-0.6-2.5-0.8h-0.1C17.6,5.3,17.5,5.3,17.6,5.2z"/>
		<path style="fill:#E0B870;" d="M25.9,4.6L25.9,4.6c1,0.9,1.9,1.8,2.6,2.9c0,0.1,0.1,0.1,0.1,0.2c0.1,0.1,0,0.1,0,0.2
			c-1.1,0.7-2.3,1.5-3.4,2.2c-0.1,0.1-0.1,0-0.2,0c-0.4-0.6-0.9-1.2-1.4-1.8c-0.1-0.1-0.2-0.2-0.4-0.4c-0.1-0.1-0.1-0.1,0-0.2
			c0.3-0.3,0.5-0.6,0.8-0.9c0.6-0.7,1.2-1.4,1.8-2.1C25.8,4.7,25.8,4.6,25.9,4.6z"/>
		<path style="fill:#E0B870;" d="M5.7,19c0.1,0,0.1,0.1,0.1,0.1C6,19.8,6.2,20.4,6.6,21c0.1,0.2,0.2,0.4,0.4,0.7
			c0.1,0.1,0.1,0.1,0,0.2c-1.1,0.7-2.2,1.4-3.3,2.2c-0.1,0.1-0.2,0.1-0.2,0c-0.7-1.1-1.3-2.4-1.7-3.6c0-0.1,0-0.1,0.1-0.1
			C3,19.8,4.3,19.4,5.7,19C5.6,19,5.7,19,5.7,19z"/>
	</g>
	<g>
		<g>
			<path style="fill:#DDDDDD;" d="M13.3,14.3c0.5,0,1,0.2,1,0.8c0,0.3-0.2,0.5-0.4,0.6c0.3,0.1,0.6,0.3,0.6,0.7c0,0.6-0.5,0.9-1,0.9
				H12v-3C12,14.3,13.3,14.3,13.3,14.3z M12.5,15.5h0.6c0.2,0,0.5,0,0.5-0.4c0-0.3-0.2-0.4-0.5-0.4h-0.6V15.5z M12.5,16.8h0.7
				c0.3,0,0.6-0.1,0.6-0.4c0-0.4-0.3-0.4-0.6-0.4h-0.6L12.5,16.8L12.5,16.8z"/>
			<path style="fill:#DDDDDD;" d="M18.1,14.8h-1.6v0.7H18V16h-1.5v0.7h1.6v0.6h-2.3v-3h2.3V14.8z"/>
			<path style="fill:#DDDDDD;" d="M21.9,14.8H21v2.5h-0.7v-2.5h-0.9v-0.6h2.5V14.8z"/>
		</g>
		<g>
			<path style="fill:#DDDDDD;" d="M16.2,19.3h-1.8v-1.1h-2.5v3.1h4.6c2.6,0,4.4-1.1,5.2-3.1h-2.8C18.3,18.9,17.4,19.3,16.2,19.3z"/>
			<path style="fill:#DDDDDD;" d="M14.4,12.2h1.8c1.2,0,2.1,0.4,2.7,1.1h2.8c-0.7-2-2.5-3.1-5.2-3.1h-4.6v3.1h2.5V12.2z"/>
		</g>
	</g>
</g>
</svg>
