<?xml version="1.0" encoding="utf-8"?>
<!-- Generator: Adobe Illustrator 22.1.0, SVG Export Plug-In . SVG Version: 6.00 Build 0)  -->
<svg version="1.1" id="Слой_1" xmlns="http://www.w3.org/2000/svg" xmlns:xlink="http://www.w3.org/1999/xlink" x="0px" y="0px"
	 viewBox="0 0 32 32" style="enable-background:new 0 0 32 32;" xml:space="preserve">
<style type="text/css">
	.st0{fill:#574E5F;}
	.st1{fill:#25C593;}
	.st2{fill:#FDFDFD;}
</style>
<g>
	<rect x="0" class="st0" width="32" height="32"/>
	<g>
		<path class="st1" d="M12.5,10.4c-1.3,0-2.5,0-3.8,0c-0.3,0-0.3,0-0.3-0.3c0-1.2,0-2.4,0-3.6c0-0.3,0-0.3,0.3-0.3
			c0.2,0,0.4,0,0.6,0c0.2,0,0.4,0,0.5,0.1c0.3,0.2,0.6,0.3,0.8,0.5c0.1,0.1,0.2,0.1,0.4,0.1c1.6,0,3.2,0,4.9,0c0.5,0,0.9,0,1.3,0.1
			c1,0.2,2,0.5,2.8,1.1c0.9,0.6,1.6,1.3,2.1,2.2c0.3,0.6,0.6,1.2,0.8,1.8c0.1,0.6,0.2,1.1,0.2,1.7c0,1.1-0.2,2.1-0.7,3.1
			c-0.4,0.8-1,1.5-1.7,2.1c-0.3,0.3-0.7,0.6-1.1,0.8c-0.3,0.1-0.3,0.2-0.1,0.4c0.8,0.8,1.6,1.6,2.4,2.5c0.3,0.4,0.7,0.5,1.1,0.5
			c0.1,0,0.3,0,0.4,0c0.1,0,0.2,0.1,0.2,0.2c0,0.1,0,0.2,0,0.4c0,0.6,0,1.2,0,1.7c0,0.3,0,0.3-0.3,0.3c-1,0-1.9,0-2.9,0
			c-0.1,0-0.2-0.1-0.3-0.1c-0.8-0.8-1.5-1.6-2.3-2.3c-0.9-0.9-1.9-1.9-2.8-2.8c-0.3-0.3-0.6-0.8-0.6-1.2c-0.1-0.6,0.2-1.2,0.9-1.5
			c0.4-0.2,0.7-0.3,1.2-0.3c1.4-0.1,2.5-1,3-2.3c0.5-1.4,0.1-2.6-0.9-3.7c-0.6-0.6-1.4-0.9-2.3-0.9C14.9,10.4,13.7,10.4,12.5,10.4
			C12.5,10.4,12.5,10.4,12.5,10.4z"/>
		<path class="st2" d="M8.6,20.5c0-1.6,0-3.3,0-4.9c0-1.8,1.5-3.4,3.3-3.4c1.2,0,2.4,0,3.6,0c1,0,1.7,0.8,1.7,1.8
			c0,0.9-0.8,1.7-1.7,1.7c-0.6,0-1.1,0-1.7,0c-1.1,0-1.8,0.7-1.8,1.8c0,2.1,0,4.2,0,6.3c0,0.3,0.1,0.5,0.3,0.7
			c0.3,0.2,0.4,0.5,0.3,0.9c0,0.4,0,0.4-0.4,0.4c-1.1,0-2.3,0-3.4,0c-0.2,0-0.3,0-0.3-0.2C8.6,23.8,8.6,22.1,8.6,20.5
			C8.6,20.5,8.6,20.5,8.6,20.5z"/>
	</g>
</g>
</svg>
