<?xml version="1.0" encoding="utf-8"?>
<!-- Generator: Adobe Illustrator 22.1.0, SVG Export Plug-In . SVG Version: 6.00 Build 0)  -->
<svg version="1.1" id="Слой_1" xmlns="http://www.w3.org/2000/svg" xmlns:xlink="http://www.w3.org/1999/xlink" x="0px" y="0px"
	 width="32px" height="32px" viewBox="0 0 32 32" style="enable-background:new 0 0 32 32;" xml:space="preserve">
<g>
	<rect style="fill:#1376C0;" width="32" height="32"/>
</g>
<g>
	<path style="fill:#FFFFFF;" d="M17.7,24.3c-4.5,0-8.2-3.7-8.2-8.2s3.7-8.2,8.2-8.2s8.2,3.7,8.2,8.2C25.9,20.6,22.2,24.3,17.7,24.3z
		 M17.7,9c-3.9,0-7,3.2-7,7s3.2,7,7,7s7-3.2,7-7S21.5,9,17.7,9z"/>
	<g>
		<path style="fill:#FFFFFF;" d="M8.1,15.7L8.1,15.7c-0.4,0-0.6-0.3-0.6-0.7c0.5-4.5,4-8.2,8.5-8.9c0.3-0.1,0.6,0.2,0.7,0.5
			s-0.2,0.6-0.5,0.7c-4,0.6-7.1,3.9-7.5,7.9C8.7,15.4,8.4,15.7,8.1,15.7z"/>
		<path style="fill:#FFFFFF;" d="M16.2,26.3C16.2,26.3,16.1,26.3,16.2,26.3c-2.3-0.3-4.2-1.4-5.8-2.9c-1.6-1.6-2.5-3.6-2.8-5.8
			c0-0.3,0.2-0.6,0.5-0.7c0.3,0,0.6,0.2,0.7,0.5c0.5,3.9,3.6,7.1,7.5,7.7c0.3,0.1,0.5,0.4,0.5,0.7S16.5,26.3,16.2,26.3z"/>
		<path style="fill:#FFFFFF;" d="M18.5,26.4c-0.3,0-0.6-0.2-0.6-0.6c0-0.3,0.2-0.6,0.5-0.6c2.3-0.2,4.5-1.3,6.1-3
			c0.2-0.2,0.6-0.3,0.8-0.1c0.2,0.2,0.3,0.6,0.1,0.8C23.6,24.9,21.2,26.2,18.5,26.4L18.5,26.4z"/>
		<path style="fill:#FFFFFF;" d="M24.9,10.4c-0.2,0-0.3-0.1-0.4-0.2c-1.5-1.7-3.6-2.8-5.9-3c-0.3,0-0.6-0.3-0.5-0.7
			c0-0.3,0.3-0.6,0.7-0.5c2.6,0.3,5,1.5,6.7,3.4c0.2,0.2,0.2,0.6-0.1,0.8C25.2,10.4,25.1,10.4,24.9,10.4z"/>
	</g>
	<g>
		<path style="fill:#FFFFFF;" d="M8.6,23.9c-0.2,0-0.3-0.1-0.5-0.2c-1.8-2.2-2.7-4.9-2.7-7.7c0-2.7,0.9-5.3,2.5-7.4
			c0.2-0.3,0.6-0.3,0.8-0.1C9,8.7,9.1,9,8.9,9.3c-1.5,1.9-2.3,4.3-2.3,6.7c0,2.5,0.9,5,2.5,6.9c0.2,0.3,0.2,0.6-0.1,0.8
			C8.9,23.9,8.7,23.9,8.6,23.9z"/>
		<path style="fill:#FFFFFF;" d="M17.6,28.2c-2.8,0-5.5-1-7.7-2.8c-0.3-0.2-0.3-0.6-0.1-0.8c0.2-0.3,0.6-0.3,0.8-0.1
			c2,1.6,4.4,2.5,7,2.5c2.5,0,4.8-0.8,6.8-2.3c0.3-0.2,0.6-0.2,0.8,0.1c0.2,0.3,0.2,0.6-0.1,0.8C22.9,27.3,20.3,28.2,17.6,28.2z"/>
		<path style="fill:#FFFFFF;" d="M10,7.8c-0.2,0-0.3-0.1-0.5-0.2C9.3,7.4,9.4,7,9.6,6.8c2.2-1.9,5-2.9,7.9-2.9c2.8,0,5.6,1,7.7,2.8
			c0.3,0.2,0.3,0.6,0.1,0.8c-0.2,0.3-0.6,0.3-0.8,0.1c-2-1.6-4.4-2.5-7-2.5S12.3,6,10.3,7.8C10.3,7.8,10.1,7.8,10,7.8z"/>
	</g>
	<path style="fill:#FFFFFF;" d="M14.9,18.7c-0.3,0-0.6-0.3-0.6-0.6v-1.5c0-0.3,0.3-0.6,0.6-0.6s0.6,0.3,0.6,0.6v1.5
		C15.5,18.4,15.2,18.7,14.9,18.7z"/>
	<path style="fill:#FFFFFF;" d="M17.1,18.7c-0.3,0-0.6-0.3-0.6-0.6v-3.2c0-0.3,0.3-0.6,0.6-0.6s0.6,0.3,0.6,0.6v3.2
		C17.7,18.4,17.5,18.7,17.1,18.7z"/>
	<path style="fill:#FFFFFF;" d="M19.4,18.7c-0.3,0-0.6-0.3-0.6-0.6v-5.5c0-0.3,0.3-0.6,0.6-0.6s0.6,0.3,0.6,0.6v5.5
		C20,18.4,19.7,18.7,19.4,18.7z"/>
</g>
</svg>
