<?xml version="1.0" encoding="utf-8"?>
<!-- Generator: Adobe Illustrator 22.1.0, SVG Export Plug-In . SVG Version: 6.00 Build 0)  -->
<svg version="1.1" id="Слой_1" xmlns="http://www.w3.org/2000/svg" xmlns:xlink="http://www.w3.org/1999/xlink" x="0px" y="0px"
	 viewBox="0 0 32 32" style="enable-background:new 0 0 32 32;" xml:space="preserve">
<style type="text/css">
	.st0{fill:#345A72;}
	.st1{fill:#FCFDFD;}
	.st2{fill:#FFFFFF;}
</style>
<g>
	<circle class="st0" cx="16" cy="16" r="16"/>
	<path class="st1" d="M22.9,16c-0.6-1.1-1.7-1.8-3.1-1.8h-7.4h-0.2H8.7v0.2c0,0.6,0.2,1.2,0.4,1.6c0.6,1.1,1.7,1.8,3.1,1.8h7.4h0.2
		h3.5v-0.2C23.3,17,23.2,16.5,22.9,16z"/>
	<path class="st1" d="M12.4,10.5h10.9v-0.1c0-1.9-1.6-3.5-3.5-3.5h-7.6c-1.9,0-3.5,1.6-3.5,3.5v3h3.7V10.5z"/>
	<path class="st1" d="M19.6,21.5H8.7v0.1c0,1.9,1.6,3.5,3.5,3.5h7.6c1.9,0,3.5-1.6,3.5-3.5v-3h-3.7V21.5z"/>
	<path class="st2" d="M15.9,1.5c8,0,14.5,6.5,14.5,14.5S24,30.6,15.9,30.6S1.4,24.1,1.4,16.1S7.9,1.5,15.9,1.5 M15.9,0.7
		c-2.1,0-4.1,0.4-6,1.2C8.1,2.7,6.5,3.8,5.1,5.2c-1.4,1.4-2.5,3-3.3,4.9C1,12,0.6,14,0.6,16.1s0.4,4.1,1.2,6
		c0.8,1.8,1.9,3.5,3.3,4.9c1.4,1.4,3,2.5,4.9,3.3c1.9,0.8,3.9,1.2,6,1.2s4.1-0.4,6-1.2c1.8-0.8,3.5-1.9,4.9-3.3
		c1.4-1.4,2.5-3,3.3-4.9c0.8-1.9,1.2-3.9,1.2-6s-0.4-4.1-1.2-6c-0.8-1.8-1.9-3.5-3.3-4.9c-1.4-1.4-3-2.5-4.9-3.3
		C20,1.1,18,0.7,15.9,0.7L15.9,0.7z"/>
</g>
</svg>
