<?xml version="1.0" encoding="utf-8"?>
<!-- Generator: Adobe Illustrator 22.1.0, SVG Export Plug-In . SVG Version: 6.00 Build 0)  -->
<svg version="1.1" id="Слой_1" xmlns="http://www.w3.org/2000/svg" xmlns:xlink="http://www.w3.org/1999/xlink" x="0px" y="0px"
	 viewBox="0 0 32 32" style="enable-background:new 0 0 32 32;" xml:space="preserve">
<style type="text/css">
	.st0{fill:#FFFFFF;}
	.st1{fill:#213752;}
</style>
<g>
	<rect class="st0" width="32" height="32"/>
	<path class="st1" d="M28.5,14.2V8.8L16.1,1.6L9.7,5.3l5.1,3l-1.4,0.8L8.3,6L3.6,8.8v14.3l6.5,3.8v-5.9l1.2,0.7v5.8l4.8,2.8
		l12.5-7.2v-7.3l-5.1,2.7v-1.5L28.5,14.2z M10.1,12.6l0.7-0.4l5,2.8l5.4-2.8l0.9,0.5v1l-5.2,2.9v5.9L16,23.2l-0.7-0.8v-5.9h-0.1
		l-5.1-2.9V12.6z M12.8,19.6l-5.4-3v6.1l-1.3-0.8V10.2l2.2-1.4l1.5,0.8L7.4,11V15l5.4,3.2V19.6z M26.1,20.3v1.5l-10,5.8l-2.2-1.3
		v-1.5l2.2,1.1l3.4-1.9v-6.3l1.3-0.6v6.1L26.1,20.3z M21.2,9.1l-5.2,3l-1.5-0.7l5.2-3.1l-5.2-3l1.5-0.9l10,5.8v2.4l-1.4,1V11
		L21.2,9.1z"/>
</g>
</svg>
