<?xml version="1.0" encoding="utf-8"?>
<!-- Generator: Adobe Illustrator 21.1.0, SVG Export Plug-In . SVG Version: 6.00 Build 0)  -->
<svg version="1.1" id="Слой_1" xmlns="http://www.w3.org/2000/svg" xmlns:xlink="http://www.w3.org/1999/xlink" x="0px" y="0px"
	 viewBox="0 0 32 32" style="enable-background:new 0 0 32 32;" xml:space="preserve">
<style type="text/css">
	.st0{fill:#50A9DE;}
	.st1{fill:#666666;}
	.st2{fill:none;stroke:#666666;stroke-width:0.5;stroke-miterlimit:10;}
</style>
<title>color/xrp</title>
<desc>Created with Sketch.</desc>
<g>
	
		<rect x="-1.4" y="14.8" transform="matrix(0.5469 -0.8372 0.8372 0.5469 -9.9177 12.7333)" class="st0" width="16.4" height="1.5"/>
	<rect x="12.7" y="14.8" transform="matrix(0.547 -0.8371 0.8371 0.547 -3.5435 24.509)" class="st0" width="16.4" height="1.5"/>
	<rect x="13.6" y="7.9" transform="matrix(0.9617 -0.274 0.274 0.9617 -3.8757 4.5535)" class="st0" width="1.5" height="16.4"/>
	<rect x="27.1" y="7.5" transform="matrix(0.9611 -0.2763 0.2763 0.9611 -3.2585 8.3099)" class="st0" width="1.5" height="16.4"/>
	<rect x="-0.5" y="15" transform="matrix(0.8436 -0.537 0.537 0.8436 -5.9909 9.9509)" class="st1" width="29.2" height="0.5"/>
	<rect x="20.5" y="2.8" transform="matrix(0.6342 -0.7731 0.7731 0.6342 -3.9897 21.4819)" class="st1" width="0.5" height="24.4"/>
	<path class="st2" d="M1.1,23.1"/>
	<rect x="0.9" y="22.7" class="st1" width="30.1" height="0.5"/>
	<circle class="st1" cx="11.5" cy="7.8" r="2.1"/>
	<circle class="st1" cx="25.6" cy="8" r="2.1"/>
	<circle class="st1" cx="29.9" cy="22.8" r="2.1"/>
	<circle class="st1" cx="16.2" cy="22.9" r="2.1"/>
	<circle class="st1" cx="2.1" cy="22.8" r="2.1"/>
</g>
</svg>
