<?xml version="1.0" encoding="utf-8"?>
<!-- Generator: Adobe Illustrator 22.1.0, SVG Export Plug-In . SVG Version: 6.00 Build 0)  -->
<svg version="1.1" id="Слой_1" xmlns="http://www.w3.org/2000/svg" xmlns:xlink="http://www.w3.org/1999/xlink" x="0px" y="0px"
	 width="32px" height="32px" viewBox="0 0 32 32" style="enable-background:new 0 0 32 32;" xml:space="preserve">
<rect x="5.3" y="5.8" style="fill:#FFFFFF;" width="20.6" height="19.1"/>
<g>
	
		<linearGradient id="SVGID_1_" gradientUnits="userSpaceOnUse" x1="0" y1="18" x2="32.001" y2="18" gradientTransform="matrix(1 0 0 -1 0 34)">
		<stop  offset="0" style="stop-color:#3C577A"/>
		<stop  offset="0.2747" style="stop-color:#3F5A7E"/>
		<stop  offset="0.5615" style="stop-color:#49648B"/>
		<stop  offset="0.8529" style="stop-color:#5A75A0"/>
		<stop  offset="1" style="stop-color:#6580AD"/>
	</linearGradient>
	<path style="fill:url(#SVGID_1_);" d="M16.1,0C7.2,0,0,7.1,0,16.1C0,24.9,7.1,31.9,16,32c8.9,0,16.1-7.2,16-16.1
		C32,7.1,24.9,0,16.1,0z M19.7,20.2c-0.1,1-0.6,1.9-1.3,2.7c-1.1,1.1-2.6,1.4-4,0.6c-1.3-0.7-2-1.7-2.2-3.1
		c-0.1-0.7,0.1-1.4,0.3-2.1c0.1-0.2,0.2-0.3,0.3-0.4c0.6-0.6,1.2-1.2,1.8-1.8c0.1-0.1,0.1-0.2,0-0.3c-1.6-1.6-3.2-3.2-4.8-4.9
		c0,0-0.1-0.2-0.2-0.1c-0.1,0,0,0.1,0,0.2c0,1.4,0,2.8,0,4.2s0,2.8,0,4.2c0,0.2,0.1,0.3,0.2,0.4c1,0.6,1.4,1.8,0.8,2.8
		c-0.3,0.5-0.7,0.8-1.2,1c-0.2,0.1-0.7,0.1-1,0.1s-0.6-0.2-0.8-0.3c-1.3-0.9-1.2-2.8,0.2-3.5C8,19.8,8,19.7,8,19.5c0-3,0-6.1,0-9.1
		C8,9.9,8,9.5,8,9c0-0.3,0.2-0.6,0.5-0.7c0.4-0.3,0.7-0.2,1,0c0.7,0.7,1.4,1.4,2,2c1.1,1.1,2.2,2.2,3.3,3.3c0.3,0.3,0.7,0.7,1,1
		c0.1,0.1,0.2,0.1,0.3,0c0.6-0.6,1.2-1.2,1.8-1.8c0.1-0.1,0.2-0.2,0.4-0.3c0.3-0.1,0.7,0.1,0.9,0.3c0.2,0.4,0.2,0.7-0.1,1
		c-0.6,0.6-1.1,1.2-1.7,1.7l-0.1,0.1c-0.1,0.1-0.1,0.2,0,0.3c0.6,0.6,1.2,1.2,1.8,1.8C19.7,18.6,19.9,19.3,19.7,20.2z M24.1,12.1
		c-0.1,0.1-0.2,0.1-0.2,0.3c0,0.1,0,0.1,0,0.2c0,3.2,0,6.5,0,9.7c0,0.3,0.1,0.6,0,0.9c-0.1,0.4-0.4,0.6-0.8,0.6s-0.7-0.2-0.8-0.6
		c0-0.1,0-0.2,0-0.3c0-1.7,0-3.4,0-5.1s0-3.5,0-5.2c0-0.2,0-0.3-0.2-0.4c-1.3-0.8-1.5-2.5-0.3-3.5C22.6,8,23.7,8,24.5,8.6
		C25.5,9.5,25.5,11.4,24.1,12.1z"/>
	<path style="fill:#4A638B;" d="M16.1,17.2c-0.1-0.1-0.2-0.1-0.3,0c-0.5,0.5-1.1,1-1.6,1.6C14.1,18.9,14,18.9,14,19
		c-0.1,0.3-0.2,0.6-0.2,0.9c0,0.5,0.1,0.9,0.4,1.3c0.4,0.7,1,1.1,1.8,1.1c0.6,0,1-0.2,1.4-0.6c0.5-0.5,0.7-1.1,0.8-1.8
		c0.1-0.4-0.1-0.7-0.4-1C17.2,18.4,16.7,17.8,16.1,17.2z"/>
	<path style="fill:#3C577A;" d="M8.7,20.9c-0.3,0-0.5,0.3-0.5,0.7c0,0.4,0.3,0.7,0.7,0.7s0.7-0.3,0.7-0.7
		C9.6,21.1,9.4,20.9,8.7,20.9z"/>
	<path style="fill:#56729A;" d="M22.9,9.5c-0.3,0.1-0.5,0.4-0.5,0.7c0,0.2,0.1,0.4,0.2,0.5c0.1,0.2,0.4,0.1,0.5,0.2
		c0.2,0.1,0.4,0,0.5-0.2c0.2-0.2,0.3-0.6,0.1-0.9C23.6,9.6,23.2,9.4,22.9,9.5z"/>
</g>
</svg>
