<?xml version="1.0" encoding="utf-8"?>
<!-- Generator: Adobe Illustrator 21.1.0, SVG Export Plug-In . SVG Version: 6.00 Build 0)  -->
<svg version="1.1" id="Слой_1" xmlns="http://www.w3.org/2000/svg" xmlns:xlink="http://www.w3.org/1999/xlink" x="0px" y="0px"
	 viewBox="0 0 32 32" style="enable-background:new 0 0 32 32;" xml:space="preserve">
<style type="text/css">
	.st0{fill:#0C87FB;}
	.st1{fill:#FFFFFF;}
</style>
<g>
	<path class="st0" d="M16,0c8.8,0,16,7.2,16,16c0,8.9-7.3,16.1-16.1,16C7.1,31.9,0,24.8,0,16C0,7.2,7.2,0,16,0z M13,10.6
		c0.1,0,0.2,0,0.2,0c1.4,0.2,2.7,0.5,4.1,0.7c1.1,0.2,1.8,1,1.8,2.1c0,0.7,0,1.4,0,2.1c0,0.3,0.1,0.5,0.4,0.7
		c0.3,0.1,0.5,0.1,0.7-0.1c0.9-0.8,1.9-1.6,2.8-2.3c0.2-0.1,0.3-0.3,0.3-0.6c0-0.8,0-1.5,0-2.3c0-1.6-1.2-3-2.8-3.3
		c-1.1-0.2-2.2-0.4-3.3-0.6c-0.5-0.1-1-0.2-1.6-0.2c-1.6-0.1-3,0.8-3.7,2.3c0,0.1-0.1,0.1-0.2,0.1c-0.3,0.1-0.6,0.2-0.9,0.4
		c-1.3,0.7-2,1.9-2,3.3c0,2.5,0,5,0,7.5c0,0.2,0,0.4,0,0.6c0.2,1.6,1.5,3,3.1,3.2c1.4,0.2,2.7,0.5,4.1,0.7c1.7,0.3,3.4-0.6,4.1-2.2
		c0-0.1,0.1-0.1,0.2-0.2c1.5-0.4,2.7-1.7,2.9-3.2c0.1-1,0-2,0-3c0-0.5-0.6-0.8-1-0.6c-0.2,0.1-0.4,0.3-0.6,0.4
		c-0.8,0.6-1.5,1.3-2.3,1.9c-0.2,0.2-0.3,0.4-0.3,0.7c0,0.7,0,1.5,0,2.2c0,0.1,0,0.1,0,0.2c-0.1,0-0.1,0-0.2,0
		c-1.3-0.2-2.6-0.4-3.8-0.6c-1.3-0.2-2.1-1.3-2.1-2.5c0-1.4,0-2.8,0-4.2c0-0.9,0-1.8,0-2.7C13,11.1,13,10.9,13,10.6z"/>
	<path class="st1" d="M13,10.6c0,0.2,0,0.5,0,0.7c0,0.9,0,1.8,0,2.7c0,1.4,0,2.8,0,4.2c0,1.1,0.8,2.3,2.1,2.5
		c1.3,0.2,2.6,0.4,3.8,0.6c0.1,0,0.1,0,0.2,0c0-0.1,0-0.1,0-0.2c0-0.7,0-1.5,0-2.2c0-0.3,0.1-0.5,0.3-0.7c0.8-0.6,1.5-1.3,2.3-1.9
		c0.2-0.1,0.4-0.3,0.6-0.4c0.4-0.2,1,0.1,1,0.6c0,1,0,2,0,3c-0.1,1.6-1.3,2.9-2.9,3.2c-0.1,0-0.2,0.1-0.2,0.2
		c-0.7,1.6-2.4,2.5-4.1,2.2c-1.4-0.2-2.7-0.5-4.1-0.7c-1.6-0.3-2.9-1.6-3.1-3.2c0-0.2,0-0.4,0-0.6c0-2.5,0-5,0-7.5
		c0-1.5,0.7-2.6,2-3.3c0.3-0.2,0.6-0.2,0.9-0.4c0.1,0,0.2-0.1,0.2-0.1c0.7-1.5,2.1-2.4,3.7-2.3c0.5,0,1,0.1,1.6,0.2
		c1.1,0.2,2.2,0.4,3.3,0.6C22,8,23.2,9.3,23.2,11c0,0.8,0,1.5,0,2.3c0,0.2-0.1,0.4-0.3,0.6c-0.9,0.8-1.9,1.6-2.8,2.3
		c-0.2,0.2-0.5,0.2-0.7,0.1c-0.3-0.1-0.4-0.4-0.4-0.7c0-0.7,0-1.4,0-2.1c0-1.1-0.7-1.9-1.8-2.1c-1.4-0.2-2.7-0.5-4.1-0.7
		C13.1,10.7,13.1,10.6,13,10.6z M18.6,22.7C18.6,22.7,18.5,22.7,18.6,22.7c-1.3-0.2-2.5-0.4-3.7-0.6c-0.9-0.1-1.7-0.5-2.3-1.2
		c-0.7-0.8-1.1-1.7-1.1-2.8c0-0.9,0-1.9,0-2.8c0-1.4,0-2.9,0-4.3c0-0.1,0-0.1,0-0.2c-0.1,0-0.1,0.1-0.2,0.1c-0.8,0.5-1.2,1.1-1.2,2
		c0,1.3,0,2.6,0,3.9c0,0.3,0,0.7,0,1c0,1,0,1.9,0,2.9c0,1.2,0.8,2.1,2,2.4c1.2,0.2,2.3,0.4,3.5,0.6c0.4,0.1,0.9,0.2,1.3,0.1
		C17.6,23.6,18.2,23.3,18.6,22.7z M20.4,14.1C20.4,14.1,20.4,14.1,20.4,14.1c0.5-0.4,0.9-0.7,1.4-1.1c0,0,0.1-0.1,0.1-0.2
		c0-0.6,0-1.2,0-1.8c0-1-0.7-1.9-1.7-2c-1.4-0.2-2.7-0.5-4.1-0.7c-0.5-0.1-1.1-0.1-1.6,0.1c-0.4,0.2-0.7,0.5-1,0.8c0,0,0.1,0,0.1,0
		c1.3,0.2,2.7,0.5,4,0.7c1.6,0.3,2.8,1.5,2.9,3.2C20.4,13.5,20.4,13.8,20.4,14.1z M20.4,21.1C20.4,21.2,20.4,21.2,20.4,21.1
		c0.3-0.1,0.5-0.3,0.7-0.4c0.8-0.8,0.8-1.7,0.7-2.7c0,0,0,0-0.1,0c-0.4,0.4-0.9,0.7-1.3,1.1c0,0-0.1,0.1-0.1,0.2c0,0.3,0,0.7,0,1
		C20.4,20.6,20.4,20.9,20.4,21.1z"/>
	<path class="st0" d="M18.6,22.7c-0.4,0.6-1,0.9-1.7,1c-0.4,0.1-0.9,0-1.3-0.1c-1.2-0.2-2.3-0.4-3.5-0.6c-1.2-0.2-2-1.2-2-2.4
		c0-1,0-1.9,0-2.9c0-0.3,0-0.7,0-1c0-1.3,0-2.6,0-3.9c0-0.9,0.4-1.6,1.2-2c0.1,0,0.1-0.1,0.2-0.1c0,0.1,0,0.1,0,0.2
		c0,1.4,0,2.9,0,4.3c0,0.9,0,1.9,0,2.8c0,1.1,0.3,2,1.1,2.8c0.6,0.7,1.4,1,2.3,1.2C16.1,22.3,17.3,22.5,18.6,22.7
		C18.5,22.7,18.6,22.7,18.6,22.7z"/>
	<path class="st0" d="M20.4,14.1c0-0.3,0-0.6,0-0.9c-0.1-1.6-1.3-2.9-2.9-3.2c-1.3-0.2-2.7-0.4-4-0.7c0,0-0.1,0-0.1,0
		c0.3-0.4,0.6-0.7,1-0.8c0.5-0.2,1.1-0.2,1.6-0.1c1.4,0.2,2.7,0.5,4.1,0.7c1,0.2,1.7,1,1.7,2c0,0.6,0,1.2,0,1.8c0,0.1,0,0.1-0.1,0.2
		C21.3,13.4,20.9,13.7,20.4,14.1C20.4,14.1,20.4,14.1,20.4,14.1z"/>
	<path class="st0" d="M20.4,21.1c0-0.3,0-0.6,0-0.9c0-0.3,0-0.7,0-1c0-0.1,0-0.1,0.1-0.2c0.4-0.4,0.8-0.7,1.3-1.1c0,0,0,0,0.1,0
		c0.1,1,0.1,2-0.7,2.7C20.9,20.9,20.7,21,20.4,21.1C20.4,21.2,20.4,21.2,20.4,21.1z"/>
</g>
<image style="overflow:visible;" width="1500" height="1600" xlink:href="C:\Users\i5-4200U\Desktop\stock-vector-centrality-coin-cryptocurrency-blockchain-icon-virtual-electronic-internet-money-or-cryptocoin-1109780648.jpg"  transform="matrix(0.24 0 0 0.24 -860.64 -590.055)">
</image>
</svg>
