<?xml version="1.0" encoding="utf-8"?>
<!-- Generator: Adobe Illustrator 22.1.0, SVG Export Plug-In . SVG Version: 6.00 Build 0)  -->
<svg version="1.1" id="Слой_1" xmlns="http://www.w3.org/2000/svg" xmlns:xlink="http://www.w3.org/1999/xlink" x="0px" y="0px"
	 viewBox="0 0 32 32" style="enable-background:new 0 0 32 32;" xml:space="preserve">
<style type="text/css">
	.st0{fill:url(#SVGID_1_);}
	.st1{fill:#414246;}
</style>
<g>
	<linearGradient id="SVGID_1_" gradientUnits="userSpaceOnUse" x1="16" y1="0" x2="16" y2="32">
		<stop  offset="0" style="stop-color:#F7D548"/>
		<stop  offset="0.1749" style="stop-color:#E9C43D"/>
		<stop  offset="0.478" style="stop-color:#D6AC2D"/>
		<stop  offset="0.7605" style="stop-color:#CA9E23"/>
		<stop  offset="1" style="stop-color:#C69920"/>
	</linearGradient>
	<circle class="st0" cx="16" cy="16" r="16"/>
	<g>
		<path class="st1" d="M8.4,10.2V17c0,2.6,1.2,3.7,2.7,3.7c1.7,0,2.8-1.1,2.8-3.7v-6.9h1.5v6.8c0,3.6-1.9,5-4.4,5
			c-2.4,0-4.2-1.3-4.2-5v-6.8H8.4z"/>
		<path class="st1" d="M18,15.7c0-0.9,0-1.6-0.1-2.3h1.3l0.1,1.4h0c0.4-0.8,1.4-1.5,2.8-1.5c1.2,0,2.9,0.7,2.9,3.5v5h-1.5V17
			c0-1.3-0.5-2.5-1.9-2.5c-1,0-1.8,0.7-2,1.5c-0.1,0.2-0.1,0.4-0.1,0.7v5H18V15.7z"/>
	</g>
	<path class="st1" d="M16,2.3c7.6,0,13.7,6.2,13.7,13.7S23.6,29.7,16,29.7C8.4,29.7,2.3,23.6,2.3,16S8.4,2.3,16,2.3 M16,1.4
		C8,1.4,1.4,8,1.4,16S8,30.6,16,30.6S30.6,24.1,30.6,16S24.1,1.4,16,1.4L16,1.4z"/>
</g>
</svg>
