<?xml version="1.0" encoding="utf-8"?>
<!-- Generator: Adobe Illustrator 21.1.0, SVG Export Plug-In . SVG Version: 6.00 Build 0)  -->
<svg version="1.1" id="Слой_1" xmlns="http://www.w3.org/2000/svg" xmlns:xlink="http://www.w3.org/1999/xlink" x="0px" y="0px"
	 viewBox="0 0 32 32" style="enable-background:new 0 0 32 32;" xml:space="preserve">
<style type="text/css">
	.st0{fill:#4C4C4C;}
	.st1{fill:#008CEA;}
	.st2{fill:#FFFFFF;}
</style>
<g>
	<path class="st0" d="M23,15.7l-7,7l-7-7v8.6H2.3C5.1,28.9,10.2,32,16,32s10.9-3.1,13.7-7.7H23V15.7z"/>
	<path class="st1" d="M5.6,7.6L16,18.1L26.4,7.6v13.5h4.8c0.5-1.6,0.8-3.3,0.8-5.1c0-8.8-7.2-16-16-16C7.2,0,0,7.2,0,16
		c0,1.8,0.3,3.5,0.8,5.1h4.8V7.6z"/>
	<path class="st2" d="M26.4,21.1V7.6L16,18.1L5.6,7.6v13.5H0.8c0.4,1.1,0.9,2.2,1.5,3.2H9v-8.6l7,7l7-7v8.6h6.7
		c0.6-1,1.1-2.1,1.5-3.2H26.4z"/>
</g>
</svg>
