<?xml version="1.0" encoding="utf-8"?>
<!-- Generator: Adobe Illustrator 22.1.0, SVG Export Plug-In . SVG Version: 6.00 Build 0)  -->
<svg version="1.1" id="Слой_1" xmlns="http://www.w3.org/2000/svg" xmlns:xlink="http://www.w3.org/1999/xlink" x="0px" y="0px"
	 viewBox="0 0 32 32" style="enable-background:new 0 0 32 32;" xml:space="preserve">
<style type="text/css">
	.st0{fill:#181F32;}
	.st1{fill:#999EBE;}
	.st2{fill:#737790;}
</style>
<rect x="0" y="0" class="st0" width="32" height="32"/>
<g>
	<path class="st1" d="M16.3,24.8c-0.7,0-1.5,0-2.2,0c-0.2,0-0.2-0.1-0.3-0.2c-1.5-2.6-3-5.3-4.4-7.9c-0.1-0.2-0.1-0.2,0-0.4
		c2.2-3,4.4-6,6.6-8.9c0.1-0.2,0.2-0.2,0.3,0c2.2,3,4.4,6,6.6,8.9c0.1,0.1,0.1,0.2,0,0.4c-1.3,2.6-2.7,5.3-4,7.9
		c-0.1,0.2-0.2,0.2-0.3,0.2C17.8,24.8,17.1,24.8,16.3,24.8z"/>
	<path class="st2" d="M20.7,24.8c-0.6,0-0.5,0-0.3-0.4c1.4-2.6,2.7-5.1,4.1-7.7c0.1-0.1,0.1-0.2,0-0.4c-0.9-1.3-1.8-2.6-2.8-3.9
		c-0.1-0.2-0.1-0.3,0-0.4c0.9-1.2,1.9-2.4,2.8-3.5c0.1-0.2,0.2-0.2,0.3,0c1.7,2.6,3.4,5.2,5.1,7.8c0.1,0.2,0.1,0.3-0.1,0.4
		c-2.9,2.7-5.8,5.3-8.6,8C21.1,24.8,20.9,24.8,20.7,24.8z"/>
	<path class="st2" d="M12.1,24.8c-0.3,0.1-0.5-0.1-0.7-0.2c-3.1-2.6-6.2-5.3-9.3-7.9c-0.2-0.2-0.2-0.3-0.1-0.5
		c1.7-2.6,3.3-5.1,5-7.7c0.2-0.3,0.2-0.3,0.4,0c0.9,1.2,1.8,2.3,2.7,3.5c0.2,0.2,0.2,0.3,0,0.5c-0.9,1.3-1.8,2.6-2.7,3.8
		c-0.1,0.2-0.1,0.3,0,0.4c1.6,2.6,3.2,5.1,4.9,7.7c0.1,0.1,0.2,0.2,0.2,0.3C12.5,24.9,12.3,24.7,12.1,24.8z"/>
</g>
</svg>
