<?xml version="1.0" encoding="utf-8"?>
<!-- Generator: Adobe Illustrator 22.1.0, SVG Export Plug-In . SVG Version: 6.00 Build 0)  -->
<svg version="1.1" id="Слой_1" xmlns="http://www.w3.org/2000/svg" xmlns:xlink="http://www.w3.org/1999/xlink" x="0px" y="0px"
	 width="32px" height="32px" viewBox="0 0 32 32" style="enable-background:new 0 0 32 32;" xml:space="preserve">
<g>
	<circle style="fill:#0268C3;" cx="16" cy="16" r="16"/>
	<g>
		<path style="fill:#FFFFFF;" d="M21.5,15.4v-2.1h-3.1V12h3.1V9.9H10.3V12h3v1.3h-0.2c-2.1,0-3.8,1.7-3.8,3.8s1.7,3.8,3.8,3.8h0.2v2
			h1.9v-2h1.3v2h1.9v-2h3.1v-2.1h-3.1v-3.4H21.5z M13.3,18.8h-0.2c-0.9,0-1.7-0.8-1.7-1.7c0-0.9,0.8-1.7,1.7-1.7h0.2V18.8z
			 M16.5,18.8h-1.3v-3.4h1.3V18.8z M15.2,13.3V12h1.3v1.3H15.2z"/>
		<path style="fill:#FFFFFF;" d="M16,5.2c5.9,0,10.8,4.8,10.8,10.8S21.9,26.8,16,26.8S5.2,21.9,5.2,16S10.1,5.2,16,5.2 M16,3.6
			c-3.3,0-6.4,1.3-8.7,3.6C4.9,9.6,3.6,12.7,3.6,16s1.3,6.4,3.6,8.7s5.4,3.6,8.7,3.6s6.4-1.3,8.7-3.6s3.6-5.4,3.6-8.7
			s-1.3-6.4-3.6-8.7C22.4,4.9,19.3,3.6,16,3.6L16,3.6z"/>
	</g>
</g>
</svg>
