<?xml version="1.0" encoding="utf-8"?>
<!-- Generator: Adobe Illustrator 22.1.0, SVG Export Plug-In . SVG Version: 6.00 Build 0)  -->
<svg version="1.1" id="Слой_1" xmlns="http://www.w3.org/2000/svg" xmlns:xlink="http://www.w3.org/1999/xlink" x="0px" y="0px"
	 viewBox="0 0 32 32" style="enable-background:new 0 0 32 32;" xml:space="preserve">
<style type="text/css">
	.st0{fill:#FFFFFF;}
	.st1{fill:#020202;}
</style>
<g>
	<circle class="st0" cx="16" cy="16" r="16"/>
	<g>
		<path class="st1" d="M16,28.4c-3.5,0-6.9-1.5-9.3-4.1c-0.5-0.5-0.4-1.3,0.1-1.7c0.5-0.5,1.3-0.4,1.7,0.1c1.9,2.1,4.6,3.3,7.4,3.3
			c2.8,0,5.6-1.2,7.5-3.3c0.5-0.5,1.2-0.5,1.7-0.1c0.5,0.5,0.5,1.2,0.1,1.7C22.9,26.9,19.5,28.4,16,28.4z"/>
		<path class="st1" d="M26.7,20.6c-0.1,0-0.3,0-0.4-0.1c-0.6-0.2-1-0.9-0.8-1.6c0.3-1,0.5-2.1,0.5-3.2c0-4.7-3.2-8.7-7.7-9.8
			c-0.7-0.2-1.1-0.8-0.9-1.5c0.2-0.7,0.8-1.1,1.5-0.9c2.7,0.6,5.1,2.2,6.9,4.4c1.8,2.2,2.7,5,2.7,7.8c0,1.3-0.2,2.7-0.6,3.9
			C27.7,20.3,27.2,20.6,26.7,20.6z"/>
		<path class="st1" d="M5.3,20.7c-0.5,0-1-0.3-1.2-0.8c-0.4-1.3-0.7-2.6-0.7-4c0-2.9,1-5.7,2.8-7.9c1.8-2.2,4.3-3.7,7-4.3
			c0.7-0.1,1.3,0.3,1.5,0.9c0.1,0.7-0.3,1.3-0.9,1.5C9.3,7,6,11.2,6,15.9C6,17,6.1,18,6.5,19.1c0.2,0.6-0.1,1.3-0.8,1.6
			C5.6,20.7,5.4,20.7,5.3,20.7z"/>
		<circle class="st1" cx="16.1" cy="16" r="2.5"/>
	</g>
</g>
</svg>
