<?xml version="1.0" encoding="utf-8"?>
<!-- Generator: Adobe Illustrator 22.1.0, SVG Export Plug-In . SVG Version: 6.00 Build 0)  -->
<svg version="1.1" id="Слой_1" xmlns="http://www.w3.org/2000/svg" xmlns:xlink="http://www.w3.org/1999/xlink" x="0px" y="0px"
	 viewBox="0 0 32 32" style="enable-background:new 0 0 32 32;" xml:space="preserve">
<style type="text/css">
	.st0{fill:url(#SVGID_1_);}
	.st1{fill:#FFFFFF;}
	.st2{fill:url(#SVGID_2_);}
	.st3{fill:url(#SVGID_3_);}
	.st4{fill:url(#SVGID_4_);}
	.st5{fill:url(#SVGID_5_);}
</style>
<g>
	<linearGradient id="SVGID_1_" gradientUnits="userSpaceOnUse" x1="0" y1="-9.094947e-13" x2="32" y2="32">
		<stop  offset="0" style="stop-color:#52C980"/>
		<stop  offset="1" style="stop-color:#40C3B9"/>
	</linearGradient>
	<rect class="st0" width="32" height="32"/>
	<path class="st1" d="M21.9,16.1C21.9,16.1,21.9,16.1,21.9,16.1c1.2,0,4.3,0,5.9,0c0,0,0,0,0,0c0-0.8-0.1-1.5-0.2-2.2L21.8,15
		C21.9,15.3,21.9,15.7,21.9,16.1z"/>
	<path class="st1" d="M21.6,18.1c-0.1,0.3-0.2,0.6-0.4,0.9l5.1,3c0.3-0.6,0.6-1.2,0.9-1.8L21.6,18.1z"/>
	<path class="st1" d="M16.2,21.8c-3.2,0-5.8-2.6-5.8-5.8c0-3.2,2.5-5.7,5.7-5.8c0-2.2,0-5,0-5.9C9.7,4.4,4.5,9.7,4.5,16.1
		c0,6.4,5.2,11.7,11.7,11.7c3.6,0,6.8-1.6,9-4.2c-0.9-0.7-3.2-2.7-4.5-3.8C19.6,21,18,21.8,16.2,21.8z"/>
	<path class="st1" d="M20.6,12.4l4.6-3.8c-0.4-0.5-0.9-1-1.4-1.4c-1.1,1.3-3.1,3.6-3.9,4.5C20.1,11.9,20.4,12.1,20.6,12.4z"/>
	<linearGradient id="SVGID_2_" gradientUnits="userSpaceOnUse" x1="15.2688" y1="6.6616" x2="22.9021" y2="9.4399">
		<stop  offset="0.2698" style="stop-color:#FFFFFF;stop-opacity:0"/>
		<stop  offset="1" style="stop-color:#FFFFFF;stop-opacity:0.5"/>
	</linearGradient>
	<path class="st2" d="M16.2,10.3c1.4,0,2.7,0.5,3.7,1.4c0.7-0.9,2.7-3.2,3.9-4.5c-2-1.7-4.7-2.8-7.6-2.8c0,0,0,0-0.1,0
		C16.1,5.3,16.1,8.1,16.2,10.3C16.1,10.3,16.1,10.3,16.2,10.3z"/>
	<linearGradient id="SVGID_3_" gradientUnits="userSpaceOnUse" x1="22.5992" y1="10.092" x2="25.4953" y2="15.1082">
		<stop  offset="0.3757" style="stop-color:#FFFFFF;stop-opacity:0"/>
		<stop  offset="1" style="stop-color:#FFFFFF;stop-opacity:0.4"/>
	</linearGradient>
	<path class="st3" d="M21.8,15l5.8-1.1c-0.4-2-1.2-3.8-2.5-5.3l-4.6,3.8C21.2,13.1,21.6,14,21.8,15z"/>
	<linearGradient id="SVGID_4_" gradientUnits="userSpaceOnUse" x1="24.7092" y1="16.0721" x2="24.7092" y2="20.18">
		<stop  offset="0.2698" style="stop-color:#FFFFFF;stop-opacity:0"/>
		<stop  offset="1" style="stop-color:#FFFFFF;stop-opacity:0.5"/>
	</linearGradient>
	<path class="st4" d="M21.9,16.1c0,0.7-0.1,1.4-0.3,2l5.5,2.1c0.5-1.3,0.7-2.7,0.7-4.1C26.2,16.1,23.2,16.1,21.9,16.1z"/>
	<linearGradient id="SVGID_5_" gradientUnits="userSpaceOnUse" x1="23.7882" y1="19.8751" x2="22.7708" y2="22.6705">
		<stop  offset="0.2698" style="stop-color:#FFFFFF;stop-opacity:0"/>
		<stop  offset="0.9729" style="stop-color:#FFFFFF;stop-opacity:0.3"/>
		<stop  offset="1" style="stop-color:#FFFFFF;stop-opacity:0.5"/>
	</linearGradient>
	<path class="st5" d="M20.6,19.7c1.3,1.1,3.7,3.1,4.5,3.8c0.4-0.5,0.8-1,1.1-1.6l-5.1-3C21,19.2,20.8,19.5,20.6,19.7z"/>
</g>
</svg>
