<?xml version="1.0" encoding="utf-8"?>
<!-- Generator: Adobe Illustrator 22.1.0, SVG Export Plug-In . SVG Version: 6.00 Build 0)  -->
<svg version="1.1" id="Слой_1" xmlns="http://www.w3.org/2000/svg" xmlns:xlink="http://www.w3.org/1999/xlink" x="0px" y="0px"
	 viewBox="0 0 32 32" style="enable-background:new 0 0 32 32;" xml:space="preserve">
<style type="text/css">
	.st0{fill:url(#SVGID_1_);}
	.st1{fill:#FFFFFF;}
</style>
<g>
	<linearGradient id="SVGID_1_" gradientUnits="userSpaceOnUse" x1="16" y1="32" x2="16" y2="-9.094947e-13">
		<stop  offset="0" style="stop-color:#EF4929"/>
		<stop  offset="1" style="stop-color:#FAB366"/>
	</linearGradient>
	<circle class="st0" cx="16" cy="16" r="16"/>
	<g>
		<path class="st1" d="M25.3,19.8c-0.3-0.2-3.2-1.7-3.2-1.7v-4l3.1-1.7c0,0,0.5-0.3,0.5-1s-0.2-1-0.5-1.1s-8.6-4.7-8.6-4.7
			S16,5.3,15.3,5.7s-8.7,4.7-8.7,4.7s-0.3,0.2-0.4,0.6V21c0,0,0,0.6,0.9,1c0.9,0.4,8.2,4.3,8.2,4.3s0.8,0.3,1.4,0
			c0.6-0.3,8.7-4.6,8.7-4.6s0.4-0.2,0.4-0.9S25.6,20,25.3,19.8z M16.5,6.8c0,0,7.8,4.1,8,4.3s0,0.5,0,0.5L21.8,13l-5.3-2.8V6.8z
			 M7.3,11.2l8.1-4.4v3.4l-5.6,3.1V18l-2.6,1.4V11.2z M15.4,25.2c0,0-7.9-4.2-8-4.3c-0.1-0.1-0.1-0.3-0.1-0.3l2.6-1.4
			c0,0.2,0.2,0.3,0.2,0.3l5.4,2.9V25.2z M15.4,21.2L11,18.8v-4.1l4.4,2.4V21.2z M16,16l-4.7-2.5l4.7-2.5l4.6,2.6L16,16z M21,14.7v4
			l-4.5,2.5v-4.1L21,14.7z M24.6,20.9l-8.1,4.3c0,0,0-2.8,0-2.8c0,0,5.2-2.8,5.4-3c0.2-0.2,0.2-0.3,0.2-0.3s2.3,1.3,2.5,1.4
			C24.8,20.7,24.6,20.9,24.6,20.9z"/>
	</g>
</g>
</svg>
