<?xml version="1.0" encoding="utf-8"?>
<!-- Generator: Adobe Illustrator 21.1.0, SVG Export Plug-In . SVG Version: 6.00 Build 0)  -->
<svg version="1.1" id="Слой_1" xmlns="http://www.w3.org/2000/svg" xmlns:xlink="http://www.w3.org/1999/xlink" x="0px" y="0px"
	 viewBox="0 0 32 32" style="enable-background:new 0 0 32 32;" xml:space="preserve">
<style type="text/css">
	.st0{fill:#2F95DF;}
	.st1{fill:#353C46;}
</style>
<title>color/xrp</title>
<desc>Created with Sketch.</desc>
<g>
	<circle class="st0" cx="29.3" cy="15" r="2.7"/>
	<g>
		<path class="st1" d="M19.4,29c-6.6,0-11.8-4.7-12.6-11.2c-0.7-6.4,3.1-12,9.2-13.6c3.6-1,7-0.4,10.1,1.5c1.3,0.8,1.6,2.6,0.8,3.9
			c-0.6,1-2.3,1.3-3.5,0.6c-3.3-1.8-6.6-1.5-9.2,1c-3.4,3.2-2.7,9.2,1.4,11.5c3.1,1.8,6.2,1.1,8.8-1c0.3-0.2,0.5-0.5,0.8-0.7
			c1.1-0.9,2.5-0.8,3.6,0.2c0.9,0.9,1,2.4,0.1,3.4C26.5,27.5,23.3,29,19.4,29z"/>
		<path class="st1" d="M0,16.2c0-3.3,0-6.6,0-10c0-1.6,1-2.6,2.6-2.6c1.6,0,2.7,1.1,2.7,2.6c0,6.6,0,13.3,0,19.9
			c0,1.5-1.2,2.7-2.7,2.7c-1.5,0-2.6-1.1-2.6-2.6C0,22.9,0,19.6,0,16.2C0,16.2,0,16.2,0,16.2z"/>
	</g>
</g>
</svg>
