<?xml version="1.0" encoding="utf-8"?>
<!-- Generator: Adobe Illustrator 21.1.0, SVG Export Plug-In . SVG Version: 6.00 Build 0)  -->
<svg version="1.1" id="Слой_1" xmlns="http://www.w3.org/2000/svg" xmlns:xlink="http://www.w3.org/1999/xlink" x="0px" y="0px"
	 viewBox="0 0 32 32" style="enable-background:new 0 0 32 32;" xml:space="preserve">
<style type="text/css">
	.st0{fill:#3058A6;}
	.st1{fill:#FFFFFF;}
</style>
<g>
	<path class="st0" d="M32,16c0,8.8-7.2,16.1-16.2,16C7.2,31.9-0.1,24.9,0,15.8C0.1,7.1,7.3-0.1,16.3,0C24.9,0.1,32,7.2,32,16z
		 M16,1.1C7.8,1.1,1.1,7.8,1.1,16c0,8.3,6.7,14.9,14.8,14.9c8.3,0.1,15-6.7,15-14.8C31,7.8,24.3,1.1,16,1.1z"/>
	<path class="st1" d="M16,1.1c8.3,0,15,6.7,14.9,15c0,8.1-6.7,14.9-15,14.8C7.7,30.9,1.1,24.2,1.1,16C1.1,7.8,7.8,1.1,16,1.1z M2,16
		C2,23.6,8.1,29.9,16,30c7.8,0,14-6.2,14-14c0-7.7-6.2-14-14-14C8.1,2,2,8.4,2,16z"/>
	<path class="st0" d="M2,16C2,8.4,8.1,2,16,2c7.8,0,14,6.2,14,14c0,7.7-6.2,14-14,14C8.1,29.9,2,23.6,2,16z M20.3,21
		c-0.2,0-0.3,0-0.4,0c-1.1,0-2.2,0-3.3,0c-1,0-1.5-0.5-1.3-1.6c0.4-2.1,0.9-4.1,1.3-6.2c0.1-0.3,0.2-0.3,0.4-0.3c1.3,0,2.7,0,4,0
		c0.2,0,0.4-0.1,0.4-0.3c0.2-0.8,0.4-1.6,0.6-2.4c0-0.2,0.1-0.4,0.1-0.6c-1.6,0-3.1,0-4.6,0c0.3-1.3,0.6-2.6,0.9-3.9
		c-0.2,0-0.3,0-0.4,0c-1,0-2.1,0-3.1,0c-0.3,0-0.4,0.1-0.5,0.4c-0.2,1.1-0.5,2.2-0.7,3.3c-0.1,0.3-0.2,0.3-0.4,0.3
		c-1.2,0-2.3,0-3.5,0c-0.2,0-0.3,0-0.4,0.3c-0.2,0.9-0.4,1.8-0.6,2.7c0,0.1,0,0.2,0,0.3c1.4,0,2.7,0,4.1,0c-0.2,0.7-0.3,1.4-0.5,2.1
		c-0.4,1.8-0.8,3.6-1.2,5.4c-0.2,1.1-0.1,2.1,0.8,2.9c0.8,0.7,1.7,1,2.7,1c1.5,0.1,3.1,0,4.6,0.1c0.2,0,0.3-0.1,0.3-0.3
		c0.1-0.5,0.2-1,0.3-1.5C20,22.2,20.1,21.6,20.3,21z M22,14c-0.1,0-0.3,0-0.4,0c-1.3,0-2.6,0-3.8,0c-0.3,0-0.4,0.1-0.5,0.4
		c-0.2,1.1-0.5,2.3-0.7,3.4c-0.1,0.6-0.3,1.1-0.4,1.7c0,0.2,0,0.4,0,0.5c0.2,0.1,0.5,0.1,0.7,0.1c0.1,0,0.2-0.2,0.2-0.3
		c0.3-1.4,0.6-2.9,0.9-4.3c0.1-0.3,0.2-0.5,0.6-0.5c1.3,0,2.6,0,3.9,0c0.2,0,0.4-0.1,0.4-0.3c0.3-1.1,0.5-2.2,0.8-3.3
		c0.2-0.7-0.3-1.2-0.5-1.7c0,0-0.1,0-0.1,0C22.7,11,22.4,12.5,22,14z M21.4,20.9C21.4,20.9,21.3,20.9,21.4,20.9
		c-0.4,1.4-0.7,2.8-1,4.2c-0.1,0.3-0.1,0.4-0.4,0.4c-1.6,0-3.3,0-4.9,0c-1,0-2-0.2-2.9-0.7c-0.3-0.2-0.6-0.4-0.9-0.5
		c0.2,0.3,0.3,0.6,0.6,0.8c1.1,1,2.4,1.3,3.8,1.4c1.7,0,3.4,0,5.1,0c0.2,0,0.4-0.1,0.4-0.3c0.3-1.2,0.6-2.5,0.9-3.7
		c0-0.1,0-0.2,0-0.3C21.8,21.7,21.6,21.3,21.4,20.9z M8.3,14C8.2,14.1,8.2,14.1,8.3,14c0.3,0.3,0.6,0.6,1,0.9c0.1,0,0.1,0.1,0.2,0.1
		c0.5,0,1.1,0,1.6,0c0.1,0,0.2-0.1,0.2-0.1c0.1-0.3,0.1-0.5,0.2-0.8C10.4,14,9.3,14,8.3,14z M18.6,8.7c0.3,0,0.5,0,0.7,0
		c0.2,0,0.3-0.1,0.3-0.3c0.1-0.4,0.2-0.8,0.3-1.2c0-0.1,0.1-0.3,0-0.4c-0.2-0.4-0.4-0.8-0.6-1.2c0,0-0.1,0-0.1,0
		C19,6.6,18.8,7.6,18.6,8.7z"/>
	<path class="st1" d="M20.3,21c-0.1,0.6-0.3,1.1-0.4,1.7c-0.1,0.5-0.2,1-0.3,1.5c0,0.2-0.1,0.3-0.3,0.3c-1.5,0-3.1,0-4.6-0.1
		c-1,0-2-0.3-2.7-1c-0.9-0.8-1-1.8-0.8-2.9c0.4-1.8,0.8-3.6,1.2-5.4c0.1-0.7,0.3-1.4,0.5-2.1c-1.4,0-2.7,0-4.1,0c0-0.1,0-0.2,0-0.3
		c0.2-0.9,0.4-1.8,0.6-2.7c0-0.2,0.2-0.3,0.4-0.3c1.2,0,2.3,0,3.5,0c0.3,0,0.4,0,0.4-0.3c0.2-1.1,0.5-2.2,0.7-3.3
		c0.1-0.3,0.2-0.4,0.5-0.4c1,0,2.1,0,3.1,0c0.1,0,0.2,0,0.4,0c-0.3,1.3-0.6,2.6-0.9,3.9c1.6,0,3.1,0,4.6,0c0,0.2-0.1,0.4-0.1,0.6
		c-0.2,0.8-0.4,1.6-0.6,2.4C21.3,13,21.1,13,20.9,13c-1.3,0-2.7,0-4,0c-0.3,0-0.4,0.1-0.4,0.3c-0.4,2.1-0.9,4.1-1.3,6.2
		c-0.2,1,0.3,1.6,1.3,1.6c1.1,0,2.2,0,3.3,0C20,21,20.1,21,20.3,21z"/>
	<path class="st1" d="M22,14c0.4-1.5,0.7-3,1-4.4c0,0,0.1,0,0.1,0c0.2,0.6,0.7,1,0.5,1.7c-0.3,1.1-0.5,2.2-0.8,3.3
		c-0.1,0.2-0.2,0.3-0.4,0.3c-1.3,0-2.6,0-3.9,0c-0.4,0-0.5,0.1-0.6,0.5c-0.3,1.4-0.6,2.9-0.9,4.3c0,0.1-0.1,0.3-0.2,0.3
		c-0.2,0-0.5,0-0.7-0.1c-0.1,0-0.1-0.3,0-0.5c0.1-0.6,0.2-1.1,0.4-1.7c0.3-1.1,0.5-2.3,0.7-3.4c0.1-0.3,0.2-0.4,0.5-0.4
		c1.3,0,2.6,0,3.8,0C21.7,14,21.9,14,22,14z"/>
	<path class="st1" d="M21.4,20.9c0.2,0.4,0.4,0.8,0.6,1.2c0,0.1,0,0.2,0,0.3c-0.3,1.2-0.6,2.5-0.9,3.7c-0.1,0.2-0.2,0.3-0.4,0.3
		c-1.7,0-3.4,0-5.1,0c-1.4,0-2.8-0.4-3.8-1.4c-0.2-0.2-0.4-0.5-0.6-0.8c0.3,0.2,0.6,0.4,0.9,0.5c0.9,0.5,1.9,0.7,2.9,0.7
		c1.6,0,3.3,0,4.9,0c0.3,0,0.4-0.1,0.4-0.4C20.7,23.7,21,22.3,21.4,20.9C21.3,20.9,21.4,20.9,21.4,20.9z"/>
	<path class="st1" d="M8.3,14c1.1,0,2.1,0,3.2,0c-0.1,0.3-0.1,0.6-0.2,0.8c0,0.1-0.2,0.1-0.2,0.1c-0.5,0-1.1,0-1.6,0
		c-0.1,0-0.2,0-0.2-0.1C8.9,14.6,8.6,14.4,8.3,14C8.2,14.1,8.2,14.1,8.3,14z"/>
	<path class="st1" d="M18.6,8.7c0.2-1.1,0.5-2.1,0.7-3.1c0,0,0.1,0,0.1,0c0.2,0.4,0.4,0.8,0.6,1.2c0,0.1,0,0.2,0,0.4
		c-0.1,0.4-0.2,0.8-0.3,1.2c0,0.2-0.1,0.3-0.3,0.3C19.1,8.7,18.8,8.7,18.6,8.7z"/>
</g>
</svg>
