<?xml version="1.0" encoding="utf-8"?>
<!-- Generator: Adobe Illustrator 22.1.0, SVG Export Plug-In . SVG Version: 6.00 Build 0)  -->
<svg version="1.1" id="Слой_1" xmlns="http://www.w3.org/2000/svg" xmlns:xlink="http://www.w3.org/1999/xlink" x="0px" y="0px"
	 viewBox="0 0 32 32" style="enable-background:new 0 0 32 32;" xml:space="preserve">
<style type="text/css">
	.st0{fill:url(#SVGID_1_);}
	.st1{fill:#003856;}
	.st2{fill:#4B4B4E;}
</style>
<g>
	<linearGradient id="SVGID_1_" gradientUnits="userSpaceOnUse" x1="2.1436" y1="16.0667" x2="29.8564" y2="16.0667">
		<stop  offset="0" style="stop-color:#00293E"/>
		<stop  offset="1" style="stop-color:#003856"/>
	</linearGradient>
	<path class="st0" d="M16,4.9l9.7,5.6v11.2L16,27.2l-9.7-5.6V10.5L16,4.9 M16,0.1l-13.9,8v16l13.9,8l13.9-8v-16L16,0.1L16,0.1z"/>
	<g>
		<path class="st1" d="M23.3,16c0,0.9-0.1,1.7-0.4,2.5c-0.3,0.6-0.6,1.1-1.2,1.3c-0.8,0.3-1.7,0.1-2.3-0.7c-0.4-0.6-0.6-1.2-0.7-1.9
			c-0.1-0.9-0.1-1.8,0.1-2.6c0.1-0.6,0.3-1.1,0.7-1.5c0.9-1,2.3-1,3.1,0.1c0.4,0.6,0.6,1.2,0.7,1.9C23.2,15.3,23.2,15.7,23.3,16z
			 M19.6,16c0,0.6,0,1.2,0.1,1.8c0.1,0.5,0.2,1,0.5,1.5c0.4,0.5,0.9,0.5,1.3,0c0,0,0,0,0-0.1c0.4-0.6,0.5-1.3,0.5-2
			c0.1-1,0.1-1.9-0.1-2.9c-0.1-0.5-0.2-1.1-0.5-1.5c-0.4-0.5-0.9-0.5-1.3,0c-0.2,0.2-0.3,0.5-0.3,0.7C19.7,14.4,19.6,15.2,19.6,16z"
			/>
		<path class="st1" d="M14.5,19.2c0.1,0,0.1,0,0.2,0c0.9,0,1.8,0,2.8,0c0.2,0,0.2,0,0.3-0.2c0-0.2,0.1-0.4,0.1-0.6
			c0-0.1,0-0.2,0.2-0.1c0.1,0,0.1,0.1,0.1,0.2c0,0.4,0,0.8,0,1.3c0,0.2,0,0.2-0.2,0.2c-1.3,0-2.6,0-3.9,0c-0.1,0-0.2,0-0.4,0
			c0,0-0.1,0-0.1,0c0-0.1,0-0.1,0.1-0.1c0.3-0.4,0.7-0.7,1-1.1c0.7-0.7,1.3-1.5,1.8-2.3c0.5-0.9,0.7-1.8,0.4-2.8
			c-0.1-0.5-0.4-0.8-0.9-0.9c-0.6-0.1-1,0.1-1.4,0.5c-0.2,0.2-0.3,0.5-0.4,0.8c-0.1,0.4,0.1,0.7,0.6,0.8c0.4,0,0.4,0,0.4,0.4
			c0,0.1,0.1,0.2,0.1,0.3c0,0.1,0,0.2-0.1,0.2c-0.5,0.1-1-0.2-1.1-0.7c-0.5-1.5,0.8-2.7,2.1-2.5c1,0.1,1.7,0.8,1.9,1.7
			c0.1,0.7-0.1,1.3-0.4,1.8c-0.3,0.6-0.8,1.2-1.3,1.7C15.8,18.1,15.2,18.7,14.5,19.2z"/>
		<path class="st2" d="M10.1,16.1c0,0.8,0,1.6,0.3,2.4c0.1,0.2,0.2,0.5,0.3,0.7c0.5,0.6,1.3,0.7,1.8,0.2c0.4-0.4,0.7-0.8,0.8-1.4
			c0,0,0-0.1,0-0.1c0-0.1,0.1-0.1,0.1-0.1c0.1,0,0.1,0.1,0.1,0.1c-0.1,0.5-0.3,1-0.6,1.4c-0.8,0.9-2,0.8-2.9,0
			c-0.6-0.6-0.9-1.3-1-2.1c-0.2-0.9-0.1-1.9,0.1-2.8c0.2-0.8,0.6-1.4,1.3-1.9c0.7-0.4,1.4-0.4,2,0.1c0.1,0.1,0.1,0.1,0.2,0
			c0.1-0.1,0.2-0.2,0.4-0.3c0.2-0.1,0.2,0,0.2,0.2c0,0.5,0,1,0,1.6c0,0.1,0,0.2-0.1,0.2c-0.1,0-0.1-0.1-0.1-0.1
			c-0.2-0.5-0.3-1-0.7-1.3c-0.5-0.4-1.2-0.4-1.6,0.1c-0.3,0.4-0.5,0.9-0.6,1.3C10.1,14.8,10.1,15.5,10.1,16.1z"/>
	</g>
</g>
</svg>
