<?xml version="1.0" encoding="utf-8"?>
<!-- Generator: Adobe Illustrator 22.1.0, SVG Export Plug-In . SVG Version: 6.00 Build 0)  -->
<svg version="1.1" id="Слой_1" xmlns="http://www.w3.org/2000/svg" xmlns:xlink="http://www.w3.org/1999/xlink" x="0px" y="0px"
	 width="32px" height="32px" viewBox="0 0 32 32" style="enable-background:new 0 0 32 32;" xml:space="preserve">
<g>
	<path style="fill:#267F3F;" d="M0,32C0,21.3,0,10.7,0,0c10.7,0,21.3,0,32,0c0,10.7,0,21.3,0,32C21.3,32,10.7,32,0,32z M1.9,19
		L1.9,19c0,2.6,0,5.1,0,7.7c0,1.8,0.8,3,2.5,3.5c2,0.6,4,0.6,6-0.1c1.2-0.4,2-1.3,2.2-2.6c0.1-0.4,0.1-0.8,0.1-1.2c0-5,0-9.9,0-14.9
		c0-0.3,0-0.6-0.1-1C12.3,8.7,10.9,8,9.4,7.7C8,7.4,6.6,7.4,5.2,7.7C4.3,7.9,3.4,8.2,2.7,9c-0.6,0.7-0.8,1.5-0.8,2.3
		C1.9,13.9,1.9,16.5,1.9,19z M18.1,30.5c0-0.3,0-0.5,0-0.8c0-3.2,0-6.3,0-9.5c0-3,0-6.1,0-9.1c0-0.5,0.1-0.9,0.6-1.1
		c0.9-0.4,2.1-0.2,2.1,1.2c0,0.1,0,0.2,0,0.3c0,6.1,0,12.3,0,18.4c0,0.2,0,0.3,0,0.5c1.2,0,2.4,0,3.5,0c0.5,0,0.5,0,0.5-0.5
		c0-6.3,0-12.5-0.1-18.8c0-0.1,0-0.2,0-0.3c-0.4,0-0.9,0-1.3,0c-1.2,0-2-0.7-2.2-1.8c-0.1-0.5-0.1-1-0.1-1.6c-1,0-2,0.2-3,0.8
		c0-0.3,0-0.6,0-0.8c-1.4,0-2.7,0-4,0c0,7.7,0,15.3,0,22.9C15.4,30.5,16.7,30.5,18.1,30.5z M21.3,7.3c1,0,1.8,0.3,2.5,1
		c0.6,0.6,1,1.4,1.1,2.4c2,0,4,0,6,0c0-2,0-3.9,0-5.8c-1.8,0-3.5,0-5.3,0c0,0.5,0,0.9,0,1.4c0.6,0,1.2,0,1.9,0c0,0.8,0,1.5,0,2.3
		c0,0.5-0.3,0.7-0.8,0.7c-0.4,0-0.7,0-1.1,0c-0.8,0-1-0.2-1-1c0-1.7,0-3.5,0-5.2c0-0.7,0.3-1,1-1c1.5,0,2.9,0,4.4,0
		c0.1,0,0.3,0,0.4,0c0-0.5,0-1,0-1.4c-0.2,0-0.3,0-0.4,0c-2.2,0-4.4,0-6.6,0c-1,0-1.7,0.5-1.9,1.5c-0.1,0.4-0.1,0.8-0.1,1.2
		C21.3,4.6,21.3,5.9,21.3,7.3z"/>
	<path style="fill:#267F3F;" d="M6,19c0-2.6,0-5.2,0-7.8c0-0.6,0.3-1,0.7-1.2C7.3,9.8,8,9.9,8.3,10.4c0.2,0.2,0.3,0.6,0.3,0.9
		c0,5.2,0,10.3,0,15.5c0,0.5-0.1,1-0.7,1.2c-0.5,0.2-1.1,0.2-1.6-0.2C6.2,27.5,6,27,6,26.7C6,24.1,6,21.5,6,19L6,19z"/>
</g>
</svg>
