<?xml version="1.0" encoding="utf-8"?>
<!-- Generator: Adobe Illustrator 21.1.0, SVG Export Plug-In . SVG Version: 6.00 Build 0)  -->
<svg version="1.1" id="Слой_1" xmlns="http://www.w3.org/2000/svg" xmlns:xlink="http://www.w3.org/1999/xlink" x="0px" y="0px"
	 viewBox="0 0 32 32" style="enable-background:new 0 0 32 32;" xml:space="preserve">
<style type="text/css">
	.st0{fill:url(#SVGID_1_);}
	.st1{fill:url(#SVGID_2_);}
	.st2{fill:url(#SVGID_3_);}
</style>
<title>color/xrp</title>
<desc>Created with Sketch.</desc>
<g>
	<radialGradient id="SVGID_1_" cx="16.6894" cy="24.0045" r="11.5744" gradientUnits="userSpaceOnUse">
		<stop  offset="0" style="stop-color:#EDEDED"/>
		<stop  offset="1" style="stop-color:#ABABAB"/>
	</radialGradient>
	<path class="st0" d="M21.2,27c2.9,0.6,5.8,1.1,8.8,1.7c0.5,0.1,1.1,0.2,1.6,0.3c0.2,0,0.5,0.1,0.4,0.4c0,0.3-0.2,0.3-0.5,0.3
		c-0.1,0-0.3,0-0.4,0c-4.1,0-28.4,0.1-29.4,0c-0.1,0-0.3,0.1-0.4-0.1c-0.1-0.1,0.1-0.3,0.2-0.4c1.1-1.3,2.1-2.6,3.2-3.9
		c1.4-1.7,2.9-3.5,4.3-5.2c0.5-0.6,1-1.2,1.5-1.8c0.2-0.2,0.3-0.3,0.6-0.2c0.3,0.1,0.3,0.4,0.2,0.6c-0.4,1.2-0.8,2.5-1.2,3.7
		c-0.1,0.3-0.2,0.7-0.4,1c-0.2,0.7,0,1,0.7,1.2c1.9,0.4,3.8,0.8,5.7,1.2C16.4,26,20,26.7,21.2,27z"/>
	<linearGradient id="SVGID_2_" gradientUnits="userSpaceOnUse" x1="0" y1="16.1829" x2="20.0055" y2="16.1829">
		<stop  offset="0" style="stop-color:#55C4DF"/>
		<stop  offset="1" style="stop-color:#2F7BBE"/>
	</linearGradient>
	<path class="st1" d="M20,16.5c0,0.2-0.1,0.4-0.3,0.5c-0.2,0.1-0.4,0-0.5-0.1c-0.4-0.4-0.7-0.8-1.1-1.2c-0.8-0.9-1.6-1.8-2.5-2.7
		c-0.5-0.5-0.7-0.5-1.1,0c-1,1.1-1.9,2.2-2.9,3.4C10,18.3,8.4,20.1,6.8,22C4.9,24.3,3,26.6,1,28.9c-0.1,0.1-0.2,0.2-0.3,0.3
		c-0.2,0.2-0.4,0.3-0.6,0.1c-0.2-0.2-0.1-0.4,0-0.6c0.8-1.4,1.6-2.8,2.4-4.2c1.3-2.2,2.5-4.4,3.8-6.6c1.8-3,3.5-6.1,5.3-9.1
		c1.1-1.8,2.1-3.7,3.2-5.5C14.8,3.2,14.9,3,15.1,3c0.2,0,0.2,0.2,0.2,0.4c1.4,3.8,2.7,7.6,4.1,11.4C19.6,15.4,19.8,16,20,16.5z"/>
	<linearGradient id="SVGID_3_" gradientUnits="userSpaceOnUse" x1="23.5767" y1="28.2572" x2="23.5767" y2="2.2025">
		<stop  offset="0" style="stop-color:#55C4DF"/>
		<stop  offset="1" style="stop-color:#2F7BBE"/>
	</linearGradient>
	<path class="st2" d="M31.1,28.2c-1.4-0.3-2.8-0.6-4.2-0.8c-3-0.6-6-1.2-8.9-1.8c-0.3-0.1-0.8,0-0.8-0.5c0-0.5,0.5-0.5,0.8-0.6
		c1.4-0.4,2.8-0.8,4.3-1.1c0.7-0.2,0.8-0.4,0.6-1.1c-1.3-3.8-2.7-7.6-4-11.3c-0.9-2.7-1.9-5.3-2.8-8c-0.1-0.2-0.1-0.4,0-0.6
		c0.2-0.3,0.5-0.3,0.7,0.1c0.8,1.3,1.5,2.7,2.3,4c2,3.4,3.9,6.8,5.9,10.1c2.1,3.7,4.3,7.4,6.4,11c0.1,0.1,0.1,0.2,0.2,0.3
		C31.4,28.2,31.3,28.3,31.1,28.2z"/>
</g>
</svg>
