<?xml version="1.0" encoding="utf-8"?>
<!-- Generator: Adobe Illustrator 22.1.0, SVG Export Plug-In . SVG Version: 6.00 Build 0)  -->
<svg version="1.1" id="Слой_1" xmlns="http://www.w3.org/2000/svg" xmlns:xlink="http://www.w3.org/1999/xlink" x="0px" y="0px"
	 width="32px" height="32px" viewBox="0 0 32 32" style="enable-background:new 0 0 32 32;" xml:space="preserve">
<g>
	
		<linearGradient id="SVGID_1_" gradientUnits="userSpaceOnUse" x1="16" y1="2" x2="16" y2="34" gradientTransform="matrix(1 0 0 -1 0 34)">
		<stop  offset="0" style="stop-color:#133883"/>
		<stop  offset="0.8833" style="stop-color:#2F96D2"/>
		<stop  offset="1" style="stop-color:#33A3DD"/>
	</linearGradient>
	<circle style="fill:url(#SVGID_1_);" cx="16" cy="16" r="16"/>
	<path style="fill:#D3E1EB;" d="M25.1,24.1c-0.2,0-0.4-0.1-0.6-0.3l-8.7-11L7.2,23.7c-0.3,0.3-0.7,0.4-1.1,0.1
		c-0.3-0.2-0.3-0.7-0.1-1l9.2-11.6c0.1-0.2,0.4-0.3,0.6-0.3l0,0c0.2,0,0.4,0.1,0.6,0.3L25.7,23c0.3,0.3,0.2,0.8-0.1,1.1
		C25.4,24.1,25.3,24.1,25.1,24.1z"/>
	<path style="fill:#FDFDFD;" d="M25.8,8.1c-0.4-0.1-0.8,0-1.1,0.3L16,19.1L7.3,8.4C7,8.1,6.6,7.9,6.2,8.1C5.8,8.2,5.6,8.6,5.6,9
		v14.2c0,0.5,0.4,1,1,1s1-0.4,1-1V11.7l7.7,9.6l0,0l0,0l0,0l0,0l0,0l0,0l0,0c0,0,0,0,0.1,0l0,0c0,0,0,0,0.1,0l0,0l0,0l0,0l0,0
		c0,0,0,0,0.1,0l0,0c0,0,0,0,0.1,0l0,0l0,0l0,0l0,0c0,0,0,0,0.1,0l0,0c0,0,0,0,0.1,0l0,0c0,0,0,0,0.1,0l0,0c0,0,0,0,0.1,0l0,0l0,0
		c0,0,0,0,0.1,0l0,0c0,0,0,0,0.1,0l0,0l0,0l0,0l0,0l0,0l0,0l0,0l7.7-9.6v11.5c0,0.5,0.4,1,1,1c0.5,0,1-0.4,1-1V9
		C26.4,8.6,26.2,8.2,25.8,8.1z"/>
</g>
</svg>
