<?xml version="1.0" encoding="utf-8"?>
<!-- Generator: Adobe Illustrator 22.1.0, SVG Export Plug-In . SVG Version: 6.00 Build 0)  -->
<svg version="1.1" id="Слой_1" xmlns="http://www.w3.org/2000/svg" xmlns:xlink="http://www.w3.org/1999/xlink" x="0px" y="0px"
	 width="32px" height="32px" viewBox="0 0 32 32" style="enable-background:new 0 0 32 32;" xml:space="preserve">
<g>
	<rect style="fill:#FFFFFF;" width="32" height="32"/>
	<g>
		<path style="fill:#2FAFAB;" d="M16,2.8L22,5l-6,4.4L10,5L16,2.8 M16,1.8l-0.3,0.1l-6,2.2L8,4.7l1.4,1l6,4.4l0.6,0.4l0.6-0.4l6-4.4
			l1.4-1l-1.7-0.6l-6-2.2L16,1.8L16,1.8z"/>
		<path style="fill:#2FAFAB;" d="M22.3,18.7l-1.6-1.6V9.7v-2l-1.4,1.4l-3.2,3.3l-3.2-3.3l-1.4-1.4v2V17l-1.6,1.6l-0.6,0.6l0.6,0.6
			l1.6,1.6v2v0.8v4.6v0.6v0.8H12h0.2h7.6H20h0.6v-0.8v-0.6v-4.6v-0.8v-2l1.6-1.6l0.6-0.6L22.3,18.7z M12.3,9.7l3.2,3.3l-3.2,3.3V9.7
			z M19.9,23.4v0.8v4.6v0.6h-0.6h-6.4l3.2-3.2l0.6-0.6l1.3-1.3l0.8-0.8l1.1-1.1V23.4z M20.7,20.3l-0.8,0.8l-2.3,2.3l-0.8,0.8
			L16.1,25l-0.6,0.6l-3.2,3.3v-4.6v-0.8v-1.1v-1.2v-2.7l-0.8,0.8v1l-1-1l1-1l0.8-0.8l3.8-3.8l0.6-0.6l3.2-3.3v6.5v1.2v2.7l0.8-0.8
			v-1l1,1L20.7,20.3z"/>
	</g>
</g>
</svg>
