<?xml version="1.0" encoding="utf-8"?>
<!-- Generator: Adobe Illustrator 22.1.0, SVG Export Plug-In . SVG Version: 6.00 Build 0)  -->
<svg version="1.1" id="Слой_1" xmlns="http://www.w3.org/2000/svg" xmlns:xlink="http://www.w3.org/1999/xlink" x="0px" y="0px"
	 width="32px" height="32px" viewBox="0 0 32 32" style="enable-background:new 0 0 32 32;" xml:space="preserve">
<g>
	<circle style="fill:#212C31;" cx="16" cy="16" r="16"/>
	<g>
		<path style="fill:#FEFEFE;" d="M16,3c7.2,0,13,5.8,13,13s-5.8,13-13,13S3,23.2,3,16S8.8,3,16,3 M16,2c-1.9,0-3.7,0.4-5.4,1.1
			s-3.2,1.7-4.4,3c-1.3,1.3-2.3,2.8-3,4.4C2.4,12.3,2,14.1,2,16s0.4,3.7,1.1,5.4c0.7,1.7,1.7,3.2,3,4.4c1.3,1.3,2.8,2.3,4.4,3
			c1.7,0.7,3.6,1.1,5.4,1.1s3.7-0.4,5.4-1.1c1.7-0.7,3.2-1.7,4.4-3s2.3-2.8,3-4.4c0.7-1.7,1.1-3.6,1.1-5.4s-0.4-3.7-1.1-5.4
			s-1.7-3.2-3-4.4s-2.8-2.3-4.4-3C19.7,2.4,17.9,2,16,2L16,2z"/>
		<g>
			<path style="fill:#FEFEFE;" d="M9.5,16c0-3.1,2.2-5.7,5.1-6.3V7.2c-0.7,0.1-1.4,0.3-2.1,0.6c-1.1,0.4-2,1.1-2.8,1.9
				s-1.4,1.8-1.9,2.8c-0.5,1.1-0.7,2.3-0.7,3.4c0,1.2,0.2,2.4,0.7,3.4c0.4,1.1,1.1,2,1.9,2.8s1.8,1.4,2.8,1.9
				c0.7,0.3,1.4,0.5,2.1,0.6v-2.4C11.7,21.7,9.5,19.1,9.5,16z"/>
			<path style="fill:#FEFEFE;" d="M24.2,12.5c-0.4-1.1-1.1-2-1.9-2.8s-1.8-1.4-2.8-1.9c-0.7-0.3-1.4-0.5-2.1-0.6v2.4
				c2.9,0.6,5.1,3.2,5.1,6.3s-2.2,5.7-5.1,6.3v2.4c0.7-0.1,1.4-0.3,2.1-0.6c1.1-0.4,2-1.1,2.8-1.9s1.4-1.8,1.9-2.8
				c0.5-1.1,0.7-2.3,0.7-3.4C24.9,14.8,24.6,13.6,24.2,12.5z"/>
		</g>
	</g>
</g>
</svg>
