<?xml version="1.0" encoding="utf-8"?>
<!-- Generator: Adobe Illustrator 22.1.0, SVG Export Plug-In . SVG Version: 6.00 Build 0)  -->
<svg version="1.1" id="Слой_1" xmlns="http://www.w3.org/2000/svg" xmlns:xlink="http://www.w3.org/1999/xlink" x="0px" y="0px"
	 viewBox="0 0 32 32" style="enable-background:new 0 0 32 32;" xml:space="preserve">
<style type="text/css">
	.st0{fill:#FFFFFF;}
	.st1{fill:#FEFEFE;}
	.st2{fill:#EB5305;}
	.st3{fill:#545454;}
</style>
<g>
	<g>
		<ellipse class="st0" cx="16" cy="16" rx="16" ry="15.6"/>
		<path class="st1" d="M25.6,3.5c0-0.2-0.2-0.3-0.3-0.3c-1.8-1.3-3.8-2.1-6-2.6c-2.9-0.6-5.8-0.4-8.6,0.5c-2.9,1-5.3,2.6-7.2,5
			c-1.8,2.1-2.9,4.6-3.3,7.3c-0.3,1.9-0.3,3.7,0,5.6c0.2,1.1,0.5,2.1,1,3.1c0.1,0.2,0.1,0.4,0.4,0.2c1.1-0.9,2.4-1,3.8-0.9
			c1.4,0.1,2.7,0.5,4.1,0.9c0.2,0.1,0.4,0.2,0.6-0.1c1.2-1.5,2.1-3.2,2.9-4.9c0.1-0.2,0-0.3-0.2-0.3c-0.4-0.1-0.8-0.2-1.1-0.4
			c-1.5-0.6-2.7-1.5-3.3-3c-0.8-1.8-0.7-3.7,0.1-5.5c1-2.3,4.3-5.3,8.2-4.8c0.7,0.1,1.3,0.2,1.9,0.6c0.2,0.2,0.4,0.4,0.3,0.7
			c0,0.3-0.2,0.5-0.5,0.6c-0.2,0.1-0.5,0-0.7,0c-1.2-0.3-2.4-0.4-3.6,0c-2.5,0.7-5,3-4.6,6.5c0.2,1.6,0.9,2.8,2.5,3.4
			c0.4,0.1,0.8,0.3,1.1,0.3c0.7,0.2,0.7,0.2,1-0.5c1.2-2.5,2.6-4.8,4.4-6.9c1.4-1.6,2.9-2.9,4.8-3.8C24,3.8,24.8,3.7,25.6,3.5z
			 M6.1,28.3c4.8,4,14.2,5.5,21-1c6.3-6,5.9-15,2-20.1c0,0.1-0.1,0.2-0.1,0.2c-0.3,1.3-0.9,2.4-1.7,3.4c-2.1,2.8-4.9,4.7-8.2,5.9
			c-0.3,0.1-0.5,0.3-0.6,0.6c-0.6,1.6-1.3,3.1-2.3,4.5c-0.4,0.6-0.9,1.3-1.4,1.8c-0.2,0.3-0.1,0.4,0.1,0.4c0.4,0,0.7,0.2,1.1,0.2
			c1,0.1,2.1,0.2,3.1,0.1c1.9-0.1,3.4-0.8,4.7-2.1c0.4-0.4,0.8-0.9,1.2-1.4c0.4-0.4,0.8-0.5,1.1-0.3c0.3,0.2,0.4,0.8,0.1,1.2
			c-1.1,1.6-2.2,3.2-3.7,4.6c-1.6,1.5-3.4,2-5.5,1.5c-1.5-0.4-3-1-4.4-1.7c-0.2-0.1-0.4-0.2-0.6,0C10.4,27.5,8.5,28.4,6.1,28.3z
			 M19.5,14.9c0.2,0.1,0.3-0.1,0.5-0.1c2.7-1.5,4.9-3.5,6.6-6c0.5-0.7,0.9-1.6,0.8-2.5c0-0.9-0.6-1.4-1.5-1.4
			c-1.1,0-1.8,0.7-2.4,1.4c-1,1.1-1.6,2.4-2.2,3.8c-0.5,1.1-0.9,2.3-1.4,3.5C19.7,14,19.6,14.5,19.5,14.9z M4.3,22.7
			c-0.3,0-0.6,0-0.9,0.1c-0.7,0.2-1.1,1-0.8,1.7c0.5,1.2,1.5,1.7,2.8,1.4c1.2-0.3,2-1.1,2.9-1.8c0.2-0.2,0-0.2-0.1-0.3
			C7,23.2,5.7,22.8,4.3,22.7z"/>
		<path class="st2" d="M25.6,3.5c-0.8,0.1-1.6,0.3-2.4,0.7C21.3,5,19.8,6.4,18.4,8c-1.8,2.1-3.2,4.4-4.4,6.9c-0.3,0.7-0.3,0.7-1,0.5
			c-0.4-0.1-0.8-0.2-1.1-0.3c-1.5-0.6-2.3-1.7-2.5-3.4C9.1,8.2,11.5,5.9,14,5.1c1.2-0.3,2.4-0.2,3.6,0c0.3,0.1,0.5,0.1,0.7,0
			c0.3-0.1,0.5-0.3,0.5-0.6c0-0.3-0.1-0.5-0.3-0.7c-0.6-0.4-1.2-0.5-1.9-0.6c-3.9-0.6-7.2,2.4-8.2,4.8c-0.8,1.8-0.9,3.6-0.1,5.5
			c0.6,1.5,1.9,2.4,3.3,3c0.4,0.2,0.7,0.3,1.1,0.4C13,17,13,17,12.9,17.2c-0.8,1.7-1.7,3.4-2.9,4.9c-0.2,0.3-0.4,0.2-0.6,0.1
			c-1.3-0.4-2.7-0.8-4.1-0.9c-1.4-0.1-2.7,0-3.8,0.9c-0.2,0.2-0.3,0-0.4-0.2c-0.4-1-0.8-2.1-1-3.1c-0.3-1.9-0.4-3.7,0-5.6
			c0.5-2.7,1.6-5.2,3.3-7.3c1.9-2.3,4.3-4,7.2-5c2.8-0.9,5.7-1.1,8.6-0.5c2.2,0.5,4.2,1.3,6,2.6C25.4,3.3,25.6,3.3,25.6,3.5z"/>
		<path class="st3" d="M6.1,28.3c2.3,0,4.3-0.8,6-2.1c0.2-0.2,0.4-0.1,0.6,0c1.4,0.7,2.9,1.3,4.4,1.7c2.1,0.5,3.9,0,5.5-1.5
			c1.4-1.4,2.5-3,3.7-4.6c0.3-0.4,0.2-1-0.1-1.2c-0.3-0.2-0.7-0.1-1.1,0.3c-0.4,0.4-0.7,1-1.2,1.4c-1.3,1.3-2.9,2-4.7,2.1
			c-1,0-2.1-0.1-3.1-0.1c-0.3,0-0.7-0.2-1.1-0.2c-0.2,0-0.4-0.2-0.1-0.4c0.5-0.6,1-1.2,1.4-1.8c0.9-1.4,1.7-2.9,2.3-4.5
			c0.1-0.3,0.3-0.5,0.6-0.6c3.3-1.2,6.1-3.1,8.2-5.9c0.8-1,1.4-2.2,1.7-3.4c0-0.1,0.1-0.1,0.1-0.2c3.9,5.1,4.3,14.2-2,20.1
			C20.3,33.8,10.9,32.3,6.1,28.3z"/>
		<path class="st3" d="M19.5,14.9c0.1-0.5,0.2-0.9,0.4-1.3c0.5-1.2,0.8-2.4,1.4-3.5c0.6-1.3,1.2-2.7,2.2-3.8
			c0.6-0.7,1.4-1.4,2.4-1.4c0.9,0,1.4,0.5,1.5,1.4c0,0.9-0.3,1.8-0.8,2.5c-1.7,2.5-3.9,4.5-6.6,6C19.8,14.9,19.7,15,19.5,14.9z"/>
	</g>
	<path class="st2" d="M4.3,22.7c1.4,0.1,2.6,0.5,3.8,1.1c0.1,0.1,0.3,0.2,0.1,0.3c-0.9,0.8-1.7,1.6-2.9,1.8
		c-1.3,0.3-2.3-0.2-2.8-1.4c-0.3-0.7,0.1-1.4,0.8-1.7C3.7,22.8,4,22.7,4.3,22.7z"/>
</g>
</svg>
