<?xml version="1.0" encoding="utf-8"?>
<!-- Generator: Adobe Illustrator 21.1.0, SVG Export Plug-In . SVG Version: 6.00 Build 0)  -->
<svg version="1.1" id="Слой_1" xmlns="http://www.w3.org/2000/svg" xmlns:xlink="http://www.w3.org/1999/xlink" x="0px" y="0px"
	 viewBox="0 0 32 32" style="enable-background:new 0 0 32 32;" xml:space="preserve">
<style type="text/css">
	.st0{fill:url(#SVGID_1_);}
	.st1{fill:url(#SVGID_2_);}
	.st2{fill:#FBD2CE;}
	.st3{fill:#FFFFFF;}
</style>
<g id="Layer_x0020_1">
	<g id="_2519465217856">
		<g>
			
				<linearGradient id="SVGID_1_" gradientUnits="userSpaceOnUse" x1="3852.249" y1="-5631.7358" x2="3852.249" y2="-5187.2915" gradientTransform="matrix(7.200000e-02 0 0 -7.200000e-02 -261.3619 -373.485)">
				<stop  offset="0" style="stop-color:#ED2450"/>
				<stop  offset="1" style="stop-color:#F16158"/>
			</linearGradient>
			<circle class="st0" cx="16" cy="16" r="16"/>
			
				<linearGradient id="SVGID_2_" gradientUnits="userSpaceOnUse" x1="3739.8196" y1="-5543.0386" x2="3964.6785" y2="-5275.9893" gradientTransform="matrix(7.200000e-02 0 0 -7.200000e-02 -261.3619 -373.485)">
				<stop  offset="0" style="stop-color:#F16459"/>
				<stop  offset="1" style="stop-color:#ED204F"/>
			</linearGradient>
			<circle class="st1" cx="16" cy="16" r="13.1"/>
		</g>
		<g>
			<path class="st2" d="M17.9,21c-0.7,0-0.2,0-1,0c-0.7,0-1.3,0-2,0c-0.3,0-0.7-0.2-0.9-0.5c-0.6-1.1-1.2-2.2-1.9-3.3
				c-0.6-1.1-2.4-4.1-3-5.2c-0.3-0.5-0.1-1,0.7-1c0.7,0,0.5,0,1.2,0c0.7,0,1.2,0,1.9,0c0.3,0,0.7,0.2,0.9,0.4
				c0.6,1.1,2.8,4.7,3.4,5.8c0.6,1.1,1.1,1.9,1.7,3C19.3,20.6,18.2,21,17.9,21z"/>
			<path class="st3" d="M14.6,21c0.7,0,1.2,0,1.9,0c0.7,0,1.3,0,2,0c0.3,0,0.7-0.2,0.9-0.5c0.6-1.1,1.2-2.2,1.9-3.3
				c0.6-1.1,1-1.8,1.6-2.9c0.3-0.5-0.2-0.8-0.8-0.8c-0.7,0-0.5,0-1.2,0c-0.7,0-1.2,0-1.9,0c-0.3,0-0.7,0.2-0.9,0.4
				c-0.6,1.1-1.3,2.2-1.9,3.2c-0.6,1.1-1.1,1.9-1.7,3C14.1,20.6,14.2,21,14.6,21z"/>
		</g>
	</g>
</g>
</svg>
