<?xml version="1.0" encoding="utf-8"?>
<!-- Generator: Adobe Illustrator 22.1.0, SVG Export Plug-In . SVG Version: 6.00 Build 0)  -->
<svg version="1.1" id="Слой_1" xmlns="http://www.w3.org/2000/svg" xmlns:xlink="http://www.w3.org/1999/xlink" x="0px" y="0px"
	 width="32px" height="32px" viewBox="0 0 32 32" style="enable-background:new 0 0 32 32;" xml:space="preserve">
<g>
	<path style="fill:#644B94;" d="M0,10.1V22h32V10.1H0z M30.1,11.2l-4.1,4l-4-4H30.1z M20.5,11.2l4.2,4.3h-8.8
		C16.6,11.3,20.5,11.2,20.5,11.2z M17.2,11.2c-2.2,1.2-2.4,4.3-2.4,4.3l-2.4-4.3H17.2z M13.5,15.5H9.3l2.1-3.6L13.5,15.5z
		 M10.4,11.2c0,0-2.5,4.2-2.5,4.3c-0.2-2.9-2.4-4.3-2.4-4.3H10.4z M1.1,20.8v-9.7c0,0,5.8-0.3,5.8,4.8S1.1,20.8,1.1,20.8z M5.6,20.8
		c0,0,0.9-0.1,3-4.3h5.6c0,0,1.8,3.7,3,4.3H5.6z M15.9,16.5h8.8l-4.2,4.3C20.5,20.8,16.7,20.7,15.9,16.5z M22,20.8l4-4.1l4.1,4.1H22
		z M30.9,20l-4.1-4l4.1-4V20z"/>
</g>
</svg>
