<?xml version="1.0" encoding="utf-8"?>
<!-- Generator: Adobe Illustrator 22.1.0, SVG Export Plug-In . SVG Version: 6.00 Build 0)  -->
<svg version="1.1" id="Слой_1" xmlns="http://www.w3.org/2000/svg" xmlns:xlink="http://www.w3.org/1999/xlink" x="0px" y="0px"
	 width="32px" height="32px" viewBox="0 0 32 32" style="enable-background:new 0 0 32 32;" xml:space="preserve">
<g>
	<path style="fill:#FEFEFE;" d="M16,32c-5.3,0-10.6,0-15.8,0C0,32,0,32,0,31.8C0,21.3,0,10.7,0,0.2C0,0,0,0,0.2,0
		c10.6,0,21.1,0,31.7,0C32,0,32,0,32,0.2c0,10.6,0,21.1,0,31.7c0,0.1,0,0.2-0.2,0.2C26.6,32,21.3,32,16,32z M11,17.2
		c-0.1-0.1-0.1-0.1-0.1-0.1c-1-1.3-2-2.6-3.1-4C7.8,13,7.7,13,7.6,13c-0.3,0-0.5,0-0.8,0c-0.1,0-0.1,0-0.1,0.1c0,2,0,3.9,0,5.9
		c0,0.1,0,0.1,0.1,0.1c0.2,0,0.5,0,0.7,0s0.2,0,0.2-0.2c0-1.3,0-2.6,0-3.9c0-0.1,0-0.1,0-0.2c0.1,0.1,0.1,0.1,0.1,0.1
		c1,1.2,1.9,2.5,2.9,3.7c0.1,0.2,0.2,0.4,0.4,0.5s0.4,0,0.6,0h0.1c0.1,0,0.2,0,0.2-0.2c0-1.5,0-3.1,0-4.6c0-0.4,0-0.8,0-1.2
		c0-0.1,0-0.2-0.1-0.1c-0.3,0-0.5,0-0.8,0C11,13,11,13,11,13.1c0,1.2,0,2.4,0,3.6C11,16.9,11,17,11,17.2z M25.1,16
		c0-1.8-1.4-3.2-3.2-3.2c-1.8,0-3.2,1.4-3.2,3.1s1.2,3.2,3.2,3.2C23.7,19.2,25.1,17.8,25.1,16z M12.7,16.1c0,1,0,1.9,0,2.9
		c0,0.1,0,0.2,0.2,0.2c0.5,0,1,0,1.5,0c0.4,0,0.8,0,1.2-0.1c2.1-0.3,3.1-2.3,2.4-4.1c-0.4-1.2-1.6-2-2.9-2c-0.8,0-1.5,0-2.3,0
		c-0.1,0-0.2,0-0.2,0.2C12.7,14.1,12.7,15.1,12.7,16.1z M5.3,13c-1.2,0-2.3,0-3.5,0c-0.1,0-0.1,0.1-0.1,0.2c0,1.9,0,3.9,0,5.8
		c0,0.1,0,0.2,0.2,0.2c1.1,0,2.2,0,3.3,0c0.2,0,0.3,0,0.5-0.2c0.1-0.1,0.2-0.2,0.3-0.3c0.1-0.1,0.2-0.3,0.3-0.4c-0.1,0-0.1,0-0.2,0
		c-1,0-2.1,0-3.1,0c-0.1,0-0.2,0-0.2-0.2c0-0.4,0-0.9,0-1.3c0-0.2,0-0.2,0.2-0.2c0.6,0,1.3,0,1.9,0c0.1,0,0.2,0,0.2-0.2s0-0.4,0-0.6
		c0-0.1,0-0.2-0.2-0.2c-0.6,0-1.3,0-1.9,0c-0.1,0-0.2,0-0.1-0.1c0-0.4,0-0.9,0-1.3c0-0.1,0-0.2,0.2-0.2c0.6,0,1.2,0,1.7,0
		c0.1,0,0.1,0,0.2-0.1C5,13.6,5.2,13.3,5.3,13z M28.2,16.8c0.1-0.1,0.2-0.1,0.4-0.1c1.4-0.6,1.3-2.4,0.5-3.1c-0.4-0.4-1-0.5-1.5-0.6
		c-0.9,0-1.9,0-2.8,0h-0.1c0.2,0.3,0.4,0.5,0.5,0.8c0.1,0.1,0.2,0.2,0.3,0.2c0.7,0,1.4,0,2,0s0.9,0.4,1,0.8c0.1,0.6-0.2,1-0.7,1.2
		c-0.1,0-0.2,0.1-0.3,0.1c-0.3,0.1-0.7,0.1-1,0.1v0.1c0.6,1,1.3,1.9,1.9,2.8l0.1,0.1c0.4,0,0.8,0,1.2,0
		C29.3,18.3,28.7,17.6,28.2,16.8z"/>
	<path style="fill:#0D729D;" d="M11,17.2c0-0.2,0-0.3,0-0.4c0-1.2,0-2.4,0-3.6c0-0.1,0-0.2,0.2-0.2c0.3,0,0.5,0,0.8,0
		c0.1,0,0.1,0,0.1,0.1c0,0.4,0,0.8,0,1.2c0,1.5,0,3.1,0,4.6c0,0.1,0,0.2-0.2,0.2h-0.1c-0.2,0-0.4,0.1-0.6,0
		c-0.2-0.1-0.3-0.3-0.4-0.5c-1-1.2-1.9-2.5-2.9-3.7l-0.1-0.1c0,0.1,0,0.2,0,0.2c0,1.3,0,2.6,0,3.9c0,0.2,0,0.2-0.2,0.2s-0.5,0-0.7,0
		c-0.1,0-0.1,0-0.1-0.1c0-2,0-3.9,0-5.9c0-0.1,0-0.1,0.1-0.1c0.3,0,0.5,0,0.8,0c0.1,0,0.1,0,0.2,0.1C8.9,14.4,9.9,15.7,11,17.2
		C10.9,17.1,10.9,17.1,11,17.2z"/>
	<path style="fill:#0D729D;" d="M25.1,16c0,1.8-1.4,3.2-3.2,3.2c-1.9,0-3.2-1.5-3.2-3.2s1.4-3.1,3.2-3.1
		C23.8,12.9,25.1,14.2,25.1,16z M24,16c0-0.2,0-0.5-0.1-0.7c-0.5-1.6-2.4-1.8-3.3-1c-0.6,0.5-0.8,1.2-0.7,2c0.1,1.2,1.3,2.1,2.5,1.8
		C23.3,18,24,17.1,24,16z"/>
	<path style="fill:#0D729D;" d="M12.7,16.1c0-1,0-1.9,0-2.9c0-0.2,0-0.2,0.2-0.2c0.8,0,1.5,0,2.3,0c1.3,0,2.5,0.8,2.9,2
		c0.6,1.8-0.3,3.8-2.4,4.1c-0.4,0.1-0.8,0.1-1.2,0.1c-0.5,0-1,0-1.5,0c-0.2,0-0.2,0-0.2-0.2C12.7,18,12.7,17,12.7,16.1z M13.8,16
		c0,0.6,0,1.3,0,1.9c0,0.1,0,0.1,0.1,0.1c0.4,0,0.8,0,1.2,0s0.9-0.1,1.2-0.4c0.6-0.4,0.8-1,0.8-1.7c0-1.1-0.8-1.9-1.9-2
		c-0.4,0-0.9,0-1.3,0c-0.1,0-0.2,0-0.1,0.1C13.8,14.7,13.8,15.4,13.8,16z"/>
	<path style="fill:#0D729D;" d="M5.3,13c-0.1,0.3-0.3,0.6-0.4,0.9C4.9,14,4.8,14,4.7,14c-0.6,0-1.2,0-1.7,0c-0.1,0-0.2,0-0.2,0.2
		c0,0.4,0,0.9,0,1.3c0,0.1,0,0.1,0.1,0.1c0.6,0,1.3,0,1.9,0c0.1,0,0.2,0,0.2,0.2s0,0.4,0,0.6c0,0.1,0,0.2-0.2,0.2
		c-0.6,0-1.3,0-1.9,0c-0.1,0-0.2,0-0.2,0.2c0,0.4,0,0.9,0,1.3c0,0.1,0,0.2,0.2,0.2c1,0,2.1,0,3.1,0c0.1,0,0.1,0,0.2,0
		c-0.1,0.2-0.2,0.3-0.3,0.4c-0.1,0.1-0.2,0.2-0.3,0.3c-0.1,0.2-0.3,0.2-0.5,0.2c-1.1,0-2.2,0-3.3,0c-0.1,0-0.2,0-0.2-0.2
		c0-1.9,0-3.9,0-5.8c0-0.1,0-0.2,0.1-0.2C3,13,4.1,13,5.3,13z"/>
	<path style="fill:#0D729D;" d="M28.2,16.8c0.5,0.8,1.1,1.5,1.6,2.3c-0.4,0-0.8,0-1.2,0c-0.1,0-0.1,0-0.1-0.1
		c-0.6-0.9-1.4-1.8-1.9-2.8c0,0,0,0,0-0.1c0.3,0,0.7,0,1-0.1c0.1,0,0.2,0,0.3-0.1c0.6-0.2,0.8-0.6,0.7-1.2c-0.1-0.5-0.4-0.8-1-0.8
		c-0.7,0-1.4,0-2,0c-0.1,0-0.2,0-0.3-0.2c-0.2-0.3-0.3-0.5-0.5-0.8h0.1c0.9,0,1.9,0,2.8,0c0.6,0,1.1,0.2,1.5,0.6
		c0.8,0.7,0.8,2.5-0.5,3.1C28.4,16.7,28.3,16.7,28.2,16.8z"/>
	<path style="fill:#FDFDFE;" d="M24,16c0,1.1-0.6,1.9-1.6,2.1c-1.2,0.3-2.4-0.6-2.5-1.8c-0.1-0.8,0.1-1.4,0.7-2
		c0.9-0.9,2.8-0.7,3.3,1C23.9,15.6,24,15.8,24,16z"/>
	<path style="fill:#FDFDFE;" d="M13.8,16c0-0.6,0-1.3,0-1.9c0-0.1,0-0.2,0.1-0.1c0.4,0,0.9,0,1.3,0c1.1,0.1,1.9,0.9,1.9,2
		c0,0.7-0.2,1.3-0.8,1.7c-0.4,0.3-0.8,0.4-1.2,0.4s-0.8,0-1.2,0c-0.1,0-0.1,0-0.1-0.1C13.8,17.3,13.8,16.7,13.8,16z"/>
</g>
</svg>
