<?xml version="1.0" encoding="utf-8"?>
<!-- Generator: Adobe Illustrator 22.1.0, SVG Export Plug-In . SVG Version: 6.00 Build 0)  -->
<svg version="1.1" id="Слой_1" xmlns="http://www.w3.org/2000/svg" xmlns:xlink="http://www.w3.org/1999/xlink" x="0px" y="0px"
	 width="32px" height="32px" viewBox="0 0 32 32" style="enable-background:new 0 0 32 32;" xml:space="preserve">
<g id="Layer_x0020_1">
	<g id="_2519465217856">
		<g>
			
				<linearGradient id="SVGID_1_" gradientUnits="userSpaceOnUse" x1="12436.249" y1="11129.959" x2="12436.249" y2="10685.5137" gradientTransform="matrix(7.200000e-02 0 0 7.200000e-02 -879.4099 -769.357)">
				<stop  offset="0" style="stop-color:#ED2450"/>
				<stop  offset="1" style="stop-color:#F16158"/>
			</linearGradient>
			<circle style="fill:url(#SVGID_1_);" cx="16" cy="16" r="16"/>
			
				<linearGradient id="SVGID_2_" gradientUnits="userSpaceOnUse" x1="12323.8203" y1="11041.2607" x2="12548.6787" y2="10774.2119" gradientTransform="matrix(7.200000e-02 0 0 7.200000e-02 -879.4099 -769.357)">
				<stop  offset="0" style="stop-color:#F16459"/>
				<stop  offset="1" style="stop-color:#ED204F"/>
			</linearGradient>
			<circle style="fill:url(#SVGID_2_);" cx="16" cy="16" r="13.1"/>
		</g>
		<g>
			<path style="fill:#FBD2CE;" d="M17.9,21c-0.7,0-0.2,0-1,0c-0.7,0-1.3,0-2,0c-0.3,0-0.7-0.2-0.9-0.5c-0.6-1.1-1.2-2.2-1.9-3.3
				c-0.6-1.1-2.4-4.1-3-5.2c-0.3-0.5-0.1-1,0.7-1c0.7,0,0.5,0,1.2,0s1.2,0,1.9,0c0.3,0,0.7,0.2,0.9,0.4c0.6,1.1,2.8,4.7,3.4,5.8
				s1.1,1.9,1.7,3C19.3,20.6,18.2,21,17.9,21z"/>
			<path style="fill:#FFFFFF;" d="M14.6,21c0.7,0,1.2,0,1.9,0c0.7,0,1.3,0,2,0c0.3,0,0.7-0.2,0.9-0.5c0.6-1.1,1.2-2.2,1.9-3.3
				c0.6-1.1,1-1.8,1.6-2.9c0.3-0.5-0.2-0.8-0.8-0.8c-0.7,0-0.5,0-1.2,0s-1.2,0-1.9,0c-0.3,0-0.7,0.2-0.9,0.4
				c-0.6,1.1-1.3,2.2-1.9,3.2c-0.6,1.1-1.1,1.9-1.7,3C14.1,20.6,14.2,21,14.6,21z"/>
		</g>
	</g>
</g>
</svg>
