<?xml version="1.0" encoding="utf-8"?>
<!-- Generator: Adobe Illustrator 22.1.0, SVG Export Plug-In . SVG Version: 6.00 Build 0)  -->
<svg version="1.1" id="Слой_1" xmlns="http://www.w3.org/2000/svg" xmlns:xlink="http://www.w3.org/1999/xlink" x="0px" y="0px"
	 viewBox="0 0 32 32" style="enable-background:new 0 0 32 32;" xml:space="preserve">
<style type="text/css">
	.st0{fill:#747D98;}
</style>
<path class="st0" d="M31.9,13.2L25.2,2.7c-0.1-0.2-0.4-0.3-0.6-0.2c-0.1,0-0.2,0.1-0.2,0.2L16,6.5l-8.5-4c0,0,0,0,0,0c0,0,0,0,0,0
	c0,0,0,0,0,0c0,0,0,0,0,0c0,0,0,0,0,0c0,0,0,0,0,0c0,0,0,0-0.1,0c0,0,0,0,0,0c0,0,0,0,0,0c0,0,0,0-0.1,0c0,0,0,0,0,0c0,0,0,0,0,0
	c0,0-0.1,0-0.1,0c0,0,0,0,0,0c0,0,0,0,0,0c0,0,0,0,0,0c0,0,0,0,0,0c0,0,0,0,0,0c0,0,0,0,0,0c0,0,0,0,0,0c0,0,0,0,0,0c0,0,0,0,0,0
	c0,0,0,0,0,0c0,0,0,0,0,0c0,0,0,0,0,0c0,0,0,0,0,0L0.1,13.2c-0.1,0.2-0.1,0.4,0,0.6c0,0,0,0,0,0c0,0,0.1,0.1,0.1,0.1l15.3,15.4
	c0,0,0.1,0.1,0.1,0.1c0,0,0,0,0,0c0,0,0.1,0,0.1,0c0,0,0,0,0,0c0,0,0.1,0,0.1,0c0,0,0,0,0,0c0,0,0,0,0,0c0,0,0,0,0,0c0,0,0,0,0,0
	c0,0,0,0,0,0c0.2,0,0.4-0.1,0.5-0.3L31.7,14c0,0,0,0,0,0C32,13.8,32.1,13.5,31.9,13.2z M15.4,27l-8-14.4l8-0.1V27z M16.5,12.5l8,0.2
	l-8,14.2V12.5z M17.2,11.4l7-7.2l0.6,7.3L17.2,11.4z M16.5,10.6V7.4l5.7-2.7L16.5,10.6z M15.4,10.6L9.7,4.7l5.7,2.7V10.6z M7.7,4.2
	l7,7.2l-7.5,0.1L7.7,4.2z M6.3,12.8l7.3,13.1l-12-12.1L6.3,12.8z M25.8,12.7l4.5,1.2l-12,12L25.8,12.7z M30.3,12.8l-4.4-1.2
	l-0.5-6.5L30.3,12.8z M6.6,5.1l-0.5,6.6l-4.4,1L6.6,5.1z"/>
</svg>
