<?xml version="1.0" encoding="utf-8"?>
<!-- Generator: Adobe Illustrator 22.1.0, SVG Export Plug-In . SVG Version: 6.00 Build 0)  -->
<svg version="1.1" id="Слой_1" xmlns="http://www.w3.org/2000/svg" xmlns:xlink="http://www.w3.org/1999/xlink" x="0px" y="0px"
	 width="32px" height="32px" viewBox="0 0 32 32" style="enable-background:new 0 0 32 32;" xml:space="preserve">
<g>
	<polygon style="fill:#F8DC19;" points="17.8,12.9 14.2,19.1 14.2,19.1 10.7,19.1 7.1,19.1 3.5,12.9 7.1,6.7 14.2,6.7 16,9.9 
		17.8,9.9 19.5,9.9 16.9,5.2 16,3.7 14.2,3.7 7.1,3.7 5.3,3.7 4.4,5.2 0.9,11.4 0,12.9 0.9,14.4 4.4,20.6 5.3,22.1 7.1,22.1 
		12.5,22.1 14.2,22.1 16,22.1 16,22.1 16.9,20.6 20.4,14.4 21.3,12.9 	"/>
	<path style="fill:#F4C522;" d="M16.9,14.5c0,0,1.4-1.2,1.6-1.3c0.3,0,2.7-0.2,2.7-0.2l0.4-0.4l-3.1-0.5l-2.1,1L16.9,14.5z"/>
	<g>
		<path style="fill:#0D4F7C;" d="M31.1,17.6l-3.6-6.2l-0.9-1.5h-1.8h-5.4h-1.8H16l0,0l-0.9,1.5l-3.6,6.2l-0.9,1.5h3.5l3.6-6.2l0,0
			h3.5h3.6l3.6,6.2l-3.6,6.2h-7.1L16,22.1c-2.7,0.2-3,0.8-3,0.8l-0.5-0.8l2.7,4.7l0.9,1.5h1.8H25h1.8l0.9-1.5l3.6-6.2l0.9-1.5
			L31.1,17.6z"/>
		<path style="fill:#1D3051;" d="M16,22.1h-1.8h-1.8l0.5,0.8C12.9,23,13.3,22.4,16,22.1z"/>
	</g>
</g>
</svg>
