<?xml version="1.0" encoding="utf-8"?>
<!-- Generator: Adobe Illustrator 22.1.0, SVG Export Plug-In . SVG Version: 6.00 Build 0)  -->
<svg version="1.1" id="Слой_1" xmlns="http://www.w3.org/2000/svg" xmlns:xlink="http://www.w3.org/1999/xlink" x="0px" y="0px"
	 width="32px" height="32px" viewBox="0 0 32 32" style="enable-background:new 0 0 32 32;" xml:space="preserve">
<title>color/xrp</title>
<desc>Created with Sketch.</desc>
<g>
	<circle style="fill:#2F95DF;" cx="29.3" cy="15" r="2.7"/>
	<g>
		<path style="fill:#353C46;" d="M19.4,29c-6.6,0-11.8-4.7-12.6-11.2C6.1,11.4,9.9,5.8,16,4.2c3.6-1,7-0.4,10.1,1.5
			c1.3,0.8,1.6,2.6,0.8,3.9c-0.6,1-2.3,1.3-3.5,0.6c-3.3-1.8-6.6-1.5-9.2,1c-3.4,3.2-2.7,9.2,1.4,11.5c3.1,1.8,6.2,1.1,8.8-1
			c0.3-0.2,0.5-0.5,0.8-0.7c1.1-0.9,2.5-0.8,3.6,0.2c0.9,0.9,1,2.4,0.1,3.4C26.5,27.5,23.3,29,19.4,29z"/>
		<path style="fill:#353C46;" d="M0,16.2c0-3.3,0-6.6,0-10c0-1.6,1-2.6,2.6-2.6s2.7,1.1,2.7,2.6c0,6.6,0,13.3,0,19.9
			c0,1.5-1.2,2.7-2.7,2.7S0,27.7,0,26.2C0,22.9,0,19.6,0,16.2L0,16.2z"/>
	</g>
</g>
</svg>
