<?xml version="1.0" encoding="utf-8"?>
<!-- Generator: Adobe Illustrator 22.1.0, SVG Export Plug-In . SVG Version: 6.00 Build 0)  -->
<svg version="1.1" id="Слой_1" xmlns="http://www.w3.org/2000/svg" xmlns:xlink="http://www.w3.org/1999/xlink" x="0px" y="0px"
	 viewBox="0 0 32 32" style="enable-background:new 0 0 32 32;" xml:space="preserve">
<style type="text/css">
	.st0{fill:#0E1E47;}
	.st1{fill:#FFFFFF;}
</style>
<g>
	<circle class="st0" cx="16" cy="16" r="16"/>
	<g>
		<g>
			<path class="st1" d="M21.8,13l0.9-0.9c0,0,0.7-0.5,0.1-1.1c-0.6-0.6-1.1-0.1-1.1-0.1l-1,1c-4.5-3.9-12.5-4-12.5-4
				C7,18.3,12.5,22.1,12.5,22.1l4.1-4.1l5.9,5.9C25.5,16.4,21.8,13,21.8,13z M14.4,13.5c0,0-0.5-0.3-1,0.1c-0.5,0.5-0.1,0.9-0.1,0.9
				l2.3,2.3l-3.1,3.1c0,0-3.4-3.2-3.1-10.5c0,0,6.8,0.6,10.1,3.5l-2.9,2.9L14.4,13.5z M21.9,21.1l-4.1-4.2l2.9-2.9
				C20.7,14,23,16.1,21.9,21.1z"/>
		</g>
		<path class="st1" d="M24.4,8.1L24.4,8.1c-1,0.2-1.4,1.4-0.7,2.1l0,0c0.7,0.7,1.9,0.3,2.1-0.7v0C25.9,8.6,25.2,7.9,24.4,8.1z"/>
		<path class="st1" d="M10.8,22.5L8,23c-0.3,0-0.4,0.4-0.2,0.6l0.5,0.5L9.4,24c0.2,0,0.5,0.2,0.4,0.4l-0.2,1.1l0.5,0.5
			c0.2,0.2,0.6,0.1,0.6-0.2l0.5-2.8C11.3,22.7,11,22.5,10.8,22.5z"/>
	</g>
</g>
</svg>
