<?xml version="1.0" encoding="utf-8"?>
<!-- Generator: Adobe Illustrator 21.1.0, SVG Export Plug-In . SVG Version: 6.00 Build 0)  -->
<svg version="1.1" id="Слой_1" xmlns="http://www.w3.org/2000/svg" xmlns:xlink="http://www.w3.org/1999/xlink" x="0px" y="0px"
	 viewBox="0 0 32 32" style="enable-background:new 0 0 32 32;" xml:space="preserve">
<style type="text/css">
	.st0{fill:#FFFFFF;}
</style>
<g>
	<circle class="st0" cx="16" cy="16" r="16"/>
	<g>
		<polygon points="16.9,28.2 17.2,28.6 19.1,27.5 19.4,28 27.8,23.1 27.8,21.6 22.5,24.7 20,26.1 18.7,26.8 16.8,28 14.7,29.2 
			14.9,29.3 		"/>
		<polygon points="15.1,27.1 15.3,27.6 19.1,25.4 19.3,25.8 27.8,20.9 27.7,19.5 20.6,23.6 18.7,24.7 18,25.1 14.9,26.9 13,28 
			13.2,28.2 		"/>
		<polygon points="13.2,26 13.4,26.5 19.1,23.2 19.4,23.7 27.7,18.8 27.7,17.3 19.5,22.1 18.7,22.6 16.9,23.6 13,25.9 11.2,26.9 
			11.4,27 		"/>
		<polygon points="11.4,24.9 11.6,25.4 19.1,21.1 19.4,21.5 27.7,16.7 27.7,15.2 19.2,20.1 18.7,20.4 16.6,21.7 11.3,24.8 9.5,25.8 
			9.7,25.9 		"/>
		<polygon points="9.5,23.9 9.8,24.3 19.1,19 19.3,19.4 27.7,14.5 27.7,13.1 19.4,17.9 18.7,18.3 16.8,19.4 9.4,23.7 7.7,24.7 
			7.9,24.8 		"/>
		<polygon points="7.5,22.9 7.8,23.4 19,16.9 19.3,17.3 27.7,12.4 27.7,10.9 19.8,15.5 18.6,16.2 17.3,17 7.4,22.7 6,23.5 6.2,23.7 
					"/>
		<polygon points="7.7,20.7 8,21.1 19.1,14.7 19.4,15.1 27.7,10.3 27.7,9.5 27.1,9.1 20,13.2 18.7,14 16.5,15.3 7.6,20.5 4.2,22.4 
			4.4,22.5 		"/>
		<polygon points="4.3,9.8 7.6,7.9 7.9,8.3 9.8,7.2 10.1,7.7 17.3,3.4 16.1,2.7 13.2,4.4 9.7,6.4 9.4,6.6 7.5,7.7 4.3,9.6 		"/>
		<polygon points="7.6,18.6 7.9,19 19.2,12.5 19.4,12.9 26.5,8.8 25.2,8.1 19.8,11.2 18.8,11.8 16.2,13.3 7.5,18.4 4.2,20.3 
			4.2,20.5 		"/>
		<polygon points="7.6,16.4 7.9,16.9 17.3,11.5 17.5,11.9 24.7,7.7 23.4,7 18.2,10 16.9,10.8 14.6,12.1 7.5,16.3 4.2,18.1 4.2,18.4 
					"/>
		<polygon points="7.6,14.3 7.9,14.8 15.4,10.4 15.7,10.8 22.8,6.7 21.6,5.9 16.4,8.9 15,9.7 12.9,10.9 7.5,14.1 4.2,16 4.2,16.2 		
			"/>
		<polygon points="7.7,12.1 7.9,12.6 13.6,9.3 13.9,9.7 21,5.6 19.7,4.8 14.7,7.8 13.2,8.6 11.2,9.8 7.6,11.9 4.2,13.8 4.2,14.1 		
			"/>
		<polygon points="7.6,10 7.9,10.5 11.7,8.3 11.9,8.7 19.2,4.5 17.9,3.8 13.2,6.5 11.3,7.6 9.7,8.5 7.5,9.8 4.2,11.7 4.2,12 		"/>
	</g>
</g>
</svg>
