<?xml version="1.0" encoding="utf-8"?>
<!-- Generator: Adobe Illustrator 22.1.0, SVG Export Plug-In . SVG Version: 6.00 Build 0)  -->
<svg version="1.1" id="Слой_1" xmlns="http://www.w3.org/2000/svg" xmlns:xlink="http://www.w3.org/1999/xlink" x="0px" y="0px"
	 width="32px" height="32px" viewBox="0 0 32 32" style="enable-background:new 0 0 32 32;" xml:space="preserve">
<g>
	<rect y="0.1" style="fill:#FFFFFF;" width="32" height="32"/>
	<g>
		
			<linearGradient id="SVGID_1_" gradientUnits="userSpaceOnUse" x1="10.5676" y1="1.7539" x2="22.4063" y2="22.2593" gradientTransform="matrix(1 0 0 -1 0 34)">
			<stop  offset="0" style="stop-color:#54D1F6;stop-opacity:0.9"/>
			<stop  offset="0.2745" style="stop-color:#33B0DA;stop-opacity:0.9275"/>
			<stop  offset="0.5546" style="stop-color:#1996C4;stop-opacity:0.9555"/>
			<stop  offset="0.8054" style="stop-color:#0987B7;stop-opacity:0.9805"/>
			<stop  offset="1" style="stop-color:#0381B2"/>
		</linearGradient>
		<path style="fill:url(#SVGID_1_);" d="M26.9,21.7c1-5.1-2.3-10-7.4-11c-4.1-0.8-8,1.2-10,4.6l0,0c-0.2,0.2-2.1,3.9-3.7,13
			c-0.3,1.5,0.2,1.4,1,1.5c0.7,0,8.6,0.5,13.3-0.8c0.2-0.1,0.4-0.1,0.6-0.2c0.5-0.2,1-0.4,1.4-0.6l0,0
			C24.5,26.9,26.4,24.6,26.9,21.7z"/>
		
			<linearGradient id="SVGID_2_" gradientUnits="userSpaceOnUse" x1="7.3991" y1="9.408" x2="19.6026" y2="30.545" gradientTransform="matrix(1 0 0 -1 0 34)">
			<stop  offset="0" style="stop-color:#FC80AC;stop-opacity:0.9"/>
			<stop  offset="0.1122" style="stop-color:#F76EA4;stop-opacity:0.9112"/>
			<stop  offset="0.3727" style="stop-color:#EE4993;stop-opacity:0.9373"/>
			<stop  offset="0.6156" style="stop-color:#E72F87;stop-opacity:0.9616"/>
			<stop  offset="0.832" style="stop-color:#E31F80;stop-opacity:0.9832"/>
			<stop  offset="1" style="stop-color:#E2197D"/>
		</linearGradient>
		<path style="fill:url(#SVGID_2_);" d="M24.3,11.6c0-5.2-4.2-9.4-9.4-9.4c-4.1,0-7.7,2.7-8.9,6.4l0,0c-0.1,0.2-1.3,4.3-1.1,13.5
			c0,1.5,0.5,1.4,1.3,1.3c0.7-0.1,8.5-1.2,12.9-3.4c0.2-0.1,0.4-0.2,0.6-0.3c0.5-0.3,0.9-0.6,1.2-0.9l0,0
			C23,17.1,24.3,14.5,24.3,11.6z"/>
	</g>
</g>
</svg>
