<?xml version="1.0" encoding="utf-8"?>
<!-- Generator: Adobe Illustrator 22.1.0, SVG Export Plug-In . SVG Version: 6.00 Build 0)  -->
<svg version="1.1" id="Слой_1" xmlns="http://www.w3.org/2000/svg" xmlns:xlink="http://www.w3.org/1999/xlink" x="0px" y="0px"
	 width="32px" height="32px" viewBox="0 0 32 32" style="enable-background:new 0 0 32 32;" xml:space="preserve">
<title>color/xrp</title>
<desc>Created with Sketch.</desc>
<g>
	<g id="color_x2F_xrp_1_">
		<g id="Group_1_">
			<circle id="Oval_1_" cx="16" cy="16" r="16"/>
		</g>
	</g>
	<g>
		<g>
			<circle style="fill:#FFFFFF;" cx="21.7" cy="5.5" r="1.4"/>
			<circle style="fill:#FFFFFF;" cx="22.1" cy="9.3" r="1.2"/>
			<circle style="fill:#FFFFFF;" cx="21.7" cy="12.5" r="1"/>
			<circle style="fill:#FFFFFF;" cx="20.7" cy="15.1" r="0.9"/>
			<circle style="fill:#FFFFFF;" cx="19.5" cy="17.1" r="0.8"/>
			<circle style="fill:#FFFFFF;" cx="18" cy="18.5" r="0.7"/>
			<circle style="fill:#FFFFFF;" cx="25.3" cy="9.7" r="1.2"/>
			<circle style="fill:#FFFFFF;" cx="24.9" cy="13" r="1"/>
			<circle style="fill:#FFFFFF;" cx="24" cy="15.6" r="0.9"/>
			<circle style="fill:#FFFFFF;" cx="22.7" cy="17.5" r="0.8"/>
			<circle style="fill:#FFFFFF;" cx="21.2" cy="18.9" r="0.6"/>
			<circle style="fill:#FFFFFF;" cx="19.8" cy="19.8" r="0.6"/>
			<circle style="fill:#FFFFFF;" cx="27.5" cy="13.9" r="1"/>
			<circle style="fill:#FFFFFF;" cx="26.5" cy="16.5" r="0.9"/>
			<circle style="fill:#FFFFFF;" cx="25.2" cy="18.5" r="0.8"/>
			<circle style="fill:#FFFFFF;" cx="23.8" cy="19.9" r="0.7"/>
			<circle style="fill:#FFFFFF;" cx="22.3" cy="20.8" r="0.6"/>
			<circle style="fill:#FFFFFF;" cx="21" cy="21.2" r="0.5"/>
			<circle style="fill:#FFFFFF;" cx="23.3" cy="25.7" r="1.4"/>
			<circle style="fill:#FFFFFF;" cx="19.8" cy="24.2" r="1.2"/>
			<circle style="fill:#FFFFFF;" cx="17.2" cy="22.2" r="1"/>
			<circle style="fill:#FFFFFF;" cx="15.4" cy="20.1" r="0.9"/>
			<circle style="fill:#FFFFFF;" cx="14.4" cy="18" r="0.8"/>
			<circle style="fill:#FFFFFF;" cx="13.9" cy="16.1" r="0.7"/>
			<circle style="fill:#FFFFFF;" cx="17.8" cy="26.7" r="1.2"/>
			<circle style="fill:#FFFFFF;" cx="15.2" cy="24.8" r="1"/>
			<circle style="fill:#FFFFFF;" cx="13.4" cy="22.7" r="0.9"/>
			<circle style="fill:#FFFFFF;" cx="12.4" cy="20.6" r="0.8"/>
			<circle style="fill:#FFFFFF;" cx="11.9" cy="18.6" r="0.6"/>
			<circle style="fill:#FFFFFF;" cx="11.8" cy="16.9" r="0.6"/>
			<circle style="fill:#FFFFFF;" cx="13.1" cy="26.5" r="1"/>
			<circle style="fill:#FFFFFF;" cx="11.3" cy="24.4" r="0.9"/>
			<circle style="fill:#FFFFFF;" cx="10.3" cy="22.3" r="0.8"/>
			<circle style="fill:#FFFFFF;" cx="9.8" cy="20.4" r="0.7"/>
			<circle style="fill:#FFFFFF;" cx="9.7" cy="18.7" r="0.6"/>
			<circle style="fill:#FFFFFF;" cx="10" cy="17.3" r="0.5"/>
			<circle style="fill:#FFFFFF;" cx="4.9" cy="17" r="1.4"/>
			<circle style="fill:#FFFFFF;" cx="8.1" cy="14.8" r="1.2"/>
			<circle style="fill:#FFFFFF;" cx="11" cy="13.5" r="1"/>
			<circle style="fill:#FFFFFF;" cx="13.8" cy="13" r="0.9"/>
			<circle style="fill:#FFFFFF;" cx="16.1" cy="13.1" r="0.8"/>
			<circle style="fill:#FFFFFF;" cx="18" cy="13.7" r="0.7"/>
			<path style="fill:#FFFFFF;" d="M6.5,10.6c0.7-0.2,1.3,0.2,1.5,0.8c0.2,0.7-0.2,1.3-0.8,1.5c-0.7,0.2-1.3-0.2-1.5-0.8
				S5.8,10.8,6.5,10.6z"/>
			<circle style="fill:#FFFFFF;" cx="9.8" cy="10.5" r="1"/>
			<circle style="fill:#FFFFFF;" cx="12.5" cy="10" r="0.9"/>
			<circle style="fill:#FFFFFF;" cx="14.9" cy="10.1" r="0.8"/>
			<circle style="fill:#FFFFFF;" cx="16.8" cy="10.7" r="0.6"/>
			<circle style="fill:#FFFFFF;" cx="18.3" cy="11.5" r="0.6"/>
			<circle style="fill:#FFFFFF;" cx="9.4" cy="7.8" r="1"/>
			<path style="fill:#FFFFFF;" d="M12,6.4c0.5,0,0.9,0.3,1,0.8c0,0.5-0.3,0.9-0.8,1c-0.5,0-0.9-0.3-1-0.8C11.2,6.9,11.5,6.5,12,6.4z
				"/>
			<circle style="fill:#FFFFFF;" cx="14.4" cy="7.4" r="0.8"/>
			<circle style="fill:#FFFFFF;" cx="16.4" cy="8" r="0.7"/>
			<circle style="fill:#FFFFFF;" cx="17.9" cy="8.8" r="0.6"/>
			<path style="fill:#FFFFFF;" d="M18.9,9.3c0.3,0,0.5,0.2,0.5,0.4c0,0.3-0.2,0.5-0.4,0.5c-0.3,0-0.5-0.2-0.5-0.4
				C18.4,9.5,18.6,9.3,18.9,9.3z"/>
		</g>
	</g>
</g>
</svg>
