<?xml version="1.0" encoding="utf-8"?>
<!-- Generator: Adobe Illustrator 21.1.0, SVG Export Plug-In . SVG Version: 6.00 Build 0)  -->
<svg version="1.1" id="Слой_1" xmlns="http://www.w3.org/2000/svg" xmlns:xlink="http://www.w3.org/1999/xlink" x="0px" y="0px"
	 viewBox="0 0 32 32" style="enable-background:new 0 0 32 32;" xml:space="preserve">
<style type="text/css">
	.st0{fill:#2DB1FF;}
</style>
<g>
	<g>
		<path class="st0" d="M16.8,15.8v-2.4H16v-0.6h2.2v0.6h-0.8v2.4H16.8z"/>
		<path class="st0" d="M18.5,15.8v-3h0.7v1.1h1.3v-1.1h0.7v3h-0.7v-1.3h-1.3v1.3H18.5z"/>
		<path class="st0" d="M21.7,15.8v-3h2v0.6h-1.4V14h1.3v0.6h-1.3v0.6h1.4v0.6H21.7z"/>
		<path class="st0" d="M24.2,15.8v-3h0.7v1.3l1.1-1.3h0.8l-1.2,1.5l1.2,1.5h-0.8l-1.1-1.3v1.3H24.2z"/>
		<path class="st0" d="M26.9,15.8v-3h2v0.6h-1.4V14h1.3v0.6h-1.3v0.6H29v0.6H26.9z"/>
		<path class="st0" d="M30.3,15.8v-1.1l-1.1-1.9h0.7l0.7,1.2l0.7-1.2H32l-1.1,1.9v1.1H30.3z"/>
	</g>
	<path class="st0" d="M5.6,15c0.7,0,1.3,0.3,1.7,0.7C7.6,16,8,16.5,8,17.2s-0.4,1.2-0.6,1.5c-0.5,0.5-1.1,0.7-1.7,0.7
		s-1.3-0.3-1.7-0.7c-0.2-0.2-0.6-0.7-0.6-1.5s0.4-1.2,0.6-1.5C4.4,15.3,5,15,5.6,15 M5.6,12C2.5,12,0,14.3,0,17.3s2.5,5.3,5.6,5.3
		s5.6-2.4,5.6-5.3S8.8,12,5.6,12L5.6,12z"/>
	<rect x="10.9" y="16" class="st0" width="20.8" height="1"/>
	<rect x="10.9" y="17.7" class="st0" width="20.8" height="1"/>
</g>
</svg>
