<?xml version="1.0" encoding="utf-8"?>
<!-- Generator: Adobe Illustrator 22.1.0, SVG Export Plug-In . SVG Version: 6.00 Build 0)  -->
<svg version="1.1" id="Слой_1" xmlns="http://www.w3.org/2000/svg" xmlns:xlink="http://www.w3.org/1999/xlink" x="0px" y="0px"
	 width="32px" height="32px" viewBox="0 0 32 32" style="enable-background:new 0 0 32 32;" xml:space="preserve">
<g>
	<path style="fill:#414143;" d="M16,32C7.1,32-0.1,24.7,0,15.9S7.2,0.1,15.8,0c9-0.1,16.1,7.1,16.2,15.8C32.1,24.7,24.9,32,16,32z
		 M28.2,23L28.2,23L28.2,23L28.2,23C28.1,23,28.1,22.9,28.2,23c-1.7-1.9-3.3-3.8-4.9-5.7c0,0,0-0.1-0.1-0.1
		c-0.2,0.5-0.4,0.9-0.6,1.4c-0.5-0.7-1.1-1.3-1.6-2c-0.2,0.5-0.5,1.1-0.7,1.6c-0.1,0.2-0.1,0.2-0.3,0.1c-1.2-0.7-2.4-1.4-3.6-2.1
		c-0.1,0-0.1-0.1-0.2-0.1c1.6,1.9,3.3,3.8,4.9,5.7c0.2-0.5,0.4-1,0.6-1.5c0.5,0.7,1.1,1.3,1.6,2c0.3-0.6,0.5-1.1,0.7-1.7
		c0-0.1,0.1-0.1,0.2-0.1c1,0.6,2,1.2,3,1.8C27.5,22.6,27.8,22.9,28.2,23z M22.4,17.5c0.1-0.2,0.1-0.3,0.2-0.5s0.2-0.4,0.4-0.4
		c0.1,0,0.1-0.1,0.1-0.2c0-0.8,0-1.6-0.2-2.3C22.3,12,21,10.5,19,9.5c-0.1-0.1-0.2,0-0.2,0.1c-0.7,1.9-1.4,3.9-2,5.8
		c-0.1,0.3-0.1,0.3,0.2,0.5c0.1,0.1,0.2,0.1,0.3,0.2c0.8,0.5,1.7,1,2.5,1.5c0.1,0.1,0.2,0.1,0.2-0.1c0.1-0.3,0.3-0.6,0.4-0.9
		c0.3-0.6,0.7-0.6,1.1-0.2C21.8,16.8,22.1,17.1,22.4,17.5z M14.1,9.7c-0.2,0-0.4,0-0.6,0.1c-0.2,0-0.3,0-0.5-0.1
		c-0.1-0.1-0.2-0.1-0.3,0c-0.5,0.3-1,0.6-1.4,0.9c-1.8,1.6-2.7,3.6-2.5,6c0,0.1,0,0.2,0.2,0.1c0.8-0.2,1.6-0.3,2.4-0.5
		c1.3-0.2,2.5-0.5,3.8-0.7c0.1,0,0.2-0.1,0.2-0.2c0-1.1,0-2.3,0-3.4c0-0.1,0-0.2-0.2-0.2c-0.4,0-0.7,0.1-1.1,0.1
		c-0.1,0-0.3,0-0.4-0.1c-0.3-0.2-0.3-0.4-0.2-0.7C13.7,10.6,13.9,10.2,14.1,9.7z M11.5,20.8c0.1,0.2,0.2,0.3,0.4,0.5
		c0.1,0.1,0.1,0.3,0.1,0.4c-0.1,0.2,0,0.3,0.2,0.4c1.5,1,3.2,1.3,5,1c1.1-0.2,2.1-0.6,3-1.2c0.1,0,0.1-0.1,0-0.2
		c-0.7-0.8-1.3-1.5-2-2.3c-0.7-0.9-1.5-1.7-2.2-2.6c-0.1-0.1-0.1-0.1-0.3,0c-1,0.6-2,1.1-2.9,1.7c-0.2,0.1-0.2,0.1-0.1,0.3
		c0.2,0.3,0.4,0.6,0.6,0.8c0.3,0.5,0.1,0.9-0.4,1C12.4,20.7,12,20.7,11.5,20.8z M16.5,1.5c0.2,0.2,0.1,0.5,0.1,0.7
		c0,0.1,0,0.2,0.2,0.2c0.7,0,1.4,0.1,2.1,0.3c2.9,0.6,5.3,2,7.3,4.1c1.1,1.2,2,2.5,2.6,4c0.9,2.1,1.2,4.2,1,6.5
		c-0.2,1.7-0.6,3.3-1.3,4.8c0,0.1-0.1,0.1,0,0.2c0.2,0.2,0.4,0.5,0.6,0.7c2.4-4.9,2.4-9.8-0.4-14.4C25.7,4,21.6,1.8,16.5,1.5z
		 M15.6,1.5c-4.6,0-10,2.6-12.7,8.1C0.8,14,1,18.5,3.2,22.9c0.1-0.3,0.3-0.3,0.5-0.5c0.1-0.1,0.2-0.1,0.1-0.3
		c-0.6-1.2-1.1-2.5-1.3-3.9c-0.4-2.4-0.2-4.7,0.6-6.9c1.6-4.2,4.6-7,8.9-8.4c1-0.3,2-0.5,3-0.6c0.1,0,0.2,0,0.2-0.2
		C15.4,2,15.4,1.7,15.6,1.5z M3.6,23.7c3,4.4,7.1,6.9,12.5,6.9c5.3,0,9.3-2.5,12.3-6.9c-0.2,0-0.4,0-0.5-0.1s-0.3-0.2-0.4-0.2
		s-0.2,0.2-0.2,0.3c-2.3,3.2-5.4,5.2-9.3,5.8c-2.3,0.4-4.6,0.1-6.8-0.7c-1.9-0.7-3.6-1.9-5.1-3.3c-0.6-0.6-1.1-1.2-1.5-1.8
		c-0.1-0.1-0.2-0.1-0.3-0.1C4.1,23.6,3.9,23.6,3.6,23.7z M17,8.9c0.3-0.8,0.6-1.6,0.9-2.3c-0.1,0-0.2,0-0.3,0c-0.5,0-1,0.1-1.5,0.2
		c-0.2,0-0.2,0-0.2-0.2c0-1,0-2.1,0-3.1c0-0.5,0-1,0-1.5l0,0c-0.8,2.4-1.7,4.8-2.5,7.2C14,9.1,14.5,9,15,9c-0.3,0.8-0.6,1.6-0.9,2.4
		c0.6-0.1,1.2-0.1,1.8-0.2c0.2,0,0.2,0,0.2,0.2c0,1.5,0,2.9,0,4.4c0,0.1,0,0.1,0,0.3c0.9-2.5,1.7-4.9,2.6-7.3
		C18,8.8,17.6,8.8,17,8.9z M3.8,23C3.9,23,4,23,4,23c0.5-0.1,0.9-0.2,1.4-0.3c1.3-0.3,2.7-0.5,4-0.8c0.6-0.1,1.2-0.2,1.8-0.3
		c0.1,0,0.1-0.1,0.1-0.2c-0.3-0.3-0.5-0.7-0.8-1l-0.1-0.1c0.7-0.1,1.5-0.2,2.2-0.4c0.2,0,0.2-0.1,0.1-0.2c-0.3-0.5-0.7-0.9-1-1.4
		c1.4-0.8,2.7-1.5,4.1-2.3c-0.1,0-0.2,0-0.3,0c-0.5,0.1-1.1,0.2-1.6,0.3c-1.8,0.3-3.6,0.7-5.4,1c-0.2,0-0.2,0.1-0.1,0.2
		c0.3,0.4,0.6,0.7,0.9,1.1c-0.4,0.1-0.8,0.1-1.2,0.2c-0.4,0.1-0.8,0.1-1.2,0.2c0.4,0.5,0.7,1,1.1,1.5c0,0.2,0,0.2-0.2,0.3
		c-0.7,0.4-1.4,0.8-2,1.1C5.2,22.3,4.5,22.6,3.8,23z"/>
	<path style="fill:#E4E7E9;" d="M22.4,17.5c-0.3-0.4-0.6-0.7-0.9-1.1c-0.4-0.5-0.9-0.4-1.1,0.2c-0.1,0.3-0.3,0.6-0.4,0.9
		c-0.1,0.1-0.1,0.1-0.2,0.1c-0.8-0.5-1.7-1-2.5-1.5C17.2,16,17.1,16,17,15.9c-0.3-0.2-0.3-0.2-0.2-0.5c0.7-1.9,1.4-3.9,2-5.8
		c0-0.1,0.1-0.2,0.2-0.1c2,1,3.2,2.5,3.9,4.6c0.2,0.8,0.3,1.5,0.2,2.3c0,0.1,0,0.2-0.1,0.2c-0.2,0.1-0.4,0.2-0.4,0.4
		C22.6,17.2,22.5,17.3,22.4,17.5z"/>
	<path style="fill:#E4E7E9;" d="M14.1,9.7c-0.2,0.5-0.4,0.9-0.5,1.4c-0.1,0.3,0,0.6,0.2,0.7c0.1,0.1,0.3,0.1,0.4,0.1
		c0.4,0,0.7-0.1,1.1-0.1c0.1,0,0.2,0,0.2,0.2c0,1.1,0,2.3,0,3.4c0,0.1-0.1,0.2-0.2,0.2c-1.3,0.2-2.6,0.5-3.8,0.7
		c-0.8,0.1-1.6,0.3-2.4,0.5c-0.1,0-0.2,0-0.2-0.1c-0.1-2.4,0.7-4.4,2.5-6c0.4-0.4,0.9-0.7,1.4-0.9c0.1-0.1,0.2-0.1,0.3,0
		s0.3,0.2,0.5,0.1C13.7,9.7,13.9,9.7,14.1,9.7z"/>
	<path style="fill:#E4E7E9;" d="M11.5,20.8c0.5-0.1,1-0.2,1.4-0.2c0.6-0.1,0.8-0.5,0.4-1c-0.2-0.3-0.4-0.6-0.6-0.8
		c-0.1-0.1-0.1-0.2,0.1-0.3c1-0.5,2-1.1,2.9-1.7c0.1-0.1,0.2-0.1,0.3,0c0.7,0.9,1.5,1.7,2.2,2.6c0.7,0.8,1.3,1.5,2,2.3
		c0.1,0.1,0,0.1,0,0.2c-0.9,0.6-1.9,1-3,1.2c-1.8,0.3-3.5-0.1-5-1C12,22,11.9,21.9,12,21.7c0-0.1,0-0.3-0.1-0.4
		C11.7,21.2,11.6,21,11.5,20.8z"/>
	<path style="fill:#FDFDFC;" d="M16.5,1.5c5.2,0.3,9.3,2.6,12,7c2.8,4.7,2.8,9.5,0.4,14.4c-0.2-0.3-0.4-0.5-0.6-0.7
		c-0.1-0.1,0-0.1,0-0.2c0.7-1.5,1.2-3.1,1.3-4.8c0.2-2.2-0.1-4.4-1-6.5c-0.6-1.5-1.5-2.8-2.6-4c-2-2.1-4.4-3.5-7.3-4.1
		c-0.7-0.1-1.4-0.2-2.1-0.3c-0.1,0-0.2,0-0.2-0.2C16.6,1.9,16.6,1.7,16.5,1.5z"/>
	<path style="fill:#FDFDFC;" d="M15.6,1.5c-0.2,0.2-0.2,0.5-0.3,0.7c0,0.1-0.1,0.2-0.2,0.2c-1,0.1-2.1,0.2-3,0.6
		c-4.3,1.4-7.3,4.2-8.9,8.5c-0.8,2.2-1,4.5-0.6,6.9c0.2,1.4,0.7,2.7,1.3,3.9c0.1,0.1,0,0.2-0.1,0.3c-0.2,0.1-0.4,0.2-0.5,0.5
		C1,18.5,0.8,14,2.9,9.6C5.6,4.1,11,1.5,15.6,1.5z"/>
	<path style="fill:#FDFDFC;" d="M3.6,23.7c0.3,0,0.5-0.1,0.8-0.1c0.1,0,0.2,0,0.3,0.1c0.4,0.7,0.9,1.3,1.5,1.8
		c1.5,1.5,3.1,2.6,5.1,3.3c2.2,0.8,4.4,1.1,6.8,0.7c3.9-0.6,7-2.6,9.3-5.8c0.1-0.1,0.1-0.3,0.2-0.3s0.3,0.1,0.4,0.2s0.3,0.1,0.5,0.1
		c-3,4.4-7,6.8-12.3,6.9C10.7,30.6,6.6,28.1,3.6,23.7z"/>
	<path style="fill:#FDFDFC;" d="M17,8.9c0.5-0.1,1-0.1,1.6-0.2c-0.9,2.4-1.7,4.8-2.6,7.3c0-0.1,0-0.2,0-0.3c0-1.5,0-2.9,0-4.4
		c0-0.2,0-0.2-0.2-0.2c-0.6,0.1-1.1,0.1-1.8,0.2c0.3-0.8,0.6-1.6,0.9-2.4c-0.5,0.1-1,0.1-1.6,0.2c1-2.4,1.8-4.7,2.7-7.1l0,0
		c0,0.5,0,1,0,1.5c0,1,0,2.1,0,3.1c0,0.2,0,0.2,0.2,0.2c0.5-0.1,1-0.1,1.5-0.2c0.1,0,0.2,0,0.3,0C17.6,7.3,17.3,8.1,17,8.9z"/>
	<path style="fill:#FDFDFC;" d="M28.2,23c-0.3-0.1-0.6-0.3-0.9-0.5c-1-0.6-2-1.2-3-1.8c-0.1-0.1-0.1,0-0.2,0.1
		c-0.2,0.5-0.5,1.1-0.7,1.7c-0.5-0.7-1.1-1.3-1.6-2c-0.2,0.5-0.4,1-0.6,1.5c-1.6-1.9-3.3-3.8-4.9-5.7c0.1,0,0.2,0,0.2,0.1
		c1.2,0.7,2.4,1.4,3.6,2.1c0.2,0.1,0.2,0.1,0.3-0.1c0.2-0.5,0.5-1,0.7-1.6c0.5,0.7,1.1,1.3,1.6,2c0.2-0.5,0.4-1,0.6-1.4
		c0.1,0,0.1,0,0.1,0.1C24.9,19.2,26.5,21,28.2,23C28.1,22.9,28.1,23,28.2,23L28.2,23z"/>
	<path style="fill:#FDFDFC;" d="M3.8,23c0.7-0.4,1.3-0.8,2-1.1c0.7-0.4,1.4-0.8,2-1.1C8,20.7,8,20.7,7.9,20.5
		c-0.4-0.5-0.7-1-1.1-1.5c0.4-0.1,0.8-0.1,1.2-0.2s0.8-0.1,1.2-0.2c-0.3-0.4-0.6-0.8-0.9-1.1c-0.1-0.1-0.1-0.2,0.1-0.2
		c1.8-0.3,3.6-0.7,5.4-1c0.5-0.1,1.1-0.2,1.6-0.3c0.1,0,0.2,0,0.3,0c-1.4,0.8-2.8,1.5-4.1,2.3c0.3,0.5,0.7,1,1,1.4
		c0.1,0.1,0.1,0.2-0.1,0.2c-0.8,0.1-1.5,0.2-2.2,0.4c0,0.1,0,0.1,0.1,0.1c0.3,0.3,0.5,0.7,0.8,1c0.1,0.1,0.1,0.1-0.1,0.2
		c-0.6,0.1-1.2,0.2-1.8,0.3c-1.3,0.3-2.7,0.5-4,0.8C4.9,22.9,4.5,22.9,4,23C4,23,3.9,23,3.8,23z"/>
	<path style="fill:#FDFDFC;" d="M28.2,23L28.2,23L28.2,23L28.2,23L28.2,23z"/>
</g>
</svg>
