<?xml version="1.0" encoding="utf-8"?>
<!-- Generator: Adobe Illustrator 22.1.0, SVG Export Plug-In . SVG Version: 6.00 Build 0)  -->
<svg version="1.1" id="Слой_1" xmlns="http://www.w3.org/2000/svg" xmlns:xlink="http://www.w3.org/1999/xlink" x="0px" y="0px"
	 width="32px" height="32px" viewBox="0 0 32 32" style="enable-background:new 0 0 32 32;" xml:space="preserve">
<g>
	<polygon style="fill:#2AB543;" points="9.1,0.1 18,1.9 20.8,10 29.1,11.6 32,20.3 26,27.2 17.5,25.5 11.9,31.8 3,30.1 0,21.4 
		5.7,14.9 3,7 	"/>
	<path style="fill:#068210;" d="M20.5,11.1l7.7,1.5l2.5,7.4l-5.1,5.9l-7.7-1.5l5.2-5.9L20.5,11.1z"/>
	<path style="fill:#068210;" d="M9.5,1.4l7.7,1.5l2.5,7.3l-5.1,5.9l-7.7-1.5l5.1-6L9.5,1.4z"/>
	<path style="fill:#068210;" d="M6.5,15.8l7.7,1.5l2.5,7.4l-5.1,5.9l-7.7-1.5l5.2-5.9L6.5,15.8z"/>
	<path style="fill:#FEFEFE;" d="M11.1,3.7L14,12l2.6-3l0.8,2.5c0,0-2.6,3-2.5,3l1.5,4.5l8.5-5.3l1.2,3.6l-13.5,8.4l-2.1-6.1
		l-2.4,2.8l-0.8-2.6L9.6,17L6.1,6.8L11.1,3.7z"/>
</g>
</svg>
