<?xml version="1.0" encoding="utf-8"?>
<!-- Generator: Adobe Illustrator 22.1.0, SVG Export Plug-In . SVG Version: 6.00 Build 0)  -->
<svg version="1.1" id="Слой_1" xmlns="http://www.w3.org/2000/svg" xmlns:xlink="http://www.w3.org/1999/xlink" x="0px" y="0px"
	 viewBox="0 0 32 32" style="enable-background:new 0 0 32 32;" xml:space="preserve">
<style type="text/css">
	.st0{fill:#FEFEFE;}
	.st1{fill:#030303;}
	.st2{fill:#EAC731;}
</style>
<rect x="0" y="0" class="st0" width="32" height="32"/>
<g>
	<path class="st1" d="M15.9,2.3c0,0.2,0.2,0.4,0.3,0.6c1.9,3.3,3.8,6.6,5.7,9.9c0.1,0.1,0.1,0.2,0,0.3c-0.4,0.4-0.8,0.8-1.2,1.2
		c-0.1,0.1-0.2,0.1-0.3,0c-1.4-2.4-2.8-4.7-4.1-7.1c-0.2-0.3-0.3-0.5-0.5-0.9c-0.2,0.4-0.5,0.8-0.7,1.2c-1.3,2.2-2.6,4.5-3.9,6.7
		c-0.1,0.2-0.2,0.2-0.3,0c-0.4-0.4-0.7-0.7-1.1-1.1c-0.1-0.1-0.1-0.2-0.1-0.4c1.5-2.6,3.1-5.2,4.6-7.9c0.5-0.8,0.9-1.6,1.4-2.4
		C15.8,2.4,15.8,2.3,15.9,2.3C15.8,2.3,15.8,2.3,15.9,2.3z"/>
	<path class="st1" d="M0,29.5c2.7-4.8,5.5-9.5,8.2-14.3c0.3,0.3,0.7,0.7,1,1c0.1,0.2,0.4,0.3,0.4,0.5c0,0.2-0.2,0.4-0.3,0.5
		c-2,3.4-4,6.9-6,10.3c0,0,0,0.1-0.1,0.1c0.1,0,0.2,0,0.3,0c3.5,0,7,0,10.6,0c0.2,0,0.3,0.1,0.3,0.3c0,0.4,0,0.9,0,1.3
		c0,0.2,0,0.2-0.2,0.2c-3.4,0-6.7,0-10.1,0c-1.2,0-2.5,0-3.7,0C0.2,29.5,0.1,29.5,0,29.5z"/>
	<path class="st1" d="M23.8,15.2c0.4,0.6,8.1,14,8.2,14.3c-0.1,0-0.2,0-0.3,0c-4.6,0-9.2,0-13.8,0c-0.2,0-0.3,0-0.3-0.3
		c0-0.4,0-0.9,0-1.3c0-0.2,0.1-0.2,0.3-0.2c3.5,0,7,0,10.5,0c0,0,0.1,0,0.1,0c0.2,0,0.2,0,0.1-0.2c-0.3-0.6-0.7-1.2-1-1.7
		c-1-1.7-2-3.5-3-5.2c-0.7-1.2-1.4-2.5-2.2-3.7c-0.1-0.1-0.1-0.2,0-0.3C22.9,16.2,23.4,15.7,23.8,15.2z"/>
	<path class="st2" d="M15.9,8.7c0.3,0.6,0.7,1.2,1,1.8c0.8,1.4,1.7,2.9,2.5,4.3c0,0,0,0,0,0.1c0.2,0.3,0.2,0.5-0.1,0.8
		c-0.7,0.8-1.5,1.6-2.2,2.3c-0.4,0.4-0.8,0.9-1.2,1.3c-0.1,0.1-0.2,0.1-0.3,0c-0.4-0.4-0.8-0.8-1.2-1.3c-0.8-0.8-1.6-1.7-2.3-2.5
		c-0.1-0.1-0.2-0.2-0.1-0.4c1.1-1.9,2.3-3.9,3.4-5.8C15.7,9,15.7,8.9,15.9,8.7z"/>
</g>
</svg>
