<?xml version="1.0" encoding="utf-8"?>
<!-- Generator: Adobe Illustrator 22.1.0, SVG Export Plug-In . SVG Version: 6.00 Build 0)  -->
<svg version="1.1" id="Слой_1" xmlns="http://www.w3.org/2000/svg" xmlns:xlink="http://www.w3.org/1999/xlink" x="0px" y="0px"
	 width="32px" height="32px" viewBox="0 0 32 32" style="enable-background:new 0 0 32 32;" xml:space="preserve">
<g>
	<circle style="fill:#6A390A;" cx="16" cy="16" r="16"/>
	<g>
		<path style="fill:#FFFFFF;" d="M16.7,14.5H6.1C6,14.5,6,14.4,6,14.4l1.4-3.6c0-0.1,0.1-0.1,0.1-0.1h10.7c0.1,0,0.1,0.1,0.1,0.1
			l-1.4,3.6C16.9,14.5,16.8,14.5,16.7,14.5z"/>
		<path style="fill:#FFFFFF;" d="M12.8,15.4l-4,10.1c0,0.1-0.1,0.1-0.1,0.1H5.3c-0.1,0-0.1-0.1-0.1-0.1l4-10.1
			c0-0.1,0.1-0.1,0.1-0.1h3.4C12.7,15.2,12.8,15.3,12.8,15.4z"/>
		<path style="fill:#FFFFFF;" d="M26,7.6c-1.3-1.4-4.4-1.3-4.4-1.3h-8.8c-0.1,0-0.1,0.1-0.1,0.1l-1.3,3.2c0,0.1,0.1,0.1,0.1,0.1H20
			c0.2,0,2.6,0,2.6,1.4s-0.7,3.7-4.5,4.1H14c-0.1,0-0.1,0.1-0.1,0.1l-1.3,3c0,0.1,0.1,0.1,0.1,0.1s5.8,0.1,5.8,0
			c1.5-0.2,4-0.9,5.5-2.8C26.3,13.1,28,9.8,26,7.6z"/>
	</g>
</g>
</svg>
