<?xml version="1.0" encoding="utf-8"?>
<!-- Generator: Adobe Illustrator 22.1.0, SVG Export Plug-In . SVG Version: 6.00 Build 0)  -->
<svg version="1.1" id="Слой_1" xmlns="http://www.w3.org/2000/svg" xmlns:xlink="http://www.w3.org/1999/xlink" x="0px" y="0px"
	 viewBox="0 0 32 32" style="enable-background:new 0 0 32 32;" xml:space="preserve">
<style type="text/css">
	.st0{fill:#2A272A;}
	.st1{fill:#7E60F1;}
</style>
<g>
	<circle class="st0" cx="16" cy="16" r="16"/>
	<path class="st1" d="M20.5,8.5c-1.8,0-3.4,0.8-4.5,2.2c-1-1.3-2.7-2.2-4.5-2.2c-3.2,0-5.7,2.6-5.7,5.7v7.3c0,0.7,0.6,1.2,1.2,1.2
		s1.2-0.6,1.2-1.2v-7.3c0-1.8,1.4-3.2,3.2-3.2s3.2,1.4,3.2,3.2v7.3c0,0.7,0.6,1.2,1.2,1.2c0.7,0,1.2-0.6,1.2-1.2v-7.3
		c0-1.8,1.4-3.2,3.2-3.2s3.2,1.4,3.2,3.2v7.3c0,0.7,0.6,1.2,1.2,1.2c0.7,0,1.2-0.6,1.2-1.2v-7.3C26.2,11,23.6,8.5,20.5,8.5z"/>
</g>
</svg>
