<?xml version="1.0" encoding="utf-8"?>
<!-- Generator: Adobe Illustrator 21.1.0, SVG Export Plug-In . SVG Version: 6.00 Build 0)  -->
<svg version="1.1" id="Слой_1" xmlns="http://www.w3.org/2000/svg" xmlns:xlink="http://www.w3.org/1999/xlink" x="0px" y="0px"
	 viewBox="0 0 32 32" style="enable-background:new 0 0 32 32;" xml:space="preserve">
<style type="text/css">
	.st0{fill:#267F3F;}
	.st1{fill:#FFFFFF;}
</style>
<g>
	<path class="st0" d="M0,32C0,21.3,0,10.7,0,0c10.7,0,21.3,0,32,0c0,10.7,0,21.3,0,32C21.3,32,10.7,32,0,32z M1.9,19
		C1.9,19,1.9,19,1.9,19c0,2.6,0,5.1,0,7.7c0,1.8,0.8,3,2.5,3.5c2,0.6,4,0.6,6-0.1c1.2-0.4,2-1.3,2.2-2.6c0.1-0.4,0.1-0.8,0.1-1.2
		c0-5,0-9.9,0-14.9c0-0.3,0-0.6-0.1-1C12.3,8.7,10.9,8,9.4,7.7C8,7.4,6.6,7.4,5.2,7.7C4.3,7.9,3.4,8.2,2.7,9
		c-0.6,0.7-0.8,1.5-0.8,2.3C1.9,13.9,1.9,16.5,1.9,19z M18.1,30.5c0-0.3,0-0.5,0-0.8c0-3.2,0-6.3,0-9.5c0-3,0-6.1,0-9.1
		c0-0.5,0.1-0.9,0.6-1.1c0.9-0.4,2.1-0.2,2.1,1.2c0,0.1,0,0.2,0,0.3c0,6.1,0,12.3,0,18.4c0,0.2,0,0.3,0,0.5c1.2,0,2.4,0,3.5,0
		c0.5,0,0.5,0,0.5-0.5c0-6.3,0-12.5-0.1-18.8c0-0.1,0-0.2,0-0.3c-0.4,0-0.9,0-1.3,0c-1.2,0-2-0.7-2.2-1.8c-0.1-0.5-0.1-1-0.1-1.6
		c-1,0-2,0.2-3,0.8c0-0.3,0-0.6,0-0.8c-1.4,0-2.7,0-4,0c0,7.7,0,15.3,0,22.9C15.4,30.5,16.7,30.5,18.1,30.5z M21.3,7.3
		c1,0,1.8,0.3,2.5,1c0.6,0.6,1,1.4,1.1,2.4c2,0,4,0,6,0c0-2,0-3.9,0-5.8c-1.8,0-3.5,0-5.3,0c0,0.5,0,0.9,0,1.4c0.6,0,1.2,0,1.9,0
		c0,0.8,0,1.5,0,2.3c0,0.5-0.3,0.7-0.8,0.7c-0.4,0-0.7,0-1.1,0c-0.8,0-1-0.2-1-1c0-1.7,0-3.5,0-5.2c0-0.7,0.3-1,1-1
		c1.5,0,2.9,0,4.4,0c0.1,0,0.3,0,0.4,0c0-0.5,0-1,0-1.4c-0.2,0-0.3,0-0.4,0c-2.2,0-4.4,0-6.6,0c-1,0-1.7,0.5-1.9,1.5
		c-0.1,0.4-0.1,0.8-0.1,1.2C21.3,4.6,21.3,5.9,21.3,7.3z"/>
	<path class="st1" d="M1.9,19c0-2.6,0-5.1,0-7.7c0-0.8,0.2-1.6,0.8-2.3c0.7-0.8,1.6-1.1,2.5-1.3c1.4-0.3,2.8-0.3,4.1,0
		c1.6,0.3,2.9,1,3.2,2.8c0.1,0.3,0.1,0.6,0.1,1c0,5,0,9.9,0,14.9c0,0.4,0,0.8-0.1,1.2c-0.2,1.3-1,2.1-2.2,2.6c-2,0.7-4,0.7-6,0.1
		c-1.7-0.5-2.5-1.7-2.5-3.5C1.9,24.2,1.9,21.6,1.9,19C1.9,19,1.9,19,1.9,19z M6,19C6,19,6,19,6,19c0,2.6,0,5.1,0,7.7
		c0,0.4,0.1,0.8,0.4,1c0.4,0.4,1,0.4,1.6,0.2c0.5-0.2,0.7-0.7,0.7-1.2c0-5.2,0-10.3,0-15.5c0-0.3-0.1-0.6-0.3-0.9
		C8.1,10,7.4,9.8,6.7,10C6.3,10.2,6,10.6,6,11.2C6,13.8,6,16.4,6,19z"/>
	<path class="st1" d="M18.1,30.5c-1.4,0-2.7,0-4.1,0c0-7.7,0-15.3,0-22.9c1.4,0,2.7,0,4,0c0,0.3,0,0.5,0,0.8c0.9-0.6,1.9-0.8,3-0.8
		c0,0.5,0,1.1,0.1,1.6c0.2,1.1,1,1.8,2.2,1.8c0.4,0,0.8,0,1.3,0c0,0.1,0,0.2,0,0.3c0,6.3,0,12.5,0.1,18.8c0,0.5,0,0.5-0.5,0.5
		c-1.2,0-2.3,0-3.5,0c0-0.2,0-0.3,0-0.5c0-6.1,0-12.3,0-18.4c0-0.1,0-0.2,0-0.3c0-1.4-1.2-1.6-2.1-1.2c-0.4,0.2-0.6,0.6-0.6,1.1
		c0,3,0,6.1,0,9.1c0,3.2,0,6.3,0,9.5C18.1,30,18.1,30.2,18.1,30.5z"/>
	<path class="st1" d="M21.3,7.3c0-1.4,0-2.7,0-4c0-0.4,0.1-0.8,0.1-1.2c0.2-0.9,0.9-1.5,1.9-1.5c2.2,0,4.4,0,6.6,0
		c0.1,0,0.3,0,0.4,0c0,0.5,0,0.9,0,1.4c-0.1,0-0.3,0-0.4,0c-1.5,0-2.9,0-4.4,0c-0.7,0-1,0.3-1,1c0,1.7,0,3.5,0,5.2c0,0.8,0.2,1,1,1
		c0.4,0,0.7,0,1.1,0c0.5,0,0.7-0.3,0.8-0.7c0-0.7,0-1.5,0-2.3c-0.6,0-1.2,0-1.9,0c0-0.5,0-0.9,0-1.4c1.8,0,3.5,0,5.3,0
		c0,1.9,0,3.9,0,5.8c-2,0-4,0-6,0c-0.1-0.9-0.5-1.7-1.1-2.4C23.1,7.6,22.3,7.2,21.3,7.3z"/>
	<path class="st0" d="M6,19c0-2.6,0-5.2,0-7.8c0-0.6,0.3-1,0.7-1.2c0.6-0.2,1.3-0.1,1.6,0.4c0.2,0.2,0.3,0.6,0.3,0.9
		c0,5.2,0,10.3,0,15.5c0,0.5-0.1,1-0.7,1.2c-0.5,0.2-1.1,0.2-1.6-0.2C6.2,27.5,6,27,6,26.7C6,24.1,6,21.5,6,19C6,19,6,19,6,19z"/>
</g>
</svg>
