<?xml version="1.0" encoding="utf-8"?>
<!-- Generator: Adobe Illustrator 22.1.0, SVG Export Plug-In . SVG Version: 6.00 Build 0)  -->
<svg version="1.1" id="Слой_1" xmlns="http://www.w3.org/2000/svg" xmlns:xlink="http://www.w3.org/1999/xlink" x="0px" y="0px"
	 viewBox="0 0 32 32" style="enable-background:new 0 0 32 32;" xml:space="preserve">
<style type="text/css">
	.st0{fill:#EDA735;}
	.st1{fill:#231F20;}
</style>
<g>
	<g>
		<path class="st0" d="M13.7,0.2c3.2-0.4,6.4,0.1,9.3,1.5c3.3,1.6,5.9,4.3,7.5,7.6c1.4,2.9,1.8,6.3,1.3,9.4
			c-0.5,3.2-2.1,6.3-4.4,8.6c-2.2,2.3-5.2,3.8-8.3,4.4c-3.2,0.6-6.7,0.2-9.7-1.1c-3.3-1.5-6.1-4.2-7.7-7.5c-1.5-3-2-6.6-1.4-9.9
			C0.8,10,2.4,7,4.7,4.7C7.1,2.2,10.3,0.6,13.7,0.2 M13.7,3.8C10.9,4.3,8.3,5.8,6.4,8c-1.8,2.1-2.8,4.8-2.9,7.6
			c-0.1,2.6,0.7,5.2,2.1,7.3c1.7,2.5,4.3,4.3,7.2,5.1c3,0.8,6.3,0.4,9-1c2.7-1.4,4.9-4,5.9-6.9c1-2.9,0.9-6.1-0.3-8.9
			c-1.1-2.6-3.1-4.8-5.6-6.2C19.4,3.7,16.5,3.3,13.7,3.8z"/>
		<path class="st0" d="M11.1,8c1.1,0,2.2,0,3.3,0c0,1.6,0,3.2,0,4.8c1.3,0,2.5,0,3.8,0c0,0.7,0,1.4,0,2c-1.3,0-2.5,0-3.8,0
			c0,0.7,0,1.4,0,2c1.3,0,2.5,0,3.8,0c0,0.7,0,1.4,0,2c-1.3,0-2.5,0-3.8,0c0,0.8,0,1.5,0,2.3c2.7,0,5.4,0,8.1,0c0,0.9,0,1.8,0,2.7
			c-3.8,0-7.6,0-11.3,0c0-1.7,0-3.3,0-5c-0.5,0-1,0-1.5,0c0-0.7,0-1.4,0-2c0.5,0,1,0,1.5,0c0-0.7,0-1.4,0-2c-0.5,0-1,0-1.5,0
			c0-0.7,0-1.4,0-2c0.5,0,1,0,1.5,0C11.1,11.2,11.1,9.6,11.1,8"/>
	</g>
	<path class="st1" d="M13.7,3.8c2.7-0.5,5.6-0.1,8.1,1.2c2.5,1.3,4.5,3.5,5.6,6.2c1.2,2.8,1.3,6.1,0.3,8.9c-1,2.9-3.2,5.4-5.9,6.9
		c-2.7,1.5-6,1.8-9,1c-2.9-0.7-5.5-2.6-7.2-5.1c-1.5-2.1-2.2-4.8-2.1-7.3c0.1-2.8,1.1-5.5,2.9-7.6C8.3,5.8,10.9,4.3,13.7,3.8
		 M11.1,8c0,1.6,0,3.2,0,4.8c-0.5,0-1,0-1.5,0c0,0.7,0,1.4,0,2c0.5,0,1,0,1.5,0c0,0.7,0,1.4,0,2c-0.5,0-1,0-1.5,0c0,0.7,0,1.4,0,2
		c0.5,0,1,0,1.5,0c0,1.7,0,3.3,0,5c3.8,0,7.6,0,11.3,0c0-0.9,0-1.8,0-2.7c-2.7,0-5.4,0-8.1,0c0-0.8,0-1.5,0-2.3c1.3,0,2.5,0,3.8,0
		c0-0.7,0-1.4,0-2c-1.3,0-2.5,0-3.8,0c0-0.7,0-1.4,0-2c1.3,0,2.5,0,3.8,0c0-0.7,0-1.4,0-2c-1.3,0-2.5,0-3.8,0c0-1.6,0-3.2,0-4.8
		C13.3,8,12.2,8,11.1,8"/>
</g>
</svg>
