<?xml version="1.0" encoding="utf-8"?>
<!-- Generator: Adobe Illustrator 22.1.0, SVG Export Plug-In . SVG Version: 6.00 Build 0)  -->
<svg version="1.1" id="Слой_1" xmlns="http://www.w3.org/2000/svg" xmlns:xlink="http://www.w3.org/1999/xlink" x="0px" y="0px"
	 width="32px" height="32px" viewBox="0 0 32 32" style="enable-background:new 0 0 32 32;" xml:space="preserve">
<g>
	<path style="fill:#DD561B;" d="M7.1,10.9c0,0,2.9-4.2,8.5-4.2s9.1,4.2,9.1,4.2l-1.8,0.9c0,0-2.3-3.2-7.2-3.2s-6.8,3.2-6.8,3.2
		L7.1,10.9z"/>
	<path style="fill:none;" d="M13.4,12.3c-0.7,0.3-1.4,0.6-1.9,0.9l0.9,0.5C12.8,12.8,13.4,12.3,13.4,12.3z"/>
	<path style="fill:none;" d="M18.5,12.3c0,0,0.7,0.5,1.1,1.4l0.9-0.4C19.4,12.6,18.5,12.3,18.5,12.3z"/>
	<path style="fill:#DD561B;" d="M13.4,12.3c0,0-0.6,0.5-1,1.4l3.6,1.9l3.6-1.8c-0.4-0.9-1.1-1.4-1.1-1.4s0.9,0.3,1.9,1l2-1
		c-1.4-1.1-3.6-2.4-6.5-2.3c-2.7,0-4.9,1.1-6.4,2.3l2,1C12,12.9,12.7,12.6,13.4,12.3z"/>
	<polygon style="fill:#DD561B;" points="16,2.4 28.3,9.2 30.4,8 29.3,7.4 17,0.6 16,0 15,0.6 2.7,7.4 1.6,8 3.7,9.2 	"/>
	<path style="fill:#C31126;" d="M6.8,15.1c1.5,2.6,4.5,4,4.5,4v5.4l2,1l0.1-5.6c0.9,0.4,1.8,0.5,2.7,0.4v-4.8l-3.6-1.9
		c-0.2,0.4-0.3,0.8-0.3,1.3c0,1.6,0.8,2.9,0.8,2.9s-1.9-0.6-3.6-2.7c0,0,0.6-0.9,2.2-1.9l-2-1C7.7,13.6,6.8,15.1,6.8,15.1z"/>
	<polygon style="fill:#C31126;" points="3.7,22.8 3.7,9.2 1.6,8 1.6,9.2 1.6,22.8 1.6,24 2.7,24.6 15,31.4 16,32 16,29.6 	"/>
	<path style="fill:#9A212E;" d="M22.6,15.1c0,0-1.1,1.7-3.5,2.7c0,0,0.8-0.8,0.8-2.6c0-0.6-0.1-1.1-0.3-1.5L16,15.5v4.8
		c1.7-0.1,3.1-0.5,3.1-0.5s0,2,0,2.8s0.1,2.3,1.6,2c2.7-0.5,3.8-3.8,3.9-4.2c0.1-0.4,0-1.6,0-1.6L22.7,20c0,0,0,1.1,0,1.4
		c-1.1,1.7-1.6,0.9-1.7,0.4s0-2.8,0-2.8c2.3-1.3,3.5-3.1,3.5-3.1l2.2-1.1v-2L24.3,14c0,0-0.6-0.9-1.8-1.8l-2,1
		C21.1,13.7,21.9,14.3,22.6,15.1z"/>
	<polygon style="fill:#9A212E;" points="29.3,24.6 30.4,24 30.4,22.8 30.4,9.2 30.4,8 28.3,9.2 28.3,22.8 16,29.6 16,32 17,31.4 	
		"/>
</g>
</svg>
