<?xml version="1.0" encoding="utf-8"?>
<!-- Generator: Adobe Illustrator 21.1.0, SVG Export Plug-In . SVG Version: 6.00 Build 0)  -->
<svg version="1.1" id="Слой_1" xmlns="http://www.w3.org/2000/svg" xmlns:xlink="http://www.w3.org/1999/xlink" x="0px" y="0px"
	 viewBox="0 0 32 32" style="enable-background:new 0 0 32 32;" xml:space="preserve">
<style type="text/css">
	.st0{fill:#1CB7E1;}
</style>
<title>color/xrp</title>
<desc>Created with Sketch.</desc>
<g>
	<path class="st0" d="M16.6,0c0,0.1,0.1,0.1,0.2,0.1c1,0.2,1.8,0.6,2.5,1.3c2.4,2.4,4.8,4.8,7.2,7.2c1.4,1.4,2.8,2.8,4.2,4.2
		c1.8,1.8,1.8,4.7,0,6.5c-1.8,1.8-3.5,3.5-5.3,5.3c-0.2,0.2-0.3,0.4-0.2,0.6c0,1.8,0,3.5,0,5.3c0,0.2,0,0.4-0.1,0.6
		c-0.2,0.3-0.5,0.5-0.8,0.5c-0.3,0-0.6-0.3-0.7-0.7c0-0.1,0-0.2,0-0.3c0-0.8,0-1.5,0-2.3c0-1.1,0-2.2,0-3.3c0-0.3-0.1-0.4-0.3-0.6
		c-1-0.9-1.9-1.7-2.8-2.6c-0.5-0.4-0.9-0.9-1.3-1.3c-0.7-0.7-1.3-1.3-2-2c-0.2-0.2-0.3-0.2-0.5-0.1c-1.2,0.3-2.4-0.4-2.8-1.5
		c-0.4-1.3,0.3-2.7,1.6-3c1.4-0.3,2.7,0.5,2.9,1.9c0.1,0.4,0,0.7-0.1,1.1c-0.1,0.2,0,0.3,0.1,0.5c0.8,0.7,1.5,1.5,2.2,2.2
		c1.1,1.1,2.1,2.1,3.2,3.2c0.1,0.1,0.2,0.2,0.3,0.3c0.1,0.1,0.2,0.1,0.3,0c0.3-0.3,0.6-0.6,0.8-0.8c1.4-1.4,2.7-2.7,4.1-4.1
		c0.9-0.9,1.1-2.3,0.3-3.4c-0.1-0.2-0.3-0.3-0.4-0.5c-3-3-6-6-9-9c-0.7-0.7-1.4-1.4-2.1-2.1c-0.3-0.3-0.7-0.6-1.1-0.8
		c-1.1-0.4-2-0.2-2.8,0.6c-1.2,1.2-2.4,2.4-3.5,3.5C7.9,8.8,5.3,11.4,2.7,14c-0.4,0.4-0.6,0.7-0.8,1.2c-0.3,1,0,1.9,0.7,2.7
		c1.7,1.7,3.5,3.5,5.2,5.2c2.1,2.1,4.1,4.1,6.2,6.2c0.4,0.4,0.9,0.7,1.5,0.8c0.9,0.2,1.7-0.1,2.4-0.8c0.6-0.6,1.2-1.2,1.8-1.8
		c0.7-0.8,1.5-1.5,2.2-2.3c0.1-0.1,0.1-0.2,0.3-0.1c0.1,0.1,0.2,0.2,0.2,0.3c0,0.7,0,1.3,0,2c0,0.1-0.1,0.2-0.1,0.3c-1,1-2,2-3.1,3
		c-1.7,1.7-4.6,1.7-6.4-0.1c-2.3-2.3-4.6-4.7-7-7c-1.5-1.5-2.9-2.9-4.4-4.4C0.5,18.3,0,17.2,0,15.9c0-1.3,0.5-2.3,1.4-3.2
		c2.2-2.2,4.4-4.4,6.6-6.6c1.5-1.5,3.1-3.1,4.6-4.6c0.7-0.7,1.6-1.2,2.6-1.4c0,0,0.1,0,0.1-0.1C15.8,0,16.2,0,16.6,0z"/>
</g>
</svg>
