<?xml version="1.0" encoding="utf-8"?>
<!-- Generator: Adobe Illustrator 22.1.0, SVG Export Plug-In . SVG Version: 6.00 Build 0)  -->
<svg version="1.1" id="Слой_1" xmlns="http://www.w3.org/2000/svg" xmlns:xlink="http://www.w3.org/1999/xlink" x="0px" y="0px"
	 width="32px" height="32px" viewBox="0 0 32 32" style="enable-background:new 0 0 32 32;" xml:space="preserve">
<g>
	
		<linearGradient id="SVGID_1_" gradientUnits="userSpaceOnUse" x1="30.8941" y1="-7.7974" x2="9.0377" y2="30.059" gradientTransform="matrix(1 0 0 -1 0 34)">
		<stop  offset="0" style="stop-color:#7051A2"/>
		<stop  offset="1" style="stop-color:#30206B"/>
	</linearGradient>
	<rect style="fill:url(#SVGID_1_);" width="32" height="32"/>
</g>
<g>
	
		<linearGradient id="SVGID_2_" gradientUnits="userSpaceOnUse" x1="23.137" y1="5.996" x2="9.1348" y2="30.2485" gradientTransform="matrix(1 0 0 -1 0 34)">
		<stop  offset="0" style="stop-color:#FFCA4D"/>
		<stop  offset="1" style="stop-color:#FF774D"/>
	</linearGradient>
	<path style="fill:url(#SVGID_2_);" d="M16,2C8.3,2,2,8.2,2,16c0,1.3,0.2,2.6,0.5,3.9c0.1,0.4,0.5,0.6,0.9,0.5s0.6-0.5,0.5-0.9
		c-0.3-1.1-0.5-2.3-0.5-3.5C3.4,9,9,3.4,16,3.4S28.6,9,28.6,16S22.9,28.6,16,28.6c-0.9,0-1.8-0.1-2.7-0.3c-0.4-0.1-0.8,0.2-0.8,0.5
		c-0.1,0.4,0.2,0.8,0.5,0.8c1,0.2,2,0.3,3,0.3c7.7,0,14-6.3,14-14S23.7,2,16,2z"/>
	
		<linearGradient id="SVGID_3_" gradientUnits="userSpaceOnUse" x1="21.2211" y1="8.9034" x2="10.7259" y2="27.0819" gradientTransform="matrix(1 0 0 -1 0 34)">
		<stop  offset="0" style="stop-color:#FFCA4D"/>
		<stop  offset="1" style="stop-color:#FF774D"/>
	</linearGradient>
	<path style="fill:url(#SVGID_3_);" d="M26.2,18.3c0.1-0.4-0.2-0.8-0.5-0.8c-0.4-0.1-0.8,0.2-0.8,0.5c-0.9,4.1-4.7,7.1-8.9,7.1
		c-5,0-9.1-4.1-9.1-9.1S11,6.9,16,6.9c3,0,5.7,1.4,7.4,3.9c0.2,0.3,0.7,0.4,1,0.2s0.4-0.7,0.2-1c-2-2.8-5.2-4.5-8.6-4.5
		C10.2,5.5,5.5,10.2,5.5,16S10.2,26.5,16,26.5C20.9,26.5,25.1,23.1,26.2,18.3z"/>
	
		<linearGradient id="SVGID_4_" gradientUnits="userSpaceOnUse" x1="19.5625" y1="11.9291" x2="13.6065" y2="22.2452" gradientTransform="matrix(1 0 0 -1 0 34)">
		<stop  offset="0" style="stop-color:#FFCA4D"/>
		<stop  offset="1" style="stop-color:#FF774D"/>
	</linearGradient>
	<path style="fill:url(#SVGID_4_);" d="M16.3,21.6h0.1c1.1,0,2.1-0.5,2.8-1.2c0.3-0.3,0.2-0.7,0-1c-0.3-0.3-0.7-0.2-1,0
		c-0.4,0.5-1.1,0.8-1.7,0.8h-0.1c-1.3,0-2.4-1.1-2.4-2.4v-4.1h4.6c0.4,0,0.7-0.3,0.7-0.7s-0.3-0.7-0.7-0.7H14v-1.2
		c0-0.4-0.3-0.7-0.7-0.7s-0.7,0.3-0.7,0.7v1.2h-1.3c-0.4,0-0.7,0.3-0.7,0.7s0.3,0.7,0.7,0.7h1.3v4.1C12.6,19.9,14.3,21.6,16.3,21.6z
		"/>
</g>
</svg>
