<?xml version="1.0" encoding="utf-8"?>
<!-- Generator: Adobe Illustrator 22.1.0, SVG Export Plug-In . SVG Version: 6.00 Build 0)  -->
<svg version="1.1" id="Layer_1" xmlns="http://www.w3.org/2000/svg" xmlns:xlink="http://www.w3.org/1999/xlink" x="0px" y="0px"
	 width="32px" height="32px" viewBox="0 0 32 32" style="enable-background:new 0 0 32 32;" xml:space="preserve">
<g>
	<g>
		<g>
			<path style="fill:#E37700;" d="M14.7,0.1c1.4-0.1,2.8,0,4.2,0.2c3.4,0.6,6.5,2.3,8.8,4.9C29,6.5,30,8,30.7,9.7
				c0.8,1.9,1.2,3.9,1.3,6c0,2-0.3,4.1-1,6c-1.2,3.2-3.5,6-6.3,7.8c-1.6,1-3.4,1.8-5.3,2.2c-2.3,0.5-4.7,0.5-7.1-0.1
				c-3.3-0.8-6.4-2.7-8.6-5.3c-1.2-1.5-2.2-3.2-2.8-5c-0.8-2.2-1-4.5-0.8-6.8c0.2-1.9,0.7-3.8,1.6-5.6c1.5-3,3.8-5.4,6.7-6.9
				C10.3,0.9,12.5,0.2,14.7,0.1z M14.8,1.7c-1.6,0.1-3.2,0.6-4.7,1.2C7,4.3,4.4,6.8,3,9.9c-0.9,1.8-1.3,3.9-1.4,5.9
				c-0.1,2.5,0.6,5,1.8,7.2c1.6,2.9,4.2,5.2,7.3,6.4c2,0.8,4.2,1.1,6.4,0.9c2-0.2,4-0.8,5.8-1.7c2.9-1.6,5.3-4.3,6.5-7.4
				c0.8-2,1.1-4.3,0.9-6.5c-0.2-2-0.8-4-1.8-5.8c-1.6-2.9-4.2-5.2-7.3-6.4C19.2,1.8,17,1.5,14.8,1.7z"/>
		</g>
		<path style="fill:#E37700;" d="M14.7,2.7c0.4,0,0.9-0.1,1.3-0.1c0.2,0,0.4,0.2,0.4,0.4S16.2,3.4,16,3.4c-1.3,0-2.6,0.2-3.8,0.6
			c-0.2,0.1-0.5,0-0.5-0.2c-0.1-0.2,0-0.5,0.3-0.5C12.8,3,13.7,2.8,14.7,2.7z"/>
		<path style="fill:#E37700;" d="M19.8,3.3c0.1-0.1,0.2,0,0.4,0c1.3,0.4,2.5,1.1,3.6,1.9c0.2,0.1,0.2,0.5,0,0.6
			c-0.1,0.1-0.4,0.1-0.5,0c-1-0.7-2.1-1.3-3.3-1.7C19.8,4,19.6,4,19.6,3.8C19.5,3.7,19.6,3.4,19.8,3.3z"/>
		<g>
			<path style="fill:#E37700;" d="M14.9,4.5c2.2-0.2,4.5,0.2,6.4,1.3c1.6,0.8,2.9,2,4,3.4s1.8,3.1,2.1,4.9c0.3,2.1,0.1,4.2-0.7,6.2
				c-0.6,1.5-1.6,3-2.8,4.1c-1.3,1.3-3,2.2-4.8,2.7c-2.1,0.6-4.3,0.6-6.4,0c-1.6-0.5-3.2-1.3-4.4-2.5c-1.4-1.3-2.5-2.9-3.1-4.6
				c-1.1-3-0.9-6.5,0.6-9.4C7.2,8,9.6,5.9,12.5,5C13.3,4.7,14.1,4.6,14.9,4.5z M14.2,8.9c0,0.5,0,1.1,0,1.6c-0.8,0-1.7,0-2.5,0
				c0,0.4,0,0.9,0,1.3c0.3,0,0.6,0,0.9,0.1c0.2,0.1,0.2,0.4,0.2,0.6c0,1.9,0,3.8,0,5.7c0,0.2,0,0.5-0.3,0.6s-0.6,0.1-0.9,0.1
				c0,0.4,0,0.9,0,1.3c0.8,0,1.7,0,2.5,0c0,0.5,0,1.1,0,1.6c0.5,0,1.1,0,1.6,0c0-0.5,0-1.1,0-1.6c0.4,0,0.7,0,1.1,0
				c0,0.5,0,1.1,0,1.6c0.5,0,1.1,0,1.6,0c0-0.6,0-1.2,0-1.7c0.6-0.1,1.2-0.4,1.7-0.8c0.5-0.5,0.8-1.1,0.8-1.8c0-0.7-0.3-1.4-0.9-1.8
				c-0.4-0.3-0.8-0.4-1.3-0.6c0.2-0.1,0.4-0.1,0.5-0.2c0.5-0.3,1-0.7,1.1-1.3c0.2-0.6,0.1-1.4-0.2-1.9c-0.4-0.6-1.1-0.9-1.8-1
				c0-0.6,0-1.1,0-1.7c-0.5,0-1.1,0-1.6,0c0,0.5,0,1.1,0,1.6c-0.4,0-0.7,0-1.1,0c0-0.5,0-1.1,0-1.6C15.3,8.9,14.7,8.9,14.2,8.9z
				 M11.9,22.7c0,0.5,0,1,0,1.5c0.2,0,0.3,0,0.5,0c0-0.5,0-1,0-1.5C12.2,22.7,12,22.7,11.9,22.7z M14.2,22.9c0,0.1,0,0.1,0,0.2
				c0,0-0.1,0-0.2,0c0,0.1,0,0.2,0,0.3c0,0,0.1,0,0.2,0c0,0.2,0,0.5,0,0.7c0.1,0.2,0.4,0.1,0.6,0.1c0-0.1,0-0.2,0-0.3
				c-0.1,0-0.2,0-0.2,0c0-0.2,0-0.3,0-0.5c0.1,0,0.2,0,0.2,0c0-0.1,0-0.2,0-0.3c-0.1,0-0.2,0-0.2,0c0-0.1,0-0.3,0-0.4
				C14.5,22.7,14.3,22.8,14.2,22.9z M20.2,22.9c0,0.1,0,0.1,0,0.2c0,0-0.1,0-0.2,0c0,0.1,0,0.2,0,0.3c0,0,0.1,0,0.2,0
				c0,0.2,0,0.5,0,0.7c0.1,0.2,0.4,0.1,0.6,0.1c0-0.1,0-0.2,0-0.3c-0.1,0-0.2,0-0.2,0c0-0.2,0-0.3,0-0.5c0.1,0,0.2,0,0.2,0
				c0-0.1,0-0.2,0-0.3c-0.1,0-0.2,0-0.2,0c0-0.1,0-0.3,0-0.4C20.5,22.7,20.4,22.8,20.2,22.9z M12.7,23.1c0,0.4,0,0.7,0,1.1
				c0.1,0,0.3,0,0.4,0c0-0.2,0-0.5,0-0.7c0-0.1,0.3-0.2,0.3,0s0,0.5,0,0.7c0.1,0,0.3,0,0.4,0c0-0.3,0-0.6,0-0.8
				c0-0.2-0.2-0.3-0.4-0.3s-0.3,0.1-0.4,0.2c0,0,0-0.1,0-0.2C12.9,23.1,12.8,23.1,12.7,23.1z M15.3,23.1c-0.3,0.2-0.4,0.7-0.1,1
				c0.2,0.1,0.5,0.1,0.7,0.1c0.2,0,0.3-0.2,0.3-0.3c-0.1,0-0.3,0-0.4,0C15.7,24,15.6,24,15.5,24s-0.1-0.1-0.1-0.2c0.3,0,0.6,0,0.9,0
				c0-0.2,0-0.5-0.3-0.6C15.8,23,15.5,23,15.3,23.1z M17,23.1c-0.1,0-0.1,0.1-0.2,0.2c0,0,0-0.1,0-0.2c-0.1,0-0.3,0-0.4,0
				c0,0.4,0,0.7,0,1.1c0.1,0,0.3,0,0.4,0c0-0.2,0-0.5,0.1-0.7c0-0.1,0.2-0.1,0.3-0.1c0-0.1,0.1-0.2,0.1-0.3
				C17.2,23.1,17.1,23,17,23.1z M17.7,23.1c-0.4,0.2-0.4,0.8,0,1c0.2,0.1,0.4,0.1,0.6,0c0.2,0,0.3-0.2,0.3-0.3c-0.1,0-0.3,0-0.4,0
				s-0.1,0.1-0.2,0.1s-0.2-0.1-0.2-0.2c0.3,0,0.6,0,0.9,0c0-0.2,0-0.4-0.2-0.6C18.2,23,17.9,23,17.7,23.1z M18.9,23.2
				c-0.2,0.1-0.1,0.4,0,0.5c0.2,0.1,0.4,0.1,0.6,0.2c0.1,0.1-0.1,0.2-0.2,0.2S19.2,24,19.1,24s-0.3,0-0.4,0c0.1,0.1,0.1,0.2,0.2,0.3
				c0.2,0.1,0.4,0.1,0.6,0c0.1,0,0.3-0.1,0.3-0.3c0-0.1,0-0.3-0.1-0.4c-0.2-0.1-0.4-0.1-0.6-0.2c0-0.2,0.3-0.1,0.3,0
				c0.1,0,0.3,0,0.4,0c-0.1-0.1-0.2-0.3-0.3-0.3C19.4,23.1,19.1,23,18.9,23.2z"/>
		</g>
		<path style="fill:#E37700;" d="M8.2,5.2c0.2-0.1,0.5,0.1,0.5,0.4c0,0.2-0.1,0.3-0.2,0.4c-1,0.8-1.9,1.7-2.7,2.7
			c-0.1,0.2-0.4,0.2-0.5,0C5.1,8.6,5.1,8.4,5.2,8.2C6,7.1,7,6.1,8.1,5.3C8.1,5.2,8.2,5.2,8.2,5.2z"/>
		<path style="fill:#E37700;" d="M26.2,8c0.2-0.1,0.4,0,0.5,0.1c0.8,1.1,1.5,2.4,1.9,3.7c0.1,0.2,0,0.5-0.3,0.5
			c-0.2,0.1-0.4-0.1-0.5-0.3c-0.4-1.2-1-2.4-1.8-3.5C26,8.4,26,8.1,26.2,8z"/>
		<path style="fill:#E37700;" d="M3.5,11.7c0.2-0.1,0.4,0,0.5,0.2c0.1,0.1,0,0.2,0,0.4c-0.4,1.1-0.6,2.3-0.6,3.5
			c0,0.2,0,0.4-0.1,0.5c-0.1,0.2-0.5,0.2-0.6,0c-0.1-0.1-0.1-0.2-0.1-0.3c0-1.4,0.2-2.7,0.6-4C3.3,11.8,3.4,11.7,3.5,11.7z"/>
		<path style="fill:#E37700;" d="M15.2,12c0.6,0,1.3,0,1.9,0c0.3,0,0.6,0.1,0.9,0.3c0.3,0.3,0.4,0.9,0.2,1.3
			c-0.2,0.4-0.7,0.6-1.1,0.7c-0.6,0.1-1.3,0-1.9,0.1C15.2,13.6,15.2,12.8,15.2,12z"/>
		<path style="fill:#E37700;" d="M28.8,15.6c0.2-0.1,0.6,0.1,0.5,0.4c0,1.4-0.2,2.8-0.6,4.2c-0.1,0.2-0.4,0.3-0.6,0.2
			c-0.2-0.1-0.3-0.3-0.2-0.5c0.4-1.2,0.6-2.5,0.6-3.8C28.5,15.8,28.6,15.7,28.8,15.6z"/>
		<path style="fill:#E37700;" d="M15.2,15.8c0.5,0,1,0,1.5,0s1,0.1,1.4,0.4c0.3,0.3,0.4,0.7,0.4,1.1c-0.1,0.5-0.5,1-1,1.2
			c-0.5,0.1-1,0.1-1.5,0.1c-0.2,0-0.4,0-0.6,0c-0.1-0.1-0.1-0.3-0.1-0.4C15.2,17.3,15.2,16.6,15.2,15.8z"/>
		<path style="fill:#E37700;" d="M3.5,19.7c0.2-0.1,0.5,0,0.6,0.2c0.4,1.2,1,2.4,1.8,3.5C6,23.5,6,23.8,5.8,24
			c-0.2,0.1-0.4,0.1-0.6-0.1c-0.8-1.1-1.5-2.4-1.9-3.7C3.3,20,3.3,19.7,3.5,19.7z"/>
		<path style="fill:#E37700;" d="M26.3,23.2c0.2-0.1,0.4,0,0.5,0.2c0.1,0.1,0,0.3-0.1,0.4c-0.8,1.1-1.7,2-2.8,2.8
			c-0.2,0.1-0.4,0.3-0.6,0.2c-0.3-0.1-0.3-0.5-0.1-0.7c1-0.8,2-1.7,2.7-2.7C26.2,23.3,26.2,23.2,26.3,23.2z"/>
		<path style="fill:#E37700;" d="M8.2,26.1c0.1-0.1,0.3-0.1,0.4,0c1,0.7,2.2,1.3,3.4,1.7c0.1,0,0.2,0.1,0.3,0.2
			c0.1,0.2,0.1,0.4,0,0.6c-0.1,0.1-0.3,0.1-0.4,0.1c-1.3-0.4-2.6-1.1-3.7-1.9C7.9,26.6,8,26.2,8.2,26.1z"/>
		<path style="fill:#E37700;" d="M19.8,27.9c0.1,0,0.3-0.1,0.4,0c0.2,0.1,0.3,0.4,0.2,0.6c-0.1,0.1-0.2,0.1-0.3,0.2
			c-1.3,0.4-2.7,0.6-4,0.6c-0.2,0-0.4-0.1-0.4-0.3c-0.1-0.2,0-0.4,0.2-0.5c0.1-0.1,0.3,0,0.5,0C17.5,28.5,18.7,28.3,19.8,27.9z"/>
	</g>
	<g>
		<g>
			<path style="fill:#FFFFFF;" d="M14.2,8.9c0.5,0,1.1,0,1.6,0c0,0.5,0,1.1,0,1.6c0.4,0,0.7,0,1.1,0c0-0.5,0-1.1,0-1.6
				c0.5,0,1.1,0,1.6,0c0,0.6,0,1.1,0,1.7c0.7,0.1,1.4,0.5,1.8,1s0.5,1.3,0.2,1.9c-0.2,0.6-0.6,1-1.1,1.3C19.2,14.9,19,15,18.9,15
				c0.5,0.1,0.9,0.3,1.3,0.6c0.6,0.4,0.9,1.1,0.9,1.8s-0.3,1.3-0.8,1.8c-0.5,0.4-1.1,0.7-1.7,0.8c0,0.6,0,1.1,0,1.7
				c-0.5,0-1.1,0-1.6,0c0-0.5,0-1.1,0-1.6c-0.4,0-0.7,0-1.1,0c0,0.5,0,1.1,0,1.6c-0.5,0-1.1,0-1.6,0c0-0.5,0-1.1,0-1.6
				c-0.8,0-1.7,0-2.5,0c0-0.4,0-0.9,0-1.3c0.3,0,0.6,0,0.9-0.1c0.2-0.1,0.3-0.4,0.3-0.6c0-1.9,0-3.8,0-5.7c0-0.2,0-0.5-0.2-0.6
				c-0.3-0.1-0.6-0.1-0.9-0.1c0-0.4,0-0.9,0-1.3c0.8,0,1.7,0,2.5,0C14.2,9.9,14.2,9.4,14.2,8.9z M15.2,12c0,0.8,0,1.6,0,2.4
				c0.6,0,1.3,0,1.9-0.1c0.4-0.1,0.9-0.2,1.1-0.7c0.2-0.4,0.1-1-0.2-1.3c-0.2-0.2-0.6-0.3-0.9-0.3C16.5,12,15.9,12,15.2,12z
				 M15.2,15.8c0,0.8,0,1.6,0,2.3c0,0.1,0,0.3,0.1,0.4c0.2,0.1,0.4,0,0.6,0c0.5,0,1,0,1.5-0.1s1-0.6,1-1.2c0-0.4-0.1-0.9-0.4-1.1
				c-0.4-0.3-0.9-0.4-1.4-0.4C16.2,15.8,15.7,15.8,15.2,15.8z"/>
		</g>
	</g>
</g>
</svg>
