<?xml version="1.0" encoding="utf-8"?>
<!-- Generator: Adobe Illustrator 22.1.0, SVG Export Plug-In . SVG Version: 6.00 Build 0)  -->
<svg version="1.1" id="Слой_1" xmlns="http://www.w3.org/2000/svg" xmlns:xlink="http://www.w3.org/1999/xlink" x="0px" y="0px"
	 viewBox="0 0 32 32" style="enable-background:new 0 0 32 32;" xml:space="preserve">
<style type="text/css">
	.st0{fill:url(#SVGID_1_);}
	.st1{fill:#1C74BB;}
	.st2{fill:url(#SVGID_2_);}
	.st3{fill:#00187A;}
	.st4{fill:#8EBADE;}
	.st5{opacity:0.5;fill:#1C74BB;}
	.st6{opacity:0.5;}
</style>
<g>
	<linearGradient id="SVGID_1_" gradientUnits="userSpaceOnUse" x1="15.5673" y1="7.6967" x2="15.5673" y2="29.1126">
		<stop  offset="0.4048" style="stop-color:#8EBADE;stop-opacity:0"/>
		<stop  offset="0.5511" style="stop-color:#8BB8DD;stop-opacity:0.2459"/>
		<stop  offset="0.6803" style="stop-color:#80B1D9;stop-opacity:0.4629"/>
		<stop  offset="0.803" style="stop-color:#6EA6D4;stop-opacity:0.669"/>
		<stop  offset="0.921" style="stop-color:#5496CC;stop-opacity:0.8672"/>
		<stop  offset="1" style="stop-color:#3F89C5"/>
	</linearGradient>
	<path class="st0" d="M17,21.4C8.4,21.4,1.3,15.3,1,7.7c-0.6,1.7-1,3.6-1,5.5C0,22,7,29.1,15.6,29.1c8.3,0,15.1-6.7,15.5-15.1
		C28.4,18.4,23.1,21.4,17,21.4z"/>
	<path class="st1" d="M2.2,5.8c0,0,0.1,11.4,10,14.7c0,0-1.9-2.5-0.6-4.3s4.4-1.7,6.3-0.7c0,0-2.4-1.1-3.3,0.3
		c-0.5,0.6,0.7,2.6,3,3.6c2.3,0.9,9.6,1.1,14.4-7.2c0,0-1.9,11-12.6,10.3c0,0,2.9,1.6,7.4,0.5c0,0-5.2,5.3-14.9,1.6
		S-0.8,11.7,2.2,5.8z"/>
	<linearGradient id="SVGID_2_" gradientUnits="userSpaceOnUse" x1="1.9602" y1="14.6023" x2="10.5847" y2="19.5817">
		<stop  offset="0" style="stop-color:#8EBADE;stop-opacity:0"/>
		<stop  offset="0.3254" style="stop-color:#8EBADE"/>
	</linearGradient>
	<path class="st2" d="M9.5,21.5c0,0-5.2-3.7-6.4-8.9C3.1,12.7,2.5,17.8,9.5,21.5z"/>
	<g>
		<path class="st3" d="M31.5,12.9L31.5,12.9c0,0-2.9,7.3-11.5,9.5c10.2,0.3,12-10.3,12-10.3C31.9,12.4,31.7,12.7,31.5,12.9z"/>
	</g>
	<g>
		<path class="st4" d="M14.6,15.7c-0.3,0.4,0.1,1.5,1.1,2.4c-1.9-3.2,2.2-2.6,2.2-2.6S15.5,14.4,14.6,15.7z"/>
	</g>
	<path class="st5" d="M12.2,20.5c0,0-5.5-2.6-8-10.3c0,0-0.1,2.6,0.8,4.7C6.4,17.2,8.7,19.3,12.2,20.5z"/>
	<g class="st6">
		<path class="st1" d="M29.9,14c-2.2,2.9-5.7,4.7-8.1,5.7c1.7-0.2,3.7-0.9,5.7-2.4C29.2,15.6,29.9,14,29.9,14z"/>
	</g>
	<path class="st4" d="M2.2,5.9c-1.9,3.8-1.3,9,2.2,13.2C0.3,10.9,2.1,6,2.2,5.9z"/>
</g>
<g>
	<path class="st1" d="M7.7,9.8L7.7,9.8C8,10,8.3,10.1,8.5,10.1c0.3,0.1,0.5,0,0.8-0.1C9.7,10,9.9,9.8,10,9.5c0.1-0.3,0.1-0.6,0-0.9
		C9.9,8.1,9.6,7.9,9,7.8c-0.5,0-0.9-0.1-1.4-0.1C7.2,7.7,6.8,7.4,6.6,6.9C6.4,6.4,6.5,5.9,6.7,5.5c0.2-0.4,0.6-0.6,1.1-0.8
		C8,4.6,8.2,4.6,8.4,4.6c0.2,0,0.4,0,0.6,0.1c0,0.1,0,0.2,0,0.3c0,0,0,0.2,0,0.5L9,5.4C8.8,5.2,8.7,5.1,8.4,5.1C8.2,5,8,5,7.8,5.1
		C7.5,5.2,7.3,5.4,7.2,5.6C7,5.9,7,6.1,7.1,6.4c0.1,0.4,0.5,0.6,1,0.7c0.5,0,0.9,0.1,1.4,0.1c0.5,0.1,0.9,0.4,1,0.8
		c0.2,0.5,0.2,1.1-0.1,1.5c-0.2,0.4-0.6,0.8-1.2,1c-0.2,0.1-0.5,0.1-0.8,0.1c-0.3,0-0.5,0-0.7-0.1c0-0.1,0-0.2,0-0.3
		C7.8,10.1,7.7,9.9,7.7,9.8z"/>
	<path class="st1" d="M14.8,9.4c-0.9,0-1.7-0.3-2.2-0.8C12,8,11.7,7.3,11.7,6.4c0-0.9,0.3-1.6,0.9-2.2c0.6-0.5,1.3-0.8,2.2-0.8
		c0.9,0,1.6,0.2,2.2,0.7c0.7,0.5,1,1.2,1,2.2c0,0.9-0.3,1.7-0.9,2.2C16.5,9.1,15.7,9.4,14.8,9.4z M17.1,6.4c0-0.4,0-0.7-0.1-1
		s-0.2-0.6-0.4-0.8c-0.2-0.3-0.5-0.5-0.8-0.6c-0.3-0.1-0.6-0.2-1-0.2c-0.7,0-1.3,0.3-1.7,0.8c-0.4,0.5-0.6,1.2-0.6,2
		c0,0.8,0.2,1.5,0.7,1.9c0.4,0.4,1,0.7,1.6,0.7c0.8,0,1.4-0.3,1.8-1C17,7.5,17.1,7,17.1,6.4z"/>
	<path class="st1" d="M22.8,4.3l0.9,6.3l-0.4-0.1l-0.4-0.1c0-0.6-0.1-1.1-0.1-1.5c0-0.2-0.1-0.5-0.1-0.9l-2.1-0.5
		c-0.5,0.7-0.8,1.1-0.9,1.2c-0.1,0.2-0.3,0.5-0.5,0.8l-0.3-0.1l-0.3,0l4-5L22.8,4.3z M22.6,7.6l-0.4-2.3l-1.4,1.8L22.6,7.6z"/>
	<path class="st1" d="M24.5,11l2.9-4.9L28.9,7c0.5,0.3,0.9,0.7,1,1c0.2,0.3,0.1,0.7-0.1,1.1c-0.2,0.4-0.6,0.6-1,0.7
		c-0.4,0.1-0.8,0-1.3-0.2l0.4,2.7l0.1,0.6l0,0.3l-0.4-0.3l-0.4-0.2l-0.1-0.9L27,10.1l-0.2-1l-0.3-0.2l-1.4,2.4l-0.3-0.2L24.5,11z
		 M27.9,6.7l-1.2,2c0,0,0.1,0.1,0.2,0.1c0.1,0,0.1,0.1,0.2,0.1C27.2,9,27.3,9,27.4,9.1c0.1,0,0.2,0.1,0.3,0.1c0.3,0.1,0.6,0.1,0.9,0
		C28.8,9.1,29,9,29.2,8.7c0.3-0.5,0.2-1-0.3-1.4c-0.1-0.1-0.2-0.2-0.4-0.2c-0.1,0-0.2-0.1-0.4-0.2C28.1,6.8,27.9,6.7,27.9,6.7z"/>
</g>
</svg>
