<?xml version="1.0" encoding="utf-8"?>
<!-- Generator: Adobe Illustrator 21.1.0, SVG Export Plug-In . SVG Version: 6.00 Build 0)  -->
<svg version="1.1" id="Слой_1" xmlns="http://www.w3.org/2000/svg" xmlns:xlink="http://www.w3.org/1999/xlink" x="0px" y="0px"
	 viewBox="0 0 32 32" style="enable-background:new 0 0 32 32;" xml:space="preserve">
<style type="text/css">
	.st0{fill:#FFFFFF;}
	.st1{fill:#CB9833;}
</style>
<g>
	<path class="st0" d="M16,0C7.2,0,0,7.2,0,16s7.2,16,16,16s16-7.2,16-16S24.8,0,16,0L16,0z"/>
	<path class="st1" d="M16,1.5C24,1.5,30.5,8,30.5,16S24,30.5,16,30.5S1.5,24,1.5,16S8,1.5,16,1.5 M16,0C7.2,0,0,7.2,0,16
		s7.2,16,16,16s16-7.2,16-16S24.8,0,16,0L16,0z"/>
	<g>
		<polygon class="st1" points="25.2,8.8 25.7,8.8 25.7,8.6 		"/>
		<path class="st1" d="M25.2,8.8L24,9.5l-0.4,0.2l-1.3,0.7V8.8V8.3h-1.5v0.5v2.4l-2,1.1V9.6c0-0.3,0-0.5-0.1-0.7
			c-0.3-1.2-1.4-2.1-2.7-2.1c-1.3,0-2.4,0.9-2.7,2.1c-0.1,0.2-0.1,0.5-0.1,0.7v2.7l-1.9-1V8.8V8.3h-0.1H9.8v2.1L8.4,9.7L7.9,9.4
			L6.3,8.6v0.6V11v12.4h1.5V12.6V11l1.1,0.6l1,0.5v1v2.2v8.4h1.5v-7.3c0.6,0.4,1.2,0.7,1.9,0.9v7.8V26h1.5v-0.9v-7.4
			c0.4,0.1,0.8,0.1,1.3,0.1c0.5,0,0.9,0,1.4-0.1v7.5V26h1.5v-0.9v-7.8c0.7-0.3,1.3-0.6,2-1v7.4h1.5v-8.6v-2.2v-0.8l0.8-0.4l1.2-0.7
			v1.5v10.9h1.5V11V8.9V8.8H25.2z M14.6,9.6c0-0.3,0.1-0.5,0.2-0.7c0.2-0.4,0.7-0.6,1.1-0.6s0.9,0.2,1.1,0.6
			c0.1,0.2,0.2,0.5,0.2,0.7V13L16,13.8l-1.3-0.7V9.6z M11.3,14.6v-1.7l1.9,1v1.8C12.5,15.5,11.9,15.1,11.3,14.6z M15.9,16.4
			c-0.4,0-0.9,0-1.3-0.1v-1.5l1.3,0.7l1.4-0.7v1.5C16.9,16.3,16.4,16.4,15.9,16.4z M20.8,14.4c-0.6,0.5-1.3,1-2,1.3v-1.8l2-1.1V14.4
			z"/>
	</g>
</g>
</svg>
