<?xml version="1.0" encoding="utf-8"?>
<!-- Generator: Adobe Illustrator 22.1.0, SVG Export Plug-In . SVG Version: 6.00 Build 0)  -->
<svg version="1.1" id="Слой_1" xmlns="http://www.w3.org/2000/svg" xmlns:xlink="http://www.w3.org/1999/xlink" x="0px" y="0px"
	 viewBox="0 0 32 32" style="enable-background:new 0 0 32 32;" xml:space="preserve">
<style type="text/css">
	.st0{fill:#161F26;}
	.st1{fill:#02D4D1;}
	.st2{fill:#06B1AA;}
	.st3{fill:#03C3C2;}
	.st4{fill:#04D4CC;}
	.st5{fill:#05B399;}
	.st6{fill:#0A8C84;}
	.st7{fill:#0B8F7F;}
	.st8{fill:#0F6768;}
	.st9{fill:#0C8572;}
	.st10{fill:#04CDAB;}
	.st11{fill:#0A8E77;}
	.st12{fill:#04C4B6;}
	.st13{fill:#089D9C;}
	.st14{fill:#05C5B0;}
	.st15{fill:#0E5751;}
	.st16{fill:#0E685B;}
	.st17{fill:#114443;}
	.st18{fill:#06C5A6;}
	.st19{fill:#069E9C;}
	.st20{fill:#02CDC1;}
	.st21{fill:#05B2A2;}
	.st22{fill:#02D5C1;}
</style>
<g>
	<rect x="0" class="st0" width="32" height="32"/>
	<g>
		<polygon class="st1" points="27.8,21.2 23,18.3 23,24 		"/>
		<polygon class="st2" points="27.8,15.5 23,12.7 23,18.3 		"/>
		<polygon class="st3" points="23,18.3 27.8,15.5 27.8,21.2 		"/>
		<polygon class="st4" points="23,12.7 27.8,9.9 27.8,15.5 		"/>
		<polygon class="st5" points="13.4,7.1 18.2,4.3 18.2,9.9 		"/>
		<polygon class="st6" points="13.4,18.3 18.2,15.5 18.2,21.2 		"/>
		<polygon class="st7" points="12.7,12.1 17.5,9.3 17.5,14.9 		"/>
		<polygon class="st8" points="12.4,23.6 17.1,20.8 17.1,26.4 		"/>
		<polygon class="st9" points="3.8,19.6 8.6,16.8 8.6,22.4 		"/>
		<polygon class="st10" points="7.2,14.5 12,11.7 12,17.3 		"/>
		<polygon class="st11" points="8,9.4 12.8,6.5 12.8,12.2 		"/>
		<polygon class="st12" points="27.8,9.9 23,7.1 23,12.7 		"/>
		<polygon class="st13" points="23,24.9 18.2,22.1 18.2,27.7 		"/>
		<polygon class="st14" points="16.4,22.5 11.6,19.6 11.6,25.3 		"/>
		<polygon class="st15" points="13.3,18.2 8.6,15.3 8.6,21 		"/>
		<polygon class="st16" points="10.8,12.4 6,9.6 6,15.2 		"/>
		<polygon class="st17" points="16.8,14.5 12,11.7 12,17.3 		"/>
		<polygon class="st18" points="17.6,11.7 12.8,8.9 12.8,14.5 		"/>
		<polygon class="st2" points="23,18.3 18.2,15.5 18.2,21.1 		"/>
		<polygon class="st19" points="18.2,21.1 23,18.3 23,24 		"/>
		<polygon class="st20" points="18.2,15.5 23,12.7 23,18.3 		"/>
		<polygon class="st21" points="23,12.7 18.2,9.9 18.2,15.5 		"/>
		<polygon class="st22" points="18.2,9.9 23,7.1 23,12.7 		"/>
		<polygon class="st22" points="23,7.1 18.2,4.3 18.2,9.9 		"/>
	</g>
</g>
</svg>
