<?xml version="1.0" encoding="utf-8"?>
<!-- Generator: Adobe Illustrator 22.1.0, SVG Export Plug-In . SVG Version: 6.00 Build 0)  -->
<svg version="1.1" id="Слой_1" xmlns="http://www.w3.org/2000/svg" xmlns:xlink="http://www.w3.org/1999/xlink" x="0px" y="0px"
	 width="32px" height="32px" viewBox="0 0 32 32" style="enable-background:new 0 0 32 32;" xml:space="preserve">
<style type="text/css">
	.st0{fill:#1D295B;}
	.st1{fill:#FFFFFF;}
</style>
<g>
	<rect class="st0" width="32" height="32"/>
	<path class="st1" d="M27.7,12.3L27.7,12.3L27.7,12.3l-0.4-0.6v0.1c-1.4-1.7-3.3-2.7-5.6-3.2c-1.9-0.4-4.2-0.4-7.4,0
		c-1.3,0.2-2.7,0.4-4,0.8L9.9,9.7l0,0c-0.1,0-0.2,0.1-0.2,0.1l0,0c-3.8,1.4-6.2,3.4-6.4,5.6c0,0.3,0,0.6,0,0.9v-0.1l0.1,0.6
		c0.4,2.3,2.4,3.4,2.9,3.5c0.1,0,0.2,0,0.2,0c0.2,0,0.4-0.1,0.5-0.1l0,0l0,0L7,20l0,0l0,0l0,0l0,0v-0.1l0,0l0,0
		c0-0.2-0.2-0.5-0.7-0.8l0,0C6.2,19,6,18.8,6,18.3c0-0.2,0.2-0.4,0.4-0.7c1.2-1.2,8.8-0.8,10.8-0.2c0.9,0.2,1.3,0.6,1.4,0.9
		c0,0.3-0.3,0.6-0.9,0.8c-0.1,0.1-0.4,0.1-0.7,0.2l0,0c-2,0.5-6.6,0.9-7.6,0.9c-0.7,0-0.9,0.1-1,0.2l0,0l0,0v0.1l0,0l0,0l0,0l0,0
		v0.1c0.1,0.2,0.9,1.2,6.4,2.5c0,0,0,0,0.1,0l0,0c1.7,0.3,3.2,0.5,4.6,0.5c5.9,0,8-2.8,8.6-3.8C29,18.3,29.3,14.9,27.7,12.3z
		 M3.4,15.4c0.2-1.7,1.8-3.4,4.5-4.7l0,0c0,0-0.1,0-0.1,0.1c-0.1,0-0.1,0.1-0.2,0.1c0,0-0.1,0-0.1,0.1c-0.1,0-0.1,0.1-0.2,0.1
		c0,0-0.1,0-0.1,0.1c-0.1,0-0.1,0.1-0.2,0.1c0,0,0,0-0.1,0c-0.1,0.1-0.1,0.1-0.2,0.2c0,0,0,0-0.1,0l-0.1,0.1c0,0,0,0-0.1,0.1
		l-0.1,0.1c0,0,0,0-0.1,0.1L6.1,12c0,0,0,0-0.1,0.1c0.1-0.1,0,0,0,0l0,0l-0.1,0.1c0,0,0,0-0.1,0.1l-0.1,0.1c0,0,0,0-0.1,0.1
		l-0.1,0.1c0,0,0,0-0.1,0.1l-0.1,0.1l0,0c0,0.1-0.1,0.1-0.1,0.2c0,0,0,0,0,0.1l-0.1,0.1c0,0,0,0,0,0.1c0,0,0,0.1-0.1,0.1
		c0,0,0,0,0,0.1c0,0,0,0.1-0.1,0.1c0,0,0,0,0,0.1s-0.1,0.1-0.1,0.2l0,0c0,0.1,0,0.1-0.1,0.2c0,0,0,0,0,0.1v0.1c0,0,0,0,0,0.1v0.1
		c0,0,0,0,0,0.1v0.1l0,0c0,0.1,0,0.1,0,0.2c0,0,0,0,0,0.1s0,0.1,0,0.2c0,0,0,0,0,0.1v0.1v0.1v0.1c0,0,0,0,0,0.1s0,0.1,0,0.2
		c0,0.1,0,0.1,0,0.2c0,0,0,0,0,0.1v0.1c0,0,0,0,0,0.1v0.1v0.1v0.1v0.1v0.1V17v0.1v0.1v0.1v0.1v0.1v0.1v0.1c0,0,0,0,0,0.1v0.1
		c0,0,0,0,0,0.1v0.1c0,0,0,0,0,0.1v0.1c0,0,0,0,0,0.1v0.1c0,0,0,0,0,0.1c0,0,0,0,0.1,0.1c0,0,0,0,0,0.1c0,0,0,0,0.1,0.1
		c0,0,0,0,0,0.1c0,0,0,0,0.1,0.1c0,0,0,0,0,0.1c0,0,0,0,0.1,0.1c0,0,0,0,0.1,0.1c0,0,0,0,0.1,0.1c0,0,0,0,0.1,0.1c0,0,0,0,0.1,0.1
		c0,0,0,0,0.1,0.1c0,0,0,0,0.1,0.1c0,0,0,0,0.1,0.1c0,0,0,0,0.1,0.1c0,0,0,0,0.1,0.1c0,0,0,0,0.1,0.1c0,0,0,0,0.1,0c0,0,0,0,0.1,0
		c0,0,0,0,0.1,0l0,0l0,0l0,0l0,0l0,0l0,0l0,0l0,0l0,0l0,0l0,0l0,0l0,0l0,0l0,0l0,0l0,0c0,0,0,0,0,0.1l0,0l0,0l0,0l0,0l0,0l0,0l0,0
		l0,0l0,0l0,0c0,0,0,0-0.1,0l0,0c0,0,0,0-0.1,0l0,0c0,0,0,0-0.1,0l0,0c0,0,0,0-0.1,0l0,0c0,0,0,0-0.1,0l0,0c0,0,0,0-0.1,0l0,0
		c0,0,0,0-0.1,0l0,0c0,0,0,0-0.1,0l0,0c0,0,0,0-0.1,0l0,0c0,0,0,0-0.1,0l0,0c0,0,0,0-0.1,0c0,0,0,0-0.1,0c0,0,0,0-0.1-0.1
		c0,0,0,0-0.1,0c0,0,0,0-0.1-0.1c0,0,0,0-0.1,0c0,0,0,0-0.1-0.1c0,0,0,0-0.1,0c0,0,0,0-0.1-0.1c0,0,0,0-0.1,0c0,0,0,0-0.1-0.1
		c0,0,0,0-0.1,0c0,0,0,0-0.1-0.1c0,0,0,0-0.1,0c0,0,0-0.1-0.1-0.1c0,0,0,0,0-0.1c0,0,0-0.1-0.1-0.1c0,0,0,0,0-0.1c0,0,0-0.1-0.1-0.1
		c0,0,0,0,0-0.1l-0.1-0.1c0,0,0,0,0-0.1l-0.1-0.1c0,0,0,0,0-0.1l-0.1-0.1c0,0,0,0,0-0.1l-0.1-0.1l0,0c0-0.1-0.1-0.1-0.1-0.2l0,0
		c-0.1-0.1-0.1-0.2-0.2-0.4l0,0c0-0.1-0.1-0.1-0.1-0.2C3.4,16.3,3.3,15.9,3.4,15.4z M6.2,20.1c-0.5-0.1-2-0.9-2.6-2.7l0,0
		c0,0,0,0,0,0.1c0,0,0,0.1,0.1,0.1c0,0,0,0,0,0.1c0,0,0,0.1,0.1,0.1c0,0,0,0,0,0.1L3.9,18l0,0c0.1,0,0.2,0,0.2,0.1l0,0l0.1,0.1l0,0
		l0.1,0.1l0,0c0,0,0,0.1,0.1,0.1l0,0l0.1,0.1l0,0l0.1,0.1l0,0l0.1,0.1l0,0C4.9,19,4.9,19,5,19l0,0c0,0,0,0,0.1,0.1l0,0
		c0,0,0,0,0.1,0.1l0,0c0,0,0,0,0.1,0.1l0,0c0,0,0.1,0,0.1,0.1l0,0l0.1,0.1l0,0c0,0,0,0,0.1,0l0,0c0,0,0,0,0.1,0l0,0c0,0,0,0,0.1,0
		l0,0c0,0,0,0,0.1,0l0,0c0,0,0.1,0,0.1,0.1l0,0c0,0,0,0,0.1,0l0,0c0,0,0,0,0.1,0l0,0c0,0,0,0,0.1,0l0,0c0,0,0,0,0.1,0l0,0
		c0,0,0,0,0.1,0l0,0c0,0,0,0,0.1,0C6.6,20.1,6.4,20.1,6.2,20.1z M6.3,19.1L6.3,19.1c0.3,0.2,0.5,0.4,0.6,0.5c0,0-0.1,0-0.1-0.1l0,0
		c0,0,0,0-0.1-0.1l0,0c0,0,0,0-0.1-0.1l0,0c0,0,0,0-0.1-0.1l0,0c0,0,0,0-0.1-0.1l0,0C6.4,19.2,6.4,19.2,6.3,19.1L6.3,19.1L6.3,19.1
		C6.2,19,6.2,19,6.3,19.1C6.2,19,6.2,19,6.1,18.9l0,0L6,18.8l0,0l-0.1-0.1l0,0l-0.1-0.1l0,0c0,0,0-0.1-0.1-0.1l0,0c0,0,0,0-0.1-0.1
		c0,0,0,0,0-0.1c0,0,0,0-0.1-0.1c0,0,0,0,0-0.1c0,0,0,0-0.1-0.1c0,0,0,0,0-0.1c0,0,0-0.1-0.1-0.1c0,0,0,0,0-0.1c0,0,0-0.1-0.1-0.1
		c0,0,0,0,0-0.1c0,0,0-0.1-0.1-0.1c0,0,0,0,0-0.1c0,0,0-0.1-0.1-0.1l0,0l-0.1-0.1l0,0V17c0,0,0,0,0-0.1v-0.1c0,0,0,0,0-0.1v-0.1
		c0,0,0,0,0-0.1v-0.1c0,0,0,0,0-0.1v-0.1c0,0,0,0,0-0.1V16c0,0,0,0,0-0.1v-0.1c0,0,0,0,0-0.1v-0.1c0,0,0,0,0-0.1s0-0.1,0-0.2
		c0-0.2,0-0.3,0-0.4C5,12.7,6.6,11,10,9.5c0.3-0.1,0.5-0.2,0.8-0.3h0.1H11c2,0,5.3,0.1,8,1.3l0,0c0.1,0,0.2,0.1,0.3,0.1l0,0
		c0.1,0,0.2,0.1,0.2,0.1s0,0,0.1,0s0.1,0.1,0.2,0.1c0,0,0.1,0,0.1,0.1c0.1,0,0.1,0.1,0.2,0.1c0,0,0.1,0,0.1,0.1
		c0.1,0.1,0.2,0.1,0.3,0.2c1.2,0.8,1.9,1.9,2.1,3c0,0.1,0,0.1,0,0.2c0,0,0,0,0,0.1v0.1c0,0,0,0,0,0.1v0.1c0,0,0,0,0,0.1v0.1
		c0,0,0,0,0,0.1v0.1c0,0,0,0,0,0.1v0.1c0,0,0,0,0,0.1v0.1c0,0,0,0,0,0.1v0.1c0,0,0,0,0,0.1v0.1c0,0,0,0,0,0.1v0.1c0,0,0,0,0,0.1v0.1
		c0,0,0,0,0,0.1c0,0,0,0.1-0.1,0.1c0,0,0,0,0,0.1c0,0,0,0.1-0.1,0.1c0,0,0,0,0,0.1l-0.1,0.1l0,0c0,0.1-0.1,0.1-0.1,0.1l0,0
		c0,0,0,0,0-0.1s0-0.1,0-0.2v-0.1c0-0.1,0-0.1,0-0.2c0,0,0,0,0-0.1s0-0.2-0.1-0.2c-0.2-0.6-1-1.4-6-1.8c-2.3-0.2-4.5-0.1-6.2,0.3
		c-1.6,0.4-2.7,1-3.1,1.7v0.1l0,0c0,0,0,0,0,0.1l0,0c0,0,0,0,0,0.1l0,0c0,0,0,0,0,0.1l0,0l0,0l0,0l0,0l0,0l0,0l0,0c0,0,0,0,0,0.1
		l0,0l0,0l0,0c0,0,0,0,0,0.1l0,0c0,0,0,0,0,0.1l0,0c0,0,0,0,0,0.1l0,0l0,0l0,0l0,0l0,0l0,0l0,0l0,0C5.9,18.7,6.2,19,6.3,19.1z
		 M18.8,18.1c0-0.4-0.5-0.7-1.5-1c-2.1-0.6-9.6-1-10.9,0.3c-0.2,0.2-0.3,0.3-0.3,0.5l0,0v-0.1l0,0v-0.1l0,0v-0.1l0,0v-0.1l0,0v-0.1
		l0,0v-0.1l0,0v-0.1l0,0v-0.1c0.7-1.3,4.1-2.4,9.1-1.9c3.7,0.3,5.6,0.9,5.9,1.7c0,0.1,0.1,0.2,0.1,0.2v0.1c0,0.1,0,0.1,0,0.2v0.1
		v0.1v0.1v0.1c-0.1,0.1-0.1,0.1-0.2,0.2l0,0c-0.1,0.1-0.1,0.1-0.2,0.2c0,0,0,0-0.1,0.1l-0.1,0.1c0,0-0.1,0-0.1,0.1l-0.1,0.1
		c0,0-0.1,0-0.1,0.1l-0.1,0.1c0,0-0.1,0-0.1,0.1c0,0-0.1,0-0.1,0.1c0,0-0.1,0-0.1,0.1c-0.1,0-0.1,0.1-0.2,0.1c0,0-0.1,0-0.1,0.1
		c0,0-0.1,0-0.1,0.1h-0.1h-0.1h-0.1h-0.1H19h-0.1h-0.1c-0.1,0-0.1,0-0.2,0h-0.1c-0.1,0-0.2,0-0.3,0h-0.1c-0.1,0-0.1,0-0.2,0
		c0,0,0,0,0.1,0C18.4,18.8,18.8,18.5,18.8,18.1z M9.4,20.2c1,0,5.6-0.5,7.6-0.9l0,0h0.1h0.1h0.1c0.1,0,0.1,0,0.2,0h0.1
		c0.1,0,0.1,0,0.2,0h0.1c0.1,0,0.1,0,0.2,0h0.1c0.1,0,0.1,0,0.2,0h0.1c0.1,0,0.1,0,0.2,0h0.1c0.1,0,0.1,0,0.2-0.1h0.1
		c0.1,0,0.1,0,0.2-0.1h0.1c0.1,0,0.1,0,0.2-0.1h0.1c0.1,0,0.1-0.1,0.2-0.1c0,0,0.1,0,0.1-0.1c0.1,0,0.1-0.1,0.2-0.1
		c0,0,0.1,0,0.1-0.1c0.1,0,0.1-0.1,0.1-0.1s0.1,0,0.1-0.1l0.1-0.1c0,0,0.1,0,0.1-0.1l0.1-0.1c0,0,0.1,0,0.1-0.1l0.1-0.1
		c0,0,0,0,0.1-0.1c0,0,0,0,0.1-0.1l0,0l0.1-0.1l0,0l0,0c0.2-0.2,0.3-0.4,0.5-0.6c0.4-0.6,0.5-1.2,0.5-1.8c0-0.1,0-0.2,0-0.4
		c-0.1-0.7-0.4-1.4-0.9-2c-0.1-0.1-0.1-0.1-0.2-0.2c-0.1-0.1-0.2-0.2-0.4-0.4c-0.2-0.2-0.4-0.3-0.7-0.5c-0.1-0.1-0.2-0.1-0.3-0.2
		c0,0-0.1,0-0.1-0.1c-0.1,0-0.1-0.1-0.2-0.1c0,0-0.1,0-0.1-0.1c-0.1,0-0.1-0.1-0.2-0.1c0,0-0.1,0-0.1-0.1c-0.1,0-0.1-0.1-0.2-0.1
		c0,0-0.1,0-0.1-0.1c-0.1,0-0.1-0.1-0.2-0.1c0,0-0.1,0-0.1-0.1c-0.1,0-0.1-0.1-0.2-0.1h-0.1c-0.1,0-0.1-0.1-0.2-0.1h-0.1
		c-0.1,0-0.2-0.1-0.2-0.1h-0.1c-0.1,0-0.2-0.1-0.3-0.1l0,0c-0.5-0.2-1.1-0.3-1.7-0.4l0,0c-0.1,0-0.2,0-0.3-0.1l0,0
		c-0.1,0-0.2,0-0.3-0.1l0,0c-0.1,0-0.2,0-0.3-0.1l0,0c-1-0.1-1.9-0.2-2.8-0.2l0,0c-0.1,0-0.2,0-0.2,0l0,0c-0.1,0-0.1,0-0.2,0
		c0,0,0,0-0.1,0s-0.1,0-0.2,0h-0.1c0,0,0,0-0.1,0c1.1-0.3,2.2-0.5,3.3-0.6c5.6-0.6,9.9-0.3,12.9,3.3c0.1,0.1,0.1,0.2,0.2,0.3v0.1
		v0.1v0.1v0.1v0.1v0.1V13v0.1v0.1v0.1c0,0,0,0,0,0.1v0.1c0,0,0,0,0,0.1v0.1c0,0,0,0,0,0.1v0.1c0,0,0,0,0,0.1v0.1c0,0,0,0,0,0.1v0.1
		l0,0v0.1l0,0v0.1l0,0v0.1l0,0v0.1l0,0v0.1v0.1c-0.6,2.5-1.7,5.2-8.5,6.4c-0.5,0.1-1.1,0.2-1.6,0.2c-0.1,0-0.3,0-0.4,0h-0.1
		c-0.1,0-0.2,0-0.3,0c-0.1,0-0.1,0-0.2,0s-0.2,0-0.2,0c-0.1,0-0.1,0-0.2,0c-0.1,0-0.2,0-0.2,0c-0.1,0-0.1,0-0.2,0
		c-0.1,0-0.1,0-0.2,0c-0.1,0-0.1,0-0.2,0c-0.1,0-0.1,0-0.2,0c-0.1,0-0.1,0-0.2,0c-0.1,0-0.1,0-0.2,0c-0.1,0-0.1,0-0.2,0
		c-0.1,0-0.1,0-0.2,0c-0.1,0-0.1,0-0.2,0c-0.1,0-0.1,0-0.2,0c-0.1,0-0.1,0-0.2,0c-0.1,0-0.1,0-0.2,0c-0.1,0-0.1,0-0.2,0
		c-0.1,0-0.1,0-0.2,0c-0.1,0-0.1,0-0.2,0c-0.1,0-0.1,0-0.2,0c-0.1,0-0.1,0-0.2,0c-0.1,0-0.1,0-0.2,0c-0.1,0-0.1,0-0.2,0h-0.1
		c-0.1,0-0.1,0-0.2,0h-0.1c-0.1,0-0.1,0-0.2,0h-0.1c-0.1,0-0.1,0-0.2,0h-0.1h-0.1h-0.1h-0.1h-0.1h-0.1h-0.1h-0.1h-0.1H10H9.9H9.8
		H9.7H9.6H9.5H9.4H9.3H9.2H9.1H9H8.9H8.8H8.7H8.6H8.5c0,0,0,0-0.1,0H8.3c0,0,0,0-0.1,0H8.1l0,0l0,0l0,0C8.6,20.3,8.7,20.2,9.4,20.2z
		 M27.9,19.7c-0.6,1-2.6,3.7-8.4,3.7c-1.3,0-2.8-0.1-4.5-0.5l0,0c0,0,0,0-0.1,0c-5.3-1.2-6.2-2.2-6.3-2.4l0,0c0,0,0,0,0.1,0
		c0,0,0,0,0.1,0c0,0,0,0,0.1,0c0,0,0,0,0.1,0c0,0,0,0,0.1,0c0,0,0,0,0.1,0h0.1h0.1h0.1h0.1h0.1h0.1h0.1H10h0.1h0.1h0.1h0.1h0.1h0.1
		c0.1,0,0.1,0,0.2,0.1h0.1H11h0.1h0.1h0.1h0.1h0.1h0.1h0.1h0.1h0.1c0.1,0,0.1,0,0.2,0c0.1,0,0.1,0,0.2,0c0.1,0,0.1,0,0.2,0h0.1
		c0.1,0,0.1,0,0.2,0h0.1c0.1,0,0.1,0,0.2,0h0.1c0.1,0,0.1,0,0.2,0h0.1c0.1,0,0.1,0,0.2,0h0.1c0.1,0,0.1,0,0.2,0h0.1
		c0.1,0,0.2,0,0.3,0h0.1c0.1,0,0.1,0,0.2,0h0.1c0.1,0,0.1,0,0.2,0c0.1,0,0.1,0,0.2,0h0.1c0,0,0,0,0.1,0s0.3,0,0.4,0h0.1
		c0.2,0,0.3,0,0.5,0h0.1c0.1,0,0.3,0,0.4,0H17c0.2,0,0.3,0,0.5,0c0.5-0.1,1.1-0.1,1.6-0.2c6.9-1.2,8.1-4,8.6-6.5c0-0.1,0-0.1,0-0.2
		l0,0c0-0.1,0-0.1,0-0.2l0,0c0-0.1,0-0.1,0-0.2c0,0,0,0,0-0.1s0-0.1,0-0.2l0,0c0-0.1,0-0.1,0-0.2c0,0,0,0,0-0.1s0-0.1,0-0.2l0,0
		c0-0.1,0-0.1,0-0.2l0,0c0-0.1,0-0.2,0-0.2l0,0C29.1,15.4,28.7,18.4,27.9,19.7z"/>
</g>
</svg>
