<?xml version="1.0" encoding="utf-8"?>
<!-- Generator: Adobe Illustrator 22.1.0, SVG Export Plug-In . SVG Version: 6.00 Build 0)  -->
<svg version="1.1" id="Слой_1" xmlns="http://www.w3.org/2000/svg" xmlns:xlink="http://www.w3.org/1999/xlink" x="0px" y="0px"
	 width="32px" height="32px" viewBox="0 0 32 32" style="enable-background:new 0 0 32 32;" xml:space="preserve">
<title>color/xrp</title>
<desc>Created with Sketch.</desc>
<g>
	<path style="fill:#00838D;" d="M8.9,18.2c-0.4,0-0.7,0-1.1,0s-0.9,0-1.3-0.2c-0.2,0-0.2,0-0.1-0.2c0.3-0.6,0.5-1.2,0.8-1.8
		c0.2-0.4,0.4-0.8,0.5-1.2c0.1-0.1,0.1-0.2,0.3-0.2c0.7,0,1.4,0,2.1,0h0.1c0.1,0,0.1,0,0.1-0.1c-0.1-0.5-0.3-0.9-0.5-1.3
		c-0.3-0.7-0.7-1.3-1.2-1.9c-0.4-0.4-0.8-0.8-1.2-1.2C6.5,9.5,5.6,9,4.6,8.7C4,8.5,3.4,8.4,2.8,8.3c-0.4,0-0.7,0-1.1-0.1
		c-0.1,0-0.2,0-0.3,0S1.3,8.1,1.3,8.1C1.2,7.7,1,7.3,0.8,6.9C0.6,6.3,0.3,5.7,0,5.1C0,5,0,5,0.1,4.9c0.3-0.1,0.5-0.1,0.8-0.1
		c0.4,0,0.7,0,1.1,0c1,0,1.9,0.1,2.8,0.3C5.7,5.3,6.5,5.6,7.3,6C8.2,6.3,9,6.8,9.7,7.4c0.6,0.4,1.2,0.9,1.7,1.4
		c0.7,0.7,1.3,1.5,1.8,2.3c0.5,0.9,0.9,1.8,1.1,2.8c0,0.2,0.1,0.4,0.1,0.6c0,0.1,0.1,0.2,0.2,0.2c0.8,0,1.7,0,2.5,0
		c0.1,0,0.3,0.1,0.4,0s0.1-0.2,0.1-0.3c0.2-0.8,0.4-1.6,0.8-2.3c0.4-0.9,0.9-1.7,1.5-2.4c0.5-0.6,1-1.1,1.6-1.6
		c0.8-0.7,1.7-1.2,2.6-1.7c1.1-0.5,2.2-0.9,3.4-1.1C28.1,5,28.6,5,29.2,4.9c0.3,0,0.6,0,0.9,0c0.6,0,1.1,0,1.7,0.1
		C32,5,32,5,31.9,5.2c-0.2,0.5-0.4,1-0.6,1.5s-0.4,0.9-0.6,1.4c-0.1,0.2-0.2,0.2-0.4,0.2c-0.1,0-0.2,0-0.3,0c-1.2,0-2.3,0.2-3.4,0.6
		c-0.9,0.3-1.7,0.8-2.5,1.4c-0.9,0.7-1.6,1.5-2.1,2.4c-0.3,0.5-0.5,1.1-0.7,1.7c0,0.1,0,0.1,0.1,0.1c0.8,0,1.5,0,2.3,0
		c0.4,0,0.9,0,1.3,0.2c0.2,0.1,0.2,0.1,0.1,0.2c-0.3,0.7-0.6,1.3-0.9,2c-0.1,0.3-0.3,0.6-0.4,0.9C23.7,18,23.6,18,23.4,18
		c-0.2,0-0.3,0-0.5,0c-0.5,0-1,0-1.5,0c-0.2,0-0.2,0-0.1,0.2c0.2,0.7,0.5,1.4,0.9,2s0.8,1.1,1.3,1.6s1.1,0.9,1.7,1.3
		c0.5,0.3,1.1,0.6,1.6,0.7c0.6,0.2,1.1,0.3,1.7,0.4c0.5,0.1,1,0.1,1.5,0.1c0.1,0,0.2,0,0.3,0c0.1,0,0.1,0,0.1,0.1
		c0.3,0.7,0.6,1.4,0.9,2.2c0.1,0.3,0.3,0.6,0.4,0.9c0,0.1,0,0.1-0.1,0.1c-0.2,0.1-0.5,0.1-0.7,0.1c-0.5,0-0.9,0-1.4,0
		c-0.6,0-1.2-0.1-1.8-0.2c-0.7-0.1-1.4-0.3-2.1-0.5c-0.5-0.1-0.9-0.3-1.3-0.5c-0.7-0.3-1.4-0.7-2.1-1.2c-0.5-0.4-1-0.7-1.5-1.2
		c-0.7-0.6-1.3-1.3-1.8-2.1c-0.5-0.7-0.9-1.5-1.2-2.3c-0.2-0.6-0.4-1.2-0.5-1.8c0-0.1,0-0.1-0.1-0.1H17c-0.9,0-1.8,0-2.7,0
		c-0.1,0-0.2,0-0.2,0.2c-0.2,1-0.5,1.9-0.9,2.7c-0.4,0.8-0.9,1.5-1.5,2.2c-0.3,0.4-0.7,0.7-1,1c-0.4,0.4-0.9,0.7-1.3,1.1
		c-0.6,0.4-1.1,0.7-1.8,1c-1.1,0.5-2.3,0.9-3.5,1.1c-0.6,0.1-1.2,0.2-1.7,0.2c-0.6,0-1.2,0-1.7,0c-0.2,0-0.5-0.1-0.7-0.1
		c-0.1,0-0.1-0.1-0.1-0.2c0.3-0.7,0.6-1.3,0.9-2c0.2-0.4,0.3-0.7,0.5-1.1c0-0.1,0.1-0.1,0.2-0.1c1,0,2-0.2,3-0.5s2-0.9,2.8-1.6
		c0.8-0.6,1.4-1.4,1.9-2.3c0.3-0.6,0.5-1.2,0.7-1.8c0-0.1,0-0.1-0.1-0.1C9.6,18.2,9.3,18.2,8.9,18.2z"/>
</g>
</svg>
