<?xml version="1.0" encoding="utf-8"?>
<!-- Generator: Adobe Illustrator 22.1.0, SVG Export Plug-In . SVG Version: 6.00 Build 0)  -->
<svg version="1.1" id="Layer_1" xmlns="http://www.w3.org/2000/svg" xmlns:xlink="http://www.w3.org/1999/xlink" x="0px" y="0px"
	 width="32px" height="32px" viewBox="0 0 32 32" style="enable-background:new 0 0 32 32;" xml:space="preserve">
<g id="Layer_2_1_">
</g>
<g id="Слой_1">
	<g>
		<path style="fill:#85161D;" d="M16,0C7.2,0,0,7.2,0,16c0,5.9,3.2,11.1,8,13.8L24.4,2.4C21.9,0.9,19.1,0,16,0z"/>
		<path style="fill:#610C10;" d="M32,16c0-5.8-3.1-10.8-7.6-13.6L8,29.8c2.4,1.4,5.1,2.2,8,2.2C24.8,32,32,24.8,32,16z"/>
		<path style="fill:#FFFFFF;" d="M7.4,5.2H17c0,0,5.1,0.4,5.3,4.2c0.2,3.8,0.4,6.6-4.3,8.3l7.6,7.9h-6.1L8.2,13.7h8.6
			c0,0,1.2-0.2,1.2-1.8s-0.5-2.6-1.8-2.6s-5.1,0-5.1,0L7.4,5.2z"/>
		<path style="fill:#FFFFFF;" d="M12.1,22.1l-2.3-1.3H9.7l-2.3,1.3l-0.1,0.1v2.7c0,0,0,0.1,0.1,0.1l2.3,1.3c0,0,0,0,0.1,0s0,0,0.1,0
			l2.3-1.3l0.1-0.1v-2.7C12.2,22.2,12.1,22.1,12.1,22.1z M11.9,22.4v2.2l-1-0.6l-1-0.6l1-0.6L11.9,22.4z M9.6,26l-1.9-1.1l1-0.6
			l1-0.6V26H9.6z M7.5,24.7v-2.2l1,0.6l1,0.6l-1,0.6L7.5,24.7z M9.8,21.1l1.9,1.1l-1,0.6l-1,0.6v-2.3C9.7,21.1,9.8,21.1,9.8,21.1z
			 M9.6,23.3l-1-0.6l-1-0.6L9.5,21v2.3H9.6z M9.8,23.8l1,0.6l1,0.6l-2,1V23.8z"/>
	</g>
</g>
</svg>
