<?xml version="1.0" encoding="utf-8"?>
<!-- Generator: Adobe Illustrator 22.1.0, SVG Export Plug-In . SVG Version: 6.00 Build 0)  -->
<svg version="1.1" id="Слой_1" xmlns="http://www.w3.org/2000/svg" xmlns:xlink="http://www.w3.org/1999/xlink" x="0px" y="0px"
	 viewBox="0 0 32 32" style="enable-background:new 0 0 32 32;" xml:space="preserve">
<style type="text/css">
	.st0{fill:#FFFFFF;}
	.st1{fill:#038CDD;}
</style>
<g>
	<rect x="0" class="st0" width="32" height="32"/>
	<g>
		<path class="st1" d="M27.2,21c-1,0-1.9,0-2.9,0C24,21,24,21,24,21.2c-0.1,1.4-0.8,2.5-2,3.3c-0.5,0.3-1.1,0.5-1.6,0.6
			c-0.1,0-0.2,0.1-0.2,0.2c0,0.7,0,1.3,0,2c0,0.4-0.1,0.6-0.5,0.8c-0.3,0.1-0.6,0.1-0.9-0.1c-0.2-0.2-0.2-0.4-0.2-0.6
			c0-0.6,0-1.3,0-1.9c0-0.2,0-0.2-0.2-0.2c-0.6,0-1.3,0-1.9,0c-0.1,0-0.2,0-0.2,0.2c0,1.3,0,2.6,0,4c0,0.8-0.6,1-1,0.9
			c-0.4-0.1-0.6-0.4-0.6-0.8c0-0.8,0-1.6,0-2.5c0-0.5,0-1,0-1.5c0-0.1,0-0.2-0.2-0.2c-0.6,0-1.3,0-1.9,0c-0.2,0-0.2,0.1-0.2,0.2
			c0,0.5,0,1,0,1.5c-0.1,0.4-0.4,0.7-0.9,0.6c-0.4,0-0.7-0.3-0.7-0.7c0-0.5,0-0.9,0-1.4c0-0.1,0-0.2-0.2-0.2
			c-0.9-0.1-1.8-0.6-2.5-1.2c-0.3-0.3-0.6-0.7-0.8-1.2c-0.2-0.5-0.3-1-0.4-1.6C6.9,21,6.8,21,6.7,21c-1.2,0-2.4,0-3.6,0
			c-0.3,0-0.5-0.1-0.7-0.3c-0.2-0.3-0.3-0.6-0.1-0.9c0.1-0.3,0.3-0.5,0.6-0.5c0.1,0,0.2,0,0.2,0c1.1,0,2.2,0,3.3,0
			c0.4,0,0.4,0,0.4-0.4c0-0.6,0-1.1,0-1.7c0-0.2-0.1-0.2-0.2-0.2c-0.6,0-1.1,0-1.7,0c-0.8,0-1-0.7-0.8-1.2c0.1-0.3,0.4-0.4,0.6-0.4
			c0.6,0,1.2,0,1.8,0c0.2,0,0.2,0,0.2-0.2c0-0.6,0-1.3,0-1.9c0-0.2,0-0.2-0.2-0.2c-1.6,0-3.2,0-4.8,0c-0.7,0-1-0.7-0.7-1.2
			c0.1-0.3,0.4-0.4,0.7-0.4c0.8,0,1.5,0,2.3,0c0.8,0,1.7,0,2.5,0c0.2,0,0.2-0.1,0.2-0.2c0.1-1,0.5-1.9,1.3-2.7
			c0.6-0.7,1.4-1,2.4-1.2c0.1,0,0.2-0.1,0.2-0.2c0-0.7,0-1.3,0-2c0-0.5,0.3-0.8,0.7-0.8c0.5,0,0.8,0.2,0.9,0.7c0,0.2,0,0.5,0,0.7
			c0,0.5,0,0.9,0,1.4c0,0.2,0,0.2,0.2,0.2c0.6,0,1.3,0,1.9,0c0.2,0,0.2-0.1,0.2-0.2c0-1.4,0-2.8,0-4.2c0-0.1,0-0.3,0-0.4
			c0-0.3,0.2-0.6,0.5-0.7c0.3-0.1,0.6,0,0.9,0.2c0.2,0.2,0.2,0.4,0.2,0.7c0,1.5,0,3,0,4.4c0,0.1,0,0.2,0.2,0.2c0.7,0,1.3,0,2,0
			c0.1,0,0.2-0.1,0.2-0.2c0-0.6,0-1.3,0-1.9c0-0.4,0.2-0.6,0.5-0.8c0.3-0.1,0.7,0,0.9,0.2c0.1,0.2,0.2,0.3,0.2,0.5c0,0.7,0,1.3,0,2
			c0,0.2,0,0.2,0.2,0.3c1.1,0.2,2,0.7,2.7,1.5c0.5,0.6,0.7,1.3,0.8,2c0,0.1,0,0.2,0,0.4c0,0.2,0.1,0.2,0.2,0.2c1,0,1.9,0,2.9,0
			c0.4,0,0.8,0,1.2,0c0.4,0,0.6,0.2,0.7,0.5c0.1,0.3,0.1,0.6-0.2,0.9c-0.2,0.2-0.4,0.2-0.6,0.2c-1.4,0-2.7,0-4.1,0
			c-0.3,0-0.3,0-0.3,0.2c0,0.6,0,1.3,0,1.9c0,0.2,0.1,0.2,0.2,0.2c0.6,0,1.2,0,1.9,0c0.3,0,0.6,0.1,0.7,0.3c0.2,0.3,0.2,0.6,0,0.9
			c-0.2,0.3-0.4,0.3-0.7,0.3c-0.6,0-1.2,0-1.8,0c-0.2,0-0.2,0-0.2,0.2c0,0.6,0,1.2,0,1.8c0,0.3,0,0.3,0.3,0.3c1.9,0,3.7,0,5.6,0
			c0.1,0,0.2,0,0.3,0c0.5,0.1,0.7,0.4,0.7,0.8c0,0.5-0.3,0.8-0.8,0.8C29.1,21,28.1,21,27.2,21z M15.5,8.9
			C15.5,8.9,15.5,8.9,15.5,8.9c-1.4,0-2.7,0-4.1,0c-0.2,0-0.4,0-0.6,0c-1,0.2-1.7,0.7-2,1.6c-0.2,0.5-0.2,1-0.2,1.5
			c0,2.9,0,5.7,0,8.6c0,0.4,0.1,0.8,0.2,1.2c0.4,1,1.3,1.7,2.3,1.7c0.5,0,1,0,1.5,0c2.4,0,4.8,0,7.2,0c0.4,0,0.7-0.1,1-0.2
			c0.5-0.2,1-0.6,1.3-1.1c0.3-0.5,0.4-1.1,0.5-1.8c0-0.6,0-1.2,0-1.7c0-2.4,0-4.8,0-7.2c0-0.5-0.1-1-0.4-1.4
			c-0.5-0.8-1.3-1.2-2.2-1.2C18.3,8.9,16.9,8.9,15.5,8.9z"/>
		<path class="st1" d="M19.7,16.3c0,1.4,0,2.8,0,4.2c0,0.6-0.4,1-1,1c-2.3,0-4.5,0-6.8,0c-0.2,0-0.2,0-0.2-0.2
			c0.2-0.5,0.3-1,0.5-1.5c0.1-0.3,0.1-0.3,0.3-0.3c1.6,0,3.3,0,4.9,0c0.2,0,0.2,0,0.2-0.2c0-0.1,0-0.2,0-0.3c0-0.2,0-0.2-0.2-0.2
			c-0.8,0-1.7,0-2.5,0c-0.9,0-1.8,0-2.6,0c-0.6,0-1-0.4-1-1c0-1.8,0-3.7,0-5.5c0-0.6,0.4-1.1,1.1-1.1c2.1,0,4.2,0,6.3,0
			c0.6,0,1.1,0.4,1.1,1.1C19.7,13.5,19.7,14.9,19.7,16.3C19.7,16.3,19.7,16.3,19.7,16.3z M15.5,13.1c-0.7,0-1.4,0-2,0
			c-0.1,0-0.2,0-0.2,0.2c0,1.1,0,2.2,0,3.2c0,0.1,0,0.2,0.2,0.2c1.3,0,2.7,0,4,0c0.1,0,0.2,0,0.2-0.2c0-1.1,0-2.1,0-3.2
			c0-0.2,0-0.2-0.2-0.2C16.8,13.1,16.2,13.1,15.5,13.1z"/>
	</g>
</g>
</svg>
