<?xml version="1.0" encoding="utf-8"?>
<!-- Generator: Adobe Illustrator 22.1.0, SVG Export Plug-In . SVG Version: 6.00 Build 0)  -->
<svg version="1.1" id="Слой_1" xmlns="http://www.w3.org/2000/svg" xmlns:xlink="http://www.w3.org/1999/xlink" x="0px" y="0px"
	 viewBox="0 0 32 32" style="enable-background:new 0 0 32 32;" xml:space="preserve">
<style type="text/css">
	.st0{fill:#2F0735;}
	.st1{fill:#E85D53;}
</style>
<g>
	<path class="st0" d="M0,0h32v32H0V0z"/>
	<path class="st1" d="M5.7,6.5C5.6,6.5,5.4,6.5,5.3,6.6c0,0,0,0.1,0,0.1v10.9c0,0.2,0.1,0.4,0.3,0.6l2.3,1.7
		c0.1,0.1,0.3,0.1,0.3-0.1c0,0,0-0.1,0-0.1v-6.9c0,0,0-0.1,0.1-0.1c0,0,0,0,0,0l5.6,4c0.1,0.1,0.2,0.2,0.2,0.3v7.1
		c0,0.2,0.1,0.3,0.2,0.4l1.3,0.9c0.1,0.1,0.3,0.1,0.5,0l1.3-0.9c0.1-0.1,0.2-0.3,0.2-0.4V17c0-0.1,0.1-0.2,0.2-0.3l5.6-4
		c0,0,0.1,0,0.1,0c0,0,0,0,0,0v6.9c0,0.1,0.1,0.2,0.2,0.2c0.1,0,0.1,0,0.1,0l2.3-1.7c0.2-0.1,0.3-0.3,0.3-0.6V6.7
		c0-0.1-0.1-0.2-0.2-0.2c0,0,0,0,0,0c-0.1,0-0.1,0-0.1,0l-10,7.1c-0.2,0.1-0.4,0.1-0.6,0L5.7,6.5z"/>
</g>
</svg>
