<?xml version="1.0" encoding="utf-8"?>
<!-- Generator: Adobe Illustrator 21.1.0, SVG Export Plug-In . SVG Version: 6.00 Build 0)  -->
<svg version="1.1" id="Слой_1" xmlns="http://www.w3.org/2000/svg" xmlns:xlink="http://www.w3.org/1999/xlink" x="0px" y="0px"
	 viewBox="0 0 32 32" style="enable-background:new 0 0 32 32;" xml:space="preserve">
<style type="text/css">
	.st0{fill:#4EBEC7;}
	.st1{fill:#048199;}
</style>
<title>color/xrp</title>
<desc>Created with Sketch.</desc>
<g>
	<path class="st0" d="M28,16c0,0.1,0.2,0.2,0.3,0.2c0.6,0.4,1.3,0.8,1.8,1.3c0.6,0.5,1.1,1.2,1.4,1.9c0.4,0.8,0.5,1.6,0.5,2.5
		c0,0.8-0.2,1.6-0.6,2.4c-0.5,1-1.2,1.8-2.2,2.4c-0.8,0.5-1.5,1.1-2.3,1.6c-0.9,0.6-1.7,1.2-2.6,1.8c-0.1,0-0.1,0.1-0.2,0
		c-1.3-0.9-2.5-1.8-3.8-2.7c-1.2-0.8-2.4-1.7-3.5-2.5c-1.3-0.9-2.6-1.8-3.9-2.7c-1.4-1-2.8-1.9-4.2-2.9c-0.9-0.7-1.9-1.3-2.8-2
		c0,0-0.1,0-0.1-0.1c0,0,0,0,0.1-0.1c0.6-0.4,1.2-0.8,1.7-1.2c0,0.1,0.1,0.1,0.1,0.1c0.8,0.5,1.5,1.1,2.3,1.6c1,0.7,2,1.4,2.9,2
		c0.6,0.4,1.2,0.9,1.9,1.3c0.8,0.6,1.6,1.1,2.4,1.7c1.1,0.8,2.2,1.6,3.3,2.3c0.5,0.3,1,0.7,1.5,1c0.7,0.5,1.5,1,2.2,1.6
		c0.1,0.1,0.1,0,0.2,0c0.6-0.4,1.2-0.8,1.8-1.2c0.7-0.5,1.4-1,2.1-1.5c0.5-0.4,0.9-0.8,1.2-1.3c0.4-0.8,0.5-1.6,0.4-2.5
		c-0.2-0.9-0.6-1.6-1.4-2.1c-0.8-0.6-1.6-1.1-2.4-1.7c0,0,0.1-0.1,0.1-0.1C26.8,16.8,27.4,16.4,28,16z"/>
	<path class="st0" d="M4.1,16c-0.3-0.1-0.5-0.3-0.8-0.5C3,15.2,2.7,15,2.4,14.8c-1-0.7-1.7-1.6-2.1-2.8c-0.5-1.5-0.4-3,0.3-4.4
		c0.4-0.8,1-1.5,1.7-2c0.9-0.7,1.9-1.3,2.8-2C6,3.1,6.8,2.5,7.6,1.9c0.1-0.1,0.1-0.1,0.2,0c1.3,0.9,2.6,1.9,3.9,2.8
		c1.1,0.8,2.2,1.5,3.2,2.3c1.2,0.8,2.4,1.7,3.5,2.5c1.4,1,2.8,2,4.3,3c1.1,0.8,2.2,1.5,3.2,2.3c0,0,0.1,0,0.1,0.1
		c0,0.1-0.1,0.1-0.1,0.1c-0.5,0.4-1.1,0.8-1.6,1.1c0-0.1-0.1-0.1-0.1-0.1c-0.7-0.5-1.5-1-2.2-1.6c-1-0.7-2-1.4-3-2.1
		c-1-0.7-2-1.4-2.9-2c-0.8-0.6-1.6-1.1-2.4-1.7c-0.9-0.6-1.8-1.2-2.6-1.8C9.9,5.9,8.9,5.1,7.8,4.4c-0.1-0.1-0.1-0.1-0.2,0
		C7.3,4.6,7,4.8,6.7,5C6,5.5,5.3,6,4.6,6.5c-0.5,0.4-1,0.7-1.5,1.1C3.1,7.7,2.9,7.8,2.9,7.9c0,0-0.2,0.3-0.2,0.3
		C2.2,8.9,2,9.6,2,10.4c0.1,1.1,0.6,2,1.5,2.7c0.7,0.5,1.3,0.9,2,1.4c0.1,0.1,0.2,0.2,0.4,0.2c-0.6,0.4-1.1,0.8-1.7,1.2
		C4.2,15.9,4.1,16,4.1,16z"/>
	<path class="st1" d="M14.1,25.5c-0.4-0.3-0.9-0.6-1.3-0.9c-0.1-0.1-0.2-0.2-0.3-0.2c-0.1,0-0.2,0.1-0.3,0.2c-1.5,1-2.9,2.1-4.4,3.1
		c0,0-0.1,0-0.1,0c0,0,0,0-0.1-0.1c-1-0.7-2-1.4-2.9-2.1c-0.5-0.4-1.1-0.7-1.6-1.2c0,0,0-0.1-0.1-0.1c0-0.1-0.1-0.1-0.1-0.2
		c0,0-0.1-0.1-0.1-0.1v0c0,0,0-0.1-0.1-0.1c-1.1-1.7-0.7-3.9,0.9-5c0.6-0.4,1.2-0.8,1.7-1.2c0.2-0.1,0.4-0.3,0.6-0.4
		c0,0,0,0,0.1-0.1c0.6-0.4,1.2-0.8,1.7-1.2c2.2-1.5,4.3-3,6.5-4.5c0.1-0.1,0.1-0.1,0-0.2c-0.5-0.4-1-0.7-1.6-1.1
		c-0.1-0.1-0.1,0-0.2,0c-1.4,1-2.8,1.9-4.2,2.9c-0.8,0.5-1.6,1.1-2.3,1.6c-0.6,0.4-1.1,0.8-1.7,1.2c0,0-0.1,0.1-0.2,0.1
		C4.1,16,4,16.1,4,16.1c-0.3,0.2-0.6,0.4-0.9,0.6C2.5,17.1,2,17.5,1.5,18c-1.1,1.3-1.6,2.8-1.4,4.5c0.2,1.6,1,2.9,2.3,3.9
		c1.7,1.3,3.5,2.5,5.3,3.7c0.1,0.1,0.1,0.1,0.2,0c0.5-0.3,0.9-0.6,1.4-1c1.6-1.2,3.3-2.3,4.9-3.5C14.2,25.6,14.2,25.6,14.1,25.5z"/>
	<path class="st1" d="M31.9,9.3c-0.2-1.6-1.1-2.9-2.4-3.8c-1.7-1.2-3.4-2.4-5.1-3.6c-0.1-0.1-0.2-0.1-0.3,0
		c-0.9,0.6-1.7,1.2-2.6,1.8c-1.2,0.9-2.5,1.7-3.7,2.6c-0.1,0.1-0.1,0.1,0,0.2c0.5,0.4,1,0.7,1.6,1.1c0.1,0.1,0.1,0.1,0.2,0
		c0.2-0.2,0.4-0.3,0.6-0.5c1.3-0.9,2.6-1.8,3.9-2.7c0.1-0.1,0.2-0.1,0.2,0c0.9,0.6,1.8,1.2,2.7,1.9c0.6,0.4,1.2,0.8,1.7,1.2
		c1.7,1.5,1.6,4.4-0.4,5.7c-0.5,0.4-1,0.7-1.5,1.1c-0.2,0.2-0.5,0.4-0.7,0.5c0,0.1-0.1,0.1-0.1,0.1c-0.5,0.4-1.1,0.8-1.6,1.1
		c-2.2,1.5-4.4,3.1-6.6,4.6c0.3,0.2,0.6,0.4,0.8,0.6c0.3,0.2,0.5,0.4,0.8,0.6c0.1,0.1,0.2,0.1,0.3,0c1.1-0.7,2.1-1.5,3.2-2.2
		c1.1-0.8,2.2-1.5,3.2-2.3c0,0,0.1,0,0.1,0c0,0,0.1-0.1,0.1-0.1c0.6-0.4,1.1-0.8,1.7-1.2c0.5-0.4,1.1-0.8,1.6-1.2
		C31.5,13.4,32.3,11.6,31.9,9.3z"/>
</g>
</svg>
