<?xml version="1.0" encoding="utf-8"?>
<!-- Generator: Adobe Illustrator 22.1.0, SVG Export Plug-In . SVG Version: 6.00 Build 0)  -->
<svg version="1.1" id="Слой_1" xmlns="http://www.w3.org/2000/svg" xmlns:xlink="http://www.w3.org/1999/xlink" x="0px" y="0px"
	 viewBox="0 0 32 32" style="enable-background:new 0 0 32 32;" xml:space="preserve">
<style type="text/css">
	.st0{fill:#07C7C9;}
</style>
<g>
	<path class="st0" d="M2.8,6.9L14.7,0v1.8c0,0,0,1.1-0.7,1.6S6.2,7.9,6.2,7.9S5.3,8.3,4.6,8S2.8,6.9,2.8,6.9z"/>
	<path class="st0" d="M29.1,6.9L17.2,0v1.8c0,0,0,1.1,0.7,1.6s7.7,4.5,7.7,4.5s1,0.5,1.6,0.1S29.1,6.9,29.1,6.9z"/>
	<path class="st0" d="M2.8,25.1L14.7,32v-1.8c0,0,0-1.1-0.7-1.6c-0.7-0.5-7.7-4.5-7.7-4.5s-1-0.5-1.6-0.1
		C3.9,24.4,2.8,25.1,2.8,25.1z"/>
	<path class="st0" d="M29.2,25.1L17.2,32v-1.8c0,0,0-1.1,0.7-1.6c0.7-0.5,7.7-4.5,7.7-4.5s1-0.5,1.6-0.1
		C28,24.4,29.2,25.1,29.2,25.1z"/>
	<path class="st0" d="M1.5,22.9l0-13.8L3,10c0,0,1,0.6,1,1.4s0,8.9,0,8.9S4,21.4,3.3,21.8S1.5,22.9,1.5,22.9z"/>
	<path class="st0" d="M30.5,22.9l0-13.8L29,10c0,0-1,0.6-1,1.4c0,0.8,0,8.9,0,8.9s0.1,1.1,0.7,1.5C29.4,22.2,30.5,22.9,30.5,22.9z"
		/>
	<path class="st0" d="M24.7,18.7c-1.1-0.6-1.9-0.1-2.4-0.2c-0.4,0-0.4,0.1-3.8-1.7c0.1-0.3,0.2-0.7,0.2-1.1c0-0.2,0-0.5-0.1-0.7
		c3.5-1.7,3.3-1.5,3.6-1.5c0.5,0,1.3,0.5,2.4-0.1c1-0.6,1.4-1.8,0.8-2.8c-0.6-1-1.8-1.4-2.8-0.8c-1.1,0.6-1.1,1.6-1.4,2
		c-0.2,0.3,0.1,0.2-3.1,2.3c-0.4-0.5-1-0.9-1.6-1c0.2-3.8,0.3-3.5,0.5-3.8c0.2-0.4,1.1-0.9,1.1-2.2C18.1,6,17.2,5,16,5
		S13.9,6,13.9,7.1c0,1.3,0.9,1.7,1.1,2.2c0.2,0.3,0.3,0,0.5,3.8c-0.7,0.1-1.3,0.5-1.7,1.1c-3.3-2.1-2.9-2-3.1-2.3
		c-0.3-0.4-0.3-1.4-1.4-2c-1-0.6-2.3-0.2-2.8,0.8c-0.6,1-0.2,2.3,0.8,2.8c1.1,0.6,1.9,0.1,2.4,0.1c0.4,0,0.1-0.3,3.7,1.5
		c-0.1,0.2-0.1,0.5-0.1,0.7c0,0.4,0.1,0.7,0.2,1.1c-3.4,1.8-3.4,1.7-3.8,1.7c-0.5,0-1.4-0.5-2.4,0.2c-1,0.6-1.3,1.9-0.7,2.9
		s1.9,1.3,2.9,0.7c1.1-0.6,1.1-1.6,1.3-2.1c0.2-0.3,0.1-0.4,3.4-2.6c0.4,0.4,0.9,0.6,1.4,0.7c-0.2,3.9-0.3,3.9-0.5,4.2
		c-0.2,0.4-1.1,0.9-1.1,2.2c0,1.2,0.9,2.1,2.1,2.1s2.1-0.9,2.1-2.1c0-1.3-0.9-1.7-1.1-2.2c-0.2-0.3-0.3-0.3-0.5-4.2
		c0.5-0.1,1-0.4,1.4-0.7c3.3,2.2,3.2,2.3,3.3,2.6c0.3,0.4,0.2,1.4,1.3,2.1c1,0.6,2.3,0.3,2.9-0.7C26,20.5,25.6,19.3,24.7,18.7z"/>
</g>
</svg>
