<svg xmlns="http://www.w3.org/2000/svg" width="32" height="32">
  <circle cx="16" cy="16" r="15" fill="#fff"/>
  <path d="M14.791 14.661h.037a1.592 1.592 0 0 0 1.585-1.6v-.077a1.507 1.507 0 0 0-.225-.655 4.153 4.153 0 0 1 2.567-6.228 4.256 4.256 0 0 1 .974-.112 4.142 4.142 0 0 1 .44 8.26 1.729 1.729 0 0 1-.215.009c-.131 0-.253-.009-.375-.009v.028c-.14 0-.281-.019-.412-.019a2.12 2.12 0 0 0-.243.019 1.487 1.487 0 0 0-.946 2.248 1.755 1.755 0 0 0 1.582.871 4.138 4.138 0 1 1-4.073 4.884 3.863 3.863 0 0 1-.029-.183 3.979 3.979 0 0 1 .656-2.847 1.611 1.611 0 0 0-1.087-2.491 1.838 1.838 0 0 0-.318-.028 1.713 1.713 0 0 0-1.5.927 4.209 4.209 0 0 1-1.246 1.414 4.076 4.076 0 0 1-2.369.768 4.146 4.146 0 0 1-.675-8.241 3.758 3.758 0 0 1 .637-.056 4.154 4.154 0 0 1 3.634 2.154 1.726 1.726 0 0 0 1.6.965M16.026-.013a16 16 0 1 0 6.088 1.218 15.629 15.629 0 0 0-6.088-1.218" fill="#438bca" fill-rule="evenodd"/>
</svg>