<svg width="32" height="32" viewBox="0 0 32 32" version="1.1" xmlns="http://www.w3.org/2000/svg" xmlns:xlink="http://www.w3.org/1999/xlink">
<path fill="#FFFFFF" d="m20.4 15.9h-20.4c0 0.8 0.1 1.5 0.3 2.3h29.3c0.2-0.7 0.3-1.5 0.3-2.2l-9.5-0.1z"/>
<path fill="#FFFFFF" d="m7.9 28.2h14.3c1.3-0.7 2.5-1.6 3.5-2.7h-21.4c1.1 1.1 2.3 2 3.6 2.7z"/>
<path fill="#FFFFFF" d="m2.4 23.2h25.2c0.5-0.8 1-1.7 1.3-2.6h-27.8c0.4 0.9 0.8 1.8 1.3 2.6z"/>
<path fill="#FFFFFF" d="m20.9 13.6h9c-0.1-0.8-0.2-1.5-0.4-2.2h-8.6v2.2z"/>
<path fill="#FFFFFF" d="m20.9 2v2.3h4.6c-0.9-0.9-1.9-1.7-3.1-2.3h-1.5z"/>
<path fill="#FFFFFF" d="M20.9,9h7.8c-0.4-0.8-0.8-1.6-1.3-2.3h-6.6V9z"/>
<path fill="#C71820" d="M22.4,2c-0.5-0.3-1-0.5-1.5-0.8V2H22.4z"/>
<path fill="#C71820" d="m20.9 6.7h6.6c-0.6-0.9-1.2-1.7-2-2.4h-4.6v2.4z"/>
<path fill="#C71820" d="m20.9 11.4h8.6c-0.2-0.8-0.5-1.6-0.8-2.4h-7.8v2.4z"/>
<path fill="#C71820" d="m20.9 15.9h-0.5v0.1h9.6v-1c0-0.5 0-0.9-0.1-1.4h-9v2.3z"/>
<path fill="#C71820" d="M1.1,20.6h27.8c0.3-0.8,0.6-1.6,0.7-2.4H0.4C0.5,19,0.8,19.8,1.1,20.6z"/>
<path fill="#C71820" d="M4.3,25.5h21.3c0.7-0.7,1.4-1.5,1.9-2.4H2.4C3,24,3.6,24.8,4.3,25.5z"/>
<path fill="#C71820" d="M15,30c2.6,0,5-0.7,7.1-1.8H7.9C10,29.3,12.4,30,15,30z"/>
<path fill="#241F5D" d="m20.4 1c-0.4-0.2-0.9-0.3-1.4-0.4l0.2 0.4h0.7l-0.5 0.5 0.2 0.7-0.6-0.4-0.6 0.4 0.2-0.7-0.6-0.5h0.7l0.2-0.5c-1.3-0.3-2.6-0.5-3.9-0.5s-2.6 0.2-3.9 0.5l0.2 0.5h0.7l-0.5 0.5 0.2 0.7-0.6-0.4-0.6 0.4 0.2-0.7-0.6-0.5h0.7l0.1-0.4c-1.1 0.3-2.2 0.7-3.2 1.3l0.1 0.3-0.3-0.2c-0.7 0.4-1.3 0.8-2 1.3l0.2 0.6-0.4-0.3c-0.6 0.5-1.1 1-1.5 1.5l0.1 0.3-0.3-0.1c-0.9 1-1.7 2.2-2.3 3.5l0.2 0.4h0.7l-0.5 0.5 0.2 0.7-0.7-0.4-0.5 0.4c-0.4 1.1-0.6 2.3-0.7 3.6h0.2l-0.2 0.2v0.8 0.9h20.9v-14.7c-0.2-0.1-0.3-0.1-0.5-0.2zm-18.5 12.7l-0.6-0.4-0.6 0.4 0.1-0.7-0.5-0.5h0.7l0.3-0.7 0.3 0.7h0.7l-0.6 0.5 0.2 0.7zm1.9 1.5l-0.6-0.4-0.6 0.4 0.2-0.7-0.6-0.5h0.7l0.3-0.7 0.2 0.7h0.7l-0.5 0.5 0.2 0.7zm-0.2-4l0.2 0.8-0.6-0.4-0.6 0.4 0.2-0.7-0.5-0.5h0.7l0.2-0.8 0.3 0.7h0.7l-0.6 0.5zm0-3.2l0.2 0.7-0.6-0.4-0.6 0.4 0.2-0.7-0.6-0.5h0.7l0.3-0.7 0.3 0.7h0.7l-0.6 0.5zm2.1 5.7l-0.6-0.4-0.6 0.4 0.2-0.7-0.5-0.5h0.7l0.3-0.7 0.3 0.7h0.7l-0.7 0.5 0.2 0.7zm-0.2-4l0.2 0.7-0.6-0.4-0.6 0.4 0.2-0.7-0.5-0.5h0.7l0.3-0.7 0.3 0.7h0.7l-0.7 0.5zm0-3.3l0.2 0.7-0.6-0.4-0.6 0.4 0.2-0.7-0.5-0.5h0.7l0.3-0.7 0.3 0.7h0.7l-0.7 0.5zm2.3 8.8l-0.6-0.4-0.6 0.4 0.2-0.7-0.6-0.5h0.7l0.3-0.7 0.3 0.7h0.7l-0.5 0.5 0.1 0.7zm-0.2-4l0.2 0.8-0.6-0.4-0.6 0.4 0.2-0.7-0.5-0.5h0.7l0.2-0.8 0.3 0.7h0.7l-0.6 0.5zm0-3.2l0.2 0.7-0.6-0.4-0.6 0.4 0.2-0.7-0.6-0.5h0.7l0.3-0.7 0.3 0.7h0.7l-0.6 0.5zm0-3.3l0.2 0.7-0.6-0.4-0.6 0.4 0.2-0.7-0.6-0.5h0.7l0.3-0.7 0.3 0.7h0.7l-0.6 0.5zm2.1 9l-0.6-0.4-0.6 0.4 0.2-0.7-0.5-0.5h0.7l0.3-0.7 0.3 0.7h0.7l-0.7 0.5 0.2 0.7zm-0.2-4l0.2 0.7-0.6-0.4-0.6 0.4 0.2-0.7-0.5-0.5h0.7l0.3-0.7 0.3 0.7h0.7l-0.7 0.5zm0-3.3l0.2 0.7-0.6-0.4-0.6 0.4 0.2-0.7-0.5-0.5h0.7l0.3-0.7 0.3 0.7h0.7l-0.7 0.5zm0-3.2l0.2 0.7-0.6-0.4-0.6 0.4 0.2-0.7-0.5-0.5h0.7l0.2-0.7 0.3 0.7h0.7l-0.6 0.5zm2.2 12l-0.6-0.4-0.6 0.4 0.2-0.7-0.6-0.5h0.7l0.3-0.7 0.3 0.7h0.6l-0.5 0.5 0.2 0.7zm-0.2-4l0.2 0.7-0.6-0.4-0.6 0.5 0.2-0.7-0.5-0.5h0.7l0.1-0.8 0.3 0.7h0.7l-0.5 0.5zm0-3.2l0.2 0.7-0.6-0.4-0.6 0.4 0.1-0.7-0.5-0.5h0.7l0.2-0.7 0.3 0.7h0.7l-0.5 0.5zm0-3.3l0.2 0.7-0.6-0.4-0.6 0.4 0.2-0.7-0.5-0.5h0.7l0.1-0.7 0.3 0.7h0.7l-0.5 0.5zm2.1 9l-0.6-0.4-0.6 0.4 0.2-0.7-0.6-0.5h0.7l0.3-0.7 0.3 0.7h0.7l-0.6 0.5 0.2 0.7zm-0.2-4l0.2 0.7-0.6-0.4-0.6 0.4 0.2-0.7-0.6-0.5h0.7l0.3-0.7 0.3 0.7h0.7l-0.6 0.5zm0-3.3l0.2 0.7-0.6-0.4-0.6 0.4 0.2-0.7-0.6-0.5h0.7l0.3-0.7 0.3 0.7h0.7l-0.6 0.5zm0-3.2l0.2 0.7-0.6-0.4-0.6 0.4 0.2-0.7-0.6-0.5h0.7l0.3-0.7 0.3 0.7h0.7l-0.6 0.5zm2.2 12l-0.6-0.4-0.6 0.4 0.2-0.7-0.6-0.5h0.7l0.3-0.7 0.3 0.7h0.7l-0.5 0.5 0.1 0.7zm-0.2-4l0.2 0.7-0.6-0.4-0.6 0.5 0.2-0.7-0.6-0.5h0.7l0.3-0.7 0.3 0.7h0.7l-0.6 0.4zm0-3.2l0.2 0.7-0.6-0.4-0.6 0.4 0.1-0.7-0.5-0.5h0.7l0.3-0.7 0.3 0.7h0.7l-0.6 0.5zm0-3.3l0.2 0.7-0.7-0.4-0.6 0.4 0.2-0.7-0.5-0.5h0.7l0.3-0.7 0.3 0.7h0.7l-0.6 0.5zm0-3.2l0.2 0.7-0.6-0.4-0.6 0.4 0.2-0.7-0.6-0.5h0.7l0.3-0.7 0.2 0.7h0.7l-0.5 0.5zm2.1 12.2l-0.6-0.4-0.6 0.4 0.2-0.7-0.5-0.5h0.7l0.3-0.7 0.3 0.7h0.7l-0.7 0.5 0.2 0.7zm-0.2-4l0.2 0.7-0.6-0.4-0.6 0.4 0.2-0.7-0.5-0.5h0.7l0.3-0.7 0.3 0.7h0.7l-0.7 0.5zm0-3.3l0.2 0.7-0.6-0.4-0.6 0.4 0.2-0.7-0.5-0.5h0.7l0.3-0.7 0.3 0.7h0.7l-0.7 0.5zm0-3.2l0.2 0.7-0.6-0.4-0.6 0.4 0.2-0.7-0.5-0.5h0.7l0.2-0.7 0.3 0.7h0.7l-0.6 0.5zm2.2 12l-0.6-0.4-0.6 0.4 0.2-0.7-0.5-0.5h0.7l0.3-0.7 0.3 0.7h0.7l-0.5 0.5v0.7zm-0.1-4l0.2 0.7-0.6-0.4-0.7 0.5 0.2-0.7-0.5-0.5h0.7l0.3-0.7 0.3 0.7h0.7l-0.6 0.4zm0-3.2l0.2 0.7-0.6-0.4-0.6 0.4 0.1-0.7-0.5-0.5h0.7l0.3-0.7 0.3 0.7h0.7l-0.6 0.5zm0-3.3l0.2 0.7-0.7-0.4-0.6 0.4 0.2-0.7-0.5-0.5h0.7l0.3-0.7 0.3 0.7h0.7l-0.6 0.5z"/>
<path fill="#FFFFFF" d="m7.7 1.9s-0.1 0.1-0.2 0.1l0.3 0.2-0.1-0.3z"/>
<path fill="#FFFFFF" d="M10.1,1l0.5,0.5l-0.2,0.7l0.6-0.4l0.6,0.4l-0.2-0.7L12,1h-0.7l-0.2-0.5c-0.1,0-0.1,0-0.2,0.1L10.8,1H10.1z"/>
<polygon fill="#FFFFFF" points="14.9 0.3 14.7 1 14 1 14.5 1.5 14.4 2.2 14.9 1.8 15.6 2.2 15.4 1.5 15.9 1 15.2 1"/>
<path fill="#FFFFFF" d="M18,1l0.5,0.5l-0.2,0.7l0.6-0.4l0.6,0.4l-0.2-0.7L19.9,1h-0.7L19,0.6c-0.1,0-0.1,0-0.2-0.1L18.7,1H18z"/>
<path fill="#FFFFFF" d="m5.6 3.3l-0.3 0.3 0.5 0.3-0.2-0.6z"/>
<polygon fill="#FFFFFF" points="9.1 2 8.9 2.7 8.2 2.7 8.7 3.2 8.5 3.9 9.1 3.5 9.7 3.9 9.5 3.2 10.1 2.7 9.4 2.7"/>
<polygon fill="#FFFFFF" points="13 2 12.7 2.7 12 2.7 12.6 3.2 12.4 3.9 13 3.5 13.6 3.9 13.4 3.2 13.9 2.7 13.3 2.7"/>
<polygon fill="#FFFFFF" points="16.9 2 16.6 2.7 15.9 2.7 16.5 3.2 16.3 3.9 16.9 3.5 17.5 3.9 17.3 3.2 17.8 2.7 17.1 2.7"/>
<path fill="#FFFFFF" d="m3.7 5.1c0 0.1-0.1 0.1-0.1 0.1l0.2 0.1-0.1-0.2z"/>
<polygon fill="#FFFFFF" points="7.2 3.5 6.9 4.2 6.2 4.2 6.8 4.7 6.6 5.4 7.2 5 7.8 5.4 7.6 4.7 8.1 4.2 7.5 4.2"/>
<polygon fill="#FFFFFF" points="11 3.5 10.8 4.2 10.1 4.2 10.6 4.7 10.5 5.4 11.1 5 11.7 5.4 11.5 4.7 12 4.2 11.3 4.2"/>
<polygon fill="#FFFFFF" points="14.9 3.5 14.7 4.2 14 4.2 14.5 4.7 14.4 5.4 14.9 5 15.6 5.4 15.4 4.7 15.9 4.2 15.2 4.2"/>
<polygon fill="#FFFFFF" points="18.9 3.5 18.7 4.2 18 4.2 18.5 4.7 18.3 5.4 18.9 5 19.5 5.4 19.4 4.7 19.9 4.2 19.2 4.2"/>
<polygon fill="#FFFFFF" points="5.1 5.2 4.9 5.9 4.2 5.9 4.7 6.4 4.5 7.1 5.1 6.7 5.7 7.1 5.5 6.4 6.1 5.9 5.4 5.9"/>
<polygon fill="#FFFFFF" points="9.1 5.2 8.9 5.9 8.2 5.9 8.7 6.4 8.5 7.1 9.1 6.7 9.7 7.1 9.5 6.4 10.1 5.9 9.4 5.9"/>
<polygon fill="#FFFFFF" points="13 5.2 12.7 5.9 12 5.9 12.6 6.4 12.4 7.1 13 6.7 13.6 7.1 13.4 6.4 13.9 5.9 13.3 5.9"/>
<polygon fill="#FFFFFF" points="16.9 5.2 16.6 5.9 15.9 5.9 16.5 6.4 16.3 7.1 16.9 6.7 17.5 7.1 17.3 6.4 17.8 5.9 17.1 5.9"/>
<polygon fill="#FFFFFF" points="3.2 6.8 2.9 7.5 2.2 7.5 2.8 8 2.6 8.7 3.2 8.3 3.8 8.7 3.6 8 4.1 7.5 3.4 7.5"/>
<polygon fill="#FFFFFF" points="7.2 6.8 6.9 7.5 6.2 7.5 6.8 8 6.6 8.7 7.2 8.3 7.8 8.7 7.6 8 8.1 7.5 7.5 7.5"/>
<polygon fill="#FFFFFF" points="11 6.8 10.8 7.5 10.1 7.5 10.6 8 10.5 8.7 11.1 8.3 11.7 8.7 11.5 8 12 7.5 11.3 7.5"/>
<polygon fill="#FFFFFF" points="14.9 6.8 14.7 7.5 14 7.5 14.5 8 14.4 8.7 14.9 8.3 15.6 8.7 15.4 8 15.9 7.5 15.2 7.5"/>
<polygon fill="#FFFFFF" points="18.9 6.8 18.7 7.5 18 7.5 18.5 8 18.3 8.7 18.9 8.3 19.5 8.7 19.4 8 19.9 7.5 19.2 7.5"/>
<path fill="#FFFFFF" d="M1.9,10.4L1.7,9.7l0.5-0.5H1.5L1.3,8.8c-0.2,0.5-0.4,1-0.6,1.6L1.2,10L1.9,10.4z"/>
<polygon fill="#FFFFFF" points="5.1 8.5 4.9 9.2 4.2 9.2 4.7 9.7 4.5 10.4 5.1 10 5.7 10.4 5.5 9.7 6.1 9.2 5.4 9.2"/>
<polygon fill="#FFFFFF" points="9.1 8.5 8.9 9.2 8.2 9.2 8.7 9.7 8.5 10.4 9.1 10 9.7 10.4 9.5 9.7 10.1 9.2 9.4 9.2"/>
<polygon fill="#FFFFFF" points="13 8.5 12.7 9.2 12 9.2 12.6 9.7 12.4 10.4 13 10 13.6 10.4 13.4 9.7 13.9 9.2 13.3 9.2"/>
<polygon fill="#FFFFFF" points="16.9 8.5 16.6 9.2 15.9 9.2 16.5 9.7 16.3 10.4 16.9 10 17.5 10.4 17.3 9.7 17.8 9.2 17.1 9.2"/>
<polygon fill="#FFFFFF" points="3.2 10 2.9 10.8 2.2 10.8 2.8 11.2 2.6 12 3.2 11.6 3.8 12 3.6 11.2 4.1 10.8 3.4 10.8"/>
<polygon fill="#FFFFFF" points="7.2 10 6.9 10.8 6.2 10.8 6.8 11.2 6.6 12 7.2 11.6 7.8 12 7.6 11.2 8.1 10.8 7.5 10.8"/>
<polygon fill="#FFFFFF" points="11 10 10.8 10.8 10.1 10.8 10.6 11.2 10.5 12 11.1 11.6 11.7 12 11.5 11.2 12 10.8 11.3 10.8"/>
<polygon fill="#FFFFFF" points="14.9 10 14.7 10.8 14 10.8 14.5 11.2 14.4 12 14.9 11.6 15.6 12 15.4 11.2 15.9 10.8 15.2 10.8"/>
<polygon fill="#FFFFFF" points="18.9 10 18.7 10.8 18 10.8 18.5 11.2 18.3 12 18.9 11.6 19.5 12 19.4 11.2 19.9 10.8 19.2 10.8"/>
<path fill="#FFFFFF" d="m0.1 14v0.2l0.2-0.2h-0.2z"/>
<polygon fill="#FFFFFF" points="3.4 14 3.2 13.3 2.9 14 2.2 14 2.8 14.5 2.6 15.2 3.2 14.8 3.8 15.2 3.6 14.5 4.1 14"/>
<polygon fill="#FFFFFF" points="7.5 14 7.2 13.3 6.9 14 6.2 14 6.8 14.5 6.6 15.2 7.2 14.8 7.8 15.2 7.6 14.5 8.1 14"/>
<polygon fill="#FFFFFF" points="11.3 14 11 13.3 10.8 14 10.1 14 10.6 14.5 10.5 15.2 11.1 14.8 11.7 15.2 11.5 14.5 12 14"/>
<polygon fill="#FFFFFF" points="15.2 14 14.9 13.3 14.7 14 14 14 14.5 14.5 14.4 15.2 14.9 14.8 15.6 15.2 15.4 14.5 15.9 14"/>
<polygon fill="#FFFFFF" points="19.2 14 18.9 13.3 18.7 14 18 14 18.5 14.5 18.3 15.2 18.9 14.8 19.5 15.2 19.4 14.5 19.9 14"/>
<polygon fill="#FFFFFF" points="1.5 12.5 1.2 11.8 1 12.5 0.3 12.5 0.8 13 0.7 13.7 1.2 13.3 1.9 13.7 1.7 13 2.2 12.5"/>
<polygon fill="#FFFFFF" points="5.4 12.5 5.1 11.8 4.9 12.5 4.2 12.5 4.7 13 4.5 13.7 5.1 13.3 5.7 13.7 5.5 13 6.1 12.5"/>
<polygon fill="#FFFFFF" points="9.4 12.5 9.1 11.8 8.9 12.5 8.2 12.5 8.7 13 8.5 13.7 9.1 13.3 9.7 13.7 9.5 13 10.1 12.5"/>
<polygon fill="#FFFFFF" points="13.3 12.5 13 11.8 12.7 12.5 12 12.5 12.6 13 12.4 13.7 13 13.3 13.6 13.7 13.4 13 13.9 12.5"/>
<polygon fill="#FFFFFF" points="17.1 12.5 16.9 11.8 16.6 12.5 15.9 12.5 16.5 13 16.3 13.7 16.9 13.3 17.5 13.7 17.3 13 17.8 12.5"/>
</svg>
