<svg xmlns="http://www.w3.org/2000/svg" width="21.97" height="22" viewBox="0 0 21.97 22">
  <defs>
    <style>
      .cls-1 {
        fill-rule: evenodd;
      }
    </style>
  </defs>
  <path class="cls-1" d="M2209.38,150.96l-5.25,5.252,0.02-2.819a1.1,1.1,0,1,0-2.19,0v5.5a0.953,0.953,0,0,0,.35.769,1.085,1.085,0,0,0,.78.332h5.47a1.1,1.1,0,0,0,0-2.2h-2.9l5.28-5.278Zm-0.82-10.764a1.1,1.1,0,0,0,0-2.195h-5.47a1.1,1.1,0,0,0-.78.327,0.971,0.971,0,0,0-.35.774v5.5a1.1,1.1,0,0,0,2.19,0l-0.02-2.824,5.25,5.256,1.56-1.557-5.28-5.278h2.9Zm14.29,12.1a1.1,1.1,0,0,0-1.1,1.1l0.02,2.824-5.25-5.257-1.55,1.557,5.27,5.273h-2.89a1.1,1.1,0,0,0,0,2.2h5.47a1.085,1.085,0,0,0,.78-0.332,0.984,0.984,0,0,0,.35-0.769v-5.5a1.107,1.107,0,0,0-1.1-1.1h0ZM2222.82,138h-5.47a1.1,1.1,0,1,0,0,2.195h2.89l-5.28,5.278,1.56,1.557,5.25-5.256-0.02,2.824a1.1,1.1,0,0,0,2.2,0v-5.5a1,1,0,0,0-.35-0.774,1.119,1.119,0,0,0-.78-0.327h0Z" transform="translate(-2201.97 -138)"/>
</svg>
