<svg xmlns="http://www.w3.org/2000/svg" width="21.91" height="16.031" viewBox="0 0 21.91 16.031">
  <defs>
    <style>
      .cls-1 {
        fill: #747575;
        fill-rule: evenodd;
      }
    </style>
  </defs>
  <path class="cls-1" d="M1489.96,166.881h-7.44a0.984,0.984,0,1,0,0,1.967h5.07l-5.86,5.789-2.18-2.157a0.993,0.993,0,0,0-1.4,0l-8.82,8.751a0.984,0.984,0,0,0,.7,1.679,0.987,0.987,0,0,0,.7-0.289l8.12-8.055,2.18,2.156a1,1,0,0,0,1.4,0l6.54-6.459v4.976a0.99,0.99,0,0,0,1.98,0V167.9h0v-0.035A0.984,0.984,0,0,0,1489.96,166.881Z" transform="translate(-1469.03 -166.875)"/>
</svg>
