<?xml version="1.0" encoding="utf-8"?>
<!-- Generator: Adobe Illustrator 22.1.0, SVG Export Plug-In . SVG Version: 6.00 Build 0)  -->
<svg version="1.1" id="Layer_1" xmlns="http://www.w3.org/2000/svg" xmlns:xlink="http://www.w3.org/1999/xlink" x="0px" y="0px"
	 width="9.6px" height="7px" viewBox="0 0 9.6 7" style="enable-background:new 0 0 9.6 7;" xml:space="preserve">
<style type="text/css">
	.st0{fill:#9BA6B2;}
</style>
<g>
	<path class="st0" d="M0.7,2.8C0.5,2.8,0.4,2.8,0.2,3C0.1,3.1,0,3.3,0,3.5S0.1,3.9,0.2,4C0.5,4.3,1,4.3,1.3,4
		c0.1-0.1,0.2-0.3,0.2-0.5S1.4,3.1,1.3,3C1.1,2.8,1,2.8,0.7,2.8z"/>
	<path class="st0" d="M0.7,0C0.5,0,0.4,0.1,0.2,0.2C0.1,0.4,0,0.5,0,0.7s0.1,0.4,0.2,0.5c0.3,0.3,0.8,0.3,1.1,0
		C1.4,1.1,1.5,1,1.5,0.7S1.4,0.4,1.3,0.2S1,0,0.7,0z"/>
	<path class="st0" d="M0.7,5.5c-0.2,0-0.4,0.1-0.5,0.2C0.1,5.9,0,6.1,0,6.3s0.1,0.4,0.2,0.5c0.3,0.3,0.8,0.3,1.1,0
		c0.1-0.1,0.2-0.3,0.2-0.5S1.4,5.9,1.3,5.8C1.1,5.6,1,5.5,0.7,5.5z"/>
	<rect x="2.2" y="0.3" class="st0" width="7.4" height="0.8"/>
	<rect x="2.2" y="3.1" class="st0" width="7.4" height="0.8"/>
	<rect x="2.2" y="5.9" class="st0" width="7.4" height="0.8"/>
</g>
</svg>
