<?xml version="1.0" encoding="utf-8"?>
<!-- Generator: Adobe Illustrator 22.1.0, SVG Export Plug-In . SVG Version: 6.00 Build 0)  -->
<svg version="1.1" id="Layer_1" xmlns="http://www.w3.org/2000/svg" xmlns:xlink="http://www.w3.org/1999/xlink" x="0px" y="0px"
	 width="14.6px" height="14.5px" viewBox="0 0 14.6 14.5" style="enable-background:new 0 0 14.6 14.5;" xml:space="preserve">
<style type="text/css">
	.st0{fill:#2E2E2E;}
</style>
<g>
	<path class="st0" d="M7.6,8.7c0.4-0.5,0.6-1,0.7-1.6c0.7-0.7,1.6-1,2.6-1c0.8,0,1.5,0.2,2.2,0.7C13.5,7,14,6.9,14.3,6.5
		c0.3-0.4,0.2-0.9-0.2-1.1c-0.3-0.2-0.5-0.3-0.8-0.5C13.7,4.4,14,3.7,14,3c0-1.7-1.4-3-3-3S8,1.4,8,3c0,0.7,0.3,1.4,0.7,2
		C8.5,5.1,8.2,5.2,8,5.3c-0.5-1-1.5-1.6-2.7-1.6c-1.7,0-3,1.4-3,3c0,0.7,0.3,1.4,0.7,1.9c-1.4,0.6-2.5,1.8-3,3.3
		c-0.2,0.6-0.1,1.2,0.3,1.7c0.4,0.5,0.9,0.8,1.5,0.8h4.7c0.4,0,0.8-0.4,0.8-0.8S7,12.8,6.6,12.8H1.9c-0.1,0-0.2,0-0.2-0.1
		c-0.1-0.1-0.1-0.2,0-0.3c0.5-1.6,2-2.7,3.7-2.7c0.8,0,1.5,0.2,2.2,0.7c0.2,0.1,0.4,0.2,0.6,0.1c0.2,0,0.4-0.2,0.5-0.3
		c0.3-0.4,0.2-0.9-0.2-1.1C8.2,9,7.9,8.8,7.6,8.7z M6.8,6.7c0,0.8-0.6,1.4-1.4,1.4S3.9,7.5,3.9,6.7s0.6-1.4,1.4-1.4S6.8,5.9,6.8,6.7
		z M9.5,3c0-0.8,0.6-1.4,1.4-1.4s1.4,0.6,1.4,1.4S11.8,4.5,11,4.5S9.5,3.8,9.5,3z"/>
	<path class="st0" d="M13.1,11.9L14,11l0,0l0.3-0.3c0.2-0.1,0.2-0.3,0.2-0.6c0-0.2-0.1-0.4-0.2-0.6c-0.3-0.3-0.8-0.3-1.1,0L12,10.7
		l-0.9-0.9l0,0l-0.3-0.3c-0.1-0.2-0.3-0.2-0.6-0.2c0,0,0,0,0,0c-0.2,0-0.4,0.1-0.6,0.2C9.5,9.6,9.4,9.8,9.4,10
		c0,0.2,0.1,0.4,0.2,0.6l1.2,1.2L10,12.7l0,0l-0.3,0.3c-0.2,0.1-0.2,0.3-0.2,0.6c0,0.2,0.1,0.4,0.2,0.6s0.3,0.2,0.6,0.2c0,0,0,0,0,0
		c0.2,0,0.4-0.1,0.6-0.2L12,13l0.9,0.9l0,0l0.3,0.3c0.1,0.2,0.3,0.2,0.6,0.2c0,0,0,0,0,0c0.2,0,0.4-0.1,0.6-0.2
		c0.2-0.1,0.2-0.3,0.2-0.6c0-0.2-0.1-0.4-0.2-0.6L13.1,11.9z"/>
</g>
</svg>
