<?xml version="1.0" encoding="utf-8"?>
<!-- Generator: Adobe Illustrator 22.1.0, SVG Export Plug-In . SVG Version: 6.00 Build 0)  -->
<svg version="1.1" id="Layer_1" xmlns="http://www.w3.org/2000/svg" xmlns:xlink="http://www.w3.org/1999/xlink" x="0px" y="0px"
	 width="10.7px" height="7.3px" viewBox="0 0 10.7 7.3" style="enable-background:new 0 0 10.7 7.3;" xml:space="preserve">
<style type="text/css">
	.st0{fill:#9BA6B2;}
</style>
<g>
	<g>
		<path class="st0" d="M9.5,0C8.9,0,8.4,0.5,8.4,1.1c0,0.3,0.1,0.6,0.3,0.8l-1.3,2c-0.1,0-0.2-0.1-0.4-0.1c-0.2,0-0.5,0.1-0.7,0.2
			L4.9,3c0,0,0-0.1,0-0.1c0-0.6-0.5-1.1-1.1-1.1c-0.6,0-1.1,0.5-1.1,1.1c0,0.3,0.1,0.5,0.2,0.7L1.6,5.1C1.4,5.1,1.3,5,1.1,5
			C0.5,5,0,5.5,0,6.2c0,0.6,0.5,1.1,1.1,1.1s1.1-0.5,1.1-1.1c0-0.2-0.1-0.5-0.2-0.6L3.4,4C3.5,4,3.7,4.1,3.8,4.1
			c0.4,0,0.7-0.2,0.9-0.4L6,4.6C6,4.7,6,4.8,6,5c0,0.6,0.5,1.1,1.1,1.1S8.2,5.6,8.2,5c0-0.3-0.1-0.5-0.2-0.7l1.3-2
			c0.1,0,0.2,0,0.2,0c0.6,0,1.1-0.5,1.1-1.1C10.7,0.5,10.1,0,9.5,0L9.5,0z M9.5,0"/>
	</g>
</g>
</svg>
