<?xml version="1.0" encoding="utf-8"?>
<!-- Generator: Adobe Illustrator 22.1.0, SVG Export Plug-In . SVG Version: 6.00 Build 0)  -->
<svg version="1.1" id="Layer_1" xmlns="http://www.w3.org/2000/svg" xmlns:xlink="http://www.w3.org/1999/xlink" x="0px" y="0px"
	 width="10.2px" height="6.8px" viewBox="0 0 10.2 6.8" style="enable-background:new 0 0 10.2 6.8;" xml:space="preserve">
<style type="text/css">
	.st0{fill:#01B067;}
</style>
<path class="st0" d="M1,2.8c1,1.2,1.9,2.3,2.5,3.1H1V2.8 M9.2,2.8v3H6.8C7.5,5,8.3,3.9,9.2,2.8 M10.2,0c0,0-4.9,6-5.1,6.4
	c0,0,0,0,0,0c0,0,0,0,0,0c0,0,0,0,0,0C5.1,6,0,0,0,0v6.8h10.2V0L10.2,0z"/>
</svg>
