<?xml version="1.0" encoding="utf-8"?>
<!-- Generator: Adobe Illustrator 22.1.0, SVG Export Plug-In . SVG Version: 6.00 Build 0)  -->
<svg version="1.1" id="Layer_1" xmlns="http://www.w3.org/2000/svg" xmlns:xlink="http://www.w3.org/1999/xlink" x="0px" y="0px"
	 width="5.2px" height="7.2px" viewBox="0 0 5.2 7.2" style="enable-background:new 0 0 5.2 7.2;" xml:space="preserve">
<style type="text/css">
	.st0{fill-rule:evenodd;clip-rule:evenodd;fill:#FFFFFF;}
</style>
<path class="st0" d="M3.1,5.3L2,5l0.3-1.1l1.1,0.3c0.2,0,0.3,0.1,0.4,0.3c0.1,0.1,0.1,0.3,0.1,0.4c0,0.2-0.1,0.3-0.3,0.4
	C3.4,5.3,3.3,5.3,3.1,5.3z M2.8,2.1l0.8,0.2c0.2,0,0.3,0.1,0.4,0.3C4.1,2.8,4.1,2.9,4,3.1c0,0.2-0.1,0.3-0.3,0.4
	C3.6,3.5,3.5,3.5,3.3,3.5L2.5,3.3L2.8,2.1z M4.7,4c0.2-0.2,0.4-0.4,0.5-0.7c0.2-0.9-0.1-1.6-1-1.8l0.3-1.1c0,0,0,0,0-0.1
	c0,0,0,0,0,0L3.9,0.3c0,0-0.1,0-0.1,0L3.6,1.4L3,1.3l0.3-1.1c0,0,0,0,0-0.1c0,0,0,0,0,0L2.8,0c0,0-0.1,0-0.1,0L2.4,1.1L1.3,0.8
	c0,0-0.1,0-0.1,0.1L1,1.3c0,0,0,0.1,0.1,0.1l0.1,0c0.2,0,0.3,0.1,0.4,0.3c0.1,0.1,0.1,0.3,0.1,0.4L1,4.4C0.9,4.7,0.7,4.9,0.3,4.8
	c0,0-0.1,0-0.1,0L0,5.2c0,0,0,0,0,0.1c0,0,0,0,0,0l1.2,0.3L0.9,6.7c0,0,0,0.1,0.1,0.1l0.4,0.1c0,0,0,0,0.1,0c0,0,0,0,0,0l0.3-1.1
	L2.4,6L2.1,7c0,0,0,0.1,0.1,0.1l0.4,0.1c0,0,0,0,0.1,0c0,0,0,0,0,0l0.3-1.1l0.3,0.1C4.1,6.4,4.7,6,5,5.1C5.1,4.7,5,4.3,4.7,4z"/>
</svg>
