<svg xmlns="http://www.w3.org/2000/svg" width="27" height="30" viewBox="0 0 27 30">
  <defs>
    <style>
      .cls-1 {
        fill: #9ba6b2;
        fill-rule: evenodd;
      }
    </style>
  </defs>
  <path class="cls-1" d="M948.5,616.007c-7.438,0-13.49,5.624-13.49,12.537v17.467h6.919V628.966a6.594,6.594,0,0,1,13.144,0v17.045h6.918V628.544C961.988,621.631,955.937,616.007,948.5,616.007Zm-12.651,29.159V640.8h5.241v4.367h-5.241Zm12.651-23.1a7.177,7.177,0,0,0-7.41,6.9v10.988h-5.241v-11.41c0-6.447,5.675-11.692,12.651-11.692s12.652,5.245,12.652,11.692v11.41h-5.24V628.966A7.179,7.179,0,0,0,948.5,622.064Zm7.412,23.1V640.8h5.24v4.367h-5.24Z" transform="translate(-935 -616)"/>
</svg>
