<?xml version="1.0" encoding="utf-8"?>
<!-- Generator: Adobe Illustrator 22.1.0, SVG Export Plug-In . SVG Version: 6.00 Build 0)  -->
<svg version="1.1" id="Layer_1" xmlns="http://www.w3.org/2000/svg" xmlns:xlink="http://www.w3.org/1999/xlink" x="0px" y="0px"
	 width="16.7px" height="15.4px" viewBox="0 0 16.7 15.4" style="enable-background:new 0 0 16.7 15.4;" xml:space="preserve">
<style type="text/css">
	.st0{fill:#E8E8E8;}
</style>
<g>
	<path class="st0" d="M9,1.9c0-0.4,0.3-0.6,0.6-0.6h6.4c0.4,0,0.6,0.3,0.6,0.6v1.3c0,0.4-0.3,0.6-0.6,0.6H9.6C9.3,3.9,9,3.6,9,3.2
		V1.9z M9,7.1c0-0.4,0.3-0.6,0.6-0.6h6.4c0.4,0,0.6,0.3,0.6,0.6v1.3c0,0.4-0.3,0.6-0.6,0.6H9.6C9.3,9,9,8.7,9,8.4V7.1z M9,12.2
		c0-0.4,0.3-0.6,0.6-0.6h6.4c0.4,0,0.6,0.3,0.6,0.6v1.3c0,0.4-0.3,0.6-0.6,0.6H9.6c-0.4,0-0.6-0.3-0.6-0.6V12.2z M0.2,5.3l5.1-5.1
		C5.5,0.1,5.6,0,5.8,0C6,0,6.1,0.1,6.2,0.2c0.1,0.1,0.2,0.3,0.2,0.5v14.1c0,0.3-0.3,0.6-0.6,0.6H4.5c-0.4,0-0.6-0.3-0.6-0.6V6
		c0-0.3-0.3-0.4-0.6-0.3L2,7.1C1.9,7.2,1.7,7.3,1.5,7.3c-0.2,0-0.3-0.1-0.5-0.2L0.2,6.2C0.1,6,0,5.9,0,5.7C0,5.6,0.1,5.5,0.2,5.3
		L0.2,5.3z M0.2,5.3"/>
</g>
</svg>
