<?xml version="1.0" encoding="utf-8"?>
<!-- Generator: Adobe Illustrator 22.1.0, SVG Export Plug-In . SVG Version: 6.00 Build 0)  -->
<svg version="1.1" id="Layer_1" xmlns="http://www.w3.org/2000/svg" xmlns:xlink="http://www.w3.org/1999/xlink" x="0px" y="0px"
	 width="23.5px" height="20.4px" viewBox="0 0 23.5 20.4" style="enable-background:new 0 0 23.5 20.4;" xml:space="preserve">
<style type="text/css">
	.st0{fill:#FFFFFF;}
</style>
<g>
	<path class="st0" d="M0.4,9.8l5.4,2l2.1,6.7c0.1,0.4,0.7,0.6,1,0.3l3-2.5c0.3-0.3,0.8-0.3,1.1,0l5.4,3.9c0.4,0.3,0.9,0.1,1-0.4
		l4-19.1c0.1-0.5-0.4-0.9-0.9-0.7L0.4,8.6C-0.1,8.8-0.1,9.6,0.4,9.8z M7.6,10.7l10.6-6.5c0.2-0.1,0.4,0.1,0.2,0.3l-8.7,8.1
		c-0.3,0.3-0.5,0.7-0.6,1.1l-0.3,2.2c0,0.3-0.5,0.3-0.5,0l-1.1-4C7,11.5,7.2,11,7.6,10.7z"/>
</g>
</svg>
