<?xml version="1.0" encoding="utf-8"?>
<!-- Generator: Adobe Illustrator 22.1.0, SVG Export Plug-In . SVG Version: 6.00 Build 0)  -->
<svg version="1.1" id="Layer_1" xmlns="http://www.w3.org/2000/svg" xmlns:xlink="http://www.w3.org/1999/xlink" x="0px" y="0px"
	 width="16.9px" height="17px" viewBox="0 0 16.9 17" style="enable-background:new 0 0 16.9 17;" xml:space="preserve">
<style type="text/css">
	.st0{fill:#6BBE45;}
	.st1{fill:#9BA6B1;}
</style>
<g>
	<polygon fill="#6BBE45" points="7.3,11.6 4.5,8.8 5.2,8.1 7.3,10.2 11.8,5.7 12.4,6.4 	"/>
	<g>
		<path fill="#9BA6B1" d="M8.5,17C3.8,17,0,13.2,0,8.5C0,3.8,3.8,0,8.5,0s8.5,3.8,8.5,8.5C16.9,13.2,13.1,17,8.5,17z M8.5,1
			C4.3,1,1,4.3,1,8.5C1,12.6,4.3,16,8.5,16S16,12.6,16,8.5C16,4.3,12.6,1,8.5,1z"/>
	</g>
</g>
</svg>
