<svg xmlns="http://www.w3.org/2000/svg" width="26.31" height="22.375" viewBox="0 0 26.31 22.375">
  <defs>
    <style>
      .cls-1 {
        fill: #bfc0c0;
        fill-rule: evenodd;
      }
    </style>
  </defs>
  <path id="tool-pattern" class="cls-1" d="M1081.79,442.475a2.327,2.327,0,0,0,1.4-3.006l7.01-3.821a0.425,0.425,0,0,0,.09-0.077,2.692,2.692,0,0,0,2.82.54,2.662,2.662,0,0,0,.44-0.221,0.42,0.42,0,0,0,.07.09l5.8,5.1c0.01,0,.02.007,0.03,0.012a2.237,2.237,0,0,0-.16,2.118,2.633,2.633,0,0,0,3.35,1.272,2.335,2.335,0,0,0,1.37-3.119,2.525,2.525,0,0,0-1.76-1.386c0-.02.01-0.038,0.01-0.059l0.25-10.643a0.069,0.069,0,0,0-.01-0.061,2.54,2.54,0,0,0,.5-0.139,2.335,2.335,0,0,0,1.37-3.119,2.632,2.632,0,0,0-3.35-1.271,2.335,2.335,0,0,0-1.37,3.119c0.01,0.017.02,0.03,0.03,0.047a0.034,0.034,0,0,0-.02.011l-5.83,4.141a1.1,1.1,0,0,0-.08.085,2.663,2.663,0,0,0-1.92-.534,0.3,0.3,0,0,0-.02-0.092l-1.74-4.707a0.062,0.062,0,0,1-.02-0.033,2.29,2.29,0,0,0,1.01-2.943,2.616,2.616,0,0,0-3.34-1.271,2.288,2.288,0,0,0-.66,4l-5.77,11.4v0.028a2.715,2.715,0,0,0-1.48.143,2.327,2.327,0,0,0-1.37,3.119,3.055,3.055,0,0,0,.17.309A2.657,2.657,0,0,0,1081.79,442.475Zm12.69-9.482c-0.01-.017-0.02-0.03-0.03-0.046,0.01-.006.02-0.008,0.03-0.013l5.82-4.14a0.372,0.372,0,0,0,.07-0.08,2.736,2.736,0,0,0,1.04.482,0.108,0.108,0,0,0-.01.055l-0.26,10.643a0.146,0.146,0,0,0,.02.061,2.611,2.611,0,0,0-.5.139,2.23,2.23,0,0,0-.43.222c-0.03-.031-0.04-0.064-0.07-0.09l-5.81-5.1a0.04,0.04,0,0,1-.02-0.012A2.236,2.236,0,0,0,1094.48,432.993Zm-6.41-5.984a2.74,2.74,0,0,0,.93.059c0.01,0.03.01,0.06,0.02,0.089l1.75,4.707c0,0.013.01,0.022,0.01,0.033a2.293,2.293,0,0,0-1.08,2.743c-0.01,0-.02,0-0.03.01l-7.04,3.838c-0.03.016-.05,0.043-0.08,0.063a2.244,2.244,0,0,0-.23-0.175Z" transform="translate(-1078.25 -422.313)"/>
</svg>
