<svg xmlns="http://www.w3.org/2000/svg" width="14.781" height="8.032" viewBox="0 0 14.781 8.032">
  <defs>
    <style>
      .cls-1 {
        fill: #bfc0c0;
        fill-rule: evenodd;
      }
    </style>
  </defs>
  <path class="cls-1" d="M385,409.829a9.282,9.282,0,0,0-3.93-.908h-0.228a9.278,9.278,0,0,0-3.929.908,9.083,9.083,0,0,0-3.108,2.437,1.049,1.049,0,0,0,0,1.334,9.071,9.071,0,0,0,3.108,2.437,9.279,9.279,0,0,0,3.929.909h0.228a9.283,9.283,0,0,0,3.93-.909,9.077,9.077,0,0,0,3.107-2.437,1.047,1.047,0,0,0,0-1.334A9.1,9.1,0,0,0,385,409.829Zm-7.819,5.693a8.489,8.489,0,0,1-2.9-2.276,0.493,0.493,0,0,1,0-.625,8.492,8.492,0,0,1,2.9-2.277,8.838,8.838,0,0,1,.977-0.4,3.9,3.9,0,0,0,0,5.971A8.654,8.654,0,0,1,377.18,415.522Zm3.775,0.849a3.441,3.441,0,1,1,3.589-3.438A3.519,3.519,0,0,1,380.955,416.371Zm6.677-3.125a8.48,8.48,0,0,1-2.9,2.276,8.632,8.632,0,0,1-.976.4,3.9,3.9,0,0,0,0-5.97,8.647,8.647,0,0,1,.977.4,8.483,8.483,0,0,1,2.9,2.277A0.493,0.493,0,0,1,387.632,413.246Zm-6.677-1.654a1.473,1.473,0,1,0,1.536,1.472A1.506,1.506,0,0,0,380.955,411.592Zm0,2.367a0.9,0.9,0,1,1,.934-0.895A0.916,0.916,0,0,1,380.955,413.959Z" transform="translate(-373.594 -408.906)"/>
</svg>
