<svg xmlns="http://www.w3.org/2000/svg" width="17.96" height="23.032" viewBox="0 0 17.96 23.032">
  <defs>
    <style>
      .cls-1 {
        fill: #bfc0c0;
        fill-rule: evenodd;
      }
    </style>
  </defs>
  <path id="tool-lock" class="cls-1" d="M1084.68,770.812a1.271,1.271,0,0,0-1.29,1.246v8.02a3.812,3.812,0,0,0,3.88,3.73h10.18a3.82,3.82,0,0,0,3.89-3.73v-8.02a1.273,1.273,0,0,0-1.3-1.246h-0.35v-3a7.336,7.336,0,0,0-14.66,0,0.671,0.671,0,0,0,1.34,0,6,6,0,0,1,11.98,0v3h-13.67ZM1100,772.1v7.977a2.5,2.5,0,0,1-2.55,2.442h-10.17a2.5,2.5,0,0,1-2.55-2.442V772.1H1100Z" transform="translate(-1083.38 -760.781)"/>
</svg>
