<svg xmlns="http://www.w3.org/2000/svg" width="28.68" height="16.031" viewBox="0 0 28.68 16.031">
  <defs>
    <style>
      .cls-1 {
        fill: #bfc0c0;
        fill-rule: evenodd;
      }
    </style>
  </defs>
  <path id="tool-hide" class="cls-1" d="M1106.37,821.24a17.666,17.666,0,0,0-13.66-6.649c-0.07,0-.37,0-0.44,0a17.666,17.666,0,0,0-13.66,6.649,2.119,2.119,0,0,0,0,2.649,17.524,17.524,0,0,0,13.02,6.607,2.749,2.749,0,0,0,1.72,0,17.524,17.524,0,0,0,13.02-6.607A2.119,2.119,0,0,0,1106.37,821.24Zm-21.21,6.469a16.509,16.509,0,0,1-5.63-4.523,1,1,0,0,1,0-1.242,16.431,16.431,0,0,1,7.53-5.311,7.865,7.865,0,0,0,0,11.863A16.349,16.349,0,0,1,1085.16,827.709Zm5.52,0a1.81,1.81,0,0,1,3.62,0,1.768,1.768,0,0,1-1.15,1.652c-0.22.02-.44,0.033-0.66,0.033s-0.44-.013-0.66-0.033A1.782,1.782,0,0,1,1090.68,827.711Zm4.56,1.128a2.833,2.833,0,0,0,.23-1.128,2.981,2.981,0,0,0-5.96,0,2.833,2.833,0,0,0,.23,1.128,6.837,6.837,0,0,1-4.22-6.274,6.971,6.971,0,0,1,13.94,0A6.837,6.837,0,0,1,1095.24,828.839Zm10.21-5.653a16.509,16.509,0,0,1-5.63,4.523,16.337,16.337,0,0,1-1.9.785,7.863,7.863,0,0,0,0-11.861,16.176,16.176,0,0,1,1.9.787,16.477,16.477,0,0,1,5.63,4.524A1,1,0,0,1,1105.45,823.186Z" transform="translate(-1078.16 -814.594)"/>
</svg>
