<svg xmlns="http://www.w3.org/2000/svg" width="8.937" height="11.968" viewBox="0 0 8.937 11.968">
  <defs>
    <style>
      .cls-1 {
        fill: #bfc0c0;
        fill-rule: evenodd;
      }
    </style>
  </defs>
  <path class="cls-1" d="M377.445,380.021a0.647,0.647,0,0,0-.647.646v4.163a1.94,1.94,0,0,0,1.938,1.936h5.077a1.939,1.939,0,0,0,1.937-1.936v-4.163a0.646,0.646,0,0,0-.646-0.646h-0.176v-1.557a3.655,3.655,0,0,0-7.31,0,0.335,0.335,0,0,0,.669,0,2.986,2.986,0,0,1,5.972,0v1.557h-6.814Zm7.637,0.669v4.14a1.269,1.269,0,0,1-1.269,1.267h-5.075a1.269,1.269,0,0,1-1.268-1.267v-4.14h7.612Zm-3.808,3.838a1.251,1.251,0,1,0-1.251-1.25A1.252,1.252,0,0,0,381.274,384.528Zm0-1.835a0.584,0.584,0,1,1-.582.585A0.583,0.583,0,0,1,381.274,382.693Z" transform="translate(-376.813 -374.813)"/>
</svg>
