<?xml version="1.0" encoding="utf-8"?>
<!-- Generator: Adobe Illustrator 19.0.0, SVG Export Plug-In . SVG Version: 6.00 Build 0)  -->
<svg version="1.1" id="Layer_1" xmlns="http://www.w3.org/2000/svg" xmlns:xlink="http://www.w3.org/1999/xlink" x="0px" y="0px"
	 width="13.9px" height="13.9px" viewBox="0 0 13.9 13.9" style="enable-background:new 0 0 13.9 13.9;" xml:space="preserve">
<style type="text/css">
	.st0{fill:#88BDF3;}
	.st1{fill:#3075EE;}
	.st2{fill:#5795F1;}
	.st3{fill:#205FEC;}
	.st4{fill:#134BEF;}
	.st5{fill:#0932E8;}
	.st6{fill:#164BEA;}
	.st7{fill:#3170F1;}
</style>
<g id="Path-raw_5_">
	<circle id="Oval_5_" class="st0" cx="7" cy="3.2" r="3.2"/>
	<circle id="Oval-Copy_5_" class="st1" cx="7" cy="10.8" r="3.2"/>
	<circle id="Oval-Copy-2_5_" class="st2" cx="10.8" cy="7" r="3.2"/>
	<circle id="Oval-Copy-3_5_" class="st3" cx="3.2" cy="7" r="3.2"/>
	<path id="Combined-Shape_23_" class="st4" d="M6.2,6.2C5.1,5.9,4.2,5,3.9,3.9C5,4.2,5.9,5.1,6.2,6.2z"/>
	<path id="Combined-Shape_22_" class="st5" d="M3.9,10c0.3-1.1,1.2-2,2.3-2.3C5.9,8.9,5,9.8,3.9,10z"/>
	<path id="Combined-Shape_21_" class="st6" d="M7.7,7.7C8.9,8,9.8,8.9,10,10C8.9,9.8,8,8.9,7.7,7.7z"/>
	<path id="Combined-Shape_20_" class="st7" d="M10,3.9C9.8,5,8.9,5.9,7.7,6.2C8,5.1,8.9,4.2,10,3.9z"/>
</g>
</svg>
