<?xml version="1.0" encoding="utf-8"?>
<!-- Generator: Adobe Illustrator 22.1.0, SVG Export Plug-In . SVG Version: 6.00 Build 0)  -->
<svg version="1.1" id="Слой_1" xmlns="http://www.w3.org/2000/svg" xmlns:xlink="http://www.w3.org/1999/xlink" x="0px" y="0px"
	 width="19px" height="19px" viewBox="0 0 19 19" style="enable-background:new 0 0 19 19;" xml:space="preserve">
<style type="text/css">
	.st0{fill:url(#SVGID_1_);}
	.st1{fill:url(#SVGID_2_);}
	.st2{fill:url(#SVGID_3_);}
	.st3{fill:url(#SVGID_4_);}
	.st4{fill:url(#SVGID_5_);}
	.st5{fill:url(#SVGID_6_);}
	.st6{fill:url(#SVGID_7_);}
	.st7{fill:url(#SVGID_8_);}
	.st8{fill:url(#SVGID_9_);}
</style>
<g id="_2228384776272">
	
		<linearGradient id="SVGID_1_" gradientUnits="userSpaceOnUse" x1="10285.1426" y1="3194.3115" x2="10211.4736" y2="3215.1213" gradientTransform="matrix(7.136250e-02 0 0 7.136250e-02 -725.2659 -226.9286)">
		<stop  offset="0" style="stop-color:#06AACF"/>
		<stop  offset="1" style="stop-color:#39D5ED"/>
	</linearGradient>
	<path class="st0" d="M3.1,2.5C4.7,1,6.8,0.1,9,0v1.5c-1.9,0.1-3.6,0.9-4.9,2L3.1,2.5z"/>
	
		<linearGradient id="SVGID_2_" gradientUnits="userSpaceOnUse" x1="10214.7471" y1="3245.1992" x2="10162.9502" y2="3287.9221" gradientTransform="matrix(7.136250e-02 0 0 7.136250e-02 -725.2659 -226.9286)">
		<stop  offset="0" style="stop-color:#06AACF"/>
		<stop  offset="1" style="stop-color:#39D5ED"/>
	</linearGradient>
	<path class="st1" d="M0,9c0.1-2.3,1-4.4,2.5-5.9l1,1c-1.2,1.3-1.9,3-2,4.9H0z"/>
	
		<linearGradient id="SVGID_3_" gradientUnits="userSpaceOnUse" x1="10216.166" y1="3382.1016" x2="10161.5693" y2="3337.0703" gradientTransform="matrix(7.136250e-02 0 0 7.136250e-02 -725.2659 -226.9286)">
		<stop  offset="0" style="stop-color:#06AACF"/>
		<stop  offset="1" style="stop-color:#39D5ED"/>
	</linearGradient>
	<path class="st2" d="M2.5,15.9C1,14.3,0.1,12.2,0,10h1.5c0.1,1.9,0.9,3.6,2,4.9L2.5,15.9z"/>
	
		<linearGradient id="SVGID_4_" gradientUnits="userSpaceOnUse" x1="10283.3457" y1="3431.3479" x2="10213.2725" y2="3411.552" gradientTransform="matrix(7.136250e-02 0 0 7.136250e-02 -725.2659 -226.9286)">
		<stop  offset="0" style="stop-color:#06AACF"/>
		<stop  offset="1" style="stop-color:#39D5ED"/>
	</linearGradient>
	<path class="st3" d="M9,19c-2.3-0.1-4.4-1-5.9-2.5l1-1c1.3,1.2,3,1.9,4.9,2V19z"/>
	
		<linearGradient id="SVGID_5_" gradientUnits="userSpaceOnUse" x1="10366.4434" y1="3391.7849" x2="10319.1055" y2="3449.1799" gradientTransform="matrix(7.136250e-02 0 0 7.136250e-02 -725.2659 -226.9286)">
		<stop  offset="0" style="stop-color:#06AACF"/>
		<stop  offset="1" style="stop-color:#39D5ED"/>
	</linearGradient>
	<path class="st4" d="M15.9,16.5C14.3,18,12.2,18.9,10,19v-1.5c1.9-0.1,3.6-0.9,4.9-2L15.9,16.5z"/>
	
		<linearGradient id="SVGID_6_" gradientUnits="userSpaceOnUse" x1="10414.7852" y1="3325.0891" x2="10394.4766" y2="3396.9614" gradientTransform="matrix(7.136250e-02 0 0 7.136250e-02 -725.2659 -226.9286)">
		<stop  offset="0" style="stop-color:#06AACF"/>
		<stop  offset="1" style="stop-color:#39D5ED"/>
	</linearGradient>
	<path class="st5" d="M19,10c-0.1,2.3-1,4.4-2.5,5.9l-1-1c1.2-1.3,1.9-3,2-4.9H19z"/>
	
		<linearGradient id="SVGID_7_" gradientUnits="userSpaceOnUse" x1="10415.0254" y1="3301.9788" x2="10394.2158" y2="3228.3108" gradientTransform="matrix(7.136250e-02 0 0 7.136250e-02 -725.2659 -226.9286)">
		<stop  offset="0" style="stop-color:#06AACF"/>
		<stop  offset="1" style="stop-color:#39D5ED"/>
	</linearGradient>
	<path class="st6" d="M16.5,3.1C18,4.7,18.9,6.8,19,9h-1.5c-0.1-1.9-0.9-3.6-2-4.9L16.5,3.1z"/>
	
		<linearGradient id="SVGID_8_" gradientUnits="userSpaceOnUse" x1="10361.9023" y1="3228.7664" x2="10323.6309" y2="3182.6304" gradientTransform="matrix(7.136250e-02 0 0 7.136250e-02 -725.2659 -226.9286)">
		<stop  offset="0" style="stop-color:#06AACF"/>
		<stop  offset="1" style="stop-color:#39D5ED"/>
	</linearGradient>
	<path class="st7" d="M10,0c2.3,0.1,4.4,1,5.9,2.5l-1,1c-1.3-1.2-3-1.9-4.9-2V0z"/>
	
		<linearGradient id="SVGID_9_" gradientUnits="userSpaceOnUse" x1="10388.3467" y1="3313.1147" x2="10204.1445" y2="3313.1147" gradientTransform="matrix(7.136250e-02 0 0 7.136250e-02 -725.2659 -226.9286)">
		<stop  offset="0" style="stop-color:#06AACF"/>
		<stop  offset="1" style="stop-color:#39D5ED"/>
	</linearGradient>
	<path class="st8" d="M9.5,2.9c3.6,0,6.6,2.9,6.6,6.6s-2.9,6.6-6.6,6.6s-6.6-2.9-6.6-6.6S5.9,2.9,9.5,2.9z M9.5,3.7
		c3.2,0,5.8,2.6,5.8,5.8c0,3.2-2.6,5.8-5.8,5.8s-5.8-2.6-5.8-5.8C3.7,6.3,6.3,3.7,9.5,3.7z"/>
</g>
</svg>
