<?xml version="1.0" encoding="utf-8"?>
<!-- Generator: Adobe Illustrator 22.1.0, SVG Export Plug-In . SVG Version: 6.00 Build 0)  -->
<svg version="1.1" id="Слой_1" xmlns="http://www.w3.org/2000/svg" xmlns:xlink="http://www.w3.org/1999/xlink" x="0px" y="0px"
	 width="20px" height="19.4px" viewBox="0 0 20 19.4" style="enable-background:new 0 0 20 19.4;" xml:space="preserve">
<g>
	<path style="fill:#709B30;" d="M5,3.8c2.1-1.3,4.4-2.3,6.8-3c1.9-0.5,6.1-1.1,7.9-0.7c-0.8,1-1.7,2-2.5,3c-1.9,2-3.9,4-6.1,5.7
		c-3.2,2.4-6.9,4.4-11,4.9c-0.1-1.5,0-3.1,0.6-4.6C1,7.8,1.8,6.6,2.7,5.6C3.4,4.9,4.1,4.3,5,3.8z"/>
	<path style="fill:#98C455;" d="M19.7,0.2C21.6,9.8,15,22.6,3.2,18.7c-1-0.3-1.8-1-2.5-1.8C5,16.2,8.5,14,11.6,11.3
		C15,8.1,17.3,4.2,19.7,0.2z"/>
</g>
</svg>
