<?xml version="1.0" encoding="utf-8"?>
<!-- Generator: Adobe Illustrator 22.1.0, SVG Export Plug-In . SVG Version: 6.00 Build 0)  -->
<svg version="1.1" id="Слой_1" xmlns="http://www.w3.org/2000/svg" xmlns:xlink="http://www.w3.org/1999/xlink" x="0px" y="0px"
	 width="20px" height="8.9px" viewBox="0 0 20 8.9" style="enable-background:new 0 0 20 8.9;" xml:space="preserve">
<g>
	<path style="fill:#073686;" d="M10.4,0H8.7H7.5L7.4,0.3L6.8,2.1L5.1,7.5H3.6C3.3,7.5,3,7.2,3,6.9v0c0-0.1,0-0.2,0.1-0.2l1.6-4.8
		l0.5-1.5L5.3,0H2.4L1.8,1.8L0.1,6.9C0,7.1,0,7.2,0,7.4c0,0,0,0.1,0,0.1c0,0.8,0.7,1.5,1.6,1.5h0.8h2.3h1.3h1.6L8,7.5l1.8-5.3
		L8.5,2.5l1.4-1.5l0.3-0.4L10.9,0L10.4,0L10.4,0z"/>
	<path style="fill:#073686;" d="M20,1.1C19.8,0.5,19.2,0,18.6,0h-3.4h-0.7h-0.3h-1.5h-0.4h-0.4L12,0.6l0.1,0.4l0.5,1.5l-1.1-0.4
		L9.3,8.9h2.9l0.7-2.2L13.1,6h1.8c0.2,0,1,0,1.4,0c1.3,0,2.1-0.7,2.6-1.5c0.7-1,0.9-2.4,1-2.9C20,1.5,20,1.3,20,1.1z M16.6,3.2
		c-0.4,1.2-1.1,1.3-1.1,1.3h-0.5h-1.3l1-3.1h1.8C17.1,1.5,17,2.1,16.6,3.2z"/>
</g>
</svg>
