<?xml version="1.0" encoding="utf-8"?>
<!-- Generator: Adobe Illustrator 22.1.0, SVG Export Plug-In . SVG Version: 6.00 Build 0)  -->
<svg version="1.1" id="Слой_1" xmlns="http://www.w3.org/2000/svg" xmlns:xlink="http://www.w3.org/1999/xlink" x="0px" y="0px"
	 width="20px" height="11.1px" viewBox="0 0 20 11.1" style="enable-background:new 0 0 20 11.1;" xml:space="preserve">
<g>
	<path style="fill:#44B64D;" d="M14.5,0C17.6,0,20,2.5,20,5.6s-2.5,5.6-5.5,5.6S9,8.6,9,5.6S11.5,0,14.5,0z"/>
	<path style="fill:#121649;" d="M5.6,0c3.1,0,5.6,2.5,5.6,5.6s-2.5,5.6-5.6,5.6S0,8.6,0,5.6S2.6,0,5.6,0z"/>
	<path style="fill:#FFFFFF;" d="M15.9,5l0.6-0.7c-0.4-0.4-1.1-0.7-1.6-0.7c-1.3,0-2.2,0.9-2.2,2.1s0.9,2.1,2.1,2.1
		c0.6,0,1.3-0.3,1.7-0.8l-0.6-0.7c-0.3,0.3-0.7,0.5-1,0.5c-0.6,0-1.1-0.5-1.1-1.2c0-0.6,0.5-1.1,1.1-1.1C15.2,4.4,15.7,4.6,15.9,5z"
		/>
	<path style="fill:#FFFFFF;" d="M7.4,7.7V5.1c0-0.9-0.6-1.4-1.6-1.4C5.1,3.6,4.6,3.8,4,4.1l0.4,0.7c0.4-0.2,0.8-0.4,1.2-0.4
		c0.6,0,0.9,0.3,0.9,0.7v0.1H5.3c-1,0-1.5,0.5-1.5,1.2c0,0.7,0.6,1.3,1.4,1.3c0.6,0,1-0.2,1.3-0.6v0.5L7.4,7.7L7.4,7.7z M5.3,7
		C4.9,7,4.6,6.8,4.6,6.4c0-0.4,0.2-0.5,0.8-0.5h1v0.4C6.3,6.7,5.9,7,5.3,7z"/>
</g>
</svg>
