<?xml version="1.0" encoding="utf-8"?>
<!-- Generator: Adobe Illustrator 22.1.0, SVG Export Plug-In . SVG Version: 6.00 Build 0)  -->
<svg version="1.1" id="Your_design" xmlns="http://www.w3.org/2000/svg" xmlns:xlink="http://www.w3.org/1999/xlink" x="0px"
	 y="0px" width="19px" height="19px" viewBox="0 0 19 19" style="enable-background:new 0 0 19 19;" xml:space="preserve">
<style type="text/css">
	.st0{fill:#F3BA2F;}
</style>
<polygon class="st0" points="5.8,8 9.5,4.3 13.2,8 15.3,5.8 9.5,0 3.7,5.8 "/>
<rect x="0.6" y="8" transform="matrix(0.7071 -0.7071 0.7071 0.7071 -6.0872 4.3001)" class="st0" width="3" height="3"/>
<polygon class="st0" points="5.8,11 9.5,14.7 13.2,11 15.3,13.2 15.3,13.2 9.5,19 3.7,13.2 3.7,13.2 "/>
<rect x="15.3" y="8" transform="matrix(0.7071 -0.7071 0.7071 0.7071 -1.783 14.7002)" class="st0" width="3" height="3"/>
<polygon class="st0" points="11.7,9.5 11.7,9.5 9.5,7.3 7.9,8.9 7.9,8.9 7.7,9.1 7.3,9.5 7.3,9.5 7.3,9.5 7.3,9.5 9.5,11.7 
	11.7,9.5 "/>
</svg>
