<?xml version="1.0" encoding="utf-8"?>
<!-- Generator: Adobe Illustrator 22.1.0, SVG Export Plug-In . SVG Version: 6.00 Build 0)  -->
<svg version="1.1" id="Слой_1" xmlns="http://www.w3.org/2000/svg" xmlns:xlink="http://www.w3.org/1999/xlink" x="0px" y="0px"
	 width="20px" height="19px" viewBox="0 0 20 19" style="enable-background:new 0 0 20 19;" xml:space="preserve">
<style type="text/css">
	.st0{fill:#00ABE7;}
	.st1{fill:#34AEE3;}
	.st2{fill:#56B9E4;}
	.st3{fill:#008DBD;}
	.st4{fill:#08A0CA;}
	.st5{fill:#79CDF1;}
	.st6{fill:#0076A7;}
	.st7{fill:#8ADAFF;}
	.st8{fill:#009DE1;}
	.st9{fill:#00698D;}
	.st10{fill:#005371;}
</style>
<g id="_2228384404800">
	<polygon class="st0" points="18.2,2.3 19,2.1 19.6,2.5 16.5,4.3 17,3.1 	"/>
	<path class="st1" d="M6.3,7.7L6,9.9l-1.4,1.3C3.1,10.3,1.5,9.5,0,8.5l3.5-1.3L6.3,7.7z"/>
	<path class="st2" d="M7.2,4l0,1.9l-1,1.8l2.9-2.1l3.3-0.9l-0.2,1.9l-1.5,1.1L8.6,8.2L6.3,7.7L0,8.5C2.4,7,4.8,5.5,7.2,4z"/>
	<path class="st3" d="M6.3,7.7l4.4,0L9.9,9.9l-1.5,1.4L6.8,9.9L6.3,7.7z M10.7,7.7l2.2,0l1.6,0.9v0l0.6,4l-0.6,3.8l-3-5.3L10.7,7.7z
		"/>
	<polygon class="st2" points="14.5,8.7 15.2,9.7 16.4,11.2 17.7,13.9 16.6,14.1 15.2,12 	"/>
	<path class="st4" d="M14.9,6.3l0.2,1.4l-0.6,1l-3.8-1L13,6.3L14.9,6.3z M14.5,8.7l2.1,5.4l-2.1,2.4L14.5,8.7z"/>
	<polygon class="st2" points="12.9,3.7 15.1,2.6 15.6,4.1 14.9,6.3 13.4,5.2 	"/>
	<path class="st5" d="M15.2,9.7c0.5,0,1,0,1.4,0c0.4,1.4,0.7,2.8,1.1,4.2L15.2,9.7z"/>
	<path class="st5" d="M12.4,4.7l0.5-0.9c0.6,0.8,1.3,1.6,1.9,2.4l0.1,0.1l-4.2,1.4L12.4,4.7L6.9,7.4L6.3,7.7L7.2,4L12.4,4.7z"/>
	<polygon class="st5" points="15.1,2.6 18.2,2.3 14.9,6.3 	"/>
	<polygon class="st5" points="18.2,2.3 20,0 19.6,2.5 	"/>
	<polygon class="st6" points="16.6,14.1 17.5,14.6 14.5,16.5 15.4,14.6 	"/>
	<polygon class="st7" points="14.9,6.3 16.8,9.5 14.5,8.7 	"/>
	<polygon class="st6" points="10.7,7.7 11.1,10.4 10.5,12.2 9.3,12.4 8.5,11.3 9.1,14.4 9,19 4.7,11.2 6.4,10.6 8.5,11.3 	"/>
	<path class="st8" d="M6.3,7.7c0.7,1.2,1.5,2.4,2.2,3.7l-3.8-0.1L6.3,7.7z"/>
	<polygon class="st9" points="10.7,7.7 14.5,16.5 10.5,12.2 	"/>
	<polygon class="st10" points="8.5,11.3 10.5,12.2 9,19 	"/>
</g>
</svg>
