<?xml version="1.0" encoding="utf-8"?>
<!-- Generator: Adobe Illustrator 19.0.0, SVG Export Plug-In . SVG Version: 6.00 Build 0)  -->
<svg version="1.1" id="Layer_1" xmlns="http://www.w3.org/2000/svg" xmlns:xlink="http://www.w3.org/1999/xlink" x="0px" y="0px"
	 width="10.8px" height="10.8px" viewBox="0 0 10.8 10.8" style="enable-background:new 0 0 10.8 10.8;" xml:space="preserve">
<style type="text/css">
	.st0{fill:#0232D2;}
	.st1{fill:#0132D1;}
	.st2{fill:#006EE2;}
	.st3{fill:#BAFDFE;}
	.st4{fill:#0232D1;}
	.st5{fill:#FEFEFE;}
</style>
<g id="_x37_NL8Y3.tif_5_">
	<g id="XMLID_2_">
		<path id="XMLID_12_" class="st0" d="M5,10.8c-0.1-0.1-0.2-0.1-0.4-0.2c-0.1-0.2,0.1-0.3,0.2-0.3c0.8-0.4,1.6-0.8,2.4-1.2
			c0.1-0.1,0.2-0.1,0.4,0c-0.6,0.6-1.1,1.3-2,1.7C5.4,10.8,5.2,10.8,5,10.8z"/>
		<path id="XMLID_11_" class="st1" d="M1.6,7.6C1,7,0.4,6.5,0,5.8c0-0.3,0-0.6,0-0.9c0.1,0,0.1-0.2,0.2-0.3c0.2,0,0.2,0.1,0.3,0.3
			c0.4,0.8,0.8,1.5,1.1,2.3C1.7,7.3,1.8,7.5,1.6,7.6z"/>
		<path id="XMLID_10_" class="st2" d="M1.6,7.6c0.1-0.3-0.1-0.5-0.2-0.7C1,6.1,0.7,5.3,0.2,4.6c0-0.1,0-0.1,0.1-0.2
			c0.1-0.2,0.3-0.4,0.5-0.6c0.7-0.6,1.2-1.3,1.9-1.8c0.2-0.2,0.4-0.3,0.6-0.5C4.1,1.2,5,0.8,5.8,0.3c0.1-0.1,0.3-0.1,0.4-0.1
			c0,0,0.1,0,0.1,0c0.1,0.1,0.2,0.1,0.3,0.2c0.7,0.7,1.5,1.4,2.1,2.3C8.9,2.9,9,3.1,9.2,3.3C9.6,4,10,4.8,10.3,5.6
			c0.1,0.2,0.2,0.4,0.2,0.6c0,0.2-0.1,0.3-0.2,0.5C9.6,7.4,8.8,8.2,8,8.8C7.9,8.9,7.8,9,7.7,9.1c-0.5,0.2-1,0.5-1.5,0.7
			c-0.4,0.2-0.8,0.4-1.2,0.6c-0.1,0.1-0.3,0.1-0.3,0.3c-0.1,0-0.2-0.1-0.2-0.1c-0.2,0-0.4-0.2-0.5-0.4c-0.5-0.6-1-1.1-1.6-1.6
			C2.2,8.4,2.2,8.3,2.1,8.2C1.9,8,1.7,7.8,1.6,7.6z"/>
		<path id="XMLID_9_" class="st3" d="M2.7,2.1C1.9,2.9,1.1,3.7,0.3,4.5C0,3.9,0.4,3.2,0.9,2.9C1.5,2.6,2,2.3,2.7,2.1z"/>
		<path id="XMLID_8_" class="st3" d="M8,8.8c0.7-0.7,1.5-1.4,2.2-2.2c0.1-0.1,0.3-0.2,0.3-0.4c0,0,0-0.1,0.1,0
			c0.1,0.9-0.2,1.6-1.1,1.9C8.9,8.4,8.5,8.6,8,8.8z"/>
		<path id="XMLID_7_" class="st3" d="M8.8,2.7C8,1.9,7.1,1.1,6.3,0.3c0.6-0.2,1.2,0,1.5,0.6C8.2,1.4,8.5,2.1,8.8,2.7z"/>
		<path id="XMLID_6_" class="st0" d="M10.6,6.3C10.5,6.3,10.5,6.3,10.6,6.3c-0.3-0.9-0.9-1.6-1.2-2.5C9.3,3.6,9.1,3.5,9.2,3.3
			c0.4,0.4,0.8,0.8,1.2,1.2C10.9,5,10.9,5.6,10.6,6.3z"/>
		<path id="XMLID_5_" class="st4" d="M6.2,0.3C5.3,0.7,4.4,1.1,3.6,1.5c-0.1,0-0.2,0.2-0.3,0c0.4-0.4,0.8-0.8,1.2-1.2
			C5-0.1,5.6-0.1,6.2,0.3z"/>
		<path id="XMLID_4_" class="st3" d="M2.1,8.2c0.8,0.7,1.6,1.6,2.3,2.4c-0.5,0.2-1.2,0-1.5-0.6C2.6,9.4,2.2,8.8,2.1,8.2z"/>
		<path id="XMLID_3_" class="st5" d="M6.6,4.6C6.5,3.8,6.5,3.8,5.7,3.8c-0.4,0-0.8,0-1.2,0c-0.2,0-0.3,0.1-0.3,0.3
			c0,0.9,0,1.7,0,2.6C4.3,6.9,4.3,7,4.5,7c0.6,0,1.1,0,1.7,0c0.3,0,0.3-0.1,0.3-0.3c0-0.3,0-0.6,0-0.9c-0.1-0.5,0.1-0.8,0.6-1
			c0.3-0.1,0.4-0.2,0.4,0.2c0,0.6,0,1.2,0,1.8c0,0.7-0.3,1-1,1C5.7,8,5,8,4.3,7.9c-0.6,0-0.9-0.3-0.9-1c0-1,0-2.1,0-3.1
			c0-0.6,0.3-1,0.9-1c0.7,0,1.5,0,2.2,0C6.8,2.9,7,3,7.2,3.2C7.6,3.6,7.5,4.1,7,4.3C6.9,4.4,6.7,4.5,6.6,4.6z"/>
	</g>
</g>
</svg>
