<?xml version="1.0" encoding="utf-8"?>
<!-- Generator: Adobe Illustrator 22.1.0, SVG Export Plug-In . SVG Version: 6.00 Build 0)  -->
<svg version="1.1" id="Слой_1" xmlns="http://www.w3.org/2000/svg" xmlns:xlink="http://www.w3.org/1999/xlink" x="0px" y="0px"
	 width="20px" height="9.1px" viewBox="0 0 20 9.1" style="enable-background:new 0 0 20 9.1;" xml:space="preserve">
<g id="_2228484303568">
	<path style="fill:#F6AA17;" d="M8.1,1.7H4.5C3,1.7,1.7,3,1.7,4.5S3,7.3,4.5,7.3h3.6h0.4L7,9.1H4.5C2,9.1,0,7,0,4.5C0,2,2,0,4.5,0H7
		l1.5,1.7H8.1z M10.1,3.7H4.4v1.7h5.7l0.7-0.9L10.1,3.7z"/>
	<path style="fill:#F6AA17;" d="M19.5,0.1H17l-1.8,2.1c0,0-0.1,0.1-0.1,0.1c-0.1,0.1-0.2,0.2-0.4,0.2s-0.3-0.1-0.4-0.2
		c0,0-0.1-0.1-0.1-0.1l-1.8-2.1H10l3.2,3.7l0,0l0,0l0.1,0.1c0.1,0.1,0.1,0.2,0.1,0.3c0,0.1,0,0.2-0.1,0.3c0,0-0.1,0.1-0.1,0.2
		L9.5,8.9H12l2.3-2.7c0,0,0.1-0.1,0.1-0.2C14.5,6,14.6,6,14.8,6C14.9,6,15,6,15.1,6.1l2.4,2.8H20l-3.6-4.2c0,0-0.1-0.1-0.1-0.1
		c-0.1-0.1-0.1-0.2-0.1-0.4c0-0.1,0-0.3,0.1-0.4c0,0,0.1-0.1,0.1-0.1L19.5,0.1z"/>
</g>
</svg>
