<?xml version="1.0" encoding="utf-8"?>
<!-- Generator: Adobe Illustrator 22.1.0, SVG Export Plug-In . SVG Version: 6.00 Build 0)  -->
<svg version="1.1" id="Слой_1" xmlns="http://www.w3.org/2000/svg" xmlns:xlink="http://www.w3.org/1999/xlink" x="0px" y="0px"
	 width="14.3px" height="20px" viewBox="0 0 14.3 20" style="enable-background:new 0 0 14.3 20;" xml:space="preserve">
<g>
	<path style="fill:#004571;" d="M0,0.4C1.1,0.2,4.8,0,6.5,0c2.5,0,4.2,0.4,5.4,1.4c1,0.8,1.7,1.9,1.7,3.5c0,1.9-1.3,3.6-3.3,4.3v0.1
		c1.9,0.4,4.1,2,4.1,4.9c0,1.7-0.7,3-1.7,3.9C11.3,19.4,9.1,20,5.8,20c-1.5,0-4.8-0.1-5.8-0.2V0.4L0,0.4z M2.8,8.5h4
		c2.7,0,4.2-1.4,4.2-3.3c0-2.3-1.7-3.1-4.3-3.1c-1.2,0-3.5,0.1-3.9,0.2V8.5L2.8,8.5z M2.8,17.7c0.5,0.1,2.9,0.1,3.8,0.1
		c2.6,0,5.1-0.8,5.1-3.7c0-2.7-2.3-3.5-5.1-3.5H2.8V17.7z"/>
</g>
</svg>
