<?xml version="1.0" encoding="utf-8"?>
<!-- Generator: Adobe Illustrator 22.1.0, SVG Export Plug-In . SVG Version: 6.00 Build 0)  -->
<svg version="1.1" id="Слой_1" xmlns="http://www.w3.org/2000/svg" xmlns:xlink="http://www.w3.org/1999/xlink" x="0px" y="0px"
	 width="19.2px" height="19px" viewBox="0 0 19.2 19" style="enable-background:new 0 0 19.2 19;" xml:space="preserve">
<style type="text/css">
	.st0{fill:url(#SVGID_1_);}
	.st1{fill:url(#SVGID_2_);}
	.st2{fill:url(#SVGID_3_);}
	.st3{fill:url(#SVGID_4_);}
	.st4{fill:url(#SVGID_5_);}
	.st5{fill:url(#SVGID_6_);}
</style>
<g>
	
		<radialGradient id="SVGID_1_" cx="5.4093" cy="532.6262" r="4.2573" gradientTransform="matrix(1 0 0 -1 0 542)" gradientUnits="userSpaceOnUse">
		<stop  offset="0" style="stop-color:#6A6B70"/>
		<stop  offset="1" style="stop-color:#1F2125"/>
	</radialGradient>
	<polygon class="st0" points="7.7,5.4 8.8,7.4 10,9.4 8.8,11.3 7.7,13.3 5.4,13.3 3.1,13.3 2,11.3 0.9,9.4 2,7.4 3.1,5.4 5.4,5.4 	
		"/>
	
		<radialGradient id="SVGID_2_" cx="13.7826" cy="537.3122" r="4.2581" gradientTransform="matrix(1 0 0 -1 0 542)" gradientUnits="userSpaceOnUse">
		<stop  offset="0" style="stop-color:#6A6B70"/>
		<stop  offset="1" style="stop-color:#1F2125"/>
	</radialGradient>
	<polygon class="st1" points="16.1,0.7 17.2,2.7 18.3,4.7 17.2,6.7 16.1,8.6 13.8,8.6 11.5,8.6 10.4,6.7 9.2,4.7 10.4,2.7 11.5,0.7 
		13.8,0.7 	"/>
	
		<radialGradient id="SVGID_3_" cx="13.7826" cy="527.6843" r="4.2581" gradientTransform="matrix(1 0 0 -1 0 542)" gradientUnits="userSpaceOnUse">
		<stop  offset="0" style="stop-color:#6A6B70"/>
		<stop  offset="1" style="stop-color:#1F2125"/>
	</radialGradient>
	<polygon class="st2" points="16.1,10.4 17.2,12.3 18.3,14.3 17.2,16.3 16.1,18.3 13.8,18.3 11.5,18.3 10.4,16.3 9.2,14.3 
		10.4,12.3 11.5,10.4 13.8,10.4 	"/>
	
		<radialGradient id="SVGID_4_" cx="5.4111" cy="532.4982" r="5.0615" gradientTransform="matrix(1 0 0 -1 0 542)" gradientUnits="userSpaceOnUse">
		<stop  offset="0" style="stop-color:#6A6B70"/>
		<stop  offset="1" style="stop-color:#1F2125"/>
	</radialGradient>
	<path class="st3" d="M8.2,4.9l1.3,2.2l1.3,2.2l0.1,0.1l-0.1,0.1l-1.3,2.2v0l-1.3,2.2l-0.1,0.1H8H5.4l0,0H2.8H2.7l-0.1-0.1l-1.3-2.2
		L0.1,9.6L0,9.5l0.1-0.1l1.3-2.2l0,0l1.3-2.2l0.1-0.1h0.1h2.6l0,0H8L8.2,4.9L8.2,4.9z M9.1,7.4L7.9,5.2H5.4l0,0H2.9L1.7,7.4l0,0
		L0.5,9.5l1.2,2.1l1.2,2.1h2.5l0,0h2.5l1.2-2.1l0,0l1.2-2.1L9.1,7.4z"/>
	
		<radialGradient id="SVGID_5_" cx="13.7826" cy="537.314" r="5.0606" gradientTransform="matrix(1 0 0 -1 0 542)" gradientUnits="userSpaceOnUse">
		<stop  offset="0" style="stop-color:#6A6B70"/>
		<stop  offset="1" style="stop-color:#1F2125"/>
	</radialGradient>
	<path class="st4" d="M16.5,0.1l1.3,2.2l1.3,2.2l0.1,0.1l-0.1,0.1L17.8,7l0,0l-1.3,2.2l-0.1,0.1h-0.1h-2.6l0,0h-2.6h-0.1L11,9.3
		L9.7,7L8.4,4.8L8.4,4.7l0.1-0.1l1.3-2.2l0,0L11,0.1L11.1,0h0.1h2.6l0,0h2.6h0.1L16.5,0.1z M17.5,2.6l-1.2-2.1h-2.5l0,0h-2.5
		l-1.2,2.1l0,0L8.8,4.7l1.2,2.1L11.3,9h2.5l0,0h2.5l1.2-2.1h0l1.2-2.1L17.5,2.6z"/>
	
		<radialGradient id="SVGID_6_" cx="13.7826" cy="527.686" r="5.0606" gradientTransform="matrix(1 0 0 -1 0 542)" gradientUnits="userSpaceOnUse">
		<stop  offset="0" style="stop-color:#6A6B70"/>
		<stop  offset="1" style="stop-color:#1F2125"/>
	</radialGradient>
	<path class="st5" d="M16.5,9.7l1.3,2.2l1.3,2.2l0.1,0.1l-0.1,0.1l-1.3,2.2l0,0l-1.3,2.2L16.5,19h-0.1h-2.6l0,0h-2.6h-0.1L11,18.9
		l-1.3-2.2l-1.3-2.2l-0.1-0.1l0.1-0.1L9.7,12l0,0L11,9.7l0.1-0.1h0.1h2.6l0,0h2.6h0.1L16.5,9.7z M17.5,12.2L16.2,10h-2.5l0,0h-2.5
		l-1.2,2.1l0,0l-1.2,2.1l1.2,2.1l1.2,2.1h2.5l0,0h2.5l1.2-2.1h0l1.2-2.1L17.5,12.2z"/>
</g>
</svg>
