<?xml version="1.0" encoding="utf-8"?>
<!-- Generator: Adobe Illustrator 22.1.0, SVG Export Plug-In . SVG Version: 6.00 Build 0)  -->
<svg version="1.1" id="Слой_1" xmlns="http://www.w3.org/2000/svg" xmlns:xlink="http://www.w3.org/1999/xlink" x="0px" y="0px"
	 width="20px" height="14px" viewBox="0 0 20 14" style="enable-background:new 0 0 20 14;" xml:space="preserve">
<g id="_2228484323792">
	
		<linearGradient id="SVGID_1_" gradientUnits="userSpaceOnUse" x1="10103.4336" y1="3148.8386" x2="10161.0254" y2="3257.2332" gradientTransform="matrix(7.200000e-02 0 0 7.200000e-02 -724.768 -226.928)">
		<stop  offset="0" style="stop-color:#73A2A8"/>
		<stop  offset="1" style="stop-color:#71B5BF"/>
	</linearGradient>
	<polygon style="fill:url(#SVGID_1_);" points="0.2,0 4.3,0 9.1,7 6.8,7.5 4.9,7 	"/>
	
		<linearGradient id="SVGID_2_" gradientUnits="userSpaceOnUse" x1="10100.8379" y1="3349.6572" x2="10157.6797" y2="3244.8608" gradientTransform="matrix(7.200000e-02 0 0 7.200000e-02 -724.768 -226.928)">
		<stop  offset="0" style="stop-color:#699699"/>
		<stop  offset="1" style="stop-color:#73A4A6"/>
	</linearGradient>
	<polygon style="fill:url(#SVGID_2_);" points="0,14 4.1,14 9.1,7 4.9,7 	"/>
	
		<linearGradient id="SVGID_3_" gradientUnits="userSpaceOnUse" x1="10189.0527" y1="3152.8369" x2="10242.7393" y2="3253.4993" gradientTransform="matrix(7.200000e-02 0 0 7.200000e-02 -724.768 -226.928)">
		<stop  offset="0" style="stop-color:#005661"/>
		<stop  offset="1" style="stop-color:#048293"/>
	</linearGradient>
	<polygon style="fill:url(#SVGID_3_);" points="6.2,0 10.3,0 15.1,7 12.8,7.5 10.9,7 	"/>
	
		<linearGradient id="SVGID_4_" gradientUnits="userSpaceOnUse" x1="10300.1475" y1="3230.0186" x2="10300.1475" y2="3151.7778" gradientTransform="matrix(7.200000e-02 0 0 7.200000e-02 -724.768 -226.928)">
		<stop  offset="0" style="stop-color:#676F74"/>
		<stop  offset="1" style="stop-color:#3B444A"/>
	</linearGradient>
	<polygon style="fill:url(#SVGID_4_);" points="15.7,0 19.8,0 16,5.6 13.9,2.5 	"/>
	
		<linearGradient id="SVGID_5_" gradientUnits="userSpaceOnUse" x1="10246.4443" y1="3151.7778" x2="10246.4443" y2="3168.0845" gradientTransform="matrix(7.200000e-02 0 0 7.200000e-02 -724.768 -226.928)">
		<stop  offset="0" style="stop-color:#93989C"/>
		<stop  offset="1" style="stop-color:#AAAFB2"/>
	</linearGradient>
	<polygon style="fill:url(#SVGID_5_);" points="12.2,0 13.8,0 13,1.2 	"/>
	
		<linearGradient id="SVGID_6_" gradientUnits="userSpaceOnUse" x1="10308.501" y1="3336.813" x2="10276.3379" y2="3287.9526" gradientTransform="matrix(7.200000e-02 0 0 7.200000e-02 -724.768 -226.928)">
		<stop  offset="0" style="stop-color:#3B444A"/>
		<stop  offset="1" style="stop-color:#3B444A"/>
	</linearGradient>
	<polygon style="fill:url(#SVGID_6_);" points="15.9,14 20,14 16,8.3 13.9,11.2 	"/>
	
		<linearGradient id="SVGID_7_" gradientUnits="userSpaceOnUse" x1="10246.3926" y1="3345.7593" x2="10246.3926" y2="3325.6719" gradientTransform="matrix(7.200000e-02 0 0 7.200000e-02 -724.768 -226.928)">
		<stop  offset="0" style="stop-color:#858B8F"/>
		<stop  offset="1" style="stop-color:#868D90"/>
	</linearGradient>
	<polygon style="fill:url(#SVGID_7_);" points="11.9,14 14,14 13,12.5 	"/>
	
		<linearGradient id="SVGID_8_" gradientUnits="userSpaceOnUse" x1="10185.9043" y1="3347.1167" x2="10239.7852" y2="3247.4177" gradientTransform="matrix(7.200000e-02 0 0 7.200000e-02 -724.768 -226.928)">
		<stop  offset="0" style="stop-color:#08575C"/>
		<stop  offset="1" style="stop-color:#096166"/>
	</linearGradient>
	<polygon style="fill:url(#SVGID_8_);" points="6,14 10.1,14 15.1,7 10.9,7 	"/>
</g>
</svg>
