<?xml version="1.0" encoding="utf-8"?>
<!-- Generator: Adobe Illustrator 22.1.0, SVG Export Plug-In . SVG Version: 6.00 Build 0)  -->
<svg version="1.1" id="Слой_1" xmlns="http://www.w3.org/2000/svg" xmlns:xlink="http://www.w3.org/1999/xlink" x="0px" y="0px"
	 width="15.1px" height="20px" viewBox="0 0 15.1 20" style="enable-background:new 0 0 15.1 20;" xml:space="preserve">
<g>
	<g id="_2228688062784">
		<path style="fill:#FF0000;" d="M14.4,1.8L14.4,1.8c-0.7-0.5-1.7-0.4-2.2,0.3L7.8,8.1L3.4,2.2C2.9,1.4,1.9,1.3,1.2,1.8l0,0
			C0.5,2.3,0.3,3.4,0.8,4.1l5,6.7l-5,6.7c-0.5,0.7-0.4,1.7,0.3,2.2l0,0c0.7,0.5,1.7,0.4,2.2-0.3l4.4-5.9l4.4,5.9
			c0.5,0.7,1.5,0.9,2.2,0.3l0,0c0.7-0.5,0.9-1.5,0.3-2.2l-5-6.7l5-6.7C15.3,3.4,15.1,2.3,14.4,1.8z"/>
		<path style="fill:#08FE01;" d="M13.9,0.3L13.9,0.3c-0.7-0.5-1.7-0.4-2.2,0.3L7.3,6.6L2.9,0.6C2.3-0.1,1.3-0.2,0.6,0.3l0,0
			c-0.7,0.5-0.9,1.5-0.3,2.2l5,6.7l-5,6.7c-0.5,0.7-0.4,1.7,0.3,2.2l0,0c0.7,0.5,1.7,0.4,2.2-0.3l4.4-5.9l4.4,5.9
			c0.5,0.7,1.5,0.9,2.2,0.3l0,0c0.7-0.5,0.9-1.5,0.3-2.2l-5-6.7l5-6.7C14.8,1.8,14.6,0.8,13.9,0.3z"/>
	</g>
</g>
</svg>
