<?xml version="1.0" encoding="utf-8"?>
<!-- Generator: Adobe Illustrator 22.1.0, SVG Export Plug-In . SVG Version: 6.00 Build 0)  -->
<svg version="1.1" id="Слой_1" xmlns="http://www.w3.org/2000/svg" xmlns:xlink="http://www.w3.org/1999/xlink" x="0px" y="0px"
	 width="20px" height="8.4px" viewBox="0 0 20 8.4" style="enable-background:new 0 0 20 8.4;" xml:space="preserve">
<g>
	<path style="fill:#3B2FD7;" d="M13.4,1l-2.6,7.2l0,0l-0.5-1l-1,0.5l2.6-7.3l1-0.5L13.4,1z M19.9,1.2l-2.6,7.2l-0.5-1l-1,0.5
		l0.1-0.2l2.6-7.2l1-0.5L20,1L19.9,1.2z M14.3,7.4l1.5-4.3l-1,0.5l-0.5-1l-1.5,4.3l0.5,1L14.3,7.4z M6,3.2H1.4L2.2,4L1.4,4.7H6
		L6.8,4L6,3.2z M0.8,6.4h7.4L7.4,7.1l0.8,0.8H0.8L0,7.1L0.8,6.4z M3.1,0.1h7.4L9.7,0.8l0.8,0.8H3.1L2.3,0.8L3.1,0.1z"/>
</g>
</svg>
