<?xml version="1.0" encoding="utf-8"?>
<!-- Generator: Adobe Illustrator 22.1.0, SVG Export Plug-In . SVG Version: 6.00 Build 0)  -->
<svg version="1.1" id="Слой_1" xmlns="http://www.w3.org/2000/svg" xmlns:xlink="http://www.w3.org/1999/xlink" x="0px" y="0px"
	 width="20px" height="20px" viewBox="0 0 20 20" style="enable-background:new 0 0 20 20;" xml:space="preserve">
<g>
	<polygon style="fill:#F0605F;" points="10,20 6.5,15.1 10,17.1 13.5,15.1 	"/>
	<polygon style="fill:#8B717A;" points="0,10 4.9,6.5 2.9,10 4.9,13.5 	"/>
	<polygon style="fill:#8ABEB1;" points="20,10 15.1,6.5 17.1,10 15.1,13.5 	"/>
	<polygon style="fill:#F2B562;" points="10,0 6.5,4.9 10,2.9 13.5,4.9 	"/>
	<polygon style="fill:#8B717A;" points="3.7,10 5.8,6.4 7.3,10 5.8,13.5 	"/>
	<polygon style="fill:#F0605F;" points="10,16.3 6.4,14.2 10,12.7 13.6,14.2 	"/>
	<polygon style="fill:#8ABEB1;" points="16.3,10 14.2,6.4 12.7,10 14.2,13.5 	"/>
	<polygon style="fill:#F2B562;" points="10,3.7 6.4,5.8 10,7.3 13.6,5.8 	"/>
	<polygon style="fill:#F0605F;" points="10,11.9 6.6,13.4 10,8.1 13.4,13.4 	"/>
	<polygon style="fill:#F2B562;" points="10,8.1 6.6,6.6 10,11.9 13.4,6.6 	"/>
	<polygon style="fill:#8B717A;" points="8,10 6.6,6.6 8.8,10 6.6,13.4 	"/>
	<polygon style="fill:#8ABEB1;" points="12,10 13.5,6.6 11.2,10 13.5,13.4 	"/>
</g>
</svg>
