<?xml version="1.0" encoding="utf-8"?>
<!-- Generator: Adobe Illustrator 22.1.0, SVG Export Plug-In . SVG Version: 6.00 Build 0)  -->
<svg version="1.1" id="Слой_1" xmlns="http://www.w3.org/2000/svg" xmlns:xlink="http://www.w3.org/1999/xlink" x="0px" y="0px"
	 width="19px" height="19px" viewBox="0 0 19 19" style="enable-background:new 0 0 19 19;" xml:space="preserve">
<style type="text/css">
	.st0{fill:#DE5959;}
</style>
<path class="st0" d="M7.4,9.3L7.3,9.2c-0.1-0.1-0.3,0-0.3,0.1v2.4c0,0.1,0.1,0.2,0.2,0.2h2.4c0.2,0,0.3-0.2,0.1-0.3
	c-0.1-0.1-0.1-0.2,0-0.3l2.5-2.5c0.1-0.1,0.1-0.2,0-0.3l-0.2-0.2c-0.1-0.1,0-0.3,0.1-0.3h2.4c0.1,0,0.2,0.1,0.2,0.2v2.4
	c0,0.2-0.2,0.3-0.3,0.1l-0.2-0.2c-0.1-0.1-0.2-0.1-0.3,0l-4.2,4.2c-0.1,0.1-0.2,0.1-0.3,0L4.1,9.5c-0.1-0.1-0.1-0.2,0-0.3L11.3,2
	c0.1-0.1,0.1-0.2,0-0.3L9.6,0.1C9.6,0,9.4,0,9.4,0.1L0.1,9.4C0,9.4,0,9.6,0.1,9.6l9.3,9.3c0.1,0.1,0.2,0.1,0.3,0l9.3-9.3
	c0.1-0.1,0.1-0.2,0-0.3l-5.5-5.5c-0.1-0.1-0.2-0.1-0.3,0L7.7,9.3C7.6,9.4,7.5,9.4,7.4,9.3L7.4,9.3z"/>
</svg>
