<?xml version="1.0" encoding="utf-8"?>
<!-- Generator: Adobe Illustrator 22.1.0, SVG Export Plug-In . SVG Version: 6.00 Build 0)  -->
<svg version="1.1" id="Your_design" xmlns="http://www.w3.org/2000/svg" xmlns:xlink="http://www.w3.org/1999/xlink" x="0px"
	 y="0px" width="20px" height="20px" viewBox="0 0 20 20" style="enable-background:new 0 0 20 20;" xml:space="preserve">
<polygon style="fill:#F3BA2F;" points="6.1,8.4 10,4.5 13.9,8.4 16.1,6.1 10,0 3.9,6.1 "/>
<rect x="0.7" y="8.4" transform="matrix(0.7071 -0.7071 0.7071 0.7071 -6.4074 4.5263)" style="fill:#F3BA2F;" width="3.2" height="3.2"/>
<polygon style="fill:#F3BA2F;" points="6.1,11.6 10,15.5 13.9,11.6 16.1,13.9 16.1,13.9 10,20 3.9,13.9 3.9,13.9 "/>
<rect x="16.1" y="8.4" transform="matrix(0.7071 -0.7071 0.7071 0.7071 -1.8767 15.4736)" style="fill:#F3BA2F;" width="3.2" height="3.2"/>
<polygon style="fill:#F3BA2F;" points="12.3,10 12.3,10 10,7.7 8.3,9.4 8.3,9.4 8.1,9.6 7.7,10 7.7,10 7.7,10 7.7,10 10,12.3 
	12.3,10 "/>
</svg>
