<?xml version="1.0" encoding="utf-8"?>
<!-- Generator: Adobe Illustrator 22.1.0, SVG Export Plug-In . SVG Version: 6.00 Build 0)  -->
<svg version="1.1" id="Слой_1" xmlns="http://www.w3.org/2000/svg" xmlns:xlink="http://www.w3.org/1999/xlink" x="0px" y="0px"
	 width="19px" height="19px" viewBox="0 0 19 19" style="enable-background:new 0 0 19 19;" xml:space="preserve">
<style type="text/css">
	.st0{fill:#35ACF0;}
</style>
<path class="st0" d="M17.2,15.3c0.1-0.4,0.4-0.6,0.5-1c1.4-2.4,1.6-5.5,0.7-8.2c-1.1-2.9-3.7-5.2-6.7-5.9c-1.6-0.3-3.4-0.3-5,0.2
	C4.3,1.1,2.3,2.8,1.1,5C0.2,6.5-0.1,8.3,0,10.1c0.1,4.3,3.8,8.3,8.1,8.8c2.3,0.3,4.8-0.1,6.7-1.5c0.2-0.1,0.3-0.2,0.5-0.2
	c0.6,0.5,1,1.1,1.6,1.5c0.4,0.3,0.9,0.4,1.3,0.1c0.4-0.3,0.9-0.7,0.9-1.3c0-0.4-0.3-0.8-0.6-1.1C18,16,17.6,15.6,17.2,15.3z
	 M15.2,13.2c-0.3-0.1-0.5-0.4-0.7-0.6c-1.3-1.3-2.6-2.6-3.9-3.9c-0.4-0.4-0.9-0.5-1.4-0.3C8.7,8.5,8.3,9,8.2,9.5
	c-0.1,0.4,0.2,0.8,0.5,1.1c1.4,1.4,2.8,2.7,4.1,4.1c0.1,0.1,0.3,0.3,0.4,0.4c-1.7,1.2-4,1.4-5.9,0.7c-1.4-0.5-2.7-1.5-3.5-2.8
	c-0.8-1.3-1.2-2.8-1-4.3c0.3-3.3,3.3-6.2,6.7-6c3.2-0.2,6.3,2.5,6.8,5.7C16.4,10,16.1,11.8,15.2,13.2z"/>
</svg>
