<?xml version="1.0" encoding="utf-8"?>
<!-- Generator: Adobe Illustrator 22.1.0, SVG Export Plug-In . SVG Version: 6.00 Build 0)  -->
<svg version="1.1" id="Слой_1" xmlns="http://www.w3.org/2000/svg" xmlns:xlink="http://www.w3.org/1999/xlink" x="0px" y="0px"
	 width="20px" height="20px" viewBox="0 0 20 20" style="enable-background:new 0 0 20 20;" xml:space="preserve">
<g>
	<path style="fill:#06415A;" d="M14.7,18.5H5.3c-1.9,0-3.5-1.6-3.5-3.5V5.5c0-1.9,1.6-3.5,3.5-3.5h9.5c1.9,0,3.5,1.6,3.5,3.5v9.5
		C18.3,16.9,16.7,18.5,14.7,18.5z"/>
	<g>
		<path style="fill:#FFFFFF;" d="M4.2,11.3H3.7v-2h0.9c0.4,0,0.6,0.3,0.6,0.7c0,0.2-0.1,0.7-0.6,0.7H4.2C4.2,10.6,4.2,11.3,4.2,11.3
			z M4.2,10.2h0.4c0.3,0,0.3-0.2,0.3-0.3c0-0.2-0.1-0.3-0.4-0.3H4.2V10.2z"/>
		<path style="fill:#FFFFFF;" d="M6.5,9.3l0.7,2H6.8l-0.1-0.4H5.9l-0.1,0.4H5.3l0.7-2H6.5z M6,10.5h0.5L6.3,9.7h0L6,10.5z"/>
		<path style="fill:#FFFFFF;" d="M7.7,9.3l0.4,0.9l0.4-0.9H9l-0.7,1.3v0.8H7.9v-0.8L7.2,9.3H7.7z"/>
		<path style="fill:#FFFFFF;" d="M9.5,9.3l0.7,1.8h0l0.7-1.8h0.3v2h-0.2V9.5h0l-0.7,1.8h-0.2L9.4,9.5h0v1.8H9.2v-2L9.5,9.3L9.5,9.3z
			"/>
		<path style="fill:#FFFFFF;" d="M11.8,11.3h-0.2v-2h0.2V11.3z"/>
		<path style="fill:#FFFFFF;" d="M12.4,9.3v1.2c0,0.5,0.2,0.7,0.6,0.7c0.4,0,0.6-0.2,0.6-0.7V9.3h0.2v1.3c0,0.5-0.3,0.8-0.8,0.8
			c-0.5,0-0.8-0.3-0.8-0.8V9.3H12.4z"/>
		<path style="fill:#FFFFFF;" d="M14.6,9.3l0.7,1.8h0l0.7-1.8h0.3v2H16V9.5h0l-0.7,1.8h-0.2l-0.7-1.8h0v1.8h-0.2v-2L14.6,9.3
			L14.6,9.3z"/>
	</g>
</g>
</svg>
