<?xml version="1.0" encoding="utf-8"?>
<!-- Generator: Adobe Illustrator 22.1.0, SVG Export Plug-In . SVG Version: 6.00 Build 0)  -->
<svg version="1.1" id="Слой_1" xmlns="http://www.w3.org/2000/svg" xmlns:xlink="http://www.w3.org/1999/xlink" x="0px" y="0px"
	 width="12.4px" height="19px" viewBox="0 0 12.4 19" style="enable-background:new 0 0 12.4 19;" xml:space="preserve">
<style type="text/css">
	.st0{fill:#1C2143;}
	.st1{fill:#2EA7E0;}
</style>
<g>
	<path class="st0" d="M5.7,0c0.3,0.1,0.9,0.8,1,1.1c1.6,2.5,2,5.1,0.3,7.5c-1,1.4-2.3,2.8-2.9,4.4c-0.6,1.6-0.3,3.1,0.4,4.6
		c0.2,0.4,0.4,0.7,0.6,1.1c0,0.1,0.1,0.2,0,0.3C5,19,4.9,19,4.8,19C2,18.4-0.1,15.3,0,12.5C0.1,11.2,0.5,10,1.2,9
		C2,7.8,3.3,6.9,4.1,5.6c0.8-1.1,1.3-2.5,1.4-3.8C5.7,1.2,5.7,0.6,5.7,0z"/>
	<path class="st1" d="M9.8,7.6C9.8,7.6,9.8,7.6,9.8,7.6C9.9,7.6,9.9,7.6,9.8,7.6c0.1,0,0.2,0.1,0.3,0.1c1.9,1.7,2.8,4.3,2,6.7
		c-0.3,0.9-0.8,1.7-1.4,2.4c-0.5,0.6-0.9,0.8-1.6,1.2c-0.3,0.2-0.5,0.3-0.7,0.5c-0.1,0.1-0.2,0.3-0.3,0.4c-0.3-0.1-1.2-1.4-1.4-1.8
		c-0.7-1.4-0.4-2.9,0.3-4.3c0.6-1.3,1.5-2.4,2.2-3.7C9.5,8.7,9.7,8.2,9.8,7.6z"/>
</g>
</svg>
