<?xml version="1.0" encoding="utf-8"?>
<!-- Generator: Adobe Illustrator 22.1.0, SVG Export Plug-In . SVG Version: 6.00 Build 0)  -->
<svg version="1.1" id="Слой_1" xmlns="http://www.w3.org/2000/svg" xmlns:xlink="http://www.w3.org/1999/xlink" x="0px" y="0px"
	 width="19px" height="19px" viewBox="0 0 19 19" style="enable-background:new 0 0 19 19;" xml:space="preserve">
<style type="text/css">
	.st0{fill:url(#SVGID_1_);}
	.st1{fill:url(#SVGID_2_);}
</style>
<g>
	
		<linearGradient id="SVGID_1_" gradientUnits="userSpaceOnUse" x1="0" y1="532.5" x2="19" y2="532.5" gradientTransform="matrix(1 0 0 -1 0 542)">
		<stop  offset="0" style="stop-color:#007AFC"/>
		<stop  offset="1" style="stop-color:#004896"/>
	</linearGradient>
	<path class="st0" d="M9.5,19c-2.5,0-4.9-1-6.7-2.8C1,14.4,0,12,0,9.5s1-4.9,2.8-6.7S7,0,9.5,0s4.9,1,6.7,2.8C18,4.6,19,7,19,9.5
		s-1,4.9-2.8,6.7C14.4,18,12,19,9.5,19z M9.5,2.8c-3.7,0-6.7,3-6.7,6.7s3,6.7,6.7,6.7s6.7-3,6.7-6.7S13.2,2.8,9.5,2.8z"/>
	
		<linearGradient id="SVGID_2_" gradientUnits="userSpaceOnUse" x1="6.1363" y1="532.4982" x2="13.8292" y2="532.4982" gradientTransform="matrix(1 0 0 -1 0 542)">
		<stop  offset="0" style="stop-color:#007AFC"/>
		<stop  offset="1" style="stop-color:#004896"/>
	</linearGradient>
	<path class="st1" d="M6.1,4.8c1.6,0,3.1,0,4.7,0c0.6,0,1.2,0,1.7,0.2c0.2,0.1,0.5,0.3,0.6,0.5c0.2,0.2,0.3,0.5,0.3,0.8
		c0.1,0.5,0.1,1,0,1.6c0,0,0,0,0,0.1c-0.1,0.4-0.2,0.8-0.5,1c-0.2,0.2-0.5,0.3-0.8,0.4c0.2,0.1,0.4,0.1,0.6,0.2
		c0.3,0.1,0.5,0.3,0.7,0.5c0.2,0.4,0.3,0.9,0.3,1.3c0,0.6,0,1.2-0.2,1.7c-0.2,0.4-0.5,0.7-1,0.9c-0.7,0.3-1.5,0.2-2.3,0.2
		c-1.4,0-2.8,0-4.2,0c0-0.8,0-1.5,0-2.3C6.1,9.6,6.1,7.2,6.1,4.8z M7.9,6.4c0,0.1,0,0.2,0,0.2c0,0.7,0,1.4,0,2.2c0.3,0,0.6,0,0.9,0
		c0.5,0,1.1,0,1.6,0c0.3,0,0.6,0,0.9-0.2c0.3-0.1,0.4-0.5,0.4-0.7c0-0.3,0-0.5,0-0.8l0,0c0-0.2-0.1-0.4-0.3-0.6
		c-0.2-0.1-0.5-0.1-0.8-0.1C9.8,6.3,8.9,6.3,7.9,6.4L7.9,6.4C8,6.4,7.9,6.4,7.9,6.4z M12,10.9c0-0.2-0.1-0.4-0.2-0.5
		c-0.1-0.2-0.4-0.3-0.6-0.3c-0.4,0-0.8,0-1.2,0c-0.7,0-1.3,0-2,0c-0.1,0-0.1,0.1-0.1,0.1c0,0.8,0,1.6,0,2.4c0.1,0,0.2,0,0.2,0
		c0.1,0,0.1,0,0.2,0c0.8,0,1.7,0,2.5,0c0.4,0,0.8-0.1,1-0.4C12.1,11.9,12,11.4,12,10.9"/>
</g>
</svg>
