<?xml version="1.0" encoding="utf-8"?>
<!-- Generator: Adobe Illustrator 22.1.0, SVG Export Plug-In . SVG Version: 6.00 Build 0)  -->
<svg version="1.1" id="Слой_1" xmlns="http://www.w3.org/2000/svg" xmlns:xlink="http://www.w3.org/1999/xlink" x="0px" y="0px"
	 width="20px" height="13px" viewBox="0 0 20 13" style="enable-background:new 0 0 20 13;" xml:space="preserve">
<style type="text/css">
	.st0{fill:#00A9D2;}
</style>
<path class="st0" d="M0,0c1,0,2,0,3.1,0C3.9,2.1,5.3,4,5.6,6.2C6,4,7.3,2.1,8.2,0c0.9,0,1.8,0,2.7,0C9.6,2.4,8.4,4.8,7.1,7.2
	C6.9,7.6,6.7,7.9,6.7,8.3c0,1.5,0,2.9,0,4.4c-0.8,0-1.7,0-2.5,0c0-1.6,0.1-3.1-0.1-4.7C2.9,5.4,1.4,2.7,0,0z M14.6,3.6
	c1.5-0.3,3.3-0.1,4.4,1.2c1,1.2,1.2,3,1,4.5c-0.1,1.4-1,2.8-2.4,3.4c-1.7,0.7-4,0.4-5.2-1.1c-1.1-1.5-1.2-3.5-0.8-5.2
	C12,5,13.1,3.8,14.6,3.6z M15.1,5.6c-0.9,0.3-1.2,1.4-1.2,2.2c-0.1,1,0,2.1,0.7,2.8c0.8,0.8,2.3,0.5,2.7-0.5c0.4-1.1,0.4-2.5,0-3.6
	C16.9,5.6,15.9,5.2,15.1,5.6z"/>
</svg>
