<?xml version="1.0" encoding="utf-8"?>
<!-- Generator: Adobe Illustrator 22.1.0, SVG Export Plug-In . SVG Version: 6.00 Build 0)  -->
<svg version="1.1" id="Слой_1" xmlns="http://www.w3.org/2000/svg" xmlns:xlink="http://www.w3.org/1999/xlink" x="0px" y="0px"
	 width="20px" height="10.8px" viewBox="0 0 20 10.8" style="enable-background:new 0 0 20 10.8;" xml:space="preserve">
<path style="fill:#009ADE;" d="M5,0c0.6,0,1.2,0,1.8,0.2c1,0.3,2,0.9,2.7,1.7c0.5,0.5,0.8,1.2,1,1.9c0.4,1.4,0.3,2.9-0.4,4.2
	C9.8,8.6,9.3,9.1,8.8,9.6c-0.6,0.5-1.2,0.8-1.9,1c-0.7,0.2-1.5,0.2-2.2,0.1C3.8,10.6,3,10.3,2.3,9.8C1.5,9.3,0.9,8.5,0.5,7.6
	C-0.1,6.4-0.2,5,0.3,3.7C0.5,2.8,1.1,2,1.7,1.4C2.6,0.6,3.8,0.1,5,0z M5,1.6c-1,0.1-1.9,0.6-2.5,1.3C2.1,3.4,1.8,4,1.6,4.7
	C1.5,5.2,1.5,5.8,1.7,6.4C1.9,7,2.2,7.5,2.6,8C3.2,8.6,4,9.1,4.8,9.2c0.8,0.1,1.6,0,2.3-0.4C7.8,8.5,8.3,8,8.7,7.3
	C9,6.7,9.2,6,9.2,5.3c0-0.9-0.4-1.8-1-2.5c-0.5-0.5-1-0.9-1.7-1.1C6.1,1.6,5.5,1.5,5,1.6z M17.5,0C17.5,0,17.5,0,17.5,0
	c0.8,0,1.5,0,2.2,0c0.1,0,0.1,0.1,0.1,0.1c0,0.7,0,1.4,0,2.1c0,0.1-0.1,0.1-0.2,0.1c-0.1-0.1-0.3-0.3-0.4-0.4c0,0-0.1,0-0.1,0
	C19,1.9,19,2,18.9,2c-0.4,0.4-0.8,0.8-1.2,1.2c-0.5,0.5-1.1,1-1.6,1.6C16.1,4.8,16,4.9,15.9,5c0,0,0,0.1,0,0.2
	c1.3,1.8,2.7,3.5,4,5.3c0,0,0.1,0.1,0.1,0.1c0,0.1-0.1,0.1-0.1,0.1c-0.6,0-1.2,0-1.8,0c0,0-0.1,0-0.1-0.1c-1.1-1.4-2.1-2.8-3.2-4.2
	c0,0-0.1-0.1-0.1-0.1c0,0-0.1,0-0.1,0c-0.4,0.4-0.9,0.9-1.3,1.3c0,0-0.1,0.1-0.1,0.2c0,0.1,0,0.1,0,0.2c0,0.9,0,1.7,0,2.6
	c0,0.1-0.1,0.1-0.1,0.1c-0.5,0-1,0-1.4,0c-0.1,0-0.1-0.1-0.1-0.1c0-3.4,0-6.9,0-10.3c0,0,0-0.1,0-0.2c0,0,0.1-0.1,0.1-0.1
	c0.5,0,1,0,1.4,0c0.1,0,0.1,0.1,0.1,0.1c0,1.7,0,3.3,0,5c0,0.1,0.1,0.1,0.1,0.1c0,0,0.1-0.1,0.1-0.1c0.5-0.5,1-1,1.5-1.5
	c0.6-0.6,1.1-1.1,1.7-1.7c0.4-0.4,0.8-0.8,1.2-1.2c0,0,0.1-0.1,0.1-0.2c0-0.1-0.1-0.1-0.1-0.2c-0.1-0.1-0.2-0.2-0.3-0.3
	C17.4,0.2,17.4,0,17.5,0z M4.4,2.6c0-0.1,0.1-0.1,0.1-0.1c0.2,0,0.3,0,0.5,0c0.1,0,0.1,0,0.1,0.1c0,0.1,0,0.3,0,0.4c0,0,0,0.1,0,0.1
	c0.1,0,0.2,0,0.3,0c0,0,0.1,0,0.1-0.1c0-0.1,0-0.3,0-0.4c0-0.1,0.1-0.1,0.1-0.1c0.2,0,0.3,0,0.5,0c0.1,0,0.1,0,0.1,0.1
	c0,0.2,0,0.3,0,0.5c0,0,0.1,0,0.1,0c0.3,0,0.7,0.1,1,0.4C7.5,3.7,7.6,4,7.6,4.3c0,0.3-0.1,0.5-0.3,0.7C7.1,5.1,7,5.2,6.8,5.2
	c0.3,0.1,0.6,0.2,0.8,0.5C7.8,6,7.8,6.4,7.7,6.6C7.7,6.9,7.5,7.2,7.3,7.3C7,7.6,6.6,7.7,6.3,7.7c0,0-0.1,0-0.1,0c0,0.2,0,0.3,0,0.5
	c0,0.1-0.1,0.1-0.1,0.1c-0.2,0-0.3,0-0.5,0c-0.1,0-0.1,0-0.1-0.1c0-0.1,0-0.3,0-0.4c0,0,0-0.1-0.1-0.1c-0.1,0-0.2,0-0.2,0
	c0,0-0.1,0-0.1,0.1c0,0.1,0,0.3,0,0.4C5.1,8.3,5,8.3,5,8.3c-0.2,0-0.3,0-0.5,0c-0.1,0-0.1,0-0.1-0.1c0-0.1,0-0.3,0-0.4
	c0-0.1-0.1-0.1-0.1-0.1c-0.2,0-0.5,0-0.7,0c-0.1,0-0.1,0-0.1-0.1c0-0.2,0-0.3,0-0.5c0-0.1,0-0.1,0.1-0.1C3.8,7,4,7,4.1,7
	c0,0,0.1-0.1,0.1-0.1c0-1,0-2,0-2.9c0-0.1,0-0.1,0-0.2c0-0.1-0.1-0.1-0.1-0.1c-0.2,0-0.3,0-0.5,0c-0.1,0-0.1-0.1-0.1-0.1
	c0-0.2,0-0.3,0-0.5c0-0.1,0.1-0.1,0.1-0.1c0.2,0,0.5,0,0.7,0c0.1,0,0.1,0,0.1-0.1C4.4,2.8,4.4,2.7,4.4,2.6z M5.2,3.8
	C5.2,3.8,5.2,3.8,5.2,3.8c0,0.4,0,0.8,0,1.2C5.2,5,5.2,5,5.2,5c0.2,0,0.4,0,0.7,0c0.2,0,0.4-0.1,0.5-0.2c0.1-0.1,0.2-0.4,0.2-0.6
	c0-0.1-0.1-0.3-0.2-0.3C6.2,3.8,6,3.8,5.8,3.8C5.6,3.8,5.4,3.8,5.2,3.8L5.2,3.8z M5.2,5.7C5.2,5.7,5.2,5.7,5.2,5.7
	c0,0.5,0,0.9,0,1.3c0,0,0,0.1,0.1,0.1c0.2,0,0.4,0,0.6,0c0.2,0,0.5-0.1,0.7-0.3c0.2-0.2,0.2-0.6,0-0.8C6.4,5.8,6.2,5.7,5.9,5.7
	C5.7,5.7,5.4,5.7,5.2,5.7C5.2,5.7,5.2,5.7,5.2,5.7z"/>
</svg>
