<?xml version="1.0" encoding="utf-8"?>
<!-- Generator: Adobe Illustrator 22.1.0, SVG Export Plug-In . SVG Version: 6.00 Build 0)  -->
<svg version="1.1" id="Слой_1" xmlns="http://www.w3.org/2000/svg" xmlns:xlink="http://www.w3.org/1999/xlink" x="0px" y="0px"
	 width="18.6px" height="19px" viewBox="0 0 18.6 19" style="enable-background:new 0 0 18.6 19;" xml:space="preserve">
<style type="text/css">
	.st0{clip-path:url(#SVGID_2_);}
	.st1{fill:#3F01FD;}
	.st2{fill:#3F02FD;}
	.st3{fill:#4003FD;}
	.st4{fill:#4004FD;}
	.st5{fill:#4005FD;}
	.st6{fill:#4006FD;}
	.st7{fill:#4107FD;}
	.st8{fill:#4108FD;}
	.st9{fill:#4109FD;}
	.st10{fill:#420AFD;}
	.st11{fill:#420BFD;}
	.st12{fill:#420CFD;}
	.st13{fill:#420DFD;}
	.st14{fill:#420EFD;}
	.st15{fill:#430FFD;}
	.st16{fill:#4310FD;}
	.st17{fill:#4311FD;}
	.st18{fill:#4312FD;}
	.st19{fill:#4413FD;}
	.st20{fill:#4414FD;}
	.st21{fill:#4415FD;}
	.st22{fill:#4516FD;}
	.st23{fill:#4517FD;}
	.st24{fill:#4518FD;}
	.st25{fill:#4519FD;}
	.st26{fill:#451AFD;}
	.st27{fill:#461BFD;}
	.st28{fill:#461CFD;}
	.st29{fill:#461DFD;}
	.st30{fill:#461EFD;}
	.st31{fill:#471FFD;}
	.st32{fill:#4720FD;}
	.st33{fill:#4721FD;}
	.st34{fill:#4722FD;}
	.st35{fill:#4823FD;}
	.st36{fill:#4824FD;}
	.st37{fill:#4825FD;}
	.st38{fill:#4826FD;}
	.st39{fill:#4926FD;}
	.st40{fill:#4927FD;}
	.st41{fill:#4928FD;}
	.st42{fill:#4929FD;}
	.st43{fill:#492AFD;}
	.st44{fill:#4A2BFD;}
	.st45{fill:#4A2CFD;}
	.st46{fill:#4A2DFD;}
	.st47{fill:#4A2EFD;}
	.st48{fill:#4B2FFD;}
	.st49{fill:#4B30FD;}
	.st50{fill:#4B31FD;}
	.st51{fill:#4B32FD;}
	.st52{fill:#4C33FD;}
	.st53{fill:#4C34FD;}
	.st54{fill:#4C35FD;}
	.st55{fill:#4C36FD;}
	.st56{fill:#4D37FE;}
	.st57{fill:#4D38FE;}
	.st58{fill:#4D39FE;}
	.st59{fill:#4D3AFE;}
	.st60{fill:#4E3BFE;}
	.st61{fill:#4E3CFE;}
	.st62{fill:#4E3DFE;}
	.st63{fill:#4E3EFE;}
	.st64{fill:#4F3FFE;}
	.st65{fill:#4F40FE;}
	.st66{fill:#4F41FE;}
	.st67{fill:#4F42FE;}
	.st68{fill:#5043FE;}
	.st69{fill:#5044FE;}
	.st70{fill:#5045FE;}
	.st71{fill:#5046FE;}
	.st72{fill:#5147FE;}
	.st73{fill:#5148FE;}
	.st74{fill:#5149FE;}
	.st75{fill:#514AFE;}
	.st76{fill:#524BFE;}
	.st77{fill:#524CFE;}
	.st78{fill:#524DFE;}
	.st79{fill:#524EFE;}
	.st80{fill:#524FFE;}
	.st81{fill:#5350FE;}
	.st82{fill:#5351FE;}
	.st83{fill:#5352FE;}
	.st84{fill:#5453FE;}
	.st85{fill:#5454FE;}
	.st86{fill:#5455FE;}
	.st87{fill:#5456FE;}
	.st88{fill:#5557FE;}
	.st89{fill:#5558FE;}
	.st90{fill:#5559FE;}
	.st91{fill:#555AFE;}
	.st92{fill:#555BFE;}
	.st93{fill:#565BFE;}
	.st94{fill:#565CFE;}
	.st95{fill:#565DFE;}
	.st96{fill:#565EFE;}
	.st97{fill:#575FFE;}
	.st98{fill:#5760FE;}
	.st99{fill:#5761FE;}
	.st100{fill:#5762FE;}
	.st101{fill:#5863FE;}
	.st102{fill:#5864FE;}
	.st103{fill:#5865FE;}
	.st104{fill:#5866FE;}
	.st105{fill:#5867FE;}
	.st106{fill:#5967FE;}
	.st107{fill:#5968FE;}
	.st108{fill:#5969FE;}
	.st109{fill:#596AFE;}
	.st110{fill:#596BFE;}
	.st111{fill:#5A6CFE;}
	.st112{fill:#5A6DFE;}
	.st113{fill:#5A6EFE;}
	.st114{fill:#5B6FFE;}
	.st115{fill:#5B70FE;}
	.st116{fill:#5B71FE;}
	.st117{fill:#5B72FE;}
	.st118{fill:#5B73FE;}
	.st119{fill:#5C73FE;}
	.st120{fill:#5C74FE;}
	.st121{fill:#5C75FE;}
	.st122{fill:#5C76FE;}
	.st123{fill:#5C77FE;}
	.st124{fill:#5D78FE;}
	.st125{fill:#5D79FE;}
	.st126{fill:#5D7AFE;}
	.st127{fill:#5D7BFE;}
	.st128{fill:#5E7CFE;}
	.st129{fill:#5E7DFE;}
	.st130{fill:#5E7EFE;}
	.st131{fill:#5E7FFE;}
	.st132{fill:#5F7FFE;}
	.st133{fill:#5F80FE;}
	.st134{fill:#5F81FE;}
	.st135{fill:#5F82FE;}
	.st136{fill:#5F83FE;}
	.st137{fill:#6084FE;}
	.st138{fill:#6085FE;}
	.st139{fill:#6086FE;}
	.st140{fill:#6087FE;}
	.st141{fill:#6188FE;}
	.st142{fill:#6189FE;}
	.st143{fill:#618AFE;}
	.st144{fill:#628BFE;}
	.st145{fill:#628CFE;}
	.st146{fill:#628DFE;}
	.st147{fill:#628EFE;}
	.st148{fill:#628FFE;}
	.st149{fill:#6390FE;}
	.st150{fill:#6391FE;}
	.st151{fill:#6392FE;}
	.st152{fill:#6393FE;}
	.st153{fill:#6494FE;}
	.st154{fill:#6495FE;}
	.st155{fill:#6496FE;}
	.st156{fill:#6497FE;}
	.st157{fill:#6598FE;}
	.st158{fill:#6599FE;}
	.st159{fill:#659AFE;}
	.st160{fill:#659BFE;}
	.st161{fill:#669CFE;}
	.st162{fill:#669DFE;}
	.st163{fill:#669EFE;}
	.st164{fill:#669FFE;}
	.st165{fill:#67A0FE;}
	.st166{fill:#67A1FE;}
	.st167{fill:#67A2FE;}
	.st168{fill:#67A3FE;}
	.st169{fill:#68A4FF;}
	.st170{fill:#68A5FF;}
	.st171{fill:#68A6FF;}
	.st172{fill:#68A7FF;}
	.st173{fill:#69A8FF;}
	.st174{fill:#69A9FF;}
	.st175{fill:#69AAFF;}
	.st176{fill:#69ABFF;}
	.st177{fill:#6AACFF;}
	.st178{fill:#6AADFF;}
	.st179{fill:#6AAEFF;}
	.st180{fill:#6AAFFF;}
	.st181{fill:#6BB0FF;}
	.st182{fill:#6BB1FF;}
	.st183{fill:#6BB2FF;}
	.st184{fill:#6BB3FF;}
	.st185{fill:#6BB4FF;}
	.st186{fill:#6CB4FF;}
	.st187{fill:#6CB5FF;}
	.st188{fill:#6CB6FF;}
	.st189{fill:#6CB7FF;}
	.st190{fill:#6DB8FF;}
	.st191{fill:#6DB9FF;}
	.st192{fill:#6DBAFF;}
	.st193{fill:#6DBBFF;}
	.st194{fill:#6EBCFF;}
	.st195{fill:#6EBDFF;}
	.st196{fill:#6EBEFF;}
	.st197{fill:#6EBFFF;}
	.st198{fill:#6FC0FF;}
	.st199{fill:#6FC1FF;}
	.st200{fill:#6FC2FF;}
	.st201{fill:#6FC3FF;}
	.st202{fill:#6FC4FF;}
	.st203{fill:#70C5FF;}
	.st204{fill:#70C6FF;}
	.st205{fill:#70C7FF;}
	.st206{fill:#71C8FF;}
	.st207{fill:#71C9FF;}
	.st208{fill:#71CAFF;}
	.st209{fill:#71CBFF;}
	.st210{fill:#72CCFF;}
	.st211{fill:#72CDFF;}
	.st212{fill:#72CEFF;}
	.st213{fill:#72CFFF;}
	.st214{fill:#72D0FF;}
	.st215{fill:#73D1FF;}
	.st216{fill:#73D2FF;}
	.st217{fill:#73D3FF;}
	.st218{fill:#74D4FF;}
	.st219{fill:#74D5FF;}
	.st220{fill:#74D6FF;}
	.st221{fill:#74D7FF;}
	.st222{fill:#75D8FF;}
	.st223{fill:#75D9FF;}
	.st224{fill:#75DAFF;}
	.st225{fill:#3F00FD;}
</style>
<g>
	<g>
		<g>
			<defs>
				<path id="SVGID_1_" d="M7.9,0.1c2.2-0.4,4.6,0,6.5,1.2c1.9,1.1,3.4,3,4.1,5.1c-0.4,0.5-0.7,1-1.1,1.5c-0.4,0.5-0.7,1-1.1,1.5
					c0.7,1,1.5,2,2.2,3c-1,3.2-3.9,5.7-7.2,6.3c-2.3,0.5-4.7,0.1-6.7-1.1c-2-1.2-3.5-3.1-4.2-5.2c0-0.1-0.1-0.2-0.1-0.2
					C0,10.9-0.1,9.6,0.1,8.3c0-0.1,0-0.2,0-0.3c0.4-2.2,1.6-4.4,3.3-5.8c0.9-0.8,2-1.3,3.1-1.7C7,0.3,7.4,0.2,7.9,0.1z M7.2,4.6
					c-1.4,0.7-2.6,2-3,3.5h0c0,0.1-0.1,0.2-0.1,0.3C3.9,9.7,4.1,11,4.7,12.1c0.1,0.1,0.2,0.3,0.2,0.4h0c1.1,1.7,3.1,2.6,5.1,2.4
					c1.6-0.1,3.1-1.1,4-2.4h0c0.7-1,1.5-2,2.2-3c-0.3-0.5-0.7-1-1-1.4h0c-0.8-1.1-1.6-2.4-2.8-3.1C10.9,3.9,8.9,3.8,7.2,4.6z"/>
			</defs>
			<clipPath id="SVGID_2_">
				<use xlink:href="#SVGID_1_"  style="overflow:visible;"/>
			</clipPath>
			<g class="st0">
				<polygon class="st1" points="9.4,9.5 23,9.9 23,10.4 				"/>
				<polygon id="_x31_" class="st2" points="9.4,9.5 23,10.3 23,10.7 				"/>
				<polygon id="_x32_" class="st3" points="9.4,9.5 23,10.6 23,11 				"/>
				<polygon id="_x33_" class="st3" points="9.4,9.5 23,11 22.9,11.4 				"/>
				<polygon id="_x34_" class="st4" points="9.4,9.5 23,11.3 22.9,11.7 				"/>
				<polygon id="_x35_" class="st5" points="9.4,9.5 22.9,11.6 22.8,12 				"/>
				<polygon id="_x36_" class="st6" points="9.4,9.5 22.9,11.9 22.8,12.3 				"/>
				<polygon id="_x37_" class="st7" points="9.4,9.5 22.8,12.3 22.7,12.7 				"/>
				<polygon id="_x38_" class="st8" points="9.4,9.5 22.7,12.6 22.6,13 				"/>
				<polygon id="_x39_" class="st9" points="9.4,9.5 22.6,12.9 22.5,13.3 				"/>
				<polygon id="_x31_0" class="st9" points="9.4,9.5 22.6,13.2 22.5,13.6 				"/>
				<polygon id="_x31_1" class="st10" points="9.4,9.5 22.5,13.5 22.3,13.9 				"/>
				<polygon id="_x31_2" class="st11" points="9.4,9.5 22.4,13.9 22.2,14.3 				"/>
				<polygon id="_x31_3" class="st12" points="9.4,9.5 22.3,14.2 22.1,14.6 				"/>
				<polygon id="_x31_4" class="st13" points="9.4,9.5 22.2,14.5 22,14.9 				"/>
				<polygon id="_x31_5" class="st14" points="9.4,9.5 22,14.8 21.9,15.2 				"/>
				<polygon id="_x31_6" class="st15" points="9.4,9.5 21.9,15.1 21.7,15.5 				"/>
				<polygon id="_x31_7" class="st15" points="9.4,9.5 21.8,15.4 21.6,15.8 				"/>
				<polygon id="_x31_8" class="st16" points="9.4,9.5 21.6,15.7 21.4,16.1 				"/>
				<polygon id="_x31_9" class="st17" points="9.4,9.5 21.5,16 21.3,16.4 				"/>
				<polygon id="_x32_0" class="st18" points="9.4,9.5 21.3,16.3 21.1,16.6 				"/>
				<polygon id="_x32_1" class="st19" points="9.4,9.5 21.1,16.6 20.9,16.9 				"/>
				<polygon id="_x32_2" class="st20" points="9.4,9.5 21,16.8 20.7,17.2 				"/>
				<polygon id="_x32_3" class="st21" points="9.4,9.5 20.8,17.1 20.5,17.5 				"/>
				<polygon id="_x32_4" class="st21" points="9.4,9.5 20.6,17.4 20.3,17.7 				"/>
				<polygon id="_x32_5" class="st22" points="9.4,9.5 20.4,17.7 20.1,18 				"/>
				<polygon id="_x32_6" class="st23" points="9.4,9.5 20.2,17.9 19.9,18.2 				"/>
				<polygon id="_x32_7" class="st24" points="9.4,9.5 20,18.2 19.7,18.5 				"/>
				<polygon id="_x32_8" class="st25" points="9.4,9.5 19.8,18.4 19.5,18.7 				"/>
				<polygon id="_x32_9" class="st26" points="9.4,9.5 19.5,18.7 19.3,19 				"/>
				<polygon id="_x33_0" class="st27" points="9.4,9.5 19.3,18.9 19,19.2 				"/>
				<polygon id="_x33_1" class="st27" points="9.4,9.5 19.1,19.2 18.8,19.4 				"/>
				<polygon id="_x33_2" class="st28" points="9.4,9.5 18.8,19.4 18.5,19.7 				"/>
				<polygon id="_x33_3" class="st29" points="9.4,9.5 18.6,19.6 18.3,19.9 				"/>
				<polygon id="_x33_4" class="st30" points="9.4,9.5 18.3,19.8 18,20.1 				"/>
				<polygon id="_x33_5" class="st31" points="9.4,9.5 18.1,20 17.8,20.3 				"/>
				<polygon id="_x33_6" class="st32" points="9.4,9.5 17.8,20.3 17.5,20.5 				"/>
				<polygon id="_x33_7" class="st32" points="9.4,9.5 17.6,20.4 17.2,20.7 				"/>
				<polygon id="_x33_8" class="st33" points="9.4,9.5 17.3,20.6 16.9,20.9 				"/>
				<polygon id="_x33_9" class="st34" points="9.4,9.5 17,20.8 16.7,21 				"/>
				<polygon id="_x34_0" class="st35" points="9.4,9.5 16.7,21 16.4,21.2 				"/>
				<polygon id="_x34_1" class="st36" points="9.4,9.5 16.4,21.2 16.1,21.4 				"/>
				<polygon id="_x34_2" class="st37" points="9.4,9.5 16.2,21.3 15.8,21.5 				"/>
				<polygon id="_x34_3" class="st38" points="9.4,9.5 15.9,21.5 15.5,21.7 				"/>
				<polygon id="_x34_4" class="st39" points="9.4,9.5 15.6,21.7 15.2,21.8 				"/>
				<polygon id="_x34_5" class="st40" points="9.4,9.5 15.3,21.8 14.9,22 				"/>
				<polygon id="_x34_6" class="st41" points="9.4,9.5 15,21.9 14.6,22.1 				"/>
				<polygon id="_x34_7" class="st42" points="9.4,9.5 14.7,22.1 14.3,22.2 				"/>
				<polygon id="_x34_8" class="st43" points="9.4,9.5 14.3,22.2 13.9,22.3 				"/>
				<polygon id="_x34_9" class="st44" points="9.4,9.5 14,22.3 13.6,22.4 				"/>
				<polygon id="_x35_0" class="st45" points="9.4,9.5 13.7,22.4 13.3,22.5 				"/>
				<polygon id="_x35_1" class="st45" points="9.4,9.5 13.4,22.5 13,22.6 				"/>
				<polygon id="_x35_2" class="st46" points="9.4,9.5 13.1,22.6 12.7,22.7 				"/>
				<polygon id="_x35_3" class="st47" points="9.4,9.5 12.7,22.7 12.3,22.8 				"/>
				<polygon id="_x35_4" class="st48" points="9.4,9.5 12.4,22.7 12,22.8 				"/>
				<polygon id="_x35_5" class="st49" points="9.4,9.5 12.1,22.8 11.7,22.9 				"/>
				<polygon id="_x35_6" class="st50" points="9.4,9.5 11.8,22.9 11.3,22.9 				"/>
				<polygon id="_x35_7" class="st51" points="9.4,9.5 11.4,22.9 11,23 				"/>
				<polygon id="_x35_8" class="st51" points="9.4,9.5 11.1,22.9 10.7,23 				"/>
				<polygon id="_x35_9" class="st52" points="9.4,9.5 10.8,23 10.3,23 				"/>
				<polygon id="_x36_0" class="st53" points="9.4,9.5 10.4,23 10,23 				"/>
				<polygon id="_x36_1" class="st54" points="9.4,9.5 10.1,23 9.7,23 				"/>
				<polygon id="_x36_2" class="st55" points="9.4,9.5 9.8,23 9.3,23 				"/>
				<polygon id="_x36_3" class="st56" points="9.4,9.5 9.4,23 9,23 				"/>
				<polygon id="_x36_4" class="st57" points="9.4,9.5 9.1,23 8.7,23 				"/>
				<polygon id="_x36_5" class="st57" points="9.4,9.5 8.7,23 8.3,23 				"/>
				<polygon id="_x36_6" class="st58" points="9.4,9.5 8.4,23 8,23 				"/>
				<polygon id="_x36_7" class="st59" points="9.4,9.5 8.1,23 7.7,22.9 				"/>
				<polygon id="_x36_8" class="st60" points="9.4,9.5 7.7,22.9 7.3,22.9 				"/>
				<polygon id="_x36_9" class="st61" points="9.4,9.5 7.4,22.9 7,22.8 				"/>
				<polygon id="_x37_0" class="st62" points="9.4,9.5 7.1,22.8 6.7,22.7 				"/>
				<polygon id="_x37_1" class="st63" points="9.4,9.5 6.8,22.8 6.3,22.7 				"/>
				<polygon id="_x37_2" class="st63" points="9.4,9.5 6.4,22.7 6,22.6 				"/>
				<polygon id="_x37_3" class="st64" points="9.4,9.5 6.1,22.6 5.7,22.5 				"/>
				<polygon id="_x37_4" class="st65" points="9.4,9.5 5.8,22.5 5.4,22.4 				"/>
				<polygon id="_x37_5" class="st66" points="9.4,9.5 5.4,22.4 5,22.3 				"/>
				<polygon id="_x37_6" class="st67" points="9.4,9.5 5.1,22.3 4.7,22.2 				"/>
				<polygon id="_x37_7" class="st68" points="9.4,9.5 4.8,22.2 4.4,22.1 				"/>
				<polygon id="_x37_8" class="st69" points="9.4,9.5 4.5,22.1 4.1,21.9 				"/>
				<polygon id="_x37_9" class="st69" points="9.4,9.5 4.2,22 3.8,21.8 				"/>
				<polygon id="_x38_0" class="st70" points="9.4,9.5 3.9,21.8 3.5,21.7 				"/>
				<polygon id="_x38_1" class="st71" points="9.4,9.5 3.6,21.7 3.2,21.5 				"/>
				<polygon id="_x38_2" class="st72" points="9.4,9.5 3.3,21.5 2.9,21.3 				"/>
				<polygon id="_x38_3" class="st73" points="9.4,9.5 3,21.4 2.6,21.2 				"/>
				<polygon id="_x38_4" class="st74" points="9.4,9.5 2.7,21.2 2.3,21 				"/>
				<polygon id="_x38_5" class="st75" points="9.4,9.5 2.4,21 2,20.8 				"/>
				<polygon id="_x38_6" class="st75" points="9.4,9.5 2.1,20.9 1.7,20.6 				"/>
				<polygon id="_x38_7" class="st76" points="9.4,9.5 1.8,20.7 1.5,20.5 				"/>
				<polygon id="_x38_8" class="st77" points="9.4,9.5 1.5,20.5 1.2,20.3 				"/>
				<polygon id="_x38_9" class="st78" points="9.4,9.5 1.3,20.3 0.9,20 				"/>
				<polygon id="_x39_0" class="st79" points="9.4,9.5 1,20.1 0.7,19.8 				"/>
				<polygon id="_x39_1" class="st80" points="9.4,9.5 0.7,19.9 0.4,19.6 				"/>
				<polygon id="_x39_2" class="st81" points="9.4,9.5 0.5,19.7 0.2,19.4 				"/>
				<polygon id="_x39_3" class="st81" points="9.4,9.5 0.2,19.4 -0.1,19.2 				"/>
				<polygon id="_x39_4" class="st82" points="9.4,9.5 0,19.2 -0.3,18.9 				"/>
				<polygon id="_x39_5" class="st83" points="9.4,9.5 -0.3,19 -0.6,18.7 				"/>
				<polygon id="_x39_6" class="st84" points="9.4,9.5 -0.5,18.7 -0.8,18.4 				"/>
				<polygon id="_x39_7" class="st85" points="9.4,9.5 -0.7,18.5 -1,18.2 				"/>
				<polygon id="_x39_8" class="st86" points="9.4,9.5 -1,18.2 -1.2,17.9 				"/>
				<polygon id="_x39_9" class="st86" points="9.4,9.5 -1.2,18 -1.4,17.7 				"/>
				<polygon id="_x31_00" class="st87" points="9.4,9.5 -1.4,17.7 -1.6,17.4 				"/>
				<polygon id="_x31_01" class="st88" points="9.4,9.5 -1.6,17.5 -1.8,17.1 				"/>
				<polygon id="_x31_02" class="st89" points="9.4,9.5 -1.8,17.2 -2,16.8 				"/>
				<polygon id="_x31_03" class="st90" points="9.4,9.5 -2,16.9 -2.2,16.6 				"/>
				<polygon id="_x31_04" class="st91" points="9.4,9.5 -2.2,16.6 -2.4,16.3 				"/>
				<polygon id="_x31_05" class="st92" points="9.4,9.5 -2.3,16.4 -2.5,16 				"/>
				<polygon id="_x31_06" class="st93" points="9.4,9.5 -2.5,16.1 -2.7,15.7 				"/>
				<polygon id="_x31_07" class="st94" points="9.4,9.5 -2.7,15.8 -2.9,15.4 				"/>
				<polygon id="_x31_08" class="st95" points="9.4,9.5 -2.8,15.5 -3,15.1 				"/>
				<polygon id="_x31_09" class="st96" points="9.4,9.5 -3,15.2 -3.2,14.8 				"/>
				<polygon id="_x31_10" class="st97" points="9.4,9.5 -3.1,14.9 -3.3,14.5 				"/>
				<polygon id="_x31_11" class="st98" points="9.4,9.5 -3.2,14.6 -3.4,14.2 				"/>
				<polygon id="_x31_12" class="st99" points="9.4,9.5 -3.4,14.3 -3.5,13.9 				"/>
				<polygon id="_x31_13" class="st99" points="9.4,9.5 -3.5,13.9 -3.6,13.6 				"/>
				<polygon id="_x31_14" class="st100" points="9.4,9.5 -3.6,13.6 -3.7,13.2 				"/>
				<polygon id="_x31_15" class="st101" points="9.4,9.5 -3.7,13.3 -3.8,12.9 				"/>
				<polygon id="_x31_16" class="st102" points="9.4,9.5 -3.8,13 -3.9,12.6 				"/>
				<polygon id="_x31_17" class="st103" points="9.4,9.5 -3.9,12.7 -4,12.3 				"/>
				<polygon id="_x31_18" class="st104" points="9.4,9.5 -4,12.3 -4.1,11.9 				"/>
				<polygon id="_x31_19" class="st105" points="9.4,9.5 -4,12 -4.1,11.6 				"/>
				<polygon id="_x31_20" class="st106" points="9.4,9.5 -4.1,11.7 -4.2,11.3 				"/>
				<polygon id="_x31_21" class="st107" points="9.4,9.5 -4.2,11.4 -4.2,11 				"/>
				<polygon id="_x31_22" class="st108" points="9.4,9.5 -4.2,11 -4.2,10.6 				"/>
				<polygon id="_x31_23" class="st109" points="9.4,9.5 -4.2,10.7 -4.3,10.3 				"/>
				<polygon id="_x31_24" class="st110" points="9.4,9.5 -4.3,10.4 -4.3,10 				"/>
				<polygon id="_x31_25" class="st111" points="9.4,9.5 -4.3,10 -4.3,9.6 				"/>
				<polygon id="_x31_26" class="st112" points="9.4,9.5 -4.3,9.7 -4.3,9.3 				"/>
				<polygon id="_x31_27" class="st112" points="9.4,9.5 -4.3,9.4 -4.3,9 				"/>
				<polygon id="_x31_28" class="st113" points="9.4,9.5 -4.3,9 -4.3,8.6 				"/>
				<polygon id="_x31_29" class="st114" points="9.4,9.5 -4.3,8.7 -4.3,8.3 				"/>
				<polygon id="_x31_30" class="st115" points="9.4,9.5 -4.3,8.4 -4.2,8 				"/>
				<polygon id="_x31_31" class="st116" points="9.4,9.5 -4.2,8.1 -4.2,7.6 				"/>
				<polygon id="_x31_32" class="st117" points="9.4,9.5 -4.2,7.7 -4.2,7.3 				"/>
				<polygon id="_x31_33" class="st118" points="9.4,9.5 -4.2,7.4 -4.1,7 				"/>
				<polygon id="_x31_34" class="st119" points="9.4,9.5 -4.1,7.1 -4,6.7 				"/>
				<polygon id="_x31_35" class="st120" points="9.4,9.5 -4.1,6.7 -4,6.3 				"/>
				<polygon id="_x31_36" class="st121" points="9.4,9.5 -4,6.4 -3.9,6 				"/>
				<polygon id="_x31_37" class="st122" points="9.4,9.5 -3.9,6.1 -3.8,5.7 				"/>
				<polygon id="_x31_38" class="st123" points="9.4,9.5 -3.8,5.8 -3.7,5.4 				"/>
				<polygon id="_x31_39" class="st124" points="9.4,9.5 -3.7,5.5 -3.6,5.1 				"/>
				<polygon id="_x31_40" class="st125" points="9.4,9.5 -3.6,5.1 -3.5,4.7 				"/>
				<polygon id="_x31_41" class="st125" points="9.4,9.5 -3.5,4.8 -3.4,4.4 				"/>
				<polygon id="_x31_42" class="st126" points="9.4,9.5 -3.4,4.5 -3.3,4.1 				"/>
				<polygon id="_x31_43" class="st127" points="9.4,9.5 -3.3,4.2 -3.1,3.8 				"/>
				<polygon id="_x31_44" class="st128" points="9.4,9.5 -3.2,3.9 -3,3.5 				"/>
				<polygon id="_x31_45" class="st129" points="9.4,9.5 -3,3.6 -2.8,3.2 				"/>
				<polygon id="_x31_46" class="st130" points="9.4,9.5 -2.9,3.3 -2.7,2.9 				"/>
				<polygon id="_x31_47" class="st131" points="9.4,9.5 -2.7,3 -2.5,2.6 				"/>
				<polygon id="_x31_48" class="st132" points="9.4,9.5 -2.6,2.7 -2.3,2.4 				"/>
				<polygon id="_x31_49" class="st133" points="9.4,9.5 -2.4,2.4 -2.2,2.1 				"/>
				<polygon id="_x31_50" class="st134" points="9.4,9.5 -2.2,2.2 -2,1.8 				"/>
				<polygon id="_x31_51" class="st135" points="9.4,9.5 -2,1.9 -1.8,1.5 				"/>
				<polygon id="_x31_52" class="st136" points="9.4,9.5 -1.8,1.6 -1.6,1.3 				"/>
				<polygon id="_x31_53" class="st137" points="9.4,9.5 -1.6,1.3 -1.4,1 				"/>
				<polygon id="_x31_54" class="st138" points="9.4,9.5 -1.4,1.1 -1.2,0.7 				"/>
				<polygon id="_x31_55" class="st138" points="9.4,9.5 -1.2,0.8 -1,0.5 				"/>
				<polygon id="_x31_56" class="st139" points="9.4,9.5 -1,0.6 -0.7,0.3 				"/>
				<polygon id="_x31_57" class="st140" points="9.4,9.5 -0.8,0.3 -0.5,0 				"/>
				<polygon id="_x31_58" class="st141" points="9.4,9.5 -0.6,0.1 -0.3,-0.2 				"/>
				<polygon id="_x31_59" class="st142" points="9.4,9.5 -0.3,-0.2 0,-0.5 				"/>
				<polygon id="_x31_60" class="st143" points="9.4,9.5 -0.1,-0.4 0.2,-0.7 				"/>
				<polygon id="_x31_61" class="st143" points="9.4,9.5 0.1,-0.6 0.5,-0.9 				"/>
				<polygon id="_x31_62" class="st144" points="9.4,9.5 0.4,-0.8 0.7,-1.1 				"/>
				<polygon id="_x31_63" class="st145" points="9.4,9.5 0.7,-1 1,-1.3 				"/>
				<polygon id="_x31_64" class="st146" points="9.4,9.5 0.9,-1.3 1.2,-1.5 				"/>
				<polygon id="_x31_65" class="st147" points="9.4,9.5 1.2,-1.4 1.5,-1.7 				"/>
				<polygon id="_x31_66" class="st148" points="9.4,9.5 1.5,-1.6 1.8,-1.9 				"/>
				<polygon id="_x31_67" class="st149" points="9.4,9.5 1.7,-1.8 2.1,-2 				"/>
				<polygon id="_x31_68" class="st149" points="9.4,9.5 2,-2 2.4,-2.2 				"/>
				<polygon id="_x31_69" class="st150" points="9.4,9.5 2.3,-2.2 2.7,-2.4 				"/>
				<polygon id="_x31_70" class="st151" points="9.4,9.5 2.6,-2.3 3,-2.5 				"/>
				<polygon id="_x31_71" class="st152" points="9.4,9.5 2.9,-2.5 3.2,-2.7 				"/>
				<polygon id="_x31_72" class="st153" points="9.4,9.5 3.2,-2.7 3.5,-2.8 				"/>
				<polygon id="_x31_73" class="st154" points="9.4,9.5 3.5,-2.8 3.9,-3 				"/>
				<polygon id="_x31_74" class="st155" points="9.4,9.5 3.8,-2.9 4.2,-3.1 				"/>
				<polygon id="_x31_75" class="st155" points="9.4,9.5 4.1,-3.1 4.5,-3.2 				"/>
				<polygon id="_x31_76" class="st156" points="9.4,9.5 4.4,-3.2 4.8,-3.3 				"/>
				<polygon id="_x31_77" class="st157" points="9.4,9.5 4.7,-3.3 5.1,-3.4 				"/>
				<polygon id="_x31_78" class="st158" points="9.4,9.5 5,-3.4 5.4,-3.5 				"/>
				<polygon id="_x31_79" class="st159" points="9.4,9.5 5.3,-3.5 5.8,-3.6 				"/>
				<polygon id="_x31_80" class="st160" points="9.4,9.5 5.7,-3.6 6.1,-3.7 				"/>
				<polygon id="_x31_81" class="st161" points="9.4,9.5 6,-3.7 6.4,-3.8 				"/>
				<polygon id="_x31_82" class="st161" points="9.4,9.5 6.3,-3.7 6.7,-3.8 				"/>
				<polygon id="_x31_83" class="st162" points="9.4,9.5 6.6,-3.8 7.1,-3.9 				"/>
				<polygon id="_x31_84" class="st163" points="9.4,9.5 7,-3.9 7.4,-3.9 				"/>
				<polygon id="_x31_85" class="st164" points="9.4,9.5 7.3,-3.9 7.7,-4 				"/>
				<polygon id="_x31_86" class="st165" points="9.4,9.5 7.6,-4 8.1,-4 				"/>
				<polygon id="_x31_87" class="st166" points="9.4,9.5 8,-4 8.4,-4 				"/>
				<polygon id="_x31_88" class="st167" points="9.4,9.5 8.3,-4 8.7,-4 				"/>
				<polygon id="_x31_89" class="st167" points="9.4,9.5 8.6,-4 9.1,-4 				"/>
				<polygon id="_x31_90" class="st168" points="9.4,9.5 9,-4 9.4,-4 				"/>
				<polygon id="_x31_91" class="st169" points="9.4,9.5 9.3,-4 9.7,-4 				"/>
				<polygon id="_x31_92" class="st170" points="9.4,9.5 9.6,-4 10.1,-4 				"/>
				<polygon id="_x31_93" class="st171" points="9.4,9.5 10,-4 10.4,-4 				"/>
				<polygon id="_x31_94" class="st172" points="9.4,9.5 10.3,-4 10.7,-4 				"/>
				<polygon id="_x31_95" class="st173" points="9.4,9.5 10.7,-4 11.1,-3.9 				"/>
				<polygon id="_x31_96" class="st173" points="9.4,9.5 11,-3.9 11.4,-3.9 				"/>
				<polygon id="_x31_97" class="st174" points="9.4,9.5 11.3,-3.9 11.7,-3.8 				"/>
				<polygon id="_x31_98" class="st175" points="9.4,9.5 11.7,-3.8 12.1,-3.7 				"/>
				<polygon id="_x31_99" class="st176" points="9.4,9.5 12,-3.8 12.4,-3.7 				"/>
				<polygon id="_x32_00" class="st177" points="9.4,9.5 12.3,-3.7 12.7,-3.6 				"/>
				<polygon id="_x32_01" class="st178" points="9.4,9.5 12.6,-3.6 13,-3.5 				"/>
				<polygon id="_x32_02" class="st179" points="9.4,9.5 13,-3.5 13.4,-3.4 				"/>
				<polygon id="_x32_03" class="st179" points="9.4,9.5 13.3,-3.4 13.7,-3.3 				"/>
				<polygon id="_x32_04" class="st180" points="9.4,9.5 13.6,-3.3 14,-3.2 				"/>
				<polygon id="_x32_05" class="st181" points="9.4,9.5 13.9,-3.2 14.3,-3.1 				"/>
				<polygon id="_x32_06" class="st182" points="9.4,9.5 14.2,-3.1 14.6,-2.9 				"/>
				<polygon id="_x32_07" class="st183" points="9.4,9.5 14.6,-3 14.9,-2.8 				"/>
				<polygon id="_x32_08" class="st184" points="9.4,9.5 14.9,-2.8 15.2,-2.7 				"/>
				<polygon id="_x32_09" class="st185" points="9.4,9.5 15.2,-2.7 15.6,-2.5 				"/>
				<polygon id="_x32_10" class="st186" points="9.4,9.5 15.5,-2.5 15.8,-2.3 				"/>
				<polygon id="_x32_11" class="st187" points="9.4,9.5 15.8,-2.4 16.1,-2.2 				"/>
				<polygon id="_x32_12" class="st188" points="9.4,9.5 16.1,-2.2 16.4,-2 				"/>
				<polygon id="_x32_13" class="st189" points="9.4,9.5 16.4,-2 16.7,-1.8 				"/>
				<polygon id="_x32_14" class="st190" points="9.4,9.5 16.6,-1.9 17,-1.6 				"/>
				<polygon id="_x32_15" class="st191" points="9.4,9.5 16.9,-1.7 17.3,-1.4 				"/>
				<polygon id="_x32_16" class="st192" points="9.4,9.5 17.2,-1.5 17.5,-1.3 				"/>
				<polygon id="_x32_17" class="st192" points="9.4,9.5 17.5,-1.3 17.8,-1 				"/>
				<polygon id="_x32_18" class="st193" points="9.4,9.5 17.7,-1.1 18.1,-0.8 				"/>
				<polygon id="_x32_19" class="st194" points="9.4,9.5 18,-0.9 18.3,-0.6 				"/>
				<polygon id="_x32_20" class="st195" points="9.4,9.5 18.3,-0.7 18.6,-0.4 				"/>
				<polygon id="_x32_21" class="st196" points="9.4,9.5 18.5,-0.5 18.8,-0.2 				"/>
				<polygon id="_x32_22" class="st197" points="9.4,9.5 18.8,-0.2 19.1,0.1 				"/>
				<polygon id="_x32_23" class="st197" points="9.4,9.5 19,0 19.3,0.3 				"/>
				<polygon id="_x32_24" class="st198" points="9.4,9.5 19.2,0.3 19.5,0.6 				"/>
				<polygon id="_x32_25" class="st199" points="9.4,9.5 19.5,0.5 19.7,0.8 				"/>
				<polygon id="_x32_26" class="st200" points="9.4,9.5 19.7,0.7 20,1.1 				"/>
				<polygon id="_x32_27" class="st201" points="9.4,9.5 19.9,1 20.2,1.3 				"/>
				<polygon id="_x32_28" class="st202" points="9.4,9.5 20.1,1.3 20.4,1.6 				"/>
				<polygon id="_x32_29" class="st203" points="9.4,9.5 20.3,1.5 20.6,1.9 				"/>
				<polygon id="_x32_30" class="st203" points="9.4,9.5 20.5,1.8 20.8,2.2 				"/>
				<polygon id="_x32_31" class="st204" points="9.4,9.5 20.7,2.1 20.9,2.4 				"/>
				<polygon id="_x32_32" class="st205" points="9.4,9.5 20.9,2.4 21.1,2.7 				"/>
				<polygon id="_x32_33" class="st206" points="9.4,9.5 21.1,2.6 21.3,3 				"/>
				<polygon id="_x32_34" class="st207" points="9.4,9.5 21.2,2.9 21.4,3.3 				"/>
				<polygon id="_x32_35" class="st208" points="9.4,9.5 21.4,3.2 21.6,3.6 				"/>
				<polygon id="_x32_36" class="st209" points="9.4,9.5 21.6,3.5 21.7,3.9 				"/>
				<polygon id="_x32_37" class="st209" points="9.4,9.5 21.7,3.8 21.9,4.2 				"/>
				<polygon id="_x32_38" class="st210" points="9.4,9.5 21.9,4.1 22,4.5 				"/>
				<polygon id="_x32_39" class="st211" points="9.4,9.5 22,4.4 22.1,4.8 				"/>
				<polygon id="_x32_40" class="st212" points="9.4,9.5 22.1,4.7 22.3,5.1 				"/>
				<polygon id="_x32_41" class="st213" points="9.4,9.5 22.2,5.1 22.4,5.5 				"/>
				<polygon id="_x32_42" class="st214" points="9.4,9.5 22.3,5.4 22.5,5.8 				"/>
				<polygon id="_x32_43" class="st215" points="9.4,9.5 22.4,5.7 22.6,6.1 				"/>
				<polygon id="_x32_44" class="st215" points="9.4,9.5 22.5,6 22.6,6.4 				"/>
				<polygon id="_x32_45" class="st216" points="9.4,9.5 22.6,6.3 22.7,6.7 				"/>
				<polygon id="_x32_46" class="st217" points="9.4,9.5 22.7,6.7 22.8,7.1 				"/>
				<polygon id="_x32_47" class="st218" points="9.4,9.5 22.8,7 22.9,7.4 				"/>
				<polygon id="_x32_48" class="st219" points="9.4,9.5 22.8,7.3 22.9,7.7 				"/>
				<polygon id="_x32_49" class="st220" points="9.4,9.5 22.9,7.6 23,8 				"/>
				<polygon id="_x32_50" class="st221" points="9.4,9.5 22.9,8 23,8.4 				"/>
				<polygon id="_x32_51" class="st221" points="9.4,9.5 23,8.3 23,8.7 				"/>
				<polygon id="_x32_52" class="st222" points="9.4,9.5 23,8.6 23,9 				"/>
				<polygon id="_x32_53" class="st223" points="9.4,9.5 23,9 23,9.4 				"/>
				<polygon id="_x32_54" class="st224" points="9.4,9.5 23,9.3 23,9.7 				"/>
				<polygon id="_x32_55" class="st225" points="9.4,9.5 23,9.6 23,10 				"/>
			</g>
		</g>
	</g>
</g>
</svg>
