<?xml version="1.0" encoding="utf-8"?>
<!-- Generator: Adobe Illustrator 22.1.0, SVG Export Plug-In . SVG Version: 6.00 Build 0)  -->
<svg version="1.1" id="Слой_1" xmlns="http://www.w3.org/2000/svg" xmlns:xlink="http://www.w3.org/1999/xlink" x="0px" y="0px"
	 width="20px" height="15.7px" viewBox="0 0 20 15.7" style="enable-background:new 0 0 20 15.7;" xml:space="preserve">
<path style="fill:#4F6E89;" d="M9.4,0c1.9-0.1,3.8,0.3,5.5,1.2c2.2,1.2,4,3.3,4.7,5.8c0.2,0.6,0.3,1.3,0.4,1.9c0.1,0.7,0,1.4,0.1,2
	c0,1.1,0,2.3,0,3.4c0,0.7-0.7,1.4-1.4,1.3c-0.7,0-1.4-0.6-1.4-1.4c0-1.4,0-2.8,0-4.3c0-0.4-0.2-0.8-0.5-1.1c-0.4-0.4-1-0.5-1.5-0.3
	c-0.5,0.2-0.9,0.7-0.9,1.3c0,1.3,0,2.6,0,4c0,0.2,0,0.5,0,0.7c-0.1,0.4-0.4,0.8-0.8,0.9c-0.3,0.1-0.6,0.1-0.9,0.1
	c-0.6-0.1-1.1-0.7-1.1-1.3c0-1.3,0-2.7,0-4c0-0.2,0-0.4,0-0.6c-0.1-0.4-0.4-0.8-0.8-1c-0.4-0.2-0.9-0.2-1.4,0C8.9,9,8.6,9.5,8.6,10
	c0,1.3,0,2.6,0,4c0,0.2,0,0.5-0.1,0.7c-0.1,0.4-0.5,0.8-0.9,1c-0.5,0.2-1.1,0.1-1.5-0.3c-0.3-0.3-0.4-0.6-0.4-1c0-1.4,0-2.9,0-4.3
	c0-0.4-0.2-0.8-0.5-1.1C4.9,8.6,4.4,8.5,4,8.6C3.4,8.7,2.9,9.3,2.9,10c0,1.3,0,2.6,0,4c0,0.3,0,0.5-0.1,0.8
	c-0.1,0.4-0.4,0.8-0.8,0.9c-0.5,0.2-1.2,0.1-1.6-0.3C0.1,15,0,14.6,0,14.3c0-1.4,0-2.9,0-4.3c0-1.7,0.5-3.4,1.3-4.9
	c0.8-1.4,1.9-2.6,3.2-3.4C5.9,0.7,7.6,0.1,9.4,0z"/>
</svg>
