<?xml version="1.0" encoding="utf-8"?>
<!-- Generator: Adobe Illustrator 22.1.0, SVG Export Plug-In . SVG Version: 6.00 Build 0)  -->
<svg version="1.1" id="Слой_1" xmlns="http://www.w3.org/2000/svg" xmlns:xlink="http://www.w3.org/1999/xlink" x="0px" y="0px"
	 width="17px" height="20px" viewBox="0 0 17 20" style="enable-background:new 0 0 17 20;" xml:space="preserve">
<g id="z0X8bv4.eps">
	<path style="fill:#52C7E0;" d="M1.5,1.6c1.7-1.2,3.9-1.7,6-1.6c2.3,0.1,4.5,1,6.2,2.6c1.8,1.6,3,3.9,3.2,6.2c0.3,2.1-0.2,4.2-1.2,6
		c-0.8,1.5-2.1,2.8-3.6,3.7c-1.4,0.8-3,1.3-4.6,1.4C4.8,20.2,2,19.1,0,17.1c0.3-0.4,0.7-0.7,1-1.1c1.4,1.5,3.4,2.4,5.5,2.5
		c1.7,0.1,3.5-0.3,5-1.3c1.7-1,3-2.7,3.6-4.6c0.6-1.7,0.6-3.6,0-5.3c-0.8-2.3-2.6-4.2-4.8-5.2C7.7,1.1,4.7,1.4,2.4,2.9
		C2.1,2.5,1.8,2.1,1.5,1.6z M7,3.9c0.4,0,0.8,0,1.2,0c0,0.3,0,0.7,0,1c1.4,0.2,2.8,1,3.6,2.2c-0.4,0.2-0.7,0.5-1.1,0.8
		c-0.5-0.8-1.4-1.3-2.3-1.5C7.2,6.1,6,6.4,5.1,7.2C4.3,7.9,3.9,9,3.9,10c0,1.1,0.5,2.1,1.3,2.8c0.8,0.8,2.1,1.1,3.2,0.9
		c0.8-0.1,1.6-0.6,2.2-1.2c0.4,0.3,0.7,0.6,1,0.9c-0.8,1-2,1.6-3.3,1.7c0,0.3,0,0.7,0,1c-0.4,0-0.8,0-1.2,0c0-0.3,0-0.7,0-1
		c-1.2-0.2-2.4-0.8-3.2-1.7C3,12.5,2.5,11.2,2.5,10c0-1.6,0.8-3.3,2.2-4.2C5.4,5.3,6.2,5,7,4.9C7,4.6,7,4.3,7,3.9z"/>
</g>
</svg>
