<?xml version="1.0" encoding="utf-8"?>
<!-- Generator: Adobe Illustrator 22.1.0, SVG Export Plug-In . SVG Version: 6.00 Build 0)  -->
<svg version="1.1" id="Слой_1" xmlns="http://www.w3.org/2000/svg" xmlns:xlink="http://www.w3.org/1999/xlink" x="0px" y="0px"
	 width="14px" height="20px" viewBox="0 0 14 20" style="enable-background:new 0 0 14 20;" xml:space="preserve">
<g>
	<path style="fill:#4C4F54;" d="M8.6,2c0.9-0.7,1.7-1.3,2.6-2c0,2.8,0,5.7,0,8.5c0.9,0,1.9,0,2.8,0c0,0.7,0,1.4,0,2.1
		c-0.9,0-1.9,0-2.8,0c0,1.6,0,3.2,0,4.8c0,0.5,0,1,0.2,1.5c0.1,0.3,0.4,0.6,0.7,0.7c0.6,0.2,1.3,0.1,1.9,0.1c0,0.7,0,1.5,0,2.2h-1.7
		c-1-0.1-2-0.2-2.7-1c-0.8-0.8-1-2.1-1-3.2c0-1.7,0-3.5,0-5.2c-0.7,0-1.5,0-2.2,0c0-0.7,0-1.4,0-2.1c0.7,0,1.5,0,2.2,0
		C8.6,6.3,8.6,4.2,8.6,2z"/>
	<path style="fill:#4C4F54;" d="M0,8.5c1.6,0,3.2,0.1,4.8,0c0,3.1,0,6.2,0,9.2c0.7,0,1.5,0,2.2,0c0,0.7,0,1.5,0,2.2H0v-2.2
		c0.7,0,1.5,0,2.2,0c0-2.4,0-4.7,0-7.1c-0.7,0-1.5,0-2.2,0c0-0.6,0-1.2,0-1.8C0.1,8.7,0,8.6,0,8.5C0,8.5,0,8.5,0,8.5z"/>
	<path style="fill:#FDBA12;" d="M2.6,1.5c0.9-0.3,2,0.3,2.2,1.2c0.3,1-0.5,2.1-1.6,2.1C2.3,5,1.5,4.2,1.4,3.4
		C1.3,2.6,1.8,1.7,2.6,1.5z"/>
</g>
</svg>
