<?xml version="1.0" encoding="utf-8"?>
<!-- Generator: Adobe Illustrator 22.1.0, SVG Export Plug-In . SVG Version: 6.00 Build 0)  -->
<svg version="1.1" id="Слой_1" xmlns="http://www.w3.org/2000/svg" xmlns:xlink="http://www.w3.org/1999/xlink" x="0px" y="0px"
	 width="19px" height="19px" viewBox="0 0 19 19" style="enable-background:new 0 0 19 19;" xml:space="preserve">
<style type="text/css">
	.st0{fill:#36BBC8;}
</style>
<g id="cex-logo.eps">
	<path class="st0" d="M9.2,0H19c0,0.8,0,1.6,0,2.4c-2.9,0-5.7,0-8.6,0c-0.3,0-0.7,0-1,0C8.3,2.4,7.1,2.7,6,3.3
		C4.8,4,3.7,5.1,3.1,6.4c-0.6,1.2-0.8,2.5-0.7,3.8c0.1,1.2,0.6,2.4,1.3,3.4c0.6,0.8,1.4,1.5,2.3,2.1c1.1,0.6,2.4,1,3.7,0.9
		c3.1,0,6.3,0,9.4,0c0,0.8,0,1.6,0,2.4H8.8c-1.3-0.1-2.7-0.5-3.9-1.1C3.3,17,2,15.6,1.1,14C0.4,12.8,0.1,11.3,0,9.9V9.1
		c0.1-1.5,0.5-2.9,1.2-4.2c0.9-1.6,2.3-3,3.9-3.8C6.3,0.4,7.7,0.1,9.2,0z M8.8,4.2c0.2,0,0.4,0,0.7-0.1c1,0,2.1,0,3.1,0
		c0.2,0.2,0.4,0.4,0.6,0.6c0.6,0.6,1.2,1.2,1.8,1.8c-1.5,0-3,0-4.5,0c-0.4,0-0.7,0-1.1,0C8.6,6.6,7.9,6.9,7.4,7.4
		C6.9,8,6.6,8.7,6.5,9.4c0,0.6,0.1,1.2,0.5,1.7c0.4,0.6,1,1,1.6,1.2c0.3,0.1,0.7,0.1,1,0.1c1.7,0,3.4,0,5.1,0
		c-0.8,0.8-1.6,1.6-2.4,2.4c-1,0-2.1,0-3.1,0c-0.9,0-1.9-0.3-2.7-0.8c-1-0.6-1.8-1.6-2.2-2.6c-0.4-1-0.5-2.2-0.2-3.2
		c0.3-1.1,0.9-2.1,1.8-2.9C6.9,4.7,7.8,4.3,8.8,4.2z M14.9,4.2c1.4,0,2.8,0,4.1,0c0,0.8,0,1.6,0,2.4c-0.6,0-1.2,0-1.7,0
		C17,6.3,16.8,6,16.5,5.8C16,5.3,15.4,4.7,14.9,4.2z M8.5,8.9c0.2-0.4,0.6-0.6,1-0.6c2.4,0,4.8,0,7.1,0c0.4,0.4,0.8,0.8,1.2,1.2
		c-0.4,0.4-0.8,0.8-1.2,1.2c-2.3,0-4.6,0-6.9,0c-0.1,0-0.3,0-0.4,0c-0.3,0-0.7-0.3-0.8-0.6C8.2,9.8,8.2,9.3,8.5,8.9z M14.8,14.9
		c0.8-0.8,1.6-1.6,2.4-2.4c0.6,0,1.2,0,1.8,0c0,0.8,0,1.6,0,2.4C17.6,14.9,16.2,14.9,14.8,14.9z"/>
</g>
</svg>
