<?xml version="1.0" encoding="utf-8"?>
<!-- Generator: Adobe Illustrator 22.1.0, SVG Export Plug-In . SVG Version: 6.00 Build 0)  -->
<svg version="1.1" id="Слой_1" xmlns="http://www.w3.org/2000/svg" xmlns:xlink="http://www.w3.org/1999/xlink" x="0px" y="0px"
	 width="20px" height="14px" viewBox="0 0 20 14" style="enable-background:new 0 0 20 14;" xml:space="preserve">
<style type="text/css">
	.st0{fill:url(#SVGID_1_);}
	.st1{fill:url(#SVGID_2_);}
	.st2{fill:url(#SVGID_3_);}
	.st3{fill:url(#SVGID_4_);}
	.st4{fill:url(#SVGID_5_);}
	.st5{fill:url(#SVGID_6_);}
	.st6{fill:url(#SVGID_7_);}
	.st7{fill:url(#SVGID_8_);}
</style>
<g id="_2228484323792">
	
		<linearGradient id="SVGID_1_" gradientUnits="userSpaceOnUse" x1="5244.3223" y1="3327.5054" x2="5301.9136" y2="3435.8997" gradientTransform="matrix(7.200000e-02 0 0 7.200000e-02 -374.912 -239.792)">
		<stop  offset="0" style="stop-color:#73A2A8"/>
		<stop  offset="1" style="stop-color:#71B5BF"/>
	</linearGradient>
	<polygon class="st0" points="0.2,0 4.3,0 9.1,7 6.8,7.5 4.9,7 	"/>
	
		<linearGradient id="SVGID_2_" gradientUnits="userSpaceOnUse" x1="5241.7261" y1="3528.324" x2="5298.5684" y2="3423.5273" gradientTransform="matrix(7.200000e-02 0 0 7.200000e-02 -374.912 -239.792)">
		<stop  offset="0" style="stop-color:#699699"/>
		<stop  offset="1" style="stop-color:#73A4A6"/>
	</linearGradient>
	<polygon class="st1" points="0,14 4.1,14 9.1,7 4.9,7 	"/>
	
		<linearGradient id="SVGID_3_" gradientUnits="userSpaceOnUse" x1="5329.9414" y1="3331.5037" x2="5383.6279" y2="3432.1658" gradientTransform="matrix(7.200000e-02 0 0 7.200000e-02 -374.912 -239.792)">
		<stop  offset="0" style="stop-color:#005661"/>
		<stop  offset="1" style="stop-color:#048293"/>
	</linearGradient>
	<polygon class="st2" points="6.2,0 10.3,0 15.1,7 12.8,7.5 10.9,7 	"/>
	
		<linearGradient id="SVGID_4_" gradientUnits="userSpaceOnUse" x1="5441.0361" y1="3408.6853" x2="5441.0361" y2="3330.4446" gradientTransform="matrix(7.200000e-02 0 0 7.200000e-02 -374.912 -239.792)">
		<stop  offset="0" style="stop-color:#676F74"/>
		<stop  offset="1" style="stop-color:#3B444A"/>
	</linearGradient>
	<polygon class="st3" points="15.7,0 19.8,0 16,5.6 13.9,2.5 	"/>
	
		<linearGradient id="SVGID_5_" gradientUnits="userSpaceOnUse" x1="5387.3325" y1="3330.4446" x2="5387.3325" y2="3346.7512" gradientTransform="matrix(7.200000e-02 0 0 7.200000e-02 -374.912 -239.792)">
		<stop  offset="0" style="stop-color:#93989C"/>
		<stop  offset="1" style="stop-color:#AAAFB2"/>
	</linearGradient>
	<polygon class="st4" points="12.2,0 13.8,0 13,1.2 	"/>
	
		<linearGradient id="SVGID_6_" gradientUnits="userSpaceOnUse" x1="5449.3896" y1="3515.4795" x2="5417.2266" y2="3466.6191" gradientTransform="matrix(7.200000e-02 0 0 7.200000e-02 -374.912 -239.792)">
		<stop  offset="0" style="stop-color:#3B444A"/>
		<stop  offset="1" style="stop-color:#3B444A"/>
	</linearGradient>
	<polygon class="st5" points="15.9,14 20,14 16,8.3 13.9,11.2 	"/>
	
		<linearGradient id="SVGID_7_" gradientUnits="userSpaceOnUse" x1="5387.2813" y1="3524.426" x2="5387.2813" y2="3504.3386" gradientTransform="matrix(7.200000e-02 0 0 7.200000e-02 -374.912 -239.792)">
		<stop  offset="0" style="stop-color:#858B8F"/>
		<stop  offset="1" style="stop-color:#868D90"/>
	</linearGradient>
	<polygon class="st6" points="11.9,14 14,14 13,12.5 	"/>
	
		<linearGradient id="SVGID_8_" gradientUnits="userSpaceOnUse" x1="5326.793" y1="3525.7834" x2="5380.6738" y2="3426.0845" gradientTransform="matrix(7.200000e-02 0 0 7.200000e-02 -374.912 -239.792)">
		<stop  offset="0" style="stop-color:#08575C"/>
		<stop  offset="1" style="stop-color:#096166"/>
	</linearGradient>
	<polygon class="st7" points="6,14 10.1,14 15.1,7 10.9,7 	"/>
</g>
</svg>
