<?xml version="1.0" encoding="utf-8"?>
<!-- Generator: Adobe Illustrator 22.1.0, SVG Export Plug-In . SVG Version: 6.00 Build 0)  -->
<svg version="1.1" id="Слой_1" xmlns="http://www.w3.org/2000/svg" xmlns:xlink="http://www.w3.org/1999/xlink" x="0px" y="0px"
	 width="20px" height="19.8px" viewBox="0 0 20 19.8" style="enable-background:new 0 0 20 19.8;" xml:space="preserve">
<g>
	
		<radialGradient id="SVGID_1_" cx="5.6389" cy="532.1" r="4.4365" gradientTransform="matrix(1 0 0 -1 0 542)" gradientUnits="userSpaceOnUse">
		<stop  offset="0" style="stop-color:#6A6B70"/>
		<stop  offset="1" style="stop-color:#1F2125"/>
	</radialGradient>
	<polygon style="fill:url(#SVGID_1_);" points="8,5.8 9.2,7.8 10.4,9.9 9.2,12 8,14 5.6,14 3.3,14 2.1,12 0.9,9.9 2.1,7.8 3.3,5.8 
		5.6,5.8 	"/>
	
		<radialGradient id="SVGID_2_" cx="14.363" cy="537.1148" r="4.4374" gradientTransform="matrix(1 0 0 -1 0 542)" gradientUnits="userSpaceOnUse">
		<stop  offset="0" style="stop-color:#6A6B70"/>
		<stop  offset="1" style="stop-color:#1F2125"/>
	</radialGradient>
	<polygon style="fill:url(#SVGID_2_);" points="16.7,0.8 17.9,2.8 19.1,4.9 17.9,6.9 16.7,9 14.4,9 12,9 10.8,6.9 9.6,4.9 10.8,2.8 
		12,0.8 14.4,0.8 	"/>
	
		<radialGradient id="SVGID_3_" cx="14.363" cy="527.0815" r="4.4374" gradientTransform="matrix(1 0 0 -1 0 542)" gradientUnits="userSpaceOnUse">
		<stop  offset="0" style="stop-color:#6A6B70"/>
		<stop  offset="1" style="stop-color:#1F2125"/>
	</radialGradient>
	<polygon style="fill:url(#SVGID_3_);" points="16.7,10.8 17.9,12.9 19.1,14.9 17.9,17 16.7,19 14.4,19 12,19 10.8,17 9.6,14.9 
		10.8,12.9 12,10.8 14.4,10.8 	"/>
	
		<radialGradient id="SVGID_4_" cx="5.6389" cy="532.0981" r="5.2747" gradientTransform="matrix(1 0 0 -1 0 542)" gradientUnits="userSpaceOnUse">
		<stop  offset="0" style="stop-color:#6A6B70"/>
		<stop  offset="1" style="stop-color:#1F2125"/>
	</radialGradient>
	<path style="fill:url(#SVGID_4_);" d="M8.5,5.1l1.3,2.3l1.3,2.3l0.1,0.1L11.2,10l-1.3,2.3v0l-1.3,2.3l-0.1,0.1H8.3H5.6l0,0H2.9H2.8
		l-0.1-0.1l-1.3-2.3L0.1,10L0,9.9l0.1-0.1l1.3-2.3l0,0l1.3-2.3L2.8,5h0.1h2.7l0,0h2.7h0.1L8.5,5.1z M9.5,7.7L8.2,5.5H5.6l0,0H3.1
		L1.8,7.7l0,0L0.5,9.9l1.3,2.2l1.3,2.2h2.6l0,0h2.6l1.3-2.2l0,0l1.3-2.2L9.5,7.7z"/>
	
		<radialGradient id="SVGID_5_" cx="14.363" cy="537.1166" r="5.2737" gradientTransform="matrix(1 0 0 -1 0 542)" gradientUnits="userSpaceOnUse">
		<stop  offset="0" style="stop-color:#6A6B70"/>
		<stop  offset="1" style="stop-color:#1F2125"/>
	</radialGradient>
	<path style="fill:url(#SVGID_5_);" d="M17.2,0.1l1.3,2.3l1.3,2.3L20,4.9L19.9,5l-1.3,2.3l0,0l-1.3,2.3l-0.1,0.1h-0.1h-2.7l0,0h-2.7
		h-0.1l-0.1-0.1l-1.3-2.3L8.8,5L8.7,4.9l0.1-0.1l1.3-2.3l0,0l1.3-2.3L11.5,0h0.1h2.7l0,0h2.7h0.1L17.2,0.1z M18.2,2.7l-1.3-2.2h-2.6
		l0,0h-2.6l-1.3,2.2l0,0L9.2,4.9l1.3,2.2l1.3,2.2h2.6l0,0h2.6l1.3-2.2h0l1.3-2.2L18.2,2.7z"/>
	
		<radialGradient id="SVGID_6_" cx="14.363" cy="527.0833" r="5.2737" gradientTransform="matrix(1 0 0 -1 0 542)" gradientUnits="userSpaceOnUse">
		<stop  offset="0" style="stop-color:#6A6B70"/>
		<stop  offset="1" style="stop-color:#1F2125"/>
	</radialGradient>
	<path style="fill:url(#SVGID_6_);" d="M17.2,10.1l1.3,2.3l1.3,2.3l0.1,0.1L19.9,15l-1.3,2.3l0,0l-1.3,2.3l-0.1,0.1h-0.1h-2.7l0,0
		h-2.7h-0.1l-0.1-0.1l-1.3-2.3L8.8,15l-0.1-0.1l0.1-0.1l1.3-2.3l0,0l1.3-2.3l0.1-0.1h0.1h2.7l0,0h2.7h0.1L17.2,10.1z M18.2,12.7
		l-1.3-2.2h-2.6l0,0h-2.6l-1.3,2.2l0,0l-1.3,2.2l1.3,2.2l1.3,2.2h2.6l0,0h2.6l1.3-2.2h0l1.3-2.2L18.2,12.7z"/>
</g>
</svg>
