<?xml version="1.0" encoding="utf-8"?>
<!-- Generator: Adobe Illustrator 22.1.0, SVG Export Plug-In . SVG Version: 6.00 Build 0)  -->
<svg version="1.1" id="Слой_1" xmlns="http://www.w3.org/2000/svg" xmlns:xlink="http://www.w3.org/1999/xlink" x="0px" y="0px"
	 width="19px" height="19px" viewBox="0 0 19 19" style="enable-background:new 0 0 19 19;" xml:space="preserve">
<style type="text/css">
	.st0{fill:#FDC900;}
	.st1{fill:#FCDD4F;}
	.st2{fill:#FFFFFF;}
</style>
<g>
	<path class="st0" d="M7.2,0.3c1.6-0.4,3.2-0.3,4.8,0c-0.1,0.1-0.2,0.1-0.4,0.2c-0.4,0.1-0.7,0.3-1,0.5c0.8,0.1,1.7,0.2,2.5,0.5
		c2.6,1,4.7,3.3,5.3,6.1c0.4,1.8,0.3,3.7-0.5,5.4c-0.7,1.6-2,3-3.6,4c-1.7,0.9-3.7,1.3-5.6,0.9c-3.4-0.7-6.3-3.7-6.7-7.2
		c-0.3-2,0.1-4.1,1.2-5.7C4,3.7,5,2.8,6.1,2C4.5,2.8,3.2,4.2,2.4,5.8c-1,2.2-1,4.9-0.1,7.2c1,2,2.7,3.7,4.8,4.5
		c0.5,0.2,0.8,0.8,1.4,0.9c1.7,0.3,3.5,0.1,5.2-0.4c-1.7,0.9-3.7,1.1-5.6,0.9c-4-0.5-7.5-3.8-8-7.8c-0.3-2.1,0-4.4,1-6.2
		C2.4,2.6,4.6,0.9,7.2,0.3z M9.9,4.1C9.8,4.6,9.7,5,9.6,5.5C9,5.3,8.4,5.2,7.8,5C7.7,5.3,7.6,5.6,7.6,5.9c0.4,0.1,1,0.3,1,0.8
		C8.3,7.8,8,8.9,7.7,10.1c0,0.2-0.1,0.4-0.3,0.5c-0.3-0.1-0.5-0.1-0.8-0.2c-0.1,0.3-0.2,0.6-0.4,0.9c0.5,0.2,1.1,0.3,1.6,0.5
		c-0.1,0.4-0.2,0.9-0.3,1.3c0.3,0.1,0.5,0.1,0.8,0.2c0.1-0.4,0.3-0.9,0.3-1.3c0.2,0.1,0.4,0.1,0.7,0.2c-0.1,0.5-0.2,0.9-0.3,1.4
		c0.3,0.1,0.6,0.1,0.9,0.2c0.1-0.4,0.2-0.9,0.2-1.4c0.8,0.1,1.8,0.2,2.5-0.4c0.9-0.7,0.8-2.2-0.2-2.8C13.5,9,13.8,7.8,13.3,7
		c-0.3-0.5-0.9-0.8-1.4-1c0.1-0.4,0.2-0.9,0.3-1.3c-0.3-0.1-0.5-0.1-0.8-0.2c-0.1,0.4-0.2,0.9-0.3,1.3c-0.2-0.1-0.4-0.1-0.7-0.2
		c0.1-0.4,0.2-0.9,0.3-1.3C10.4,4.2,10.1,4.2,9.9,4.1z M10.1,6.7c0.5,0,1.1,0.2,1.5,0.5c0.4,0.3,0.3,1.1-0.2,1.2
		c-0.6,0.1-1.2,0-1.7-0.2C9.9,7.7,10,7.2,10.1,6.7z M9.5,9.1c0.7,0.2,1.3,0.3,1.9,0.8c0.4,0.3,0.3,1-0.1,1.2
		c-0.7,0.2-1.5,0.1-2.2-0.1C9.2,10.4,9.4,9.8,9.5,9.1z"/>
	<path class="st1" d="M11.6,0.4c0.1,0,0.3,0,0.4-0.1c2,0.6,3.8,1.8,5,3.5c2.6,3.3,2.6,8.5-0.2,11.7c-0.9,1-1.9,2-3.2,2.5
		c-1.7,0.5-3.5,0.7-5.2,0.4c-0.6-0.1-0.9-0.7-1.4-0.9C5.1,16.7,3.3,15,2.4,13c-1-2.3-1-4.9,0.1-7.2c0.8-1.6,2.1-3,3.6-3.8
		C5,2.8,4,3.7,3.3,4.8c-1.1,1.7-1.5,3.8-1.2,5.7c0.4,3.5,3.3,6.5,6.7,7.2c1.9,0.4,3.9,0.1,5.6-0.9c1.5-0.9,2.8-2.3,3.6-4
		c0.7-1.7,0.9-3.6,0.5-5.4c-0.6-2.7-2.7-5.1-5.3-6.1c-0.8-0.3-1.7-0.4-2.5-0.5C10.9,0.7,11.2,0.6,11.6,0.4z"/>
	<path class="st2" d="M9.9,4.1c0.3,0.1,0.5,0.1,0.8,0.2c-0.1,0.4-0.2,0.9-0.3,1.3c0.2,0.1,0.4,0.1,0.7,0.2c0.1-0.4,0.2-0.9,0.3-1.3
		c0.3,0.1,0.5,0.1,0.8,0.2C12.1,5.1,12,5.6,11.9,6c0.5,0.2,1.1,0.5,1.4,1c0.5,0.7,0.1,2-0.8,2.2c1,0.5,1.1,2.1,0.2,2.8
		c-0.7,0.6-1.6,0.5-2.5,0.4c0,0.5-0.1,0.9-0.2,1.4c-0.3-0.1-0.6-0.1-0.9-0.2c0.1-0.4,0.2-0.9,0.3-1.4c-0.2-0.1-0.5-0.1-0.7-0.2
		c-0.1,0.4-0.2,0.9-0.3,1.3c-0.3-0.1-0.5-0.1-0.8-0.2c0.1-0.5,0.2-0.9,0.3-1.3c-0.5-0.2-1.1-0.3-1.6-0.5c0.1-0.3,0.3-0.6,0.4-0.9
		c0.3,0.1,0.5,0.1,0.8,0.2c0.2-0.1,0.3-0.3,0.3-0.5C8,8.9,8.3,7.8,8.5,6.7C8.6,6.1,8,6,7.6,5.9C7.6,5.6,7.7,5.3,7.8,5
		C8.4,5.2,9,5.3,9.6,5.5C9.7,5,9.8,4.6,9.9,4.1z M10.1,6.7C10,7.2,9.9,7.7,9.7,8.3c0.5,0.2,1.1,0.3,1.7,0.2c0.5-0.1,0.6-0.9,0.2-1.2
		C11.2,6.8,10.7,6.7,10.1,6.7z M9.5,9.1C9.4,9.8,9.2,10.4,9,11c0.7,0.2,1.5,0.3,2.2,0.1c0.5-0.2,0.5-0.9,0.1-1.2
		C10.9,9.5,10.2,9.3,9.5,9.1z"/>
</g>
</svg>
