<?xml version="1.0" encoding="utf-8"?>
<!-- Generator: Adobe Illustrator 22.1.0, SVG Export Plug-In . SVG Version: 6.00 Build 0)  -->
<svg version="1.1" id="Слой_1" xmlns="http://www.w3.org/2000/svg" xmlns:xlink="http://www.w3.org/1999/xlink" x="0px" y="0px"
	 width="12.4px" height="19px" viewBox="0 0 12.4 19" style="enable-background:new 0 0 12.4 19;" xml:space="preserve">
<style type="text/css">
	.st0{fill:#282828;}
	.st1{fill:#14A049;}
</style>
<g id="cuNpnAQe.eps">
	<path class="st0" d="M0,0c2.7,0,5.3,0,8,0c1.1,0.1,2.1,0.4,2.9,1.2c0.5,0.5,0.9,1.2,1,1.9c0.1,0.9,0,1.8-0.5,2.5
		C11.1,6,10.6,6.4,10,6.7c0.8,0.3,1.6,0.9,2,1.7c0.6,1.1,0.6,2.5-0.1,3.5c-0.4,0.7-1.1,1.3-1.9,1.6C9.3,13.9,8.4,14,7.6,14
		c-2.5,0-5,0-7.6,0c0-0.6,0-1.2,0-1.9c0.8,0,1.6-0.5,1.9-1.2c0.2-0.3,0.2-0.7,0.2-1.1c0-0.7-0.3-1.4-0.9-1.8C0.8,7.8,0.4,7.7,0,7.6
		C0,7.1,0,6.5,0,6c0.6,0,1.2-0.2,1.5-0.7c0.4-0.4,0.6-1,0.5-1.5C2,3.1,1.6,2.4,1,2.1C0.7,1.9,0.4,1.9,0,1.8C0,1.2,0,0.6,0,0z M4.1,2
		c0,1.3,0,2.6,0,3.9c0.8,0,1.7,0,2.5,0c0.4,0,0.8,0,1.2-0.1c0.7-0.2,1.3-0.7,1.4-1.4c0.1-0.6,0-1.2-0.4-1.7C8.4,2.2,7.7,2,7.1,2
		C6.1,2,5.1,2,4.1,2z M4.1,7.7c0,1.4,0,2.8,0,4.2c0.9,0,1.9,0,2.8,0c0.5,0,1,0,1.5-0.2C9,11.6,9.5,11,9.7,10.3
		c0.1-0.6,0.1-1.2-0.3-1.7C9.1,8.2,8.6,7.9,8,7.8C7.5,7.7,6.9,7.7,6.4,7.7C5.6,7.7,4.9,7.7,4.1,7.7z"/>
	<path class="st1" d="M0,17c2.6,0,5.1,0,7.7,0c1.6,0,3.2,0,4.7,0c0,0.7,0,1.3,0,2c-1.7,0-3.4,0-5.1,0c-2.4,0-4.9,0-7.3,0
		C0,18.3,0,17.7,0,17z"/>
</g>
</svg>
