<?xml version="1.0" encoding="utf-8"?>
<!-- Generator: Adobe Illustrator 22.1.0, SVG Export Plug-In . SVG Version: 6.00 Build 0)  -->
<svg version="1.1" id="Слой_1" xmlns="http://www.w3.org/2000/svg" xmlns:xlink="http://www.w3.org/1999/xlink" x="0px" y="0px"
	 width="19px" height="19px" viewBox="0 0 19 19" style="enable-background:new 0 0 19 19;" xml:space="preserve">
<style type="text/css">
	.st0{fill:#0693F4;}
</style>
<g>
	<path class="st0" d="M9.5,0C4.3,0,0,4.3,0,9.5S4.3,19,9.5,19S19,14.7,19,9.5S14.7,0,9.5,0z M9.5,17.6c-4.4,0-8.1-3.6-8.1-8.1
		s3.6-8.1,8.1-8.1s8.1,3.6,8.1,8.1S13.9,17.6,9.5,17.6z"/>
	<polygon class="st0" points="6.4,12.5 8,12.5 8,8.6 6.4,9.5 	"/>
	<polygon class="st0" points="8.6,12.4 10.2,12.4 10.2,7.4 8.6,8.2 	"/>
	<polygon class="st0" points="10.9,12.4 12.4,12.4 12.4,6.1 10.9,7 	"/>
</g>
</svg>
