<?xml version="1.0" encoding="utf-8"?>
<!-- Generator: Adobe Illustrator 22.1.0, SVG Export Plug-In . SVG Version: 6.00 Build 0)  -->
<svg version="1.1" id="Слой_1" xmlns="http://www.w3.org/2000/svg" xmlns:xlink="http://www.w3.org/1999/xlink" x="0px" y="0px"
	 width="19.6px" height="20px" viewBox="0 0 19.6 20" style="enable-background:new 0 0 19.6 20;" xml:space="preserve">
<g id="_2228690114208">
	
		<radialGradient id="SVGID_1_" cx="22.8397" cy="529.5344" r="8.0498" gradientTransform="matrix(0.9783 0 0 -0.9783 -8.9404 527.7865)" gradientUnits="userSpaceOnUse">
		<stop  offset="0" style="stop-color:#7FA36B"/>
		<stop  offset="1" style="stop-color:#586D4B"/>
	</radialGradient>
	<path style="fill:url(#SVGID_1_);" d="M9.8,0.5C9,0.5,8.2,0.5,7.5,0.7c-0.1,0-0.2,0-0.2,0.1S7.2,1,7.2,1v5.8c0,0,0,0.1,0,0.2
		c0,0,0.1,0,0.2,0c0.7-0.5,1.4-0.7,2.3-0.7c2.2,0,4,1.8,4,4v0.1v8.6c0,0,0,0.1,0,0.1c0,0,0.1,0,0.2,0c3.3-1.5,5.6-4.9,5.6-8.8
		C19.5,4.8,15.1,0.5,9.8,0.5z"/>
	
		<radialGradient id="SVGID_2_" cx="15.4365" cy="529.2717" r="8.4896" gradientTransform="matrix(0.9783 0 0 -0.9783 -8.9404 527.7865)" gradientUnits="userSpaceOnUse">
		<stop  offset="0" style="stop-color:#7FA36B"/>
		<stop  offset="1" style="stop-color:#586D4B"/>
	</radialGradient>
	<path style="fill:url(#SVGID_2_);" d="M12.2,13.4c0,0-0.1,0-0.2,0c-0.7,0.5-1.5,0.8-2.3,0.8c-2.2,0-4-1.8-4-4V0.3
		c0-0.1,0-0.2-0.1-0.2C5.6,0,5.5,0,5.5,0H0.3C0.2,0,0.1,0,0.1,0.1S0,0.2,0,0.3c0,1.4,0,8.1,0,9.9C0,15.6,4.4,20,9.8,20
		c0.8,0,1.6-0.1,2.3-0.3c0.1,0,0.1-0.1,0.2-0.1c0,0,0.1-0.2,0.1-0.2v-5.8C12.3,13.6,12.3,13.4,12.2,13.4z"/>
</g>
</svg>
