<?xml version="1.0" encoding="utf-8"?>
<!-- Generator: Adobe Illustrator 22.1.0, SVG Export Plug-In . SVG Version: 6.00 Build 0)  -->
<svg version="1.1" id="Слой_1" xmlns="http://www.w3.org/2000/svg" xmlns:xlink="http://www.w3.org/1999/xlink" x="0px" y="0px"
	 width="20px" height="20px" viewBox="0 0 20 20" style="enable-background:new 0 0 20 20;" xml:space="preserve">
<g>
	
		<linearGradient id="SVGID_1_" gradientUnits="userSpaceOnUse" x1="0" y1="532" x2="20" y2="532" gradientTransform="matrix(1 0 0 -1 0 542)">
		<stop  offset="0" style="stop-color:#007AFC"/>
		<stop  offset="1" style="stop-color:#004896"/>
	</linearGradient>
	<path style="fill:url(#SVGID_1_);" d="M10,20c-2.7,0-5.2-1-7.1-2.9S0,12.7,0,10s1-5.2,2.9-7.1S7.3,0,10,0s5.2,1,7.1,2.9
		S20,7.3,20,10s-1,5.2-2.9,7.1S12.7,20,10,20z M10,2.9c-3.9,0-7.1,3.2-7.1,7.1s3.2,7.1,7.1,7.1s7.1-3.2,7.1-7.1S13.9,2.9,10,2.9z"/>
	
		<linearGradient id="SVGID_2_" gradientUnits="userSpaceOnUse" x1="6.4593" y1="531.9982" x2="14.557" y2="531.9982" gradientTransform="matrix(1 0 0 -1 0 542)">
		<stop  offset="0" style="stop-color:#007AFC"/>
		<stop  offset="1" style="stop-color:#004896"/>
	</linearGradient>
	<path style="fill:url(#SVGID_2_);" d="M6.5,5c1.6,0,3.3,0,4.9,0c0.6,0,1.2,0,1.8,0.3c0.3,0.1,0.5,0.3,0.7,0.5
		c0.2,0.3,0.3,0.6,0.4,0.9c0.1,0.5,0.1,1.1,0,1.6c0,0,0,0.1,0,0.1c-0.1,0.4-0.2,0.8-0.6,1.1c-0.2,0.2-0.6,0.3-0.8,0.4
		c0.2,0.1,0.4,0.1,0.7,0.2c0.3,0.1,0.5,0.3,0.7,0.6c0.3,0.4,0.3,0.9,0.3,1.4c0,0.6,0,1.3-0.3,1.8c-0.2,0.4-0.6,0.8-1,0.9
		c-0.8,0.3-1.6,0.2-2.4,0.2c-1.5,0-2.9,0-4.4,0c0-0.8,0-1.6,0-2.4C6.5,10.1,6.5,7.5,6.5,5z M8.3,6.7c0,0.1,0,0.2,0,0.2
		c0,0.8,0,1.5,0,2.3c0.3,0,0.7,0,1,0c0.6,0,1.1,0,1.7,0c0.3,0,0.7,0,1-0.2c0.3-0.2,0.4-0.5,0.4-0.8c0-0.3,0-0.6,0-0.8l0,0
		c0-0.2-0.1-0.5-0.3-0.6c-0.2-0.1-0.5-0.1-0.8-0.2C10.3,6.7,9.3,6.7,8.3,6.7L8.3,6.7C8.4,6.7,8.4,6.7,8.3,6.7z M12.6,11.5
		c0-0.2-0.1-0.4-0.2-0.5c-0.1-0.2-0.4-0.3-0.6-0.3c-0.4,0-0.9,0-1.3,0c-0.7,0-1.4,0-2.1,0c-0.1,0-0.1,0.1-0.1,0.1c0,0.8,0,1.7,0,2.6
		c0.1,0,0.2,0,0.2,0c0.1,0,0.1,0,0.2,0c0.9,0,1.7,0,2.6,0c0.4,0,0.8-0.1,1.1-0.4C12.7,12.5,12.7,12,12.6,11.5"/>
</g>
</svg>
