<?xml version="1.0" encoding="utf-8"?>
<!-- Generator: Adobe Illustrator 22.1.0, SVG Export Plug-In . SVG Version: 6.00 Build 0)  -->
<svg version="1.1" id="Слой_1" xmlns="http://www.w3.org/2000/svg" xmlns:xlink="http://www.w3.org/1999/xlink" x="0px" y="0px"
	 width="20px" height="20px" viewBox="0 0 20 20" style="enable-background:new 0 0 20 20;" xml:space="preserve">
<g id="_2228384776272">
	
		<linearGradient id="SVGID_1_" gradientUnits="userSpaceOnUse" x1="10291.5645" y1="3195.0679" x2="10214.0176" y2="3216.9729" gradientTransform="matrix(7.136250e-02 0 0 7.136250e-02 -725.2659 -226.9286)">
		<stop  offset="0" style="stop-color:#06AACF"/>
		<stop  offset="1" style="stop-color:#39D5ED"/>
	</linearGradient>
	<path style="fill:url(#SVGID_1_);" d="M3.3,2.6C4.9,1.1,7.1,0.1,9.5,0v1.5c-2,0.1-3.8,0.9-5.2,2.1L3.3,2.6z"/>
	
		<linearGradient id="SVGID_2_" gradientUnits="userSpaceOnUse" x1="10217.4639" y1="3248.6338" x2="10162.9414" y2="3293.6052" gradientTransform="matrix(7.136250e-02 0 0 7.136250e-02 -725.2659 -226.9286)">
		<stop  offset="0" style="stop-color:#06AACF"/>
		<stop  offset="1" style="stop-color:#39D5ED"/>
	</linearGradient>
	<path style="fill:url(#SVGID_2_);" d="M0,9.5c0.1-2.4,1.1-4.6,2.6-6.2l1.1,1.1c-1.2,1.4-2,3.2-2.1,5.2H0z"/>
	
		<linearGradient id="SVGID_3_" gradientUnits="userSpaceOnUse" x1="10218.958" y1="3392.7417" x2="10161.4873" y2="3345.3403" gradientTransform="matrix(7.136250e-02 0 0 7.136250e-02 -725.2659 -226.9286)">
		<stop  offset="0" style="stop-color:#06AACF"/>
		<stop  offset="1" style="stop-color:#39D5ED"/>
	</linearGradient>
	<path style="fill:url(#SVGID_3_);" d="M2.6,16.7c-1.5-1.7-2.5-3.8-2.6-6.2h1.5c0.1,2,0.9,3.8,2.1,5.2L2.6,16.7z"/>
	
		<linearGradient id="SVGID_4_" gradientUnits="userSpaceOnUse" x1="10289.6738" y1="3444.5798" x2="10215.9121" y2="3423.7422" gradientTransform="matrix(7.136250e-02 0 0 7.136250e-02 -725.2659 -226.9286)">
		<stop  offset="0" style="stop-color:#06AACF"/>
		<stop  offset="1" style="stop-color:#39D5ED"/>
	</linearGradient>
	<path style="fill:url(#SVGID_4_);" d="M9.5,20c-2.4-0.1-4.6-1.1-6.2-2.6l1.1-1.1c1.4,1.2,3.2,2,5.2,2.1V20z"/>
	
		<linearGradient id="SVGID_5_" gradientUnits="userSpaceOnUse" x1="10377.1445" y1="3402.9343" x2="10327.3154" y2="3463.3503" gradientTransform="matrix(7.136250e-02 0 0 7.136250e-02 -725.2659 -226.9286)">
		<stop  offset="0" style="stop-color:#06AACF"/>
		<stop  offset="1" style="stop-color:#39D5ED"/>
	</linearGradient>
	<path style="fill:url(#SVGID_5_);" d="M16.7,17.4c-1.7,1.5-3.8,2.5-6.2,2.6v-1.5c2-0.1,3.8-0.9,5.2-2.1L16.7,17.4z"/>
	
		<linearGradient id="SVGID_6_" gradientUnits="userSpaceOnUse" x1="10428.0313" y1="3332.7285" x2="10406.6533" y2="3408.3833" gradientTransform="matrix(7.136250e-02 0 0 7.136250e-02 -725.2659 -226.9286)">
		<stop  offset="0" style="stop-color:#06AACF"/>
		<stop  offset="1" style="stop-color:#39D5ED"/>
	</linearGradient>
	<path style="fill:url(#SVGID_6_);" d="M20,10.5c-0.1,2.4-1.1,4.6-2.6,6.2l-1.1-1.1c1.2-1.4,2-3.2,2.1-5.2H20z"/>
	
		<linearGradient id="SVGID_7_" gradientUnits="userSpaceOnUse" x1="10428.2832" y1="3308.4019" x2="10406.3779" y2="3230.8564" gradientTransform="matrix(7.136250e-02 0 0 7.136250e-02 -725.2659 -226.9286)">
		<stop  offset="0" style="stop-color:#06AACF"/>
		<stop  offset="1" style="stop-color:#39D5ED"/>
	</linearGradient>
	<path style="fill:url(#SVGID_7_);" d="M17.4,3.3c1.5,1.7,2.5,3.8,2.6,6.2h-1.5c-0.1-2-0.9-3.8-2.1-5.2L17.4,3.3z"/>
	
		<linearGradient id="SVGID_8_" gradientUnits="userSpaceOnUse" x1="10372.3643" y1="3231.3359" x2="10332.0791" y2="3182.7717" gradientTransform="matrix(7.136250e-02 0 0 7.136250e-02 -725.2659 -226.9286)">
		<stop  offset="0" style="stop-color:#06AACF"/>
		<stop  offset="1" style="stop-color:#39D5ED"/>
	</linearGradient>
	<path style="fill:url(#SVGID_8_);" d="M10.5,0c2.4,0.1,4.6,1.1,6.2,2.6l-1.1,1.1c-1.4-1.2-3.2-2-5.2-2.1V0z"/>
	
		<linearGradient id="SVGID_9_" gradientUnits="userSpaceOnUse" x1="10400.2012" y1="3320.1238" x2="10206.3027" y2="3320.1238" gradientTransform="matrix(7.136250e-02 0 0 7.136250e-02 -725.2659 -226.9286)">
		<stop  offset="0" style="stop-color:#06AACF"/>
		<stop  offset="1" style="stop-color:#39D5ED"/>
	</linearGradient>
	<path style="fill:url(#SVGID_9_);" d="M10,3.1c3.8,0,6.9,3.1,6.9,6.9s-3.1,6.9-6.9,6.9S3.1,13.8,3.1,10S6.2,3.1,10,3.1z M10,3.9
		c3.4,0,6.2,2.8,6.2,6.1c0,3.4-2.8,6.2-6.2,6.2S3.8,13.4,3.8,10C3.8,6.6,6.6,3.9,10,3.9z"/>
</g>
</svg>
