<?xml version="1.0" encoding="utf-8"?>
<!-- Generator: Adobe Illustrator 22.1.0, SVG Export Plug-In . SVG Version: 6.00 Build 0)  -->
<svg version="1.1" id="Слой_1" xmlns="http://www.w3.org/2000/svg" xmlns:xlink="http://www.w3.org/1999/xlink" x="0px" y="0px"
	 width="20px" height="20px" viewBox="0 0 20 20" style="enable-background:new 0 0 20 20;" xml:space="preserve">
<path style="fill:#35ACF0;" d="M18.1,16.1c0.1-0.4,0.4-0.7,0.6-1c1.5-2.6,1.7-5.8,0.7-8.6c-1.2-3-3.9-5.5-7.1-6.2
	c-1.7-0.4-3.5-0.3-5.2,0.2C4.6,1.1,2.5,3,1.2,5.2C0.3,6.9-0.1,8.8,0,10.6c0.1,4.6,4,8.7,8.5,9.2c2.4,0.4,5-0.1,7-1.6
	c0.2-0.1,0.3-0.3,0.5-0.2c0.6,0.5,1.1,1.1,1.7,1.6c0.4,0.3,0.9,0.4,1.4,0.1c0.5-0.3,0.9-0.8,0.9-1.4c0-0.5-0.3-0.8-0.6-1.2
	C18.9,16.9,18.5,16.5,18.1,16.1z M16,13.8c-0.3-0.1-0.5-0.4-0.7-0.6c-1.4-1.4-2.8-2.8-4.1-4.1c-0.4-0.4-1-0.6-1.5-0.3
	C9.2,9,8.8,9.4,8.6,10c-0.1,0.5,0.2,0.9,0.5,1.2c1.5,1.5,2.9,2.9,4.4,4.3c0.1,0.1,0.3,0.3,0.4,0.5c-1.8,1.2-4.2,1.5-6.2,0.8
	c-1.5-0.5-2.8-1.6-3.7-2.9c-0.9-1.3-1.2-3-1.1-4.6c0.3-3.5,3.5-6.5,7-6.3c3.4-0.2,6.6,2.6,7.1,6C17.3,10.6,17,12.4,16,13.8z"/>
</svg>
