<?xml version="1.0" encoding="utf-8"?>
<!-- Generator: Adobe Illustrator 19.0.0, SVG Export Plug-In . SVG Version: 6.00 Build 0)  -->
<svg version="1.1" id="Layer_1" xmlns="http://www.w3.org/2000/svg" xmlns:xlink="http://www.w3.org/1999/xlink" x="0px" y="0px"
	 width="10px" height="9.9px" viewBox="0 0 10 9.9" style="enable-background:new 0 0 10 9.9;" xml:space="preserve">
<style type="text/css">
	.st0{fill:#97C553;}
	.st1{fill:#709C3F;}
</style>
<g id="XMLID_2_">
	<path id="Path-1-Copy-7" class="st0" d="M0.4,8.5c0.5,0.5,3,2.8,7,0.1c2.9-2.2,2.8-7.1,2.5-8.6C9.8,0.3,6.4,7.6,0.4,8.5z M9.9,0.1
		c0,0-3.7-0.5-7.4,1.8C0.2,3.4-0.1,5.5,0,6.9C5.3,6.3,9.8,0.2,9.9,0.1z"/>
	<path id="Path-1-Copy-6" class="st1" d="M9.9,0.1c0,0-3.7-0.5-7.4,1.8C0.2,3.4-0.1,5.5,0,6.9C5.3,6.3,9.8,0.2,9.9,0.1z"/>
</g>
</svg>
