<?xml version="1.0" encoding="utf-8"?>
<!-- Generator: Adobe Illustrator 22.1.0, SVG Export Plug-In . SVG Version: 6.00 Build 0)  -->
<svg version="1.1" id="Слой_1" xmlns="http://www.w3.org/2000/svg" xmlns:xlink="http://www.w3.org/1999/xlink" x="0px" y="0px"
	 width="20px" height="20px" viewBox="0 0 20 20" style="enable-background:new 0 0 20 20;" xml:space="preserve">
<path style="fill:#FF3800;" d="M10,0C4.5,0,0,4.5,0,10c0,5.5,4.5,10,10,10s10-4.5,10-10C19.9,4.5,15.5,0,10,0z M10,16.5
	c-3.6,0-6.5-2.9-6.5-6.5c0-3.6,2.9-6.5,6.5-6.5c3.6,0,6.5,2.9,6.5,6.5C16.5,13.6,13.6,16.5,10,16.5z"/>
<path style="fill:#FF3800;" d="M9.2,9.4h1.4c0.2,0,0.3,0.1,0.3,0.3v0c0,0.2-0.1,0.3-0.3,0.3H9.2C9,10,8.9,9.9,8.9,9.7v0
	C8.9,9.6,9,9.4,9.2,9.4z"/>
<path style="fill:#FF3800;" d="M4.3,10.5h1.4c0.2,0,0.3,0.1,0.3,0.3v0c0,0.2-0.1,0.3-0.3,0.3H4.3C4.2,11.2,4,11,4,10.9v0
	C4,10.7,4.2,10.5,4.3,10.5z"/>
<path style="fill:#FF3800;" d="M9.2,10.5h1.4c0.2,0,0.3,0.1,0.3,0.3v0c0,0.2-0.1,0.3-0.3,0.3H9.2c-0.2,0-0.3-0.1-0.3-0.3v0
	C8.9,10.6,9,10.5,9.2,10.5z"/>
<path style="fill:#FF3800;" d="M4.3,11.6h1.4c0.2,0,0.3,0.1,0.3,0.3v0c0,0.2-0.1,0.3-0.3,0.3H4.3c-0.2,0-0.3-0.1-0.3-0.3v0
	C4,11.7,4.2,11.6,4.3,11.6z"/>
<path style="fill:#FF3800;" d="M6.7,11.6h1.4c0.2,0,0.3,0.1,0.3,0.3v0c0,0.2-0.1,0.3-0.3,0.3H6.7c-0.2,0-0.3-0.1-0.3-0.3v0
	C6.4,11.7,6.6,11.6,6.7,11.6z"/>
<path style="fill:#FF3800;" d="M9.2,11.5h1.4c0.2,0,0.3,0.1,0.3,0.3v0c0,0.2-0.1,0.3-0.3,0.3H9.2c-0.2,0-0.3-0.1-0.3-0.3v0
	C8.9,11.7,9,11.5,9.2,11.5z"/>
<path style="fill:#FF3800;" d="M14,11.4h1.4c0.2,0,0.3,0.1,0.3,0.3v0c0,0.2-0.1,0.3-0.3,0.3H14c-0.2,0-0.3-0.1-0.3-0.3v0
	C13.7,11.6,13.8,11.4,14,11.4z"/>
<path style="fill:#FF3800;" d="M4.3,12.6h1.4c0.2,0,0.3,0.1,0.3,0.3v0c0,0.2-0.1,0.3-0.3,0.3H4.3c-0.2,0-0.3-0.1-0.3-0.3v0
	C4,12.8,4.2,12.6,4.3,12.6z"/>
<path style="fill:#FF3800;" d="M6.7,12.6h1.4c0.2,0,0.3,0.1,0.3,0.3v0c0,0.2-0.1,0.3-0.3,0.3H6.7c-0.2,0-0.3-0.1-0.3-0.3v0
	C6.4,12.7,6.6,12.6,6.7,12.6z"/>
<path style="fill:#FF3800;" d="M9.2,12.6h1.4c0.2,0,0.3,0.1,0.3,0.3v0c0,0.2-0.1,0.3-0.3,0.3H9.2c-0.2,0-0.3-0.1-0.3-0.3v0
	C8.9,12.7,9,12.6,9.2,12.6z"/>
<path style="fill:#FF3800;" d="M11.6,12.5H13c0.2,0,0.3,0.1,0.3,0.3v0c0,0.2-0.1,0.3-0.3,0.3h-1.4c-0.2,0-0.3-0.1-0.3-0.3v0
	C11.3,12.7,11.4,12.5,11.6,12.5z"/>
<path style="fill:#FF3800;" d="M14,12.5h1.4c0.2,0,0.3,0.1,0.3,0.3v0c0,0.2-0.1,0.3-0.3,0.3H14c-0.2,0-0.3-0.1-0.3-0.3v0
	C13.7,12.6,13.8,12.5,14,12.5z"/>
<path style="fill:#FF3800;" d="M4.3,13.7h1.4C5.9,13.7,6,13.8,6,14v0c0,0.2-0.1,0.3-0.3,0.3H4.3C4.2,14.3,4,14.2,4,14v0
	C4,13.8,4.2,13.7,4.3,13.7z"/>
<path style="fill:#FF3800;" d="M6.7,13.6h1.4c0.2,0,0.3,0.1,0.3,0.3v0c0,0.2-0.1,0.3-0.3,0.3H6.7c-0.2,0-0.3-0.1-0.3-0.3v0
	C6.4,13.8,6.6,13.6,6.7,13.6z"/>
<path style="fill:#FF3800;" d="M9.2,13.6h1.4c0.2,0,0.3,0.1,0.3,0.3v0c0,0.2-0.1,0.3-0.3,0.3H9.2c-0.2,0-0.3-0.1-0.3-0.3v0
	C8.9,13.7,9,13.6,9.2,13.6z"/>
<path style="fill:#FF3800;" d="M11.6,13.6H13c0.2,0,0.3,0.1,0.3,0.3v0c0,0.2-0.1,0.3-0.3,0.3h-1.4c-0.2,0-0.3-0.1-0.3-0.3v0
	C11.3,13.7,11.4,13.6,11.6,13.6z"/>
<path style="fill:#FF3800;" d="M14,13.5h1.4c0.2,0,0.3,0.1,0.3,0.3v0c0,0.2-0.1,0.3-0.3,0.3H14c-0.2,0-0.3-0.1-0.3-0.3v0
	C13.7,13.7,13.8,13.5,14,13.5z"/>
<path style="fill:#FF3800;" d="M4.3,14.7h1.4C5.9,14.7,6,14.9,6,15v0c0,0.2-0.1,0.3-0.3,0.3H4.3C4.2,15.4,4,15.2,4,15v0
	C4,14.9,4.2,14.7,4.3,14.7z"/>
<path style="fill:#FF3800;" d="M6.7,14.7h1.4c0.2,0,0.3,0.1,0.3,0.3v0c0,0.2-0.1,0.3-0.3,0.3H6.7c-0.2,0-0.3-0.1-0.3-0.3v0
	C6.4,14.8,6.6,14.7,6.7,14.7z"/>
<path style="fill:#FF3800;" d="M9.2,14.7h1.4c0.2,0,0.3,0.1,0.3,0.3v0c0,0.2-0.1,0.3-0.3,0.3H9.2c-0.2,0-0.3-0.1-0.3-0.3v0
	C8.9,14.8,9,14.7,9.2,14.7z"/>
<path style="fill:#FF3800;" d="M11.6,14.6H13c0.2,0,0.3,0.1,0.3,0.3v0c0,0.2-0.1,0.3-0.3,0.3h-1.4c-0.2,0-0.3-0.1-0.3-0.3v0
	C11.3,14.8,11.4,14.6,11.6,14.6z"/>
<path style="fill:#FF3800;" d="M14,14.6h1.4c0.2,0,0.3,0.1,0.3,0.3v0c0,0.2-0.1,0.3-0.3,0.3H14c-0.2,0-0.3-0.1-0.3-0.3v0
	C13.7,14.7,13.8,14.6,14,14.6z"/>
<path style="fill:#FF3800;" d="M6.7,15.7h1.4c0.2,0,0.3,0.1,0.3,0.3v0c0,0.2-0.1,0.3-0.3,0.3H6.7c-0.2,0-0.3-0.1-0.3-0.3v0
	C6.4,15.9,6.6,15.7,6.7,15.7z"/>
<path style="fill:#FF3800;" d="M9.2,15.7h1.4c0.2,0,0.3,0.1,0.3,0.3v0c0,0.2-0.1,0.3-0.3,0.3H9.2c-0.2,0-0.3-0.1-0.3-0.3v0
	C8.9,15.8,9,15.7,9.2,15.7z"/>
<path style="fill:#FF3800;" d="M11.6,15.7H13c0.2,0,0.3,0.1,0.3,0.3v0c0,0.2-0.1,0.3-0.3,0.3h-1.4c-0.2,0-0.3-0.1-0.3-0.3v0
	C11.3,15.8,11.4,15.7,11.6,15.7z"/>
<polygon style="fill:#FF3800;" points="17.4,19.9 16.3,17.7 16.4,16.7 17.4,16.6 20,20 "/>
</svg>
