<?xml version="1.0" encoding="utf-8"?>
<!-- Generator: Adobe Illustrator 22.1.0, SVG Export Plug-In . SVG Version: 6.00 Build 0)  -->
<svg version="1.1" id="Слой_1" xmlns="http://www.w3.org/2000/svg" xmlns:xlink="http://www.w3.org/1999/xlink" x="0px" y="0px"
	 width="9.1px" height="19px" viewBox="0 0 9.1 19" style="enable-background:new 0 0 9.1 19;" xml:space="preserve">
<style type="text/css">
	.st0{fill:#518DC9;}
</style>
<path class="st0" d="M3.5,0c0.7,0,1.4,0,2,0c0,0.2,0,0.4,0,0.6c0,6.1,0,12.3,0,18.4c-0.7,0-1.4,0-2,0c0-6,0-12,0-18
	C3.5,0.7,3.5,0.3,3.5,0z M0,3.8c0.7,0,1.4,0,2,0C2,4,2,4.2,2,4.4C2,8,2,11.6,2,15.2c-0.7,0-1.4,0-2,0C0,11.4,0,7.6,0,3.8L0,3.8
	L0,3.8z M7.1,3.8c0.7,0,1.4,0,2,0c0,3.8,0,7.6,0,11.5c0,0-0.1,0-0.1,0c-0.6,0-1.3,0-1.9,0c0-3.6,0-7.2,0-10.8C7.1,4.2,7.1,4,7.1,3.8
	z"/>
</svg>
