<?xml version="1.0" encoding="utf-8"?>
<!-- Generator: Adobe Illustrator 22.1.0, SVG Export Plug-In . SVG Version: 6.00 Build 0)  -->
<svg version="1.1" id="Слой_1" xmlns="http://www.w3.org/2000/svg" xmlns:xlink="http://www.w3.org/1999/xlink" x="0px" y="0px"
	 width="20px" height="20px" viewBox="0 0 20 20" style="enable-background:new 0 0 20 20;" xml:space="preserve">
<g id="_2228489818192">
	<path style="fill:#F47116;" d="M10,0c0.7,0,1.4,0.1,2.1,0.2l-0.5,2c-0.5-0.1-1-0.1-1.5-0.1c-0.5,0-1,0-1.5,0.1l-0.5-2
		C8.6,0.1,9.3,0,10,0z M13.1,0.5c1.4,0.4,2.6,1.2,3.6,2.1L15.2,4c-0.8-0.7-1.7-1.2-2.7-1.5L13.1,0.5z M17.4,3.3
		c0.9,1,1.6,2.3,2.1,3.6l-2,0.5c-0.3-1-0.9-1.9-1.5-2.7L17.4,3.3z M19.8,7.9C19.9,8.6,20,9.3,20,10c0,0.7-0.1,1.4-0.2,2.1l-2-0.5
		c0.1-0.5,0.1-1,0.1-1.5c0-0.5-0.1-1-0.1-1.5L19.8,7.9z M19.5,13.1c-0.4,1.4-1.2,2.6-2.1,3.6L16,15.2c0.7-0.8,1.2-1.7,1.5-2.7
		L19.5,13.1z M16.7,17.4c-1,0.9-2.3,1.6-3.6,2.1l-0.5-2c1-0.3,1.9-0.9,2.7-1.5L16.7,17.4z M12.1,19.8C11.4,19.9,10.7,20,10,20
		s-1.4-0.1-2.1-0.2l0.5-2c0.5,0.1,1,0.2,1.5,0.2c0.5,0,1-0.1,1.5-0.2L12.1,19.8z M6.9,19.5c-1.4-0.4-2.6-1.2-3.6-2.1L4.8,16
		c0.8,0.7,1.7,1.2,2.7,1.5L6.9,19.5z M2.6,16.7c-0.9-1-1.6-2.3-2.1-3.6l2-0.5c0.3,1,0.9,1.9,1.5,2.7L2.6,16.7z M0.2,12.1
		C0.1,11.4,0,10.7,0,10c0-0.7,0.1-1.4,0.2-2.1l2,0.5C2.1,9,2.1,9.5,2.1,10c0,0.5,0.1,1,0.1,1.5L0.2,12.1z M0.5,6.9
		c0.4-1.4,1.2-2.6,2.1-3.6L4,4.8C3.4,5.6,2.8,6.5,2.5,7.5L0.5,6.9z M3.3,2.6c1-0.9,2.3-1.6,3.6-2.1l0.5,2C6.5,2.8,5.6,3.4,4.8,4
		L3.3,2.6z"/>
	<path style="fill:#196BBF;" d="M9.2,3.1c1.6-0.2,3.4,0.2,4.7,1.2c1.8,1.3,3,3.4,3,5.7c0.1,2.2-1.1,4.4-2.8,5.6
		c-0.8,0.6-1.8,1-2.9,1.2c-0.6,0.1-1.2,0.1-1.7,0.1c-2.1-0.1-4.1-1.3-5.2-3.1c-0.7-1.1-1.1-2.3-1.2-3.6C3,9,3.3,7.7,4,6.6
		C5,4.7,7,3.4,9.2,3.1z M9.5,5.2c0,0.4,0,0.8,0,1.3c-0.8,0-1.6,0-2.4,0c0,0.4,0,0.9,0,1.3c0.3,0,0.6,0,1,0c0,1.5,0,3,0,4.5
		c-0.3,0-0.6,0-1,0c0,0.4,0,0.9,0,1.3c0.8,0,1.6,0,2.4,0c0.1,0.4,0,0.8,0,1.3c0.3,0,0.7,0,1,0c0-0.4,0-0.8,0-1.3
		c0.7,0,1.5-0.3,2-0.8c0.5-0.5,0.6-1.3,0.4-1.9c-0.1-0.5-0.5-0.9-1-1.1c0.3-0.2,0.5-0.5,0.7-0.8c0.2-0.6,0.2-1.3-0.3-1.8
		c-0.4-0.5-1.1-0.7-1.7-0.7c0-0.4,0-0.8,0-1.2C10.2,5.2,9.8,5.2,9.5,5.2z M9.6,7.8c0.4,0,0.8-0.1,1.2,0.1c0.5,0.2,0.4,1,0,1.2
		c-0.4,0.2-0.8,0.1-1.2,0.2C9.6,8.7,9.6,8.2,9.6,7.8z M9.6,10.6c0.5,0,1-0.1,1.4,0.1c0.5,0.3,0.5,1.2,0,1.4
		c-0.4,0.2-0.9,0.1-1.4,0.1C9.6,11.7,9.6,11.1,9.6,10.6z"/>
</g>
</svg>
