<?xml version="1.0" encoding="utf-8"?>
<!-- Generator: Adobe Illustrator 22.1.0, SVG Export Plug-In . SVG Version: 6.00 Build 0)  -->
<svg version="1.1" id="Слой_1" xmlns="http://www.w3.org/2000/svg" xmlns:xlink="http://www.w3.org/1999/xlink" x="0px" y="0px"
	 width="13.3px" height="19px" viewBox="0 0 13.3 19" style="enable-background:new 0 0 13.3 19;" xml:space="preserve">
<style type="text/css">
	.st0{fill:#4C4F54;}
	.st1{fill:#FDBA12;}
</style>
<g>
	<path class="st0" d="M8.1,1.9C9,1.2,9.8,0.6,10.6,0c0,2.7,0,5.4,0,8.1c0.9,0,1.8,0,2.7,0c0,0.7,0,1.3,0,2c-0.9,0-1.8,0-2.7,0
		c0,1.5,0,3.1,0,4.6c0,0.5,0,1,0.2,1.4c0.1,0.3,0.4,0.6,0.7,0.6c0.6,0.2,1.2,0.1,1.8,0.1c0,0.7,0,1.4,0,2.1h-1.6
		c-0.9-0.1-1.9-0.2-2.6-0.9c-0.8-0.8-0.9-1.9-0.9-3c0-1.7,0-3.3,0-5c-0.7,0-1.4,0-2.1,0c0-0.7,0-1.3,0-2c0.7,0,1.4,0,2.1,0
		C8.1,6,8.1,3.9,8.1,1.9z"/>
	<path class="st0" d="M0,8.1c1.5,0,3.1,0.1,4.6,0c0,2.9,0,5.9,0,8.8c0.7,0,1.4,0,2.1,0c0,0.7,0,1.4,0,2.1H0v-2.1c0.7,0,1.4,0,2.1,0
		c0-2.3,0-4.5,0-6.8c-0.7,0-1.4,0-2.1,0c0-0.6,0-1.2,0-1.7C0.1,8.3,0,8.2,0,8.1C0,8.1,0,8.1,0,8.1z"/>
	<path class="st1" d="M2.4,1.4c0.9-0.3,1.9,0.3,2.1,1.2c0.2,0.9-0.5,2-1.5,2C2.2,4.7,1.4,4,1.3,3.2C1.2,2.4,1.7,1.6,2.4,1.4z"/>
</g>
</svg>
