<?xml version="1.0" encoding="utf-8"?>
<!-- Generator: Adobe Illustrator 19.0.0, SVG Export Plug-In . SVG Version: 6.00 Build 0)  -->
<svg version="1.1" id="Layer_1" xmlns="http://www.w3.org/2000/svg" xmlns:xlink="http://www.w3.org/1999/xlink" x="0px" y="0px"
	 width="8.3px" height="12.9px" viewBox="0 0 8.3 12.9" style="enable-background:new 0 0 8.3 12.9;" xml:space="preserve">
<style type="text/css">
	.st0{fill:#454E72;}
	.st1{fill:#24A9E2;}
</style>
<g id="XMLID_2_">
	<path id="XMLID_4_" class="st0" d="M5.9,4.3c0,0.7-0.3,1.2-0.6,1.7C5,6.4,4.6,6.7,4.2,7.1c-1.1,1.1-1.8,2.4-2.3,3.8
		c-0.1,0.3-0.2,0.6-0.2,0.9c0,0.1-0.1,0.1-0.2,0.1c-1.8-1.6-2-4.4-0.3-6.1c0.2-0.2,0.5-0.4,0.7-0.6c0.9-0.9,1.5-2,1.8-3.4
		c0.1-0.5,0.1-1.1,0.1-1.6c0,0,0-0.1,0-0.1c0.1,0,0.1,0,0.1,0.1C4.3,0.5,4.7,1,5.1,1.5C5.6,2.3,5.8,3.1,5.9,4
		C5.9,4.1,5.9,4.2,5.9,4.3z"/>
	<path id="XMLID_3_" class="st1" d="M4.2,12.9c-0.5,0-0.9-0.1-1.4-0.2c-0.1,0-0.1,0-0.1-0.1c0-0.1,0-0.1,0.1-0.1
		c0.2,0,0.4-0.2,0.5-0.4c0-0.1,0.1-0.2,0.1-0.3c0.1-0.7,0.4-1.3,0.8-1.9c0.4-0.5,0.9-1,1.4-1.5C6.4,7.5,7,6.6,7.4,5.5
		c0,0,0-0.1,0.1-0.1c0.1,0,0.1,0.1,0.1,0.1c0.3,0.6,0.5,1.2,0.6,1.8C8.3,7.9,8.4,8.4,8.3,9c-0.1,1.2-0.6,2.3-1.6,3
		C6,12.6,5.1,12.9,4.2,12.9z"/>
</g>
</svg>
