<?xml version="1.0" encoding="utf-8"?>
<!-- Generator: Adobe Illustrator 22.1.0, SVG Export Plug-In . SVG Version: 6.00 Build 0)  -->
<svg version="1.1" id="Слой_1" xmlns="http://www.w3.org/2000/svg" xmlns:xlink="http://www.w3.org/1999/xlink" x="0px" y="0px"
	 width="20px" height="20px" viewBox="0 0 20 20" style="enable-background:new 0 0 20 20;" xml:space="preserve">
<g id="cex-logo.eps">
	<path style="fill:#36BBC8;" d="M9.7,0H20c0,0.8,0,1.7,0,2.5c-3,0-6,0-9,0c-0.3,0-0.7,0-1,0c-1.3,0-2.5,0.3-3.6,0.9
		C5,4.2,3.9,5.4,3.2,6.8c-0.6,1.2-0.8,2.7-0.7,4c0.1,1.3,0.6,2.5,1.3,3.6c0.6,0.9,1.4,1.6,2.4,2.2c1.2,0.7,2.5,1,3.9,1
		c3.3,0,6.6,0,9.9,0c0,0.8,0,1.7,0,2.5H9.3c-1.4-0.1-2.8-0.5-4.1-1.2c-1.7-0.9-3.1-2.4-4-4.1c-0.7-1.3-1.1-2.8-1.2-4.3V9.6
		C0.1,8,0.5,6.5,1.2,5.2c0.9-1.7,2.4-3.1,4.1-4C6.7,0.4,8.1,0.1,9.7,0z M9.2,4.4c0.2,0,0.5,0,0.7-0.1c1.1,0,2.2,0,3.3,0
		c0.2,0.2,0.4,0.4,0.6,0.7c0.6,0.6,1.2,1.2,1.9,1.9c-1.6,0-3.2,0-4.8,0c-0.4,0-0.8,0-1.2,0C9,7,8.3,7.3,7.8,7.8
		C7.2,8.4,6.9,9.1,6.9,9.9c0,0.6,0.2,1.3,0.5,1.8c0.4,0.6,1,1.1,1.7,1.3c0.4,0.1,0.7,0.1,1.1,0.1c1.8,0,3.6,0,5.4,0
		c-0.8,0.8-1.7,1.7-2.5,2.5c-1.1,0-2.2,0-3.3,0c-1,0-2-0.3-2.8-0.8c-1-0.6-1.9-1.6-2.3-2.8c-0.4-1.1-0.5-2.3-0.2-3.4
		c0.3-1.2,1-2.2,1.9-3C7.3,5,8.2,4.6,9.2,4.4z M15.6,4.4c1.5,0,2.9,0,4.4,0c0,0.8,0,1.7,0,2.5c-0.6,0-1.2,0-1.8,0
		c-0.3-0.2-0.5-0.5-0.8-0.8C16.8,5.5,16.2,4.9,15.6,4.4z M8.9,9.4C9.1,9,9.6,8.7,10,8.7c2.5,0,5,0,7.5,0c0.4,0.4,0.8,0.8,1.2,1.3
		c-0.4,0.4-0.8,0.8-1.3,1.3c-2.4,0-4.8,0-7.3,0c-0.1,0-0.3,0-0.4,0c-0.4-0.1-0.7-0.3-0.9-0.6C8.7,10.3,8.7,9.8,8.9,9.4z M15.6,15.6
		c0.8-0.8,1.7-1.7,2.5-2.5c0.6,0,1.3,0,1.9,0c0,0.8,0,1.7,0,2.5C18.5,15.6,17.1,15.6,15.6,15.6z"/>
</g>
</svg>
