<?xml version="1.0" encoding="utf-8"?>
<!-- Generator: Adobe Illustrator 22.1.0, SVG Export Plug-In . SVG Version: 6.00 Build 0)  -->
<svg version="1.1" id="Слой_1" xmlns="http://www.w3.org/2000/svg" xmlns:xlink="http://www.w3.org/1999/xlink" x="0px" y="0px"
	 width="20px" height="13.8px" viewBox="0 0 20 13.8" style="enable-background:new 0 0 20 13.8;" xml:space="preserve">
<g>
	<path style="fill:#FDD102;" d="M5.9,2.9H5.4C2.4,2.9,0,5.4,0,8.4s2.4,5.4,5.4,5.4h0.4h2.9v-2.9H5.9H5.4c-1.4,0-2.5-1.1-2.5-2.5
		S4,5.8,5.4,5.8h0.4v2.6h2.9V5.8V2.9L5.9,2.9L5.9,2.9z"/>
	<path style="fill:#FDD102;" d="M14.6,2.9h-0.4L11.2,0v2.9v2.9v2.6h2.9V5.8h0.4c1.4,0,2.5,1.1,2.5,2.5s-1.1,2.5-2.5,2.5h-0.4h-2.9
		v2.9h2.9h0.4c3,0,5.4-2.4,5.4-5.4S17.6,2.9,14.6,2.9z"/>
</g>
</svg>
