<?xml version="1.0" encoding="utf-8"?>
<!-- Generator: Adobe Illustrator 22.1.0, SVG Export Plug-In . SVG Version: 6.00 Build 0)  -->
<svg version="1.1" id="Слой_1" xmlns="http://www.w3.org/2000/svg" xmlns:xlink="http://www.w3.org/1999/xlink" x="0px" y="0px"
	 width="20px" height="18.6px" viewBox="0 0 20 18.6" style="enable-background:new 0 0 20 18.6;" xml:space="preserve">
<g>
	<path style="fill:#C3C4C6;" d="M6.3,8.2c-0.8,0.1-1.4,1.6-1.4,2.3c0,1.1-0.2,1.6,1,2.7c1-0.1,3.7,0.8,4.3,2.4
		c0.1,0.3,1.2,0.3,1.7,0.9c1.4,0,2.4-1.5,6,1.8c0.6,0,0.6-0.1,0.6-0.8c0-0.2-2.1-3.1-2.4-3.2c-0.3-0.8-4-0.1-4.7-1.1
		c0-0.1-1.4-1-1.6-1.4c-0.1-0.3-1.5-2.3-2-2.5C7.8,9,6.3,8.2,6.3,8.2z"/>
	<path style="fill:#060013;" d="M1.6,0.4C2.1,0.2,2.6,0,3.2,0c0.3,0,0.6,0,1,0.1c1.1,0.2,2,0.8,2.8,1.5c0.3,0.3,0.3,0.7,0,1
		C6.6,2.8,6.2,2.8,6,2.5C5.3,1.9,4.5,1.4,3.7,1.3C3,1.2,2.2,1.4,1.8,1.9c-0.6,0.6-0.6,1.7,0,2.4C2.1,4.7,2.6,4.9,3.1,5
		C4,5,4.9,4.7,5.8,4.3C6.6,3.9,7.6,3.8,8.5,4c1,0.2,1.9,0.8,2.7,1.6c0.8,0.8,1.5,1.7,2.4,2.5c0.1,0.1,0.2,0.2,0.3,0.3
		c-0.4,0.3-0.9,0.3-1.3,0.1c-0.4-0.3-0.7-0.7-1-1.1c-0.1-0.1-0.2-0.2-0.4-0.2c-0.2,0-0.3,0.2-0.3,0.3c-0.2,0.7-0.4,1.3-0.6,2
		c-0.1,0.5-0.1,1.1,0.1,1.6c0.3,0.6,0.8,1,1.3,1.3c0.3,0.2,0.7,0.4,1.1,0.5c0.4,0,0.9-0.1,1.2-0.4c0.4-0.3,0.7-0.5,1.1-0.8
		c0.3-0.2,0.7-0.3,1.1-0.1c0.3,0.1,0.6,0.5,0.7,0.8c0.6,1.3,1.2,2.6,1.8,3.8c0.2,0.4,0.5,0.7,0.8,1c0.2,0.2,0.5,0.4,0.4,0.7
		c0,0.3-0.3,0.6-0.6,0.6c-0.3,0-0.6,0-0.8,0c-0.6-0.2-1-0.7-1.3-1.1c-0.6-0.8-1.2-1.7-1.8-2.5c-0.2-0.2-0.4-0.4-0.7-0.5
		c-0.2,0-0.3-0.1-0.5-0.1c-0.3-0.1-0.7,0-1,0c-0.2,0-0.4,0-0.6,0c-0.1,0-0.2,0.1-0.2,0.2c0,0.2,0,0.3,0,0.4c0.1,0.5,0.1,1.3-0.5,1.5
		c-0.4,0.1-0.8,0-1.1-0.2c-0.5-0.4-0.6-1.2-0.8-1.8c-0.2-0.5-0.4-1-0.6-1.5c-0.5-1-1.2-2-2.2-2.5c-0.1-0.1-0.2-0.1-0.3-0.2
		c-0.3-0.1-0.6-0.2-0.9-0.2c-0.2,0.1-0.1,0.3-0.1,0.4c0.2,0.4,0.4,0.7,0.7,1.1c0.1,0.3,0.3,0.5,0.3,0.9c0,0.6-0.5,0.7-1,0.7
		c-0.4,0-0.8-0.1-1.1-0.3c-0.2-0.2-0.3-0.4-0.5-0.7c-0.4-0.6-0.7-1.3-1-1.9C3,9.7,3,9.1,3.2,8.5C3.5,7.8,3.7,7,4,6.3
		c-0.6,0-1.2,0.1-1.8-0.1C1.5,5.9,0.8,5.4,0.4,4.6C0,3.9-0.1,3.1,0.1,2.3C0.3,1.5,0.9,0.8,1.6,0.4z M14.7,7.5
		c0.1-0.1,0.2-0.3,0.4-0.3c0.2,0,0.3,0.1,0.4,0.2c0.1,0.3,0.2,0.5,0.3,0.8c0.1,0.5,0.3,1,0.3,1.5c-0.6-0.2-1.2-0.5-1.7-0.9
		c-0.2-0.2-0.4-0.3-0.6-0.5C14.1,8.1,14.4,7.8,14.7,7.5z M11,10.3c0.3-0.1,0.6-0.2,0.9-0.2c0.2,0,0.3,0.2,0.3,0.4
		c0,0.2,0,0.4-0.1,0.6c-0.3,0-0.6,0-0.8-0.2C11.2,10.8,11.1,10.5,11,10.3z M13.8,10.3c0.1-0.1,0.2-0.2,0.4-0.2
		c0.3,0,0.5,0.1,0.8,0.2c-0.1,0.2-0.1,0.5-0.3,0.6c-0.2,0.2-0.5,0.2-0.8,0.2C13.7,10.8,13.7,10.5,13.8,10.3z M12.3,11.7
		c0.3-0.1,1.2-0.1,1.5,0c-0.1,0.1-0.3,0.2-0.4,0.3c-0.1,0.1-0.2,0.2-0.3,0.4c0,0-0.1,0-0.1,0c-0.1-0.2-0.3-0.4-0.4-0.5
		C12.4,11.8,12.3,11.8,12.3,11.7z"/>
</g>
</svg>
