<?xml version="1.0" encoding="utf-8"?>
<!-- Generator: Adobe Illustrator 22.1.0, SVG Export Plug-In . SVG Version: 6.00 Build 0)  -->
<svg version="1.1" id="Слой_1" xmlns="http://www.w3.org/2000/svg" xmlns:xlink="http://www.w3.org/1999/xlink" x="0px" y="0px"
	 width="20px" height="20px" viewBox="0 0 20 20" style="enable-background:new 0 0 20 20;" xml:space="preserve">
<path style="fill:#004B6A;" d="M16.4,2.3c0.1,0.1,0.2,0.3,0,0.5C16.4,3,16.1,3,16,2.9c-0.1-0.1-0.2-0.3,0-0.5
	C16.1,2.2,16.3,2.2,16.4,2.3z M11.7,0.2c0.2,0,0.3,0.2,0.3,0.4c0,0.2-0.2,0.3-0.4,0.3c-0.2,0-0.3-0.2-0.3-0.4
	C11.4,0.2,11.6,0.1,11.7,0.2z M13.4,0.6c0.2,0.1,0.3,0.3,0.2,0.4c-0.1,0.2-0.3,0.3-0.4,0.2C13,1.2,12.9,1,13,0.8
	C13.1,0.6,13.2,0.5,13.4,0.6z M15,1.3c0.2,0.1,0.2,0.3,0.1,0.5C15,2,14.8,2,14.7,1.9c-0.2-0.1-0.2-0.3-0.1-0.5
	C14.6,1.3,14.8,1.2,15,1.3z M17.7,3.6c0.1,0.1,0.1,0.4,0,0.5c-0.1,0.1-0.4,0.1-0.5,0c-0.1-0.1-0.1-0.4,0-0.5
	C17.3,3.4,17.5,3.4,17.7,3.6z M18.7,5c0.1,0.2,0,0.4-0.1,0.5c-0.2,0.1-0.4,0-0.5-0.1C18,5.2,18,5,18.2,4.9C18.4,4.8,18.6,4.8,18.7,5
	z M19.4,6.6c0.1,0.2,0,0.4-0.2,0.4c-0.2,0.1-0.4,0-0.4-0.2c-0.1-0.2,0-0.4,0.2-0.4C19.1,6.3,19.3,6.4,19.4,6.6z M19.8,8.3
	c0,0.2-0.1,0.4-0.3,0.4c-0.2,0-0.4-0.1-0.4-0.3c0-0.2,0.1-0.4,0.3-0.4C19.6,8,19.8,8.1,19.8,8.3z M20,10c0,0.2-0.2,0.3-0.3,0.3
	c-0.2,0-0.3-0.1-0.3-0.3s0.2-0.3,0.3-0.3C19.8,9.7,20,9.8,20,10z M19.8,11.7c0,0.2-0.2,0.3-0.4,0.3c-0.2,0-0.3-0.2-0.3-0.4
	c0-0.2,0.2-0.3,0.4-0.3C19.8,11.4,19.9,11.6,19.8,11.7z M19.4,13.4c-0.1,0.2-0.3,0.3-0.4,0.2c-0.2-0.1-0.3-0.3-0.2-0.4
	c0.1-0.2,0.3-0.3,0.4-0.2C19.4,13.1,19.5,13.2,19.4,13.4z M18.7,15c-0.1,0.2-0.3,0.2-0.5,0.1C18,15,18,14.8,18.1,14.7
	c0.1-0.2,0.3-0.2,0.5-0.1C18.7,14.6,18.8,14.8,18.7,15z M17.7,16.4c-0.1,0.1-0.3,0.2-0.5,0c-0.1-0.1-0.2-0.3,0-0.5
	c0.1-0.1,0.3-0.2,0.5,0C17.8,16.1,17.8,16.3,17.7,16.4z M16.4,17.7c-0.1,0.1-0.4,0.1-0.5,0c-0.1-0.1-0.1-0.4,0-0.5
	c0.1-0.1,0.4-0.1,0.5,0C16.6,17.3,16.6,17.5,16.4,17.7z M15,18.7c-0.2,0.1-0.4,0-0.5-0.1c-0.1-0.2,0-0.4,0.1-0.5
	c0.2-0.1,0.4,0,0.5,0.1C15.2,18.4,15.2,18.6,15,18.7z M13.4,19.4c-0.2,0.1-0.4,0-0.4-0.2c-0.1-0.2,0-0.4,0.2-0.4
	c0.2-0.1,0.4,0,0.4,0.2C13.7,19.1,13.6,19.3,13.4,19.4z M11.7,19.8c-0.2,0-0.4-0.1-0.4-0.3c0-0.2,0.1-0.4,0.3-0.4
	c0.2,0,0.4,0.1,0.4,0.3C12,19.6,11.9,19.8,11.7,19.8z M10,20c-0.2,0-0.3-0.2-0.3-0.3c0-0.2,0.1-0.3,0.3-0.3s0.3,0.2,0.3,0.3
	C10.3,19.8,10.2,20,10,20z M8.3,19.8c-0.2,0-0.3-0.2-0.3-0.4c0-0.2,0.2-0.3,0.4-0.3c0.2,0,0.3,0.2,0.3,0.4
	C8.6,19.8,8.4,19.9,8.3,19.8z M6.6,19.4c-0.2-0.1-0.3-0.3-0.2-0.4c0.1-0.2,0.3-0.3,0.4-0.2C7,18.8,7.1,19,7,19.2
	C6.9,19.4,6.8,19.5,6.6,19.4z M5,18.7c-0.2-0.1-0.2-0.3-0.1-0.5C5,18,5.2,18,5.3,18.1c0.2,0.1,0.2,0.3,0.1,0.5
	C5.4,18.7,5.2,18.8,5,18.7z M3.6,17.7c-0.1-0.1-0.2-0.3,0-0.5C3.6,17,3.9,17,4,17.1c0.1,0.1,0.2,0.3,0,0.5
	C3.9,17.8,3.7,17.8,3.6,17.7z M2.3,16.4c-0.1-0.1-0.1-0.4,0-0.5c0.1-0.1,0.4-0.1,0.5,0c0.1,0.1,0.1,0.4,0,0.5
	C2.7,16.6,2.5,16.6,2.3,16.4z M1.3,15c-0.1-0.2,0-0.4,0.1-0.5c0.2-0.1,0.4,0,0.5,0.1C2,14.8,2,15,1.8,15.1C1.6,15.2,1.4,15.2,1.3,15
	z M0.6,13.4c-0.1-0.2,0-0.4,0.2-0.4c0.2-0.1,0.4,0,0.4,0.2c0.1,0.2,0,0.4-0.2,0.4C0.9,13.7,0.7,13.6,0.6,13.4z M0.2,11.7
	c0-0.2,0.1-0.4,0.3-0.4s0.4,0.1,0.4,0.3c0,0.2-0.1,0.4-0.3,0.4C0.4,12,0.2,11.9,0.2,11.7z M0,10c0-0.2,0.2-0.3,0.3-0.3
	c0.2,0,0.3,0.1,0.3,0.3s-0.2,0.3-0.3,0.3C0.2,10.3,0,10.2,0,10z M0.2,8.3C0.2,8.1,0.4,8,0.5,8c0.2,0,0.3,0.2,0.3,0.4
	c0,0.2-0.2,0.3-0.4,0.3C0.2,8.6,0.1,8.4,0.2,8.3z M0.6,6.6C0.7,6.4,0.9,6.3,1,6.4c0.2,0.1,0.3,0.3,0.2,0.4C1.2,7,1,7.1,0.8,7
	C0.6,6.9,0.5,6.8,0.6,6.6z M1.3,5c0.1-0.2,0.3-0.2,0.5-0.1C2,5,2,5.2,1.9,5.3C1.8,5.5,1.6,5.6,1.5,5.5C1.3,5.4,1.2,5.2,1.3,5z
	 M2.3,3.6c0.1-0.1,0.3-0.2,0.5,0C3,3.6,3,3.9,2.9,4C2.7,4.1,2.5,4.2,2.4,4C2.2,3.9,2.2,3.7,2.3,3.6z M3.6,2.3c0.1-0.1,0.4-0.1,0.5,0
	c0.1,0.1,0.1,0.4,0,0.5C3.9,3,3.6,3,3.5,2.8C3.4,2.7,3.4,2.5,3.6,2.3z M5,1.3c0.2-0.1,0.4,0,0.5,0.1c0.1,0.2,0,0.4-0.1,0.5
	C5.2,2,5,2,4.9,1.8C4.8,1.6,4.8,1.4,5,1.3z M6.6,0.6c0.2-0.1,0.4,0,0.4,0.2C7.1,1,7,1.2,6.8,1.2C6.6,1.3,6.4,1.2,6.4,1
	C6.3,0.9,6.4,0.7,6.6,0.6z M8.3,0.2c0.2,0,0.4,0.1,0.4,0.3S8.6,0.8,8.4,0.8C8.2,0.8,8,0.7,8,0.5C8,0.4,8.1,0.2,8.3,0.2z M10,0
	c0.2,0,0.3,0.2,0.3,0.3c0,0.2-0.1,0.3-0.3,0.3S9.7,0.5,9.7,0.3C9.7,0.2,9.8,0,10,0z M8.7,8.8c0.1,0,0.2,0.1,0.2,0.2v4.2
	c0,0.1-0.1,0.2-0.2,0.2H8.2c-0.1,0-0.2-0.1-0.2-0.2v-3.1V10c0-0.1-0.1-0.2-0.2-0.2H7.4c-0.1,0-0.2,0.1-0.2,0.2v0.1v3.1
	c0,0.1-0.1,0.2-0.2,0.2H6.8v0H4c-0.2,0-0.4,0-0.5-0.1l-1.8-0.9h4.1h0.1c0.2,0,0.4-0.2,0.4-0.4V12V9c0-0.1,0.1-0.2,0.2-0.2
	C7.2,8.8,7.9,8.8,8.7,8.8z M10,6.5c0.8,0,1.5,0,2.3,0c0.1,0,0.2,0.1,0.2,0.2v7.9c0,0.1-0.1,0.2-0.2,0.2h-0.6c-0.1,0-0.2-0.1-0.2-0.2
	V7.8V7.7c0-0.1-0.1-0.2-0.2-0.2h-0.2c-0.1,0-0.2,0.1-0.2,0.2v0.1v6.8c0,0.1-0.1,0.2-0.2,0.2h-0.3v0H6.9c-0.1,0-0.3,0-0.4-0.1l-2.1-1
	l0,0h5h0.1c0.1,0,0.2-0.1,0.2-0.2v-0.1V6.7C9.8,6.6,9.9,6.5,10,6.5z M13.4,14.7v0.3c0,0.1-0.1,0.2-0.2,0.2H13H7.5l2,0.9
	c0.1,0.1,0.2,0.1,0.4,0.1h3.7H14h0.2c0.1,0,0.2-0.1,0.2-0.2V5.5l0,0c0-0.1,0.1-0.2,0.2-0.2h0.2c0.1,0,0.2,0.1,0.2,0.2l0,0V16
	c0,0.1,0.1,0.2,0.2,0.2H16c0.1,0,0.2-0.1,0.2-0.2V4.5c0-0.1-0.1-0.2-0.2-0.2c-0.8,0-1.6,0-2.4,0c-0.1,0-0.2,0.1-0.2,0.2L13.4,14.7
	L13.4,14.7z"/>
</svg>
