<?xml version="1.0" encoding="utf-8"?>
<!-- Generator: Adobe Illustrator 19.0.0, SVG Export Plug-In . SVG Version: 6.00 Build 0)  -->
<svg version="1.1" id="Layer_1" xmlns="http://www.w3.org/2000/svg" xmlns:xlink="http://www.w3.org/1999/xlink" x="0px" y="0px"
	 width="13.8px" height="10.7px" viewBox="0 0 13.8 10.7" style="enable-background:new 0 0 13.8 10.7;" xml:space="preserve">
<style type="text/css">
	.st0{fill:#1E84B7;}
</style>
<path id="XMLID_2_" class="st0" d="M0,9.8c0,0,0-0.1,0-0.1c0-0.2,0-0.3,0-0.5c0-0.6,0-1.2,0-1.9C0,7.1,0,7,0,6.9c0-0.1,0-0.1,0-0.2
	c0,0,0-0.1,0-0.1c0,0,0-0.1,0-0.1c0-0.1,0-0.2,0-0.2c0.1-0.2,0-0.4,0.1-0.6c0.1-1.2,0.7-2.3,1.4-3.3c0.9-1.2,2.2-1.9,3.6-2.3
	C5.4,0.1,5.7,0.1,6,0c0.7-0.1,1.4,0,2,0c0.8,0.1,1.4,0.3,2.1,0.7c0.6,0.3,1.2,0.7,1.7,1.2c0.7,0.7,1.2,1.5,1.5,2.4
	c0.3,0.7,0.4,1.5,0.4,2.2c0,0.9,0,1.8,0,2.7c0,0.2,0,0.4,0,0.6c0,0.5-0.3,0.8-0.8,0.8c-0.1,0-0.2,0-0.3,0c-0.5,0-0.8-0.3-0.8-0.8
	c0-0.2,0-0.4,0-0.6c0-0.8,0-1.5,0-2.3c0-0.2,0-0.3-0.1-0.5c-0.1-0.4-0.4-0.6-0.8-0.6c-0.4,0-0.6,0.2-0.8,0.5
	C9.9,6.7,9.9,6.9,9.9,7.1c0,0.8,0,1.6,0,2.4c0,0.1,0,0.2,0,0.3c0,0.5-0.3,0.9-0.9,0.9c-0.1,0-0.2,0-0.4,0c-0.6,0-0.8-0.5-0.9-0.9
	c0-0.5,0-0.9,0-1.4c0-0.4,0-0.9,0-1.3c0-0.2,0-0.3-0.1-0.5C7.6,6.2,7.2,6,6.9,5.9c-0.4,0-0.7,0.3-0.8,0.6C6,6.7,6,6.9,6,7
	c0,0.8,0,1.5,0,2.3c0,0.1,0,0.2,0,0.3c0,0.6-0.3,0.9-0.9,1c-0.1,0-0.2,0-0.4,0c-0.6-0.1-0.8-0.4-0.8-1c0-0.8,0-1.6,0-2.4
	c0-0.2,0-0.4-0.1-0.7C3.7,6.2,3.3,5.9,2.8,6C2.4,6,2.1,6.4,2.1,6.8c0,0.8,0,1.7,0,2.5c0,0.1,0,0.3,0,0.4c-0.1,0.6-0.3,0.8-0.9,0.9
	c-0.1,0-0.2,0-0.4,0c-0.1-0.1-0.3,0-0.4-0.1C0.2,10.4,0.1,10.2,0,10C0,9.9,0,9.8,0,9.8z"/>
</svg>
