<?xml version="1.0" encoding="utf-8"?>
<!-- Generator: Adobe Illustrator 19.0.0, SVG Export Plug-In . SVG Version: 6.00 Build 0)  -->
<svg version="1.1" id="Layer_1" xmlns="http://www.w3.org/2000/svg" xmlns:xlink="http://www.w3.org/1999/xlink" x="0px" y="0px"
	 width="11.6px" height="11.6px" viewBox="0 0 11.6 11.6" style="enable-background:new 0 0 11.6 11.6;" xml:space="preserve">
<style type="text/css">
	.st0{fill:#F3BA2C;}
</style>
<g id="XMLID_2_">
	<path id="XMLID_7_" class="st0" d="M3.5,4.9l2.3-2.3l2.3,2.3l1.3-1.3L5.8,0L2.2,3.6L3.5,4.9"/>
	<path id="XMLID_6_" class="st0" d="M0,5.8l1.3-1.3l1.3,1.3L1.3,7.1L0,5.8z"/>
	<path id="XMLID_5_" class="st0" d="M3.5,6.7L5.8,9l2.3-2.3L9.4,8l0,0l-3.6,3.6L2.2,8l0,0L3.5,6.7"/>
	<path id="XMLID_4_" class="st0" d="M9,5.8l1.3-1.3l1.3,1.3l-1.3,1.3L9,5.8z"/>
	<path id="XMLID_3_" class="st0" d="M7.1,5.8L7.1,5.8L5.8,4.5l-1,1h0L4.7,5.6L4.5,5.8l0,0l0,0l1.3,1.3L7.1,5.8L7.1,5.8L7.1,5.8"/>
</g>
</svg>
