<?xml version="1.0" encoding="utf-8"?>
<!-- Generator: Adobe Illustrator 22.1.0, SVG Export Plug-In . SVG Version: 6.00 Build 0)  -->
<svg version="1.1" id="Слой_1" xmlns="http://www.w3.org/2000/svg" xmlns:xlink="http://www.w3.org/1999/xlink" x="0px" y="0px"
	 width="16.5px" height="20px" viewBox="0 0 16.5 20" style="enable-background:new 0 0 16.5 20;" xml:space="preserve">
<linearGradient id="SVGID_1_" gradientUnits="userSpaceOnUse" x1="0" y1="532" x2="16.5054" y2="532" gradientTransform="matrix(1 0 0 -1 0 542)">
	<stop  offset="0" style="stop-color:#50B948"/>
	<stop  offset="1" style="stop-color:#50B948"/>
</linearGradient>
<path style="fill:url(#SVGID_1_);" d="M11.9,0.3c0.4-0.4,1.1-0.4,1.5,0c0.3,0.3,0.5,0.9,0.3,1.3c-0.1,0.3-0.3,0.5-0.5,0.7
	c0,0.8,0,1.6,0,2.4c0.8,0.1,1.6,0.4,2.1,1C15.9,6.2,16.1,7,16,7.8c-0.1,0.8-0.6,1.5-1.3,1.8c0.7,0.3,1.3,0.8,1.6,1.5
	c0.4,0.8,0.4,1.8,0.1,2.6c-0.3,0.7-0.9,1.2-1.6,1.5c-0.5,0.2-1,0.3-1.5,0.3c0,0.8,0,1.5,0,2.3c0.2,0.2,0.4,0.4,0.5,0.7
	c0.2,0.5,0,1.1-0.4,1.4c-0.3,0.2-0.7,0.2-1,0.2c-0.5-0.1-0.8-0.6-0.8-1.1c0-0.4,0.2-0.8,0.6-1c0-0.8,0-1.5,0-2.3c-0.4,0-0.7,0-1.1,0
	c0,0.5,0.1,0.9,0,1.4c-0.1,0.3-0.4,0.4-0.6,0.4c-1.4,0-2.8,0-4.2,0c-0.4,0-0.9,0.1-1.3-0.1c-0.3-0.1-0.3-0.4-0.3-0.6
	c0-0.6,0-1.2,0-1.8c0-0.1,0-0.2,0-0.2c-0.9-0.1-1.9,0-2.8,0c-0.4,0-0.8,0.1-1.2,0c-0.2,0-0.4-0.1-0.5-0.4C0,14,0,13.8,0,13.5
	c0-1.8,0-3.5,0-5.3c0-0.2,0-0.4,0.2-0.5c0.1-0.1,0.3-0.1,0.4-0.2c0.4,0,0.9,0,1.3,0c0-0.3,0-0.7,0-1C1.7,6.4,1.5,6.2,1.4,5.9
	c-0.2-0.4,0-1,0.3-1.3c0.4-0.3,1-0.4,1.4-0.1c0.6,0.3,0.7,1.1,0.4,1.7C3.3,6.3,3.2,6.4,3,6.6c0,0.6,0.1,1.2,0,1.8
	c0,0.2-0.2,0.3-0.4,0.4c-0.5,0.1-1,0-1.5,0c0,1.6,0,3.1,0,4.7c1.3,0.1,2.6,0,4,0c0.2,0,0.4,0.1,0.4,0.2c0.1,0.2,0.1,0.4,0.1,0.7
	c0,0.6,0,1.2,0,1.8c1.4,0,2.8,0,4.2,0c0-0.2,0-0.4,0-0.6c-0.6,0-1.1,0-1.7,0c-0.5,0-1.1-0.1-1.4-0.5c-0.4-0.5-0.3-1.1-0.3-1.6
	c0.7,0,1.3,0,2,0c0-2.2,0-4.4,0-6.6c-0.7,0-1.3,0-2,0c0-0.4,0-0.9,0.2-1.3C6.8,5,7.1,4.8,7.5,4.7c0.4-0.1,0.9-0.1,1.4-0.1
	c0.3,0,0.7,0,1,0c0-0.2,0-0.5,0-0.7c-0.1,0-0.3,0-0.4,0c-1.2,0-2.5,0-3.7,0c0,1.3,0,2.6,0,3.9C6.2,7.8,6.6,7.7,7,7.8
	c0.3,0.1,0.3,0.5,0.3,0.8c0,0.9,0,1.7,0,2.6c0,0.2,0,0.4-0.2,0.6c-0.1,0.1-0.3,0.1-0.5,0.1c-0.8,0-1.7,0-2.5,0
	c-0.2,0.2-0.3,0.4-0.5,0.5c-0.5,0.2-1,0-1.4-0.3C2,11.7,1.9,11.3,2,10.9c0.1-0.4,0.5-0.7,0.9-0.8c0.3-0.1,0.6,0,0.9,0.2
	c0.1,0.1,0.2,0.3,0.4,0.4c0.2,0.1,0.4,0,0.6,0c0.5,0,1,0,1.5,0c0.1-0.6,0-1.2,0-1.8c-0.4,0-0.8,0.1-1.1,0c-0.2,0-0.4-0.2-0.4-0.4
	c0-0.3,0-0.6,0-0.9c0-1.2,0-2.4,0-3.6c0-0.3-0.1-0.7,0.1-1C4.8,2.8,5,2.7,5.2,2.7c1.2,0,2.4,0,3.6,0c0.6,0,1.1-0.1,1.7,0
	c0.2,0,0.4,0.1,0.4,0.3c0.1,0.5,0.1,1,0,1.5c0.4,0,0.7,0,1.1,0c0-0.8,0-1.5,0-2.3C12,2.1,11.8,2,11.7,1.8
	C11.5,1.3,11.5,0.7,11.9,0.3z M12.6,0.7c-0.2,0-0.3,0.2-0.4,0.3c-0.1,0.2,0,0.5,0.2,0.6c0.3,0.2,0.8,0.1,0.8-0.3
	C13.3,1,13,0.5,12.6,0.7z M2.3,5c-0.4,0.1-0.4,0.8,0,1C2.6,6.2,3.1,5.9,3,5.4C3,5.1,2.6,4.9,2.3,5z M11,6.3c0,0.8,0,1.7,0,2.5
	c0.4,0,0.9,0,1.3,0c0.4,0,0.8-0.2,1-0.5c0.3-0.5,0.3-1.2-0.1-1.6c-0.2-0.2-0.6-0.3-0.9-0.3C11.9,6.3,11.5,6.4,11,6.3z M11,10.7
	c0,1,0,2,0,3.1c0.6,0,1.2,0.1,1.8-0.1c0.4-0.1,0.8-0.4,1-0.8c0.2-0.6,0.1-1.2-0.3-1.7c-0.3-0.3-0.7-0.4-1.1-0.5
	C12,10.7,11.5,10.7,11,10.7z M3,10.8c-0.5,0.1-0.6,0.7-0.2,1c0.3,0.3,0.8,0,0.9-0.4C3.7,11,3.3,10.6,3,10.8z M12.5,18.3
	c-0.4,0.2-0.4,0.8,0,1c0.3,0.2,0.9-0.1,0.8-0.5C13.3,18.4,12.8,18.1,12.5,18.3z"/>
</svg>
