<?xml version="1.0" encoding="utf-8"?>
<!-- Generator: Adobe Illustrator 22.1.0, SVG Export Plug-In . SVG Version: 6.00 Build 0)  -->
<svg version="1.1" id="Слой_1" xmlns="http://www.w3.org/2000/svg" xmlns:xlink="http://www.w3.org/1999/xlink" x="0px" y="0px"
	 width="20px" height="20px" viewBox="0 0 20 20" style="enable-background:new 0 0 20 20;" xml:space="preserve">
<g>
	<path style="fill:#0693F4;" d="M10,0C4.5,0,0,4.5,0,10s4.5,10,10,10s10-4.5,10-10S15.5,0,10,0z M10,18.5c-4.7,0-8.5-3.8-8.5-8.5
		S5.3,1.5,10,1.5s8.5,3.8,8.5,8.5S14.7,18.5,10,18.5z"/>
	<polygon style="fill:#0693F4;" points="6.7,13.2 8.4,13.2 8.4,9.1 6.7,10 	"/>
	<polygon style="fill:#0693F4;" points="9.1,13.1 10.7,13.1 10.7,7.8 9.1,8.7 	"/>
	<polygon style="fill:#0693F4;" points="11.5,13 13.1,13 13.1,6.5 11.5,7.4 	"/>
</g>
</svg>
