<?xml version="1.0" encoding="utf-8"?>
<!-- Generator: Adobe Illustrator 22.1.0, SVG Export Plug-In . SVG Version: 6.00 Build 0)  -->
<svg version="1.1" id="Слой_1" xmlns="http://www.w3.org/2000/svg" xmlns:xlink="http://www.w3.org/1999/xlink" x="0px" y="0px"
	 width="14.4px" height="19px" viewBox="0 0 14.4 19" style="enable-background:new 0 0 14.4 19;" xml:space="preserve">
<style type="text/css">
	.st0{fill:#F47221;}
	.st1{fill:url(#SVGID_1_);}
	.st2{fill:#D93727;}
</style>
<g>
	<path class="st0" d="M2.8,4.5C3.2,3,3.6,1.5,4,0c1,0,2,0,3,0c0.4,0,0.8,0.1,1.1,0.4C8.6,0.7,8.8,1.4,8.6,2C8.4,2.8,8.2,3.7,7.9,4.5
		C7.5,5.9,7.1,7.4,6.7,8.8C6.7,9.1,6.6,9.4,6.5,9.7c-0.2,0.8-0.4,1.5-0.6,2.3c-0.1,0.4-0.1,0.8-0.1,1.2c0.1,0.4,0.5,0.7,0.9,0.7
		c0.6,0,1.1-0.3,1.4-0.7c0.5-0.6,0.7-1.4,0.8-2.2c0-0.4,0-0.7-0.3-1c0.5-0.6,1.2-1.1,1.7-1.7c0.4-0.4,0.8-0.7,1.2-1.1
		c0.6-0.5,1.1-1.1,1.7-1.6c0.9,1,1.2,2.4,1.2,3.7c-0.1,1.6-0.5,3.2-1.2,4.6c-0.9,1.8-2.3,3.4-4.2,4.2c-1.7,0.8-3.6,1.1-5.4,0.7
		c-1.1-0.2-2.1-0.8-2.7-1.7c-0.7-1-0.8-2.2-0.6-3.4c0.1-0.8,0.4-1.7,0.6-2.5c0.1-0.5,0.3-1.1,0.4-1.6C1.8,8,2.3,6.2,2.8,4.5z"/>
	
		<linearGradient id="SVGID_1_" gradientUnits="userSpaceOnUse" x1="5335.2212" y1="3424.783" x2="5366.0342" y2="3463.7209" gradientTransform="matrix(7.200000e-02 0 0 7.200000e-02 -374.912 -239.792)">
		<stop  offset="0" style="stop-color:#D93727"/>
		<stop  offset="1" style="stop-color:#F47221"/>
	</linearGradient>
	<path class="st1" d="M8.8,11.7c0.1-0.2,0.1-0.5,0.1-0.7c0-0.4,0-0.7-0.3-1C8.5,9.7,8.2,9.7,7.9,9.7c-0.5,0-0.9,0-1.4,0
		c0.1-0.3,0.1-0.6,0.2-0.8c0.4-1.4,0.8-2.9,1.2-4.3c0.8,0,1.6,0,2.4,0c1,0,2.1,0.3,2.9,1.1c0.9,1,1.2,2.4,1.2,3.7
		c0,0.8-0.2,1.6-0.4,2.3H8.8z"/>
	<path class="st2" d="M0.1,7.7C0.4,6.6,0.7,5.6,1,4.5c0.6,0,1.2,0,1.8,0C2.3,6.2,1.8,8,1.4,9.7C1,9.6,0.6,9.4,0.3,9.1
		C0,8.7-0.1,8.2,0.1,7.7z"/>
</g>
</svg>
