<?xml version="1.0" encoding="utf-8"?>
<!-- Generator: Adobe Illustrator 22.1.0, SVG Export Plug-In . SVG Version: 6.00 Build 0)  -->
<svg version="1.1" id="Слой_1" xmlns="http://www.w3.org/2000/svg" xmlns:xlink="http://www.w3.org/1999/xlink" x="0px" y="0px"
	 width="20px" height="13.4px" viewBox="0 0 20 13.4" style="enable-background:new 0 0 20 13.4;" xml:space="preserve">
<g id="CF_diamond.eps">
	<path style="fill:#FFCD00;" d="M9.8,0c0.2,0,0.4,0,0.6,0.1c0.1,0,0.2,0.1,0.1,0.2c0,0.1-0.2,0.2-0.3,0.2c-0.2,0.1-0.4,0.1-0.6,0
		c-0.1,0-0.2-0.1-0.2-0.1c0-0.1,0-0.1,0-0.2C9.6,0.1,9.7,0,9.8,0z M8.5,0.7c0.2,0,0.5,0,0.6,0.1c0.1,0,0.2,0.2,0.1,0.3
		C9.2,1.1,9.1,1.2,8.9,1.2c-0.2,0-0.5,0-0.7-0.1C8.2,1.1,8.1,1,8.1,0.9C8.2,0.7,8.4,0.7,8.5,0.7z M11.1,0.7c0.2,0,0.4,0,0.6,0.1
		c0.1,0.1,0.2,0.2,0.1,0.3c-0.1,0.1-0.2,0.2-0.3,0.2c-0.2,0-0.5,0-0.7-0.1c-0.1-0.1-0.2-0.2-0.1-0.3C10.8,0.7,11,0.7,11.1,0.7z
		 M7.2,1.3c0.2,0,0.4,0,0.6,0.1c0.1,0.1,0.2,0.2,0.1,0.3c0,0.1-0.1,0.2-0.2,0.2C7.4,2,7.2,2,7,1.9c-0.1,0-0.2-0.1-0.3-0.2
		c-0.1-0.1,0-0.2,0-0.3C6.9,1.4,7,1.4,7.2,1.3z M9.8,1.3c0.2,0,0.5,0,0.7,0.1c0.1,0.1,0.1,0.2,0.1,0.3c-0.1,0.1-0.2,0.2-0.3,0.2
		C10,2,9.7,2,9.5,1.9C9.4,1.8,9.4,1.7,9.4,1.6C9.5,1.4,9.7,1.4,9.8,1.3z M12.5,1.3c0.2,0,0.5,0,0.7,0.1c0.1,0,0.2,0.1,0.1,0.2
		c0,0.1-0.1,0.2-0.2,0.2c-0.2,0.1-0.5,0.1-0.7,0c-0.1,0-0.2-0.1-0.3-0.2c-0.1-0.1-0.1-0.2,0-0.2C12.2,1.4,12.3,1.4,12.5,1.3z
		 M5.7,2.1c0.2,0,0.4,0,0.5,0.1c0.1,0,0.2,0.1,0.2,0.2c0,0.1-0.1,0.2-0.2,0.3C6.1,2.7,5.8,2.8,5.6,2.7c-0.1,0-0.3-0.1-0.4-0.2
		c-0.1-0.1-0.1-0.2,0-0.3C5.4,2.2,5.6,2.1,5.7,2.1z M8.5,2.1c0.2,0,0.4,0,0.6,0.1c0.1,0,0.2,0.1,0.2,0.2c0,0.1-0.1,0.2-0.2,0.2
		C8.9,2.8,8.6,2.8,8.4,2.7C8.3,2.7,8.1,2.7,8,2.5C8,2.4,8,2.3,8.1,2.3C8.2,2.1,8.3,2.1,8.5,2.1z M11.2,2.1c0.2,0,0.5,0,0.7,0.1
		C12,2.2,12,2.4,12,2.5c-0.1,0.1-0.2,0.2-0.4,0.2c-0.2,0-0.5,0-0.7-0.1c-0.1-0.1-0.2-0.2-0.1-0.3C10.9,2.1,11,2.1,11.2,2.1z
		 M13.9,2.1c0.2,0,0.5,0,0.6,0.1c0.1,0.1,0.2,0.1,0.2,0.3c0,0.1-0.1,0.2-0.2,0.2c-0.2,0.1-0.4,0.1-0.6,0.1c-0.2,0-0.3-0.1-0.4-0.2
		c-0.1-0.1-0.1-0.2,0-0.3C13.7,2.1,13.8,2.1,13.9,2.1z M4.1,2.9c0.2,0,0.4,0,0.6,0.1C4.8,3,4.9,3,4.9,3.2c0,0.1-0.1,0.2-0.2,0.3
		C4.5,3.6,4.2,3.6,4,3.6c-0.1,0-0.3-0.1-0.4-0.2c-0.1-0.1,0-0.2,0.1-0.3C3.8,2.9,4,2.9,4.1,2.9z M7,2.9c0.2,0,0.5,0,0.7,0.1
		c0.1,0.1,0.1,0.2,0.1,0.3C7.7,3.4,7.5,3.5,7.4,3.5C7.2,3.6,7,3.6,6.8,3.5c-0.1,0-0.2-0.1-0.3-0.2c0-0.1,0-0.2,0-0.3
		C6.7,2.9,6.8,2.9,7,2.9z M9.8,2.9c0.2,0,0.5,0,0.7,0.1c0.1,0.1,0.2,0.2,0.2,0.3c0,0.1-0.1,0.2-0.2,0.3C10.2,3.6,10,3.6,9.7,3.5
		c-0.1,0-0.2-0.1-0.3-0.2c-0.1-0.1,0-0.2,0-0.3C9.5,2.9,9.6,2.9,9.8,2.9z M12.6,2.9c0.2,0,0.5,0,0.7,0.1c0.1,0.1,0.2,0.2,0.2,0.3
		c0,0.1-0.1,0.2-0.2,0.3c-0.2,0.1-0.5,0.1-0.7,0c-0.1,0-0.2-0.1-0.3-0.2c0-0.1,0-0.2,0-0.3C12.4,2.9,12.5,2.9,12.6,2.9z M15.5,2.9
		c0.2,0,0.5,0,0.7,0.1c0.1,0.1,0.2,0.2,0.2,0.3c0,0.1-0.2,0.2-0.3,0.3c-0.3,0.1-0.5,0-0.8-0.1c-0.1-0.1-0.2-0.2-0.2-0.3
		C15.2,2.9,15.3,2.9,15.5,2.9z M2.5,3.7c0.2,0,0.4,0,0.6,0.1C3.1,3.8,3.2,3.9,3.2,4c0,0.1-0.1,0.2-0.2,0.3C2.8,4.5,2.5,4.5,2.3,4.5
		C2.1,4.4,2,4.4,1.9,4.3C1.8,4.2,1.9,4.1,1.9,4C2.1,3.8,2.3,3.7,2.5,3.7z M5.4,3.7c0.2,0,0.5,0,0.6,0.1C6.1,3.9,6.2,4,6.2,4.1
		c0,0.2-0.2,0.2-0.3,0.3c-0.2,0.1-0.5,0.1-0.7,0C5,4.4,4.9,4.3,4.9,4.2c0-0.1,0-0.2,0.1-0.3C5.1,3.8,5.2,3.7,5.4,3.7z M8.3,3.7
		c0.2,0,0.5,0,0.6,0.1C9.1,3.9,9.2,4,9.2,4.1c0,0.1-0.2,0.2-0.3,0.3c-0.2,0.1-0.4,0.1-0.7,0c-0.1,0-0.3-0.1-0.3-0.2
		c-0.1-0.1,0-0.2,0-0.3C8,3.8,8.2,3.7,8.3,3.7z M11.3,3.7c0.2,0,0.5,0,0.7,0.1c0.1,0.1,0.2,0.2,0.2,0.3c0,0.1-0.1,0.2-0.2,0.3
		c-0.2,0.1-0.4,0.1-0.6,0.1c-0.2,0-0.3-0.1-0.4-0.2c-0.1-0.1-0.1-0.2,0-0.3C11,3.8,11.1,3.7,11.3,3.7z M14.2,3.7
		c0.2,0,0.5,0,0.7,0.1C15,3.9,15.1,4,15.1,4.1c0,0.1-0.1,0.2-0.2,0.3c-0.2,0.1-0.5,0.1-0.7,0.1c-0.2,0-0.3-0.1-0.4-0.2
		c-0.1-0.1-0.1-0.2,0-0.3C13.9,3.8,14.1,3.7,14.2,3.7z M17.1,3.7c0.3,0,0.5,0,0.8,0.1C18,3.9,18.1,4,18.1,4.1c0,0.1-0.1,0.2-0.2,0.3
		c-0.2,0.1-0.4,0.1-0.6,0.1c-0.2,0-0.4-0.1-0.5-0.2c-0.1-0.1-0.1-0.2-0.1-0.3C16.9,3.8,17,3.7,17.1,3.7z M0.6,4.6
		c0.2,0,0.4-0.1,0.6,0c0.1,0,0.2,0.1,0.2,0.3c0,0.1-0.1,0.3-0.2,0.3C1,5.4,0.7,5.5,0.5,5.4c-0.2,0-0.3-0.1-0.4-0.2
		C0,5.2,0,5,0.1,4.9C0.2,4.8,0.4,4.7,0.6,4.6z M3.6,4.6c0.2,0,0.5-0.1,0.7,0c0.1,0.1,0.2,0.1,0.2,0.3c0,0.1-0.1,0.2-0.2,0.3
		C4.1,5.4,3.8,5.5,3.5,5.4c-0.1,0-0.3-0.1-0.4-0.2c-0.1-0.1,0-0.2,0.1-0.3C3.3,4.7,3.5,4.7,3.6,4.6z M6.7,4.6c0.2-0.1,0.5,0,0.7,0.1
		C7.5,4.7,7.6,4.8,7.6,5c0,0.1-0.1,0.3-0.2,0.3C7.2,5.4,6.9,5.5,6.7,5.4c-0.2,0-0.3-0.1-0.4-0.2C6.2,5.1,6.2,5,6.3,4.9
		C6.4,4.7,6.5,4.7,6.7,4.6z M9.7,4.6c0.2-0.1,0.5,0,0.7,0.1c0.1,0.1,0.2,0.1,0.2,0.3c0,0.1,0,0.2-0.1,0.3c-0.1,0.1-0.3,0.2-0.5,0.2
		c-0.2,0-0.4,0-0.6-0.2C9.3,5.2,9.3,5.1,9.3,4.9C9.4,4.7,9.6,4.7,9.7,4.6z M12.8,4.6c0.3-0.1,0.6,0,0.8,0.1c0.1,0.1,0.2,0.2,0.2,0.3
		c0,0.1-0.1,0.2-0.2,0.3c-0.2,0.1-0.4,0.1-0.7,0.1c-0.2,0-0.3-0.1-0.5-0.2c-0.1-0.1-0.1-0.2-0.1-0.3C12.5,4.7,12.7,4.6,12.8,4.6z
		 M15.8,4.6c0.2-0.1,0.5,0,0.7,0.1c0.1,0.1,0.2,0.1,0.3,0.2c0.1,0.1,0.1,0.2,0,0.3c-0.1,0.1-0.2,0.2-0.4,0.2c-0.3,0-0.6,0-0.8-0.2
		c-0.1-0.1-0.2-0.2-0.2-0.4C15.5,4.7,15.7,4.7,15.8,4.6z M18.9,4.6c0.3-0.1,0.5,0,0.8,0.1C19.8,4.8,19.9,4.9,20,5
		c0,0.1,0,0.2-0.1,0.3c-0.1,0.1-0.3,0.1-0.4,0.1c-0.3,0-0.5-0.1-0.7-0.2c-0.1-0.1-0.2-0.2-0.2-0.3C18.6,4.7,18.7,4.6,18.9,4.6z
		 M1.9,5.6c0.2,0,0.4,0,0.5,0.1c0.1,0.1,0.2,0.2,0.2,0.3c0,0.1-0.1,0.3-0.2,0.3C2.2,6.4,2,6.5,1.7,6.5c-0.2,0-0.4-0.1-0.5-0.2
		C1.2,6.2,1.2,6,1.3,5.9C1.4,5.7,1.7,5.6,1.9,5.6z M5.1,5.6c0.2,0,0.4,0,0.6,0.1C5.8,5.7,5.9,5.8,5.9,6c0,0.2-0.1,0.3-0.2,0.4
		C5.4,6.5,5.1,6.5,4.8,6.5c-0.1,0-0.3-0.1-0.3-0.3c-0.1-0.1,0-0.3,0.1-0.4C4.7,5.7,4.9,5.6,5.1,5.6z M8.2,5.6c0.2,0,0.5,0,0.6,0.1
		C9,5.7,9.1,5.9,9.1,6c0,0.1-0.1,0.3-0.2,0.3C8.7,6.5,8.4,6.5,8.2,6.5C8,6.5,7.8,6.4,7.7,6.2C7.7,6.1,7.6,6,7.7,5.9
		C7.8,5.7,8,5.6,8.2,5.6z M11.4,5.6c0.2,0,0.5,0,0.7,0.1c0.1,0.1,0.2,0.2,0.2,0.4c0,0.2-0.1,0.3-0.3,0.4c-0.3,0.1-0.7,0.1-1-0.1
		c-0.1-0.1-0.2-0.3-0.2-0.4C11,5.7,11.2,5.6,11.4,5.6z M14.6,5.6c0.3,0,0.6,0,0.8,0.2c0.1,0.1,0.2,0.2,0.2,0.3c0,0.1,0,0.2-0.1,0.3
		c-0.1,0.1-0.3,0.2-0.5,0.2c-0.2,0-0.5-0.1-0.7-0.2c-0.1-0.1-0.2-0.3-0.1-0.4C14.2,5.7,14.4,5.6,14.6,5.6z M17.7,5.6
		c0.3,0,0.6,0,0.8,0.2c0.1,0.1,0.2,0.2,0.2,0.3c0,0.1,0,0.2-0.1,0.3c-0.1,0.1-0.3,0.1-0.4,0.1c-0.3,0-0.5-0.1-0.7-0.2
		c-0.1-0.1-0.2-0.3-0.2-0.4C17.4,5.7,17.6,5.6,17.7,5.6z M3.2,6.6c0.2,0,0.4,0,0.6,0.1C3.9,6.8,4,6.9,4,7c0,0.1,0,0.3-0.1,0.4
		C3.7,7.5,3.4,7.6,3.1,7.6c-0.2,0-0.4-0.1-0.5-0.2C2.5,7.3,2.5,7.1,2.6,7C2.7,6.8,3,6.7,3.2,6.6z M6.5,6.6c0.2,0,0.5,0,0.7,0.1
		c0.1,0.1,0.2,0.2,0.2,0.3c0,0.2-0.1,0.3-0.2,0.4C6.9,7.6,6.6,7.7,6.3,7.6C6.1,7.5,6,7.5,5.9,7.3C5.9,7.2,5.9,7,6,6.9
		C6.1,6.8,6.3,6.7,6.5,6.6z M9.8,6.6c0.3,0,0.6,0,0.8,0.2c0.1,0.1,0.2,0.2,0.2,0.4c0,0.1-0.1,0.2-0.2,0.3C10.3,7.6,10,7.7,9.8,7.6
		c-0.2,0-0.3-0.1-0.4-0.3C9.2,7.2,9.2,7,9.3,6.9C9.4,6.8,9.6,6.7,9.8,6.6z M13.1,6.6c0.3-0.1,0.5,0,0.8,0.1c0.1,0.1,0.2,0.2,0.3,0.3
		c0,0.1,0,0.3-0.1,0.4c-0.2,0.1-0.4,0.2-0.6,0.2c-0.2,0-0.5-0.1-0.7-0.3c-0.1-0.1-0.1-0.3-0.1-0.4C12.7,6.8,12.9,6.7,13.1,6.6z
		 M16.4,6.6c0.3-0.1,0.6,0,0.9,0.2c0.1,0.1,0.2,0.2,0.2,0.3c0,0.1,0,0.3-0.1,0.3c-0.1,0.1-0.3,0.2-0.5,0.2c-0.3,0-0.5-0.1-0.7-0.3
		C16,7.3,15.9,7.1,16,6.9C16,6.8,16.2,6.7,16.4,6.6z M4.6,7.8c0.2,0,0.5,0,0.7,0.1c0.1,0.1,0.2,0.2,0.2,0.3c0,0.2-0.1,0.3-0.2,0.4
		C5,8.9,4.7,8.9,4.4,8.8C4.2,8.8,4.1,8.7,4,8.6C3.9,8.5,3.9,8.3,4,8.1C4.2,7.9,4.4,7.8,4.6,7.8z M8.1,7.8c0.2,0,0.5,0,0.7,0.1
		C8.9,8,9,8.1,9,8.3c0,0.2-0.1,0.3-0.2,0.4C8.6,8.8,8.3,8.9,8,8.8c-0.2,0-0.4-0.1-0.5-0.3c-0.1-0.1-0.1-0.3,0-0.5
		C7.7,7.9,7.9,7.8,8.1,7.8z M11.5,7.8c0.3,0,0.5,0,0.8,0.1c0.1,0.1,0.2,0.2,0.3,0.4c0,0.2-0.1,0.3-0.2,0.4c-0.2,0.1-0.4,0.2-0.6,0.2
		c-0.2,0-0.5-0.1-0.7-0.3c-0.1-0.1-0.1-0.3,0-0.5C11.1,7.9,11.3,7.8,11.5,7.8z M15,7.8c0.3,0,0.6,0,0.8,0.2c0.1,0.1,0.2,0.2,0.2,0.4
		c0,0.1-0.1,0.3-0.2,0.4c-0.2,0.1-0.4,0.2-0.6,0.1c-0.3,0-0.5-0.1-0.7-0.4c-0.1-0.1-0.1-0.3,0-0.5C14.7,7.9,14.8,7.8,15,7.8z M6.2,9
		c0.2,0,0.5,0,0.7,0.1C7,9.2,7.1,9.4,7.1,9.6c0,0.2-0.1,0.4-0.3,0.5c-0.3,0.2-0.7,0.2-1.1,0C5.6,10,5.5,9.8,5.5,9.6
		C5.6,9.3,5.9,9.1,6.2,9z M9.8,9c0.2,0,0.5,0,0.7,0.1c0.2,0.1,0.3,0.3,0.3,0.5c0,0.2-0.1,0.4-0.3,0.5c-0.3,0.2-0.8,0.2-1.1-0.1
		C9.2,9.9,9.1,9.7,9.2,9.5C9.3,9.2,9.5,9.1,9.8,9z M13.4,9c0.2-0.1,0.5,0,0.7,0.1c0.2,0.1,0.3,0.2,0.4,0.4c0.1,0.1,0,0.3-0.1,0.4
		c-0.1,0.2-0.4,0.3-0.6,0.3c-0.3,0-0.6-0.1-0.8-0.3c-0.1-0.1-0.1-0.3-0.1-0.5C13,9.2,13.2,9.1,13.4,9z M7.9,10.4
		c0.3-0.1,0.5,0,0.8,0.1c0.2,0.1,0.3,0.3,0.3,0.4c0,0.2-0.1,0.4-0.3,0.6c-0.3,0.3-0.9,0.3-1.2,0c-0.2-0.1-0.3-0.4-0.2-0.6
		C7.3,10.7,7.6,10.5,7.9,10.4z M11.7,10.4c0.3-0.1,0.6,0,0.9,0.2c0.1,0.1,0.2,0.3,0.2,0.5c0,0.2-0.1,0.4-0.3,0.5
		c-0.4,0.2-0.9,0.2-1.2-0.1c-0.2-0.2-0.3-0.4-0.2-0.6C11.2,10.6,11.4,10.5,11.7,10.4z M9.8,11.9c0.4-0.1,0.9,0.1,1.1,0.5
		c0.1,0.2,0.1,0.5-0.1,0.7c-0.3,0.3-0.9,0.4-1.3,0.2c-0.2-0.1-0.3-0.3-0.4-0.5c0-0.2,0-0.4,0.1-0.5C9.4,12.1,9.6,12,9.8,11.9z"/>
</g>
</svg>
