<?xml version="1.0" encoding="utf-8"?>
<!-- Generator: Adobe Illustrator 22.1.0, SVG Export Plug-In . SVG Version: 6.00 Build 0)  -->
<svg version="1.1" id="Слой_1" xmlns="http://www.w3.org/2000/svg" xmlns:xlink="http://www.w3.org/1999/xlink" x="0px" y="0px"
	 width="20px" height="20px" viewBox="0 0 20 20" style="enable-background:new 0 0 20 20;" xml:space="preserve">
<path style="fill:#DE5959;" d="M7.8,9.8L7.7,9.7c-0.1-0.1-0.4,0-0.4,0.1v2.5c0,0.1,0.1,0.2,0.2,0.2H10c0.2,0,0.3-0.2,0.1-0.4
	c-0.1-0.1-0.1-0.2,0-0.3l2.6-2.7c0.1-0.1,0.1-0.2,0-0.3l-0.2-0.2c-0.1-0.1,0-0.4,0.1-0.4h2.5c0.1,0,0.2,0.1,0.2,0.2V11
	c0,0.2-0.2,0.3-0.4,0.1L14.9,11c-0.1-0.1-0.2-0.1-0.3,0l-4.5,4.5c-0.1,0.1-0.2,0.1-0.3,0L4.4,10c-0.1-0.1-0.1-0.2,0-0.3l7.6-7.6
	c0.1-0.1,0.1-0.2,0-0.3l-1.8-1.8C10.1,0,9.9,0,9.9,0.1L0.1,9.8C0,9.9,0,10.1,0.1,10.1l9.8,9.8c0.1,0.1,0.2,0.1,0.3,0l9.8-9.8
	c0.1-0.1,0.1-0.2,0-0.3l-5.8-5.8C14.1,4,14,4,13.9,4.1L8.1,9.8C8,9.9,7.9,9.9,7.8,9.8L7.8,9.8z"/>
</svg>
