<?xml version="1.0" encoding="utf-8"?>
<!-- Generator: Adobe Illustrator 19.0.0, SVG Export Plug-In . SVG Version: 6.00 Build 0)  -->
<svg version="1.1" id="Layer_1" xmlns="http://www.w3.org/2000/svg" xmlns:xlink="http://www.w3.org/1999/xlink" x="0px" y="0px"
	 width="14px" height="14px" viewBox="0 0 14 14" style="enable-background:new 0 0 14 14;" xml:space="preserve">
<style type="text/css">
	.st0{fill:#8EBCE5;}
	.st1{fill:#4971B7;}
	.st2{fill:#6590CB;}
	.st3{fill:#4364AF;}
	.st4{fill:#405CAA;}
	.st5{fill:#3C54A5;}
	.st6{fill:#3F5CAA;}
	.st7{fill:#4A6EB5;}
</style>
<g id="Path-raw">
	<circle id="Oval" class="st0" cx="7" cy="3.2" r="3.2"/>
	<circle id="Oval-Copy" class="st1" cx="7" cy="10.8" r="3.2"/>
	<circle id="Oval-Copy-2" class="st2" cx="10.8" cy="7" r="3.2"/>
	<circle id="Oval-Copy-3" class="st3" cx="3.2" cy="7" r="3.2"/>
	<path id="Combined-Shape" class="st4" d="M6.2,6.2C5.1,6,4.2,5.1,3.9,3.9C5.1,4.2,6,5.1,6.2,6.2z"/>
	<path id="Combined-Shape_1_" class="st5" d="M3.9,10.1C4.2,8.9,5.1,8,6.2,7.7C6,8.9,5.1,9.8,3.9,10.1z"/>
	<path id="Combined-Shape_2_" class="st6" d="M7.7,7.7c1.1,0.3,2.1,1.2,2.3,2.3C8.9,9.8,8,8.9,7.7,7.7z"/>
	<path id="Combined-Shape_3_" class="st7" d="M10.1,3.9C9.8,5.1,8.9,6,7.7,6.2C8,5.1,8.9,4.2,10.1,3.9z"/>
</g>
</svg>
