<?xml version="1.0" encoding="utf-8"?>
<!-- Generator: Adobe Illustrator 15.0.0, SVG Export Plug-In . SVG Version: 6.00 Build 0)  -->
<!DOCTYPE svg PUBLIC "-//W3C//DTD SVG 1.1//EN" "http://www.w3.org/Graphics/SVG/1.1/DTD/svg11.dtd">
<svg version="1.1" id="Layer_1" xmlns="http://www.w3.org/2000/svg" xmlns:xlink="http://www.w3.org/1999/xlink" x="0px" y="0px"
	 width="21px" height="21px" viewBox="0 0 21 21" enable-background="new 0 0 21 21" xml:space="preserve">
<style type="text/css">
	.st0{stroke:#25435C;fill:none;}
	.st1{fill:#18202D;}
</style>
<path class="st1" d="M17.11,20.146H3.787c-1.727,0-3.125-1.398-3.125-3.125V4.028c0-1.728,1.398-3.125,3.125-3.125H17.11
	c1.726,0,3.125,1.397,3.125,3.125v12.992C20.235,18.747,18.836,20.146,17.11,20.146"/>
<path class="st0" stroke-miterlimit="10" d="M17.11,20.146H3.787c-1.727,0-3.125-1.398-3.125-3.125V4.028
	c0-1.728,1.398-3.125,3.125-3.125H17.11c1.726,0,3.125,1.397,3.125,3.125v12.992C20.235,18.747,18.836,20.146,17.11,20.146z"/>
<path class="st1" d="M20.235,14.601h-7.724c-1.502,0-2.717-1.216-2.717-2.717v-2.63c0-1.5,1.215-2.716,2.717-2.716h7.724V14.601z
	"/>
<path class="st0" stroke-miterlimit="10" d="M20.235,14.601h-7.724c-1.502,0-2.717-1.216-2.717-2.717v-2.63
	c0-1.5,1.215-2.716,2.717-2.716h7.724V14.601z"/>
<path class="st1" d="M15.243,10.523c0,0.831-0.685,1.505-1.529,1.505s-1.53-0.674-1.53-1.505c0-0.829,0.686-1.503,1.53-1.503
	S15.243,9.694,15.243,10.523"/>
<ellipse class="st0" stroke-miterlimit="10" cx="13.713" cy="10.523" rx="1.53" ry="1.505"/>
</svg>
