<?xml version="1.0" encoding="utf-8"?>
<!-- Generator: Adobe Illustrator 19.0.0, SVG Export Plug-In . SVG Version: 6.00 Build 0)  -->
<svg version="1.1" id="Layer_1" xmlns="http://www.w3.org/2000/svg" xmlns:xlink="http://www.w3.org/1999/xlink" x="0px" y="0px"
	 width="16px" height="16px" viewBox="-289 412.9 16 16" style="enable-background:new -289 412.9 16 16;" xml:space="preserve">
<style type="text/css">
	.st0{fill:#375297;}
	.st1{fill:#FFFFFF;}
	.st2{fill:#46AE4C;}
	.st3{fill:#EE3537;}
	.st4{fill:#EEE94D;}
	.st5{fill:#12AAE2;}
</style>
<path class="st0" d="M-288,412.9h14c0.6,0,1,0.4,1,1v14c0,0.6-0.4,1-1,1h-14c-0.6,0-1-0.4-1-1v-14C-289,413.3-288.6,412.9-288,412.9
	z"/>
<path class="st1" d="M-275,413.9h-12c-0.6,0-1,0.4-1,1v11c0,0.6,0.4,1,1,1h1v1h10v-1h1c0.6,0,1-0.4,1-1v-11
	C-274,414.3-274.4,413.9-275,413.9z"/>
<rect x="-287" y="423.9" class="st2" width="12" height="2"/>
<rect x="-287" y="420.9" class="st3" width="10" height="2"/>
<rect x="-287" y="417.9" class="st4" width="11" height="2"/>
<rect x="-287" y="414.9" class="st5" width="12" height="2"/>
</svg>
