<svg xmlns="http://www.w3.org/2000/svg" width="130" height="130" viewBox="0 0 130 130">
  <defs>
    <style>
      .cls-1 {
        fill-rule: evenodd;
      }
    </style>
  </defs>
  <path class="cls-1" d="M106.4,82.769h3.93v3.845h11.746V74.959H118.3v7.672h-3.9V67.062H118.2v3.8h7.9v19.79l0.041-.039h-7.923V98.54l0.039-.039h-3.982v15.813l0.04-.04h-3.982v3.983l0.039-.039H102.42v-4H94.546V102.545h-3.94v3.884H86.684q0-3.962,0-7.924h3.872V90.74H86.72v7.805H82.711V90.615H78.8l0.039,0.039V86.637h7.843V78.785l3.984,0.038-0.039-.039v7.961h4.042v7.763h15.605V90.589h-3.839V82.728Zm3.9,15.851H98.642v11.655h11.652V98.621Zm-23.61-47.4H98.549l-0.038-.041L98.553,66.99H94.681v3.826h3.832V66.95h4.014V59.107h7.849l-0.041-.038V78.743H106.4v4.026l0.039-.041-3.979,0,0.04,0.04V78.744h-4v-3.8H94.546v3.841h-3.92l0.039,0.039V70.939H86.684q0-3.962,0-7.924h3.872V59.19H86.72v3.866H82.85V55.092h3.872V51.182Zm19.7,19.812h-3.818v3.719h3.818V71.035ZM39.415,126.1h-3.93v3.89H31.619v-7.78h3.759v-7.853H31.6v-7.875H43.269v3.888H47.3l-0.039-.041q-0.008,1.968-.015,3.935H39.508v3.9H47.2c0-1.358,0-2.65,0-3.94l4.038,0.084-0.041-.039V118.2H63v3.909h3.9v3.934H59.176v-3.772H55.216v7.681H47.257v-3.847h3.872v-3.825H47.3v3.866l-3.978-.047,0.039,0.042v-3.865H39.376v3.865ZM78.8,3.857h3.927V7.749h3.907V3.9h4.027l-0.038-.041v7.926l0.038-.041H78.92V15.69h3.8v3.9h3.962v4.024l0.041-.039H82.741v3.983l0.038-.041H78.868V23.576H74.857L74.9,23.618V11.869H70.914V23.618l0.039-.041H67.025v7.83H59.079c0-1.254,0-2.542,0-3.832l-0.039.045H62.97v-7.91h3.99V7.883h3.891V0.043h7.991c0,1.271,0,2.563,0,3.854H74.97V7.723H78.8V3.857Zm51.166,23.622h-27.42V0.051h27.42V27.479ZM106.476,23.5h19.536V3.958H106.476V23.5ZM0.037,129.969V102.538H27.458v27.431H0.037Zm23.487-3.9V106.523H3.994v19.542h19.53ZM0.072,0H27.495V27.43H0.072V0ZM23.516,23.546V3.955H4V23.546H23.516Zm-7.8,31.583v7.834h3.918V67h4.007l-0.04-.04q0.026,1.962.05,3.925l0.039-.045-13.641.078c-0.655,0-1.311,0-2.12,0v3.9H3.97V86.577h-3.9V67.034H3.8v-7.9H0.053V55.216H3.82V51.254H0.084v-3.9H11.722v3.782H7.951V66.9h3.78V55.169h4.028ZM47.3,31.463H43.367v3.891H39.454V23.688H35.493v3.75H31.6V19.689h3.755V15.725H31.578V0.038h3.817V7.75h3.962v3.964h3.913V27.563H47.3l-0.039-.041V31.5Zm3.9,51.266v3.925H62.99v3.9h3.9v3.938h-7.75V90.737H55.252v7.741H59v3.9H51.273V98.589H47.257V94.562h3.872V90.736H47.3V94.6l-3.978-.046L43.358,94.6v-4.03H39.473V86.658h7.785v-3.93l3.984,0.039ZM43.36,63.05V55.126l-0.041.039H47.3V51.182l-0.039.039h3.982L51.2,51.182v4.024H63.089v3.9h3.8v3.854h-7.8V59.188H55.278v7.844h3.733v3.777H51.173V66.943H47.257c0-1.41,0-2.669,0-3.928h3.872V59.19H47.3v3.866l-3.978-.044Zm71.017-23.613V31.6h15.589v3.813h-3.772v7.85h3.787v7.9h-3.8V59h-3.952V43.384h-4.013V39.356h3.872V35.53h-3.832V39.4q-1.962,0-3.926,0ZM98.549,51.223V43.346h7.818V31.593h3.962v7.841c1.449,0,2.747,0,4.046,0l-0.043-.038c0,1.257,0,2.511,0,3.867h-3.868v3.959h3.756v3.91h-3.887v4.029l0.041-.039h-4.017V51.182H98.51ZM63.026,3.866V7.8H59.149v3.865H55.186V7.895H51.273V19.569H47.312V7.873H43.421V3.958H51.18V0.019h7.855V3.906h4.031ZM31.53,98.5H19.754V94.627H11.824V90.618l-0.04.04h7.847V82.769h4.014l-0.039-.041v4.023H27.5v3.9H23.726v3.9h7.8q-0.019,1.992-.039,3.985ZM35.475,74.88V67.017H31.593V59.157h7.741V63.05H43.36l-0.041-.039v11.83H35.434ZM23.608,39.393h7.875V35.5H35.4V39.35h7.871v3.915H39.41v3.926H35.5V43.4H31.582v3.841H27.55l0.039,0.041V43.265H23.646V39.352Zm90.669,78.825v11.743H102.529V126.1H98.511l0.039,0.042q-0.019-1.994-.039-3.985h7.942v3.86h3.923v-7.8l-0.039.039h3.982ZM67.013,47.277V43.353H63.13V35.5h3.8v3.895h4.022l-0.039-.041v4.023h4v3.9h3.8v3.947h-7.8V47.238H66.972ZM126.1,90.653h3.866v7.828H126.1v7.944l0.041-.038h-7.884V98.5l-0.039.039h4V94.52h3.92V90.615ZM67.013,110.37v-3.924H63.13V98.591h3.8v3.895h4.022l-0.039-.041v3.941h7.923v3.986H74.857v3.942l0.039-.04H70.914l0.039,0.04v-3.983H66.972Zm31.5,15.732v3.87H82.782v-7.81l-0.041.038H86.77v3.848h3.908v-3.889h3.929v3.985h3.943ZM86.684,35.45h15.693v3.87H94.656v3.973H86.684l0.039,0.041V35.408ZM51.2,47.28h3.93V43.39h3.91v3.886h7.97l-0.041-.039q0.019,1.992.038,3.985L51.2,51.182l0.039,0.039V47.238Zm74.9,63.052v7.886H114.277l0.042,0.039v-3.983l-0.04.04H118.3V110.37h7.848ZM67.011,82.726l-15.81,0,0.041,0.039q-0.019-1.992-.039-3.985h4.029V74.938h3.909v3.844h7.869q-0.019,1.992-.038,3.985Zm-11.869-55.2v7.852H59.02V39.3H51.3V35.483h-4v-4.02l-0.039.041h3.982V27.522l-0.038.041,3.978,0Zm11.869,86.746-15.81,0,0.041,0.039v-3.983l-0.038.041h3.93v-3.889h3.91v3.887h7.97l-0.041-.039v3.983ZM78.84,35.447V31.533H82.78V27.52l-0.038.041h3.981V23.578l-0.041.039h3.865v7.821H86.684V35.45l0.039-.041H78.8ZM27.554,74.884l7.922,0-0.041-.039v4.011H31.487v3.912l0.04-.04-7.919,0,0.039,0.041V78.855h3.948V74.844ZM94.569,3.9h3.865V15.616H90.664V11.746l-0.039.041h3.982V3.862ZM7.8,31.594v3.787H3.978v7.842H0.048V31.594H7.8Zm7.967,3.853v-3.87H27.491v3.785H23.608v4.032l0.039-.041H19.665L19.7,39.391V35.408H15.723ZM19.7,47.236h-3.93V43.363H11.908V35.447h3.855l-0.041-.039v3.983H19.7l-0.039-.039v7.926Zm-3.945,7.933V51.252H19.7c0-1.434,0-2.725,0-4.016l-0.038.041h7.924l-0.039-.041V51.15H23.6v4.011l0.04-.04-7.923.008Zm27.56,39.387V98.5H35.435l0.039,0.041q-0.019-1.992-.039-3.985L43.358,94.6ZM0,98.436V94.687H7.758v3.749H0ZM11.823,78.82V74.958h7.768V78.78H11.783ZM74.9,98.54V90.615l-0.041.039h3.981L78.8,90.615V98.5H74.857ZM70.953,39.393V35.447H78.84L78.8,35.408q0.019,1.992.039,3.985l-7.923-.041Zm15.731,3.9v7.93l0.039-.041H82.739V43.3l3.984,0.039ZM43.36,55.126H35.554v-3.9h7.8l-0.039-.041v3.983Zm31.5-31.549v3.866h-3.9V23.576l-0.039.041H74.9Zm51.247,82.85h3.865v3.906H126.1l0.041,0.038v-3.982ZM98.479,23.708v3.748H94.661V23.708h3.818ZM47.3,110.372v-3.866h3.9q0,1.929,0,3.866l0.038-.041H47.261ZM129.975,130h-3.781v-3.769h3.781V130ZM63.066,3.906V0.04H66.9V3.866H63.026ZM43.319,126.1v3.867h-3.9V126.1l-0.039.042h3.981ZM90.664,3.9V0.037h3.9V3.9l0.039-.041H90.626ZM82.782,122.162H78.84v-3.944l-0.041.039h3.942V122.2Zm-7.928-3.944v3.864h-3.9v-3.864l-0.041.039H74.9Zm3.986,0H74.855l0.041,0.039v-3.983l-0.039.04,3.984-.039L78.8,118.257Zm-7.885,0H67.011v-3.946l-0.038.042h3.981l-0.039-.04v3.983ZM47.3,27.563V23.7h3.9v3.866l0.039-.041H47.261Zm7.882,0V23.707h3.863c0,1.266,0,2.588,0,3.911l0.038-.043-3.939-.049ZM27.594,74.844h-3.9c0-1.356,0-2.679,0-4l-0.038.043c1.251,0,2.5,0,3.9,0,0,1.424,0,2.713,0,4ZM126.218,63.1H130v3.77h-3.782V63.1ZM23.643,67V63.133h3.832v3.826H23.6ZM11.783,78.78q0.022,1.967.043,3.935l0.039-.045h-3.9V78.82h3.855Zm0.095,7.977q-0.008-2.042-.014-4.086l-0.038.043c1.255,0,2.509,0,3.838,0v4.007c-1.255,0-2.542,0-3.832,0Zm98.457-31.593H114.2v3.905h-3.865l0.041,0.038V55.125ZM70.953,102.486V98.54H74.9L74.857,98.5v3.944H70.914ZM47.3,47.277V43.413h3.9V47.28l0.039-.041H47.261ZM35.435,98.5v3.867h-3.9V98.5l-0.039.041h3.982Zm7.922-47.276V47.277H47.3l-0.041-.039v3.983l0.039-.039H43.318ZM74.9,90.615H70.956V86.672l-0.041.038h3.942v3.943Zm-63.074,0H7.966V86.754h3.91l-0.043-.038q-0.023,1.972-.049,3.94ZM23.6,55.161h3.865v3.833H23.642V55.121ZM70.956,86.672H67.011V82.726l-0.038.041,3.984-.039-0.041,3.982ZM78.8,110.331h3.942v-3.943h3.981v3.925h3.843v7.856H86.758v-3.855H78.8v-3.983ZM98.549,122.2H94.568v-3.864h3.982V122.2Zm3.906-39.477v7.805H98.623V82.763H102.5Zm0.074,23.615v-3.779h3.8v3.779h-3.8Zm-19.749.089H78.8v-3.864H82.78v3.864ZM70.914,82.767V78.824H66.972V74.9H63.131V67.045h3.8v3.9h4.02l-0.04-.04v3.9h3.925v3.979h4v3.983H70.914ZM78.8,78.824V70.9h7.924v7.926H78.8Zm-7.848-7.882V67.076h3.832V70.9H70.911ZM51.242,78.824H47.261V74.959h3.982v3.864ZM47.3,78.785v3.983H43.436V78.785H47.3Zm-15.813,3.98h3.865V86.6H31.527q0-1.943,0-3.873ZM78.8,39.352H82.78v3.983H78.8V39.352ZM66.972,51.182h3.981q-0.022,1.99-.044,3.98l0.04-.04H66.972v-3.94ZM35.473,94.6H31.492V90.733h3.982V94.6ZM70.909,55.161h3.865v3.833H70.949V55.121Zm39.51-35.606V7.9h11.652V19.555H110.419ZM7.909,122.067V110.439h11.7v11.628H7.909ZM19.622,7.925V19.58H7.97V7.925H19.622Z"/>
</svg>
