<?xml version="1.0" encoding="utf-8"?>
<!-- Generator: Adobe Illustrator 19.0.0, SVG Export Plug-In . SVG Version: 6.00 Build 0)  -->
<svg version="1.1" id="Layer_1" xmlns="http://www.w3.org/2000/svg" xmlns:xlink="http://www.w3.org/1999/xlink" x="0px" y="0px"
	 viewBox="0 0 27.4 29.8" style="enable-background:new 0 0 27.4 29.8;" xml:space="preserve">
<style type="text/css">
	.st0{fill:#FFFFFF;}
	.st1{fill:#44B75B;}
	.st2{fill:#EE3537;}
	.st3{fill:#EEE94D;}
	.st4{fill:#12AAE2;}
</style>
<g>
	<g>
		<rect id="XMLID_9_" x="3.7" y="28.1" class="st0" width="21" height="1.7"/>
	</g>
	<rect x="2.2" y="20.3" class="st1" width="22.8" height="3.7"/>
	<rect x="2.2" y="14.2" class="st2" width="18.8" height="3.7"/>
	<rect x="2.2" y="8.2" class="st3" width="21.3" height="3.7"/>
	<polygon class="st4" points="2.2,2.2 2.2,5.9 25.3,5.9 25.3,2.2 	"/>
	<path class="st0" d="M26.3,0H11.1h-10C0.5,0,0,0.5,0,1.1v6.6V25c0,0.6,0.5,1.1,1.1,1.1h25.2c0.6,0,1.1-0.5,1.1-1.1V1.1
		C27.4,0.5,26.9,0,26.3,0z M2.2,8.2h21.3v3.7H2.2V8.2z M2.2,14.2h18.8v3.7H2.2L2.2,14.2 M2.2,20.3H25v3.7H2.2L2.2,20.3 M25.3,5.9
		L25.3,5.9H11.1H2.2V2.2h8.9l14.1,0"/>
</g>
</svg>
