<?xml version="1.0" encoding="utf-8"?><svg width="2572" height="2332" viewBox="0 0 2572 2332" xmlns="http://www.w3.org/2000/svg" xmlns:xlink="http://www.w3.org/1999/xlink"><svg width="29" height="28.97" viewBox="0 0 29 28.97" id="add-screen" xmlns="http://www.w3.org/2000/svg"><defs><style>.aacls-1{fill:#737779;fill-rule:evenodd}</style></defs><path class="aacls-1" d="M13.2 18h2.6v-4.73h4.645v-2.65H15.8V5.89h-2.6v4.73H8.551v2.65H13.2V18zM-.01-.02v28.98h29.015V-.02H-.01zm4.692 26.78H1.869v-1.17h2.814v1.17zm12.176 0H8.117v-1.17h8.742v1.17zm10.416 0h-8.742v-1.17h8.742v1.17zm0-3.03H1.869V2.21h25.406v21.52z"/></svg><svg width="8.07" height="15" viewBox="0 0 8.07 15" id="arrow-back" x="29" y="29" xmlns="http://www.w3.org/2000/svg"><defs><style>.abcls-1{fill:#2b559a;fill-rule:evenodd}</style></defs><path class="abcls-1" d="M7.37 15L.01 7.494 7.37-.012l.69.7-6.67 6.8 6.67 6.8z"/></svg><svg id="arrow-back-2" viewBox="0 0 13.8 23.3" width="13.8" height="23.3" x="38" y="44" xmlns="http://www.w3.org/2000/svg"><style>.acst0{fill:#2b58a8}</style><path class="acst0" d="M12.3 23.3c-.4 0-.8-.1-1.1-.4L0 11.7 11.2.4c.6-.6 1.5-.6 2.1 0 .6.6.6 1.5 0 2.1l-9.1 9.1 9.1 9.1c.6.6.6 1.5 0 2.1-.3.4-.6.5-1 .5z"/></svg><svg width="23" height="11" viewBox="0 0 23 11" id="arrow-dir-right" x="52" y="68" xmlns="http://www.w3.org/2000/svg"><defs><style>.adcls-1{fill:#2b5699;fill-rule:evenodd}</style></defs><path class="adcls-1" d="M17.215-.011l-.9.985 4.052 3.843H.009v1.346h20.36l-4.054 3.845.9.985 5.8-5.5z"/></svg><svg width="10" height="6" viewBox="0 0 10 6" id="arrow-drop" x="75" y="79" xmlns="http://www.w3.org/2000/svg"><defs><style>.aecls-1{fill:#bfc0c0;fill-rule:evenodd}</style></defs><path class="aecls-1" d="M5.01 6a1.924 1.924 0 0 0 1.28-.809l3.34-3.65a1.27 1.27 0 0 0 .37-.83c0-.43-.38-.71-1.09-.71H1.1c-.71 0-1.1.28-1.1.71a1.259 1.259 0 0 0 .38.83l3.35 3.65A1.906 1.906 0 0 0 5.01 6z"/></svg><svg id="arrow-drop-2" width="15" height="8.9" viewBox="0 0 15 8.9" x="85" y="85" xmlns="http://www.w3.org/2000/svg"><style>.afst0{fill:#bfc0c0}</style><path class="afst0" d="M7.5 8.9L.3 1.7C-.1 1.3-.1.7.3.3s1-.4 1.4 0l5.8 5.8L13.3.3c.4-.4 1-.4 1.4 0s.4 1 0 1.4L7.5 8.9z"/></svg><svg id="arrow-drop-close" width="12" height="12" viewBox="0 0 12 12" x="100" y="94" xmlns="http://www.w3.org/2000/svg"><style>.agst0{fill:#bfc0c0}</style><path class="agst0" d="M7.4 6l4.3-4.3c.4-.4.4-1 0-1.4s-1-.4-1.4 0L6 4.6 1.7.3C1.3-.1.7-.1.3.3s-.4 1 0 1.4L4.6 6 .3 10.3c-.4.4-.4 1 0 1.4.2.2.4.3.7.3s.5-.1.7-.3L6 7.4l4.3 4.3c.2.2.5.3.7.3s.5-.1.7-.3c.4-.4.4-1 0-1.4L7.4 6z"/></svg><svg width="42" height="38" viewBox="0 0 42 38" id="arrow-exch" x="112" y="106" xmlns="http://www.w3.org/2000/svg"><defs><style>.ahcls-1{fill:#fff;fill-rule:evenodd}</style></defs><path class="ahcls-1" d="M21.49 0l-4.53 4.847 11.7 10.84H-.01v6.621h28.67l-11.7 10.845L21.49 38l20.5-19z"/></svg><svg viewBox="0 0 16.02 18.06" width="16.02" height="18.06" id="arrow-exch-left" x="154" y="144" xmlns="http://www.w3.org/2000/svg"><defs><style>.aicls-1{fill:#241f5d}</style></defs><g id="aiLayer_2" data-name="Layer 2"><path class="aicls-1" d="M16.02 6.76H9.03V0L0 9.03l9.03 9.03V11.3h6.99V6.76z" id="aiСлой_1" data-name="Слой 1"/></g></svg><svg viewBox="0 0 16.02 18.06" width="16.02" height="18.06" id="arrow-exch-right" x="171" y="163" xmlns="http://www.w3.org/2000/svg"><defs><style>.ajcls-1{fill:#f6921e}</style></defs><g id="ajLayer_2" data-name="Layer 2"><path class="ajcls-1" d="M16.02 9.03L6.99 0v6.76H0v4.54h6.99v6.76l9.03-9.03z" id="ajСлой_1" data-name="Слой 1"/></g></svg><svg width="12" height="19.97" viewBox="0 0 12 19.97" id="arrow-left" x="188" y="182" xmlns="http://www.w3.org/2000/svg"><defs><style>.akcls-1{fill:#4a9cd5;fill-rule:evenodd}</style></defs><path class="akcls-1" d="M9.786 19.97l-9.788-9.9L9.983-.01l2.008 2.03-7.977 8.05 7.782 7.87z"/></svg><svg width="13.94" height="5.094" viewBox="0 0 13.94 5.094" id="arrow-price" x="200" y="202" xmlns="http://www.w3.org/2000/svg"><defs><style>.alcls-1{fill-rule:evenodd}</style></defs><path class="alcls-1" d="M13.95 1.814H8.52V.006L.01 2.55l8.51 2.544V3.286h5.43V1.814z"/></svg><svg width="12" height="20" viewBox="0 0 12 20" id="arrow-right" x="214" y="208" xmlns="http://www.w3.org/2000/svg"><defs><style>.amcls-1{fill:#4a9cd5;fill-rule:evenodd}</style></defs><path class="amcls-1" d="M2.207 0L12 9.91 2.01 20 0 17.967 7.981 9.91.196 2.032z"/></svg><svg width="10.906" height="5.12" viewBox="0 0 10.906 5.12" id="arrow-right-2" x="226" y="228" xmlns="http://www.w3.org/2000/svg"><defs><style>.ancls-1{fill:#474747;fill-rule:evenodd}</style></defs><path class="ancls-1" d="M10.92 2.56L4.931.01v1.58h-4.94v1.94h4.94v1.58z"/></svg><svg width="30.97" height="13" viewBox="0 0 30.97 13" id="arrow-switch" x="237" y="234" xmlns="http://www.w3.org/2000/svg"><defs><style>.aocls-1{fill:#2b559a;fill-rule:evenodd}</style></defs><path class="aocls-1" d="M23.87 0l-1.1 1.164 4.96 4.541H3.24L8.2 1.164 7.1 0 0 6.5 7.1 13l1.1-1.164-4.96-4.542h24.49l-4.96 4.542L23.87 13l7.1-6.5z"/></svg><svg width="4" height="7" viewBox="0 0 4 7" id="arrow-tool-drop" x="268" y="247" xmlns="http://www.w3.org/2000/svg"><defs><style>.apcls-1{fill:red;fill-rule:evenodd}</style></defs><path class="apcls-1" d="M.757 0L0 .817 2.486 3.5 0 6.183.757 7 4 3.5z"/></svg><svg width="26.844" height="20.938" viewBox="0 0 26.844 20.938" id="arrows-switch" x="272" y="254" xmlns="http://www.w3.org/2000/svg"><defs><style>.aqcls-1{fill:#209dd8;fill-rule:evenodd}</style></defs><path class="aqcls-1" d="M19.859.271a.962.962 0 0 0-1.355 0 .947.947 0 0 0-.281.673V3.8h-6.709a.952.952 0 1 0 0 1.9h7.668a.955.955 0 0 0 .958-.952v-1.51l4.395 4.366-4.395 4.366v-1.51a.955.955 0 0 0-.958-.952H8.638V6.656a.96.96 0 0 0-1.636-.673L.293 12.647a.948.948 0 0 0 0 1.346l6.709 6.664a.963.963 0 0 0 .678.279.956.956 0 0 0 .958-.952v-2.856h6.71a.952.952 0 1 0 0-1.9H7.68a.956.956 0 0 0-.959.952v1.51l-4.4-4.366 4.4-4.366v1.51a.956.956 0 0 0 .959.952h10.543v2.856a.96.96 0 0 0 1.636.673l6.709-6.664a.946.946 0 0 0 0-1.346z"/></svg><svg width="17" height="20" viewBox="0 0 17 20" id="arrows-td" x="299" y="275" xmlns="http://www.w3.org/2000/svg"><defs><style>.arcls-1{fill:#254356;fill-rule:evenodd}</style></defs><path class="arcls-1" d="M8.5 20l8.5-6.755H0zm0-20L0 6.755h17z"/></svg><svg width="8" height="15" viewBox="0 0 8 15" id="arrows-td-short" x="316" y="295" xmlns="http://www.w3.org/2000/svg"><defs><style>.ascls-1{fill:#8f9eaa;fill-rule:evenodd}</style></defs><path class="ascls-1" d="M4 15l4-4.911H0zM4-.012l-4 4.91h8z"/></svg><svg width="21.125" height="23.969" viewBox="0 0 21.125 23.969" id="bell" x="324" y="310" xmlns="http://www.w3.org/2000/svg"><defs><style>.atcls-1{fill:#737779;fill-rule:evenodd}</style></defs><path class="atcls-1" d="M10.588 23.98a2.659 2.659 0 0 0 2.649-2.665h-5.3a2.659 2.659 0 0 0 2.651 2.665zm0-23.989zM20.74 16.419l-2.2-3.243v-5.24a7.913 7.913 0 0 0-7.769-7.944h-.184a8.288 8.288 0 0 0-7.971 8.044l-.128 5.1-2.125 3.249c-.8 1.23-.268 2.228 1.2 2.228H19.58c1.464.004 1.982-.982 1.161-2.194zm-16.918-.468l1.3-1.982.148-5.864a5.629 5.629 0 0 1 5.43-5.448 5.255 5.255 0 0 1 5.2 5.279V14l1.324 1.953H3.823z"/></svg><svg width="10.06" height="21" viewBox="0 0 10.06 21" id="buck" x="346" y="334" xmlns="http://www.w3.org/2000/svg"><defs><style>.aucls-1{fill:#bfc0c0;fill-rule:evenodd}</style></defs><path class="aucls-1" d="M6.1 9.738h-.32V4.766h2.45a.761.761 0 0 0 0-1.522H5.78V.757a.75.75 0 1 0-1.5 0v2.486h-.31a4.009 4.009 0 0 0 0 8.017h.31v4.972H1.83a.761.761 0 0 0 0 1.522h2.45v2.486a.75.75 0 1 0 1.5 0v-2.486h.32a4.009 4.009 0 0 0 0-8.016zM4.28 5.016v4.722h-.31a2.486 2.486 0 0 1 0-4.972h.31v.249zM6.1 16.233h-.32V11.26h.32a2.486 2.486 0 0 1 0 4.972z"/></svg><svg width="31" height="24.969" viewBox="0 0 31 24.969" id="camera" x="357" y="355" xmlns="http://www.w3.org/2000/svg"><defs><style>.avcls-1{fill-rule:evenodd}</style></defs><path class="avcls-1" d="M27.53 2.833h-4.89v-.06a2.75 2.75 0 0 0-.8-1.961 2.667 2.667 0 0 0-1.92-.814h-8.84a2.685 2.685 0 0 0-1.95.814 2.8 2.8 0 0 0-.8 1.961v.06H3.47a3.3 3.3 0 0 0-2.45 1.056 3.624 3.624 0 0 0-1.03 2.5v15.024a3.563 3.563 0 0 0 3.48 3.56h24.06a3.3 3.3 0 0 0 2.45-1.056 3.624 3.624 0 0 0 1.03-2.5V6.393a3.446 3.446 0 0 0-1.03-2.5 3.3 3.3 0 0 0-2.45-1.06zm1.95 18.584h-.03a1.972 1.972 0 0 1-.56 1.387 1.892 1.892 0 0 1-1.36.574H3.47a1.892 1.892 0 0 1-1.36-.574 1.972 1.972 0 0 1-.56-1.387V6.393a1.974 1.974 0 0 1 .56-1.387 1.892 1.892 0 0 1 1.36-.573h5.69a.808.808 0 0 0 .8-.815v-.875a1.183 1.183 0 0 1 .32-.845 1.152 1.152 0 0 1 .83-.332h8.81a1.152 1.152 0 0 1 .83.332 1.183 1.183 0 0 1 .32.845v.875a.808.808 0 0 0 .8.815h5.69a1.892 1.892 0 0 1 1.36.573 1.974 1.974 0 0 1 .56 1.387v15.024zM15.5 6.484a7.181 7.181 0 0 0-5.13 2.172 7.558 7.558 0 0 0 0 10.5 7.108 7.108 0 0 0 5.13 2.172 7.181 7.181 0 0 0 5.13-2.172 7.43 7.43 0 0 0 2.12-5.249 7.507 7.507 0 0 0-2.12-5.249 7.181 7.181 0 0 0-5.13-2.174zm4.01 11.554a5.6 5.6 0 0 1-8.02 0 5.844 5.844 0 0 1-1.65-4.1 5.976 5.976 0 0 1 1.65-4.1 5.577 5.577 0 0 1 4.01-1.689 5.7 5.7 0 0 1 4.01 1.689 5.844 5.844 0 0 1 1.65 4.1 5.717 5.717 0 0 1-1.65 4.1zM26 6.454a1.479 1.479 0 1 0 1.44 1.478A1.464 1.464 0 0 0 26 6.454z"/></svg><svg width="14.938" height="1.719" viewBox="0 0 14.938 1.719" id="chart-minus" x="388" y="380" xmlns="http://www.w3.org/2000/svg"><defs><style>.awcls-1{fill-rule:evenodd}</style></defs><path class="awcls-1" d="M14.177 1.706H.769a.862.862 0 0 1 0-1.714h13.408a.862.862 0 0 1 0 1.714z"/></svg><svg width="15" height="16" viewBox="0 0 15 16" id="chart-plus" x="403" y="382" xmlns="http://www.w3.org/2000/svg"><defs><style>.axcls-1{fill-rule:evenodd}</style></defs><path class="axcls-1" d="M14.216 6.651H8.269V.829a.773.773 0 1 0-1.542 0v5.822H.779a.826.826 0 0 0 0 1.649h5.948v6.891a.773.773 0 1 0 1.542 0V8.3h5.947a.826.826 0 0 0 0-1.649z"/></svg><svg width="24.031" height="28.03" viewBox="0 0 24.031 28.03" id="chats-clip" x="418" y="398" xmlns="http://www.w3.org/2000/svg"><defs><style>.aycls-1{fill:#c6c8c8;fill-rule:evenodd}</style></defs><path class="aycls-1" d="M9.763 28.04a9.33 9.33 0 0 1-6.649-2.76l-.375-.37a9.442 9.442 0 0 1 0-13.33l9.522-9.55a6.9 6.9 0 0 1 9.742 9.77l-9.124 9.14a3.712 3.712 0 0 1-5.25 0l-.561-.56a3.725 3.725 0 0 1 0-5.26l6.913-6.93 1.389 1.39-6.912 6.93a1.758 1.758 0 0 0 0 2.48l.56.56a1.753 1.753 0 0 0 2.472 0l9.123-9.14a4.93 4.93 0 1 0-6.962-6.98l-9.522 9.54a7.465 7.465 0 0 0 0 10.54l.375.38a7.433 7.433 0 0 0 10.518 0l7.311-7.33 1.389 1.39-7.311 7.33a9.33 9.33 0 0 1-6.648 2.76z"/></svg><svg width="31" height="31.04" viewBox="0 0 31 31.04" id="chats-gear" x="443" y="427" xmlns="http://www.w3.org/2000/svg"><defs><style>.azcls-1{fill:#c6c8c8;fill-rule:evenodd}</style></defs><path class="azcls-1" d="M31.005 16.51v-1.97h-3.012a12.5 12.5 0 0 0-.566-2.86l2.787-1.14-.753-1.83-2.8 1.15a12.523 12.523 0 0 0-1.647-2.46l2.146-2.14-1.4-1.4-2.148 2.15a12.17 12.17 0 0 0-2.409-1.61l1.171-2.81-1.826-.76-1.17 2.8a12.6 12.6 0 0 0-2.9-.57V.01h-1.979v3.05a12.7 12.7 0 0 0-2.84.56L10.501.81l-1.83.75 1.161 2.82a12.471 12.471 0 0 0-2.453 1.64L5.221 3.86l-1.4 1.4 2.157 2.15a12.94 12.94 0 0 0-1.616 2.4L1.553 8.64l-.761 1.83 2.8 1.17a12.332 12.332 0 0 0-.583 2.9H-.024v1.97h3.03a12.484 12.484 0 0 0 .549 2.86L.767 20.51l.753 1.83 2.793-1.15a12.461 12.461 0 0 0 1.637 2.47l-2.131 2.13 1.4 1.4 2.128-2.13a12.232 12.232 0 0 0 2.413 1.63l-1.155 2.77 1.827.76 1.151-2.76a12.245 12.245 0 0 0 2.914.58v3h1.979v-3a12.319 12.319 0 0 0 2.863-.55l1.136 2.76 1.83-.76-1.139-2.77a12.178 12.178 0 0 0 2.47-1.65l2.118 2.12 1.4-1.4-2.12-2.12a12.332 12.332 0 0 0 1.619-2.42l2.769 1.16.762-1.83-2.767-1.15a12.538 12.538 0 0 0 .571-2.92h3.009zm-15.017-1.79l-5.827-8.26a10.447 10.447 0 0 1 5.344-1.47 10.571 10.571 0 0 1 10.518 9.73H15.988zm-.01 1.98H26a10.569 10.569 0 0 1-10.5 9.41 10.4 10.4 0 0 1-5.331-1.46zM8.557 7.62l5.7 8.08-5.689 7.8a10.522 10.522 0 0 1-.011-15.88z"/></svg><svg width="32.125" height="31.69" viewBox="0 0 32.125 31.69" id="chats-image" x="474" y="459" xmlns="http://www.w3.org/2000/svg"><defs><style>.bacls-1{fill:#c6c8c8;fill-rule:evenodd}</style></defs><path class="bacls-1" d="M31.841 17.48L28.994 6.59A8.8 8.8 0 0 0 18.261.29L6.552 3.4A8.862 8.862 0 0 0 .295 14.21L3.144 25.1a8.778 8.778 0 0 0 4.07 5.38 8.631 8.631 0 0 0 6.663.91l11.708-3.1a8.863 8.863 0 0 0 6.256-10.81zm-6.764 8.88l-11.708 3.1a6.7 6.7 0 0 1-5.157-.7 6.817 6.817 0 0 1-3.151-4.17L2.212 13.7a6.864 6.864 0 0 1 4.844-8.37l11.708-3.11A6.92 6.92 0 0 1 20.508 2a6.707 6.707 0 0 1 3.414.93 6.79 6.79 0 0 1 3.151 4.17l2.849 10.89a6.866 6.866 0 0 1-4.845 8.37zm-1.678-9.87a16.413 16.413 0 0 0 1.23-1.91l-1.734-.97a12 12 0 0 1-12.813 6.51l-.428 1.95a11.866 11.866 0 0 0 2.3.19 14.674 14.674 0 0 0 5.75-1.16 4.085 4.085 0 0 0 2.454 2 2.946 2.946 0 0 0 .59.06 3.924 3.924 0 0 0 2.726-1.36 3.658 3.658 0 0 0 1.344-3.42 3.253 3.253 0 0 0-1.424-1.89zm-1.331 3.9a1.939 1.939 0 0 1-1.5.75 2.1 2.1 0 0 1-1.1-.97 13.686 13.686 0 0 0 2.633-2.14 1.609 1.609 0 0 1 .782.82 2.008 2.008 0 0 1-.815 1.54zm-9.222-6.29a1.985 1.985 0 1 0-1.985 2 2 2 0 0 0 1.985-2zm5.458-1.5a2 2 0 1 0-1.985-2 1.989 1.989 0 0 0 1.985 2z"/></svg><svg width="22" height="30" viewBox="0 0 22 30" id="chats-mic" x="507" y="491" xmlns="http://www.w3.org/2000/svg"><defs><style>.bbcls-1{fill:#c6c8c8;fill-rule:evenodd}</style></defs><path class="bbcls-1" d="M20 14.5v1a9 9 0 0 1-18 0v-1H0v1a11.012 11.012 0 0 0 10 10.95V30h2v-3.55A11.012 11.012 0 0 0 22 15.5v-1h-2zM11 21a7.008 7.008 0 0 0 7-7V7A7 7 0 0 0 4 7v7a7.008 7.008 0 0 0 7 7zM6 7a5 5 0 0 1 10 0v7a5 5 0 0 1-10 0V7z"/></svg><svg width="31.75" height="33" viewBox="0 0 31.75 33" id="chats-phone" x="529" y="521" xmlns="http://www.w3.org/2000/svg"><defs><style>.bccls-1{fill:#c6c8c8;fill-rule:evenodd}</style></defs><path class="bccls-1" d="M24.752 33a3.189 3.189 0 0 1-.544-.05c-2.558-.58-7.61-3.76-14.127-10.95l-.041-.04C3.282 14.96.44 9.7.033 7.1c-.164-1.05.39-2.33 1.649-3.8 1.1-1.28 3.386-3.31 4.861-3.31 2.144 0 7.048 7.18 7.146 8.25.065.72-.5 1.39-1.356 2.4a10.476 10.476 0 0 0-1.2 1.59 42.965 42.965 0 0 0 4.073 4.8l.07.07a41.54 41.54 0 0 0 4.571 4.42 10.959 10.959 0 0 0 1.657-1.08c1.064-.79 1.763-1.31 2.484-1.19 1.062.16 7.9 5.54 7.756 7.68-.1 1.47-2.28 3.62-3.632 4.63a6.006 6.006 0 0 1-3.36 1.44zM6.493 1.98a9.637 9.637 0 0 0-3.571 2.93 3.275 3.275 0 0 0-.93 1.88c.276 1.77 2.582 6.66 9.474 13.8 6.713 7.4 11.437 10.03 13.179 10.42a3.187 3.187 0 0 0 1.94-.8 9.638 9.638 0 0 0 3.168-3.37c-.4-1.12-4.687-4.78-6-5.56-.28.17-.742.51-1.071.75-1.245.92-2.321 1.72-3.3 1.45s-3.537-2.85-5.522-4.99l-.06-.05c-2.01-2.13-4.449-4.89-4.65-5.89s.667-2.01 1.669-3.2c.264-.31.637-.75.819-1.01-.691-1.37-4.052-5.9-5.145-6.36z"/></svg><svg width="35.031" height="31" viewBox="0 0 35.031 31" id="chats-talk" x="561" y="554" xmlns="http://www.w3.org/2000/svg"><defs><style>.bdcls-1{fill:#c6c8c8;fill-rule:evenodd}</style></defs><path class="bdcls-1" d="M2.631 27.12a51.713 51.713 0 0 0 7.427-3.03 15.327 15.327 0 0 0 3.683.46c7.588 0 13.74-5.5 13.74-12.28S21.331 0 13.742 0 .003 5.5.003 12.27a11.9 11.9 0 0 0 5.644 9.91 5.884 5.884 0 0 1-3.016 4.94zm32.387-10.29a12.1 12.1 0 0 0-7.655-11.75c7.655 16.98-9.147 21.37-14.682 21.73 4.632 3.04 11.581 1.02 11.581 1.02s3.611 2.81 7.262 3.17c-3.533-1.74-3.023-4.63-3.023-4.63s6.518-3.48 6.518-9.54z"/></svg><svg width="32.969" height="32.97" viewBox="0 0 32.969 32.97" id="chats-user" x="597" y="585" xmlns="http://www.w3.org/2000/svg"><defs><style>.becls-1{fill:#c6c8c8;fill-rule:evenodd}</style></defs><path class="becls-1" d="M16.478-.01a16.5 16.5 0 1 0 16.491 16.5A16.513 16.513 0 0 0 16.478-.01zm-8.7 28.03a64.378 64.378 0 0 0 7.261-4.15 3.054 3.054 0 0 0 .662-2.37 3.839 3.839 0 0 0-1.3-2.74c-.773-.56-2.583-1.85-2.583-7.62a5 5 0 0 1 1.315-3.74 5.251 5.251 0 0 1 3.311-1.27h.112a5.272 5.272 0 0 1 3.3 1.26 4.964 4.964 0 0 1 1.327 3.75c0 5.77-1.81 7.06-2.583 7.62a3.836 3.836 0 0 0-1.3 2.74 3.059 3.059 0 0 0 .663 2.37 65.219 65.219 0 0 0 7.239 4.14 14.356 14.356 0 0 1-17.428.01zm19.052-1.43c-3.329-1.73-6.982-3.73-7.431-4.13a2.4 2.4 0 0 1 .373-2.06c1.6-1.14 3.429-3.22 3.429-9.26a6.9 6.9 0 0 0-1.95-5.21 7.148 7.148 0 0 0-4.579-1.81c-.015 0-.077-.01-.172-.01s-.157.01-.172.01a7.152 7.152 0 0 0-4.58 1.81 6.9 6.9 0 0 0-1.949 5.21c0 6.04 1.832 8.12 3.429 9.26a2.444 2.444 0 0 1 .393 2.04c-.47.42-4.14 2.43-7.475 4.16a14.472 14.472 0 1 1 20.68-.01z"/></svg><svg id="circle" width="15" height="15" viewBox="-3 747.9 15 15" x="630" y="618" xmlns="http://www.w3.org/2000/svg"><style>.bfst0{fill:#fff}.bfst1{fill:#939393}.bfst2{opacity:.5}.bfst3{fill:#2e2e2e}</style><g id="bfXMLID_7_"><path id="bfXMLID_8_" class="bfst0" d="M4.5 748.3c-3.9 0-7.1 3.2-7.1 7.1 0 3.9 3.2 7.1 7.1 7.1 3.9 0 7.1-3.2 7.1-7.1 0-3.9-3.1-7.1-7.1-7.1zm0 10.5c-1.9 0-3.5-1.6-3.5-3.5s1.6-3.5 3.5-3.5 3.5 1.6 3.5 3.5-1.5 3.5-3.5 3.5z"/><path id="bfXMLID_11_" class="bfst1" d="M4.5 762.9c-4.1 0-7.5-3.4-7.5-7.5s3.4-7.5 7.5-7.5 7.5 3.4 7.5 7.5-3.4 7.5-7.5 7.5zm0-14.3c-3.8 0-6.8 3-6.8 6.8s3 6.8 6.8 6.8 6.8-3 6.8-6.8-3-6.8-6.8-6.8zm0 10.6c-2.1 0-3.8-1.7-3.8-3.8s1.7-3.8 3.8-3.8 3.8 1.7 3.8 3.8-1.7 3.8-3.8 3.8zm0-6.9c-1.7 0-3.1 1.3-3.1 3.1s1.3 3.1 3.1 3.1 3.1-1.3 3.1-3.1-1.4-3.1-3.1-3.1z"/></g><g id="bfXMLID_5_" class="bfst2"><circle id="bfXMLID_1_" class="bfst0" cx="4.5" cy="755.4" r="3.4"/><path id="bfXMLID_2_" class="bfst3" d="M4.5 759.1c-2.1 0-3.8-1.7-3.8-3.8s1.7-3.8 3.8-3.8c2.1 0 3.8 1.7 3.8 3.8s-1.7 3.8-3.8 3.8zm0-6.7c-1.7 0-3 1.3-3 3s1.3 3 3 3 3-1.3 3-3-1.3-3-3-3z"/></g></svg><svg id="circleBig" width="20" height="20" viewBox="288.4 339.6 20 20" x="645" y="633" xmlns="http://www.w3.org/2000/svg"><style>.bgst0{fill:#fff}.bgst1{fill:#939393}.bgst2{opacity:.5}.bgst3{fill:#2e2e2e}</style><g id="bgXMLID_7_"><path id="bgXMLID_8_" class="bgst0" d="M298.4 340.1c-5.2 0-9.5 4.2-9.5 9.5 0 5.2 4.2 9.5 9.5 9.5 5.2 0 9.5-4.2 9.5-9.5 0-5.2-4.2-9.5-9.5-9.5zm0 14.1c-2.5 0-4.6-2.1-4.6-4.6s2.1-4.6 4.6-4.6 4.6 2.1 4.6 4.6-2 4.6-4.6 4.6z"/><path id="bgXMLID_11_" class="bgst1" d="M298.4 359.6c-5.5 0-10-4.5-10-10s4.5-10 10-10 10 4.5 10 10-4.5 10-10 10zm0-19c-5 0-9 4-9 9s4 9 9 9 9-4 9-9-4-9-9-9zm0 14.1c-2.8 0-5.1-2.3-5.1-5.1s2.3-5.1 5.1-5.1 5.1 2.3 5.1 5.1-2.3 5.1-5.1 5.1zm0-9.2c-2.3 0-4.1 1.8-4.1 4.1s1.8 4.1 4.1 4.1 4.1-1.8 4.1-4.1-1.8-4.1-4.1-4.1z"/></g><g id="bgXMLID_5_" class="bgst2"><circle id="bgXMLID_1_" class="bgst0" cx="298.4" cy="349.6" r="4.5"/><path id="bgXMLID_2_" class="bgst3" d="M298.4 354.6c-2.8 0-5-2.3-5-5s2.3-5 5-5c2.8 0 5 2.3 5 5s-2.2 5-5 5zm0-9c-2.2 0-4 1.8-4 4s1.8 4 4 4 4-1.8 4-4-1.8-4-4-4z"/></g></svg><svg width="28" height="28" viewBox="0 0 28 28" id="clock" x="665" y="653" xmlns="http://www.w3.org/2000/svg"><defs><style>.bhcls-1{fill-rule:evenodd}</style></defs><path class="bhcls-1" d="M14 28.013A14.012 14.012 0 1 0-.01 14.001 14.032 14.032 0 0 0 14 28.013zM14 1.88A12.122 12.122 0 1 1 1.88 14.001 12.138 12.138 0 0 1 14 1.88zm6.07 12.254h-5.12V4.706h-1.89v11.318h7.01v-1.893z"/></svg><svg id="clock-2" width="9" height="9" viewBox="0 0 9 9" x="693" y="681" xmlns="http://www.w3.org/2000/svg"><style>.bist0{fill:#9ba6b1}</style><g id="biXMLID_2_"><g id="biXMLID_164_"><path id="biXMLID_181_" class="bist0" d="M4.8 1.2c0 .1-.1.3-.3.3-.1 0-.3-.1-.3-.3 0-.1.1-.3.3-.3.1 0 .3.1.3.3zm0 0"/><path id="biXMLID_177_" class="bist0" d="M4.5 9C2 9 0 7 0 4.5S2 0 4.5 0 9 2 9 4.5 7 9 4.5 9zm0-8.5C2.3.5.6 2.3.6 4.4s1.8 3.9 3.9 3.9c2.2 0 3.9-1.8 3.9-3.9C8.4 2.3 6.7.5 4.5.5zm0 0"/><path id="biXMLID_174_" class="bist0" d="M4.8 7.8c0 .1-.1.3-.3.3-.1 0-.3-.1-.3-.3 0-.1.1-.3.3-.3.1 0 .3.2.3.3zm0 0"/><path id="biXMLID_171_" class="bist0" d="M8.1 4.5c0 .1-.1.3-.3.3-.1 0-.3-.1-.3-.3 0-.1.1-.3.3-.3.2 0 .3.1.3.3zm0 0"/><path id="biXMLID_168_" class="bist0" d="M1.5 4.5c0 .1-.1.3-.3.3-.2-.1-.3-.2-.3-.3 0-.1.1-.3.3-.3.1 0 .3.1.3.3zm0 0"/><path id="biXMLID_165_" class="bist0" d="M4.4 5.1c-.1 0-.1-.1-.2-.1l-.9-1c-.1-.1-.1-.3 0-.4.1-.1.3-.1.4 0l.7.7 1.7-1.7c.1-.1.3-.1.4 0 .1.1.1.3 0 .4L4.6 5s-.1.1-.2.1zm0 0"/></g></g></svg><svg width="12" height="12" viewBox="0 0 12 12" id="close" x="702" y="690" xmlns="http://www.w3.org/2000/svg"><defs><style>.bjcls-1{fill:#e8e8e8;fill-rule:evenodd}</style></defs><path class="bjcls-1" d="M11.991 10.892l-1.1 1.1L6 7.1l-4.892 4.892-1.1-1.1L4.9 6 .008 1.108l1.1-1.1L6 4.9 10.892.008l1.1 1.1L7.1 6z"/></svg><svg width="32" height="32" viewBox="0 0 32 32" id="curr-bitcoin" x="714" y="702" xmlns="http://www.w3.org/2000/svg"><g fill="none" fill-rule="evenodd"><circle cx="16" cy="16" r="16" fill="#F7931A"/><path fill="#FFF" fill-rule="nonzero" d="M23.189 14.02c.314-2.096-1.283-3.223-3.465-3.975l.708-2.84-1.728-.43-.69 2.765c-.454-.114-.92-.22-1.385-.326l.695-2.783L15.596 6l-.708 2.839c-.376-.086-.746-.17-1.104-.26l.002-.009-2.384-.595-.46 1.846s1.283.294 1.256.312c.7.175.826.638.805 1.006l-.806 3.235c.048.012.11.03.18.057l-.183-.045-1.13 4.532c-.086.212-.303.531-.793.41.018.025-1.256-.313-1.256-.313l-.858 1.978 2.25.561c.418.105.828.215 1.231.318l-.715 2.872 1.727.43.708-2.84c.472.127.93.245 1.378.357l-.706 2.828 1.728.43.715-2.866c2.948.558 5.164.333 6.097-2.333.752-2.146-.037-3.385-1.588-4.192 1.13-.26 1.98-1.003 2.207-2.538zm-3.95 5.538c-.533 2.147-4.148.986-5.32.695l.95-3.805c1.172.293 4.929.872 4.37 3.11zm.535-5.569c-.487 1.953-3.495.96-4.47.717l.86-3.45c.975.243 4.118.696 3.61 2.733z"/></g></svg><svg height="32" width="32" viewBox="0 0 32 32" id="curr-bitcoincash" x="746" y="734" xmlns="http://www.w3.org/2000/svg"><g fill="none" fill-rule="evenodd"><circle cx="16" cy="16" fill="#8dc351" r="16"/><path d="M21.207 10.534c-.776-1.972-2.722-2.15-4.988-1.71l-.807-2.813-1.712.491.786 2.74c-.45.128-.908.27-1.363.41l-.79-2.758-1.711.49.805 2.813c-.368.114-.73.226-1.085.328l-.003-.01-2.362.677.525 1.83s1.258-.388 1.243-.358c.694-.199 1.035.139 1.2.468l.92 3.204c.047-.013.11-.029.184-.04l-.181.052 1.287 4.49c.032.227.004.612-.48.752.027.013-1.246.356-1.246.356l.247 2.143 2.228-.64c.415-.117.825-.227 1.226-.34l.817 2.845 1.71-.49-.807-2.815a65.74 65.74 0 0 0 1.372-.38l.802 2.803 1.713-.491-.814-2.84c2.831-.991 4.638-2.294 4.113-5.07-.422-2.234-1.724-2.912-3.471-2.836.848-.79 1.213-1.858.642-3.3zm-.65 6.77c.61 2.127-3.1 2.929-4.26 3.263l-1.081-3.77c1.16-.333 4.704-1.71 5.34.508zm-2.322-5.09c.554 1.935-2.547 2.58-3.514 2.857l-.98-3.419c.966-.277 3.915-1.455 4.494.563z" fill="#fff" fill-rule="nonzero"/></g></svg><svg width="32" height="32" viewBox="0 0 32 32" id="curr-dash" x="778" y="766" xmlns="http://www.w3.org/2000/svg"><g fill="none" fill-rule="nonzero"><circle cx="16" cy="16" r="16" fill="#008CE7"/><g fill="#FFF"><path d="M19.086 8.004H11.81l-.602 3.367 6.562.01c3.231 0 4.19 1.173 4.159 3.12-.014.998-.449 2.686-.633 3.23-.497 1.46-1.521 3.122-5.359 3.117l-6.378-.004-.602 3.371h7.257c2.559 0 3.649-.299 4.8-.83 2.554-1.178 4.075-3.701 4.686-6.994.906-4.9-.224-8.387-6.615-8.387z"/><path d="M15.807 15.798c.237-.985.312-1.38.312-1.38H8.673c-1.904 0-2.176 1.24-2.357 1.99-.237.981-.312 1.381-.312 1.381h7.447c1.903 0 2.175-1.24 2.356-1.991z"/></g></g></svg><svg width="32" height="32" viewBox="0 0 32 32" id="curr-dollar" x="810" y="798" xmlns="http://www.w3.org/2000/svg"><path fill="#FFF" d="M20.4 15.9H0c0 .8.1 1.5.3 2.3h29.3c.2-.7.3-1.5.3-2.2l-9.5-.1zM7.9 28.2h14.3c1.3-.7 2.5-1.6 3.5-2.7H4.3c1.1 1.1 2.3 2 3.6 2.7zM2.4 23.2h25.2c.5-.8 1-1.7 1.3-2.6H1.1c.4.9.8 1.8 1.3 2.6zM20.9 13.6h9c-.1-.8-.2-1.5-.4-2.2h-8.6v2.2zM20.9 2v2.3h4.6c-.9-.9-1.9-1.7-3.1-2.3h-1.5zM20.9 9h7.8c-.4-.8-.8-1.6-1.3-2.3h-6.6V9z"/><path fill="#C71820" d="M22.4 2c-.5-.3-1-.5-1.5-.8V2h1.5zM20.9 6.7h6.6c-.6-.9-1.2-1.7-2-2.4h-4.6v2.4zM20.9 11.4h8.6c-.2-.8-.5-1.6-.8-2.4h-7.8v2.4zM20.9 15.9h-.5v.1H30v-1c0-.5 0-.9-.1-1.4h-9v2.3zM1.1 20.6h27.8c.3-.8.6-1.6.7-2.4H.4c.1.8.4 1.6.7 2.4zM4.3 25.5h21.3c.7-.7 1.4-1.5 1.9-2.4H2.4c.6.9 1.2 1.7 1.9 2.4zM15 30c2.6 0 5-.7 7.1-1.8H7.9C10 29.3 12.4 30 15 30z"/><path fill="#241F5D" d="M20.4 1C20 .8 19.5.7 19 .6l.2.4h.7l-.5.5.2.7-.6-.4-.6.4.2-.7L18 1h.7l.2-.5C17.6.2 16.3 0 15 0s-2.6.2-3.9.5l.2.5h.7l-.5.5.2.7-.6-.4-.6.4.2-.7-.6-.5h.7l.1-.4c-1.1.3-2.2.7-3.2 1.3l.1.3-.3-.2c-.7.4-1.3.8-2 1.3l.2.6-.4-.3c-.6.5-1.1 1-1.5 1.5l.1.3-.3-.1c-.9 1-1.7 2.2-2.3 3.5l.2.4h.7l-.5.5.2.7-.7-.4-.5.4C.3 11.5.1 12.7 0 14h.2l-.2.2V15.9h20.9V1.2c-.2-.1-.3-.1-.5-.2zM1.9 13.7l-.6-.4-.6.4.1-.7-.5-.5H1l.3-.7.3.7h.7l-.6.5.2.7zm1.9 1.5l-.6-.4-.6.4.2-.7-.6-.5h.7l.3-.7.2.7h.7l-.5.5.2.7zm-.2-4l.2.8-.6-.4-.6.4.2-.7-.5-.5H3l.2-.8.3.7h.7l-.6.5zm0-3.2l.2.7-.6-.4-.6.4.2-.7-.6-.5h.7l.3-.7.3.7h.7l-.6.5zm2.1 5.7l-.6-.4-.6.4.2-.7-.5-.5h.7l.3-.7.3.7h.7l-.7.5.2.7zm-.2-4l.2.7-.6-.4-.6.4.2-.7-.5-.5h.7l.3-.7.3.7h.7l-.7.5zm0-3.3l.2.7-.6-.4-.6.4.2-.7-.5-.5h.7l.3-.7.3.7h.7l-.7.5zm2.3 8.8l-.6-.4-.6.4.2-.7-.6-.5h.7l.3-.7.3.7h.7l-.5.5.1.7zm-.2-4l.2.8-.6-.4-.6.4.2-.7-.5-.5H7l.2-.8.3.7h.7l-.6.5zm0-3.2l.2.7-.6-.4-.6.4.2-.7-.6-.5h.7l.3-.7.3.7h.7l-.6.5zm0-3.3l.2.7-.6-.4-.6.4.2-.7-.6-.5h.7l.3-.7.3.7h.7l-.6.5zm2.1 9l-.6-.4-.6.4.2-.7-.5-.5h.7l.3-.7.3.7h.7l-.7.5.2.7zm-.2-4l.2.7-.6-.4-.6.4.2-.7-.5-.5h.7l.3-.7.3.7h.7l-.7.5zm0-3.3l.2.7-.6-.4-.6.4.2-.7-.5-.5h.7l.3-.7.3.7h.7l-.7.5zm0-3.2l.2.7-.6-.4-.6.4.2-.7-.5-.5h.7l.2-.7.3.7h.7l-.6.5zm2.2 12l-.6-.4-.6.4.2-.7-.6-.5h.7l.3-.7.3.7h.6l-.5.5.2.7zm-.2-4l.2.7-.6-.4-.6.5.2-.7-.5-.5h.7l.1-.8.3.7h.7l-.5.5zm0-3.2l.2.7-.6-.4-.6.4.1-.7-.5-.5h.7l.2-.7.3.7h.7l-.5.5zm0-3.3l.2.7-.6-.4-.6.4.2-.7-.5-.5h.7l.1-.7.3.7h.7l-.5.5zm2.1 9l-.6-.4-.6.4.2-.7-.6-.5h.7l.3-.7.3.7h.7l-.6.5.2.7zm-.2-4l.2.7-.6-.4-.6.4.2-.7-.6-.5h.7l.3-.7.3.7h.7l-.6.5zm0-3.3l.2.7-.6-.4-.6.4.2-.7-.6-.5h.7l.3-.7.3.7h.7l-.6.5zm0-3.2l.2.7-.6-.4-.6.4.2-.7-.6-.5h.7L13 2l.3.7h.7l-.6.5zm2.2 12l-.6-.4-.6.4.2-.7-.6-.5h.7l.3-.7.3.7h.7l-.5.5.1.7zm-.2-4l.2.7-.6-.4-.6.5.2-.7-.6-.5h.7l.3-.7.3.7h.7l-.6.4zm0-3.2l.2.7-.6-.4-.6.4.1-.7-.5-.5h.7l.3-.7.3.7h.7l-.6.5zm0-3.3l.2.7-.7-.4-.6.4.2-.7-.5-.5h.7l.3-.7.3.7h.7l-.6.5zm0-3.2l.2.7-.6-.4-.6.4.2-.7L14 1h.7l.3-.7.2.7h.7l-.5.5zm2.1 12.2l-.6-.4-.6.4.2-.7-.5-.5h.7l.3-.7.3.7h.7l-.7.5.2.7zm-.2-4l.2.7-.6-.4-.6.4.2-.7-.5-.5h.7l.3-.7.3.7h.7l-.7.5zm0-3.3l.2.7-.6-.4-.6.4.2-.7-.5-.5h.7l.3-.7.3.7h.7l-.7.5zm0-3.2l.2.7-.6-.4-.6.4.2-.7-.5-.5h.7l.2-.7.3.7h.7l-.6.5zm2.2 12l-.6-.4-.6.4.2-.7-.5-.5h.7l.3-.7.3.7h.7l-.5.5v.7zm-.1-4l.2.7-.6-.4-.7.5.2-.7-.5-.5h.7l.3-.7.3.7h.7l-.6.4zm0-3.2l.2.7-.6-.4-.6.4.1-.7-.5-.5h.7l.3-.7.3.7h.7l-.6.5zm0-3.3l.2.7-.7-.4-.6.4.2-.7-.5-.5h.7l.3-.7.3.7h.7l-.6.5z"/><path fill="#FFF" d="M7.7 1.9s-.1.1-.2.1l.3.2-.1-.3zM10.1 1l.5.5-.2.7.6-.4.6.4-.2-.7.6-.5h-.7l-.2-.5c-.1 0-.1 0-.2.1l-.1.4h-.7zM14.9.3l-.2.7H14l.5.5-.1.7.5-.4.7.4-.2-.7.5-.5h-.7zM18 1l.5.5-.2.7.6-.4.6.4-.2-.7.6-.5h-.7L19 .6c-.1 0-.1 0-.2-.1l-.1.5H18zM5.6 3.3l-.3.3.5.3-.2-.6zM9.1 2l-.2.7h-.7l.5.5-.2.7.6-.4.6.4-.2-.7.6-.5h-.7zM13 2l-.3.7H12l.6.5-.2.7.6-.4.6.4-.2-.7.5-.5h-.6zM16.9 2l-.3.7h-.7l.6.5-.2.7.6-.4.6.4-.2-.7.5-.5h-.7zM3.7 5.1c0 .1-.1.1-.1.1l.2.1-.1-.2zM7.2 3.5l-.3.7h-.7l.6.5-.2.7.6-.4.6.4-.2-.7.5-.5h-.6zM11 3.5l-.2.7h-.7l.5.5-.1.7.6-.4.6.4-.2-.7.5-.5h-.7zM14.9 3.5l-.2.7H14l.5.5-.1.7.5-.4.7.4-.2-.7.5-.5h-.7zM18.9 3.5l-.2.7H18l.5.5-.2.7.6-.4.6.4-.1-.7.5-.5h-.7zM5.1 5.2l-.2.7h-.7l.5.5-.2.7.6-.4.6.4-.2-.7.6-.5h-.7zM9.1 5.2l-.2.7h-.7l.5.5-.2.7.6-.4.6.4-.2-.7.6-.5h-.7zM13 5.2l-.3.7H12l.6.5-.2.7.6-.4.6.4-.2-.7.5-.5h-.6zM16.9 5.2l-.3.7h-.7l.6.5-.2.7.6-.4.6.4-.2-.7.5-.5h-.7zM3.2 6.8l-.3.7h-.7l.6.5-.2.7.6-.4.6.4-.2-.7.5-.5h-.7zM7.2 6.8l-.3.7h-.7l.6.5-.2.7.6-.4.6.4-.2-.7.5-.5h-.6zM11 6.8l-.2.7h-.7l.5.5-.1.7.6-.4.6.4-.2-.7.5-.5h-.7zM14.9 6.8l-.2.7H14l.5.5-.1.7.5-.4.7.4-.2-.7.5-.5h-.7zM18.9 6.8l-.2.7H18l.5.5-.2.7.6-.4.6.4-.1-.7.5-.5h-.7zM1.9 10.4l-.2-.7.5-.5h-.7l-.2-.4c-.2.5-.4 1-.6 1.6l.5-.4.7.4zM5.1 8.5l-.2.7h-.7l.5.5-.2.7.6-.4.6.4-.2-.7.6-.5h-.7zM9.1 8.5l-.2.7h-.7l.5.5-.2.7.6-.4.6.4-.2-.7.6-.5h-.7zM13 8.5l-.3.7H12l.6.5-.2.7.6-.4.6.4-.2-.7.5-.5h-.6zM16.9 8.5l-.3.7h-.7l.6.5-.2.7.6-.4.6.4-.2-.7.5-.5h-.7zM3.2 10l-.3.8h-.7l.6.4-.2.8.6-.4.6.4-.2-.8.5-.4h-.7zM7.2 10l-.3.8h-.7l.6.4-.2.8.6-.4.6.4-.2-.8.5-.4h-.6zM11 10l-.2.8h-.7l.5.4-.1.8.6-.4.6.4-.2-.8.5-.4h-.7zM14.9 10l-.2.8H14l.5.4-.1.8.5-.4.7.4-.2-.8.5-.4h-.7zM18.9 10l-.2.8H18l.5.4-.2.8.6-.4.6.4-.1-.8.5-.4h-.7zM.1 14v.2l.2-.2H.1zM3.4 14l-.2-.7-.3.7h-.7l.6.5-.2.7.6-.4.6.4-.2-.7.5-.5zM7.5 14l-.3-.7-.3.7h-.7l.6.5-.2.7.6-.4.6.4-.2-.7.5-.5zM11.3 14l-.3-.7-.2.7h-.7l.5.5-.1.7.6-.4.6.4-.2-.7.5-.5zM15.2 14l-.3-.7-.2.7H14l.5.5-.1.7.5-.4.7.4-.2-.7.5-.5zM19.2 14l-.3-.7-.2.7H18l.5.5-.2.7.6-.4.6.4-.1-.7.5-.5zM1.5 12.5l-.3-.7-.2.7H.3l.5.5-.1.7.5-.4.7.4-.2-.7.5-.5zM5.4 12.5l-.3-.7-.2.7h-.7l.5.5-.2.7.6-.4.6.4-.2-.7.6-.5zM9.4 12.5l-.3-.7-.2.7h-.7l.5.5-.2.7.6-.4.6.4-.2-.7.6-.5zM13.3 12.5l-.3-.7-.3.7H12l.6.5-.2.7.6-.4.6.4-.2-.7.5-.5zM17.1 12.5l-.2-.7-.3.7h-.7l.6.5-.2.7.6-.4.6.4-.2-.7.5-.5z"/></svg><svg width="32" height="32" viewBox="0 0 32 32" id="curr-ethereum" x="842" y="830" xmlns="http://www.w3.org/2000/svg"><g fill="none" fill-rule="evenodd"><circle cx="16" cy="16" r="16" fill="#627EEA"/><g fill="#FFF" fill-rule="nonzero"><path fill-opacity=".602" d="M16.498 4v8.87l7.497 3.35z"/><path d="M16.498 4L9 16.22l7.498-3.35z"/><path fill-opacity=".602" d="M16.498 21.968v6.027L24 17.616z"/><path d="M16.498 27.995v-6.028L9 17.616z"/><path fill-opacity=".2" d="M16.498 20.573l7.497-4.353-7.497-3.348z"/><path fill-opacity=".602" d="M9 16.22l7.498 4.353v-7.701z"/></g></g></svg><svg width="32" height="32" viewBox="0 0 32 32" id="curr-litecoin" x="874" y="862" xmlns="http://www.w3.org/2000/svg"><g fill="none" fill-rule="evenodd"><circle cx="16" cy="16" r="16" fill="#BFBBBB"/><path fill="#FFF" d="M10.427 19.214L9 19.768l.688-2.759 1.444-.58L13.213 8h5.129l-1.519 6.196 1.41-.571-.68 2.75-1.427.571-.848 3.483H23L22.127 24H9.252z"/></g></svg><svg height="32" width="32" viewBox="0 0 32 32" id="curr-maker" x="906" y="894" xmlns="http://www.w3.org/2000/svg"><g fill="none" fill-rule="evenodd"><circle cx="16" cy="16" fill="#1abc9c" r="16"/><path d="M7.838 12.056V22.5H6v-14l9.708 7.027V22.5H13.87v-6.077zm10.292 4.367V22.5h-1.838v-6.973L26 8.5v14h-1.838V12.056z" fill="#fff" fill-rule="nonzero"/></g></svg><svg width="32" height="32" viewBox="0 0 32 32" id="curr-monero" x="938" y="926" xmlns="http://www.w3.org/2000/svg"><g fill="none" fill-rule="evenodd"><circle cx="16" cy="16" r="16" fill="#F60"/><path fill="#FFF" fill-rule="nonzero" d="M15.97 5.235c5.985 0 10.825 4.84 10.825 10.824a11.07 11.07 0 0 1-.558 3.432h-3.226v-9.094l-7.04 7.04-7.04-7.04v9.094H5.704a11.07 11.07 0 0 1-.557-3.432c0-5.984 4.84-10.824 10.824-10.824zM14.358 19.02L16 20.635l1.613-1.614 3.051-3.08v5.72h4.547a10.806 10.806 0 0 1-9.24 5.192c-3.902 0-7.334-2.082-9.24-5.192h4.546v-5.72l3.08 3.08z"/></g></svg><svg width="32" height="32" viewBox="0 0 32 32" id="curr-ripple" x="970" y="958" xmlns="http://www.w3.org/2000/svg"><circle cx="16" cy="16" r="15" fill="#fff"/><path d="M14.791 14.661h.037a1.592 1.592 0 0 0 1.585-1.6v-.077a1.507 1.507 0 0 0-.225-.655 4.153 4.153 0 0 1 2.567-6.228 4.256 4.256 0 0 1 .974-.112 4.142 4.142 0 0 1 .44 8.26 1.729 1.729 0 0 1-.215.009c-.131 0-.253-.009-.375-.009v.028c-.14 0-.281-.019-.412-.019a2.12 2.12 0 0 0-.243.019 1.487 1.487 0 0 0-.946 2.248 1.755 1.755 0 0 0 1.582.871 4.138 4.138 0 1 1-4.073 4.884 3.863 3.863 0 0 1-.029-.183 3.979 3.979 0 0 1 .656-2.847 1.611 1.611 0 0 0-1.087-2.491 1.838 1.838 0 0 0-.318-.028 1.713 1.713 0 0 0-1.5.927 4.209 4.209 0 0 1-1.246 1.414 4.076 4.076 0 0 1-2.369.768 4.146 4.146 0 0 1-.675-8.241 3.758 3.758 0 0 1 .637-.056 4.154 4.154 0 0 1 3.634 2.154 1.726 1.726 0 0 0 1.6.965M16.026-.013a16 16 0 1 0 6.088 1.218 15.629 15.629 0 0 0-6.088-1.218" fill="#438bca" fill-rule="evenodd"/></svg><svg width="32" height="32" viewBox="0 0 32 32" id="curr-xrp" x="1002" y="990" xmlns="http://www.w3.org/2000/svg"><g fill="none" fill-rule="nonzero"><circle cx="16" cy="16" r="16" fill="#23292F"/><g fill="#FFF"><path d="M23.07 8h2.89l-6.015 5.957a5.621 5.621 0 0 1-7.89 0L6.035 8H8.93l4.57 4.523a3.556 3.556 0 0 0 4.996 0L23.07 8zM8.895 24.563H6l6.055-5.993a5.621 5.621 0 0 1 7.89 0L26 24.562h-2.895L18.5 20a3.556 3.556 0 0 0-4.996 0l-4.61 4.563z"/></g></g></svg><svg width="19" height="19" viewBox="0 0 19 19" id="diskette" x="1034" y="1022" xmlns="http://www.w3.org/2000/svg"><defs><style>.bucls-1{fill:#bfbebf;fill-rule:evenodd}</style></defs><path class="bucls-1" d="M18.77 4.19L14.81.232A.793.793 0 0 0 14.25 0H8.31a.792.792 0 0 0 0 1.583h2.77v4.75H5.15V.792A.8.8 0 0 0 4.35 0H2.38A2.381 2.381 0 0 0 0 2.375v14.25A2.381 2.381 0 0 0 2.38 19h14.25A2.379 2.379 0 0 0 19 16.625V4.75a.785.785 0 0 0-.23-.56zm-4.92 13.227h-8.7v-4.354h8.7v4.354zm3.57-.792a.8.8 0 0 1-.79.792h-1.19v-5.146a.8.8 0 0 0-.79-.792H4.35a.8.8 0 0 0-.79.792v5.146H2.38a.8.8 0 0 1-.8-.792V2.375a.8.8 0 0 1 .8-.792h1.18v5.542a.8.8 0 0 0 .79.792h7.53a.8.8 0 0 0 .79-.792V1.583h1.25l3.5 3.5V16.63z"/></svg><svg width="25" height="8.91" viewBox="0 0 25 8.91" id="dots-more" x="1053" y="1041" xmlns="http://www.w3.org/2000/svg"><defs><style>.bvcls-1{fill:#4a9cd5;fill-rule:evenodd}</style></defs><path class="bvcls-1" d="M20.786.01a4.293 4.293 0 0 0-4.141 3.56 4.188 4.188 0 0 0-8.281 0A4.291 4.291 0 0 0 4.223.01a4.461 4.461 0 0 0 0 8.91 4.3 4.3 0 0 0 4.141-3.57 4.186 4.186 0 0 0 8.281 0 4.3 4.3 0 0 0 4.141 3.57 4.461 4.461 0 0 0 0-8.91zM4.223 6.41a1.953 1.953 0 1 1 1.85-1.95 1.9 1.9 0 0 1-1.85 1.95zm8.281 0a1.953 1.953 0 1 1 1.85-1.95 1.9 1.9 0 0 1-1.85 1.95zm8.282 0a1.953 1.953 0 1 1 1.849-1.95 1.9 1.9 0 0 1-1.849 1.95z"/></svg><svg width="19" height="19" viewBox="0 0 19 19" id="edit" x="1078" y="1050" xmlns="http://www.w3.org/2000/svg"><defs><style>.bwcls-1{fill:#529dd6;fill-rule:evenodd}</style></defs><path class="bwcls-1" d="M14.933 19h-12.4a2.534 2.534 0 0 1-2.532-2.53V4.041a2.534 2.534 0 0 1 2.532-2.53h10.116V3.2H2.535a.841.841 0 0 0-.84.839v12.427a.841.841 0 0 0 .84.839h12.4a.841.841 0 0 0 .84-.839V5.956h1.692v10.512A2.533 2.533 0 0 1 14.933 19zM4.698 14.39l2.271-5.535 8.206-8.2a2.24 2.24 0 0 1 3.168 3.166l-8.361 8.356zm3.708-4.58l-.59 1.439 1.205-.5 8.125-8.121a.548.548 0 1 0-.775-.774z"/></svg><svg width="29" height="15.03" viewBox="0 0 29 15.03" id="ex" x="1097" y="1069" xmlns="http://www.w3.org/2000/svg"><defs><style>.bxcls-1{fill:#737779;fill-rule:evenodd}</style></defs><path class="bxcls-1" d="M0 14.81V.01h10.01v3.01H3.47v2.8h6.183v2.86H3.47v3.08h6.919v3.05H0zm19.726 0l-2.25-3.2-2.314 3.2h-4l4.185-5.46-3.786-4.95h4.017l1.956 2.78 1.977-2.78h3.891l-3.764 4.95 4.143 5.46h-4.055zM29 12.97a1.929 1.929 0 0 1-.62 1.46 2.184 2.184 0 0 1-2.313.43 2.165 2.165 0 0 1-.683-.43 1.985 1.985 0 0 1-.462-.63 1.946 1.946 0 0 1-.168-.81 1.887 1.887 0 0 1 .168-.79 2.11 2.11 0 0 1 .462-.66 2.219 2.219 0 0 1 .683-.45 2.143 2.143 0 0 1 2.313.42 1.914 1.914 0 0 1 .62 1.46z"/></svg><svg width="169.78" height="50" viewBox="0 0 169.78 50" id="exch-bg" x="1126" y="1085" xmlns="http://www.w3.org/2000/svg"><defs><style>.bycls-1{fill:#226ab4;fill-rule:evenodd}</style></defs><path class="bycls-1" d="M152.92 0H5a5 5 0 0 0-5 5v40a5 5 0 0 0 5 5h147.92a5.043 5.043 0 0 0 4.32-2.428l11.8-20.148a4.956 4.956 0 0 0 0-5.145l-11.8-19.851A5.043 5.043 0 0 0 152.92 0z"/></svg><svg width="22.96" height="22.969" viewBox="0 0 22.96 22.969" id="expand" x="1296" y="1135" xmlns="http://www.w3.org/2000/svg"><defs><style>.bzcls-1{fill:#c9c9c9;fill-rule:evenodd}</style></defs><path class="bzcls-1" d="M6.36 22.962a.635.635 0 1 0 0-1.27H2.15l4.56-4.559a.636.636 0 0 0-.9-.9l-4.56 4.559v-4.213a.631.631 0 0 0-.63-.635.642.642 0 0 0-.64.635v5.748a.64.64 0 0 0 .64.635h5.74zM16.57-.006a.635.635 0 1 0 0 1.27h4.21l-4.56 4.559a.636.636 0 1 0 .9.9l4.56-4.559v4.214a.631.631 0 0 0 .63.635.642.642 0 0 0 .64-.635V.629a.64.64 0 0 0-.64-.635h-5.74zM-.02 6.376a.64.64 0 0 0 .64.635.631.631 0 0 0 .63-.635V2.162l4.56 4.559a.636.636 0 0 0 .9-.9L2.15 1.262h4.21A.64.64 0 0 0 7 .627a.642.642 0 0 0-.64-.635H.62a.639.639 0 0 0-.64.635v5.747zm22.97 10.2a.639.639 0 0 0-.64-.635.631.631 0 0 0-.63.635v4.215l-4.56-4.556a.636.636 0 1 0-.9.9l4.56 4.559h-4.21a.64.64 0 0 0-.64.635.642.642 0 0 0 .64.635h5.74a.64.64 0 0 0 .64-.635v-5.75z"/></svg><svg width="27" height="27" viewBox="0 0 27 27" id="gear" x="1319" y="1158" xmlns="http://www.w3.org/2000/svg"><defs><style>.cacls-1{fill-rule:evenodd}</style></defs><path class="cacls-1" d="M25.63 10.665l-1.9-.322a10.918 10.918 0 0 0-.76-1.839l1.12-1.563a1.668 1.668 0 0 0-.18-2.149l-1.68-1.681a1.667 1.667 0 0 0-2.15-.181l-1.56 1.117a10.727 10.727 0 0 0-1.91-.784l-.32-1.872a1.654 1.654 0 0 0-1.64-1.394h-2.38a1.661 1.661 0 0 0-1.64 1.394l-.33 1.918a10.212 10.212 0 0 0-1.83.772L6.92 2.964a1.673 1.673 0 0 0-.97-.31 1.641 1.641 0 0 0-1.18.491L3.08 4.826a1.681 1.681 0 0 0-.18 2.149L4.03 8.56a10.344 10.344 0 0 0-.75 1.845l-1.87.316a1.669 1.669 0 0 0-1.4 1.647v2.375a1.669 1.669 0 0 0 1.4 1.647l1.91.328a10.387 10.387 0 0 0 .78 1.833l-1.11 1.545a1.658 1.658 0 0 0 .18 2.15l1.68 1.681a1.654 1.654 0 0 0 2.14.181l1.58-1.128a10.59 10.59 0 0 0 1.79.732l.31 1.9a1.671 1.671 0 0 0 1.65 1.393h2.38a1.653 1.653 0 0 0 1.64-1.393l.33-1.9a10.544 10.544 0 0 0 1.83-.761l1.57 1.117a1.65 1.65 0 0 0 .97.31 1.671 1.671 0 0 0 1.18-.491l1.68-1.68a1.682 1.682 0 0 0 .18-2.15l-1.12-1.568a10.515 10.515 0 0 0 .76-1.839l1.9-.316a1.669 1.669 0 0 0 1.39-1.647v-2.375a1.651 1.651 0 0 0-1.38-1.647zm-.13 4.022a.145.145 0 0 1-.13.146l-2.37.4a.754.754 0 0 0-.6.559 9.271 9.271 0 0 1-.99 2.364.757.757 0 0 0 .04.829l1.39 1.963a.155.155 0 0 1-.02.192l-1.68 1.681a.144.144 0 0 1-.1.045.136.136 0 0 1-.09-.028L19 21.444a.764.764 0 0 0-.83-.033 9.1 9.1 0 0 1-2.37.981.737.737 0 0 0-.55.609l-.41 2.369a.141.141 0 0 1-.14.125h-2.38a.141.141 0 0 1-.14-.125l-.4-2.369a.754.754 0 0 0-.56-.609 9.491 9.491 0 0 1-2.31-.948.767.767 0 0 0-.38-.1.748.748 0 0 0-.44.141l-1.97 1.4a.187.187 0 0 1-.09.029.161.161 0 0 1-.11-.046l-1.68-1.681a.152.152 0 0 1-.01-.191l1.38-1.947a.766.766 0 0 0 .04-.834 8.8 8.8 0 0 1-.99-2.359.78.78 0 0 0-.61-.558l-2.39-.407a.145.145 0 0 1-.12-.146V12.37a.147.147 0 0 1 .12-.147l2.35-.394a.777.777 0 0 0 .62-.564 9.2 9.2 0 0 1 .96-2.37.749.749 0 0 0-.04-.824l-1.4-1.974a.154.154 0 0 1 .01-.192l1.68-1.681a.149.149 0 0 1 .11-.045.158.158 0 0 1 .09.028l1.94 1.388a.781.781 0 0 0 .84.034 8.826 8.826 0 0 1 2.35-.993.77.77 0 0 0 .56-.609l.41-2.387a.141.141 0 0 1 .14-.124h2.38a.16.16 0 0 1 .15.124l.39 2.353a.761.761 0 0 0 .56.615 8.944 8.944 0 0 1 2.42.993.764.764 0 0 0 .83-.034l1.95-1.4a.154.154 0 0 1 .08-.029.161.161 0 0 1 .11.046l1.68 1.681a.154.154 0 0 1 .02.192l-1.4 1.957a.776.776 0 0 0-.03.829 8.9 8.9 0 0 1 .98 2.364.749.749 0 0 0 .61.558l2.37.4a.146.146 0 0 1 .12.147v2.375zM13.51 7.669a5.827 5.827 0 1 0 5.83 5.827 5.828 5.828 0 0 0-5.83-5.827zm0 10.132a4.3 4.3 0 1 1 4.31-4.3 4.307 4.307 0 0 1-4.31 4.299z"/></svg><svg width="24" height="23.03" viewBox="0 0 24 23.03" id="gear-filled" x="1346" y="1185" xmlns="http://www.w3.org/2000/svg"><defs><style>.cbcls-1{fill:#606060;fill-rule:evenodd}</style></defs><path class="cbcls-1" d="M20.818 8.68l-.115-.04-.446-1.04.049-.11c1.352-3 1.258-3.09 1.034-3.31l-1.8-1.72a.493.493 0 0 0-.314-.12c-.1 0-.409 0-3.07 1.18l-.105.05-1.1-.44-.043-.1C13.655-.01 13.529-.01 13.217-.01h-2.543c-.31 0-.452 0-1.611 3.04l-.045.11-1.09.44-.105-.05a17.36 17.36 0 0 0-3.124-1.12.5.5 0 0 0-.316.12l-1.8 1.73c-.228.22-.323.31 1.1 3.25l.053.11-.448 1.04-.109.04C0 9.9 0 10.02 0 10.33v2.45c0 .31 0 .44 3.177 1.56l.113.03.446 1.04-.047.11c-1.351 3-1.266 3.08-1.036 3.31l1.8 1.72a.5.5 0 0 0 .315.12c.1 0 .407 0 3.07-1.18l.105-.05 1.1.44.043.11c1.252 3.03 1.381 3.03 1.692 3.03h2.544c.319 0 .452 0 1.612-3.04l.043-.11 1.093-.44.105.05a17.3 17.3 0 0 0 3.122 1.12.506.506 0 0 0 .316-.12l1.806-1.73c.228-.22.322-.32-1.1-3.25l-.052-.11.446-1.04.107-.04C24 13.1 24 12.99 24 12.67v-2.44c0-.31 0-.44-3.182-1.55zM12 15.47a3.963 3.963 0 1 1 4.121-3.96A4.05 4.05 0 0 1 12 15.47z"/></svg><svg width="27" height="24" viewBox="0 0 27 24" id="graph" x="1370" y="1209" xmlns="http://www.w3.org/2000/svg"><defs><style>.cccls-1{fill-rule:evenodd}</style></defs><path class="cccls-1" d="M25.97 2.616h-7.66a1 1 0 1 0 0 2h5.22l-6.04 5.893-2.24-2.2a1.042 1.042 0 0 0-1.45 0l-9.1 8.91a.984.984 0 0 0 0 1.415 1.041 1.041 0 0 0 1.45 0l8.37-8.2 2.25 2.2a1.031 1.031 0 0 0 1.44 0l6.74-6.575v5.065a1.02 1.02 0 0 0 2.04 0V3.616a1.006 1.006 0 0 0-1.02-1zm-.03 19.389H2.05V.984a1.02 1.02 0 0 0-2.04 0v22.025a1.013 1.013 0 0 0 1.02 1h24.91a1 1 0 1 0 0-2.001z"/></svg><svg width="23.969" height="18" viewBox="0 0 23.969 18" id="graph_2" x="1397" y="1233" xmlns="http://www.w3.org/2000/svg"><defs><style>.cdcls-1{fill:#bfc0c0;fill-rule:evenodd}</style></defs><path class="cdcls-1" d="M22.885-.008h-8.149a1.106 1.106 0 0 0-.069 2.21h5.622l-6.418 6.505-2.388-2.424a1.067 1.067 0 0 0-1.533 0L.289 16.116a1.127 1.127 0 0 0 0 1.564 1.066 1.066 0 0 0 1.531 0l8.894-9.051 2.388 2.422a1.074 1.074 0 0 0 1.533 0l7.163-7.257v5.591a1.085 1.085 0 1 0 2.169 0V1.1a1.092 1.092 0 0 0-1.078-1.106h-.006z"/></svg><svg width="24" height="23.94" viewBox="0 0 24 23.94" id="magnifier" x="1421" y="1251" xmlns="http://www.w3.org/2000/svg"><defs><style>.cecls-1{fill:#4a9cd5;fill-rule:evenodd}</style></defs><path class="cecls-1" d="M23.808 20.49l-6.091-6.14-2.057-.01a8.742 8.742 0 1 0-6.88 3.38 8.676 8.676 0 0 0 5.7-2.14l.022 2.02 6.07 6.16a.543.543 0 0 0 .78 0l2.456-2.48a.563.563 0 0 0 0-.79zM8.78 15.48a6.625 6.625 0 1 1 6.549-6.62 6.593 6.593 0 0 1-6.549 6.62z"/></svg><svg id="menu-burger" width="17" height="10" viewBox="0 0 17 10" x="1445" y="1275" xmlns="http://www.w3.org/2000/svg"><style>.cfst0{fill:#529dd6}</style><path class="cfst0" d="M0 0h17v2H0zM0 4h17v2H0zM0 8h17v2H0z"/></svg><svg width="17" height="17" viewBox="0 0 17 17" id="minus-in-circle" x="1462" y="1285" xmlns="http://www.w3.org/2000/svg"><defs><style>.cgcls-1{fill:#9ba6b2;fill-rule:evenodd}</style></defs><path class="cgcls-1" d="M8.5.008A8.495 8.495 0 1 0 17 8.502 8.505 8.505 0 0 0 8.5.008zm0 16.148a7.654 7.654 0 1 1 7.69-7.654 7.681 7.681 0 0 1-7.69 7.654zM2.61 8.082v.841h11.78v-.841H2.61z"/></svg><svg id="mode" viewBox="0 0 21.8 23.7" width="21.8" height="23.7" x="1479" y="1302" xmlns="http://www.w3.org/2000/svg"><style>.chst0{fill:#fff}.chst1{fill:#3ab44a}.chst2{fill:#eb2429}.chst3{fill:#f4eb32}.chst4{fill:#26a8e0}</style><path id="chXMLID_9_" class="chst0" d="M2.6 22.3h16.7v1.4H2.6z"/><path class="chst1" d="M1.7 16.1h18.2V19H1.7z"/><path class="chst2" d="M1.7 11.3h15v2.9h-15z"/><path class="chst3" d="M1.7 6.6h17v2.9h-17z"/><path class="chst4" d="M1.7 1.8v2.9h18.4v-3z"/><path class="chst0" d="M21 0H.8C.4 0 0 .4 0 .9v19c0 .5.4.9.9.9H21c.5 0 .9-.4.9-.9V.9c-.1-.5-.5-.9-.9-.9zM1.7 6.5h17v2.9h-17V6.5zm0 4.8h15v2.9h-15v-2.9m0 4.8h18.2V19H1.7v-2.9M20.1 4.7H1.7V1.8h18.4"/></svg><svg width="32" height="32" viewBox="0 0 32 32" id="moon" x="1501" y="1326" xmlns="http://www.w3.org/2000/svg"><defs><style>.cicls-1{fill:#bfc0c0;fill-rule:evenodd}</style></defs><path id="cimoon" class="cicls-1" d="M216.548 5924.92a1.181 1.181 0 0 0-1.32-.1 12.4 12.4 0 0 1-6.233 1.72 12.55 12.55 0 0 1-12.539-12.54 12.245 12.245 0 0 1 1.721-6.22 1.188 1.188 0 0 0-1.352-1.74 16.594 16.594 0 0 0-8.465 5.76 16.018 16.018 0 0 0-3.361 9.87 16.35 16.35 0 0 0 16.327 16.33 16.024 16.024 0 0 0 9.874-3.36 16.546 16.546 0 0 0 5.755-8.46 1.175 1.175 0 0 0-.407-1.26zm-15.222 10.71a13.911 13.911 0 0 1-6.472-26.25 14.241 14.241 0 0 0-.766 4.62A14.926 14.926 0 0 0 209 5928.91a14.365 14.365 0 0 0 4.632-.77 13.975 13.975 0 0 1-12.306 7.49z" transform="translate(-185 -5906)"/></svg><svg width="21.656" height="21.812" viewBox="0 0 21.656 21.812" id="pages" x="1533" y="1358" xmlns="http://www.w3.org/2000/svg"><defs><style>.cjcls-1{fill-rule:evenodd}</style></defs><path class="cjcls-1" d="M10.195.017a8.266 8.266 0 0 1 3.877.788c1.779.8 3.578 1.565 5.352 2.384a5.965 5.965 0 0 1 2.015 1.228.886.886 0 0 1-.192 1.192 9.863 9.863 0 0 1-2.341 1.272c-1.544.651-3.025 1.443-4.573 2.087a6.348 6.348 0 0 1-2.557.812 8.5 8.5 0 0 1-3.264-.274c-1.84-.674-3.564-1.62-5.369-2.379A17.8 17.8 0 0 1 .48 5.839a.975.975 0 0 1-.293-1.407 5.027 5.027 0 0 1 1.773-1.1C3.916 2.482 5.838 1.561 7.776.67a7.314 7.314 0 0 1 2.419-.653zM2.106 9.263a2.177 2.177 0 0 1 1.132.314c1.255.64 2.567 1.148 3.84 1.748a7.431 7.431 0 0 0 2.712.812 8.323 8.323 0 0 0 3.709-.4 76.073 76.073 0 0 0 4.568-2.088 3.278 3.278 0 0 1 1.345-.436 4.446 4.446 0 0 1 1.948 1.076.831.831 0 0 1 .011 1.2 8.345 8.345 0 0 1-2.547 1.417c-1.819.829-3.605 1.736-5.466 2.468a6.865 6.865 0 0 1-3.7.39 16.823 16.823 0 0 1-3.689-1.352c-1.166-.5-2.288-1.09-3.465-1.56a7.4 7.4 0 0 1-2.2-1.218.854.854 0 0 1-.069-1.229 5.092 5.092 0 0 1 1.871-1.142zm-.145 6.089a1.674 1.674 0 0 1 1.261.218c.865.405 1.743.781 2.616 1.169 1.747.823 3.615 1.7 5.6 1.438 1.834-.129 3.431-1.093 5.079-1.806a26.1 26.1 0 0 1 2.827-1.2 4.329 4.329 0 0 1 1.933 1 .9.9 0 0 1 .144 1.3 8.025 8.025 0 0 1-2.3 1.3c-1.329.588-2.63 1.235-3.963 1.815a11.641 11.641 0 0 1-2.992 1.115 7.725 7.725 0 0 1-4.32-.5c-2.072-.942-4.156-1.855-6.236-2.778-.71-.333-1.819-.866-1.5-1.838a3.533 3.533 0 0 1 1.852-1.233z"/></svg><svg width="13.97" height="12.938" viewBox="0 0 13.97 12.938" id="paper-plane" x="1555" y="1380" xmlns="http://www.w3.org/2000/svg"><defs><style>.ckcls-1{fill:#bfc0c0;fill-rule:evenodd}</style></defs><path class="ckcls-1" d="M13.89.037a.2.2 0 0 0-.22-.033L.11 6.319a.213.213 0 0 0-.12.188.217.217 0 0 0 .12.19l3.84 1.888a.2.2 0 0 0 .21-.02l3.73-2.8-2.93 3.02a.191.191 0 0 0-.05.162l.29 3.807a.207.207 0 0 0 .21.194.191.191 0 0 0 .15-.073l2.04-2.366 2.52 1.206a.2.2 0 0 0 .17 0 .207.207 0 0 0 .12-.129L13.96.25a.208.208 0 0 0-.07-.22zm0 0"/></svg><svg width="17" height="17" viewBox="0 0 17 17" id="plus-in-circle" x="1569" y="1393" xmlns="http://www.w3.org/2000/svg"><defs><style>.clcls-1{fill:#9ba6b2;fill-rule:evenodd}</style></defs><path class="clcls-1" d="M8.5.007A8.495 8.495 0 1 0 17 8.501 8.505 8.505 0 0 0 8.5.007zm0 16.148a7.654 7.654 0 1 1 7.69-7.654 7.681 7.681 0 0 1-7.69 7.654zm.4-8.074v-5.7h-.8v5.7H2.61v.841H8.1v5.7h.8v-5.7h5.49v-.841H8.9z"/></svg><svg width="10.938" height="9.063" viewBox="0 0 10.938 9.063" id="portfolio-liquidity" x="1586" y="1410" xmlns="http://www.w3.org/2000/svg"><defs><style>.cmcls-1{fill-rule:evenodd}</style></defs><path id="cmportfolio-liquidity" class="cmcls-1" d="M499.751 564.407v1.728a.2.2 0 0 0 .2.193h1.373a.2.2 0 0 0 .2-.193V563.1l-1 .97a1.224 1.224 0 0 1-.773.337zm2.454-1.334v3.062a.2.2 0 0 0 .2.193h1.373a.2.2 0 0 0 .2-.193v-1.8a1.21 1.21 0 0 1-.826-.342zm2.453 1.083v1.993a.2.2 0 0 0 .2.193h1.373a.2.2 0 0 0 .2-.193v-3.678L504.854 564a1.15 1.15 0 0 1-.196.156zm4.091-3.96l-1.637 1.593v4.346a.2.2 0 0 0 .2.193h1.373a.2.2 0 0 0 .2-.193v-5.818c-.045-.037-.078-.07-.1-.092zm1.123-2.821a.387.387 0 0 0-.29-.1h-.037c-.639.028-1.276.059-1.915.088a.417.417 0 0 0-.3.1.344.344 0 0 0-.07.1.318.318 0 0 0 .1.39l.16.158c.111.109.223.219.336.326L504 562.194l-1.736-1.689a.564.564 0 0 0-.781 0l-2.312 2.248a.527.527 0 0 0 0 .76l.1.1a.563.563 0 0 0 .392.157.556.556 0 0 0 .389-.157l1.817-1.768 1.735 1.689a.565.565 0 0 0 .784 0l4.358-4.241.493.477a.374.374 0 0 0 .263.136.341.341 0 0 0 .158-.041.444.444 0 0 0 .094-.068.435.435 0 0 0 .119-.309c.018-.4.039-.806.059-1.212l.029-.606a.369.369 0 0 0-.089-.295z" transform="translate(-499.031 -557.281)"/></svg><svg width="11.969" height="9.031" viewBox="0 0 11.969 9.031" id="portfolio-order-history" x="1597" y="1420" xmlns="http://www.w3.org/2000/svg"><defs><style>.cncls-1{fill-rule:evenodd}</style></defs><path id="cnportfolio-order-history" class="cncls-1" d="M519.077 561.087a1.26 1.26 0 0 0-.908.36 1.206 1.206 0 0 0 0 1.745 1.325 1.325 0 0 0 1.814 0 1.2 1.2 0 0 0 0-1.745 1.258 1.258 0 0 0-.906-.36zm0-3.285a1.261 1.261 0 0 0-.907.359 1.206 1.206 0 0 0 0 1.746 1.325 1.325 0 0 0 1.814 0 1.206 1.206 0 0 0 0-1.746 1.261 1.261 0 0 0-.907-.361zm0 6.571a1.257 1.257 0 0 0-.907.36 1.2 1.2 0 0 0 0 1.745 1.325 1.325 0 0 0 1.814 0 1.2 1.2 0 0 0 0-1.745 1.258 1.258 0 0 0-.907-.36zm10.613-6.1a.213.213 0 0 0-.15-.061h-8.114a.211.211 0 0 0-.15.061.193.193 0 0 0-.064.145v1.232a.192.192 0 0 0 .064.144.207.207 0 0 0 .15.061h8.114a.207.207 0 0 0 .15-.061.2.2 0 0 0 .063-.144v-1.232a.2.2 0 0 0-.063-.145zm-.15 3.225h-8.114a.207.207 0 0 0-.15.061.193.193 0 0 0-.064.145v1.232a.192.192 0 0 0 .064.144.207.207 0 0 0 .15.061h8.114a.207.207 0 0 0 .15-.061.2.2 0 0 0 .063-.144V561.7a.2.2 0 0 0-.063-.145.208.208 0 0 0-.15-.055zm0 3.286h-8.114a.207.207 0 0 0-.15.061.189.189 0 0 0-.064.144v1.233a.192.192 0 0 0 .064.144.207.207 0 0 0 .15.061h8.114a.207.207 0 0 0 .15-.061.2.2 0 0 0 .063-.144v-1.233a.192.192 0 0 0-.063-.144.208.208 0 0 0-.15-.061z" transform="translate(-517.781 -557.813)"/></svg><svg width="10.032" height="10.032" viewBox="0 0 10.032 10.032" id="portfolio-order-open" x="1609" y="1430" xmlns="http://www.w3.org/2000/svg"><defs><style>.cocls-1{fill-rule:evenodd}</style></defs><path id="coportfolio-order-open" class="cocls-1" d="M547.365 557.475a1.88 1.88 0 0 0-1.38-.57h-6.125a1.946 1.946 0 0 0-1.95 1.949v6.126a1.955 1.955 0 0 0 1.95 1.949h6.126a1.955 1.955 0 0 0 1.949-1.949v-6.126a1.883 1.883 0 0 0-.57-1.379zm-.544 7.5a.831.831 0 0 1-.836.835h-6.125a.831.831 0 0 1-.836-.835v-6.126a.831.831 0 0 1 .836-.835h6.126a.831.831 0 0 1 .835.835v6.126zm-1.392-3.62h-1.949v-1.949a.268.268 0 0 0-.079-.2.271.271 0 0 0-.2-.078h-.557a.267.267 0 0 0-.278.278v1.949h-1.949a.267.267 0 0 0-.279.279v.566a.267.267 0 0 0 .279.278h1.949v1.949a.269.269 0 0 0 .278.279h.556a.272.272 0 0 0 .2-.079.268.268 0 0 0 .079-.2v-1.949h1.949a.267.267 0 0 0 .278-.278v-.557a.267.267 0 0 0-.277-.283z" transform="translate(-537.906 -556.906)"/></svg><svg width="13.031" height="8.969" viewBox="0 0 13.031 8.969" id="portfolio-wallet" x="1620" y="1441" xmlns="http://www.w3.org/2000/svg"><defs><style>.cpcls-1{fill-rule:evenodd}</style></defs><path id="cpportfolio-wallet" class="cpcls-1" d="M487.187 560.693a.645.645 0 1 0 .636.645.641.641 0 0 0-.636-.645zm3.356-1.673v-1.511a.512.512 0 0 0-.508-.516h-10.578a.512.512 0 0 0-.508.516v7.957a.512.512 0 0 0 .508.516h10.578a.512.512 0 0 0 .508-.516v-1.81a1.54 1.54 0 0 0 1.424-1.544v-1.548a1.541 1.541 0 0 0-1.424-1.544zm-1.017 5.93h-9.56v-6.925h9.56v.992h-2.288a2.322 2.322 0 0 0 0 4.643h2.288v1.29zm1.424-2.838a.512.512 0 0 1-.508.516h-3.178a1.3 1.3 0 0 1-1.3-1.256 1.283 1.283 0 0 1 1.271-1.324h3.2a.513.513 0 0 1 .508.516v1.548z" transform="translate(-478.938 -557)"/></svg><svg width="11" height="11" viewBox="0 0 11 11" id="qr-code" x="1634" y="1450" xmlns="http://www.w3.org/2000/svg"><defs><style>.cqcls-1{fill:#bfc0c0;fill-rule:evenodd}</style></defs><path class="cqcls-1" d="M0 11h5V6H0v5zm1-4h3v2.992H1V7zm1 2h1V8H2v1zm6 2h1v-1H8v1zm3-1h-1v1h1v-1zm0-1V6h-1v1H9V6H6v5h1V8h1v1h3zM0 0v5h5V0H0zm4 4H1V1h3v3zM3 2H2v1h1V2zm8-2H6v5h5V0zm-1 4H7V1h3v3zM9 2H8v1h1V2z"/></svg><svg width="22" height="22" viewBox="0 0 22 22" id="qr-code-big" x="1645" y="1461" xmlns="http://www.w3.org/2000/svg"><defs><style>.crcls-1{fill:#bfc0c0;fill-rule:evenodd}</style></defs><path class="crcls-1" d="M7.3 0H0v7.305h7.3V0zM5.582 5.586H1.715V1.719h3.867v3.867zM2.789 2.793h1.719v1.719H2.789V2.793zM14.689 0v7.305H22V0h-7.3zm5.585 5.586h-3.867V1.719h3.867v3.867zm-2.793-2.793H19.2v1.719h-1.719V2.793zM0 22h7.3v-7.3H0V22zm1.718-5.586h3.867v3.867H1.718v-3.867zm1.074 1.074h1.719v1.719H2.792v-1.719zM1.718 8.465h1.719v1.719H1.718V8.465zm1.719 3.437h1.675v1.719h1.719V11.9H5.155v-1.718H3.437V11.9zm8.592-8.593h1.719v1.718H12.03V3.309zm-3.437-1.59h1.719v3.308H8.592V1.719zM10.312 0h1.718v1.719h-1.718V0zm0 5.027v1.719H8.593v1.719h3.437V5.027h-1.718zm0 8.594V15.3h1.718v1.676h3.437v-1.719H12.03v-1.676h-1.718v-3.394H8.593v3.437h1.719zm1.718-5.156h1.719V11.9H12.03V8.463zm8.249 0h-3.136v1.719h-1.676V11.9h1.718v1.676H22v-3.437h-1.718V8.463zm0 3.394h-3.094v-1.675h3.094v1.675zm0 3.4H22v3.437h-1.718v-3.437zm-6.53-3.352h1.718v1.719h-1.718V11.9zm1.718 5.071h1.718v1.718h-1.718v-1.718zm1.718-1.719H18.9v1.719h-1.719v-1.719zM18.9 22v-1.59h1.375v-1.719h-3.094V22H18.9zM8.589 15.3h1.719v3.266H8.589V15.3zm3.437 6.7v-1.719h1.676V22h1.718v-1.719h-1.675v-1.718h-3.437V22h1.718zM5.152 8.465h3.437v1.719H5.152V8.465zM0 10.184h1.718v3.437H0v-3.437z"/></svg><svg width="17.969" height="11.94" viewBox="0 0 17.969 11.94" id="readed" x="1667" y="1483" xmlns="http://www.w3.org/2000/svg"><defs><style>.cscls-1{fill:#4a9cd5;fill-rule:evenodd}</style></defs><path class="cscls-1" d="M3.879 11.94L.007 6.66l1.808-1.39 2.213 3.02 7.2-8.28 1.689 1.54zm4.972-.02l-1.68-1.54L16.299.01l1.68 1.54z"/></svg><svg width="25.03" height="18" viewBox="0 0 25.03 18" id="redo" x="1685" y="1495" xmlns="http://www.w3.org/2000/svg"><defs><style>.ctcls-1{fill-rule:evenodd}</style></defs><path class="ctcls-1" d="M1.17 10.217h19.88l-5.46 5.7a1.243 1.243 0 0 0 0 1.719 1.128 1.128 0 0 0 .82.356 1.111 1.111 0 0 0 .82-.356l7.45-7.779a1.262 1.262 0 0 0 0-1.718L17.23.36a1.122 1.122 0 0 0-1.64 0 1.242 1.242 0 0 0 0 1.718l5.46 5.705H1.17a1.217 1.217 0 0 0 0 2.434z"/></svg><svg width="34" height="34" viewBox="0 0 34 34" id="reload" x="1711" y="1513" xmlns="http://www.w3.org/2000/svg"><defs><style>.cucls-1{fill:#737779;fill-rule:evenodd}</style></defs><path class="cucls-1" d="M26.407 16.571a.475.475 0 0 1-.165.33.319.319 0 0 1-.363.033l-6.932-2.344a.406.406 0 0 1-.264-.33.415.415 0 0 1 .165-.4l1.881-1.353a6.084 6.084 0 0 0-1.617-.891 5.375 5.375 0 0 0-1.882-.33 5.6 5.6 0 0 0-2.228.445 5.7 5.7 0 0 0-3.037 3.037A5.6 5.6 0 0 0 11.521 17a5.475 5.475 0 0 0 .446 2.211A5.746 5.746 0 0 0 15 22.232a5.6 5.6 0 0 0 2.228.445 5.659 5.659 0 0 0 2.674-.66 5.508 5.508 0 0 0 2.047-1.848.6.6 0 0 1 .347-.215.425.425 0 0 1 .379.083l2.41 1.683a.592.592 0 0 1 .2.3.519.519 0 0 1-.066.363 10.067 10.067 0 0 1-3.482 3.119 9.283 9.283 0 0 1-4.506 1.139 9.385 9.385 0 0 1-3.746-.759 9.606 9.606 0 0 1-5.133-5.133 9.62 9.62 0 0 1 0-7.492 9.606 9.606 0 0 1 5.133-5.133 9.385 9.385 0 0 1 3.746-.759 9.154 9.154 0 0 1 3.714.759A10.192 10.192 0 0 1 24 10.167l.132-.066 1.617-1.188a.378.378 0 0 1 .429 0 .4.4 0 0 1 .231.363v7.3zM17 34a17 17 0 1 1 17-17 17.019 17.019 0 0 1-17 17zm0-32a15 15 0 1 0 15 15A15.017 15.017 0 0 0 17 2z"/></svg><svg width="18.938" height="18.938" viewBox="0 0 18.938 18.938" id="search" x="1745" y="1547" xmlns="http://www.w3.org/2000/svg"><defs><style>.cvcls-1{fill:#2e2e2e;fill-rule:evenodd}</style></defs><path class="cvcls-1" d="M18.685 17.573l-4.546-4.546a7.965 7.965 0 1 0-1.115 1.115l4.546 4.543a.787.787 0 1 0 1.115-1.111zm-10.71-3.214a6.385 6.385 0 1 1 6.387-6.384 6.392 6.392 0 0 1-6.387 6.384zm0 0"/></svg><svg width="15.03" height="14.032" viewBox="0 0 15.03 14.032" id="sorting" x="1764" y="1566" xmlns="http://www.w3.org/2000/svg"><defs><style>.cwcls-1{fill-rule:evenodd}</style></defs><path class="cwcls-1" d="M6.93 12.272a.55.55 0 0 1-.58.586H.57a.55.55 0 0 1-.58-.586v-1.17a.55.55 0 0 1 .58-.585h5.78a.55.55 0 0 1 .58.585v1.17zm0-4.676a.549.549 0 0 1-.58.585H.57a.549.549 0 0 1-.58-.585V6.429a.549.549 0 0 1 .58-.585h5.78a.549.549 0 0 1 .58.585v1.165zm0-4.674a.549.549 0 0 1-.58.585H.57a.549.549 0 0 1-.58-.585v-1.17a.548.548 0 0 1 .58-.581h5.78a.548.548 0 0 1 .58.581v1.17zm7.93 6.252l-4.63 4.676a.522.522 0 0 1-.4.174.587.587 0 0 1-.58-.585V.586a.581.581 0 0 1 .58-.585h1.15a.581.581 0 0 1 .58.585v7.946a.319.319 0 0 0 .52.234l1.16-1.17a.608.608 0 0 1 .4-.174.529.529 0 0 1 .41.174l.81.819a.611.611 0 0 1 .17.408.487.487 0 0 1-.17.351z"/></svg><svg width="25.594" height="18.59" viewBox="0 0 25.594 18.59" id="sound" x="1780" y="1581" xmlns="http://www.w3.org/2000/svg"><defs><style>.cxcls-1{fill:#737779;fill-rule:evenodd}</style></defs><path class="cxcls-1" d="M12.841 12.82a2.887 2.887 0 1 0 2.988 2.88 2.937 2.937 0 0 0-2.988-2.88zm7.151-4.07a2.397 2.397 0 0 0-.137-.12l-.133-.13a.272.272 0 0 0-.078-.05 10.017 10.017 0 0 0-13.486.3l-.435.42-.6.58a1.754 1.754 0 0 0 .007 2.55 1.925 1.925 0 0 0 2.65.01l1.037-1a6.2 6.2 0 0 1 8.521 0l.746.69a1.906 1.906 0 0 0 2.627 0 1.737 1.737 0 0 0 .007-2.53zm5.1-3.57l-.62-.6h-.006l-.5-.48a1.734 1.734 0 0 0-.276-.21 16.759 16.759 0 0 0-22.019.48c-.03.03-.06.05-.09.08L.46 5.53a1.605 1.605 0 0 0 .006 2.33 1.761 1.761 0 0 0 2.417.01l1.12-1.09a.03.03 0 0 0 .025-.02 13.213 13.213 0 0 1 17.757-.09l.88.85a1.768 1.768 0 0 0 2.422 0 1.618 1.618 0 0 0 .003-2.34z"/></svg><svg width="34" height="34" viewBox="0 0 34 34" id="sun" x="1806" y="1600" xmlns="http://www.w3.org/2000/svg"><defs><style>.cycls-1{fill:#bfc0c0;fill-rule:evenodd}</style></defs><path id="cysun" class="cycls-1" d="M207.027 5915.97a8.574 8.574 0 0 0-6.027-2.52 8.408 8.408 0 0 0-6.027 2.52 8.54 8.54 0 0 0 6.027 14.57 8.4 8.4 0 0 0 6.027-2.51 8.581 8.581 0 0 0 2.518-6.03 8.4 8.4 0 0 0-2.518-6.03zm-1.62 10.44a6.3 6.3 0 1 1 1.8-4.41 6.238 6.238 0 0 1-1.8 4.41zm11.424-5.58h-3.463a1.17 1.17 0 0 0 0 2.34h3.463a1.17 1.17 0 0 0 0-2.34zM201 5933.2a1.19 1.19 0 0 0-1.169 1.17v3.46a1.169 1.169 0 1 0 2.338 0v-3.46a1.19 1.19 0 0 0-1.169-1.17zm12.008-.81l-2.474-2.48a1.145 1.145 0 1 0-1.619 1.62l2.474 2.48a1.145 1.145 0 1 0 1.619-1.62zM201 5905a1.19 1.19 0 0 0-1.169 1.17v3.46a1.169 1.169 0 1 0 2.338 0v-3.46A1.19 1.19 0 0 0 201 5905zm12.053 4.99a1.14 1.14 0 0 0-1.619 0l-2.474 2.47a1.145 1.145 0 1 0 1.619 1.62l2.474-2.47a1.141 1.141 0 0 0 0-1.62zm-24.421 10.84h-3.463A1.191 1.191 0 0 0 184 5922a1.162 1.162 0 0 0 1.169 1.17h3.463a1.17 1.17 0 0 0 0-2.34zm4.408 9.08a1.139 1.139 0 0 0-1.619 0l-2.474 2.48a1.145 1.145 0 1 0 1.619 1.62l2.474-2.48a1.143 1.143 0 0 0 0-1.62zm0-17.45l-2.474-2.47a1.145 1.145 0 1 0-1.619 1.62l2.474 2.47a1.145 1.145 0 1 0 1.619-1.62z" transform="translate(-184 -5905)"/></svg><svg width="12" height="11.938" viewBox="0 0 12 11.938" id="tele-login" x="1840" y="1634" xmlns="http://www.w3.org/2000/svg"><defs><style>.czcls-1{fill:#4a9cd5;fill-rule:evenodd}</style></defs><path class="czcls-1" d="M7.657 6.6L6.565 7.708a.641.641 0 0 0 0 .895.614.614 0 0 0 .878 0L9.6 6.416a.641.641 0 0 0 0-.9L7.443 3.333a.616.616 0 0 0-.88 0 .641.641 0 0 0 0 .895l1.09 1.108H.629a.632.632 0 0 0 0 1.264h7.028zM9.395-.012H2.837a2.625 2.625 0 0 0-2.6 2.644v1.37a.627.627 0 0 0 .621.631.628.628 0 0 0 .622-.63v-1.37a1.37 1.37 0 0 1 1.356-1.38h6.559a1.37 1.37 0 0 1 1.356 1.38v6.666a1.37 1.37 0 0 1-1.356 1.38H2.837a1.37 1.37 0 0 1-1.357-1.38V7.946a.629.629 0 0 0-.623-.634.628.628 0 0 0-.621.634v1.353a2.625 2.625 0 0 0 2.6 2.645h6.559a2.625 2.625 0 0 0 2.6-2.645V2.633a2.625 2.625 0 0 0-2.6-2.645z"/></svg><svg width="24" height="27" viewBox="0 0 24 27" id="theme-dark" x="1852" y="1646" xmlns="http://www.w3.org/2000/svg"><defs><style>.dacls-1{fill:#909fab;fill-rule:evenodd}</style></defs><path class="dacls-1" d="M9.38 13.38v-.13m0 .24l.01-.42.01-.12v-.09l.04-.36v-.02a8.53 8.53 0 0 1 7.66-7.42 8.731 8.731 0 0 1 5.14 1.13 1.156 1.156 0 0 0 1.49-.27 1.13 1.13 0 0 0-.04-1.5 13.614 13.614 0 0 0-9.2-4.4L14.14 0h-.11c-.11 0-.23-.01-.34-.01h-.17l-.99.05h-.09l-.27.03h-.03A13.521 13.521 0 0 0 .04 12.49c-.01.11-.02.21-.03.36l.01.06-.01.07-.01.53.01.55.01.11c0 .11.01.22.02.34a13.521 13.521 0 0 0 12.12 12.4l.58.05.07.01h.06l.19.01h.16l.39.01h.08c.12 0 .23 0 .33-.01h.11c.13-.01.25-.01.41-.02a13.6 13.6 0 0 0 9.15-4.4 1.13 1.13 0 0 0 .04-1.5 1.156 1.156 0 0 0-1.49-.27 8.55 8.55 0 0 1-12.8-6.31l-.04-.39-.01-.09v-.08l-.01-.11v-.21m-1.34.61l.04.45a9.911 9.911 0 0 0 8.89 8.61 10.164 10.164 0 0 0 4.81-.73 12.333 12.333 0 0 1-7.38 3.07c-.1.01-.21.01-.32.02h-.1c-.1 0-.2 0-.35.01h-.08l-.29-.01h-.13l-.19-.01h-.05l-.06-.01-.54-.04A12.185 12.185 0 0 1 1.4 14.38l-.04-.91.04-.9A12.159 12.159 0 0 1 12.24 1.42a.249.249 0 0 0 .08-.01 1.635 1.635 0 0 0 .22-.02.248.248 0 0 0 .09-.01l.95-.03h.45l.05.01.37.01a12.3 12.3 0 0 1 7.33 3.07 10.164 10.164 0 0 0-4.81-.73 9.909 9.909 0 0 0-8.88 8.58.037.037 0 0 0-.01.03l-.04.46m-.01 1.31"/></svg><svg width="30" height="31" viewBox="0 0 30 31" id="theme-light" x="1876" y="1673" xmlns="http://www.w3.org/2000/svg"><defs><style>.dbcls-1{fill:#909fab;fill-rule:evenodd}</style></defs><path class="dbcls-1" d="M14.99 8.49a7.1 7.1 0 0 1 7.16 7 6.89 6.89 0 0 1-2.07 4.95A7.189 7.189 0 0 1 15 22.52a7.1 7.1 0 0 1-7.16-7.01 6.867 6.867 0 0 1 2.07-4.94 7.183 7.183 0 0 1 5.07-2.08h.01m0-1.38h-.01A8.4 8.4 0 1 0 15 23.9h.01a8.4 8.4 0 1 0-.02-16.79zM15 2.76l.22.38h-.45l.23-.38M15 0c-.97 1.64-1.89 3.21-2.9 4.93a10.365 10.365 0 0 1 2.87-.41 11.829 11.829 0 0 1 2.91.39c-1-1.7-1.92-3.26-2.88-4.91zm-.24 27.86h.46l-.23.39-.23-.39m3.05-1.65c-.98.1-1.88.27-2.78.27h-.01c-.92 0-1.85-.17-2.85-.27.94 1.59 1.86 3.15 2.83 4.8.97-1.65 1.88-3.22 2.81-4.8zM7.38 5.2l.4.17c-.12.09-.24.17-.35.26l-.01-.03-.04-.4M5.73 2.96c.2 1.92.4 3.71.61 5.66a10.091 10.091 0 0 1 4.69-3.34c-1.81-.79-3.52-1.54-5.3-2.32zm16.83 22.42l.05.43-.4-.18c.12-.08.24-.16.35-.25m1.09-3.01a10.083 10.083 0 0 1-4.68 3.36c1.82.8 3.52 1.54 5.29 2.31-.2-1.89-.4-3.69-.61-5.67zM22.61 5.2l-.05.43c-.11-.09-.23-.17-.35-.26l.4-.17m1.65-2.24zm0 0c-1.79.79-3.49 1.53-5.31 2.33a10.193 10.193 0 0 1 4.71 3.31c.2-1.94.4-3.72.6-5.64zM3.11 11.48c-.05.14-.1.27-.14.41l-.29-.32.43-.09m2.54-1.95zm0 0L0 10.72c1.32 1.43 2.55 2.77 3.89 4.24a9.915 9.915 0 0 1 1.76-5.43zm21.24 1.95l.43.09-.3.32c-.04-.14-.09-.27-.13-.41m-2.56-1.95a9.764 9.764 0 0 1 1.77 5.43c1.34-1.47 2.57-2.81 3.89-4.25-1.94-.4-3.73-.77-5.66-1.18zM2.97 19.11c.05.14.09.28.14.42l-.44-.09.15-.16.15-.17m.91-3.06C2.54 17.52 1.31 18.86 0 20.29c1.94.41 3.74.78 5.66 1.19a9.907 9.907 0 0 1-1.78-5.43zm23.14 3.07l.21.23.08.09-.43.09c.05-.14.1-.27.14-.41m-.93-3.07a9.705 9.705 0 0 1-1.76 5.43c1.93-.41 3.73-.79 5.66-1.19-1.31-1.43-2.55-2.77-3.9-4.24zM7.43 25.38c.11.09.23.17.35.25l-.4.18.05-.43m-1.1-2.97c-.21 1.95-.4 3.75-.6 5.64 1.79-.79 3.49-1.53 5.31-2.33a10.266 10.266 0 0 1-4.71-3.31z"/></svg><svg width="10" height="10" viewBox="0 0 10 10" id="to-clipboard" x="1906" y="1704" xmlns="http://www.w3.org/2000/svg"><defs><style>.dccls-1{fill-rule:evenodd}</style></defs><path class="dccls-1" d="M1 1v5h5V1H1zm6 2h3v7H3V7H0V0h7v3zm0 1v3H4v2h5V4H7z"/></svg><svg id="to-clipboard-copied" width="16.9" height="17" viewBox="0 0 16.9 17" x="1916" y="1714" xmlns="http://www.w3.org/2000/svg"><style>.ddst0{fill:#6bbe45}.ddst1{fill:#9ba6b1}</style><path class="ddst0" d="M7.3 11.6L4.5 8.8l.7-.7 2.1 2.1 4.5-4.5.6.7z"/><path class="ddst1" d="M8.5 17C3.8 17 0 13.2 0 8.5S3.8 0 8.5 0 17 3.8 17 8.5c-.1 4.7-3.9 8.5-8.5 8.5zm0-16C4.3 1 1 4.3 1 8.5 1 12.6 4.3 16 8.5 16S16 12.6 16 8.5C16 4.3 12.6 1 8.5 1z"/></svg><svg width="27.85" height="27.969" viewBox="0 0 27.85 27.969" id="tool-brush" x="1933" y="1731" xmlns="http://www.w3.org/2000/svg"><defs><style>.decls-1{fill:#bfc0c0;fill-rule:evenodd}</style></defs><path id="detool-brush" class="decls-1" d="M1089.86 360.736a.8.8 0 0 0 .58.243.844.844 0 0 0 .59-.243l9.56-9.607a3.53 3.53 0 0 0 0-4.964l-1.52-1.523 5.34-4.311a4.126 4.126 0 0 0-2.58-7.339c-.07 0-.15 0-.22.006a4.116 4.116 0 0 0-2.98 1.533l-4.29 5.356-1.51-1.522a3.5 3.5 0 0 0-4.95 0l-9.56 9.607a.838.838 0 0 0 0 1.174l2.89 2.9zm-.81-21.2a1.845 1.845 0 0 1 2.61 0l2.16 2.176a.84.84 0 0 0 .63.242.822.822 0 0 0 .6-.309l4.87-6.076a2.406 2.406 0 0 1 1.78-.916 2.467 2.467 0 0 1 1.67 4.381l-6.05 4.892a.874.874 0 0 0-.31.6.836.836 0 0 0 .25.632l2.16 2.175a1.855 1.855 0 0 1 0 2.617l-.13.132-10.37-10.416zm-1.3 1.306l10.37 10.416-1.43 1.44-10.37-10.416zm-2.6 2.614l10.37 10.416-5.08 5.1-1.72-1.731 2.1-2.114a.825.825 0 1 0-1.16-1.174l-2.11 2.114-1.71-1.716 2.11-2.114a.83.83 0 0 0-.59-1.417.813.813 0 0 0-.58.243l-2.11 2.114-1.7-1.716 2.1-2.114a.838.838 0 0 0 0-1.174.826.826 0 0 0-1.17 0l-2.1 2.114-1.73-1.731z" transform="translate(-1078.09 -333)"/></svg><svg width="23.97" height="24" viewBox="0 0 23.97 24" id="tool-cross" x="1961" y="1759" xmlns="http://www.w3.org/2000/svg"><defs><style>.dfcls-1{fill:#bfc0c0;fill-rule:evenodd}</style></defs><path id="dftool-cross" class="dfcls-1" d="M1080.66 219.663h10.66v10.665a.665.665 0 1 0 1.33 0v-10.665h10.67a.666.666 0 0 0 0-1.332h-10.67v-10.664a.665.665 0 1 0-1.33 0v10.664h-10.66a.666.666 0 1 0 0 1.332z" transform="translate(-1080 -207)"/></svg><svg width="24.93" height="26.594" viewBox="0 0 24.93 26.594" id="tool-drawing" x="1985" y="1783" xmlns="http://www.w3.org/2000/svg"><defs><style>.dgcls-1{fill:#bfc0c0;fill-rule:evenodd}</style></defs><path id="dgtool-drawing" class="dgcls-1" d="M1098.95 719.437a4.822 4.822 0 0 0-4.84 4.795.539.539 0 0 0 .54.54.548.548 0 0 0 .55-.54 3.745 3.745 0 0 1 7.49 0v1.887H1094a.942.942 0 0 0-.95.94v5.341a2.6 2.6 0 0 0 2.61 2.594h6.57a2.613 2.613 0 0 0 2.62-2.594v-5.338a.948.948 0 0 0-.95-.94h-.12v-1.887a4.82 4.82 0 0 0-4.83-4.798zm4.81 12.96a1.527 1.527 0 0 1-1.53 1.515h-6.56a1.527 1.527 0 0 1-1.53-1.515v-5.2h9.62v5.2zm-4.81-.063a1.715 1.715 0 1 0-1.73-1.715 1.727 1.727 0 0 0 1.73 1.715zm0-2.354a.637.637 0 1 1 0 1.274.637.637 0 1 1 0-1.274zm-7.92-20.453l-10.23 10.145a.542.542 0 0 0-.15.291l-.76 5.569a.52.52 0 0 0 .51.578.474.474 0 0 0 .07 0l3.38-.453a.51.51 0 0 0 .44-.574.505.505 0 0 0-.58-.438L1081 725l.53-3.884 4.13 4.088a.5.5 0 0 0 .36.151.517.517 0 0 0 .36-.151l10.24-10.145a3.881 3.881 0 0 0 0-5.535 3.978 3.978 0 0 0-5.59.003zm-9.14 10.508l9.34-9.261 1.72 1.7-9.34 9.261zm4.13 4.092l-1.68-1.667 9.34-9.26 1.68 1.666zm10.06-9.99l-4.11-4.077a2.936 2.936 0 0 1 3.92.185 2.83 2.83 0 0 1 .86 2.048 2.871 2.871 0 0 1-.67 1.844z" transform="translate(-1079.91 -708.406)"/></svg><svg width="29.969" height="17" viewBox="0 0 29.969 17" id="tool-hide" x="2010" y="1810" xmlns="http://www.w3.org/2000/svg"><defs><style>.dhcls-1{fill:#bfc0c0;fill-rule:evenodd}</style></defs><path class="dhcls-1" d="M23.163 1.919a18.14 18.14 0 0 0-7.969-1.925h-.462a18.128 18.128 0 0 0-7.967 1.925 18.558 18.558 0 0 0-6.3 5.165 2.3 2.3 0 0 0 0 2.828 18.539 18.539 0 0 0 6.3 5.166 18.144 18.144 0 0 0 7.967 1.927h.462a18.156 18.156 0 0 0 7.969-1.927 18.552 18.552 0 0 0 6.3-5.166 2.3 2.3 0 0 0 0-2.828 18.592 18.592 0 0 0-6.3-5.165zM7.308 13.986a17.335 17.335 0 0 1-5.88-4.824 1.082 1.082 0 0 1 0-1.325 17.344 17.344 0 0 1 5.88-4.827 17.61 17.61 0 0 1 1.981-.848 8.528 8.528 0 0 0-.965 11.648 8.081 8.081 0 0 0 .965 1.009 17.008 17.008 0 0 1-1.983-.833zm7.655 1.8a7.3 7.3 0 1 1 7.278-7.288 7.287 7.287 0 0 1-7.28 7.288zm13.539-6.624a17.335 17.335 0 0 1-5.88 4.824 17.047 17.047 0 0 1-1.979.848 8.528 8.528 0 0 0 .963-11.648 8.121 8.121 0 0 0-.963-1.007 17.366 17.366 0 0 1 7.861 5.675 1.082 1.082 0 0 1 0 1.308zM14.963 5.656a3.125 3.125 0 1 0 3.115 3.12 3.118 3.118 0 0 0-3.117-3.12zm0 5.017a1.91 1.91 0 1 1 1.894-1.9 1.9 1.9 0 0 1-1.9 1.9z"/></svg><svg width="20.88" height="14.875" viewBox="0 0 20.88 14.875" id="tool-icon" x="2040" y="1827" xmlns="http://www.w3.org/2000/svg"><defs><style>.dicls-1{fill:#bfc0c0;fill-rule:evenodd}</style></defs><path id="ditool-icon" class="dicls-1" d="M1101.98 508.45a.857.857 0 0 0-.86-.847h-17.17l5.1-5.141a.849.849 0 0 0-1.2-1.2l-6.54 6.6a.87.87 0 0 0 0 1.2l6.54 6.6a.838.838 0 0 0 .6.255.86.86 0 0 0 .6-1.466l-5.1-5.131h17.17a.864.864 0 0 0 .86-.87z" transform="translate(-1081.09 -501.031)"/></svg><svg width="16.969" height="22" viewBox="0 0 16.969 22" id="tool-lock" x="2061" y="1842" xmlns="http://www.w3.org/2000/svg"><defs><style>.djcls-1{fill:#bfc0c0;fill-rule:evenodd}</style></defs><path class="djcls-1" d="M1.219 9.585a1.209 1.209 0 0 0-1.227 1.188v7.657a3.625 3.625 0 0 0 3.677 3.56H13.3a3.623 3.623 0 0 0 3.674-3.56v-7.657a1.207 1.207 0 0 0-1.225-1.188h-.334V6.722a6.938 6.938 0 0 0-13.868 0 .637.637 0 0 0 1.269 0 5.668 5.668 0 0 1 11.33 0v2.863H1.219zm14.489 1.231v7.614a2.371 2.371 0 0 1-2.407 2.33H3.672a2.371 2.371 0 0 1-2.405-2.33v-7.614h14.441zm-7.224 7.058a2.3 2.3 0 1 0-2.374-2.3 2.34 2.34 0 0 0 2.374 2.3zm0-3.374a1.075 1.075 0 1 1-1.1 1.077 1.089 1.089 0 0 1 1.1-1.075z"/></svg><svg width="22.94" height="20.907" viewBox="0 0 22.94 20.907" id="tool-long-pos" x="2078" y="1864" xmlns="http://www.w3.org/2000/svg"><defs><style>.dkcls-1{fill:#bfc0c0;fill-rule:evenodd}</style></defs><path id="dktool-long-pos" class="dkcls-1" d="M1085.36 483.027h17.04a.584.584 0 0 0 .59-.584v-16.01a.584.584 0 0 0-.59-.583h-17.05a2.672 2.672 0 0 0-2.72-1.829 2.556 2.556 0 0 0-2.57 2.553 2.727 2.727 0 0 0 5.3.443h16.45v6.838h-16.46a2.672 2.672 0 0 0-2.72-1.829 2.556 2.556 0 0 0-2.57 2.553 2.727 2.727 0 0 0 5.3.443h16.45v6.837h-16.46a2.673 2.673 0 0 0-2.72-1.828 2.556 2.556 0 0 0-2.57 2.553 2.727 2.727 0 0 0 5.3.443z" transform="translate(-1080.06 -464.031)"/></svg><svg width="22.03" height="24.969" viewBox="0 0 22.03 24.969" id="tool-magnet" x="2101" y="1885" xmlns="http://www.w3.org/2000/svg"><defs><style>.dlcls-1{fill:#bfc0c0;fill-rule:evenodd}</style></defs><path id="dltool-magnet" class="dlcls-1" d="M1091.74 658.908a10.766 10.766 0 0 0-11.02 10.471v13.942a.558.558 0 0 0 .55.561h4.87a.55.55 0 0 0 .54-.561V679.4a.539.539 0 0 0 0-.678v-8.993a5.066 5.066 0 0 1 10.11 0v8.994a.537.537 0 0 0 0 .677v3.925a.558.558 0 0 0 .55.561h4.87a.55.55 0 0 0 .54-.561v-13.946a10.763 10.763 0 0 0-11.01-10.471zm-6.15 23.851h-3.78v-3.14h3.78v3.14zm16.07 0h-3.78v-3.14h3.78v3.14zm0-4.263h-3.78v-8.771a6.152 6.152 0 0 0-12.29 0v8.775h-3.78v-9.117c0-5.155 4.46-9.348 9.93-9.348s9.92 4.193 9.92 9.348v9.117z" transform="translate(-1080.72 -658.906)"/></svg><svg width="26" height="22" viewBox="0 0 26 22" id="tool-measure" x="2124" y="1910" xmlns="http://www.w3.org/2000/svg"><defs><style>.dmcls-1{fill:#bfc0c0;fill-rule:evenodd}</style></defs><path id="dmtool-measure" class="dmcls-1" d="M1083.95 549h-5v22h25.99v-4.642h-20.99V549zm3.24 18.207v1.469h.86v-1.469h3.36v1.469h.86v-1.469h3.36v1.469h.86v-1.469h3.37v1.469h.85v-1.469h3.37v2.936h-24.27v-20.291h3.28v3.5h-1.56v.853h1.56v3.467h-1.56v.853h1.56V562h-1.56v.852h1.56v3.468h-1.56v.852h1.44v1.507h.85v-1.469h3.37zm3.5-1.9v-3.135h1.99v-9.644h-1.99v-3.211h-.85v3.211h-1.99v9.644h1.99v3.128h.85zm7.21-1.667v-3.14h1.99v-5.854h-1.99v-3.211h-.86v3.211h-1.99v5.854h1.99v3.136h.86z" transform="translate(-1078.94 -549)"/></svg><svg width="26.375" height="23.281" viewBox="0 0 26.375 23.281" id="tool-pattern" x="2150" y="1932" xmlns="http://www.w3.org/2000/svg"><defs><style>.dncls-1{fill:#bfc0c0;fill-rule:evenodd}</style></defs><path class="dncls-1" d="M3.534 21.452a2.448 2.448 0 0 0 1.417-3.1l-.012-.035 7.034-4.451a.435.435 0 0 0 .09-.081 2.629 2.629 0 0 0 2.831.563 2.759 2.759 0 0 0 .441-.23.428.428 0 0 0 .07.093l5.821 5.313a.066.066 0 0 1 .03.013 2.4 2.4 0 0 0-.16 2.206 2.6 2.6 0 0 0 3.362 1.325 2.457 2.457 0 0 0 1.429-3.1c-.017-.05-.035-.1-.055-.146a2.55 2.55 0 0 0-1.766-1.444c0-.021.01-.04.01-.061L24.327 7.2a.072.072 0 0 0-.01-.064 2.5 2.5 0 0 0 1.931-3.248 2.096 2.096 0 0 0-.054-.146 2.6 2.6 0 0 0-3.362-1.324 2.457 2.457 0 0 0-1.43 3.1c.017.049.035.1.055.145l.03.049a.032.032 0 0 0-.02.012l-5.851 4.344a1.113 1.113 0 0 0-.08.088 2.6 2.6 0 0 0-1.927-.556.349.349 0 0 0-.02-.1l-1.748-4.9a.065.065 0 0 1-.02-.035A2.428 2.428 0 0 0 12.835 1.5 2.585 2.585 0 0 0 9.487.187a2.4 2.4 0 0 0-1.461 3.01 2.374 2.374 0 0 0 .8 1.156L3.037 16.7v.029a2.63 2.63 0 0 0-1.485.149 2.448 2.448 0 0 0-1.436 3.087c.019.055.039.109.061.162a3.306 3.306 0 0 0 .171.322 2.613 2.613 0 0 0 3.186 1.003zm12.734-10.348c-.01-.018-.02-.031-.03-.048.01-.006.02-.008.03-.014L22.109 6.7a.4.4 0 0 0 .07-.084 2.7 2.7 0 0 0 1.044.5.127.127 0 0 0-.01.058l-.261 11.117a.155.155 0 0 0 .02.063 2.615 2.615 0 0 0-.5.145 2.235 2.235 0 0 0-.431.231c-.03-.032-.04-.066-.07-.094l-5.831-5.312a.039.039 0 0 1-.02-.013 2.4 2.4 0 0 0 .148-2.207zM9.834 4.87a2.647 2.647 0 0 0 .934.062c.01.031.01.062.02.093l1.757 4.9c0 .013.01.023.01.034a2.43 2.43 0 0 0-1.084 2.858.037.037 0 0 0-.03.01l-7.064 4.469c-.03.016-.05.045-.08.065a2.4 2.4 0 0 0-.231-.182z"/></svg><svg width="24.72" height="22.907" viewBox="0 0 24.72 22.907" id="tool-pitchfork" x="2177" y="1956" xmlns="http://www.w3.org/2000/svg"><defs><style>.docls-1{fill:#bfc0c0;fill-rule:evenodd}</style></defs><path id="dotool-pitchfork" class="docls-1" d="M1083.21 300.5l3.88 3.546-3.94 3.557c-.01.009-.02.022-.03.032a2.7 2.7 0 0 0-1.41-.331 2.414 2.414 0 0 0-2.43 2.415 2.455 2.455 0 0 0 2.64 2.218 2.414 2.414 0 0 0 2.43-2.415 2.121 2.121 0 0 0-.41-1.146l3.97-3.579 3.51 3.207a2.172 2.172 0 0 0 .4 2.984 2.7 2.7 0 0 0 3.58-.139 2.158 2.158 0 0 0 .29-2.764l8.13-7.324a.565.565 0 0 0 .18-.406.534.534 0 0 0-.18-.407l-11.65-10.773a.555.555 0 0 0-.75 0l-8.26 7.443a2.7 2.7 0 0 0-3.21.392 2.181 2.181 0 0 0 .15 3.276 2.713 2.713 0 0 0 3.11.214zm19.41-.153l-7.74 6.976a2.733 2.733 0 0 0-2.63-.033.361.361 0 0 0-.06-.084l-3.45-3.155 9.06-8.165zm-10.83-10.018l5.19 4.8-9.06 8.17-3.91-3.572a2.143 2.143 0 0 0-.04-2.355z" transform="translate(-1079.28 -289.031)"/></svg><svg width="24.969" height="24.969" viewBox="0 0 24.969 24.969" id="tool-reload" x="2202" y="1979" xmlns="http://www.w3.org/2000/svg"><defs><style>.dpcls-1{fill:#9ba6b2;fill-rule:evenodd}</style></defs><path class="dpcls-1" d="M19.407 12.183a.35.35 0 0 1-.121.242.234.234 0 0 1-.267.024l-5.091-1.721a.3.3 0 0 1-.194-.242.3.3 0 0 1 .121-.291l1.382-.995a4.463 4.463 0 0 0-1.188-.654 3.945 3.945 0 0 0-1.381-.246 4.109 4.109 0 0 0-1.636.327 4.184 4.184 0 0 0-2.23 2.23 4.109 4.109 0 0 0-.328 1.643 4.024 4.024 0 0 0 .326 1.622 4.218 4.218 0 0 0 2.23 2.218 4.11 4.11 0 0 0 1.636.327 4.157 4.157 0 0 0 1.964-.485 4.047 4.047 0 0 0 1.5-1.357.443.443 0 0 1 .255-.158.311.311 0 0 1 .279.061l1.77 1.236a.435.435 0 0 1 .145.218.381.381 0 0 1-.049.267 7.4 7.4 0 0 1-2.557 2.291 6.823 6.823 0 0 1-3.309.836 6.893 6.893 0 0 1-2.751-.557 7.056 7.056 0 0 1-3.769-3.769 7.067 7.067 0 0 1 0-5.5 7.055 7.055 0 0 1 3.772-3.773 6.89 6.89 0 0 1 2.751-.558 6.72 6.72 0 0 1 2.727.558 7.486 7.486 0 0 1 2.242 1.5l.1-.048 1.188-.873a.278.278 0 0 1 .315 0 .3.3 0 0 1 .17.267v5.357zm-6.907 12.8A12.485 12.485 0 1 1 24.983 12.5 12.5 12.5 0 0 1 12.5 24.983zm0-23.5A11.016 11.016 0 1 0 23.514 12.5 11.028 11.028 0 0 0 12.5 1.482z"/></svg><svg width="20.97" height="23.031" viewBox="0 0 20.97 23.031" id="tool-remove" x="2227" y="2004" xmlns="http://www.w3.org/2000/svg"><defs><style>.dqcls-1{fill:#bfc0c0;fill-rule:evenodd}</style></defs><path id="dqtool-remove" class="dqcls-1" d="M1101.04 915.253h-4.9v-.781a2.562 2.562 0 0 0-2.59-2.531h-4.67a2.562 2.562 0 0 0-2.59 2.531v.781h-4.91a.639.639 0 1 0 0 1.278h1.19v15.009a3.464 3.464 0 0 0 3.5 3.417h10.29a3.464 3.464 0 0 0 3.5-3.417v-15.009h1.18a.639.639 0 1 0 0-1.278zm-13.44-.781a1.267 1.267 0 0 1 1.28-1.254h4.67a1.273 1.273 0 0 1 1.28 1.254v.781h-7.23v-.781zm10.96 17.068h-.01a2.167 2.167 0 0 1-2.19 2.139h-10.29a2.167 2.167 0 0 1-2.19-2.139v-15.009h14.68v15.009zm-7.35-.151a.645.645 0 0 0 .66-.639v-11.29a.655.655 0 0 0-1.31 0v11.285a.647.647 0 0 0 .65.644zm-4.27-.705a.645.645 0 0 0 .66-.639v-9.885a.655.655 0 0 0-1.31 0v9.885a.649.649 0 0 0 .65.639zm8.54 0a.645.645 0 0 0 .66-.639v-9.885a.655.655 0 0 0-1.31 0v9.885a.643.643 0 0 0 .65.639z" transform="translate(-1080.72 -911.938)"/></svg><svg width="27.91" height="21.812" viewBox="0 0 27.91 21.812" id="tool-show" x="2248" y="2028" xmlns="http://www.w3.org/2000/svg"><defs><style>.drcls-1{fill:#bfc0c0;fill-rule:evenodd}</style></defs><path id="drtool-show" class="drcls-1" d="M1103.35 873.176l-.45-.216c-1.25-.581-2.5-1.14-3.76-1.7-.95-.421-1.89-.841-2.85-1.279a10.87 10.87 0 0 0-5.09-1.031 9.643 9.643 0 0 0-3.19.859c-.71.333-1.43.67-2.14 1.006a198 198 0 0 1-5.03 2.315c-.13.066-.27.13-.4.193a5.362 5.362 0 0 0-1.99 1.348 1.723 1.723 0 0 0-.38 1.392 1.976 1.976 0 0 0 .87 1.358 13.457 13.457 0 0 0 2.44 1.249c.31.134.62.268.95.419.89.38 1.79.807 2.66 1.22 1.28.612 2.61 1.245 3.96 1.745a6.817 6.817 0 0 0 2.64.426c.29 0 .58-.008.87-.016.25-.006.5-.013.73-.014a6.26 6.26 0 0 0 2.78-.772c.21-.1.42-.2.64-.29.99-.417 1.97-.888 2.92-1.344.88-.426 1.8-.867 2.74-1.267.2-.1.41-.193.62-.288a9.14 9.14 0 0 0 2.41-1.4 1.985 1.985 0 0 0 .66-1.334 1.5 1.5 0 0 0-.36-1.107 6.434 6.434 0 0 0-2.25-1.472zm1.08 2.9a8.109 8.109 0 0 1-2.08 1.183c-.22.1-.44.2-.63.288-.94.4-1.86.849-2.76 1.281-.93.449-1.9.912-2.86 1.317-.23.1-.46.2-.69.308a5.218 5.218 0 0 1-2.13.652c-.29 0-.57.006-.86.014a7.34 7.34 0 0 1-3-.322c-1.31-.486-2.61-1.107-3.87-1.706a76.79 76.79 0 0 0-2.68-1.234c-.32-.149-.65-.288-.97-.427a12.267 12.267 0 0 1-2.24-1.138.611.611 0 0 1-.27-.433.363.363 0 0 1 .07-.309 4.365 4.365 0 0 1 1.54-1c.14-.068.29-.135.4-.191 1.69-.745 3.39-1.544 5.03-2.317.71-.336 1.42-.671 2.14-1.006a8.339 8.339 0 0 1 2.75-.74 9.636 9.636 0 0 1 4.44.924c.95.433 1.9.855 2.85 1.278 1.24.554 2.49 1.109 3.72 1.683.15.075.31.147.47.22a5.312 5.312 0 0 1 1.8 1.146.135.135 0 0 1 .03.124.639.639 0 0 1-.2.403zm-.08 4.127a8.109 8.109 0 0 1-2.08 1.183c-.22.1-.44.2-.63.289-.94.4-1.87.849-2.77 1.281-.93.449-1.89.912-2.85 1.316-.23.1-.46.2-.69.309a5.215 5.215 0 0 1-2.14.652c-.28 0-.56.006-.85.013a7.34 7.34 0 0 1-3-.321c-1.31-.487-2.61-1.107-3.87-1.706a76.79 76.79 0 0 0-2.68-1.234c-.32-.149-.65-.288-.97-.428a12.4 12.4 0 0 1-2.22-1.122.656.656 0 0 0-.92.18.675.675 0 0 0 .18.939 13.516 13.516 0 0 0 2.44 1.248c.31.134.62.267.95.42.89.38 1.79.807 2.66 1.221 1.28.611 2.61 1.244 3.96 1.743a6.817 6.817 0 0 0 2.64.426c.29 0 .58-.007.86-.015.26-.007.51-.013.74-.014a6.192 6.192 0 0 0 2.77-.772c.22-.1.43-.2.65-.291a61.75 61.75 0 0 0 2.91-1.343c.89-.426 1.81-.867 2.74-1.268.21-.1.42-.193.63-.288a9.351 9.351 0 0 0 2.41-1.395.68.68 0 0 0 .07-.952.662.662 0 0 0-.94-.074zm0 4.128a8.137 8.137 0 0 1-2.08 1.182c-.22.1-.44.2-.63.289-.94.4-1.87.849-2.76 1.281-.94.448-1.9.912-2.86 1.317-.23.1-.46.2-.69.309a5.228 5.228 0 0 1-2.14.651c-.28 0-.56.006-.85.014a7.375 7.375 0 0 1-3-.321c-1.31-.488-2.61-1.107-3.87-1.706-.88-.42-1.79-.854-2.68-1.235-.32-.148-.65-.288-.97-.427a12.471 12.471 0 0 1-2.22-1.122.656.656 0 0 0-.92.179.674.674 0 0 0 .18.938 13.4 13.4 0 0 0 2.44 1.25c.31.134.62.267.95.419.89.38 1.79.807 2.66 1.221 1.28.611 2.61 1.244 3.96 1.744a6.816 6.816 0 0 0 2.64.425c.29 0 .58-.007.87-.014.25-.007.5-.014.73-.015a6.179 6.179 0 0 0 2.77-.772c.22-.1.43-.2.65-.29.99-.418 1.97-.888 2.92-1.344.88-.426 1.8-.867 2.73-1.267.21-.1.42-.194.63-.289a9.184 9.184 0 0 0 2.41-1.394.681.681 0 0 0 .07-.953.661.661 0 0 0-.94-.072z" transform="translate(-1078.06 -868.938)"/></svg><svg width="15.03" height="18.969" viewBox="0 0 15.03 18.969" id="tool-text" x="2276" y="2050" xmlns="http://www.w3.org/2000/svg"><defs><style>.dscls-1{fill:#bfc0c0;fill-rule:evenodd}</style></defs><path id="dstool-text" class="dscls-1" d="M1092.02 401.95h.23a.824.824 0 0 0 .86-.886V384.9h5.69a.83.83 0 0 0 .86-.887v-.153a.829.829 0 0 0-.86-.887h-13.32a.829.829 0 0 0-.86.887v.155a.83.83 0 0 0 .86.887h5.68v16.162a.829.829 0 0 0 .86.886zm7.2-18.09a.385.385 0 0 0-.24-.41.384.384 0 0 1 .24.41zm-14.17 0a.39.39 0 0 1 .25-.41.391.391 0 0 0-.25.41z" transform="translate(-1084.63 -382.969)"/></svg><svg width="21.88" height="19.907" viewBox="0 0 21.88 19.907" id="tool-trend" x="2292" y="2069" xmlns="http://www.w3.org/2000/svg"><defs><style>.dtcls-1{fill:#bfc0c0;fill-rule:evenodd}</style></defs><path id="dttool-trend" class="dtcls-1" d="M1084.23 269.926a2.884 2.884 0 0 0 2.91-2.878 2.631 2.631 0 0 0-.49-1.366l11.6-10.554-.03-.029a3.217 3.217 0 0 0 1.8.461 2.882 2.882 0 0 0 2.9-2.878 2.932 2.932 0 0 0-3.16-2.644 2.884 2.884 0 0 0-2.91 2.878 2.647 2.647 0 0 0 .44 1.292l-11.6 10.555.13.133a3.257 3.257 0 0 0-1.85-.492 2.882 2.882 0 0 0-2.9 2.878 2.938 2.938 0 0 0 3.16 2.644z" transform="translate(-1081.06 -250.031)"/></svg><svg width="22" height="22" viewBox="0 0 22 22" id="tool-zoom" x="2314" y="2089" xmlns="http://www.w3.org/2000/svg"><defs><style>.ducls-1{fill:#bfc0c0;fill-rule:evenodd}</style></defs><path id="dutool-zoom" class="ducls-1" d="M1090.22 598.962a9.287 9.287 0 1 0 5.84 16.5l5.23 5.227a.984.984 0 0 0 .69.284.944.944 0 0 0 .68-.284.949.949 0 0 0 0-1.366l-5.23-5.23a9.28 9.28 0 0 0-7.21-15.131zm0 16.625a7.341 7.341 0 1 1 7.34-7.339 7.346 7.346 0 0 1-7.34 7.339z" transform="translate(-1080.94 -598.969)"/></svg><svg id="trader-binance" width="11.6" height="11.6" viewBox="0 0 11.6 11.6" x="2336" y="2111" xmlns="http://www.w3.org/2000/svg"><style>.dvst0{fill:#f3ba2f}</style><g id="dvXMLID_15_"><path id="dvXMLID_20_" class="dvst0" d="M3.5 4.9l2.3-2.3 2.3 2.3 1.3-1.3L5.8 0 2.2 3.6l1.3 1.3"/><path id="dvXMLID_19_" class="dvst0" d="M0 5.8l1.3-1.3 1.3 1.3-1.3 1.3L0 5.8z"/><path id="dvXMLID_18_" class="dvst0" d="M3.5 6.7L5.8 9l2.3-2.3L9.4 8l-3.6 3.6L2.2 8l1.3-1.3"/><path id="dvXMLID_17_" class="dvst0" d="M9 5.8l1.3-1.3 1.3 1.3-1.3 1.3L9 5.8z"/><path id="dvXMLID_16_" class="dvst0" d="M7.1 5.8L5.8 4.5l-1 1-.1.1-.2.2 1.3 1.3 1.3-1.3"/></g></svg><svg id="trader-bitfinex" width="10" height="9.9" viewBox="0 0 10 9.9" x="2348" y="2123" xmlns="http://www.w3.org/2000/svg"><style>.dwst0{fill:#97c554}.dwst1{fill:#709b30}</style><g id="dwXMLID_2_"><path id="dwPath-1-Copy-7_5_" class="dwst0" d="M.4 8.5c.5.5 3 2.8 6.9.1 2.9-2.2 2.8-7.1 2.5-8.6C9.8.3 6.4 7.6.4 8.5zM9.8.1S6.1-.4 2.4 1.9C.2 3.4-.1 5.5 0 6.9 5.3 6.3 9.7.2 9.8.1z"/><path id="dwPath-1-Copy-6_5_" class="dwst1" d="M9.8.1S6.1-.4 2.4 1.9C.2 3.4-.1 5.5 0 6.9 5.3 6.3 9.7.2 9.8.1z"/></g></svg><svg id="trader-coinbase" width="13.5" height="13.5" viewBox="0 0 13.5 13.5" x="2358" y="2133" xmlns="http://www.w3.org/2000/svg"><style>.dxst0{fill:#e8e8e8}.dxst1{fill:#0081c9}</style><g id="dxXMLID_2_"><circle id="dxXMLID_3_" class="dxst0" cx="6.7" cy="6.7" r="6.7"/><path id="dxFill-1_5_" class="dxst1" d="M6.6 10.3c-1.5 0-3-1.1-3-3.5 0-2.5 1.5-3.5 3-3.5.7 0 1.3.2 1.7.5l-.5 1c-.2-.3-.6-.5-1-.5-.9 0-1.7.7-1.7 2.4S6 9.1 6.8 9.1c.4 0 .8-.1 1.1-.3l.5 1c-.5.3-1 .5-1.8.5"/></g></svg><svg id="trader-coinbene" width="10.8" height="10.8" viewBox="0 0 10.8 10.8" x="2372" y="2147" xmlns="http://www.w3.org/2000/svg"><style>.dyst0{fill:#0232d2}.dyst1{fill:#0132d1}.dyst2{fill:#006ee2}.dyst3{fill:#bafdfe}.dyst4{fill:#0232d1}.dyst5{fill:#fefefe}</style><g id="dy_x37_NL8Y3.tif_5_"><g id="dyXMLID_2_"><path id="dyXMLID_12_" class="dyst0" d="M5 10.8c-.1-.1-.2-.1-.4-.2-.1-.2.1-.3.2-.3l2.4-1.2c.1-.1.2-.1.4 0-.6.6-1.1 1.3-2 1.7H5z"/><path id="dyXMLID_11_" class="dyst1" d="M1.6 7.6C1 7 .4 6.5 0 5.8v-.9c.1 0 .1-.2.2-.3.2 0 .2.1.3.3.4.8.8 1.5 1.1 2.3.1.1.2.3 0 .4z"/><path id="dyXMLID_10_" class="dyst2" d="M1.6 7.6c.1-.3-.1-.5-.2-.7C1 6.1.7 5.3.2 4.6c0-.1 0-.1.1-.2.1-.2.3-.4.5-.6C1.5 3.2 2 2.5 2.7 2c.2-.2.4-.3.6-.5C4.1 1.2 5 .8 5.8.3c.1-.1.3-.1.4-.1h.1c.1.1.2.1.3.2.7.7 1.5 1.4 2.1 2.3.2.2.3.4.5.6.4.7.8 1.5 1.1 2.3.1.2.2.4.2.6 0 .2-.1.3-.2.5-.7.7-1.5 1.5-2.3 2.1l-.3.3c-.5.2-1 .5-1.5.7l-1.2.6c-.1.1-.3.1-.3.3-.1 0-.2-.1-.2-.1-.2 0-.4-.2-.5-.4-.5-.6-1-1.1-1.6-1.6-.2-.2-.2-.3-.3-.4-.2-.2-.4-.4-.5-.6z"/><path id="dyXMLID_9_" class="dyst3" d="M2.7 2.1L.3 4.5C0 3.9.4 3.2.9 2.9c.6-.3 1.1-.6 1.8-.8z"/><path id="dyXMLID_8_" class="dyst3" d="M8 8.8c.7-.7 1.5-1.4 2.2-2.2.1-.1.3-.2.3-.4 0 0 0-.1.1 0 .1.9-.2 1.6-1.1 1.9-.6.3-1 .5-1.5.7z"/><path id="dyXMLID_7_" class="dyst3" d="M8.8 2.7C8 1.9 7.1 1.1 6.3.3c.6-.2 1.2 0 1.5.6.4.5.7 1.2 1 1.8z"/><path id="dyXMLID_6_" class="dyst0" d="M10.6 6.3c-.1 0-.1 0 0 0-.3-.9-.9-1.6-1.2-2.5-.1-.2-.3-.3-.2-.5l1.2 1.2c.5.5.5 1.1.2 1.8z"/><path id="dyXMLID_5_" class="dyst4" d="M6.2.3c-.9.4-1.8.8-2.6 1.2-.1 0-.2.2-.3 0L4.5.3C5-.1 5.6-.1 6.2.3z"/><path id="dyXMLID_4_" class="dyst3" d="M2.1 8.2c.8.7 1.6 1.6 2.3 2.4-.5.2-1.2 0-1.5-.6-.3-.6-.7-1.2-.8-1.8z"/><path id="dyXMLID_3_" class="dyst5" d="M6.6 4.6c-.1-.8-.1-.8-.9-.8H4.5c-.2 0-.3.1-.3.3v2.6c.1.2.1.3.3.3h1.7c.3 0 .3-.1.3-.3v-.9c-.1-.5.1-.8.6-1 .3-.1.4-.2.4.2v1.8c0 .7-.3 1-1 1-.8.2-1.5.2-2.2.1-.6 0-.9-.3-.9-1V3.8c0-.6.3-1 .9-1h2.2c.3.1.5.2.7.4.4.4.3.9-.2 1.1-.1.1-.3.2-.4.3z"/></g></g></svg><svg id="trader-huobi" width="8.3" height="12.9" viewBox="0 0 8.3 12.9" x="2383" y="2158" xmlns="http://www.w3.org/2000/svg"><style>.dzst0{fill:#454e72}.dzst1{fill:#24a9e2}</style><g id="dzXMLID_2_"><path id="dzXMLID_4_" class="dzst0" d="M5.9 4.3c0 .7-.3 1.2-.6 1.7-.3.4-.7.7-1.1 1.1-1.1 1.1-1.8 2.4-2.3 3.8-.1.3-.2.6-.2.9 0 .1-.1.1-.2.1-1.8-1.6-2-4.4-.3-6.1.2-.2.5-.4.7-.6.9-.9 1.5-2 1.8-3.4.1-.5.1-1.1.1-1.6V.1c.1 0 .1 0 .1.1.4.3.8.8 1.2 1.3.5.8.7 1.6.8 2.5v.3z"/><path id="dzXMLID_3_" class="dzst1" d="M4.2 12.9c-.5 0-.9-.1-1.4-.2-.1 0-.1 0-.1-.1s0-.1.1-.1c.2 0 .4-.2.5-.4 0-.1.1-.2.1-.3.1-.7.4-1.3.8-1.9.4-.5.9-1 1.4-1.5.8-.9 1.4-1.8 1.8-2.9 0 0 0-.1.1-.1s.1.1.1.1c.3.6.5 1.2.6 1.8.1.6.2 1.1.1 1.7-.1 1.2-.6 2.3-1.6 3-.7.6-1.6.9-2.5.9z"/></g></svg><svg id="trader-kraken" width="13.8" height="10.7" viewBox="0 0 13.8 10.7" x="2392" y="2171" xmlns="http://www.w3.org/2000/svg"><style>.east0{fill:#1e84b7}</style><path id="eaXMLID_2_" class="east0" d="M0 9.8v-.1-.5-1.9-.4-.2-.1-.1-.2c.1-.2 0-.4.1-.6.1-1.2.7-2.3 1.4-3.3C2.4 1.2 3.7.5 5.1.1c.3 0 .6 0 .9-.1.7-.1 1.4 0 2 0 .8.1 1.4.3 2.1.7.6.3 1.2.7 1.7 1.2.7.7 1.2 1.5 1.5 2.4.3.7.4 1.5.4 2.2V9.8c0 .5-.3.8-.8.8h-.3c-.5 0-.8-.3-.8-.8v-.6-2.3c0-.2 0-.3-.1-.5-.1-.4-.4-.6-.8-.6s-.6.2-.8.5c-.2.4-.2.6-.2.8V9.8c0 .5-.3.9-.9.9h-.4c-.6 0-.8-.5-.9-.9V8.4 7.1c0-.2 0-.3-.1-.5 0-.4-.4-.6-.7-.7-.4 0-.7.3-.8.6-.1.2-.1.4-.1.5V9.6c0 .6-.3.9-.9 1h-.4c-.6-.1-.8-.4-.8-1V7.2c0-.2 0-.4-.1-.7-.1-.3-.5-.6-1-.5-.4 0-.7.4-.7.8v2.9c-.1.6-.3.8-.9.9H.8c-.1-.1-.3 0-.4-.1-.2-.1-.3-.3-.4-.5v-.2z"/></svg><svg id="trader-okex" width="13.9" height="13.9" viewBox="0 0 13.9 13.9" x="2406" y="2182" xmlns="http://www.w3.org/2000/svg"><style>.ebst0{fill:#88bdf3}.ebst1{fill:#3075ee}.ebst2{fill:#5795f1}.ebst3{fill:#205fec}.ebst4{fill:#134bef}.ebst5{fill:#0932e8}.ebst6{fill:#164bea}.ebst7{fill:#3170f1}</style><g id="ebPath-raw_5_"><circle id="ebOval_5_" class="ebst0" cx="7" cy="3.2" r="3.2"/><circle id="ebOval-Copy_5_" class="ebst1" cx="7" cy="10.8" r="3.2"/><circle id="ebOval-Copy-2_5_" class="ebst2" cx="10.8" cy="7" r="3.2"/><circle id="ebOval-Copy-3_5_" class="ebst3" cx="3.2" cy="7" r="3.2"/><path id="ebCombined-Shape_23_" class="ebst4" d="M6.2 6.2c-1.1-.3-2-1.2-2.3-2.3 1.1.3 2 1.2 2.3 2.3z"/><path id="ebCombined-Shape_22_" class="ebst5" d="M3.9 10c.3-1.1 1.2-2 2.3-2.3C5.9 8.9 5 9.8 3.9 10z"/><path id="ebCombined-Shape_21_" class="ebst6" d="M7.7 7.7C8.9 8 9.8 8.9 10 10c-1.1-.2-2-1.1-2.3-2.3z"/><path id="ebCombined-Shape_20_" class="ebst7" d="M10 3.9c-.2 1.1-1.1 2-2.3 2.3.3-1.1 1.2-2 2.3-2.3z"/></g></svg><svg width="35" height="35" viewBox="0 0 35 35" id="trading-paper" x="2420" y="2196" xmlns="http://www.w3.org/2000/svg"><defs><style>.eccls-1{fill:#909fab;fill-rule:evenodd}</style></defs><path class="eccls-1" d="M28.44 4.25H2.28A2.3 2.3 0 0 0-.01 6.54V32.7a2.29 2.29 0 0 0 2.29 2.29h26.16a2.29 2.29 0 0 0 2.29-2.29V6.54a2.3 2.3 0 0 0-2.29-2.29zm.91 28.45a.913.913 0 0 1-.91.91H2.28a.913.913 0 0 1-.91-.91V6.54a.913.913 0 0 1 .91-.91h26.16a.913.913 0 0 1 .91.91V32.7zM32.7-.01H6.54a2.3 2.3 0 0 0-2.29 2.29.69.69 0 1 0 1.38 0 .913.913 0 0 1 .91-.91H32.7a.913.913 0 0 1 .91.91v26.16a.913.913 0 0 1-.91.91.69.69 0 0 0 0 1.38 2.29 2.29 0 0 0 2.29-2.29V2.28A2.29 2.29 0 0 0 32.7-.01zM15.77 13.54v2.92h-8.6V19h13.51zm-.82 12.17v-2.92h8.6v-2.55H10.04z"/></svg><svg width="35" height="26" viewBox="0 0 35 26" id="trading-real" x="2455" y="2231" xmlns="http://www.w3.org/2000/svg"><defs><style>.edcls-1{fill:#909fab;fill-rule:evenodd}</style></defs><path class="edcls-1" d="M29.05 12.04a.671.671 0 0 0-.12-.75L18.86.23a.714.714 0 0 0-.78-.18.693.693 0 0 0-.45.65v5.2H.71a.7.7 0 0 0-.71.7v5.16a.7.7 0 0 0 .71.69h27.7a.694.694 0 0 0 .64-.41zm-27.63-.98V7.3h16.91a.7.7 0 0 0 .71-.7V2.52l7.78 8.54H1.42zm32.87 2.5H6.59a.694.694 0 0 0-.64.41.671.671 0 0 0 .12.75l10.07 11.06a.719.719 0 0 0 .53.23.742.742 0 0 0 .25-.05.693.693 0 0 0 .45-.65v-5.2h16.92a.7.7 0 0 0 .71-.7v-5.16a.7.7 0 0 0-.71-.69zm-.71 5.15H16.67a.7.7 0 0 0-.71.7v4.08l-7.78-8.54h25.4v3.76z"/></svg><svg width="32" height="32" viewBox="0 0 32 32" id="two-windows" x="2490" y="2257" xmlns="http://www.w3.org/2000/svg"><defs><style>.eecls-1{fill:#737779;fill-rule:evenodd}</style></defs><path class="eecls-1" d="M21.333 10.66V0H0v21.33h10.667V32H32V10.66H21.333zm-19.422 5V2.03h17.513v8.63h-8.757v5H1.91zm17.513-2.96v2.96h-6.848V12.7h6.848zm10.665 13.62H12.576v-4.99h8.757V12.7h8.756v13.62z"/></svg><svg width="25" height="18" viewBox="0 0 25 18" id="undo" x="2522" y="2289" xmlns="http://www.w3.org/2000/svg"><defs><style>.efcls-1{fill-rule:evenodd}</style></defs><path class="efcls-1" d="M23.83 10.217H3.95l5.46 5.7a1.243 1.243 0 0 1 0 1.719 1.128 1.128 0 0 1-.82.356 1.111 1.111 0 0 1-.82-.356L.32 9.857a1.262 1.262 0 0 1 0-1.718L7.77.36a1.122 1.122 0 0 1 1.64 0 1.242 1.242 0 0 1 0 1.718L3.95 7.783h19.88a1.217 1.217 0 0 1 0 2.434z"/></svg><svg width="24.969" height="24.97" viewBox="0 0 24.969 24.97" id="user" x="2547" y="2307" xmlns="http://www.w3.org/2000/svg"><defs><style>.egcls-1{fill:#737779;fill-rule:evenodd}</style></defs><path class="egcls-1" d="M21.322 15.13a12.435 12.435 0 0 0-3.2-2.33 7.647 7.647 0 1 0-11.267 0 12.223 12.223 0 0 0-3.2 2.33A12.383 12.383 0 0 0 0 23.96v1.01h3.816v-1.01a8.672 8.672 0 1 1 17.344 0v1.01h3.82v-1.01a12.384 12.384 0 0 0-3.658-8.83zm-8.831-3.66a3.83 3.83 0 1 1 3.83-3.83 3.836 3.836 0 0 1-3.83 3.83z"/></svg></svg>